<svg width="1300" height="215" viewBox="0 0 1300 215" fill="none" xmlns="http://www.w3.org/2000/svg">
<path d="M232.442 19.4061C232.442 18.8955 232.967 17.8742 233.492 17.8742C233.492 17.8742 235.592 17.8742 237.692 18.3848L240.317 16.3423L241.368 15.321C242.418 15.8316 244.518 15.8316 246.093 15.8316C247.668 15.8316 252.393 13.2784 252.918 13.7891V14.8104C252.918 15.8316 254.493 15.8316 256.593 15.321C258.168 14.8104 265.519 15.8316 267.619 15.8316C269.719 15.8316 276.019 13.7891 277.594 13.7891C279.17 13.7891 282.32 15.321 283.37 15.321C284.42 15.321 287.57 14.2997 288.095 13.7891C288.62 13.7891 290.72 13.7891 290.72 12.7678C290.72 11.7465 294.92 13.2784 295.97 13.2784L297.021 12.7678C299.121 11.7465 299.646 12.2572 300.171 13.7891L300.696 14.8104C302.271 13.2784 303.846 12.2572 304.896 12.7678C305.946 13.2784 309.621 13.2784 311.721 13.2784L313.296 12.2572L314.346 11.7465C315.397 11.7465 317.497 12.2572 318.547 12.2572L318.022 13.7891C319.072 14.2997 319.597 15.321 320.647 16.3423C321.697 15.8316 322.222 15.321 322.222 14.2997C322.222 13.7891 324.847 12.7678 326.947 12.2572L328.522 13.2784V13.7891C330.622 14.8104 332.722 14.8104 333.772 13.7891L334.823 13.2784L335.348 12.7678C336.398 12.7678 336.923 13.2784 336.923 13.7891V14.2997V14.8104C336.923 15.321 337.448 15.321 338.498 15.321L339.023 15.8316C339.548 15.321 340.073 14.2997 340.598 13.7891L341.648 12.7678C342.698 13.2784 344.273 13.2784 344.798 13.2784C345.323 13.2784 348.998 13.2784 351.623 15.321L355.299 13.2784C355.824 12.7678 357.399 13.2784 357.399 13.2784L358.974 15.321C361.074 14.2997 363.174 13.2784 363.699 12.7678C364.224 12.2572 366.324 11.2359 366.849 11.7465C367.374 12.7678 369.474 14.2997 371.049 13.2784H372.1L374.2 12.7678C376.825 12.7678 378.925 12.7678 379.45 12.2572C379.975 12.2572 382.075 11.7465 383.65 11.2359C385.225 10.7253 391.001 12.7678 391.526 12.2572L392.051 11.7465C393.101 11.7465 393.626 11.7465 393.101 12.7678V13.2784C393.101 13.7891 394.151 14.2997 394.676 14.2997L396.251 15.321C396.251 14.2997 396.776 13.2784 397.301 12.7678C397.826 12.2572 400.451 11.2359 403.076 11.7465L405.176 12.2572H405.701C406.226 12.7678 406.226 13.2784 406.226 13.2784C406.226 13.2784 405.176 14.2997 404.651 15.8316C404.126 17.3636 398.351 16.8529 397.826 16.8529V17.3636V17.8742C397.826 18.3848 400.451 19.9167 403.076 20.938L406.226 19.4061L407.276 18.3848C408.852 17.8742 408.852 17.3636 407.276 16.8529C405.701 16.3423 407.801 12.2572 409.377 11.2359H411.477C415.152 11.2359 418.827 12.2572 422.502 10.7253C423.552 10.2146 425.652 10.7253 426.702 11.7465L427.753 12.2572C428.278 13.7891 428.803 14.2997 429.328 13.2784C429.853 12.2572 432.478 10.2146 434.053 10.7253C435.628 10.7253 440.878 10.2146 441.928 8.6827L443.503 9.70398H444.028C444.553 10.2146 445.078 11.2359 446.129 12.2572L447.704 11.2359H448.229C449.279 11.2359 450.329 11.7465 450.329 12.7678C450.329 13.2784 451.379 14.8104 451.904 13.7891V13.2784C451.904 12.7678 451.904 12.2572 451.904 12.2572C452.429 11.2359 453.479 11.2359 454.529 11.7465C457.154 13.2784 455.054 10.2146 456.629 10.2146H457.679C458.729 9.70398 460.829 10.2146 462.404 10.7253L463.979 9.70398C464.505 9.19334 465.555 9.19334 465.555 9.19334L468.705 12.2572C470.805 9.70398 473.43 8.6827 475.005 10.2146C476.58 11.2359 482.355 10.2146 483.406 10.7253C484.456 11.2359 489.181 9.70398 491.806 9.70398L493.906 8.6827H494.431C494.956 9.19334 497.581 9.70398 499.156 10.2146L502.307 9.70398L504.932 9.19334C505.457 10.7253 506.507 11.2359 507.557 10.2146C508.607 9.70398 512.807 10.2146 513.332 10.2146C513.857 10.2146 515.957 9.19334 518.057 8.6827L520.158 9.19334L522.258 9.70398C524.883 9.70398 526.983 9.70398 527.508 9.70398C528.033 10.2146 529.083 10.2146 529.608 9.70398C530.133 9.19334 533.283 7.66142 533.808 8.17206C534.333 8.6827 536.433 10.2146 537.483 10.7253C538.534 11.2359 542.734 10.7253 544.834 9.70398C546.934 9.19334 552.184 9.70398 553.234 9.70398C554.284 9.70398 557.96 8.6827 558.485 9.19334C559.535 9.70398 562.16 10.7253 562.685 10.7253H563.21L564.785 9.70398C566.885 9.70398 569.51 10.2146 570.035 10.2146C570.56 10.2146 573.185 9.70398 574.76 9.70398C576.336 9.70398 580.011 9.70398 580.011 8.17206L583.161 9.70398L583.686 10.2146C584.211 10.2146 585.786 10.7253 587.361 10.7253C588.936 10.7253 593.661 11.2359 595.237 10.2146C596.812 9.70398 601.537 8.6827 602.587 8.6827L603.112 9.19334C604.162 10.2146 605.212 11.2359 607.312 10.7253H608.887C609.937 9.70398 610.987 8.6827 611.512 8.6827H612.037H614.138C616.238 8.17206 619.388 7.66142 620.963 7.15079L622.013 8.6827C623.063 10.2146 625.163 10.7253 627.263 9.19334L636.714 8.17206H639.339C642.489 8.17206 645.639 8.6827 646.689 8.17206C647.739 8.17206 650.365 9.70398 650.365 8.6827C650.365 7.66142 651.415 7.15079 652.465 8.6827C653.515 10.2146 659.815 8.6827 662.44 8.6827C664.54 8.6827 671.366 7.66142 671.891 7.15079L675.566 9.70398C680.291 9.19334 685.016 9.19334 685.016 9.19334C686.591 8.17206 687.642 7.15079 689.742 8.17206L690.792 8.6827C692.892 8.17206 696.042 7.15079 698.142 7.15079H699.717H702.342C704.967 7.15079 707.593 7.66142 708.118 8.17206C708.643 8.6827 710.218 9.19334 710.218 9.19334C710.218 8.6827 712.318 7.66142 713.368 7.66142C714.943 7.66142 719.143 7.15079 720.193 7.66142V8.17206V10.2146C721.768 9.70398 724.919 9.19334 727.019 8.6827L729.119 9.70398C730.169 10.2146 731.744 10.2146 732.269 9.70398C733.844 8.6827 735.419 8.6827 737.519 8.6827H739.094C741.194 8.17206 743.295 7.66142 743.82 7.15079C744.87 7.15079 747.495 8.17206 749.07 8.17206C750.645 8.17206 754.845 7.66142 755.895 7.66142C756.42 7.66142 758.52 6.64015 759.045 7.15079C759.57 7.66142 763.246 9.70398 765.871 11.2359L766.396 7.15079C766.396 7.15079 767.971 6.64015 768.496 7.15079L772.696 8.6827C774.796 8.17206 779.521 7.66142 783.197 7.15079H786.872H787.397C787.922 8.17206 791.597 8.6827 795.797 8.17206H799.473C800.523 8.17206 800.523 9.70398 798.948 10.2146L798.422 10.7253C797.372 10.7253 797.372 11.2359 798.422 11.7465C799.473 12.2572 801.573 12.2572 801.573 11.2359C801.573 10.2146 802.623 7.15079 804.198 7.15079C805.773 7.15079 811.023 8.17206 812.598 8.17206H814.173C815.748 8.17206 817.849 8.17206 819.424 8.6827L822.049 9.70398C824.674 8.6827 827.299 7.66142 828.874 7.15079C829.924 6.64015 832.024 9.19334 832.024 9.19334C832.024 9.19334 833.599 8.6827 834.124 8.17206L835.174 9.19334C836.75 10.2146 837.8 10.2146 838.325 8.17206V7.66142C839.375 7.15079 840.95 7.15079 841.475 8.17206C842 9.19334 846.2 8.6827 848.3 8.17206C850.4 8.17206 856.701 7.66142 857.751 7.66142L858.276 6.64015C858.276 6.64015 860.376 6.12951 860.376 6.64015C860.901 7.15078 860.901 9.19334 863.001 8.17206L864.051 7.66142C864.576 6.12951 866.676 5.61887 868.776 6.64015L870.876 7.66142C871.401 7.66142 876.652 7.15079 877.177 7.15079C878.752 6.12951 880.327 4.59759 880.852 7.66142C881.377 7.66142 882.427 8.17206 883.477 8.17206C884.527 8.17206 887.677 8.6827 887.677 8.6827C888.202 8.17206 889.252 7.15078 889.252 6.64015C889.252 6.64015 890.827 5.61887 892.402 5.10823C893.978 4.59759 897.653 6.12951 898.178 5.61887C898.178 5.10823 900.803 5.10823 901.328 5.61887C901.853 6.12951 905.003 7.66142 906.053 7.15079C906.578 6.64015 909.203 5.61887 909.728 6.12951C910.253 6.64015 911.829 7.15078 912.354 6.64015C912.354 6.12951 913.404 5.10823 914.979 6.12951H916.029H918.129C918.654 7.15079 919.704 7.66142 920.754 6.64015C921.279 5.61887 923.904 3.57632 923.904 4.08696C923.904 4.59759 925.479 5.10823 926.004 5.10823C927.054 4.59759 929.154 4.08696 929.68 4.59759V5.10823C930.205 6.64015 931.78 6.64015 932.305 5.61887C932.83 3.06568 934.93 3.06568 936.505 4.08696L938.08 5.10823C939.655 4.59759 942.28 4.08696 944.38 3.57632L945.955 5.10823C947.531 6.64015 949.106 7.15079 951.206 5.61887C951.206 5.61887 952.256 5.61887 952.256 6.12951L953.831 7.66142C954.356 7.15079 955.406 6.12951 955.931 5.10823H956.456H958.556C961.181 5.61887 963.281 5.61887 963.806 5.61887C964.331 5.61887 965.906 5.10823 966.957 5.10823C968.007 5.10823 971.682 7.15079 973.257 6.12951C974.307 5.61887 978.507 4.59759 979.032 5.61887C979.557 6.64015 984.282 4.59759 986.908 4.59759C989.008 4.59759 994.783 5.61887 994.783 5.10823C994.783 4.59759 995.833 2.55504 996.358 3.57632V4.08696V4.59759C996.358 5.10823 997.933 5.61887 1000.03 5.61887C1001.61 5.61887 1005.81 7.15079 1004.76 7.66142C1003.71 8.17206 992.158 8.6827 989.533 9.19334C986.908 9.70398 987.433 10.7253 989.008 10.7253L990.583 11.2359C991.108 10.7253 992.683 9.70398 993.733 9.19334C995.308 8.6827 996.883 12.2572 997.933 12.2572C998.458 12.2572 999.508 11.2359 998.983 10.2146V9.70398C999.508 7.66142 999.508 8.17206 997.933 7.66142L996.883 5.10823C995.308 5.61887 993.208 6.12951 993.208 6.12951H992.683L990.583 7.15079C992.683 6.64015 995.833 7.15079 997.933 8.17206C1000.03 9.19334 1004.23 9.70398 1005.81 9.19334C1006.86 8.6827 1011.58 9.70398 1012.63 9.19334C1013.68 8.6827 1013.68 6.64015 1013.16 6.12951C1013.16 6.12951 1011.06 5.10823 1010.53 5.10823C1009.48 5.10823 1008.43 4.59759 1009.48 4.08696C1010.53 3.57632 1014.21 1.53376 1014.21 1.53376C1014.21 1.02313 1016.83 1.53376 1017.36 1.53376C1017.88 1.53376 1019.46 3.57632 1019.98 4.08696C1020.51 5.10823 1025.23 6.64015 1025.23 7.15079C1025.76 7.66142 1026.28 5.61887 1025.76 5.10823H1025.23L1023.66 4.59759C1022.08 4.08696 1021.03 3.06568 1021.56 2.0444V1.53376C1021.03 1.02313 1020.51 0.00184923 1022.08 0.512488L1024.18 1.02313C1026.81 1.53376 1029.96 2.0444 1031.01 2.0444C1032.59 2.55504 1038.89 1.02313 1039.41 0.512488C1040.46 0.00184923 1042.04 0.00184923 1043.61 -0.508789L1044.66 0.00184923H1045.19L1045.71 0.512488C1046.76 1.53376 1047.81 1.53376 1048.34 1.02313C1048.86 0.512488 1051.49 0.512488 1052.54 1.02313C1053.59 1.53376 1057.79 0.512488 1059.36 1.53376L1060.94 2.55504C1060.94 2.55504 1060.41 3.57632 1060.41 4.08696V4.59759C1060.41 5.10823 1060.94 4.59759 1061.46 3.57632C1061.99 2.55504 1065.66 1.53376 1065.14 1.53376C1065.14 1.02313 1065.66 0.512488 1066.71 0.512488C1067.76 0.512488 1072.49 2.0444 1074.59 2.55504C1076.69 3.06568 1082.46 1.53376 1082.46 2.0444C1082.46 2.55504 1084.04 2.55504 1083.51 3.06568C1083.51 3.57632 1081.94 4.08696 1081.41 4.59759C1080.89 5.10823 1082.46 8.6827 1085.61 9.19334L1086.66 7.15079L1087.71 5.61887C1086.14 3.06568 1086.14 1.02313 1088.24 1.02313L1088.76 1.53376C1089.81 2.55504 1090.34 4.08696 1092.44 4.08696C1092.44 4.08696 1092.44 4.08696 1092.44 4.59759C1092.96 7.15079 1092.96 7.15079 1096.11 7.66142H1097.69C1099.79 8.17206 1101.36 7.66142 1101.36 6.64015C1101.36 5.61887 1101.89 2.55504 1102.94 2.55504L1103.99 3.57632C1105.04 4.59759 1105.04 5.61887 1103.99 6.12951C1102.94 6.12951 1102.94 9.19334 1103.99 9.19334C1105.04 9.19334 1107.66 7.66142 1108.19 7.66142C1108.71 8.17206 1110.29 9.19334 1110.81 8.6827H1111.34C1111.86 8.17206 1112.39 7.66142 1112.91 7.15079C1113.44 6.64015 1116.06 8.6827 1116.59 8.17206C1117.11 7.66142 1119.21 6.12951 1120.26 6.64015C1121.31 7.15078 1124.46 7.66142 1124.99 7.15079C1125.52 6.64015 1127.09 5.61887 1127.62 6.12951C1127.62 6.64015 1129.19 8.6827 1129.72 8.6827H1130.24L1133.92 7.15079C1137.07 8.6827 1140.22 10.2146 1140.74 10.2146C1141.27 10.7253 1142.84 11.2359 1142.84 10.7253C1142.84 10.7253 1143.37 9.19334 1143.37 8.6827C1143.37 7.66142 1146.52 8.6827 1147.57 8.6827C1148.62 9.19334 1150.72 8.6827 1150.72 9.19334C1150.72 9.70398 1153.87 8.6827 1154.39 8.17206C1155.44 7.66142 1159.12 7.15078 1160.17 6.64015L1160.69 6.12951C1161.22 6.12951 1161.74 5.61887 1161.74 5.61887L1164.89 8.17206C1165.42 5.61887 1166.99 4.08696 1168.57 4.59759C1170.14 5.10823 1172.77 8.6827 1172.77 8.17206C1172.77 7.66142 1173.29 6.64015 1173.82 6.12951C1174.87 7.15079 1176.44 7.66142 1177.49 8.6827C1178.02 9.19334 1176.97 9.70398 1176.97 10.7253V11.2359C1176.97 11.7465 1178.02 12.7678 1178.54 12.7678L1179.07 12.2572C1181.17 10.7253 1182.22 11.2359 1182.74 13.2784C1183.79 13.2784 1184.84 12.7678 1184.84 12.2572C1184.84 11.7465 1184.84 10.2146 1184.32 10.2146C1183.79 10.2146 1184.84 8.17206 1185.89 8.17206C1186.94 8.17206 1189.04 10.7253 1189.57 12.2572V13.7891C1189.57 14.2997 1188.52 15.321 1187.47 15.321H1184.84C1181.69 14.8104 1179.07 15.321 1179.59 15.8316C1179.59 16.8529 1184.32 17.3636 1184.84 17.8742C1185.37 18.8955 1185.89 20.4274 1185.89 20.938C1185.89 21.4487 1184.84 23.4912 1184.32 24.5125L1183.79 25.5338C1182.74 26.555 1181.69 27.5763 1180.12 28.087C1180.12 28.087 1179.59 27.0657 1179.59 26.0444C1179.59 25.0231 1177.49 21.9593 1176.44 22.4699C1175.39 22.9806 1173.29 25.0231 1173.82 25.5338L1174.34 26.0444L1174.87 26.555C1175.39 27.0657 1175.92 27.5763 1175.39 27.5763C1174.87 28.087 1174.34 29.1082 1174.87 29.6189C1175.39 30.1295 1184.84 31.1508 1184.32 31.6614C1183.79 31.6614 1183.27 32.6827 1184.32 32.1721C1185.89 32.1721 1186.94 34.7253 1187.47 34.7253C1187.99 34.7253 1189.04 34.2146 1189.04 34.2146C1189.04 33.704 1189.04 33.1933 1190.09 33.704H1191.14C1193.77 35.2359 1194.82 36.2572 1193.77 36.2572C1192.72 36.2572 1189.57 37.2784 1189.57 37.7891C1189.57 38.2997 1190.62 39.8316 1191.67 40.8529C1192.72 41.8742 1196.92 42.3848 1196.92 41.8742C1196.92 41.3636 1199.02 40.8529 1200.59 41.3636C1201.64 41.8742 1204.27 41.8742 1203.74 40.8529C1203.22 39.8316 1206.89 35.7465 1208.47 33.704H1210.04H1212.67C1213.19 32.1721 1214.24 31.6614 1214.24 32.1721C1214.24 32.6827 1215.29 34.7253 1215.82 34.2146C1216.34 33.704 1218.45 32.6827 1220.02 33.704C1221.07 34.7253 1225.27 36.2572 1226.85 36.2572C1227.9 35.7465 1231.57 33.704 1234.72 34.2146L1237.35 34.7253C1237.35 34.7253 1237.87 34.2146 1237.87 33.704C1238.4 33.1933 1238.92 32.6827 1239.45 32.6827H1241.02C1240.5 33.704 1239.97 35.2359 1239.45 35.7465C1238.92 36.2572 1239.45 39.321 1242.07 40.3423L1243.65 37.2784C1244.17 36.7678 1245.75 36.2572 1246.8 35.7465C1247.32 35.7465 1248.37 36.2572 1248.37 36.7678C1248.9 37.2784 1248.9 38.2997 1249.95 37.2784C1251 36.7678 1252.05 36.2572 1252.57 37.2784C1253.1 38.2997 1253.62 39.321 1253.1 39.8316C1252.57 41.3636 1251 42.3848 1249.95 43.4061L1248.9 44.4274C1249.42 45.4487 1252.05 46.9806 1253.62 48.0018C1255.72 48.5125 1259.4 49.0231 1260.97 49.0231C1262.55 49.0231 1267.8 52.087 1268.85 53.1082C1269.9 54.1295 1274.1 54.6401 1274.62 55.1508C1275.15 55.6614 1274.62 57.704 1274.62 59.7465L1276.2 61.7891L1276.72 62.2997C1277.25 63.321 1276.2 64.3423 1274.62 64.8529L1273.57 65.8742C1272 67.4061 1272 67.4061 1270.95 66.3848L1270.42 65.8742L1268.32 66.3848C1267.27 67.9167 1266.22 68.4274 1265.7 67.4061C1265.17 66.3848 1260.45 66.3848 1259.4 66.3848C1258.35 66.3848 1254.67 67.9167 1256.25 68.4274C1257.82 68.938 1260.97 70.9806 1260.45 72.0019L1262.02 72.5125L1264.12 73.5338C1265.7 72.0018 1266.75 70.9806 1266.75 70.9806C1266.75 70.9806 1267.8 72.0018 1268.85 72.5125C1269.9 72.5125 1268.85 75.5763 1267.27 75.5763L1266.22 76.5976L1265.17 77.6189C1264.12 79.1508 1264.12 80.6827 1264.65 81.1933C1265.17 81.1933 1265.7 83.2359 1264.12 84.7678C1262.55 86.2997 1258.87 89.8742 1259.4 89.8742C1259.92 89.8742 1260.97 90.8955 1260.45 91.9167H1259.92H1258.87C1257.82 92.4274 1256.25 93.4487 1255.72 94.9806L1257.3 96.0018C1257.82 96.5125 1255.72 102.64 1255.2 102.64L1253.62 103.661C1252.05 104.683 1251 105.704 1251 106.725C1251 107.236 1248.9 109.789 1248.37 110.81L1247.85 111.321L1246.27 112.853C1247.32 114.385 1247.85 116.938 1247.85 118.47L1247.32 120.002L1246.8 122.044C1248.9 122.044 1249.42 123.066 1248.37 123.576C1247.32 124.087 1243.65 126.13 1242.07 126.13H1240.5H1237.87C1236.3 127.661 1234.2 128.683 1233.15 129.193C1231.57 127.151 1230 130.215 1228.42 129.193C1226.85 128.172 1225.27 128.172 1223.7 127.661C1223.17 129.193 1221.6 129.704 1220.02 128.683C1218.45 128.172 1214.77 129.704 1214.77 129.704C1213.72 128.683 1212.14 129.704 1211.09 129.193L1208.99 128.172C1207.42 129.193 1204.27 128.683 1202.17 128.172L1200.07 129.704L1199.54 130.215C1198.49 130.215 1195.34 129.193 1192.72 128.172L1190.09 129.704L1189.57 130.215C1188.52 130.215 1186.94 130.215 1185.89 130.215C1184.84 130.215 1181.17 129.193 1180.64 129.193C1179.59 129.193 1176.97 129.193 1175.92 129.704C1174.87 130.215 1170.14 129.704 1168.57 129.704H1166.47C1165.42 129.704 1164.37 129.704 1163.84 129.193L1162.79 128.172C1161.74 128.683 1159.12 129.704 1157.02 130.215L1155.44 130.725C1154.92 130.725 1154.39 131.236 1154.39 131.747L1153.34 132.768C1152.82 131.747 1151.77 131.236 1151.24 131.236C1150.72 131.236 1148.62 133.789 1148.62 135.832V137.874V138.385C1144.94 138.385 1141.27 138.895 1140.74 138.895L1141.27 138.385L1144.42 135.832C1144.42 137.874 1144.94 139.406 1145.99 139.406C1147.04 139.406 1147.04 136.853 1147.04 135.832C1147.04 134.81 1145.47 132.257 1144.94 132.257C1144.42 131.747 1142.32 133.278 1141.27 134.3C1140.22 135.321 1145.99 138.895 1150.19 139.917L1151.24 138.895L1152.82 137.874C1153.87 135.832 1156.49 134.81 1158.07 135.321C1159.64 135.832 1163.84 137.874 1163.84 136.342L1164.37 135.321V134.81C1165.42 134.81 1166.47 134.81 1166.47 135.321C1166.47 135.832 1166.47 136.853 1166.99 136.853C1167.52 136.853 1169.62 137.364 1169.09 137.874H1166.99C1165.42 138.895 1164.89 140.427 1166.47 140.427L1166.99 139.917L1169.09 138.385C1171.19 138.385 1174.34 138.895 1175.39 138.895C1176.44 139.406 1179.59 137.364 1180.12 137.364H1180.64L1181.69 137.874C1182.74 138.385 1184.84 138.895 1186.42 138.385L1187.47 139.406C1187.99 139.917 1189.04 139.406 1189.57 139.406H1190.09C1190.62 139.406 1191.14 139.917 1191.14 140.427V140.938V141.449C1191.14 142.47 1190.09 144.002 1189.04 145.534H1186.94H1184.84C1181.69 145.534 1182.22 147.066 1185.89 149.108H1189.57H1191.14C1192.19 148.087 1193.77 147.066 1194.82 147.066L1195.34 147.576L1196.39 148.598C1196.39 150.64 1197.44 152.172 1197.97 153.193H1199.02C1199.54 153.193 1200.07 152.172 1199.54 151.661V151.151C1199.02 150.64 1197.44 150.64 1196.39 151.151L1194.82 150.64C1193.77 150.64 1192.72 151.661 1190.62 151.151L1187.99 150.64C1184.32 151.151 1180.64 153.193 1179.59 154.215L1181.17 155.747L1181.69 156.257C1182.74 156.257 1185.37 155.236 1187.47 153.193L1190.62 154.215L1195.87 157.278L1198.49 154.725C1197.44 153.193 1196.92 150.64 1197.44 150.13C1197.97 149.108 1201.12 147.576 1202.69 149.108L1203.22 150.13C1203.74 150.64 1203.22 151.661 1202.69 152.172L1202.17 152.683C1201.64 155.236 1202.69 157.278 1204.27 156.768C1205.84 156.257 1208.47 160.342 1207.94 160.853C1207.42 161.364 1204.79 163.406 1206.37 162.895C1207.94 162.385 1221.6 160.853 1224.22 160.342C1226.32 159.321 1223.7 158.81 1220.55 159.321L1217.92 160.342L1217.4 160.853C1216.34 160.853 1215.82 160.853 1215.82 160.342C1215.82 159.832 1215.82 158.81 1214.77 158.81C1213.72 159.832 1213.19 160.853 1212.14 161.874L1211.62 162.385C1212.14 163.406 1214.24 164.427 1215.82 164.938C1217.4 165.449 1220.02 162.385 1220.55 162.385C1221.07 161.874 1222.12 162.385 1222.65 164.427L1225.27 163.406L1226.85 162.895C1223.7 162.385 1218.45 161.874 1215.82 160.853C1213.19 160.342 1213.19 157.789 1214.24 157.278C1214.77 156.768 1216.87 154.725 1216.87 154.725C1217.4 155.747 1217.4 157.278 1217.92 157.789L1220.02 158.81C1220.02 157.278 1220.55 155.747 1221.07 155.236C1221.6 154.725 1227.9 155.747 1232.1 156.768L1236.3 154.725L1237.87 154.215C1237.87 155.236 1237.87 156.768 1238.4 156.768C1238.92 157.278 1241.02 157.789 1241.02 157.278C1241.02 156.257 1243.12 155.236 1244.7 155.747C1246.27 156.257 1245.22 160.342 1245.75 160.853C1246.8 161.364 1251.52 161.874 1255.72 160.342L1259.4 159.321H1259.92C1260.97 160.342 1262.55 161.364 1262.55 160.853C1263.07 160.342 1263.6 159.832 1264.12 159.321L1262.55 158.3C1260.97 157.278 1258.87 156.768 1257.82 156.768H1256.77C1256.25 156.768 1255.72 156.768 1255.2 156.768C1252.05 155.236 1252.57 157.278 1252.57 158.81V159.321C1252.05 159.832 1252.05 159.321 1252.05 158.3C1252.05 157.278 1248.9 157.278 1248.37 156.768V156.257C1248.37 155.747 1249.42 155.236 1249.95 155.236C1251.52 155.747 1253.1 153.193 1255.2 155.236C1257.3 154.215 1259.4 153.704 1259.4 154.725L1259.92 155.236H1260.45C1261.5 154.725 1263.07 154.215 1264.12 153.704C1265.17 153.193 1268.32 152.172 1268.32 153.193C1268.85 154.215 1269.9 156.257 1270.42 155.747H1270.95L1273.57 155.236C1276.72 154.215 1280.4 154.215 1281.97 154.725C1281.97 156.768 1283.02 158.81 1280.92 160.342C1280.92 160.342 1280.92 161.364 1281.45 161.874C1281.97 161.874 1283.02 161.874 1283.02 161.874C1283.55 160.853 1284.07 159.832 1285.12 159.321L1285.65 158.81C1286.17 158.3 1286.7 158.3 1287.22 158.81C1287.22 159.321 1288.8 161.364 1289.32 161.364C1289.85 161.364 1291.95 161.364 1292.47 161.874C1293 162.385 1294.57 162.895 1295.1 162.895C1295.1 162.385 1296.15 161.874 1296.67 162.385C1297.2 162.895 1300.35 163.917 1301.4 162.385L1302.97 161.364C1304.02 162.385 1304.55 163.406 1304.02 163.917C1303.5 164.427 1302.45 165.959 1303.5 165.959C1304.55 165.959 1306.65 166.981 1306.12 167.491C1305.6 168.002 1305.6 170.044 1306.65 170.555C1307.7 171.066 1308.75 172.087 1306.12 173.108L1304.02 174.129C1303.5 174.64 1302.45 175.151 1302.45 175.661C1302.45 176.172 1302.45 177.193 1302.45 177.704C1302.97 178.215 1304.02 178.215 1305.07 178.215L1306.65 177.704C1306.65 176.683 1307.17 175.151 1307.7 174.64H1308.22C1309.8 174.13 1315.05 175.661 1315.05 177.193V177.704C1314 178.215 1312.43 179.236 1311.38 179.747C1310.33 180.257 1307.7 182.81 1307.7 182.81C1307.7 183.321 1306.65 183.321 1306.12 181.789H1305.07H1304.55C1302.97 182.81 1302.97 183.832 1303.5 184.342C1304.02 184.853 1306.65 188.427 1306.65 190.981V193.534V196.598C1303.5 198.13 1300.87 199.151 1300.87 198.64C1300.87 198.13 1299.82 197.108 1299.3 197.619C1298.77 198.13 1298.77 200.683 1298.25 200.683C1297.72 200.683 1295.62 201.704 1296.67 202.725H1297.2C1298.25 202.725 1299.82 201.704 1300.87 201.704C1301.92 201.704 1303.5 201.193 1303.5 202.725C1303.5 203.747 1302.97 204.768 1302.45 204.768L1300.35 205.278C1298.25 205.789 1296.15 204.257 1296.67 201.704L1293 202.215L1290.37 202.725C1291.42 204.768 1291.42 206.3 1290.37 206.3C1289.32 206.3 1285.65 206.3 1285.65 205.278C1285.65 204.768 1284.6 203.747 1283.55 204.257C1282.5 205.278 1279.87 207.321 1279.87 206.3C1279.87 205.789 1278.82 203.747 1278.3 204.257C1277.77 204.768 1273.57 206.3 1270.95 206.3L1268.85 207.321L1266.75 208.342C1264.65 208.342 1261.5 208.342 1259.4 208.342H1257.3H1256.77C1256.25 208.342 1253.62 208.342 1251.52 207.832C1249.42 207.321 1243.12 208.853 1242.6 208.342C1242.07 208.342 1239.45 207.832 1238.4 207.832C1237.35 207.832 1233.67 207.832 1232.62 207.321C1231.57 206.81 1227.37 209.364 1225.8 209.874L1225.27 207.321V206.3C1223.7 206.81 1222.12 207.321 1221.07 207.832C1220.02 208.342 1218.45 209.364 1217.92 208.853C1217.4 208.342 1213.19 208.853 1212.14 209.364C1211.09 209.364 1207.42 208.853 1206.89 208.853C1206.37 208.853 1204.27 209.874 1203.74 210.385C1203.22 210.895 1201.12 209.874 1200.59 209.874C1200.07 209.874 1196.92 210.385 1195.34 210.895C1193.24 211.917 1186.94 209.364 1184.84 209.364C1182.74 209.364 1177.49 211.917 1176.97 211.917C1175.92 211.917 1172.77 211.917 1171.72 212.938L1169.09 211.406C1168.04 210.895 1165.42 211.917 1163.84 211.917C1162.27 211.917 1160.69 211.406 1159.12 211.406C1158.07 211.406 1157.02 211.917 1155.44 211.917L1152.82 212.427C1152.82 210.895 1152.82 210.385 1152.82 211.406C1152.82 212.427 1148.62 211.406 1147.04 211.917H1145.47L1139.69 211.406C1133.39 210.895 1126.57 210.895 1123.94 210.895C1121.84 210.895 1115.54 212.427 1115.01 212.427C1114.49 212.427 1112.39 212.938 1110.29 212.938L1109.76 212.427C1108.19 210.895 1106.09 212.427 1104.51 211.917L1102.41 210.895C1100.31 210.895 1097.69 210.895 1096.11 210.895C1095.06 210.895 1090.34 212.427 1087.19 212.938L1084.56 211.917L1082.99 211.406C1080.36 211.917 1077.74 211.917 1076.69 211.917C1075.64 211.406 1073.54 212.427 1073.01 211.917C1072.49 211.406 1070.39 210.385 1069.34 210.895C1068.29 211.406 1064.09 212.938 1063.04 212.938C1061.99 212.938 1058.84 212.427 1058.31 211.917C1057.26 211.406 1052.54 212.938 1049.39 213.449C1046.24 213.959 1038.36 212.427 1037.84 212.938C1037.31 213.449 1034.69 211.917 1033.64 211.917C1033.11 211.917 1031.01 212.427 1031.01 211.917C1030.48 211.406 1029.96 210.895 1029.43 211.406C1029.43 211.917 1027.33 212.427 1026.28 211.917C1024.71 211.406 1020.51 212.938 1019.46 212.938L1018.93 212.427C1016.31 210.895 1014.73 211.406 1012.11 212.427C1010.01 213.449 1007.91 210.895 1006.33 211.406C1004.23 212.427 1002.13 212.938 1000.56 212.427C998.983 211.917 998.458 211.917 997.408 212.427C996.883 212.427 994.783 211.917 994.783 211.917C993.733 213.449 992.683 211.406 991.633 211.917C990.583 212.938 990.583 212.427 989.533 211.917L987.958 210.895C985.858 211.406 981.132 211.917 977.457 212.427C973.782 212.938 961.706 212.427 960.131 212.938H958.556H954.356C950.156 212.938 945.43 213.449 944.38 213.959C943.33 214.47 938.08 213.449 935.98 212.938H933.88C931.78 212.938 929.154 212.938 926.529 212.938H924.954C924.429 211.917 923.904 211.406 923.379 211.406C923.379 211.406 921.804 211.917 921.279 212.427C920.754 212.938 918.129 213.959 917.604 213.449C917.079 212.938 911.829 213.959 908.153 213.959C904.478 213.959 893.978 212.938 892.928 212.938C891.878 212.938 887.677 213.959 886.627 212.938C885.577 212.427 881.377 213.959 879.802 213.959C878.752 213.959 874.027 214.47 872.451 214.47C870.876 214.47 866.151 213.449 865.101 213.449C864.051 213.959 859.851 213.959 858.801 213.449C857.751 212.938 851.975 213.959 849.875 213.449L847.775 212.938L846.2 212.427C843.05 212.938 837.8 213.959 834.124 213.959C830.449 213.959 817.849 214.47 815.223 214.47L814.173 211.406C812.073 211.406 811.023 211.917 811.023 212.427C811.023 212.938 811.023 213.959 809.973 213.959C808.923 213.959 804.198 214.47 802.623 214.981L800.523 213.959L799.473 213.449C798.948 212.938 797.897 211.917 796.847 211.917C796.322 212.427 795.797 213.449 795.797 213.449L790.022 212.427C783.722 213.449 778.471 213.449 778.471 212.938C778.471 212.427 776.896 210.385 775.846 210.895H774.796C772.171 210.895 773.221 212.427 772.171 212.938C771.121 213.449 770.071 212.938 769.021 213.449C767.971 213.449 766.396 213.959 765.346 214.47H764.821C763.771 213.959 762.195 213.959 761.145 213.449C760.095 212.938 756.945 213.959 755.895 213.959C755.37 214.47 751.695 213.449 750.645 213.959C749.595 214.47 743.82 214.47 740.669 214.981L738.044 212.938C737.519 212.427 735.419 212.427 734.894 212.938L732.269 214.47C729.644 213.959 726.494 212.938 724.919 212.938V213.449C723.343 216.002 721.243 212.938 719.668 213.959L718.093 214.981C716.518 213.959 712.843 212.938 710.218 212.427L708.118 213.959L706.543 214.981C705.492 213.449 702.867 212.427 701.292 212.938L700.767 213.449C699.717 214.981 698.667 212.938 697.617 213.449H697.092C696.567 213.449 694.467 213.449 692.367 212.938C690.267 212.427 678.716 213.959 678.191 213.959C676.616 212.938 675.041 211.917 673.466 213.449C671.366 214.981 671.366 212.427 669.266 212.938L667.69 213.449C665.59 212.938 661.39 212.427 657.715 212.938H654.565C652.465 212.938 649.84 213.449 649.315 212.427L647.739 210.385C646.164 211.406 644.589 211.917 644.064 211.917C643.539 211.917 641.439 211.917 639.864 211.917H638.814C637.764 211.917 636.189 212.427 635.139 212.938C634.614 212.427 634.089 211.406 633.564 210.895C633.039 210.385 631.464 211.917 630.938 212.938H629.363H627.788C625.688 212.938 622.538 213.449 620.438 213.449L618.338 212.938L616.238 212.427C614.138 212.427 612.037 211.917 611.512 211.406C611.512 210.895 610.987 209.364 610.987 209.364C610.987 209.364 610.462 209.874 610.462 210.385C610.462 210.895 608.887 212.938 607.837 212.427L607.312 211.917C605.212 209.874 605.212 209.874 602.587 211.917H602.062C601.537 211.917 599.437 212.427 596.812 212.427C594.187 212.427 587.361 210.385 586.311 210.895C585.261 211.406 583.686 210.385 584.736 209.874C585.261 209.364 586.836 207.321 585.261 207.832C583.686 208.342 580.536 210.385 580.011 210.895H579.486C578.436 210.895 577.386 210.385 576.336 210.385C575.285 210.385 574.235 210.895 573.71 210.895C572.66 210.895 571.085 210.895 570.035 210.895L566.885 209.364C563.21 209.874 559.535 210.895 558.485 210.895L557.435 210.385C555.859 209.874 552.184 209.364 550.609 209.874L547.459 210.895C544.834 209.874 542.209 209.364 541.684 209.874C541.159 210.385 534.333 209.874 530.133 209.874H526.458H523.833C520.682 209.874 515.957 210.385 513.332 210.895L510.707 210.385C509.132 209.874 505.457 208.853 504.407 208.342C503.882 207.832 502.307 208.342 502.307 208.342C501.781 210.385 500.732 210.895 498.631 209.364C498.631 209.364 496.006 209.874 493.381 210.385L491.281 209.874C488.656 209.364 486.556 208.853 484.456 210.385C483.931 210.895 482.355 210.385 481.305 209.874H480.255C479.205 209.364 477.63 209.874 477.105 210.385C476.055 210.895 471.33 209.874 470.28 209.874C469.23 209.874 463.454 209.874 460.829 210.385L458.729 208.853C458.729 208.853 458.204 209.364 457.679 209.364L451.904 210.385C448.754 209.874 445.604 209.364 445.078 208.853C444.553 208.853 440.353 209.364 436.678 209.364L433.003 209.874H432.478C431.953 208.853 430.903 208.342 430.903 208.853C430.903 209.874 424.602 210.385 420.927 210.385L417.777 209.364C416.727 209.874 414.627 209.874 412.527 209.874L410.427 209.364C408.852 208.853 407.801 211.917 405.701 209.874C405.176 209.364 404.126 209.874 403.601 209.874C403.076 209.874 402.551 210.385 402.026 209.874H400.976C399.926 209.874 397.826 209.874 396.251 210.385L395.201 209.364C393.626 207.321 392.576 210.385 390.476 209.364C388.375 208.342 389.426 206.3 388.375 205.278C387.85 204.768 386.275 204.768 385.225 205.278L383.65 205.789C382.075 206.81 381.025 207.832 381.55 208.342C382.075 208.342 381.55 209.364 379.975 209.364L378.4 208.853C377.35 208.853 376.3 208.342 375.25 208.342H372.1C369.999 206.3 368.424 205.278 368.424 206.3C368.424 206.81 366.849 209.874 364.749 209.874C362.649 209.874 358.449 207.832 358.449 207.832L357.924 208.342L357.399 208.853C356.874 208.853 354.774 209.364 352.673 209.364C350.573 209.364 344.798 208.342 344.273 207.832C343.748 207.321 341.648 207.321 341.648 207.832C341.648 208.342 338.498 208.853 338.498 208.342C338.498 208.342 337.973 206.81 337.448 205.278L334.298 206.81C332.722 207.832 331.147 207.832 329.572 208.342H328.522C326.947 208.342 325.897 207.321 325.897 206.3V205.278C325.897 204.257 325.897 203.236 324.322 203.236C322.222 203.236 323.272 204.768 323.272 205.278V205.789C322.747 206.3 322.222 206.3 321.697 205.789C321.172 205.278 319.072 204.768 318.022 205.789V207.321C317.497 207.832 316.972 207.832 316.447 207.832H315.922C315.396 207.321 314.871 206.3 314.346 205.278C313.821 204.257 311.196 203.747 311.721 204.257C312.246 204.768 311.721 206.81 308.571 208.342L305.946 206.3L304.896 205.278C303.846 205.789 302.271 206.3 301.221 206.81C300.171 207.321 295.445 205.278 294.92 205.278H294.395H293.87C293.345 205.278 293.345 205.789 293.345 206.3C293.345 206.3 291.77 207.832 288.62 208.342L287.045 207.321L284.42 206.3C281.795 206.81 280.22 206.81 280.22 206.3C280.745 205.789 279.17 202.725 276.019 201.193L272.344 203.236L269.719 204.257C266.044 203.236 263.419 202.215 264.469 202.215L265.519 200.172C268.144 200.683 270.244 201.193 270.769 201.193C271.294 201.193 271.294 199.151 268.669 199.661V199.151L265.519 197.108C264.469 199.151 263.944 200.172 263.419 199.661C263.419 199.151 262.369 198.129 261.844 198.129C261.319 198.129 259.219 199.151 259.219 199.661C259.219 200.172 257.118 201.704 256.068 202.215C255.018 203.236 252.918 207.321 252.918 206.3C252.918 205.278 251.868 203.236 250.818 203.236C249.768 203.236 247.143 202.725 246.618 202.725C246.093 202.725 244.518 203.236 245.568 203.236C246.093 203.747 248.193 204.768 248.718 205.278V205.789C248.718 205.789 248.193 206.3 247.668 206.3L246.093 205.789C243.993 205.278 242.943 204.257 242.943 203.236C242.943 202.215 242.418 200.683 241.368 201.193C240.317 201.704 239.792 204.257 239.267 204.768C238.742 205.278 235.592 205.278 235.592 205.278C235.067 205.278 234.542 203.236 235.592 201.704C236.642 200.172 237.167 196.598 235.592 198.129C234.017 199.661 229.817 203.236 228.767 202.725C227.717 202.215 225.617 204.257 225.617 204.768C225.092 205.278 221.416 205.789 220.891 204.768C220.366 203.747 225.092 202.215 226.142 201.704C227.192 201.193 230.867 200.172 230.867 199.661C231.392 199.151 231.392 197.619 231.392 197.108C230.867 197.108 229.817 197.108 229.292 197.108L228.242 198.129C227.192 199.151 226.142 200.172 226.142 200.172C225.617 200.172 225.092 199.661 224.567 198.64C224.567 198.13 222.992 196.087 222.466 195.576C221.941 195.066 220.366 193.534 219.841 194.044C219.316 194.044 217.741 195.576 216.691 196.598H217.741H220.366C221.416 198.13 222.466 199.661 222.466 199.661C222.466 199.661 221.416 200.683 220.366 200.683H219.316H218.266C217.216 200.683 216.166 201.193 216.166 201.704C215.641 201.704 214.066 201.193 213.541 201.704C213.016 202.215 211.441 202.215 210.916 201.704C210.391 200.683 207.766 199.151 206.191 200.172L205.141 200.683L204.091 201.193C203.04 200.683 201.465 199.661 199.89 198.64L198.84 197.619L197.79 196.598C196.215 197.108 194.115 198.13 193.59 198.64L193.065 199.151L192.015 200.172C190.965 201.704 189.39 202.215 187.815 201.704C186.24 201.193 183.614 199.151 182.564 199.151C181.514 198.64 178.889 198.64 179.414 199.661L178.889 200.172C178.364 200.683 176.789 201.193 176.264 201.704C176.789 202.215 176.789 203.236 176.264 203.236C175.739 203.236 174.689 202.725 174.164 202.215C173.639 201.704 169.964 199.151 166.814 199.661L167.339 202.725C167.339 203.747 164.188 204.257 163.663 203.236C163.138 202.215 163.138 201.704 164.713 201.193C165.238 201.193 166.288 200.172 165.763 199.661L165.238 198.64C164.713 199.661 162.613 200.172 161.038 199.661C159.463 199.661 154.738 201.193 153.688 200.683H153.163C152.638 200.683 151.063 200.172 150.538 200.683L148.438 201.704C146.337 201.193 143.712 200.172 143.712 200.172C143.187 200.172 141.087 200.172 138.987 200.683L137.412 199.661L136.887 199.151C135.837 198.64 134.787 199.151 134.787 200.172C134.787 200.683 132.687 203.236 130.587 203.236C128.486 203.236 123.761 202.725 123.236 203.236V203.747L122.711 204.257C122.186 204.768 122.186 204.768 121.661 204.257V203.747L121.136 204.257C120.611 203.747 118.511 203.747 116.411 204.768L114.836 203.236C113.786 204.257 112.211 204.768 111.161 204.257C110.11 203.747 107.485 204.257 105.91 204.257C104.335 203.747 100.135 205.278 99.0849 205.789C98.0348 205.789 94.3596 205.278 92.7845 205.789L91.2094 204.257L89.6344 203.236C87.5343 203.747 84.3841 204.768 82.284 204.768L80.7089 205.278L79.1338 205.789C77.5587 205.278 75.4586 203.747 74.4086 203.236L72.8335 204.768C71.7834 206.3 70.7334 204.257 69.6833 204.257C68.6333 204.257 66.5331 205.278 66.0081 205.278C63.908 204.257 62.3329 204.257 60.2328 204.257C57.6077 204.257 54.9825 203.236 52.8824 205.278C52.3574 205.278 50.7823 204.768 49.7322 204.257C48.6822 203.747 43.9569 203.236 41.8568 204.257L39.7567 203.747C36.0815 203.236 31.8813 202.215 28.2061 201.193C27.156 201.193 27.156 199.661 26.106 199.151C25.5809 198.64 25.0559 198.129 24.5309 198.129C23.4808 198.129 22.4308 198.64 21.9057 198.64H21.3807C20.8557 197.619 19.8056 196.598 18.2305 196.087C16.6554 195.576 12.9803 196.087 11.9302 196.598L10.8801 196.087C8.78003 195.066 6.67991 194.555 2.47968 194.555C1.95465 194.555 1.42963 193.534 1.42963 193.023C2.47968 192.002 4.05477 191.491 0.904602 190.981C-0.670486 190.981 -0.145454 189.449 0.904602 188.938L1.42963 188.427C1.95466 187.917 1.95466 186.895 1.42963 186.385C0.904602 185.874 3.00472 184.853 3.52975 185.364C4.05478 185.874 7.20494 184.853 7.72997 185.874L8.255 186.385C8.78003 186.895 8.255 187.406 8.255 187.917C8.255 188.427 9.30505 188.427 9.83008 188.938H10.3551C10.8801 188.938 11.9302 187.917 12.9803 186.895C14.0303 185.874 15.6054 182.3 15.0804 181.789C14.5553 180.768 10.3551 181.789 9.30506 181.278V180.768L8.78003 179.236C7.72997 177.704 6.67992 177.193 6.15489 178.215C5.62986 178.725 5.10484 181.789 4.05478 180.768C3.00472 179.747 -2.24557 178.215 -3.29562 177.704C-4.34568 177.193 -1.72054 174.64 -0.670486 175.661C0.37957 176.172 3.52975 177.704 4.05478 177.704C4.5798 177.193 5.62986 175.661 6.15489 174.64L8.255 175.661C8.78003 176.172 10.3551 176.172 10.3551 175.661C10.8801 174.64 10.8801 174.13 9.30506 173.619L8.255 173.108C7.20494 171.576 7.20494 170.044 8.255 169.534L8.78003 169.023L9.30506 168.512C9.30506 167.491 8.255 166.981 7.72997 166.47C7.20494 166.47 4.05477 164.938 1.42963 164.427L0.904602 165.959L-0.145462 169.023C-2.7706 168.512 -4.34568 167.491 -3.29562 166.981C-2.24557 166.47 -1.19551 165.959 -1.19551 165.449C-1.72054 165.449 -3.29562 163.917 -4.34568 162.895L-5.39574 162.385L-6.44579 161.874C-7.49585 162.385 -9.59597 161.874 -10.646 161.364H-11.6961C-13.2712 161.364 -14.3212 161.364 -15.8963 161.364C-18.5214 161.364 -20.6216 160.853 -23.2467 161.364C-25.3468 161.874 -26.9219 160.342 -29.547 160.853C-30.5971 160.853 -32.1722 160.342 -33.2222 159.832L-34.7973 158.81C-36.8974 158.81 -40.0476 158.3 -42.6727 158.3C-44.2478 157.789 -52.1233 154.725 -54.7484 153.704L-57.3735 153.193H-58.9486C-61.0487 153.193 -63.6739 152.683 -64.7239 152.172L-65.774 151.661L-69.9742 149.619C-69.4492 147.066 -68.3991 144.512 -67.8741 143.491L-71.0243 144.002C-72.5994 144.002 -73.6494 143.491 -73.1244 142.47V141.449C-72.5994 140.427 -73.1244 139.406 -73.6494 138.895C-74.1744 138.385 -75.2245 136.853 -74.6995 136.853C-74.1744 136.342 -71.5493 134.81 -71.0243 134.3L-72.5994 133.789C-74.1744 133.278 -74.6995 132.768 -74.1744 131.747L-73.1244 130.215C-74.1744 129.704 -76.2745 126.13 -77.3246 122.555L-79.9497 120.002L-80.4748 119.491C-79.4247 117.449 -79.4247 115.917 -79.9497 115.917C-80.4748 115.917 -82.0499 114.895 -80.9998 114.385C-79.9497 113.364 -80.9998 110.81 -80.4748 110.81C-79.9497 110.81 -77.8496 108.768 -78.3747 107.747L-78.8997 106.725C-79.4247 105.193 -80.4748 104.172 -79.9497 102.64C-79.9497 101.619 -78.3747 100.087 -77.3246 99.0657C-76.2745 97.0231 -73.6494 97.5338 -73.1244 97.0231L-72.0743 95.4912C-70.4992 95.4912 -68.9242 96.0018 -68.3991 96.0018C-67.8741 96.0018 -64.1989 92.938 -63.1488 92.938C-62.0988 92.938 -58.4236 91.9167 -57.3735 91.9167L-55.7984 91.4061C-54.7484 91.4061 -52.6483 92.4274 -51.5982 91.9167C-50.0231 91.4061 -49.4981 91.4061 -47.923 91.9167C-46.873 92.4274 -45.2979 91.9167 -44.2478 91.9167L-41.0977 90.3848C-41.6227 91.9167 -38.9975 91.4061 -36.3724 89.3635L-32.1722 89.8742H-31.6472C-30.5971 89.3636 -29.547 89.3635 -29.022 89.3635C-28.497 89.3635 -24.8218 89.3636 -22.1966 87.8316L-18.5214 89.3635C-17.4714 89.8742 -14.3212 88.3423 -13.7962 88.8529L-11.6961 90.3848C-10.121 89.3636 -7.49585 87.8316 -5.92077 87.321L-4.34568 86.8104C-2.7706 86.2997 -0.670486 86.2997 0.904602 86.8104C3.52974 87.321 6.15489 87.8316 8.78003 86.2997L10.8801 85.2785C13.5053 85.2785 16.1304 85.2784 16.6555 85.7891L17.1805 86.2997L17.7055 86.8104C18.2305 87.8316 19.8056 87.321 20.8557 86.2997C21.9057 85.2784 27.681 86.2997 29.7812 86.2997C31.8813 86.2997 37.6566 84.2572 39.2317 83.7465H40.8068C43.9569 83.7465 45.532 83.7465 47.1071 83.2359C47.6321 83.2359 48.1572 82.7253 48.6822 82.7253H49.7322C50.7823 82.2146 52.8824 81.704 53.9325 81.1933H54.9825H56.0326C57.0826 82.2146 57.6077 81.704 57.6077 80.1721L60.2328 80.6827C61.8079 80.6827 63.908 81.1933 65.4831 80.1721H66.5331C66.5331 81.1933 66.5331 82.2146 68.1082 81.704C68.6332 81.704 69.1583 80.1721 69.6833 79.6614C71.2584 79.1508 73.3585 78.6401 75.4586 78.6401H77.5587C80.1839 79.1508 82.809 78.6401 83.8591 78.6401C84.9091 78.1295 88.5843 77.6189 89.1093 78.1295C90.1594 78.1295 93.3096 78.1295 93.3096 78.1295C93.8346 77.6189 95.4097 77.1082 95.4097 77.6189C95.4097 78.1295 96.9848 78.6401 98.0348 78.6401C99.0849 78.1295 102.235 77.6189 103.285 78.1295C103.81 78.6401 106.435 79.6614 106.96 79.6614C107.485 79.1508 109.06 77.6189 109.585 77.1082C110.11 76.5976 113.786 76.5976 114.836 76.5976H115.886H117.461C119.036 76.5976 122.186 76.5976 123.761 77.1082H125.336C125.861 77.1082 126.386 77.1082 126.911 76.5976L130.587 74.555C132.687 76.087 134.787 76.5976 134.787 76.087C134.787 75.5763 135.837 74.0444 136.887 74.555H137.937H138.462C139.512 74.555 141.087 73.5338 142.137 72.5125H144.237H144.762C145.812 71.4912 145.287 70.4699 144.762 69.4487H143.712C142.137 68.938 142.137 69.9593 141.612 70.9806C141.612 71.4912 140.037 71.4912 138.987 71.4912C136.887 72.0018 134.787 72.5125 133.737 72.0019C131.637 70.9806 129.537 71.4912 127.436 71.4912C125.336 71.4912 123.236 71.4912 121.136 71.4912C119.036 71.4912 116.936 71.4912 114.836 71.4912C111.686 72.0018 110.635 69.9593 109.06 68.4274L107.485 66.8955C105.385 66.8955 103.285 67.4061 102.235 67.4061C101.185 67.9167 99.6099 67.9167 98.5598 67.9167C97.5098 67.9167 95.4097 66.3848 94.3596 65.8742C93.8346 65.3635 90.1594 64.3423 89.6344 64.8529L89.1093 65.3636C88.5843 66.3848 88.5843 66.3848 90.6844 66.3848C91.2095 66.3848 91.7345 66.3848 91.7345 66.3848C91.7345 66.8955 91.7345 67.9167 91.2094 67.9167C89.6344 67.9167 87.5342 68.938 87.5342 66.8955V65.8742C88.0593 64.3423 88.0593 63.321 88.5843 62.8104C88.5843 62.2997 88.5843 61.7891 88.0593 61.7891H87.5342C87.0092 61.7891 86.4842 61.7891 85.4342 62.2997L82.809 62.8104C83.8591 63.8316 83.334 65.8742 81.759 66.3848C80.1839 66.8955 74.9336 66.8955 74.9336 66.3848V65.8742V64.8529C75.4586 63.8316 74.9336 63.321 74.4086 63.321C73.8835 63.321 71.7834 62.2997 71.7834 60.2572H71.2584L68.6332 61.2784C69.6833 58.2146 71.7834 55.6614 72.8335 56.1721L73.8835 56.6827C74.9336 57.1933 75.9836 57.704 77.0337 57.704C77.5587 57.704 78.6088 57.704 79.1338 57.1933L80.1839 56.6827C81.759 56.6827 83.8591 55.6614 84.9091 55.1508V54.6401V54.1295C83.8591 53.6189 81.7589 52.5976 80.7089 52.5976L79.6588 53.1082C79.1338 53.6189 79.6588 55.1508 78.0838 54.6401L76.5087 54.1295C75.4586 53.1082 73.8835 53.1082 73.3585 54.1295C72.8335 55.1508 69.6833 54.1295 70.2083 53.6189C70.2083 53.1082 70.2083 52.5976 69.6833 52.5976C69.1583 52.5976 67.0582 53.1082 67.0582 53.6189C67.0582 54.1295 66.0081 55.6614 65.4831 55.6614C64.9581 55.1508 65.4831 54.6401 64.958 54.1295L63.383 52.5976C60.7578 52.5976 58.6577 52.5976 58.1327 52.5976C57.6077 52.5976 57.0826 50.555 59.1827 48.5125L61.8079 49.5338L63.908 50.555C66.0081 50.555 68.1082 49.5338 68.1082 48.5125C68.1082 47.4912 67.5832 44.938 67.0582 44.938C66.5331 44.938 64.433 45.4487 64.958 45.9593V46.4699V46.9806C64.958 47.4912 63.383 48.0018 62.3329 48.0018C61.2829 47.4912 59.1827 46.4699 60.2328 45.9593V45.4487C60.2328 44.938 59.1827 43.9167 58.6577 43.4061C58.6577 43.4061 57.0826 43.9167 56.5576 43.9167C56.0326 43.9167 54.9825 43.4061 54.4575 42.8955C54.4575 42.8955 54.9825 41.8742 55.5075 41.8742C56.0326 41.8742 58.1327 42.3848 60.2328 42.8955C62.3329 43.4061 69.1583 41.3636 69.6833 41.8742H70.2083C70.7334 41.8742 71.7834 41.3636 72.3084 40.8529V40.3423V39.8316C71.7834 39.321 72.3084 39.321 72.8335 38.8104C73.3585 38.2997 75.4586 38.2997 75.9836 38.2997C76.5087 38.8104 78.0838 39.321 78.6088 38.8104C79.1338 38.2997 81.2339 38.2997 81.759 39.321C82.284 40.3423 84.3841 42.8955 84.9091 42.8955C84.9091 42.8955 84.9091 41.3635 84.3841 39.321V37.2784V36.7678C85.9592 35.7465 87.0092 35.7465 87.5342 35.7465V36.2572L88.0593 37.2784C88.5843 38.8104 89.6344 38.2997 90.6844 36.2572L92.2595 35.7465L93.8346 34.7253C94.3596 33.1933 95.4097 32.1721 95.9347 32.6827C96.4597 33.1933 98.0348 34.2146 99.6099 34.2146L100.66 34.7253L101.71 35.2359C103.285 35.7465 104.86 35.2359 104.86 34.2146C104.86 33.1933 105.385 32.1721 105.91 32.1721H106.435C108.01 32.6827 109.06 33.704 110.635 33.704C111.161 33.704 112.211 31.6614 112.736 31.6614H114.311C115.886 31.6614 117.461 31.6614 117.986 32.1721C118.511 32.1721 120.086 32.1721 120.086 30.6401V29.6189L120.611 28.5976C121.136 27.5763 124.286 27.0657 127.436 28.087L131.112 25.5338C133.212 24.0018 134.787 21.4487 138.462 24.0018C140.037 22.9806 142.137 22.4699 142.662 23.4912L143.712 24.0018L144.237 24.5125C144.762 24.5125 146.337 24.5125 147.387 24.5125C148.438 24.5125 151.588 23.4912 153.163 22.9806C154.213 22.4699 159.463 22.4699 161.038 22.4699C162.613 22.4699 166.288 20.4274 167.339 21.4487C168.389 21.9593 170.489 24.5125 169.964 25.0231C169.964 25.5338 170.489 27.5763 171.539 27.5763H172.589H174.689C176.264 25.5338 177.839 23.4912 178.889 22.4699C179.939 21.4487 182.564 18.8955 183.089 19.4061H183.614L186.24 20.4274C185.715 21.4487 184.664 22.9806 184.139 23.4912L183.614 24.0018L183.089 24.5125C183.614 25.0231 184.139 26.0444 184.664 25.5338C185.189 25.5338 187.29 24.0018 189.39 22.4699L192.015 24.0018L192.54 24.5125C193.065 25.0231 194.64 24.0018 195.165 22.9806C195.69 21.9593 198.84 18.8955 199.89 19.4061H200.94L202.515 19.9167C204.091 20.938 206.191 21.4487 206.716 21.9593C207.766 21.9593 207.241 24.5125 207.766 25.0231C208.291 25.5338 209.341 25.5338 209.866 26.0444C209.866 26.555 211.966 26.0444 212.491 25.0231C212.491 24.0018 216.166 24.5125 217.216 24.5125C217.741 24.5125 220.891 23.4912 223.517 24.0018H226.142H228.242C230.867 24.5125 232.967 24.5125 233.492 23.4912C234.017 22.9806 231.917 19.9167 232.442 19.4061ZM1230 43.9167C1231.05 42.3848 1230.52 40.8529 1228.42 39.8316H1226.32L1223.7 39.321C1221.07 39.321 1219.5 39.8316 1220.55 40.3423C1221.6 40.8529 1228.95 45.4487 1230 43.9167ZM1255.2 58.7253C1255.72 58.2146 1255.2 56.1721 1254.15 54.1295H1250.47H1246.8C1245.22 56.1721 1244.7 58.7253 1246.27 59.7465H1246.8L1248.37 59.2359C1249.95 58.2146 1251.52 58.2146 1252.05 58.2146C1252.57 59.2359 1254.67 59.2359 1255.2 58.7253ZM1272.52 182.3C1273.05 182.3 1274.62 181.278 1275.67 179.747C1276.72 178.215 1273.57 174.64 1274.1 174.64V173.619C1272.52 173.108 1270.95 173.108 1270.42 173.619C1269.9 174.13 1270.95 175.661 1271.47 176.172C1272 176.683 1271.47 178.725 1272 179.747C1272.52 180.257 1272 182.3 1272.52 182.3ZM114.836 53.1082C114.836 54.1295 113.786 54.1295 113.261 53.6189C112.211 53.1082 112.736 55.1508 115.361 55.1508H117.461L121.136 55.6614C122.711 53.6189 122.711 52.5976 121.661 53.1082C120.611 53.6189 116.936 52.5976 116.936 52.087C116.936 51.5763 116.411 50.0444 115.886 50.0444C115.361 50.0444 114.836 52.087 114.836 53.1082ZM164.713 27.5763C165.763 26.0444 164.188 25.0231 161.563 25.0231L159.988 23.4912C158.938 24.0018 157.888 25.0231 157.888 25.5338C157.888 26.0444 161.038 27.5763 162.088 28.087C162.088 29.6189 162.613 30.1295 164.188 28.5976L164.713 27.5763ZM1170.14 29.6189C1170.14 28.5976 1169.62 28.087 1169.09 29.1082C1168.57 29.6189 1166.99 30.6401 1165.94 30.1295C1164.89 29.6189 1161.22 29.1082 1161.74 29.6189C1162.27 30.1295 1162.27 30.6401 1161.74 31.1508C1161.22 31.6614 1160.69 32.6827 1163.32 32.1721L1164.37 32.6827L1165.94 33.1933C1169.09 32.6827 1170.67 30.6401 1170.14 29.6189ZM1273.57 159.832C1274.62 160.342 1275.67 160.342 1275.67 159.321C1276.2 158.3 1274.1 155.747 1273.57 155.236L1272.52 156.257L1270.42 157.789C1268.32 157.278 1266.22 157.278 1265.7 157.278V158.3C1266.75 158.81 1268.32 159.832 1269.37 160.342H1269.9C1270.42 160.853 1273.05 159.321 1273.57 159.832ZM134.262 29.6189C135.837 30.1295 137.412 30.1295 137.412 29.6189C137.412 29.1082 137.937 27.5763 137.937 27.0657C138.462 26.555 137.412 25.5338 135.837 26.555L134.787 25.5338C133.212 24.5125 132.687 26.555 131.637 27.0657C130.587 27.5763 130.587 28.5976 131.637 29.1082C132.162 30.1295 132.687 31.1508 134.262 29.6189ZM1139.17 141.449C1138.64 141.959 1139.17 141.959 1140.74 141.959C1142.32 141.959 1145.99 144.002 1147.57 144.002C1149.14 144.002 1149.67 140.938 1148.09 140.938C1145.47 140.938 1139.69 141.449 1139.17 141.449ZM794.222 205.789C793.172 205.278 792.647 205.789 792.647 206.3C792.647 206.81 792.122 208.853 791.597 208.853C791.072 208.853 789.497 208.853 789.497 209.364C789.497 209.874 789.497 211.406 790.022 211.406C790.022 211.406 793.172 210.895 796.847 210.385V209.364V208.342C796.847 207.321 794.747 205.789 794.222 205.789ZM1075.11 8.6827C1076.16 9.19334 1077.74 9.19334 1078.79 7.66142L1079.31 6.64015C1079.31 6.12951 1079.31 5.10823 1078.79 4.59759C1078.26 3.57632 1077.21 3.57632 1075.64 4.08696L1074.59 4.59759C1073.01 5.10823 1074.59 8.17206 1075.11 8.6827ZM1045.71 8.6827C1047.81 8.17206 1048.86 7.15078 1048.86 6.64015C1048.34 6.12951 1045.19 4.59759 1044.66 5.10823C1043.61 5.61887 1044.14 9.19334 1045.71 8.6827ZM1289.85 167.491C1290.37 166.47 1289.32 165.959 1287.22 166.47L1285.65 166.981C1284.6 167.491 1283.55 168.512 1285.12 169.534L1285.65 170.044C1286.17 171.066 1289.32 169.023 1289.85 167.491ZM263.944 19.9167C262.369 20.4274 262.894 21.4487 265.519 21.9593L267.094 22.4699C268.669 22.9806 269.719 21.9593 270.244 20.938C270.769 20.4274 270.769 19.9167 270.244 19.4061C270.244 18.8955 264.994 18.3848 264.469 18.3848L263.944 19.9167ZM78.0838 45.4487C78.0838 44.938 77.0337 43.9167 75.9836 43.9167C74.9336 43.9167 73.3585 44.4274 72.3084 44.938C71.2584 45.9593 69.6833 49.0231 69.6833 49.5338H70.2083H70.7334C71.2584 49.5338 73.8835 48.5125 76.5087 46.9806L78.0838 45.4487ZM251.343 22.9806C251.343 23.4912 251.868 24.0018 253.443 23.4912C254.493 22.9806 257.643 21.4487 258.168 20.938L257.118 19.9167C256.593 19.4061 257.118 17.8742 255.018 18.3848L253.443 18.8955C252.393 19.9167 251.343 22.4699 251.343 22.9806ZM751.695 11.7465C752.745 12.7678 753.27 12.7678 751.695 11.7465C750.645 10.7253 747.495 8.6827 746.97 9.19334C746.445 10.2146 746.97 12.7678 749.07 13.2784L749.595 12.7678L751.695 11.7465ZM353.724 20.938C353.724 21.4487 354.774 21.4487 355.824 20.4274C356.874 19.4061 356.874 16.3423 355.824 16.8529C354.249 17.3636 351.098 17.8742 351.098 18.3848C351.098 18.8955 351.098 19.4061 351.623 19.4061C352.148 18.8955 353.724 20.4274 353.724 20.938ZM540.109 14.2997C536.958 14.2997 535.383 14.8104 536.433 16.3423L538.534 15.8316C540.634 15.321 542.209 14.8104 543.784 14.2997C543.784 14.2997 543.784 13.2784 543.784 12.7678L542.734 12.2572L540.109 14.2997ZM58.1327 189.959C58.6577 188.938 59.1827 186.895 58.6577 185.874L56.5576 186.385C56.0326 186.385 54.9825 187.917 54.9825 186.895C54.4575 185.364 53.9324 184.853 52.3574 185.874H51.8323C52.3574 186.895 53.9324 188.427 54.9825 189.449L56.0326 189.959H58.1327ZM1117.11 134.3C1117.64 133.789 1116.59 132.768 1114.49 132.768L1113.44 133.278L1112.39 133.789C1111.34 134.81 1111.34 136.342 1111.86 137.364H1112.39H1113.44C1114.49 136.853 1117.11 135.321 1117.11 134.3ZM933.88 8.17206C934.405 7.15079 934.405 6.64015 932.83 7.15079C931.255 7.66142 928.104 7.15079 927.579 7.66142V8.17206C927.579 9.19334 927.054 10.2146 928.63 10.2146H929.68C930.73 11.2359 933.355 9.19334 933.88 8.17206ZM1142.32 31.1508C1140.74 30.1295 1140.74 29.6189 1142.32 30.6401C1143.89 31.6614 1148.62 32.6827 1149.14 32.6827C1149.67 32.1721 1149.14 30.6401 1146.52 30.1295L1145.47 30.6401L1142.32 31.1508ZM968.007 10.2146C969.582 10.7253 970.632 11.2359 970.107 10.7253C970.107 10.2146 970.632 8.6827 970.632 8.6827C970.632 8.17206 970.107 7.15079 968.532 7.15079C966.957 6.64015 966.432 9.70398 968.007 10.2146ZM770.596 10.7253C769.021 10.7253 769.546 11.7465 771.121 13.2784L772.696 13.7891H773.221C775.321 12.2572 772.171 10.7253 770.596 10.7253ZM257.643 191.491C256.068 191.491 255.543 192.002 255.543 193.023C256.068 194.044 258.168 195.576 259.744 195.066C261.319 194.555 259.218 191.491 257.643 191.491ZM1152.82 153.193C1152.82 153.193 1152.29 154.215 1151.77 154.725C1150.72 155.236 1150.72 157.278 1151.77 156.768L1152.82 156.257L1154.39 155.747C1155.97 155.236 1157.02 154.215 1155.97 153.704L1154.92 153.193C1154.39 153.193 1154.39 152.683 1153.87 152.683H1153.34C1152.82 152.683 1152.82 153.193 1152.82 153.193ZM1132.34 136.342C1133.92 136.342 1134.97 135.832 1133.92 134.81C1132.87 134.3 1128.67 134.81 1127.62 134.81C1125.52 135.321 1130.24 136.342 1132.34 136.342ZM713.368 12.7678C714.943 14.2997 717.043 13.2784 718.093 10.7253L714.943 9.70398L714.418 9.19334C712.843 10.2146 711.793 11.2359 711.793 11.2359L713.368 12.7678ZM201.465 47.4912C200.94 48.0019 200.94 48.5125 201.465 49.0231C201.99 49.5338 205.141 50.555 206.191 51.0657H207.241C207.766 51.0657 208.291 50.555 208.291 50.555C208.291 50.0444 208.291 49.5338 208.291 49.5338L206.716 48.5125C205.141 47.4912 202.515 46.9806 201.465 47.4912ZM104.86 55.1508C102.76 53.1082 100.135 53.1082 97.5098 54.1295C100.66 57.1933 100.66 57.1933 104.86 55.1508Z" fill="#6364B8"/>
</svg>
