<?xml version="1.0" encoding="UTF-8"?>
<svg fill="none" version="1.1" viewBox="0 0 1300 200" xmlns="http://www.w3.org/2000/svg">
 <path d="m0 0v154.25 1.9746 33.182c1.054 0.13916 2.1005 0.40178 2.627 0.66602 1.0753 0.5396 4.3076-1.063 5.3828-0.52344 1.0753 0.5397 3.7665 1.0819 6.459 0.55078l2.1484 1.6172 1.0781-0.53516 0.003907-2.1484c1.6136 0.5408 7.5318 2.164 9.1465 2.168 1.6161-0.5335 6.4544 2.1644 8.0703 1.6309 1.6161-0.5336 4.8455-0.52656 6.9961 0.55274l2.1562-1.6074 2.6953-2.1426c-0.0036 1.6115 0.53319 2.6879 2.1504 1.6172l1.6152 0.0039c1.6148 0.0037 3.7653 1.0824 5.3789 1.623l1.0762 0.00195 1.6172-1.0703c2.1518 0.5421 6.4548 1.6269 7.5312 1.6289 1.0764 0.0025 2.6927 0.00615 4.3086-0.52735l1.0762 0.00196c1.0764 0.0024 3.2243 2.1551 3.7637 1.6191 1.6173-1.0705 2.6941-1.0663 4.3066 0.01172 0.537 0.5383 1.6185-1.6082 2.6914 0.00585 1.0788-1.0721 2.6934-1.6068 3.2305-1.0684v0.00781c0.537 0.5384 5.9182 1.6254 3.7578 4.8438l1.6191-2.1465c0.5382 0.0012 3.2274 1.083 3.7656 1.084 1.0766 0.0025 3.23-0.52935 4.3066-0.52735 1.0763 0.0025 3.2289 0.54384 5.3809 1.0859l1.6152 0.00391 2.6914 0.00586c3.231-0.5299 8.0737-0.51872 11.303-0.51172l2.6934 0.00586 1.0762 0.00195c1.615 0.0037 4.8468-1.0616 5.3848-1.0606 1.077 0.0024 3.2268 0.54288 4.8418 0.54688l1.6152 0.54101 0.53711 0.00196c1.619-1.608 3.2348-2.1418 5.3848-0.52539 2.687 1.6177 4.847-1.6014 6.459-0.52344l2.1504 1.6172c1.618-1.0708 5.3862-1.5999 8.0762-1.0566l2.6914 0.00586 2.1523 0.00585c2.693-0.5311 7.5375-1.0587 10.23-1.5898l1.0762 0.54102 2.1484 1.6152c1.616-0.5336 5.927-2.6724 7.002-2.1328 0.537 0.5384 4.8469-0.52603 5.9219 0.01367 1.076 0.5396 5.9162 2.162 7.5313 2.166 1.615 0.0036 6.9963-0.52158 8.6113-0.51758 1.616-0.5333 4.3087-0.52835 4.8477-0.52735 0.538 0.0013 0.53622 0.54002 1.0742 0.54102 0.538 0.0012 9.1558-2.1291 12.924-2.1211 3.768 0.0085 6.9942 0.55339 7.5312 1.0918l0.53711 0.53907c1.075 0.5396 2.1525 1.08 3.2285 1.082l1.0762 0.00195c1.078-0.5348 3.7707-1.6031 5.3867-2.1367l2.1504 1.0781c1.075 0.5399 3.2286 0.54456 4.3066 0.00976l4.3106-1.6016c4.304 0.5469 11.302 0.02475 12.377 0.56445 1.076 0.5396 6.9993-0.52158 8.6133-0.51758 2.154 0.0049 4.8439 0.54879 5.9199 0.55079l0.53711 0.53906 1.0742 1.0762c1.078-0.5343 3.2307-0.52939 4.8457-0.52539l1.6152 0.00391c1.076 0.0024 2.6936-1.0685 4.3086-1.0645 1.078-0.5348 2.6906 0.54292 3.7676 0.54492 0.538 0.0012 1.0752-0.53441 1.6152-1.0703h0.53906c1.076 0.0024 3.2276 1.0829 3.7676 0.54688 0.538 0.0012 2.1534-0.53225 2.6914-0.53125 0.53801 0.0012 2.6907 0.54308 4.3047 1.084l1.6152-0.5332c1.077-0.5347 2.1554-1.0704 3.2324-1.0684l1.0762 0.00195c1.075 0.5397 3.2257 1.6201 3.7637 1.6211 0.539 0.0013 2.6935-1.0684 3.7695-1.0664 1.077 0.0025 3.7638 2.1578 4.8418 1.623 1.079-1.072 2.6944-1.6065 3.2324-1.6055 0.539 0.0012 2.1525 0.00522 3.2285 0.54492l1.0762 0.00195c1.614 0.5408 4.8428 0.54772 5.3828 0.01172 1.619-2.1451 3.7668 0.54717 5.3828 0.01367 4.847-1.0635 9.6922-1.5912 14.533 0.03125l4.8457-0.52539c1.08-1.6091 3.2327-1.6034 4.8457-1.0625l2.1524 0.54102c2.154-0.5323 6.4621-1.0591 7.5371-0.51953 1.076 0.0025 5.379 1.0856 6.457 0.55078 1.076 0.0024 5.382 0.01362 6.459 0.01562 1.075 0.5396 5.9191 0.55074 6.9961 0.55274 1.615 0.0036 3.7706-1.0667 4.8496-2.1387l1.6152-0.53321c1.616-0.5336 2.1477 2.1536 4.3047 0.54688l0.53906-0.53516c1.614 0.5408 7.0002-0.52158 8.6152-0.51758 1.614 0.0037 4.842 0.54683 5.918 0.54883 1.077 3e-3 3.2316-0.52788 4.3066 0.01172 1.076 0.5397 5.384 0.01118 6.459 0.55078 1.077 0.0024 3.7658 1.0839 4.8418 1.0859 1.078-0.5347 2.1552-1.0702 2.1562-1.6074l0.53906-0.53516c1e-3 -0.5368 1.0781-0.53516 1.0781-0.53516l2.1484 1.6172c2.692 0.0061 7.5422-2.6705 8.6172-2.1309 1.074 1.0769 3.7668 1.0843 5.3828 0.55078l3.2285 0.00782c1.614 0.5408 4.3059 0.00821 5.9219-0.52539l2.1524 0.00585 2.6914 0.54297c3.231-0.5299 6.9991-1.0576 7.5371-1.0566 0.537 0.5383 2.1514 0.54197 2.6894 0.54297 0.539 0.0012 4.3088-1.0645 5.3848-1.0625 1.077 0.0024 8.6117 0.5565 11.303 0.5625 2.693-0.5311 9.1526-0.51572 10.768-0.51172 1.616-0.5335 4.8468-1.6006 5.3848-1.5996 1.076 0.0024 2.6924-0.53236 3.2324-1.0684 0.538 0.0012 3.2277 0.54439 4.3027 1.084 1.077 0.0024 5.383 0.54973 6.459 0.55273 1.077 0.0024 2.6894 0.54297 2.6894 0.54297 0.539 0.0013 2.6917 0.00691 4.8457-0.52539l2.1543-0.5332 2.6934-0.53125c2.692-0.5306 5.382-0.52544 6.459-0.52344l1.0762 0.00195 1.0781 0.00391c1.076 0.0024 4.8429 0.00972 5.9199 0.01172 1.075 0.5396 3.7669 0.54578 5.9199 0.55078l1.6152-0.5332 1.0781-0.53516c1.077 0.0024 5.3843 0.01253 8.6133 0.01953l2.6894 0.54297 1.6133 0.54102c1.076 0.0024 6.4614-1.5968 9.6914-1.5898 3.231-0.5299 11.843 0.02764 13.459-0.50586 1.077-0.5348 3.2286 0.00643 3.7656 0.54493 0.538 9.9e-4 2.6906 0.00581 3.7676 0.00781 1.076 0.0024 3.7668 0.54683 4.8438 0.54883 1.078-0.5343 3.7677 0.0094 4.8457-0.5254 1.614 0.0034 4.8449-0.52788 5.9199 0.01172 1.076 0.5396 3.2307 0.0083 4.8477-1.0625l1.6152-0.5332 1.0781-0.53516c1.075 0.5396 3.2286 0.00746 4.3066-0.52734l1.6152 0.54102 1.0742 0.53906c1.076 0.0024 9.6917-1.0525 11.305-0.51172 1.614 0.5409 3.7667 0.54587 4.3047 0.54688l0.53907 0.00195 0.53906-0.53711c0.539-0.536 3.2277 0.54487 4.3047 0.54687 1.076 0.0024 3.7698-0.52939 5.3848-0.52539l1.6133 0.00391c1.615 0.0036 2.6906 0.54487 3.7676 0.54687 1.077 0.0024 2.6915-0.5316 3.7695-1.0664 0.538 0.0012 2.6876 1.618 3.2266 1.082 0.539 0.0012 4.3088-1.0646 5.9238-1.0606 1.614 0.0037 5.9231-0.52548 7.5371-0.52148 1.078-0.5348 4.8449-0.52593 5.9199 0.01367 0.537 0.5384 8.0726 0.55574 10.227 0.02344 2.692-0.5311 7.0021-1.597 7.5391-1.0586s1.6106 1.6166 2.6856 2.1562l1.6191-1.0703 1.6152-1.0723c3.229 0.0073 9.1525-0.51627 10.229 0.02343 1.075 0.5396 5.9191 0.55074 6.9961 0.55274 1.616-0.5336 4.8478-1.5997 5.9238-1.5977 1.075 0.5397 6.9962 0.55238 8.0742 0.01758 1.078-0.5347 4.3107-2.139 5.3887-2.6738 1.077-0.5348 2.6866 1.619 2.6856 2.1562-1e-3 0.5376 1.0752 0.53991 1.6152 0.00391h0.53711l1.0781 0.00195c1.613 0.5413 4.8428 0.54783 5.3808 0.54883 0.538 0.0012 5.3801 1.0883 6.9961 0.55469s5.3851-1.0626 8.0781-1.5938l3.2266 1.082c0.54-1.0732 2.6915 0.00475 3.2305-0.53125 0.54-0.536 2.1573-1.6065 2.6953-1.6055 0.539 0.0012 3.7648 1.0836 4.8418 0.54883 1.078-0.5348 4.8479-1.0646 6.4629-1.0606 1.075 0.5396 3.765 1.0828 5.916 2.1621l2.1562-1.6055 0.53906-0.53711c0.538 0.0013 3.2277 1.082 4.3047 1.084 0.538 0.0012 3.7696-1.6029 4.3066-1.0645s2.6888 1.6182 4.8398 2.1602l0.54102-1.0742 1.6211-2.6816c1.612 1.078 6.4542 1.6269 7.5312 1.6289 1.076 0.0024 6.4587 0.5516 11.303 0.5625l4.3105-1.6016h0.53711c0.538 0.0012 4.8391 2.1606 6.4551 1.627 1.615 0.0037 4.3079-0.52744 5.9219-0.52344l1.6172-0.5332 1.6152-0.53321c2.153 0.0048 7.5324 1.6274 9.1484 1.0938 1.616-0.5335 5.3843-1.0621 8.6133-0.51758l3.2285 0.54493c0.538 2e-3 1.6152 0.0039 1.6152 0.0039l1.6172-1.6074c2.152 0.5421 6.9933 2.1636 8.0703 1.6289 1.078-0.5348 4.3088-1.0645 5.3848-1.0625 1.077 0.0024 3.2306-0.52935 4.3066-0.52735 1.076 0.5402 3.7678 0.00913 4.8438 0.54883 1.613 0.5408 6.9962 0.55163 7.5352 0.01563 1.078-0.5348 3.2306 0.00847 3.7676 0.54687 0.537 0.538 1.6133 0.54002 2.1523 0.54102l1.0762-0.53321c1.079-1.0723 2.1565-1.071 3.2305 0.00586l1.0742 0.53907 1.0762 0.54101c1.616-0.5335 5.3829-0.52575 6.4609-1.0606s7.0031-2.1329 8.0801-2.1309c1.613 0.5409 5.3775 1.6234 8.6055 2.7051l2.1582-2.6797 1.6191-1.6094c1.075 0.5396 3.7628 2.1592 4.3008 2.1602 0.539 0.0012 5.387-1.6007 7.541-1.5957 2.153 0.0054 5.3819 0.01268 5.9199 0.01368 0.537 0.5384 2.1516 0.54113 3.7656 1.082l1.6133 0.00586c1.077 0.0024 2.6934-0.53125 2.6934-0.53125 1.611 1.6152 2.1545-1.071 3.2305-0.53125l1.0762 0.54101c1.075 0.5396 4.3058 0.00877 4.8438 0.00977 0.539 0.0013 2.6938 0.54374 4.8438 1.623l2.1504-1.0703c1.08 2e-3 3.2295 0.54381 3.7695 0.00781l1.6211-0.5332c2.69 0.5433 8.0706 0.55658 9.1406 0.5586 1.62 0.00369 3.2396-0.53041 3.7696-1.0664 0.55-1.0733 2.1592-1.0694 2.6992-1.0684l0.541 0.00195 2.1484 1.6152c2.69 0.0061 8.0714-1.5936 9.6914-1.0527 1.61 0.5407 3.2298 0.54588 3.7598 0.54688 0.54 0.0012 3.2295 1.618 3.7695 1.082 0.54-0.5357 3.2308 0.54456 4.3008 0.00976 1.08-0.5348 4.3101-1.0631 8.0801-1.5918l3.2285 0.54297c1.08 0.0024 2.1504 0.54296 2.1504 0.54297 1.62-1.608 4.3106 0.00949 5.3906-1.0625l2.1504-1.6074c1.62 1.078 6.4601 1.0898 8.0801 1.0938 1.07 0.0024 3.2288-0.52934 4.2988-0.52734l1.0801 0.00195 1.0801 0.00196c1.07 0.5401 4.2998 1.0829 4.8398 0.54687 0.54-0.5359 2.1505-0.5313 3.2305-0.5293l1.0801-0.53515c1.07 0.0025 2.6897 0.54438 3.7597 1.084 0.54 0.0012 2.6997-1.0693 4.8497-1.6016l2.1503 1.0801h0.5411c0.54-0.5359 1.6192-3.2193 2.6992-2.6797 0.53 0.5384 5.3702 2.6977 6.9902 2.1641 1.62-0.5335 4.8399-0.52584 5.9199-1.0605 0.54 0.0012 4.3107-0.5274 5.3907-0.5254 1.07 0.53971 5.3782 0.01163 6.9882 0.01563 1.62 0.0037 5.391-0.52348 6.461-0.52148 1.08 0.0024 3.2295 0.54345 3.7695 2.1562 0.53 0.5384 2.1495 0.00475 2.6895-0.53125 0.54-0.5355 3.2314 0.54576 3.7714 0.00976 1.07-0.5348 4.2999 0.54772 4.8399 0.01172 1.08-0.5348 5.9191 0.01162 7.5391 0.01563 1.61 0.00369 7.5403-1.5938 9.1503-1.5898 1.61 0.5408 7.5404 0.01553 9.1504 0.01953 1.62 0.0037 5.389-0.52348 6.459-0.52148 1.08 0.0024 3.2306-0.5302 5.3906-1.0625l2.1504 0.00586 1.0801 0.00195c1.61 0.5407 3.2198 0.54392 3.7598 0.54492l0.539-0.53711v-0.53711c0.54-0.536 3.2306 1.6207 4.3106 1.0859 1.61-0.5336 4.841-1.0646 7.541-1.5957l2.1484-1.0703 2.1602-1.0684c2.15 0.5421 5.9116 1.6247 8.6016 2.168l0.0097-3.2226v-0.53711c0-0.5376 1.0801-0.53525 1.0801 0.00195s1.6095 2.1523 2.6895 2.1543c1.07 0.0024 4.3099-3.2127 5.9199-2.6719 1.62 0.5409 5.379 0.54879 6.459 0.55079 1.08 0.0022 4.3108 0.00971 5.3808 0.01171 1.08 0.0024 5.391 0.01341 6.461-1.0586 1.08-1.0719 1.6198-2.1452 1.0898-2.6836-1.08-0.5394 1.6084-0.53421 2.1484-0.53321 0.54 0.0013 2.1518 1.0801 3.7618 2.6953l2.6992-1.0684c0.54-0.536 1.6104 0.54001 2.1504 0.54101l0.539 0.00196c0.54 0.0012-0.5403-2.1511-1.0703-2.6895-1.08-0.5397-0.539-1.0747 0.541-1.6094h0.5391c1.07 0.0024 1.6114 0.00522 2.6914 0.54492l4.2988 1.6211c4.31-1.0647 5.9307-2.6728 5.3907-2.6738-0.54-0.0012 4.849-2.1388 7.539-2.1328 2.69 0.0066 5.381 0.01363 6.461 0.01563l0.5293 0.53711c1.08 0.5397 1.081 0.53999 1.621-0.53321l0.5391-1.0723c1.08-1.072 3.7708 0.54549 4.3008 1.6211 0.033 0.03291 0.0667 0.05454 0.0996 0.06836v-21.012-136.07h-1300z" fill="#d16978"/>
</svg>
