<?xml version="1.0" encoding="UTF-8"?>
<svg fill="none" version="1.1" viewBox="0 0 1700 215" xmlns="http://www.w3.org/2000/svg">
 <g transform="translate(-1088)">
  <path d="m1299.1 200c-0.1214 0.63368-0.2489 1.1914-0.4883 1.1914-0.3496 0-1.3673 0.44757-1.7285 1.043l0.1484-0.0215c-0.067 0.32813-0.09 0.63941-0.076 0.93164 0.025 0.0299 0.045 0.0599 0.076 0.0898h0.5293c1.05 0 2.62-1.0215 3.67-1.0215s2.6308-0.51051 2.6308 1.0215c0 1.022-0.5308 2.043-1.0508 2.043l-2.0996 0.50977c-1.8301 0.44532-3.6598-0.66115-3.7558-2.6426-0.2704-0.31733-0.2427-0.62936-0.072-0.91015l-3.5215 0.49023-2.6308 0.50977c1.05 2.043 1.05 3.5742 0 3.5742s-4.7188 5.2e-4 -4.7188-1.0215c0-0.51-1.0516-1.5315-2.1016-1.0215-1.05 1.021-3.6796 3.064-3.6796 2.043 0-0.511-1.0504-2.553-1.5704-2.043-0.53 0.511-4.7296 2.043-7.3496 2.043l-4.1992 2.043h-9.9805c-0.52 0-3.15-2e-3 -5.25-0.51172-2.1-0.511-8.3999 1.0227-8.9199 0.51172-0.53 0-3.1492-0.51172-4.1992-0.51172s-4.7312 1e-3 -5.7812-0.50976c-1.05-0.511-5.2504 2.0427-6.8204 2.5527l-0.5293-2.5527v-1.0215c-1.57 0.51-3.1492 1.0202-4.1992 1.5312-1.05 0.51-2.6204 1.5325-3.1504 1.0215-0.52-0.511-4.7312 7.2e-4 -5.7812 0.51172-1.05 0-4.72-0.51172-5.25-0.51172-0.52 0-2.6184 1.0222-3.1484 1.5332-0.52 0.51-2.6204-0.51172-3.1504-0.51172-0.52 0-3.67 0.51149-5.25 1.0215-2.1 1.022-8.4-1.5312-10.5-1.5312s-7.3511 2.5527-7.8711 2.5527c-1.05 0-4.2 4.9e-4 -5.25 1.0215l-2.6289-1.5332c-1.05-0.511-3.67 0.51172-5.25 0.51172-1.57 0-3.1507-0.51172-4.7207-0.51172-1.05 0-2.0997 0.51172-3.6797 0.51172l-2.6192 0.50977v-1.0215c0 1.021-4.2012 7.2e-4 -5.7812 0.51172h-1.5703l-5.7793-0.51172c-6.3-0.511-13.12-0.50976-15.75-0.50976-2.1 0-8.3997 1.5312-8.9297 1.5312-0.52 0-2.6207 0.51172-4.7207 0.51172l-0.5293-0.51172c-1.57-1.532-3.67 2.3e-4 -5.25-0.50977l-2.0996-1.0215h-6.3008c-1.0018 0-5.3305 1.3852-8.4629 1.957v1.6387h1700v-15z" fill="#fff" stroke-width="1.3912"/>
  <path d="m1088 0v1.6035c0.1761-0.044119 0.371-0.072266 0.5938-0.072266l0.5195 0.51172c1.05 1.0213 1.5797 2.5527 3.6797 2.5527v0.50977c0.52 2.5532 0.5199 2.5538 3.6699 3.0645h1.5801c2.1 0.51064 3.6699-2.144e-4 3.6699-1.0215 0-1.0213 0.5301-4.084 1.5801-4.084l1.0508 1.0215c1.0499 1.0213 1.05 2.0421 0 2.5527-1.05 0-1.0501 3.0625 0 3.0625 1.0499 0 3.6692-1.5312 4.1992-1.5312 0.52 0.51064 2.0991 1.5321 2.6191 1.0215h0.5313c0.52-0.51064 1.0503-1.0206 1.5703-1.5312 0.53-0.51064 3.1497 1.5321 3.6797 1.0215 0.52-0.51064 2.6199-2.0438 3.6699-1.5332 1.05 0.51063 4.2005 1.0223 4.7305 0.51172 0.5299-0.51064 2.0989-1.5321 2.6289-1.0215 0 0.51064 1.5696 2.5527 2.0996 2.5527h0.5215l3.6796-1.5312c3.15 1.5319 6.3004 3.0625 6.8204 3.0625 0.5299 0.5107 2.0996 1.0223 2.0996 0.51172 0 0 0.5293-1.5323 0.5293-2.043 0-1.0213 3.1511 0 4.2011 0 1.05 0.51064 3.1485-8.743e-4 3.1485 0.50977 0 0.51064 3.1499-0.50889 3.6699-1.0195 1.05-0.51064 4.7312-1.0226 5.7812-1.5332l0.5196-0.50977c0.53 0 1.0508-0.51172 1.0508-0.51172l3.1484 2.5547c0.53-2.5532 2.1016-4.0868 3.6816-3.5762 1.57 0.51064 4.1992 4.0868 4.1992 3.5762s0.5208-1.5323 1.0508-2.043c1.05 1.0213 2.6199 1.5315 3.67 2.5527 0.5299 0.51064-0.5215 1.0216-0.5215 2.043v0.50977c0 0.5106 1.0503 1.5332 1.5703 1.5332l0.5312-0.51172c2.1-1.5319 3.15-1.021 3.67 1.0215 1.0499 0 2.0996-0.51088 2.0996-1.0215 0-0.5107 4e-4 -2.043-0.5196-2.043-0.53 0 0.5184-2.041 1.5684-2.041s3.1516 2.5521 3.6816 4.084v1.5332c0 0.5106-1.0515 1.5312-2.1015 1.5312h-2.6289c-3.15-0.5106-5.77-8.34e-4 -5.25 0.50977 0 1.0213 4.73 1.5324 5.25 2.043 0.53 1.0213 1.0488 2.5539 1.0488 3.0645 0 0.5107-1.0484 2.5529-1.5684 3.5742l-0.5312 1.0215c-1.05 1.0212-2.0999 2.042-3.6699 2.5527 0 0-0.5293-1.0217-0.5293-2.043s-2.1004-4.0848-3.1504-3.5742c-1.05 0.5107-3.1492 2.5538-2.6192 3.0645l0.5196 0.50976 0.5293 0.51172c0.52 0.5107 1.0495 1.0215 0.5195 1.0215-0.52 0.5107-1.0495 1.5303-0.5195 2.041 0.52 0.5106 9.9711 1.5324 9.4511 2.043-0.53 0-1.05 1.0223 0 0.51172 1.57 0 2.6185 2.5527 3.1485 2.5527 0.52 0 1.5703-0.51172 1.5703-0.51172 0-0.5106 8e-4 -1.0205 1.0508-0.50976h1.0488c2.63 1.5319 3.6808 2.5527 2.6308 2.5527s-4.1992 1.0225-4.1992 1.5332c0 0.5106 1.0496 2.0412 2.0996 3.0625s5.25 1.5321 5.25 1.0215c0-0.5106 2.1-1.0205 3.67-0.50976 1.05 0.5106 3.6803 0.50958 3.1504-0.51172-0.52-1.0213 3.1485-5.1059 4.7285-7.1484h4.2011c0.52-1.5319 1.5703-2.042 1.5704-1.5312 0 0.5106 1.05 2.5517 1.58 2.041 0.52-0.5106 2.6292-1.5311 4.1992-0.50976 1.05 1.0213 5.2501 2.5527 6.8301 2.5527 1.05-0.5107 4.7192-2.5536 7.8692-2.043l2.6308 0.51172s0.5196-0.51088 0.5196-1.0215c0.53-0.5107 1.05-1.0215 1.58-1.0215h1.5703c-0.52 1.0213-1.0503 2.5539-1.5703 3.0645-0.53 0.5107 0 3.5744 2.6211 4.5957l1.5801-3.0645c0.52-0.5106 2.0984-1.0206 3.1484-1.5312 0.52 0 1.5704 0.51088 1.5704 1.0215 0.53 0.5106 0.53 1.5311 1.58 0.50976 1.05-0.5106 2.1011-1.0212 2.6211 0 0.53 1.0213 1.0493 2.0421 0.5293 2.5527-0.53 1.532-2.1004 2.5529-3.1504 3.5742l-1.0488 1.0215c0.52 1.0213 3.1488 2.553 4.7188 3.5742 2.1 0.5107 5.7796 1.0215 7.3496 1.0215 1.58 0 6.8308 3.0647 7.8808 4.0859 1.05 1.0213 5.2496 1.5323 5.7696 2.043 0.53 0.5106 0 2.5532 0 4.5957l1.58 2.043 0.5196 0.50977c0.53 1.0213-0.5196 2.0421-2.0996 2.5527l-1.0489 1.0215c-1.57 1.5319-1.5711 1.533-2.6211 0.51172l-0.5293-0.51172-2.0996 0.51172c-1.05 1.5319-2.1011 2.0408-2.6211 1.0195-0.53-1.0213-5.2488-1.0195-6.2988-1.0195s-4.7304 1.5303-3.1504 2.041c1.57 0.5106 4.7192 2.5529 4.1992 3.5742l1.5703 0.51172 2.0997 1.0215c1.58-1.532 2.6308-2.5527 2.6308-2.5527s1.0496 1.0206 2.0996 1.5312c1.05 0-1e-4 3.0645-1.5801 3.0645l-1.0507 1.0195-1.0489 1.0215c-1.05 1.5319-1.0495 3.0636-0.5195 3.5742 0.52 0 1.0488 2.0443-0.5312 3.5762-1.57 1.5319-5.2488 5.1055-4.7188 5.1055 0.52 0 1.5688 1.0218 1.0488 2.043h-1.58c-1.05 0.5107-2.6204 1.5326-3.1504 3.0645l1.58 1.0195c0.52 0.5107-1.5796 6.6387-2.0996 6.6387l-1.58 1.0215c-1.57 1.022-2.6192 2.0435-2.6192 3.0645 0 0.51099-2.1008 3.063-2.6308 4.084l-0.5196 0.51172-1.5801 1.5312c1.05 1.532 1.5801 4.0852 1.5801 5.6172l-0.5293 1.5332-0.5215 2.041c2.1 0 2.6204 1.0212 1.5704 1.5312-1.05 0.511-4.7189 2.5547-6.2989 2.5547h-4.2011c-1.57 1.531-3.6688 2.5525-4.7188 3.0625-1.58-2.042-3.1505 1.022-4.7305 0-1.57-1.021-3.1507-1.0202-4.7207-1.5312-0.53 1.532-2.0997 2.0425-3.6797 1.0215-1.57-0.511-5.25 1.0215-5.25 1.0215-1.05-1.021-2.6296-7.2e-4 -3.6796-0.51172l-2.0996-1.0195c-1.57 1.021-4.7204 0.511-6.8204 0l-2.0996 1.5312-0.5312 0.51172c-1.05 0-4.2003-1.022-6.8203-2.043l-2.6289 1.5312-0.5196 0.51172h-3.6816c-1.05 0-4.72-1.0234-5.25-1.0234-1.05 0-3.6688 7.2e-4 -4.7188 0.51172s-5.7796 0-7.3496 0h-2.1015c-1.05 0-2.0989-7.2e-4 -2.6289-0.51172l-1.0508-1.0195c-1.05 0.511-3.6696 1.532-5.7696 2.043l-1.58 0.50977c-0.52 0-1.0508 0.51048-1.0508 1.0215l-1.0488 1.0215c-0.52-1.021-1.5697-1.5332-2.0996-1.5332-0.52 0-2.6211 2.5527-2.6211 4.5957v2.5547c-0.6156 0-1.2122 0.029-1.8125 0.0527-0.024 0.0859-0.052 0.16237-0.08 0.24023 1.1629 0.52498 2.3646 0.97103 3.4629 1.2383l1.0508-1.0215 1.58-1.0215c1.05-2.042 3.67-3.0637 5.25-2.5527 1.57 0.511 5.7696 2.5535 5.7696 1.0215l0.5293-1.0215v-0.51172c1.05 0 2.0996 7.2e-4 2.0996 0.51172s0 1.5312 0.5215 1.5312c0.5299 0 2.6296 0.51148 2.0996 1.0215h-2.0996c-1.57 1.021-2.1015 2.5527-0.5215 2.5527l0.5215-0.50977 2.0996-1.5312c2.1 0 5.2488 0.50977 6.2988 0.50977 1.05 0.511 4.2005-1.5312 4.7305-1.5312h0.5195l1.0508 0.50976c1.05 0.511 3.1504 1.0217 4.7304 0.51172l1.0489 1.0195c0.52 0.511 1.5715 0 2.1015 0h0.5196c0.53 0 1.0488 0.51149 1.0488 1.0215v1.0215c0 1.021-1.0496 2.5539-2.0996 4.0859h-4.1992c-3.15 0-2.6212 1.5322 1.0488 3.5742h5.25c1.05-1.021 2.6316-2.043 3.6816-2.043l0.5196 0.50976 1.0488 1.0234c0 0.88846 0.2044 1.6739 0.4726 2.3691 0.123-0.0386 0.2491-0.0723 0.377-0.0996 0.01-0.34376 0.069-0.60853 0.2012-0.73828 0.53-1.022 3.68-2.5535 5.25-1.0215l0.5293 1.0215c0.52 0.51 7e-4 1.532-0.5293 2.043l-0.5196 0.50977c-0.53 2.553 0.5196 4.5959 2.0996 4.0859 1.57-0.511 4.2 3.573 3.67 4.084-0.52 0.511-3.1503 2.554-1.5703 2.043 0.5761-0.18716 2.9434-0.52526 5.6328-0.88672l0.1367-0.13477c0.7386-0.71819 1.2246-1.4358 1.8105-2.1543-0.6224-0.93314-0.3868-2.1115 0.2911-2.4414 0.5299-0.51 2.6289-2.5527 2.6289-2.5527 0.53 1.022 0.5307 2.5515 1.0507 3.0625l2.0996 1.0215c0-1.532 0.5308-3.0632 1.0508-3.5742 0.53-0.511 6.8293 0.5122 11.029 1.5332l4.1992-2.043 1.5704-0.50977c0 1.021 0 2.5527 0.5312 2.5527 0.52 0.51 2.6191 1.0208 2.6191 0.50977 0-1.021 2.0997-2.0422 3.6797-1.5312 1.57 0.51 0.5208 4.5945 1.0508 5.1055 1.05 0.511 5.7688 1.0222 9.9688-0.50977l3.6816-1.0215h0.5195c1.05 1.021 2.6289 2.0422 2.6289 1.5312 0.52-0.511 1.0504-1.0202 1.5704-1.5312l-1.5704-1.0215c-1.58-1.022-3.6785-1.5312-4.7285-1.5312h-2.6211c-3.15-1.532-2.6289 0.50902-2.6289 2.041v0.51172c-0.52 0.511-0.5215-4.9e-4 -0.5215-1.0215 0-1.022-3.1496-1.0212-3.6796-1.5312v-0.51172c0-0.50999 1.05-1.0215 1.58-1.0215 1.57 0.511 3.15-2.043 5.25 0 2.1-1.021 4.2012-1.5308 4.2012-0.50976l0.5195 0.50976h0.5293c1.05-0.511 2.62-1.0202 3.67-1.5312s4.2011-1.5327 4.2011-0.51172c0.53 1.022 1.5796 3.0647 2.0996 2.5547h0.5293l2.6211-0.51172c3.15-1.021 6.8285-1.0198 8.3985-0.50976 0 2.043 1.0511 4.0852-1.0489 5.6172 0 0-7e-4 1.0212 0.5293 1.5312h1.5703c0.53-1.021 1.0497-2.0417 2.0997-2.5527l0.5312-0.51172c0.52-0.51 1.0484-0.51 1.5684 0 0 0.511 1.5815 2.5547 2.1015 2.5547 0.53 0 2.6285-2.4e-4 3.1485 0.50976 0.53 0.511 2.1008 1.0215 2.6308 1.0215 0-0.51 1.0503-1.0208 1.5703-0.50977 0.53 0.51 3.6805 1.532 4.7305 0l1.5684-1.0215c1.05 1.021 1.5807 2.0417 1.0507 2.5527-0.52 0.51-1.5695 2.043-0.5195 2.043s3.1492 1.0212 2.6192 1.5312c-0.52 0.511-0.5188 2.5534 0.5312 3.0644s2.0988 1.5317-0.5312 2.5527l-2.0997 1.0215c-0.52 0.511-1.5703 1.0212-1.5703 1.5312v2.043c0.52 0.511 1.5711 0.51172 2.6211 0.51172l1.5801-0.51172c0-1.021 0.5188-2.5534 1.0488-3.0644h0.5196c1.58-0.51 6.83 1.0207 6.83 2.5527v0.51172c-1.05 0.511-2.6199 1.532-3.6699 2.043-1.05 0.51-3.6797 3.0625-3.6797 3.0625 0 0.511-1.05 0.51051-1.58-1.0215h-1.5704c-1.58 1.021-1.5788 2.0447-1.0488 2.5547 0.52 0.511 3.1504 4.0847 3.1504 6.6387v5.6172c-3.15 1.532-5.7812 2.552-5.7812 2.041 0-0.51-1.0504-1.5325-1.5704-1.0215-0.286 0.2758-0.4181 1.13-0.5605 1.873h1488.9v-200zm185.92 155.74-1.0508 1.0215-2.0996 1.5313c-2.1-0.511-4.2007-0.50977-4.7207-0.50977v1.0215c1.05 0.51 2.62 1.533 3.67 2.043h0.5312c0.52 0.511 3.1499-1.0227 3.6699-0.51172 1.05 0.51 2.0996 0.51124 2.0996-0.50976 0.53-1.021-1.5696-3.5749-2.0996-4.0859zm-59.621 4.4844c0.3418 0.51233 0.9389 0.95169 1.8711 1.1328 0.4255 0.16515 0.936 0.31446 1.4785 0.45508 3.0432-0.39311 5.8883-0.76363 6.92-0.96485 2.1-1.021-0.52-1.5325-3.67-1.0215l-2.6289 1.0215-0.5195 0.50977c-1.06 0-1.5801 1e-3 -1.5801-0.50977 0-0.51-8e-4 -1.5332-1.0508-1.5332-0.3114 0.30311-0.5732 0.6072-0.8203 0.91016zm3.3496 1.5879c-1.8489 0.23884-3.5435 0.46552-5.2968 0.70117l-0.3828 0.37695c0.52 1.021 2.6211 2.0417 4.2011 2.5527s4.1985-2.5527 4.7285-2.5527c0.52-0.511 1.5716-9.8e-4 2.1016 2.041l2.6191-1.0215 1.5801-0.50976c-2.6404-0.42751-6.7392-0.85919-9.5508-1.5879zm-20.06-10.439c-0.01 0.35152 0.05 0.78727 0.1582 1.2559 0.2096 0.39686 0.4137 0.76294 0.5723 1.0684h1.0507c0.52 0 1.0496-1.0202 0.5196-1.5312v-0.50976c-0.392-0.38522-1.3852-0.47877-2.3008-0.28321zm0.1582 1.2559c-0.1862-0.35257-0.3713-0.73155-0.5352-1.1562-0.1645 0.0517-0.3247 0.11161-0.4726 0.1836l-1.5684-0.51172c-1.05 0-2.1011 1.0217-4.2011 0.51172l-2.6289-0.51172c-3.6701 0.511-7.3504 2.5542-8.4004 3.5762l1.58 1.5312 0.5196 0.50976c1.05 0 3.6793-1.0214 5.7793-3.0644l3.1504 1.0234 5.25 3.0625 2.6211-2.5527c-0.5098-0.74369-0.8922-1.7272-1.0938-2.6016zm-50.67-13.445c-0.1577-0.0712-0.3072-0.15061-0.4629-0.22461-0.4879 0.024-0.9199 0.0517-1.3731 0.084 0.2593 0.53809 0.6219 0.86718 1.0997 0.86718 0.3541 0 0.5807-0.30236 0.7363-0.72656zm-0.4629-0.22461c0.1768-9e-3 0.3631-9e-3 0.543-0.0156 0.2276-0.8335 0.2324-1.994 0.2324-2.6074 0-1.022-1.5696-3.5742-2.0996-3.5742-0.52-0.50999-2.62 1.021-3.67 2.043-0.4725 0.45952 0.4707 1.4404 1.9961 2.4688l1.1543-0.9375c0 0.64883 0.059 1.2369 0.1641 1.75 0.5341 0.30383 1.0926 0.59405 1.6797 0.87305zm-58.617-132.95v0.20508l0.062-0.091797c-0.024-0.038875-0.039-0.074649-0.062-0.11328zm82.008 23.047c-0.169 6e-3 -0.3657 0.17369-0.5644 0.55664-0.52 0.5107-2.1004 1.5321-3.1504 1.0215s-4.7192-1.0224-4.1992-0.51172c0.5299 0.5106 0.5299 1.0225 0 1.5332-0.52 0.5106-1.05 1.5321 1.58 1.0215l1.0489 0.50976 1.5703 0.50977c3.15-0.5106 4.7292-2.553 4.1992-3.5742 0-0.63831-0.2026-1.0764-0.4844-1.0664zm-23.135 1.5781-1.0507 0.50977-2.4024 0.39062c1.9698 0.87551 5.619 1.6523 6.0723 1.6523 0.53-0.5106 8e-4 -2.0421-2.6192-2.5527zm77.18 9.1914c-2.63 0-4.2004 0.51078-3.1504 1.0215 1.05 0.5106 8.4012 5.1062 9.4512 3.5742 1.05-1.5319 0.5199-3.0646-1.5801-4.0859h-2.0996zm23.1 14.809c-1.58 2.0426-2.0993 4.596-0.5293 5.6172h0.5293l1.5704-0.51172c1.58-1.0213 3.1496-1.0215 3.6796-1.0215 0.52 1.0213 2.6204 1.0223 3.1504 0.51172 0.52-0.5107 0-2.5531-1.0488-4.5957h-3.6816zm-132.31 78.639-2.1016 1.0195c-1.05 1.021-1.0493 2.5542-0.5293 3.5762h1.5801c1.05-0.511 3.6699-2.0435 3.6699-3.0645 0.53-0.511-0.5192-1.5312-2.6191-1.5312zm18.15 1.8262c-1.6734-0.0717-4.2339 0.21484-5.0214 0.21484-2.1 0.511 2.6207 1.5332 4.7207 1.5332 1.58 0 2.63-0.5112 1.58-1.5332-0.2625-0.1275-0.7214-0.19094-1.2793-0.21484zm15.449 6.3438c-2.62 0-8.4 0.50976-8.92 0.50976-0.53 0.51 3e-4 0.51172 1.5704 0.51172 1.5799 0 5.25 2.043 6.83 2.043 1.57 0 2.0996-3.0644 0.5196-3.0644zm5.25 11.744c-0.52 0-0.5196 0.50976-0.5196 0.50976s-0.5308 1.0232-1.0508 1.5332c-1.05 0.51099-1.05 2.553 0 2.043l1.0508-0.51172 1.5684-0.50976c1.58-0.511 2.6301-1.532 1.5801-2.043l-1.0489-0.51172c-0.53 0-0.5307-0.50976-1.0507-0.50976zm135.25 13.588c-0.3857 8e-3 -0.8461 0.0715-1.3711 0.19922l-1.5684 0.51171c-1.05 0.51-2.1012 1.5307-0.5312 2.5527l0.5312 0.50976c0.52 1.022 3.6692-1.0207 4.1992-2.5527 0.39-0.76575-0.1029-1.2447-1.2597-1.2207zm-16.725 6.9648c-0.6563 0-1.1804 0.12731-1.4454 0.38281-0.52 0.511 0.5289 2.0437 1.0489 2.5547 0.53 0.511 0 2.5522 0.5312 3.5742 0.52 0.51-5e-4 2.5527 0.5195 2.5527 0.53 0 2.1004-1.0217 3.1504-2.5527 1.05-1.532-2.1003-5.1074-1.5703-5.1074v-1.0215c-0.79-0.2555-1.5781-0.38281-2.2343-0.38281z" fill="#5c5db1" stroke-width="5.1795"/>
 </g>
</svg>
