<svg width="171" height="139" viewBox="0 0 171 139" fill="none" xmlns="http://www.w3.org/2000/svg">
<path d="M156.907 14.7773H49.6018V137.842H156.907V14.7773Z" fill="white" stroke="#525375" stroke-linecap="round" stroke-linejoin="round"/>
<path d="M148.974 21.7578H57.5876V130.755H148.974V21.7578Z" fill="white" stroke="#525375" stroke-linecap="round" stroke-linejoin="round"/>
<path d="M122.795 48.782C107.617 38.0462 86.5688 41.6424 75.833 56.8206C65.0972 71.9988 68.6935 93.0473 83.8716 103.783C99.0498 114.519 120.098 110.923 130.834 95.7444C140.777 81.6768 138.502 62.3207 125.545 50.9503" fill="#EFEFF7"/>
<path d="M122.795 48.782C107.617 38.0462 86.5688 41.6424 75.833 56.8206C65.0972 71.9988 68.6935 93.0473 83.8716 103.783C99.0498 114.519 120.098 110.923 130.834 95.7444C140.777 81.6768 138.502 62.3207 125.545 50.9503" stroke="#525375" stroke-miterlimit="10" stroke-linecap="round" stroke-linejoin="round"/>
<path d="M102.54 60.2322C101.956 60.2322 101.482 60.7058 101.482 61.2899C101.482 61.8741 101.956 62.3477 102.54 62.3477C103.124 62.3477 103.598 61.8741 103.598 61.2899C103.598 60.7058 103.124 60.2322 102.54 60.2322Z" fill="#525375"/>
<path d="M89.8476 60.2322C89.2634 60.2322 88.7898 60.7058 88.7898 61.2899C88.7898 61.8741 89.2634 62.3477 89.8476 62.3477C90.4317 62.3477 90.9053 61.8741 90.9053 61.2899C90.9053 60.7058 90.4317 60.2322 89.8476 60.2322Z" fill="#525375"/>
<path d="M105.922 69.7513C105.063 73.9599 100.844 77.1553 95.7695 77.1553C90.6949 77.1553 86.4764 73.9599 85.6169 69.7513" stroke="#525375" stroke-linecap="round"/>
<path d="M156.907 14.7782H49.6018C49.6018 7.32129 55.6308 1.29233 63.0876 1.29233H143.368C150.878 1.23945 156.907 7.32129 156.907 14.7782Z" fill="white" stroke="#525375" stroke-linecap="round" stroke-linejoin="round"/>
<path d="M109.204 12.451H97.3575C96.2469 12.451 95.3479 11.552 95.3479 10.4414V5.62879C95.3479 4.51819 96.2469 3.61914 97.3575 3.61914H109.204C110.315 3.61914 111.214 4.51819 111.214 5.62879V10.4414C111.161 11.552 110.315 12.451 109.204 12.451Z" fill="white" stroke="#525375" stroke-miterlimit="10" stroke-linejoin="round"/>
<path d="M89.5833 12.451H82.6024C81.5447 12.451 80.7514 11.6049 80.6985 10.6V5.52302C80.6985 4.46531 81.5447 3.61914 82.6024 3.61914H89.5833C90.641 3.61914 91.4871 4.46531 91.4871 5.47014V10.5472C91.4343 11.6578 90.5881 12.451 89.5833 12.451Z" fill="white" stroke="#525375" stroke-miterlimit="10" stroke-linejoin="round"/>
<path d="M74.458 12.451H67.4771C66.4194 12.451 65.5732 11.6049 65.5732 10.6V5.52302C65.5732 4.46531 66.4194 3.61914 67.4771 3.61914H74.458C75.5157 3.61914 76.3619 4.46531 76.3619 5.47014V10.5472C76.309 11.6578 75.5157 12.451 74.458 12.451Z" fill="white" stroke="#525375" stroke-miterlimit="10" stroke-linejoin="round"/>
<path d="M139.084 12.451H132.104C131.046 12.451 130.2 11.6049 130.2 10.6V5.52302C130.2 4.46531 131.046 3.61914 132.051 3.61914H139.032C140.089 3.61914 140.883 4.46531 140.883 5.52302V10.6C140.935 11.6578 140.142 12.451 139.084 12.451Z" fill="white" stroke="#525375" stroke-miterlimit="10" stroke-linejoin="round"/>
<path d="M123.959 12.4502H116.978C115.92 12.4502 115.127 11.604 115.127 10.5463V5.46931C115.127 4.4116 115.973 3.61832 116.978 3.56543H123.959C125.017 3.56543 125.81 4.4116 125.81 5.46931V10.5463C125.863 11.6569 125.017 12.4502 123.959 12.4502Z" fill="white" stroke="#525375" stroke-miterlimit="10" stroke-linejoin="round"/>
<path d="M103.281 12.4499V3.6709" stroke="#525375" stroke-miterlimit="10" stroke-linejoin="round"/>
<path d="M103.281 10.9691C104.917 10.9691 106.243 9.64313 106.243 8.00749C106.243 6.37185 104.917 5.0459 103.281 5.0459C101.645 5.0459 100.319 6.37185 100.319 8.00749C100.319 9.64313 101.645 10.9691 103.281 10.9691Z" fill="#F4BC4F" stroke="#525375" stroke-miterlimit="10" stroke-linejoin="round"/>
<path d="M170.075 3.4063L167.378 6.10346L165.369 4.09381L168.066 1.39664C168.595 0.867786 169.494 0.867786 170.075 1.39664C170.604 1.9255 170.604 2.82455 170.075 3.4063Z" fill="white" stroke="#525375" stroke-linecap="round" stroke-linejoin="round"/>
<path d="M138.925 27.5745L131.469 35.0314C131.098 35.4016 131.098 35.9833 131.469 36.3535L140.248 27.5745C139.877 27.2043 139.296 27.2043 138.925 27.5745Z" fill="white" stroke="#525375" stroke-linecap="round" stroke-linejoin="round"/>
<path d="M166.796 2.98402L168.542 4.72924C169.071 5.2581 169.071 6.10427 168.542 6.63313L129.935 45.2396C129.618 45.5569 129.248 45.7685 128.825 45.8742C128.772 46.1387 128.56 46.3502 128.296 46.5089L123.43 48.5714C123.377 48.5714 123.324 48.6243 123.272 48.6243L122.954 48.9416C122.901 49.0474 122.743 49.0474 122.637 48.9945C122.531 48.9416 122.531 48.783 122.584 48.6772C122.584 48.6772 122.584 48.6772 122.637 48.6243L122.954 48.307C122.954 48.2541 122.954 48.2012 122.954 48.1483L125.017 43.2829C125.123 43.0184 125.334 42.8069 125.651 42.754C125.757 42.3309 126.022 41.9607 126.286 41.6434L164.893 3.0369C165.369 2.45516 166.215 2.45516 166.796 2.98402Z" fill="white" stroke="#525375" stroke-linecap="round" stroke-linejoin="round"/>
<path d="M163.443 4.34665L162.545 5.24414L166.21 8.90889L167.108 8.01141L163.443 4.34665Z" fill="white" stroke="#525375" stroke-linecap="round" stroke-linejoin="round"/>
<path d="M15.5402 1H32.9993C37.2577 1 40.6643 4.58981 40.6643 9.07707V105.04C40.6643 109.528 37.2577 113.117 32.9993 113.117H15.5402C11.2819 113.117 7.87524 109.528 7.87524 105.04V9.07707C7.87524 4.65391 11.3427 1 15.5402 1Z" fill="white" stroke="#525375" stroke-linecap="round" stroke-linejoin="round"/>
<path d="M13.3224 8.19357C14.2862 8.19357 15.0676 7.41221 15.0676 6.44835C15.0676 5.48449 14.2862 4.70312 13.3224 4.70312C12.3585 4.70312 11.5771 5.48449 11.5771 6.44835C11.5771 7.41221 12.3585 8.19357 13.3224 8.19357Z" fill="#D16978"/>
<path d="M38.2845 15.1465C39.0439 15.1465 39.6595 14.5309 39.6595 13.7715C39.6595 13.0121 39.0439 12.3965 38.2845 12.3965C37.525 12.3965 36.9094 13.0121 36.9094 13.7715C36.9094 14.5309 37.525 15.1465 38.2845 15.1465Z" fill="#525375"/>
<path d="M53.3564 20.1713C54.0574 20.1713 54.6257 19.6031 54.6257 18.9021C54.6257 18.2011 54.0574 17.6328 53.3564 17.6328C52.6554 17.6328 52.0872 18.2011 52.0872 18.9021C52.0872 19.6031 52.6554 20.1713 53.3564 20.1713Z" fill="#525375"/>
<path d="M38.2844 13.7727C41.5104 13.4025 43.4143 14.1958 44.5249 14.9362C46.1644 15.9939 46.4817 17.2103 48.2269 18.2151C49.8135 19.0084 51.6116 19.2728 53.3568 18.9555" stroke="#525375" stroke-miterlimit="10" stroke-linejoin="round"/>
<path d="M5.00678 96.7227H30.84C33.0542 96.7227 34.8467 98.5151 34.8467 100.729V126.563C34.8467 128.777 33.0542 130.569 30.84 130.569H5.00678C2.79251 130.569 1 128.777 1 126.563V100.729C1 98.4097 2.79251 96.7227 5.00678 96.7227Z" fill="#5C5DB1" stroke="#525375" stroke-miterlimit="10" stroke-linejoin="round"/>
<path d="M25.884 108.742C22.1935 108.742 20.0847 112.011 20.0847 116.123C20.0847 119.814 21.7718 123.188 26.3058 123.188C27.4656 123.188 28.6255 122.977 29.7853 122.555C29.8908 122.45 29.9962 122.344 29.9962 122.239V120.13C29.9962 120.024 29.8908 119.919 29.7853 120.024C28.9418 120.446 27.9928 120.552 27.0438 120.552C24.5133 120.552 23.3534 118.97 23.3534 116.756H27.8874C28.8364 116.756 29.7853 116.756 30.7343 116.65C30.8397 116.65 30.9452 116.545 30.9452 116.439C31.0506 115.807 31.0506 115.174 31.0506 114.647C30.9452 111.8 29.6799 108.742 25.884 108.742ZM27.9928 114.12C27.5711 114.12 27.1493 114.12 26.7275 114.12H23.248C23.4588 112.644 24.0915 111.167 25.7786 111.167C27.0439 111.273 28.0983 112.327 27.9928 113.698V113.803C27.9928 113.909 27.9928 114.014 27.9928 114.12Z" fill="white" stroke="#525375" stroke-miterlimit="10" stroke-linejoin="round"/>
<path d="M19.3469 122.661L13.8639 104.209C13.8639 104.103 13.7585 103.998 13.653 103.998H10.068C9.96256 103.998 9.96256 104.103 9.96256 104.209C9.96256 104.736 9.96256 105.158 9.75168 105.58L4.90137 122.556C4.90137 122.767 4.90136 122.767 5.11225 122.767H7.64285C7.85373 122.767 7.85373 122.661 7.85373 122.556L9.22447 117.389H14.7074L16.0782 122.556C16.0782 122.661 16.1836 122.767 16.289 122.767H19.136C19.3468 122.872 19.3469 122.767 19.3469 122.661ZM9.96256 114.753C10.7006 112.117 11.9659 106.74 11.9659 106.74C12.3877 108.743 13.5476 112.855 14.0748 114.753H9.96256Z" fill="white" stroke="#525375" stroke-miterlimit="10" stroke-linejoin="round"/>
<path d="M5.00678 54.9434H30.84C33.0542 54.9434 34.8467 56.7359 34.8467 58.9501V84.7833C34.8467 86.9976 33.0542 88.7901 30.84 88.7901H5.00678C2.79251 88.7901 1 86.9976 1 84.7833V58.9501C1 56.7359 2.79251 54.9434 5.00678 54.9434Z" fill="#F4BC4F" stroke="#525375" stroke-miterlimit="10" stroke-linejoin="round"/>
<path d="M24.6191 68.0185C24.6191 67.9131 24.6191 67.8076 24.83 67.8076H27.4661C27.5715 67.8076 27.6769 67.8076 27.6769 68.0185V81.3041C27.6769 81.4096 27.6769 81.515 27.4661 81.515H24.83C24.6191 81.515 24.6191 81.4096 24.6191 81.3041V68.0185Z" fill="white" stroke="#525375" stroke-miterlimit="10" stroke-linejoin="round"/>
<path d="M24.4077 64.2222C24.4077 63.2733 25.1458 62.5352 26.0948 62.5352C27.0438 62.5352 27.7819 63.2733 27.7819 64.2222C27.7819 65.1712 27.0438 65.9093 26.0948 65.9093C25.2513 66.0147 24.5132 65.2766 24.4077 64.4331C24.4077 64.4331 24.4077 64.3277 24.4077 64.2222Z" fill="white" stroke="#525375" stroke-miterlimit="10" stroke-linejoin="round"/>
<path d="M22.1939 81.3029L16.8163 63.1669C16.8163 63.0615 16.7109 62.9561 16.6055 62.9561H13.1259C13.0204 62.9561 13.0204 62.9561 13.0204 63.1669C13.0204 63.5887 13.0204 64.1159 12.8096 64.5377L8.0647 81.1974C8.0647 81.4083 8.06469 81.4083 8.27558 81.4083H10.7007C10.9116 81.4083 10.9116 81.4083 10.9116 81.1974L12.2824 76.1362H17.7653L19.1361 81.1974C19.1361 81.3029 19.2415 81.3029 19.3469 81.3029H22.0884C22.1939 81.5138 22.1939 81.4083 22.1939 81.3029ZM12.915 73.6056C13.6531 70.9696 14.813 65.6975 14.813 65.6975C15.2347 67.7009 16.2891 71.7077 16.8163 73.6056H12.915Z" fill="white" stroke="#525375" stroke-miterlimit="10" stroke-linejoin="round"/>
<path d="M5.00678 13.4551H30.84C33.0542 13.4551 34.8467 15.2476 34.8467 17.4619V43.295C34.8467 45.5093 33.0542 47.3018 30.84 47.3018H5.00678C2.79251 47.3018 1 45.5093 1 43.295V17.4619C1 15.2476 2.79251 13.4551 5.00678 13.4551Z" fill="#D16978" stroke="#525375" stroke-miterlimit="10" stroke-linejoin="round"/>
<path d="M14.9187 39.4984C16.6058 39.4984 17.9765 38.1277 17.9765 36.4406V33.3828H14.9187C13.2317 33.4883 11.9664 34.9644 12.0718 36.5461C12.1773 38.2331 13.3371 39.393 14.9187 39.4984Z" fill="white" stroke="#525375" stroke-miterlimit="10" stroke-linejoin="round"/>
<path d="M11.8606 30.4299C11.8606 28.7428 13.2313 27.3721 14.9184 27.3721H17.9762V33.4877H14.9184C13.2313 33.4877 11.8606 32.1169 11.8606 30.4299Z" fill="white" stroke="#525375" stroke-miterlimit="10" stroke-linejoin="round"/>
<path d="M11.8606 24.3146C11.8606 22.6276 13.2313 21.2568 14.9184 21.2568H17.9762V27.3724H14.9184C13.2313 27.3724 11.8606 26.0017 11.8606 24.3146Z" fill="white" stroke="#525375" stroke-miterlimit="10" stroke-linejoin="round"/>
<path d="M17.9761 21.2561H21.0339C22.7209 21.1507 24.1971 22.416 24.1971 24.1031C24.1971 25.7901 23.0373 27.2663 21.3502 27.2663C21.2448 27.2663 21.1393 27.2663 21.0339 27.2663H17.9761V21.2561Z" fill="white" stroke="#525375" stroke-miterlimit="10" stroke-linejoin="round"/>
<path d="M23.9862 30.4299C23.9862 32.1169 22.6155 33.4877 20.9284 33.4877C19.2414 33.4877 17.8706 32.1169 17.8706 30.4299C17.8706 28.7428 19.2414 27.3721 20.9284 27.3721C22.6155 27.3721 23.9862 28.7428 23.9862 30.4299Z" fill="white" stroke="#525375" stroke-miterlimit="10" stroke-linejoin="round"/>
</svg>
