<?xml version="1.0" encoding="UTF-8"?>
<svg version="1.1" viewBox="0 0 258 694" xmlns="http://www.w3.org/2000/svg">
 <path d="m16.031 18.539c-0.8869 1.13-1.3484 2.7395-0.97656 4.127 0.2975 1.1101-1.5908 0.72425-0.73828 1.6855 0.8524 0.9613 0.92632 1.2395-0.10938 1.8145l-1.3125 0.64844c-0.3864 1.8882-1.051 3.8512-0.90234 4.4062l0.14844 0.55469 0.29883 1.1094c-0.4806 0.4263-1.0367 0.5764-1.4629 0.095703-0.4262-0.4806-1.5567-1.3679-1.8887-0.38672l-0.12891 0.62891 0.021484 1.1836c0.83253-0.223 1.2576 0.25927 1.1289 0.88867-0.12883 0.6294 1.9076 1.5706 2.8145 1.625l0.57617 1.0352c0.0743 0.2775-1.1104 0.29632-2.5723 0.39062l-1.2578-0.25586-0.2793 0.074218c-0.35188-0.2032-0.50021-0.75935-0.019531-1.1855l0.20312-0.35156c0.20315-0.3518-0.1481-0.55495-0.70312-0.40625-0.55502 0.1488-1.5918 0.72461-1.5918 0.72461 0.07437 0.2776 0.57588 1.0347 0.72461 1.5898l0.42578 0.48047c0.50058 0.7581 0.019864 1.1853-0.53516 1.334-0.83253 0.2231-1.259-0.25761-2.0371-0.94141-0.35186-0.2032 0.23826-2.443 0.44141-2.7949 0.27752-0.0744 0.53522-1.3329 1.0703-2.666l-0.29688-1.1113-0.29883-1.1094c-0.01993-1.1844-0.51872-1.9437-1.7031-1.9238l-0.42773-0.48047-1-1.5156c-0.96133 0.8525-1.8498 1.9819-1.9043 2.8887l-0.75781 0.50195-0.68359 0.77734c0.57494 1.0356 1.1501 2.072 1.2988 2.627 0.054995 0.20525 0.051166 1.2184 0.039062 2.4336 1.2004-0.90081 1.9065-1.8368 1.7754-2.3262-0.42622-0.4807 0.10773-1.8124-0.24414-2.0156-0.35189-0.2032 0.46201-1.6117 1.3145-0.65039l0.70312 0.40625c0.98127 0.332 0.92749 1.2396 0.87305 2.1465-0.12878 0.6294-0.6092 1.0565-0.88672 1.1309l-0.96289 0.85156c-0.25758 1.2588 0.18883 2.9237 0.89258 3.3301l-0.60938 1.0547-0.40625 0.70508c-0.40629 0.7038-1.1636 1.2033-1.5898 0.72266-0.21468-0.24207-0.5488-1.2044-0.88086-2.1641-0.0040678 1.3057 0.0052835 2.5942 0.068359 3.5723l1.3867-0.37109 0.5 0.75781c0.07436 0.2775-0.75781 0.5-0.75781 0.5-0.78454-1.0486-2.2337-0.65406-2.8105-1.7266v2.8984c0.51216 0.91902 1.2924 1.7616 1.3887 1.291l0.20312-0.35156c0.35189 0.2032 1.2044 1.1651 1.5762 2.5527l0.29688 1.1094c0.22307 0.8325 1.3528 1.7202 1.9277 2.7559 0 0 0.27896-0.07581 0.83398-0.22461 0.55502-0.1487 1.8141 0.1094 2.166 0.3125 0.35188 0.2032 0.44561 1.666 0.09375 1.4629-0.07436-0.2775-0.98253-0.33252-1.1113 0.29688l-0.12695 0.62891-0.054688 0.9082c-0.62938-0.1288-1.1115 0.29672-1.0371 0.57422 0.07436 0.2775 0.095869 1.4609-0.18164 1.5352-0.27751 0.0744-1.2593-0.25724-1.4824-1.0898l-0.22266-0.83203c0.20315-0.3519 0.12907-0.62909-0.14844-0.55469-0.27751 0.0743-0.75991 0.49984-0.68555 0.77734s-0.054062 0.90825-0.75781 0.50195l0.019531 1.1836c-0.20314 0.3519 0.021187 1.1835 0.37305 1.3867l0.42578 0.48242c-0.12878 0.6295-0.53526 1.3315-0.66406 1.9609-0.12878 0.6294-1.2183 2.1116-1.6445 1.6309-0.23416-0.26408-0.76041-0.61703-1.1875-0.69531v1.834c0.41734 0.98057 0.75803 2.1121 2.0801 2.1914 0 0 0.50004 0.75943 0.29688 1.1113l0.14844 0.55469c-0.33194 0.9813-0.81191 1.4066-1.3125 0.64844l-0.35156-0.20312c-0.70373-0.4063-0.77935-0.68292-0.37305-1.3867 0 0-0.25797-0.037769-0.48828-0.064454v5.3184c0.24724-0.09534 0.56016-0.21621 0.64258-0.23828 0.24388-0.065382 0.40187 1.2682-0.64258 2.084v1.748c0.074701 0.049291 0.1395 0.098477 0.22266 0.14648 0.70374 0.4063 2.7204 0.16237 3.2754 0.013672s2.2188-0.59432 1.8125 0.10938c-0.4063 0.7038-2.7554 1.9292-3.5879 2.1523-0.55502 0.1487-1.7185 1.3521-1.6641 0.44531l-0.058594-0.21875v6.0488l0.1582 0.091797c0.57495 1.0357 0.44562 1.666 0.09375 1.4629-0.070687-0.014466-0.16799-0.029039-0.25195-0.044922v30.391c0.91229-0.51482 1.6116-0.94276 1.9355-0.75586 0.217 0.12518-0.83188 1.0443-1.9355 2.0098v1.6894c0.16499 0.00453 0.33487 5.1e-4 0.5332-0.05273 0.55502-0.148 1.0001 1.5166 1.5352 0.18359 0.1288-0.63 1.3874-0.3722 0.8125-1.4082-0.07436-0.277 0.68552-0.77691 0.88867-1.1289 0.12878-0.629 0.40579-0.70366 0.83203-0.22266 0.35187 0.203 0.49969 0.75794 0.85156 0.96094 0 0-0.2031 0.35113-0.40625 0.70313-0.20316 0.352-1.0352 0.57617-1.0352 0.57617 0.44616 1.665-0.53465 1.3317-1.3672 1.5547l-0.83398 0.22266c-0.83254 0.223-1.0355 0.5763-0.68359 0.7793 0.35187 0.204 2.037 0.94131 1.9082 1.5703-0.1288 0.63-0.311 2.1665 0.11523 2.6465 0.42622 0.481 2.0372 0.94248 1.6309 1.6465-0.20315 0.351-3.5532 0.05806-3.127 0.53906 0.14872 0.555 0.92568 1.2382 0.79688 1.8672 0.14872 0.555 0.72448 1.5917 0.5957 2.2207l-0.20312 0.35157-0.40625 0.70507c-0.48067 0.426-0.46135 1.6114-0.23828 2.4434l0.22266 0.83203 0.074219 0.27735c-0.20316 0.352-0.75737 0.50053-1.1836 0.01953l-0.35156-0.20313c-0.35188-0.203-0.4809 0.42677-0.25781 1.2598l0.5 0.75781c0.42624 0.481 0.57588 1.0368 0.72461 1.5918l0.29688 1.1094c-1.5363-0.184-2.1663-0.31237-1.8145-0.10937 0.27751-0.075-0.1077 1.8141 0.041016 2.3691l0.42578 0.48047 0.35156 0.20312c0.14871 0.555 0.093775 1.4605-0.10938 1.8125-0.1288 0.63-1.0898 1.4824-1.0898 1.4824-0.0067362 0.0018-0.022014 0.00945-0.029297 0.01172v292.12l0.064453-0.05664c0.40631-0.704 1.3137-0.65079 2.0918 0.03321 0 0 0.83216-0.223 0.75781-0.5l-0.81836-3.0527c1.3331 0.535 2.6658 1.0701 2.9434 0.9961l0.076172 0.27734c0.35188 0.203 0.42578 0.48047 0.42578 0.48047 0.75817-0.501 1.2381-0.92708 1.9219-1.7051 0.68382-0.778 0.18402-1.5361-0.039062-2.3691 0 0 0.62847 0.12838 1.0547 0.60938 0.42624 0.47999 0.46713 2.849-0.087891 2.998-0.27752 0.074-1.0358 0.57642-0.33203 0.98242 0.70376 0.406 2.2948-0.31801 2.3691-0.04101 0.0744 0.278 0.16815 1.7409 0.09375 1.4629-0.3518-0.203-0.12961 0.62862 0.24219 2.0156l1.1855-0.01953c0.9069 0.055 1.8138 0.10906 2.7207 0.16407 1.2588 0.25699 2.6649 1.0702 2.625-1.2988l0.27734-0.07422c0.2775-0.075 4.4802 1.1783 5.0352 1.0293l0.63086 0.12891c0.6293 0.128 1.3321 0.53667 1.1289 0.88867l0.14844 0.55469c-0.0544 0.907-0.33154 0.98056-0.96094 0.85156l-1.1289-0.88672c-0.0544 0.907 0.51929 1.9435 0.87109 2.1465l0.63086 0.1289c0.6294 0.128 0.77706 0.68285 0.72266 1.5898-0.1288 0.63-0.18411 1.5356 0.24219 2.0156 0.6493 1.314-0.033234 2.0932-0.36523 3.0742-0.4063 0.704-0.25828 1.2594-0.23828 2.4434l0.074219 0.27735c-0.2031 0.351 0.14974 0.55537 1.0566 0.60937s1.2233 2.3494 0.51953 1.9434l-1.2578-0.25781c-0.8326 0.223-0.75844 0.49917 0.35156 0.20117l0.64844 1.3144 0.50195 0.75782c0.7781 0.68299 1.3515 1.7186 1.2227 2.3476l-0.20312 0.35352c-0.6838 0.778-1.442 1.2786-1.2734 3.0176 0.2974 1.11-0.034041 2.0917 0.81836 3.0527l0.35156 0.20312c0.1487 0.555 0.29857 1.1092 0.57617 1.0352 0.2775-0.074 0.70325 0.40689 0.09375 1.4629l1.666-0.44531c0.555-0.149 1.0347-0.57614 1.2578 0.25586 0.1487 0.555 0.019763 1.1853-0.46094 1.6113l-0.48047 0.42578c-0.8326 0.223-1.5158 1.0013-1.4414 1.2793l0.14844 0.55469c0.1487 0.555-0.18352 1.5367-0.38672 1.8887-0.2775 0.074-0.12909 0.62825-0.054688 0.90625l0.14844 0.55469c0.4262 0.481 1.2596 0.25847 1.9434-0.51953l0.48047-0.42578 0.20312-0.35352c0.2231 0.833 0.37286 1.389 0.44726 1.666l0.14844 0.55469 0.074219 0.27734c-0.4607 1.61-0.44172 2.7955 0.11328 2.6465 0.2775-0.074 0.23828-2.4434 0.23828-2.4434l0.55469-0.14843c0.3519 0.203 0.64961 1.3136 1.2246 2.3496l-0.60938 1.0547-0.53516 1.334c-0.9268-1.239-1.8001-3.3864-2.1719-4.7734l-0.40625 0.70508c-0.2031 0.351-1.0347 0.57331-1.6641 0.44531-0.7037-0.407-1.5568-1.3669-2.0176 0.24414 0 0-0.55451 0.1481-0.62891-0.1289-0.4262-0.481-0.44672-1.6648-1.4824-1.0898-0.4807 0.426-0.44013 2.7951 0.13477 3.8301l0.074218 0.27734c0.4262 0.481 0.57438 1.0354 0.29688 1.1094s-0.81148 1.4081 0.041016 2.3691l0.8125-1.4082c0.4063-0.703 1.332 0.53515 1.332 0.53515-0.2576 1.259 0.74466 2.7771-0.49414 3.7031-0.7582 0.501-0.18386 1.5368-0.035157 2.0918 0.5006 0.75801 0.62859 0.12652 1.1836-0.02148l0.75977-0.5c0.9069 0.055 1.3872-0.37156 0.96094-0.85156-0.4262-0.481-1.7793-2.2012-1.7793-2.2012s0.62833 0.12815 1.332 0.53515l0.63086 0.12891 0.62891 0.12891c0.9069 0.055 1.6112 0.46084 1.4824 1.0898-0.1288 0.63-0.38688 1.8894-0.10938 1.8144 0.2775-0.074 0.70304 0.4056 0.77734 0.6836-0.2031 0.352-0.68326 0.77721-1.0352 0.57421-0.3518-0.203-1.0356 0.57511-0.94141 2.0371l-1.9082-1.5703-0.35156-0.20312c-0.7582 0.5-0.96143 0.85146-0.33203 0.98046 0.6293 0.129 2.4628 1.4229 1.9277 2.7559-0.2575 1.259 0.3031 5.5689-0.6582 6.4219l-0.53516 1.334-0.7207 1.6445c0.55336 0.46305 0.54245 1.9134-0.31055 3.3906l-1.6641 0.44531-1.1113 0.29883c-0.223-0.833-0.64846-1.3149-0.85156-0.96289-0.2032 0.352-0.25839 1.26 0.44531 1.666l0.63086 0.1289c0.3519 0.203 0.70271 0.40581 1.2578 0.25781l1.666-0.44726c0.2231 0.832 0.37107 1.3882 0.16797 1.7402 0.0743 0.278 0.019194 1.1827 0.37109 1.3867l0.35352 0.20313c0.7037 0.406 0.77714 0.68525 1.4609-0.09375l0.40625-0.70313c1.0556 0.609 1.2034 1.1635 0.64844 1.3125-0.555 0.149-0.58792 2.2398-0.79102 2.5918l-0.27734 0.07422-0.2793 0.07422c-0.3519-0.204-1.1283-0.88597-1.832-1.293-0.7038-0.406-2.3498 1.2249-2.4043 2.1309l1.1855-0.01953 0.27734-0.07422c0.4262 0.481 0.29685 1.1089 0.09375 1.4609l-0.27734 0.07422c-1.1844 0.02-1.7935 1.0764-1.0898 1.4824l0.85156 0.96289c0.0199 1.184-0.16368 2.7197-0.92188 3.2207l-0.68359 0.77734-0.20312 0.35157c-0.2031 0.35199-0.055025 0.90832 0.29688 1.1113 0.3518 0.203 0.65078 1.3115-0.10742 1.8125l-0.25781 1.2598c-0.2775 0.075-0.12909 0.62925-0.054688 0.90625 0.0743 0.278 0.42578 0.48047 0.42578 0.48047 1.5164-1.001 1.962 0.664 2.8145 1.625l0.35352 0.20312c0.4263 0.481 0.29737 1.1104-0.33203 0.98242l-0.55469 0.14844c-0.2775 0.075-0.48073 0.42547-0.33203 0.98047l0.074219 0.27734c0.0743 0.278 0.70294 0.4056 0.77734 0.6836l1.2051 1.1641c-1.0357 0.575-1.7947 1.0765-1.9434 0.52148-0.0743-0.27799-0.44693-1.6642-0.79883-1.8672s-1.6834-0.7395-2.1641-0.3125c-0.4806 0.426 0.11359 2.6458-0.57031 3.4238l-0.68359 0.77734-0.27734 0.07617c0.1487 0.555 0.50002 0.75825 0.70312 0.40625l0.27734-0.07617c0.6293 0.129 1.4078 0.81306 1.9629 0.66406l1.6641-0.44531c0.0943 1.462-0.16229 2.721-0.087891 2.998 0 0 0.35132 0.20325 0.70312 0.40625l-0.074219-0.27735 0.20312-0.35156c-0.1487-0.555 0.33206-0.98198 0.53516-1.334 0.2775-0.074 0.61-1.0541 0.3125-2.1641l0.68359-0.77929c0.2031-0.351 0.20237-0.35097 0.98047 0.33203-0.1288 0.63-0.052734 0.90625-0.052734 0.90625 1.0357-0.575 2.0168-0.24303 2.5918 0.79297l0.92578 1.2402c0.8325-0.223 2.4977-0.66892 3.2559-1.1699l0.33203-0.98242c0.332-0.982 0.66401-1.962 1.0703-2.666 0.3519 0.204 0.57401 1.036 0.44531 1.666l1.1113-0.29883s0.4256 0.48081 0.5 0.75781c0.0743 0.278-0.12875 0.63108-0.40625 0.70508l-0.55469 0.14844c-0.5551 0.148-1.0352 0.57456-0.96094 0.85156 0.0744 0.278-0.18328 1.5366-0.73828 1.6856s-2.8705-0.71714-3.7031-0.49414l-0.88672 1.1289c-0.4063 0.704-2.0711 1.1512-2.8691-0.71679l-0.074219-0.2793c-0.6294-0.129-0.33274 0.98114 0.039063 2.3691l1.1309 0.88672c0.0744 0.277 0.62891 0.1289 0.62891 0.1289 1.0901-1.482 1.8684-0.79737 2.5176 0.51563l0.074219 0.27734c0.3519 0.203 0.90797 0.05491 1.3887-0.37109-0.2231-0.833 0.034663-2.0919 0.66406-1.9629l1.0547 0.60937c0.9812 0.332 1.963 0.66363 1.7598 1.0156 0.0744 0.278-0.38646 1.887-0.53516 1.332s-1.002-1.5156-1.002-1.5156l0.074219 0.27735 0.095703 1.4629c0.9268 1.239 2.1839 1.4968 2.2383 0.58984 0.3319-0.981 2.2012-1.7797 1.998-1.4277-0.2031 0.351-0.18375 1.5359 0.09375 1.4609 0.2775-0.074 1.2597 0.25715 1.334 0.53515 0.0744 0.277 0.093437 1.4625 0.64844 1.3144 0.5551-0.149 1.8882 0.38575 2.1113 1.2188l0.42578 0.48046 0.35352 0.20313c0.555-0.149 1.1834-0.0207 1.4609-0.0957-0.1288 0.63-1.1649 1.205-0.3125 2.166 0.0744 0.277 0.35336 0.20291 0.63086 0.12891 0.7582-0.501 1.6252-2.8146 1.2734-3.0176-1.4075-0.813-0.79864-1.8684-0.74414-2.7754-0.0744-0.277-0.42755-0.47981-0.50195-0.75781l-0.074219-0.27735c-0.0743-0.278-0.093644-1.4618 0.035156-2.0918l0.20312-0.35157c0.3319-0.982 1.4414-1.278 2.0508-2.334l0.33203-0.98242c0.6095-1.056 0.88841-1.1292 1.0371-0.57422l0.29688 1.1094c0.2231 0.833-0.10924 1.8142-0.58984 2.2402-0.4807 0.426-0.71763 2.871 0.13477 3.832l0.46484 2.8477c0.0744 0.278 0.15021 0.55598 0.22461 0.83398l-0.20312 0.35156c-0.2031 0.352-0.12924 0.62903 0.22266 0.83203l0.70312 0.40625c0.4263 0.48 0.22289 0.83377-0.25781 1.2598l-0.55469 0.14844c-0.3518-0.203-0.62909-0.12957-0.55469 0.14843 0.0744 0.277 0.29654 1.1095 0.64844 1.3125 0.1487 0.555 0.7987 1.8686 0.4668 2.8496l0.22266 0.83399 0.22266 0.83203c0.7782 0.683 1.2796 1.4418 0.72461 1.5898-0.2775 0.075-1.442 1.2787-1.1445 2.3887l-0.27734 0.07422-1.998 1.4277c1.4819 1.09 2.8165 1.6251 2.9453 0.99609 0.4063-0.704 0.86667-2.315 1.293-1.834l0.35156 0.20312c0.9813 0.332 0.98044 0.3315 0.64844 1.3125-0.4063 0.704-0.46097 1.6128-0.79297 2.5938l-0.33008 0.98047c-0.3319 0.982-0.81419 1.4085-0.96289 0.85352-0.2231-0.833-1.5013-2.2765-2.6113-1.9785l0.31836 2.2949c0.0744 0.278 0.14844 0.55469 0.14844 0.55469-1.5907 0.724-0.86774 2.3144-0.77344 3.7754 0.0199 1.185 0.74419 2.7775 0.33789 3.4805-1.2933 1.834-0.4217 3.9793-1.4375 5.7383-0.4063 0.704-0.53396 1.3336 0.24414 2.0176 0 0 0.019663 1.1824-0.46094 1.6094-0.4807 0.426-1.2391 0.92789-0.66406 1.9629l0.14844 0.55469c0.2231 0.833 0.16771 1.7399 0.31641 2.2949l-0.20312 0.35157-0.75781 0.5c-0.6838 0.778-0.7369 1.6858-0.033203 2.0918 0.6294 0.129 2.2382 0.59028 2.4414 0.23828 0.2031-0.352 0.20458-0.35175 0.70508 0.40625 0.2231 0.833 0.18826 2.9242-0.58984 2.2402l-0.70312-0.40625-0.70508-0.40625c-0.7037-0.406-1.3871 0.37264-1.3672 1.5566-0.2576 1.259 0.91154 4.515 1.7441 4.291l0.35352 0.20312c0.4263 0.48 0.92534 1.2373 1.1484 2.0703 0.0744 0.278 0.14841 0.55621-0.054687 0.90821-0.2032 0.352-0.40633 0.70346-0.33203 0.98046 0.2975 1.11 0.7983 1.8685 1.0957 2.9785 0.2231 0.833-1.1631 1.2044-0.23633 2.4434l-0.8125 1.4062 1.6094 0.46094c0.0942 1.462 0.18935 2.9257 0.060547 3.5547s0.31617 2.2932 0.79687 1.8672c0.7581-0.5 1.4975-2.1853 2.2012-1.7793l0.98047 0.33204c0.0743 0.277 0.42774 0.48046 0.42774 0.48046-1.0158 1.759 1.4999 2.2744 0.96484 3.6074l-0.20312 0.35156c-0.4806 0.426-0.81115 1.408-0.31055 2.166 0.2231 0.832 1.7792 2.2014 2.2598 1.7754 0.4807-0.427 2.7008-1.0214 3.0527-0.81836l0.70312 0.40625 1.2598 0.25781c0.0943 1.462 0.33572 3.4773 0.078125 4.7363l-1.0352 0.57617c-0.7582 0.501 0.37109 1.3867 0.37109 1.3867l-0.58789 2.2402c1.4819 1.09 2.9625 2.1802 3.5176 2.0312 0.6293 0.129 2.0176-0.2437 2.2207-0.5957l-0.074219-0.27539c-0.0744-0.278-0.6307-0.13064-0.9082-0.05664l-1.3125 0.65039c-0.0199-1.185 0.71821-2.8703 1.7539-3.4453l1.2051 1.166c1.9081 1.571 2.3884 1.144 3.8848-1.041l0.20312-0.35157c0.4807-0.426 0.83192-0.22275 0.70312 0.40625l-0.20312 0.35157c-0.1288 0.63-1.089 1.4815 0.65039 1.3125 0 0 0.1481 0.55576 0.5 0.75976l0.074219 0.27539c0.2775-0.074 0.40669-0.70315 0.18359-1.5352l0.90625 0.05468c0.9069 0.055 0.57557 1.035 1.0762 1.793l0.074219 0.2793c0.0743 0.277 1.0558 0.60789 2.2402 0.58789l1.2578 0.25781c0.2775-0.075 0.7049 0.4056 0.7793 0.6836l0.57422 1.0352c0.575 1.036 1.3535 1.7196 1.7598 1.0156 0.2031-0.352 0.79256-2.5912 1.3477-2.7402 0.3518 0.204 1.6096 0.4606 1.5352 0.1836 0 0-0.64791-1.3138-0.94531-2.4238l-1.7949 1.0762-0.48047 0.42578c-0.8326 0.223-1.5367-0.18262-1.7598-1.0156-0.1487-0.555-0.11351-2.6463 0.36719-3.0723l-0.074218-0.27734c-0.0943-1.462 0.5344-1.3324 1.3125-0.64844l1.0566 0.60742c0.8326-0.223 2.0366 0.9423 2.1309 2.4043l0.57422 1.0352c0.2231 0.833 1.0761 1.7937 1.8887 0.38672 0.2031-0.352 1.3882-0.37162 1.8145 0.10938l0.22266 0.83203c0.5206 1.943 0.66891 2.4981-0.18359 1.5371l-0.42578-0.48047c-0.7038-0.406-1.2584-0.25844-0.96094 0.85156l0.074219 0.27735c-0.2031 0.352-0.48011 0.42609-0.62891-0.12891-0.1487-0.555-1.0018-1.5154-1.2793-1.4414-0.2776 0.074-0.96154 0.85333-0.46094 1.6113 0.1487 0.555 1.705 1.9223 1.9082 1.5703 0.4806-0.426 2.1652 0.31158 3.1465 0.64258l0.83203-0.22265 2.4238-0.94532c0.4461 1.665 1.2987 2.6252 1.7793 2.1992 0.4807-0.426 2.5908 0.79332 3.4238 0.57032l0.52148 1.9414c0.298 1.11 1.3332 0.53603 1.7402-0.16797l0.92968-1.0586c-0.01788-0.03187-0.02364-0.03745-0.04296-0.07227-0.223-0.832-1.1701-3.2549-0.41211-3.7559l-0.64844-1.3125c-0.65-1.313 0.60872-1.0569 0.88672-1.1309 0.832-0.223 1.0544 0.61046 0.64843 1.3145l-0.60937 1.0547c0.703 0.40599 2.1846 1.4959 2.6856 2.2539l-0.25782 1.2598c-0.203 0.352 0.8724 2.1453 1.1504 2.0703 0.278-0.074 0.27768-0.07249 0.55468-0.14648 0 0 0.12957-0.63165-0.14844-0.55665l-1.4062-0.8125c0.68399-0.778 1.5154-1.0005 1.9414-0.51953 0.501 0.758 1.2992 2.6265 0.11524 2.6465-1.185 0.02-3.4805 0.33575-2.9805 1.0938 0.427 0.481 1.1502 2.0727 1.5762 2.5527 0.427 0.481 0.52105 1.9435 0.87305 2.1465l0.27734-0.07422 0.48047-0.42774c0.406-0.703 1.11-0.29607 1.834 1.2949l-0.88672 1.1289c-1.165 1.204 0.04089 2.3685 0.33789 3.4785l0.07422 0.27734c0.149 0.555 0.83185-0.22147 1.0898-1.4805l0.33203-0.98242 0.33203-0.98047c0.704 0.406 1.1843-0.02073 1.2383-0.92773-0.223-0.833-1.5763-2.5507-1.4473-3.1797 0.129-0.63 1.7399-0.16989 1.9629 0.66211 0.224 0.833 0.87251 2.1467 1.3535 1.7207l0.27734-0.07422c0.35201 0.203 0.35169 0.20357 0.55469-0.14843-0.074-0.278 0.05425-0.90808 0.40625-0.70508 0 0 0.55438-0.14964 0.60938-1.0566 1.462-0.094 1.2191-2.111 1.8281-3.166 0.203-0.352 0.83433-0.22187 1.1113-0.29687l1.1836-0.01954c0.203-0.35199 0.25707-1.2589 0.66407-1.9629 0.406-0.704 3.3306-0.89226 3.1816-1.4473-0.074-0.277 0.3864-1.8891 0.9414-2.0371 0.833-0.223 2.9986 0.09016 2.8496-0.46484-0.149-0.556-0.1684-1.7401 0.1836-1.5371 0.426 0.481 0.85078 0.96128 0.92578 1.2383-0.332 0.981-0.6641 1.9624-0.9961 2.9434l-0.20312 0.35351c0.074 0.277-0.31222 2.1647-0.69922 4.0527l-0.88672 1.1289-0.27734 0.07618c0.074 0.27699 1.4086 0.81092 3.2226 0.91992l1.3867-0.3711c0.277-0.075 0.90842 0.05503 0.98243 0.33203l0.85156 0.96094c0.758-0.501 1.1638-1.2035 1.0898-1.4805-0.075-0.278-0.64875-1.3139-0.09375-1.4629s1.6635-0.44562 1.8125 0.10938 0.7243 1.5904 1.2793 1.4414l0.27734-0.07421 1.3887-0.3711c0.257-1.259 0.9411-2.0366 1.4961-2.1856l0.42578 0.48047 0.70312 0.40625c-0.054 0.907 2.0583 2.1261 2.9453 0.9961l-0.16993-1.7402c-0.074-0.278 1.037-0.57526 1.666-0.44726 0.982 0.332 1.7593 1.0175 2.6113 1.9785l1.1309 0.88672c0.962-0.852 1.7939-1.0744 2.2949-0.3164 0.5 0.75799-1.3495 2.7401-1.4785 3.3691-0.203 0.352-1.4418 1.2794-1.0898 1.4824 0.074 0.277 0.22436 0.83115-0.18164 1.5352l-0.12891 0.63086c-0.129 0.629 0.09285 1.4598-0.03515 2.0898-0.536 1.333 0.64995 1.3146 1.002 1.5176 0.629 0.12899 1.1627-1.2048 1.0137-1.7598-0.148-0.555-1.2035-1.1654-0.51953-1.9434 0.406-0.703 1.0366-0.57419 2.0176-0.24219l1.332 0.53516c0.535-1.333 0.59028-2.2404 0.23828-2.4434l-0.07422-0.27734c-0.074-0.278 2.1048-3.2414 2.3828-3.3164 0.27699-0.074 1.1851-0.01941 1.5371 0.18359l0.77735 0.6836c0.758-0.5 1.2383-0.92774 1.2383-0.92774-0.278 0.075-0.77722-0.6812-0.57422-1.0332 0.129-0.63 0.94097-2.037 1.293-1.834 0.352 0.20299 2.0916 0.03267 2.5176 0.51367s-0.94197 2.0368-0.79297 2.5918c-0.129 0.629 0.31717 2.2949 1.0762 1.7949l0.55469-0.14844c1.184-0.02 0.60928-1.0556 0.73828-1.6856 0.129-0.629-0.09284-1.4628 0.03516-2.0918l0.1289-0.6289c0.407-0.704 0.68338-0.77788 1.1094-0.29688s1.5554 1.3677 1.9824 1.8477c0.352 0.204 0.83269-0.2242 0.05469-0.9082-0.778-0.683-1.6702-4.0131-1.1152-4.1621l0.48047-0.42578c0.962-0.853 0.7043 0.40659 0.7793 0.68359l0.34961 0.20508c0.278-0.075 0.05547-0.90736-0.51953-1.9434s-0.54019-3.1276-0.24219-2.0176l1.0898-1.4824c0.887-1.13 2.1455-0.87147 3.1465 0.64453l0.07421 0.27734c0.35201 0.203 0.75772-0.4999 0.88672-1.1289 0.055-0.907 1.5709-1.9079 1.4219-2.4629-0.148-0.555 0.31187-2.1659 1.4219-2.4629l0.72461 1.5898c0.149 0.555 1.0566 0.61028 1.6856 0.73828l0.27734-0.07422c0.203-0.352 1.0158-1.7588 1.5508-3.0918l-1.4824-1.0918s-0.22353-0.8316-0.01953-1.1836c0.406-0.704 1.0901-1.4825 1.4961-2.1855l0.40625-0.70313c-0.426-0.481-0.72393-1.591-0.66993-2.498l0.57618 1.0352c0.704 0.406 0.62903 0.12953 0.33203-0.98047-0.649-1.314 0.23679-2.4449 0.21679-3.6289 0.054-0.907 0.33172-0.97991 0.88672-1.1289l1.5176-1.002c-0.927-1.239-0.87302-2.1461-0.04102-2.3691l0.20313-0.35157c0.535-1.333 0.79313-2.5928 1.3281-3.9258l-0.07422-0.27539c-0.426-0.481-0.2231-0.83386 0.1289-0.63086l0.27735-0.07422 0.27734-0.07421c0.277-0.075 0.48091-0.42591 0.12891-0.62891l-0.07422-0.27734c-0.074-0.278 0.05381-0.90777 0.25781-1.2598 0.535-1.333 1.0707-2.6647 1.6797-3.7207l0.40625-0.70508c-0.223-0.832-0.64878-1.3133-0.92578-1.2383-0.278 0.074-0.42714-0.47981 0.25586-1.2578 0.759-0.50099 1.6993-2.539 1.0703-2.668-0.278 0.075-1.259-0.25716-1.334-0.53516-0.02736-0.10244-0.26271-0.4693-0.54492-0.89258-0.26279 0.03835-0.58494-0.22961-1.0098-0.47461l-0.42579-0.48047c0.16802-0.04472 0.47729-0.00775 0.82422 0.05078-0.31782-0.46152-0.66334-0.95846-0.8457-1.2344l0.20313-0.35156c0.684-0.778 1.1851-0.02136 1.5371 0.18164 0.69801 0.61368 0.39 1.0273 0.2246 1.5586 0.52231-0.02272 1.0067-0.28847 0.83008-0.94726l0.13086-0.63086c0.054-0.907-0.04069-2.3692 1.5703-1.9082 0.981 0.332 2.0712-1.1501 1.6992-2.5371-0.223-0.833-0.09472-1.4606 0.73828-1.6836 0.277-0.075 0.60994-1.0563 0.46094-1.6113l-0.5957-2.2207c-0.391-2.572-0.91202-4.5148-1.041-3.8848 0.149 0.555-0.81197 1.4062-1.793 1.0742l0.53516-1.332c0.203-0.352 0.05469-0.9082 0.05469-0.9082-1.056-0.609-0.50271-0.75694-0.09571-1.4609l0.48047-0.42578c-0.094-1.462 0.59127-2.2402 1.5723-1.9082l-0.46094 1.6113-0.46094 1.6094c1.204 1.165 2.4636 1.4226 2.5176 0.51562 0.332-0.981 1.6064-3.9997 1.2344-5.3867l1.0898-1.4824 2.2539-2.6855c-1.244-3.534-1.9879-6.3088-1.7109-6.3828 0.278-0.075 1.1651-1.2049 0.66406-1.9629-0.223-0.832 1.145-2.3878 0.79297-2.5918-0.075-0.277-0.37175-1.3879-0.09375-1.4629 0.277-0.074 1.5894-0.72235 1.4414-1.2774l-0.07422-0.27734c-0.649-1.313-0.66869-2.4968 0.57031-3.4238 1.794-1.076 1.9211-1.7066 1.4551-4.5566-0.074-0.277-0.22288-0.83138-0.29688-1.1094 0 0 0.70521 0.4065 1.4082 0.8125l-0.29883-1.1094c-0.297-1.11-0.16816-1.7392 0.58984-2.2402l0.6836-0.77735c-0.5-0.758-1.0754-1.7953-1.1504-2.0723l-0.07227-0.27735c0.535-1.333 0.81214-1.4062 0.49414-3.7012-0.243-2.017 0.21869-3.6283 0.67969-5.2383 0.461-1.611 0.36625-3.0733 1.5312-4.2773 0.684-0.778 1.8477-1.9814 0.01367-3.2754 0.332-0.98099 0.73884-1.6854 1.0898-1.4824 0.278-0.074 1.0359-0.57437 0.46094-1.6094l0.20313-0.35352c0.61-1.056 0.31054-2.1658-0.18946-2.9238l-0.64843-1.3125c-0.094-1.462-0.18933-2.9234 0.01367-3.2754l-0.07422-0.27734c-0.298-1.11 1.9621 0.66392 1.1641-1.2051l0.40625-0.70312c-0.5-0.759-0.72231-1.592-0.44531-1.666 0.278-0.075 0.61037-1.0545 0.10937-1.8125l-0.15039-0.55469c0.055-0.907 0.4628-1.6112 0.5918-2.2402 0.129-0.63 0.60894-1.0563 0.46094-1.6113-0.075-0.277-0.50205-0.75772-0.37305-1.3867l-0.01953-1.1855c1.11-0.297 1.163-1.2041-0.04102-2.3691l-0.07226-0.27735c-0.02-1.185-0.39289-2.5715-0.33789-3.4785 0.535-1.333 1.4215-2.4624 0.77148-3.7754 0 0 0.20247-0.35273 0.48047-0.42773 1.739-0.168 1.3688-1.5562 0.58985-2.2402l-1.9082-1.5703c0.73106-0.01233 1.145-0.06411 1.4141-0.10937-0.60505-0.15661-1.0698-0.88416-0.60156-1.2988 1.516-1.001 0.73872-1.6835-0.11328-2.6445l-1.9473-3.9414c0.20301-0.352 0.40443-0.70268 0.60743-1.0547l1.498-2.1856c-1.001-1.516-1.4476-3.1811-0.89257-3.3301l0.20312-0.35156 0.48047-0.42578c-0.223-0.833-0.24402-2.0171-0.04102-2.3691l0.20508-0.35157 0.48047-0.42773c0.758-0.501-0.46709-2.8488-2.2461-5.0488l-0.54102-3.127c-0.148-0.555 0.53606-1.3339 0.66406-1.9629 0.129-0.63 0.46147-1.6114-0.51953-1.9434l-0.98047-0.33203c-0.982-0.332-2.3156-0.86593-3.2226-0.91993l-0.6836 0.77735c-0.351-0.203-0.29728-1.1087 0.38672-1.8867s2.6059-2.4845 2.2539-2.6875c-0.351-0.204-1.4818-1.0906-1.7598-1.0156-0.277 0.074-1.8138-0.10896-2.5918-0.79296l0.05468-0.90625c0.128-0.629-0.24281-2.0175 0.86719-2.3145 0.555-0.149-0.24283-2.017-1.2988-2.627-0.426-0.48-0.85229-0.96041-1.2793-1.4414-0.703-0.406-2.4415-0.23676-2.6445 0.11524 0.22301 0.832-0.73924 1.6838 0.59376 2.2188l0.15039 0.55469c0.148 0.555 0.37118 1.3878-0.25782 1.2598-0.277 0.074-0.70551-0.40789-0.85351-0.96289l-0.07422-0.27539c-0.148-0.555-1.8881-0.38819-3.8301 0.13281l-0.86719 2.3145 0.07422 0.27734c-0.555 0.148-1.0567-0.60928-0.92773-1.2383l0.27929-0.07422c1.035-0.575 0.88608-1.1302-0.16992-1.7402l-0.77734-0.68359c-0.778-0.684-1.6854-0.73837-1.8144-0.10937l-2.166-0.3125c-0.52-1.942-0.68933-3.6812-0.48633-4.0332l-0.6289-0.1289c-0.981-0.332-1.8877-0.38546-3.5527 0.06054l-0.27734 0.07422c-0.555 0.149-0.90713-0.05525-0.70313-0.40625 0.203-0.352 0.60808-1.0564 0.33008-0.98242-0.351-0.203-1.6302-1.6434-1.9082-1.5684-0.277 0.074-0.88728 1.1276-0.73828 1.6836 0.149 0.555 0.24445 2.017-0.31055 2.166s-2.3688 0.04003-2.5918-0.79297c-0.148-0.555 0.16246-2.7199 0.43946-2.7949 0.278-0.074 0.96245-0.8532 0.81445-1.4082-0.149-0.555-0.87317-2.145-1.0762-1.793s-0.73785 1.6854-1.0898 1.4824-1.8353-1.2945-2.6133-1.9785l-0.88672 1.1309c-0.406 0.704-0.5344 1.3333-1.4414 1.2793-0.277 0.074-0.40603 0.70247-0.33203 0.98047l-0.20313 0.35156c-0.203 0.352-0.83125 0.22331-0.90625-0.05469l-0.14844-0.55468c-0.149-0.555-0.50142-0.75803-0.98242-0.33203l-0.20312 0.35156-0.75782 0.50195c-0.406 0.703-0.25847 1.2576 0.01953 1.1836 0.27701-0.07399 0.98066 0.33104 0.22266 0.83204-1.036 0.575-4.296-2.7151-5-3.1211l-0.68359 0.77735-0.20313 0.35351c-1.13-0.887-2.5915-0.79406-3.4785 0.33594l-0.25782 1.2598-0.1289 0.62891c-0.277 0.075-0.62878-0.12847-0.42578-0.48047l-0.07422-0.27734c-0.149-0.555-0.85295-0.96258-1.002-1.5176-0.148-0.555 0.25837-1.2575 0.10937-1.8125-0.223-0.832-0.04083-2.37-1.2988-2.627-1.537-0.184-2.7606-2.5316-4.3516-1.8086-0.277 0.075-0.68338 0.77864-0.60938 1.0566l1.002 1.5156c-1.036 0.575-2.5538 1.5754-3.5898 2.1504l-0.72265-1.5898c-0.352-0.204-0.48103 0.42547-0.33203 0.98047l0.35351 0.20312c0.426 0.481 0.85131 0.96202 0.44531 1.666-0.203 0.352-0.40603 0.70346-0.33203 0.98046 0.149 0.555 0.72353 1.5914 0.51953 1.9434-0.128 0.629-1.0346 0.574-1.5156 1l-1.2188 2.1113c-1.462 0.095-2.4982 0.67025-2.2012 1.7812l-0.12891 0.62891c-0.257 1.259-1.089 1.4814-2.293 0.3164l-0.77734-0.68359c-0.778-0.683-0.92739-1.2394-0.65039-1.3144 0.352 0.203 1.2591 0.25859 1.5371 0.18359 0.203-0.351 0.66376-1.9625-0.11524-2.6465-0.5-0.758-3.0924-1.5511-2.9434-0.9961 0.148 0.555 0.72275 1.5919 0.09375 1.4629-0.426-0.48-0.57573-1.0343-0.92773-1.2383-0.426-0.48-1.2584-0.25812-1.1094 0.29688l0.29883 1.1094c-0.704-0.406-1.0568-0.60981-1.2598-0.25781 0.074 0.278-0.6096 1.0573-0.6836 0.7793-0.352-0.203-1.3324-0.53613-1.1094 0.29687l0.5 0.75781c0.224 0.833 0.29784 1.111-0.53516 1.334-0.277 0.074-0.40603 0.70347-0.33203 0.98047 0.779 0.684 1.0744 1.7939 0.31641 2.2949-0.758 0.5-1.3312-0.53441-2.0352-0.94141 0 0-0.05503 0.90724 0.16797 1.7402l0.77734 0.68359 0.42774 0.48047c0.02 1.185-1.09 1.4819-2.498 0.66992l-0.58984 2.2402s-0.90777-0.05482-1.2598-0.25782l-0.70312-0.40625c-0.5-0.758-0.79893-1.869-0.66993-2.498l0.2793-0.07422 0.62891 0.1289c0.704 0.406 1.6099 0.4593 1.4609-0.0957-0.14901-0.555-0.59385-2.2186-0.46485-2.8476 0.129-0.63-1.7602-1.0173-1.9082-1.5723-0.149-0.555-0.11564-2.6458 0.56836-3.4238l0.68359-0.7793c1.571-1.908 0.90363-4.4046 1.1406-6.8476 0.129-0.63-0.37097-1.3882-0.16797-1.7402 0.054-0.907 0.66258-1.9615 0.64258-3.1465l0.05468-0.90625c-0.575-1.035-0.87153-2.1464-0.51953-1.9434 0.555-0.149 1.7383-0.16797 1.7383-0.16797l-0.07422-0.27734c0.054-0.907-0.52157-1.9433-0.39257-2.5723l0.9414-2.0371c-0.595-2.22-1.1887-4.4408-1.2637-4.7188-0.074-0.277-0.09406-1.4604 0.46094-1.6094 0.277-0.074 0.46137-1.6115 0.10937-1.8145s-1.5562-1.367-1.0762-1.793c0.555-0.149 1.7736-2.2606 1.8086-4.3516l-0.72265-1.5898c-0.372-1.388-0.5962-2.2209 0.2168-3.6289l0.20312-0.35156c-0.223-0.832-1.4262-1.9971-2.4082-2.3281l-0.38672 1.8887-0.12891 0.6289c0.149 0.555 0.16819 1.7376 0.24219 2.0156-0.203 0.352-0.03286 2.0916 0.24414 2.0176 0.352 0.203 0.44633 1.6644-0.01367 3.2754l-0.81445 1.4082c-0.738 1.685-1.4759 3.3698-0.88086 5.5898-0.277 0.075-0.25828 1.2594-0.23829 2.4434 0.29701 1.11-0.41939 3.9783-0.90039 4.4043s-1.1309-0.88705-0.66992-2.498l0.1836-1.5352 0.20312-0.35156c-0.5-0.758-0.65005-1.3127-0.37305-1.3867 0.278-0.075 0.2586-1.2589-0.3164-2.2949l0.05469-0.9082 0.3125-2.1641c0.663-1.963 0.97439-4.1282 0.90039-4.4062-0.074-0.277-0.85255-0.96128-1.6856-0.73828l-1.6641 0.44531c-0.406 0.704-1.09 1.482-1.293 1.834-0.555 0.148-1.4416 1.2788-1.0156 1.7598 0.149 0.555 0.24317 2.0179 1.0762 1.7949 0.62901 0.129 0.87141 2.145 0.31641 2.293-0.555 0.149-1.3121 0.65008-1.1641 1.2051l-0.75977 0.5c-1.035 0.575 1.2063 1.1641 0.44727 1.6641l-0.68359 0.7793c-0.055 0.907-0.73819 1.6846-1.3672 1.5566l-0.07422-0.27735c-0.352-0.20299-0.57605-1.0357-0.37305-1.3867 0.609-1.056 0.59053-2.2402 0.14453-3.9062l-0.22461-0.83204c0.629 0.12901 1.3892-0.37273 1.2402-0.92773s0.60915-1.055 0.53515-1.332c-0.352-0.203-1.0572-0.61045-1.4082-0.81445-0.352-0.203-0.44742-1.6643 0.14258-3.9043l2.0918 0.03516 0.27734-0.07618c0.277-0.074 0.20291-0.3509 0.12891-0.6289-0.075-0.277-0.223-0.83281-0.5-0.75781l-0.55469 0.15039c-0.352-0.204-0.42695-0.48177-0.50195-0.75977-0.074-0.277 0.1302-0.62912 0.4082-0.70312l1.7383-0.16797c1.09-1.482 1.2735-3.0194 0.64453-3.1484l-0.42578-0.48047-0.50195-0.75781c-0.704-0.406-0.85175-0.96189-0.09375-1.4629l0.1289-0.62891c0.406-0.704 0.10972-1.8125-0.11328-2.6445l-0.52148-1.9434c0.887-1.13 2.5514-1.5758 3.6074-0.9668l-0.33203 0.98047c-0.332 0.981 0.01965 1.1858 0.72265 1.5918 0.352 0.204 0.85339 0.9605 0.65039 1.3125-0.129 0.629-0.60993 1.0563-0.46093 1.6113s0.85295 0.96062 1.002 1.5156c0.074 0.277-0.05459 0.90711-0.18359 1.5371l-0.25782 1.2578c-1.11 0.297-1.5165 1.0022-0.8125 1.4082 0.703 0.406 1.7792 2.1993 1.9082 1.5703l-0.14844-0.55469c-0.223-0.833-0.52136-1.9429-0.31836-2.2949l1.5176-1.002c-0.446-1.665-0.61511-3.4039-0.41211-3.7559 0.204-0.352-0.09366-1.4608-0.72266-1.5898l-0.07617-0.27734c-0.575-1.036 0.3315-0.9822 0.8125-1.4082 0.887-1.13 1.4968-2.1856 1.0508-3.8516l-0.14844-0.55468c-0.149-0.555 1.1652-1.2045 2.7012-1.0215l-0.51563 2.5195c-0.203 0.352-0.05403 0.90647-0.33203 0.98047-0.684 0.778-0.18252 1.5364 0.52148 1.9434 0.446 1.665 1.095 2.9783 1.373 2.9043 0.277-0.075 0.60821-1.0578 0.03321-2.0938l0.1289-0.62891c0.054-0.907 0.73788-1.6849 1.4219-2.4629 0.406-0.704 0.25825-1.2579-0.09375-1.4609l-1.1856 0.01954c0.129-0.63-0.31597-2.2949-1.168-3.2559l-1.2598-0.25782c-1.888-0.386-2.1853-1.4966-1.4473-3.1816l0.12891-0.6289c0.08043-0.39281-0.1651-1.0604-0.56836-1.8008l-0.28321 0.83984c-0.684 0.778-1.443 1.2786-2.127 2.0566-0.278 0.075-0.20356 0.35169 0.14844 0.55469s0.22297 0.83247-0.33203 0.98047c-0.278 0.075-0.03464 2.0917 0.81836 3.0527l-0.53516 1.334-0.20313 0.35156c-0.555 0.149-0.90698-0.05416-1.334-0.53516l0.20313-0.35156c0.33199-0.981 0.33178-0.98211-0.57422-1.0371-0.278 0.075-0.35091-0.20195-0.62891-0.12695-0.5-0.759 0.94086-2.0374-0.74414-2.7754-0.075-0.278-0.09372-1.4614 0.23828-2.4434l1.3867-0.3711c0.352 0.203 0.20391-0.35267-0.37109-1.3887l-0.42579-0.48047c-0.075-0.277-0.22231-0.83125 0.05469-0.90625 0.203-0.351 0.55403-0.14961 0.83203-0.22461l0.35157 0.20508c0.148 0.555 1.0564 0.60842 1.8144 0.10742l-1.1309-0.88672c-0.074-0.277 0.48047-0.42578 0.48047-0.42578 0.31532 0.18185 1.3012 1.1397 2.1191 2.0274-0.19002-0.30894-0.40358-0.62589-0.63672-0.9375l-0.16992-1.7383c-0.297-1.11-0.44469-1.6662-1.5547-1.3692 0 0-0.42695-0.47981-0.50195-0.75781 0 0 0.20542-0.35178 0.48242-0.42578l1.3125-0.64844c0.372 1.387 0.94748 2.4222 1.0215 2.6992 0.075 0.278 1.0554 0.61013 1.1094-0.29687l0.1289-0.63086c-0.01999-1.184 1.1844-0.01888 1.1094-0.29688-0.02-1.184 0.81306-1.4059 0.66406-1.9609-0.02-1.185-0.31736-2.2947-0.81836-3.0527-0.5-0.758-0.57475-1.0369-0.09375-1.4629l1.0371-0.57422c-0.02-1.184-0.54067-3.1278-1.2637-4.7188l-1.5371-0.18359c-0.277 0.074-0.7043-0.4056-0.7793-0.6836-0.704-0.406-0.57431-1.0341-0.44531-1.6641 0.129-0.629 0.48016-0.42717 1.0352-0.57617l1.4629-0.09375c0.575 1.036 1.5549 1.3681 1.9609 0.66406s0.42212-3.9806 0.82812-4.6836l-1.1309-0.88672c-0.352-0.203-0.09319-1.4606-0.24219-2.0156l0.05469-0.9082c0.332-0.981 0.5355-1.3332 0.8125-1.4082 0 0 0.98169 0.33351 0.55469-0.14649-0.148-0.555-0.72231-1.592-0.44531-1.666 0.278-0.075 0.25803-1.2592-0.16797-1.7402-0.427-0.48-1.502-2.2734-1.502-2.2734s0.2769-0.07605 0.6289 0.12695c0.352 0.204 1.1852-0.01803 0.53516-1.332l-0.70313-0.40625-0.19531-0.22071c0.93258-0.08407 2.4464-1.3072 2.043-1.7617l-0.07422-0.27735c-0.427-0.481-1.1307-0.88628-0.92773-1.2383 0.129-0.629 0.48132-0.42587 1.1113-0.29687 0.907 0.054 1.5158-1.0013 1.2188-2.1113l-0.37304-1.3887c0.629 0.129 1.1096-0.29635 0.68359-0.77735-0.427-0.481 0.49502-3.7034-0.20898-4.1094l-0.42578-0.48047c-0.07401-0.277-0.22266-0.83203-0.22266-0.83203 0.203-0.351 0.48103-0.42761 0.83203-0.22461l0.63086 0.13086c0.704 0.407 1.0546 0.60851 1.1836-0.02149l-0.07422-0.27734-0.22265-0.83203c-0.704-0.406-1.0013-1.5168-0.94727-2.4238l0.48047-0.42578 0.55469-0.14844c0.203-0.352 0.05512-0.90637-0.29688-1.1094s-0.5755-1.0372 0.8125-1.4082l-0.79687-1.8691s0.1273-0.62912 0.4043-0.70312l0.96289-0.85157c-0.501-0.75799-1.2794-1.4418-1.4824-1.0898-0.278 0.074-1.4618 0.09242-1.7598-1.0176l0.05469-0.90625c0.129-0.629 0.11023-1.8128 1.2402-0.92578 0.48-0.427 0.33064-0.98211 0.18164-1.5371l-0.27734 0.07422c-0.832 0.223-1.74 0.16874-1.998 1.4277l-0.12695 0.6289c-0.407 0.704-0.88811 1.1292-1.0371 0.57422s-0.92569-1.2364-1.0547-0.60742-0.94214 2.0359-1.8691 0.79687l0.12891-0.6289c0.054-0.907 0.38703-1.889-0.66797-2.498 0 0-0.22332-0.83225 0.05469-0.90625l1.3867-0.37305c-0.65-1.313-0.94575-2.4218-0.59375-2.2188s0.62825 0.12869 0.90625 0.05469l-0.07421-0.27734c-0.31701-2.294-2.4088-2.3309-3.1328-3.9219 0 0-0.83281 0.22496-0.75781 0.50196l-0.05469 0.90625c-0.054 0.907-0.25659 1.2603-0.68359 0.77929-0.148-0.555-1.6867-0.7389-1.3887 0.3711 0.223 0.832-0.51463 2.5178-1.0156 1.7598-0.5-0.758 0.27161-4.5345-0.02539-5.6445l-0.77734-0.68359c-0.778-0.684-0.29732-1.111-0.44532-1.666-0.22299-0.833-0.37242-1.388-0.98242-0.33203-0.203 0.352-0.83203 0.22461-0.83203 0.22461-0.149-0.555-0.64831-1.314-0.44531-1.666 0.406-0.704 1.3118-0.65067 0.38476-1.8887-0.852-0.962-1.1829 0.0217-1.4609 0.09571l-0.27735 0.07226c-0.352-0.203-0.62947-0.12727-0.48046 0.42774 0.14899 0.55499 0.24284 2.0168-0.03516 2.0918-0.426-0.481-0.65017-1.3139-1.0762-1.7949l-0.14844-0.55469c-0.223-0.833-0.01997-1.1835 0.33203-0.98047s1.238-0.92717 1.793-1.0762l0.63086 0.12891c1.408 0.813 0.05437-0.90764 0.60937-1.0566 0.277-0.074 0.48069-0.42644 0.55469-0.14844 1.333 0.535 1.5354 0.18466 1.4414-1.2773l-0.07422-0.2793c0.203-0.351-0.01844-1.1835-0.64844-1.3125-0.426-0.48-1.9086-1.5711-2.1856-1.4961-0.278 0.074-1.3888 0.37165-1.5918 0.72265-0.203 0.352-1.0894 1.4823-1.4414 1.2793s-1.0018-1.5152-0.79883-1.8672 0.73828-1.6854 0.23828-2.4434c-0.427-0.481 1.144-2.3884 1.625-2.8144 0.48-0.426 0.25661-1.2593-1.1504-2.0723l1.0176-1.7598-0.07617-0.27735c0.258-1.259-1.4255-1.9972-1.0195-2.7012 0.962-0.853 0.66236-1.963 1.0684-2.666 0.684-0.779 1.1652-1.2048 0.03515-2.0918-0.074-0.277 0.33194-0.98038 0.46094-1.6094l0.05469-0.9082-0.09375-1.4609c0.183-1.536 0.3648-3.0739 0.2168-3.6289-0.149-0.555 1.2383-0.92578 1.2383-0.92578 0.278-0.074 0.05534-0.90585-0.72266-1.5898l-0.07422-0.27929c0.184-1.536-0.61495-3.4031 0.62305-4.3301 0.481-0.426 0.33159-0.98211 0.18359-1.5371-0.095-1.462 0.08883-2.9974 0.54883-4.6074 0.203-0.352 0.05664-0.90821 0.05664-0.90821-1.76-1.016-0.79867-1.8682-0.26367-3.2012 0.129-0.63 0.60894-1.0544 0.46094-1.6094l-0.44727-1.666c1.036-0.575 1.5704-1.9076 1.2734-3.0176-0.298-1.11-0.76238-3.9612-0.48438-4.0352l0.27539-0.07422s0.0764 0.27864 0.1504 0.55664l0.22265 0.83203c0.02 1.184 1.0553 0.60961 2.0703-1.1504l-1.7051-1.9238c-0.778-0.683 0.48176-0.426 0.75976-0.5l1.0352-0.57422c-0.371-1.388-0.39094-2.5717 0.16406-2.7207 0.555-0.148 1.9412-0.52083 1.8672-0.79883 0 0-0.42547-0.48003-0.98047-0.33203-0.555 0.149-2.092-0.0345-2.166-0.3125-0.074-0.277-0.09418-1.4618 0.25782-1.2578 0.277-0.075 1.1102-0.29722 1.0352-0.57422-0.074-0.278-0.02018-1.1858 0.25782-1.2598 0.277-0.075 0.48003-0.42547 0.33203-0.98047-1.11 0.297-1.61-0.46157-1-1.5176l0.88671-1.1289c-0.01999-1.184-0.2632-3.2017-0.2832-4.3867l-0.01953-1.1836-0.0957-1.4629c0.46-1.61 0.79275-2.5904 1.2188-2.1094l0.35156 0.20313 0.63086 0.1289c0.629 0.129 0.75825-0.50208 0.40625-0.70508-0.704-0.406-2.2596-1.773-2.0566-2.125s0.7929-2.5931 1.2539-4.2031l-0.59571-2.2188-0.52148-1.9434c0.684-0.778 0.86719-2.3143 0.36719-3.0723l0.1289-0.63085c-0.094-1.462 0.71749-2.8682 0.27149-4.5332 0.277-0.075 0.40637-0.70464 0.60937-1.0566-0.074-0.277-0.37175-1.3859-0.09375-1.4609 0.277-0.074 0.88772-1.1307 0.38672-1.8887l-0.5-0.75781-0.50195-0.75781c-0.575-1.036-0.59385-2.2196-0.46485-2.8496 0.406-0.703 1.4762-3.3702 1.6602-4.9062l-0.57617-1.0371c-0.426-0.48-0.64888-1.3122-0.79688-1.8672 0.129-0.629 0.96085-0.85242 1.0898-1.4824 0.129-0.629-0.64905-1.3125-0.87305-2.1445-0.148-0.556 0.18416-1.5368 0.03516-2.0918l0.05273-0.9082c-0.297-1.11-0.66936-2.4958-0.81836-3.0508-0.148-0.555 0.86697-2.3148 0.79297-2.5918-0.074-0.278-0.16838-1.7415 0.51562-2.5195l0.98243 0.33203 0.27734-0.07227c0.332-0.981 0.31142-2.1663-0.39258-2.5723l-0.35156-0.20313s-0.33103 0.98066-0.83203 0.22266l-0.42578-0.48047c-0.501-0.758-0.44758-1.6654 0.10742-1.8144 0.555-0.148 2.2213-0.59344 2.0723-1.1484-0.149-0.556-0.44578-1.6674-0.42578-0.48242l-0.83398 0.22461c-0.277 0.074-1.8131-0.1095-2.1641-0.3125l-0.22461-0.83399c0.555-0.148 1.443-1.2767 2.127-2.0547l-1.2051-1.166c-0.352-0.203-0.16794-1.7387 0.16406-2.7207 0.258-1.258 0.86571-2.314 0.84571-3.498-0.02-1.185 0.60984-1.0564 1.0898-1.4824 0.278-0.075 0.4822-0.42513 0.4082-0.70313-0.075-0.277-0.14995-0.55481-0.50195-0.75781s-0.90581-0.05481-1.2578-0.25781c-0.351-0.203-0.35153-0.20455-0.01953-1.1856l0.40625-0.70312c-0.02-1.184-0.24371-2.0177-0.59571-2.2207-0.278 0.074-0.79779-1.8674-0.96679-3.6074l1.5176-1.002 0.27735-0.07227c-0.04834-0.18004-0.04404-0.28942-0.02149-0.36328l-0.90625-0.87695c0.352 0.203 0.62925 0.12969 0.90625 0.05469l1.0371-0.57618c1.13 0.887 2.0358 0.94216 2.0898 0.03516l0.1289-0.62891c-0.074-0.278-0.22253-0.83159-0.01953-1.1836 1.794-1.075 0.6645-1.9618-0.1875-2.9238l-0.35156-0.20312c-0.149-0.555-0.35342-0.20322-0.48242 0.42578l-0.12891 0.6289c-0.515 2.517-0.51403 2.5182-2.957 2.2812l-0.63086-0.1289c-0.555 0.149-0.98078-0.33324-0.92578-1.2402l-0.14844-0.55468-0.14843-0.55469c-0.42601-0.481-0.1491-0.55491 0.1289-0.62891l0.27734-0.07617c0.832-0.223 1.6979-2.5367 0.91993-3.2207l-0.92578-1.2383c-0.649-1.313-1.3729-2.9039-1.1699-3.2559 0.204-0.351-1.0755-1.7942-1.0215-2.7012l-0.22266-0.83203c-0.074-0.277 0.12925-0.62812 0.40625-0.70312 1.111-0.297 0.53638-1.3344 0.10938-1.8144-0.297-1.11-0.98211-0.3316-1.5371-0.1836 0 0-0.22197-0.83128-0.16797-1.7383 0.055-0.907 0.9947-2.9448 0.3457-4.2578l-0.29687-1.1094-0.22266-0.83398c0.332-0.981 0.38628-1.8866 0.73828-1.6836 0 0 0.60824-1.0553 0.36524-3.0723l-0.77735-0.68555-1.2031-1.1621c0.257-1.259 0.10839-1.8148-0.72461-1.5918-0.758 0.5-2.1869-1.4965-1.6309-1.6445 0.629 0.12901 2.1453-0.8732 1.5703-1.9082-0.297-1.11-2.0753-3.3104-1.9473-3.9394 0.129-0.629 0.51618-2.5191 0.36718-3.0742-0.426-0.4807-2.6671-1.0703-3.3711-1.4766-0.704-0.4063-2.6658-1.0686-2.5918-0.79102 0.074 0.2775-0.68337 0.77748-1.1094 0.29688l-0.15039-0.55469c-0.223-0.8325-0.37122-1.3886-1.0742-1.7949-0.704-0.4063-0.70359-0.4051-0.68359 0.7793l0.03906 2.3672c-2.166-0.312-4.2557-0.34578-4.5332-0.27148 0.243 2.017-0.61068 1.0565-1.5176 1.002l-1.2578-0.25781c-1.4075-0.8126-2.7419-1.3472-2.8906-1.9023l-0.074218-0.27734c-0.1487-0.555-0.37081-1.3894-1.1289-0.88867-1.1101 0.2974-1.7401 0.16909-1.2793-1.4414l0.20312-0.35156c-0.7781-0.6838-1.2052-1.1646-1.334-0.53516s-0.66372 1.963-1.0156 1.7598c-0.3518-0.2031-1.0548-0.60997-1.1836 0.019532l0.70312 0.40625c0.7037 0.4063 1.4078 0.81227 1.834 1.293l0.074219 0.27734c-0.2031 0.3519-0.48031 0.42765-0.75781 0.50195-0.3519-0.2031-0.77701-0.68557-1.1289-0.88867-0.3519-0.2032-0.90805-0.052915-1.1855 0.021485-0.2775 0.0743-0.40594 0.70286-0.96094 0.85156l-0.62891-0.12891c0.1832-1.5363-1.3332-0.53461-1.9082-1.5703-0.5205-1.9426-2.335-2.0508-3.3906-2.6602-0.7037-0.4064-1.408-0.81359-2.2949 0.31641l-0.68359 0.77734c-1.4619 0.0943-2.4982 0.66943-2.627 1.2988s0.67 2.4977 0.4668 2.8496l-0.27734 0.074218c-0.6294-0.1289-1.0562-0.60914-1.4824-1.0898-0.3519-0.2031-0.62883-0.12924-0.83203 0.22266l-1.1641 1.2051c-0.9069-0.0544-1.6851-0.73781-1.9082-1.5703-0.2231-0.8326-0.46682-2.8498-0.66992-2.498-0.2032 0.3519-1.535-0.18378-1.8125-0.10938l-0.12891 0.62891-0.12891 0.63086c-0.4807 0.4262-0.46122 1.6108-0.51562 2.5176l-0.20312 0.35156c-0.1288 0.6293-0.96081 0.8531-1.4414 1.2793-0.4807 0.4263-0.53508 1.3316-0.73828 1.6836l-0.20312 0.35351c-0.2032 0.351-0.63034-0.13033-1.0566-0.61133l-0.62891-0.1289c-0.2775 0.075-0.57411-1.0343-0.44531-1.6641 0.1288-0.6293 0.60948-1.0561 0.73828-1.6855-0.0744-0.2776-0.57584-1.0351-0.92774-1.2383l-0.22266-0.83203c0.6293 0.1287 1.1093-0.29849 1.3125-0.65039 0.2031-0.3519-0.24362-2.0174-0.66992-2.498-0.7037-0.4063-2.3885-1.1446-2.666-1.0703-0.2775 0.0744-1.3865 0.37336-1.5352-0.18164l0.53516-1.334c-0.6493-1.3131-1.0764-1.7934-0.92773-1.2383l-0.12891 0.62891c-0.1288 0.6293-0.034063 2.0921-1.1641 1.2051 0 0-0.3318 0.98005-0.8125 1.4062-0.2031 0.3519-1.0351 0.57643-1.1094 0.29883l-0.79883-1.8691c-1.3331-0.5351-2.3887-1.1445-2.3887-1.1445s0.12932-0.62868-0.29688-1.1094c-0.4263-0.4807-1.1504-2.0717-0.74414-2.7754 0.4063-0.7038 1.2739-3.0191 0.77344-3.7773-0.5006-0.7582-2.7205-0.16287-3.4043 0.61523l-0.63086-0.12891-0.62891-0.12891c-0.07351-0.042437-0.13364-0.10697-0.18945-0.17773l0.48633 1.2891c0.1487 0.555 1.3883-0.3718 1.4082 0.8125l0.14844 0.55469c-0.4806 0.4262-0.88664 1.1306-1.0898 1.4824 0.0744 0.2776-0.054925 0.90618 0.29688 1.1094l0.27734-0.074218 0.2793-0.074219c0.2775-0.0744 0.55461-0.14859 0.62891 0.12891l0.074218 0.27734-0.054687 0.90625c-1.6253 2.815-2.8648 3.7415-2.7559 1.9277l0.18359-1.5352 0.10938-1.8145c-0.8724-2.1458-0.98609-4.7917-0.52539-6.4023l0.29687 0.78711c-0.11128-0.7416 0.1269-1.793 0.71875-2.5469l-1.7598-1.0156 0.054687-0.90625c1.3875-0.3718 0.66435-1.9622 0.71875-2.8691l0.052735-0.9082c0.6294 0.1288 1.0372-0.57372 1.166-1.2031l-0.15039-0.55664-0.59375-2.2188c0.555-0.1488 1.6655-0.44682 2.498-0.66992 0.8326-0.2231 1.923-1.7048 0.79297-2.5918l-0.7793-0.68359s-0.55461 0.1482-0.75781 0.5l-0.12891 0.62891c-0.0544 0.9069-0.25756 1.2597-0.53516 1.334-0.3518-0.2031-1.109 0.29695-1.4609 0.09375-0.0743-0.2775-0.65055-1.3124-0.37305-1.3867 0.2775-0.0744 0.96128-0.85344 0.60938-1.0566-0.3519-0.2031-1.4062-0.81122-1.8125-0.10742-0.4063 0.7037-1.7749 2.26-2.2012 1.7793-0.4262-0.4806-0.16766-1.7405-0.72266-1.5918-0.28728 0.077022-0.92632 1.2042-1.3926 2.293 0.38132-0.20351 0.94288 0.028374 1.1543 0.15039l0.98047 0.33203c-0.332 0.9813-0.38485 1.8885-0.31055 2.166 0.3519 0.2031 0.85188 0.96068 0.29688 1.1094l-0.55469 0.14844c-0.2031 0.3519-0.12932 0.63063 0.29688 1.1113l0.35156 0.20312c0.3519 0.2032 0.7049 0.40609 0.7793 0.68359l0.22266 0.83203c0.2231 0.8326-0.035182 2.0915-0.23828 2.4434-0.4807 0.4262-1.7399 0.16804-2.0918-0.035156s-0.99998-1.5153-0.79688-1.8672c0.2032-0.3518 0.86583-2.3141 0.36523-3.0723s-2.0754-3.31-2.6504-4.3457l0.054688-0.9082c0.0544-0.9069 0.46037-1.6109 1.293-1.834 0.555-0.1487 0.7574-0.49974 1.3125-0.64844l0.27734-0.074219c0.1288-0.6293-0.019556-1.1838-0.22266-0.83203-0.4807 0.4262-1.6656 0.44554-2.0918-0.035156s0.29263-3.3497 0.64453-3.1465l0.29687 1.1094c-0.0544 0.9068 0.29844 1.11 1.0566 0.60938l0.12891-0.62891 0.60938-1.0566c0.5351-1.3331 0.7912-2.5915 0.7168-2.8691-0.0744-0.2775-0.16838-1.7399 0.38672-1.8887 0.555-0.1487 1.8693-0.79672 1.7949-1.0742-0.3518-0.2031-1.1109 0.29744-1.334-0.53516l-0.29688-1.1094c0.6293 0.1288 1.1093-0.29859 1.3125-0.65039 0.2031-0.3519-0.019449-1.1834-0.09375-1.4609 0 0-1.4622 0.093125-2.5723 0.39062l-0.64844-1.3125-0.57617-1.0371c0.6094-1.0556 0.59062-2.2397 0.015624-3.2754l-0.7793-0.68359-0.35156-0.20312c-0.1487-0.555 0.054375-0.90599 0.60938-1.0547l0.55469-0.14844c0.3518 0.2031 0.758-0.5013 0.8125-1.4082l0.054687-0.90625c0.0544-0.9069-0.16745-1.74-0.59375-2.2207-0.3518-0.2031-0.50203-0.75748-0.29883-1.1094l0.58984-2.2402c-0.8524-0.9614-1.7579-1.0161-1.8867-0.38672l-0.12891 0.62891s-0.27914 0.074037-0.55664 0.14844c0 0-0.35138-0.20287-0.42578-0.48047l-0.019531-1.1836c0.6838-0.7781 1.443-1.2793 1.7949-1.0762 0.4262 0.4808 2.0357 0.94203 1.7383-0.16797l-0.14844-0.55469-0.29688-1.1113c0.4062-0.7038 0.73682-1.6837 0.10742-1.8125-0.3518-0.2032-1.2789-1.4426-1.2988-2.627-0.015671-0.9327 1.2805-2.3994 1.4238-3.4531-0.33515-0.036256-0.68495-0.4542-0.87305-1.1562l-0.074218-0.27734c-0.3518-0.2031-0.98235-0.33237-1.1855 0.019531l0.076171 0.27734c-0.0544 0.9069-0.59106 2.2402-1.5723 1.9082l-1.6836-0.73828c-0.5351 1.3331-1.072 2.6677-1.627 2.8164-0.2032 0.3519-1.3864 0.37156-1.6094-0.46094-0.047356-0.17673-0.07858-0.33567-0.125-0.51953-0.199 1.1826-0.81141 2.8525-1.0195 2.9082-0.2775 0.0744-0.66466 1.9626-0.16406 2.7207 0.5006 0.7582-0.64325 3.1465 0.060547 3.5527 0.5005 0.7582-0.97578 4.1285 0.22852 5.293l-1.3672 1.5566-0.20508 0.35156c0.2974 1.1101-0.1088 1.8125-0.8125 1.4062l-0.27734 0.074219c-0.555 0.1487-1.1833 0.020182-1.1289-0.88672-0.0943-1.4619 0.62893 0.12924 0.83203-0.22266 1.3677-1.5561 1.2734-3.0183-0.30273-5.5703l-0.64844-1.3125c0.7037 0.4063 1.8121 0.10802 2.5703-0.39258l-1.1289-0.88672c-0.3519-0.2032-0.85325-0.96052-1.002-1.5156-0.0744-0.2775-0.22239-0.83367-0.37109-1.3887l0.054687-0.90625c-0.4262-0.4806-1.2047-1.1641-1.5566-1.3672-0.3519-0.2031-0.92617-1.2397-0.16797-1.7402l0.98047 0.33203c0.6294 0.1287 1.0358-0.57383 0.53516-1.332-0.5749-1.0357-1.076-1.794-0.81836-3.0527 0.3319-0.9813-0.49958-0.75964-0.92578-1.2402-0.4263-0.4808-0.25883 1.2601-1.1113 0.29883-0.0743-0.2775 0.054769-0.90805-0.019531-1.1855-0.0744-0.2775-0.14844-0.55469-0.14844-0.55469-0.2775 0.0744-0.62909-0.12916-0.55469 0.14844l-0.33203 0.98242c-0.3319 0.9813-0.73776 1.6837-1.1641 1.2031-0.4262-0.4807-1.5563-1.3675-2.1113-1.2188-0.555 0.1488-2.0175 0.24268-1.8887-0.38672 0.1288-0.6293-0.24193-2.0157-0.51953-1.9414zm23.158 4.4043c0.19475 0.021069 0.38583-0.085122 0.53516-0.34375l-0.70508-0.40625c0.18117 0.20429 0.20859 0.46565 0.16992 0.75zm-0.76953 44.459c-0.22695 0.12112-0.37841 0.41296-0.36133 0.96875 0.095169-0.30119 0.2143-0.62542 0.36133-0.96875zm-0.36133 0.96875c-0.18609 0.58892-0.25553 1.0487-0.054688 1.0898l0.052735-0.90625c-0.007026-0.072477 0.003943-0.11883 0.001953-0.18359zm6.418 12.715c0.038077 0.25374 0.11432 0.47032 0.23633 0.625l-0.23633-0.625zm76.545 64.809 0.29883 0.28906c-0.10066-0.37563-0.25185-0.44288-0.29883-0.28906zm3.2402 241.83c0.09444 0.15354 0.16134 0.29493 0.24219 0.44336l0.04882-0.14258c-0.08887-0.10013-0.19588-0.19755-0.29101-0.30078zm85.166 106.32c0.01654 0.00428 0.0321 0.01222 0.04883 0.01562l0.27735-0.07421s-0.15907 0.03049-0.32618 0.05859zm-20.844 109.25c-0.13731 0.00598-0.27705 0.00537-0.4082-0.02148-0.24886-0.05064-0.48382-0.09449-0.71094-0.13282 0.23241 0.33749 0.40823 0.59967 0.61133 0.9043 0.17269-0.0252 0.31952-0.17894 0.45117-0.56836 0.01327-0.06466 0.03769-0.12076 0.05664-0.18164zm-82.812 45.342c0.51422 0.91633 0.45488 0.64712 0.43555-0.49805l-0.43555 0.49805zm-78.219-140.96c-0.10555-0.08833-0.22386-0.15346-0.36914-0.16211l-0.027344 0.13476c0.14652 0.02936 0.20938 0.03361 0.37891 0.06836l0.017578-0.04101zm-0.39648-0.02735c-0.94132-0.18863-1.4999-0.28071-1.4355-0.04101 0.0743 0.278 0.7242 1.5904 1.2793 1.4414l-0.074219-0.27734 0.23047-1.123zm-25.543-467.42c0.0035955-1.1541 0.011807-2.2199 0.021484-3.1914-0.16124 0.121-0.3009 0.24276-0.48047 0.36133l-1.1543 0.30859v0.19727c0.35153 0.005671 0.63194 0.066314 0.74805 0.19726 0.21155 0.23858 0.53804 1.1813 0.86523 2.127zm28.805-16.467c-0.17044-0.074149-0.046759 0.47631 0.097656 1.0488 0.06577-0.39242 0.086801-0.73207 0.03125-0.93945-0.053275-0.060075-0.096685-0.095358-0.12891-0.10938zm-10.725 0.76758c0.13504 9.86e-4 0.25385 0.025397 0.3418 0.076172l0.14844 0.55469c0.1487 0.555 0.019606 1.1852-0.18359 1.5371-0.3319 0.9812-0.73831 1.6847-1.0703 2.666l-0.20313 0.35156c-0.7582 0.5006-1.1094 0.29721-0.90625-0.054688 0.1288-0.6294 0.38706-1.8867 0.035157-2.0898-0.0744-0.2776 0.032972-2.0914 0.51367-2.5176 0.36045-0.31965 0.91911-0.5264 1.3242-0.52344zm13.428 3.9219c0.055745 0.004229 0.1064 0.017581 0.15039 0.042969l0.074219 0.27734-0.054687 0.9082c-0.1832 1.5363-0.94031 2.0354-2.0703 1.1484l0.20312-0.35156 0.054688-0.90625c0.59832-0.68084 1.2524-1.1487 1.6426-1.1191zm-1.082 5.4297c0.6294 0.1288 1.9626 0.66537 1.9082 1.5723l-0.12891 0.62891-0.33203 0.98047c0.7038 0.4062 1.482 1.0917 1.9082 1.5723l-0.12891 0.62891-0.25781 1.2578c-0.9069-0.0544-1.5901 0.7243-1.4414 1.2793s-0.44211 2.7941-0.070312 4.1816l-1.2383 0.92773 0.16797 1.7402 0.65039 1.3125c-0.5351 1.3332-1.4234 2.463-1.8496 1.9824-0.4262-0.4807-2.0354-0.9419-2.1641-0.3125-0.1288 0.6294 0.59472 2.221 1.8535 2.4785l1.6094 0.46094c0.6294 0.1288 1.1853-0.020181 1.1309 0.88672-0.1288 0.6294 0.093981 1.4625-0.38672 1.8887-0.2031 0.3519-1.035 0.5738-1.5156 1-0.4807 0.4263-0.5349 1.3338-0.8125 1.4082-1.3875 0.3718-0.22427-0.83391-0.57617-1.0371-0.0743-0.2775-0.35141-0.20135-0.62891-0.12695-0.4063 0.7038-1.1642 1.2027-1.293 1.832-0.3319 0.9813-0.66409 1.964-0.99609 2.9453-0.2031 0.3519-0.68344 0.77716-0.96094 0.85156-0.6294-0.1288-0.77935-0.68292-0.37305-1.3867-0.0744-0.2775-0.14826-0.55648-0.22266-0.83398-1.0556-0.6095-1.8337-1.2917-1.373-2.9023l0.33203-0.98242c0.2576-1.2588 0.66398-1.963 0.73828-1.6855 0.3519 0.2032 1.1856-0.0187 1.5176-1 0.3319-0.9812-0.006875-4.4605-0.85938-5.4219l-0.37109-1.3867-0.29688-1.1113c-0.8525-0.9613-1.3539-1.7187-1.002-1.5156 0.3519 0.2032 1.8689-0.79817 2.5527-1.5762l1.4062 0.8125c0.575 1.0356 1.4274 1.9964 1.9824 1.8477 0.2775-0.0743 1.3146-0.64862 1.0371-0.57422l-0.074219-0.27734c-0.575-1.0357-2.0912-0.034093-2.1855-1.4961 0.4063-0.7037 1.7924-1.0755 2.8281-1.6504 0.2775-0.0744 0.055287-0.90782-0.44531-1.666l-0.5-0.75781-0.50195-0.75781c-0.5006-0.7582-0.99992-1.5174-1.0742-1.7949-0.0744-0.2775 0.83169-0.22273 1.1836-0.019531l0.87305 2.1465 0.074219 0.27734c0.6294 0.1288 1.2389-0.92695 0.86719-2.3145-0.02-1.1845-1.1155-4.1638-0.56055-4.3125zm-17.559 7.1445c0.13357-0.021854 0.29085 0.011706 0.4668 0.11328l0.35156 0.20312c0.9812 0.3319 0.98034 0.3312 0.64844 1.3125-0.4063 0.7037-0.18151 1.5366-0.66211 1.9629l-0.40625 0.70312c-1.0357 0.5749-0.81341 1.4081 0.24219 2.0176l1.0547 0.60937c0.1487 0.555-0.25758 1.2592-0.73828 1.6855-0.4806 0.4262-2.2943 0.31669-2.7949-0.44141l-0.14844-0.55469-0.09375-1.4629c0.1832-1.5362 1.8833-4.0736 1.6602-4.9062-0.16725-0.62438 0.019216-1.1766 0.41992-1.2422zm-5.7676 1.8203c0.21743-0.021088 0.44329-0.007891 0.48047 0.13086l0.52148 1.9434c1.3876-0.3718 2.0155-0.24258 1.8867 0.38672l-0.27734 0.074218-1.1836 0.019532c-1.1844 0.019899-2.3144-0.86636-1.9824-1.8477l0.12891-0.62891s0.20835-0.057037 0.42578-0.078125zm-1.1914 3.7305c0.24484-0.009825 0.46125 0.071653 0.62109 0.25195 0.42623 0.4806 0.9473 2.4236 0.74414 2.7754-0.20315 0.3519-1.0894 1.481-1.3125 0.64844l0.20312-0.35156c0.12881-0.6294 0.25631-1.2595-0.16992-1.7402l-1.4062-0.8125c0.42738-0.48638 0.91224-0.75511 1.3203-0.77148zm3.6191 3.3867c0.3614-0.038734 0.82298 0.30192 1.1699 0.20898 1.1844-0.02 0.92747 1.2399 1.0762 1.7949 0.8524 0.9613 0.57474 1.0361-0.66406 1.9629l-0.48047 0.42578c-0.4806 0.4262-0.75781 0.5-0.75781 0.5s-0.14833-0.55419-0.019531-1.1836c0.2032-0.3518-0.16935-1.7407-1.002-1.5176l-0.55469 0.15039c-0.27751 0.0743-0.42565-0.48226-0.5-0.75976-0.07436-0.2775-0.1486-0.55461 0.12891-0.62891 0.27751-0.074399 1.1094-0.29688 1.1094-0.29687 0.0966-0.47205 0.2773-0.63301 0.49414-0.65625zm-2.2109 9.7188c0.55868 0.003703 1.0749 0.47736 1.3945 0.83789l0.7793 0.68359c0.9268 1.2389 1.2248 2.3491 0.74414 2.7754-0.17443 0.15466-1.0841 0.072576-2.1113-0.10742l-0.054688-0.20312-0.14844-0.55664c0.1288-0.6293-0.29866-1.1096-0.57617-1.0352-0.55502 0.1487-1.6855-0.73755-1.3535-1.7188l0.75977-0.50195c0.18954-0.12512 0.38018-0.17506 0.56641-0.17383zm-2.4707 3.0645 0.50195 0.44141c-0.53333-0.1886-0.8141-0.35775-0.50195-0.44141zm3.1543 2.2461c0.42166 0.074316 0.811 0.3407 0.86523 0.54297l0.074218 0.27734 0.074219 0.27734c-0.2032 0.3519-0.4059 0.70482-0.96094 0.85352-0.48067 0.4262-2.0357-0.94096-1.2031-1.1641 0.47787-0.12806 0.89983-0.44049 1.1504-0.78711zm18.365 0.22656c0.15081-0.01603 0.35525 0.068378 0.61914 0.2207l1.0547 0.60938c0.0199 1.1844-0.034663 2.0917-0.66406 1.9629-0.3518-0.2031-1.4611 0.093593-1.3867 0.37109 0.074301 0.2775-0.86752 2.3144-0.51562 2.5176 0.0743 0.2775-0.31188 2.167-1.5508 3.0938l0.87305 2.1445 0.29688 1.1113c-0.6294-0.1288-0.83271 0.22261-0.12891 0.62891 0.7037 0.4063 0.18766 2.9236-0.089844 2.998l-0.35156-0.20312c-0.4263-0.4807-0.64802-1.3143-1.0742-1.7949-0.4262-0.4807-1.3338-0.535-1.4082-0.8125l-0.14844-0.55469c0.1288-0.6295 0.10956-1.8123 0.035156-2.0898-0.1487-0.555 0.73808-1.6868 1.4219-2.4648 0.4063-0.7038 2.8092-2.8346 1.6992-2.5371l-0.85352-0.96094c-0.0744-0.2775 0.25799-1.2596 0.18359-1.5371-0.1487-0.555-0.29669-1.1092-0.37109-1.3867l0.12891-0.62891c0.4063-0.7038 0.96075-0.85221 0.90625 0.054687l0.074219 0.27734c0.0743 0.2775-0.68424 0.77763 0.22266 0.83203 0.2775-0.0743 0.48227-0.4256 0.75977-0.5l-0.076172-0.27734c-0.012438-0.74019 0.092398-1.0475 0.34375-1.0742zm2.6133 4.6133c0.24998 0.1003 0.70925 0.98073 1.252 2.1738l0.09375 1.4609 0.14844 0.55664c-0.7581 0.5006-1.3123 0.64841-1.6641 0.44531l-0.074219-0.27734c-0.0199-1.1844-1.0562-0.60914-1.4824-1.0898l-0.35156-0.20312c-0.1487-0.555 0.46081-1.6108 0.94141-2.0371l0.96094-0.85352c0.0322-0.15735 0.092456-0.20922 0.17578-0.17578zm-24.563 2.5527c0.69692 0.081671 2.1791 1.6043 1.8887 2.4629-0.05442 0.9069-0.96214 0.85177-1.7402 0.16797l-0.77734-0.68359-0.074219-0.27734c0.12878-0.6295 0.25778-1.2594 0.46094-1.6113 0.060084-0.053275 0.14263-0.070261 0.24219-0.058594zm26.355 4.377c0.058209 0.013452 0.11469 0.05124 0.16797 0.11133l0.074219 0.27734c-0.1089 1.8137-1.9775 2.6118-1.6602 4.9062 0 0-0.55453 0.14826-0.83203 0.22266-1.0556-0.6094 0.3856-1.8887-0.5957-2.2207l-0.14844-0.55469 1.7402-0.16797c0.33801-1.6522 0.84644-2.6684 1.2539-2.5742zm-21.107 0.042968c0.13124-0.030515 0.28015-0.0322 0.4375 0l0.35156 0.20312c1.2043 1.1645 1.0213 2.7002 0.76367 3.959l-0.53516 1.334c-1.4619 0.0943-2.1662-0.31198-1.6855-0.73828l0.27734-0.074219c1.0357-0.575 0.81294-1.4077 0.58984-2.2402-0.1487-0.555-0.50169-0.75935-0.65039-1.3145l-0.074219-0.27734c-0.11152-0.41625 0.13166-0.76002 0.52539-0.85156zm29.502 3.3945c0.2985-0.024211 0.59408 0.034618 0.75391 0.21484 0.4262 0.4807 0.37096 1.3879 0.039063 2.3691l-0.40625 0.70312c-0.2032 0.3518-0.92633-1.2374-0.83203 0.22461 0.0199 1.1843-0.25724 1.2579-0.96094 0.85156-0.3519-0.2031-1.0561-0.60914-1.4824-1.0898-0.0743-0.2775 0.12849-0.62864 0.68359-0.77734 0.555-0.1487 1.4418-1.279 1.293-1.834-0.092938-0.34694 0.4146-0.62176 0.91211-0.66211zm-13.846 2.3418c0.555-0.1487 2.1108 1.219 2.7402 1.3477 0.3518 0.2032 0.85338 0.96216 0.52148 1.9434l-1.334-0.53516c-0.7038-0.4062-0.98198-0.33146-1.2051-1.1641-0.223-0.8325-0.77711-0.68352-1.1289-0.88672-0.0744-0.2775 0.12875-0.63068 0.40625-0.70508zm-2.168 0.013672c0.45542-3.9e-5 0.79958 0.42844 0.92969 0.91406l0.14844 0.55469 0.074219 0.27734c-0.1288 0.6294-0.33136 0.98257-1.0352 0.57617-0.9069-0.0544-0.87346-2.1462-0.31836-2.2949 0.069375-0.018587 0.13611-0.027338 0.20117-0.027344zm15.146 5.1348 0.63086 0.12891c0.2775-0.0744 0.57422 1.0352 0.57422 1.0352l-0.40625 0.70508c-0.887 1.13-1.7204 1.3522-1.666 0.44531l-0.14844-0.55469-0.14844-0.55469c-0.1487-0.555 0.25716-1.2596 1.1641-1.2051zm-35.328 0.24609c0.98127 0.332 0.92601 1.2395 0.24219 2.0176l-0.12891 0.62891c-0.05442 0.907 0.79839 1.8687 1.0215 2.7012 0.22307 0.8325 0.24389 2.017 0.18945 2.9238 0.07436 0.2775-0.83396 0.22232-1.0371 0.57422l-0.27734 0.074219c0.07437 0.2776 0.14993 0.55446 0.57617 1.0352 0.35187 0.2031 1.0747 1.7946 0.24219 2.0176l-0.55469 0.14844c-1.4619 0.094-1.8882-0.38552-1.7793-2.1992 0.12879-0.6295-0.29737-1.1109 0.53516-1.334 0.75819-0.5006 0.81306-1.4075 0.51562-2.5176-0.22307-0.8325 0.3855-1.8882-0.18945-2.9238-0.92682-1.2389 1.239-0.92695 0.86719-2.3145l-0.22266-0.83203zm5.2617 0.56055c0.1527 0.014851 0.27236 0.11219 0.32812 0.32031 0.1487 0.555 0.37141 1.3883-0.18359 1.5371-0.20317 0.3518-1.5895 0.72346-1.6094-0.46094 0.24895-0.7359 1.0068-1.441 1.4648-1.3965zm13.633 1.2695c0.69256 0.050234 1.9682 0.68569 1.8555 1.2363-0.2031 0.3519-0.68497 0.77739-1.3887 0.37109-0.3519-0.2031-1.2034-1.1636-0.72266-1.5898 0.069375-0.0186 0.15692-0.024754 0.25586-0.017578zm28.443 1.2383c0.23544-0.04275 0.5325 0.20423 0.67188 0.72461 0.2231 0.8325-0.23599 2.4414-0.58789 2.2383-0.3519-0.2032-0.79888-1.8665-0.39258-2.5703 0.0483-0.23602 0.16733-0.36693 0.30859-0.39258zm-27.627 4.3555c0.046386 0.006164 0.092731 0.021475 0.13672 0.046875l0.62891 0.12891c0.5006 0.7581 0.72458 1.5915 0.52148 1.9434l-0.27734 0.074219c-0.555 0.1487-0.83248 0.22219-0.60938 1.0547-0.2032 0.3519-0.75784 0.50162-0.96094 0.85352-0.4263-0.4807-0.095753-1.4622 0.31055-2.166l-0.22266-0.83203c-0.19521-0.72844 0.14795-1.1467 0.47266-1.1035zm14.701 0.011719c-0.41975 0.85359-0.76164 1.7413-1.0293 2.5977-0.055479 0.11594-0.088593 0.25478-0.12109 0.39062-0.007897 0.02755-0.017678 0.05654-0.025391 0.083984 0.00488-0.006359 0.008821-0.011264 0.013672-0.017578-0.067485 0.32013-0.097713 0.68244-0.089843 1.1484-0.064232 0.11127-0.16934 0.27133-0.26367 0.42188-0.15907 1.0166-0.14601 1.8567 0.099609 2.2988 0.5749 1.036 1.9285 2.7554 0.74414 2.7754l-0.9082-0.05469-0.5-0.75781 0.73828-1.6856c-0.9972 0.06412-1.2847-0.89217-1.0293-1.9746-0.66482-0.36067-0.33148-0.9887-0.21484-1.5586-0.0743-0.2775-0.42552-0.48211-0.57422-1.0371-0.1487-0.5551-0.37201-1.3868 0.68359-0.77734 0.3519 0.2032 0.90618 0.055025 1.1094-0.29688 0.4806-0.4263 0.6093-1.0564 0.8125-1.4082 0 0 0.27719-0.074137 0.55469-0.14844zm-2.3711 5.2266c0.06931 0.0376 0.13782 0.07413 0.23047 0.10547 0.18978-0.05129 0.4209-0.38132 0.625-0.70703 0.075887-0.48499 0.18535-1.003 0.33984-1.5527-0.1803 0.23495-0.288 0.35693-0.50391 0.65039-0.34651 0.47109-0.57237 0.99948-0.69141 1.5039zm-8.584-4.6484c0.672 0.048669 1.0993 1.0351 1.2324 2.2461-0.42391-0.6372-1.4356-1.0228-1.6738-0.95898 0.2231 0.8326 0.094244 1.4608-0.53516 1.332-0.9813-0.332 0.052972-0.90618-0.29883-1.1094l-0.074219-0.27734c-0.4262-0.4806 0.054119-0.90776 0.88672-1.1309 0.16415-0.081162 0.31952-0.11195 0.46289-0.10156zm-20.172 1.0508c0.11217 0.008868 0.23086 0.032719 0.35352 0.074219l0.37109 1.3867 0.37109 1.3887c-0.60946 1.0553-1.8881-0.38805-2.1855-1.498-0.19519-0.72844 0.30464-1.4136 1.0898-1.3516zm74.99 0.001953c0.2775-0.0744 0.22278 0.83307-0.38672 1.8887l-0.054687 0.90625-0.10742 1.8145c-0.7037-0.407-1.3532-1.7187-1.7051-1.9219-0.0744-0.2775 0.054456-0.90778 0.53516-1.334s1.4412-1.2792 1.7188-1.3535zm-43.936 0.10352c0.00138 0.009507-0.009756 0.03609-0.035156 0.080078l-0.080078 0.021484c0.056588-0.058094 0.11317-0.11576 0.11523-0.10156zm1.3809 0.18359c0.05637-0.015103 0.10054 0.00875 0.11914 0.078125l0.074219 0.2793c0.4263 0.4806 0.92747 1.238 1.0762 1.793-0.1288 0.6295-0.53484 1.3344-1.0898 1.4824-0.8326 0.223-0.68388 0.7766-0.73828 1.6836s-0.75935 0.50053-1.1855 0.01953l-0.70312-0.4043c0.0544-0.907 1.6251-2.8157 1.957-3.7969 0.040875-0.68018 0.32112-1.0895 0.49024-1.1348zm-10.988 1.7773c-0.003161 0.33317-0.018854 0.66799-0.066406 0.99805-0.01204 0.08358-0.017442 0.11057-0.029297 0.19141 0.12703 0.00487 0.27488 0.08765 0.45508 0.29101l0.62891 0.12696 0.27734-0.07422-0.8125 1.4082c-0.332 0.981-1.5505 3.0921-1.6992 2.5371l-0.70312-0.40625s-0.076091-0.27769-0.15039-0.55469c-0.0744-0.278-0.02005-1.1841 0.40625-0.70312 0.063881 0.23815 1.3093-2.4712 1.6934-3.8145zm-0.095703 1.1895c-0.17343-0.00665-0.30261 0.15003-0.37695 0.51367l-0.12891 0.6289c0.093754 0.34993 0.17606 0.69315 0.18164 0.99219 0.073864-0.49931 0.19203-1.2333 0.32422-2.1348zm-0.32422 2.1348c-0.017764 0.12009-0.028947 0.22554-0.041015 0.31836 0.029235-0.09739 0.043171-0.20285 0.041015-0.31836zm-0.041015 0.31836c-0.015123 0.05038-0.02129 0.10605-0.046875 0.15039l0.021484 0.08008c0.005496-0.0634 0.013529-0.13924 0.025391-0.23047zm-0.025391 0.23047c-0.017606 0.20311-0.013454 0.31361 0.052734 0.19922l-0.052734-0.19922zm-6.5703-2.1367c0.66248 0.07449 1.9118 0.84684 3.2734 2.043l-0.18359 1.5371 0.09375 1.4609c-0.6838 0.778-1.2933 1.8331-0.94141 2.0371 0.0744 0.277 0.29711 1.1092-0.18359 1.5352l-0.27734 0.07422-0.27734 0.07617c-0.3519-0.204-0.75818 0.4996-0.73828 1.6836 0.0199 1.185 0.060859 3.5532-0.49414 3.7012-0.1647 0.04421-0.34823 0.51315-0.52539 1.082-0.5356-1.1625-0.95635-2.17-1.1055-2.7266l0.60938-1.0547c0.2031-0.352 0.33221-0.98277 0.25781-1.2598l-0.14844-0.55468c-0.4262-0.481-0.29898-1.1086-0.021485-1.1836l0.12891-0.63086c0.054401-0.907 1.3674-1.5544 1.2188-2.1094l-0.51953-1.9434c1.1844-0.02 2.0159-0.24383 1.8672-0.79883s-0.79672-1.867-1.0742-1.793l-0.27734 0.07422c-0.2775 0.074-0.90786-0.05481-1.2598-0.25781l-0.14844-0.55469 0.48047-0.42578c0.069375-0.01863 0.15145-0.02236 0.24609-0.01172zm-19.436 0.33789c0.090125-0.08015 0.54512 0.57856 1.2402 1.5078l0.65039 1.3145-0.12891 0.6289c-0.27751 0.074-0.9082-0.05468-0.9082-0.05468-0.44616-1.665-0.77714-0.68482-1.2578-0.25782-0.27752 0.074-0.55633 0.14832-0.9082-0.05468l-0.074219-0.27735c0.1288-0.63 1.6449-1.6309 1.4219-2.4629-0.055768-0.20825-0.065198-0.31703-0.035156-0.34375zm1.8555 4.9141c0.62938 0.128 1.0544 0.60907 1.2031 1.1641-0.53761 0.35524-1.2804 0.47041-1.8438 0.6582l0.71484-1.5469-0.074219-0.27539zm24.281 0.86329c0.42418-0.0301 0.60244 0.4244 0.35352 1.1602-0.332 0.982-2.6814 2.2053-2.959 2.2793l-0.22266-0.83203c-0.2231-0.833-0.094243-1.461 0.53516-1.332 0.9812 0.332 1.1835-0.02061 1.5898-0.72461l0.20313-0.35157c0.18955-0.12525 0.35861-0.18918 0.5-0.19921zm-27.127 0.12304c0.052228-0.00238 0.10055 0.00783 0.14453 0.03321l1.5234 0.8789c0.010851-0.28042 0.081441-0.22405 0.1875 0.0625-0.014421 0.00742-0.027155 0.01573-0.041016 0.02344l0.060547 0.03516c0.0053258 0.01547 0.010091 0.02802 0.015625 0.04492-0.073539 0.15437-0.1323 0.30009-0.19727 0.44922-0.012968-0.18003-0.016547-0.31576-0.017578-0.4375-0.015159 0.01173-0.034834 0.0208-0.048828 0.0332l-0.48047 0.42773c-0.33195 0.981-0.66406 1.9629-0.66406 1.9629s-0.50122-0.75992-1.0762-1.7949l-0.22266-0.83203c-0.065061-0.24237 0.45081-0.87001 0.81641-0.88672zm1.6758 1.0898c0.042695-0.03306 0.087579-0.06337 0.13867-0.0918l-0.14648-0.08594c-0.0015237 0.03938 0.0073935 0.12827 0.0078125 0.17774zm0.87695 1.2734 0.50195 0.75782c-0.46076 1.61-0.64551 3.1459-0.125 5.0879 0.07436 0.278-0.33183 0.9822-0.8125 1.4082-0.52686 0.14049 9.223e-4 -3.7358-0.21484-6.0938 0.13616-0.54926 0.25157-1.0536 0.37305-1.0859l0.27734-0.07422zm16.846 6.082c0.23417-0.06277 0.31908 0.24829 0.48633 0.87304 0.035605 0.1328 0.072553 0.22056 0.10547 0.32813-0.32932 1.2521-0.57133 2.5868-0.41797 1.8379l-0.79883-1.8691c-0.0744-0.277 0.054531-0.90647 0.33203-0.98047 0.12018-0.1065 0.21491-0.16853 0.29297-0.18945zm-19.609 3.5801-0.55469 0.15039c-0.15318 0.04113-0.33574 0.06338-0.5293 0.07618 0.50599-0.15969 0.91773-0.26038 1.084-0.22657zm25.818 2.0059c0.8524 0.962 1.631 1.6438 1.3535 1.7188-0.2775 0.074-1.0348 0.57661-1.5898 0.72461l0.85156 0.96094c0.0743 0.277 0.019606 1.1851-0.18359 1.5371l-0.20312 0.35156c-0.555 0.149-1.6305-1.646-2.1855-1.498-0.555 0.149-0.0745-0.27625 0.8125-1.4062l0.60938-1.0566 0.53516-1.332zm-6.0215 1.5547c0.44563-0.15003 1.3036 3.3165 0.40234 4.1152-0.887 1.13-2.0714 1.1505-2.9238 0.18946l1.2402-0.92774c0.7582-0.501 0.73841-1.685 1.0703-2.666l0.12695-0.63086c0.025393-0.044 0.054275-0.07008 0.083984-0.08008zm-21.42 1.3555v2.3594c0.699-1.2193 1.1647-2.1218 0.5918-2.2383-0.17942-0.03677-0.38481-0.08473-0.5918-0.12109zm0 3.8672v3.0293c0.14838-0.31482 0.30803-0.59556 0.41406-0.77929l-0.074219-0.2793-0.33984-1.9707zm0 4.1211v2.4434c0.24668-0.15563 0.54513-0.30952 0.82617-0.55859 0.27751-0.074 0.40625-0.70313 0.40625-0.70313-0.07437-0.278-0.42564-0.48176-0.5-0.75977l-0.73242-0.42187zm26.938 0.53906c0.3518 0.203 0.92721 1.2396 1.2246 2.3496 0.15571 0.58117-1.3138 0.8598-2.9121 1.041-0.063101-0.06397-0.11694-0.13424-0.14062-0.22266-0.0744-0.278 0.40607-0.70573 0.48047-0.42773 1.1844-0.02 0.96138-0.8516 0.73828-1.6836-0.0744-0.278 0.12883-0.63042 0.33203-0.98242l0.27734-0.07422zm-6.0508 0.72852c0.2776-0.074 2.6666 1.0697 3.9453 2.5117 0.062309 0.06027 0.10648 0.11698 0.16211 0.17578-0.19779 0.02099-0.37988 0.03807-0.57617 0.05664l0.21094 0.12109c0.3519 0.203 0.77734 0.6836 0.77734 0.6836 0.070486-0.03914 0.10726-0.06953 0.1582-0.10352 0.35586 0.67499 0.15148 1.1229-0.49023 1.084l-0.98047-0.33203c-0.2775 0.075-0.4256-0.47981-0.5-0.75781l-0.074219-0.27734c0.075492-0.13084 0.15318-0.25118 0.23633-0.35352-0.90123 0.08015-1.7074 0.15195-2.0508 0.24414l0.09375 1.4629 0.16797 1.7383c-0.9812-0.332-1.4804-1.0888-1.3516-1.7188 0.4806-0.426 0.033072-2.0916 0.51367-2.5176 0.4807-0.426-0.44529-1.6656-0.24219-2.0176zm2.8691 2.8086c0.21562-0.01917 0.43656-0.04311 0.66211-0.06445l-0.14062-0.08203c-0.2211-0.12755-0.38093-0.0265-0.52148 0.14648zm-4.1914 5.5762c0.2775-0.074 3.6676 2.588 4.0195 2.791s0.019919 1.1846-0.73828 1.6856l-0.62891-0.12891-0.9082-0.05469c-1.0556-0.61-1.9079-1.572-2.0566-2.127-0.1488-0.555-0.2425-2.017 0.3125-2.166zm6.2598 3.3809c0.2775-0.074 0.70312 0.40625 0.70312 0.40625-0.1288 0.629-0.25774 1.2574-0.46094 1.6094l-0.12891 0.63086c0.0744 0.277 1.0764 1.7928 0.5957 2.2188-0.555 0.149-0.98208-0.33107-1.2051-1.1641l-0.22266-0.83203c-0.0744-0.278 0.44125-2.7941 0.71875-2.8691zm-6.291 9.4746c0.34008 0.02025 0.56426 0.23805 0.67578 0.6543l0.074219 0.27734c0.0744 0.277-0.12703 0.63021-0.052734 0.90821 0.2231 0.832 0.35125 0.20173 0.90625 0.05273l0.27734-0.07226c-0.0544 0.907-0.088203 2.9966 0.4668 2.8476s0.90625 0.05469 0.90625 0.05469c-0.2032 0.351-0.96078 0.85373-1.2383 0.92773-0.5551 0.149-2.8698-0.71825-4.2773-1.5312l0.73828-1.6855c0.1288-0.63 0.53511-1.3341 0.94141-2.0371l0.20312-0.35157c0.13875-0.03725 0.26554-0.05167 0.37891-0.04492zm-0.033203 6.3281c0.14806-0.00249 0.29968 0.01267 0.45703 0.04492l1.0566 0.61133c0.798 1.868 1.0942 2.9771 0.66797 2.4961s-1.6095-0.46008-1.7383 0.16992c-0.1288 0.629 0.81774 3.0511 1.1152 4.1621l0.019531 1.1836c0.0199 1.184-1.0348 0.57617-1.793 1.0762l-0.27734 0.07422-1.7793-2.1992c-0.0743-0.278 0.052759-0.90777 0.25586-1.2598 0.4063-0.704 1.1661-1.2035 1.498-2.1855 0.1288-0.629 0.10776-1.8146-0.24414-2.0176-0.7781-0.683-0.92601-1.2381-0.44531-1.6641 0.36045-0.31951 0.76285-0.48474 1.207-0.49219zm-0.54883 10.043c0.088069 0.38067 0.58412 1.1958 1.2793 2.125l0.021484 1.1836c0.0199 1.184-1.1114 0.29744-1.3145 0.64844-0.4063 0.704-0.10914 1.8142-0.58984 2.2402-0.8869 1.13-1.0014-1.5164-2.0371-0.9414-0.6294-0.129 0.40789-0.70357 0.96289-0.85157 0.26872-0.07263 1.1538-1.9977 1.6777-4.4043zm0.63477 12.039c0.021505 0.00714 0.037581 0.0258 0.046874 0.06055 0.4262 0.48-0.73831 1.6851-0.94141 2.0371l0.42578 0.48046 0.72461 1.5918c-0.8326 0.223-1.7211 1.3531-1.7012 2.5371l-0.96094 0.85156c-1.1845 0.02-1.6096-0.46028-0.92578-1.2383l-0.15039-0.55469 0.035156-2.0918c1.13 0.887 1.9632 0.66403 1.7402-0.16797-0.20916-0.78094 1.3844-3.613 1.707-3.5059zm105.47 153.53c0.23324 0.00549 0.46838 0.15129 0.65625 0.43554l0.5 0.75782c0.075 0.27699 0.14844 0.55468 0.14844 0.55468-1.387 0.372-0.46185 1.6112-0.58985 2.2402 0.074 0.277-0.48081 0.42695-0.75781 0.50195-0.63-0.129-1.3536-1.7206-1.2246-2.3496l0.33203-0.98242c0.16125-0.78625 0.54681-1.1674 0.93555-1.1582zm-2.0703 12.469c0.982 0.332-0.05252 0.90559 0.02148 1.1836 0.075 0.277 0.425 0.47981 0.5 0.75781 0.02 1.184 0.31638 2.2954-0.01562 3.2774l-0.33203 0.98046c-0.406 0.704-1.7932 1.0758-1.8672 0.79883-0.352-0.203-0.42566-0.48198-0.22266-0.83398 0.555-0.148 1.7384-0.16735 1.4414-1.2774s1.2183-2.1131-0.26367-3.2031c-0.426-0.48 0.10928-1.8116 0.73828-1.6836zm0.99219 9.252c0.278-0.075 0.9267 1.2385 1.0957 2.9785l0.0957 1.4609c0.074 0.277-0.48276 0.426-0.75976 0.5-0.352-0.203-0.5-0.75781-0.5-0.75781l0.1289-0.62891c0.406-0.704-0.22398-0.83315-1.334-0.53515l-0.3711-1.3867c-0.094-1.462 0.88654-1.1309 1.6445-1.6309zm2.25 6.0703c0.1047 0.00908 0.20496 0.0391 0.29296 0.08985 0.426 0.48099 0.57636 1.0352-0.18164 1.5352-1.036 0.575-0.61003 1.0562 0.16797 1.7402 0.075 0.277-0.75815 0.49921-1.0352 0.57421-0.278 0.074-0.57593-1.036-0.66993-2.498l0.60938-1.0547c0.15225-0.264 0.5023-0.41395 0.81641-0.38672zm-3.2148 6.9785s0.42695 0.48081 0.50195 0.75781c0 0-0.20542 0.35178-0.48242 0.42578-0.278 0.075-0.62868-0.12956-0.55468 0.14844l-1.0898 1.4824c0.52 1.942-0.16319 2.7216-1.3672 1.5566l0.73829-1.6856c0.129-0.629 0.5354-1.3331 0.9414-2.0371 0.203-0.352 0.7575-0.49943 1.3125-0.64843zm1.9512 1.4473c0.06939-0.01862 0.14638-0.00192 0.23438 0.04883 0.277-0.074 0.50139 0.7565 0.65039 1.3125 0.223 0.832 0.16872 1.7394-0.23828 2.4434-0.277 0.074-0.83172 0.22309-1.3867 0.37109-0.352-0.203-0.09645-1.4601 0.31055-2.1641l0.05468-0.9082c0.04125-0.68025 0.16683-1.0476 0.375-1.1035zm-0.38476 6.0938c0.25972-0.03701 0.52897 0.0018 0.79297 0.1543l-0.1836 1.5371-0.12695 0.62891c-0.055 0.90699-1.2398 0.92565-1.5918 0.72265s-0.57431-1.0351-0.44531-1.6641c0.096-0.47175 0.77553-1.2679 1.5547-1.3789zm-15.557 1.4551c0.18892-0.0105 0.43131 0.06417 0.69531 0.2168 0.778 0.683 1.0954 2.9787 0.81836 3.0527-0.278 0.075-1.6305-1.6446-1.8535-2.4766-0.13937-0.52063 0.02497-0.77547 0.33985-0.79297zm-6.127 33.033c0.44433-0.0075 0.93099 0.14202 1.459 0.44727l0.98047 0.33203c-0.59 2.24-1.1246 3.5721-1.4766 3.3691-0.352-0.204-0.37063-1.3865 0.10937-1.8125l-0.07422-0.2793-0.37305-1.3867c-1.036 0.575-1.461 0.09384-1.332-0.53516l0.27735-0.07422c0.13875-0.03725 0.28157-0.05805 0.42968-0.06055zm18.656 20.229c-0.03661 1.2404-0.08979 2.3279-0.14648 3.3691-0.35783 0.26359-0.56801 0.10621-0.29492-0.57422l0.25781-1.2598 0.18359-1.5352zm-5.3281 2.3203c0.278-0.074 3.1682 1.8271 2.4102 2.3281-0.887 1.13-1.8279 3.1664-1.7539 3.4434 0.074 0.278-0.13055 0.63129-0.68555 0.77929-0.555 0.149-1.5145 1.0012-0.81054 1.4082l0.70312 0.40625c0.352 0.203 0.426 0.48081 0.5 0.75781 0.074 0.278-0.40625 0.70312-0.40625 0.70312l-1.4824-1.0898c-1.313 0.649-2.2186 0.59419-2.0156 0.24219s0.66333-1.9614 0.23633-2.4414l0.83399-0.22461 0.27539-0.07422c0.556-0.148 0.40864-0.70225 0.05664-0.90625-0.352-0.203-1.1307-0.88728-0.92774-1.2383 0.203-0.352 0.68338-0.77964 0.60938-1.0566-0.075-0.278-0.22297-0.83247 0.33203-0.98047 0.555-0.149 1.868-0.79817 1.793-1.0762l-0.07422-0.27734-0.07422-0.27735c-0.075-0.277 0.20347-0.35178 0.48047-0.42578zm6.6289 1.1172c1.0865 0.34228 1.9971 1.0977 2.1289 1.5918l-0.6289-0.12891-0.40625 0.70508c-0.684 0.778-0.81294 1.4064-0.46094 1.6094 0.352 0.204 0.92719 1.2398-0.25781 1.2598l-0.96094 0.85156c0.04894-0.41029 0.0749-0.70486 0.11914-1.0918 0.07247-0.32639 0.12205-0.73603 0.1914-1.0742 0.12901-0.629 0.88729-1.1286 0.73829-1.6836l-0.52149-1.2852c0.02232-0.26828 0.04196-0.51756 0.0586-0.75391zm-21.666 2.4707c0.08211 6.4e-4 0.16786 0.02347 0.25586 0.07422 0.704 0.407-0.08919 2.9983-0.36719 3.0723-0.555 0.149-0.70278-0.40528-0.92578-1.2383 0.04725-0.79363 0.46234-1.9126 1.0371-1.9082zm19.332 1.6836c0.10645-0.01921 0.23703-0.01663 0.39453 0.01562l0.07422 0.27734c0.00311 0.00351 0.00476 0.00818 0.00781 0.01172-0.17645 1.028-0.38416 1.4628-0.61718 1.043l-0.14844-0.55469-0.07422-0.27734c-0.05625-0.2085 0.04392-0.45801 0.36328-0.51562zm0.33203 4.4609c0.36245-0.01343 0.68786 0.1095 0.77149 0.42188l0.22265 0.83008 0.22266 0.83398c-0.481 0.426-0.45998 1.6092 0.04102 2.3672l-0.20313 0.35351-0.73828 1.6836c-1.165 1.205-1.5513 3.0932-0.90235 4.4062-0.609 1.056-0.03454 2.0908 0.18946 2.9238l0.07422 0.27734c-0.203 0.352-0.83355 0.22253-1.1856 0.01953l-0.07422-0.27539-0.44531-1.666c0.109-1.814 0.4203-3.9802 1.0293-5.0352 0.332-0.982-1.872-3.662-2.502-3.791l-0.6289-0.1289c-0.278 0.074-0.50196-0.75782-0.50196-0.75782 0.204-0.352 0.4066-0.70334 0.6836-0.77734l0.9082 0.05274c0.981 0.33199 1.7392-0.16788 1.8672-0.79688-0.13938-0.52 0.56779-0.91901 1.1719-0.94141zm-15.859 4.8164c0.23236 0.03539 0.26697 0.58309 0.07422 1.5273l-0.05469 0.90625-0.05469 0.90821c0.297 1.11 0.24414 2.0176 0.24414 2.0176s-0.42773-0.48224-0.92773-1.2402c-0.149-0.555-0.05913-3.5535 0.42187-3.9805 0.12-0.1065 0.21942-0.15047 0.29688-0.13867zm7.3184 1.5059c0.16422-0.01153 0.33493-1e-3 0.49218 0.03125l0.62891 0.12891c0.277-0.074 0.35178 0.20246 0.42578 0.48046 0.074 0.277 0.14866 0.55504 0.22266 0.83204 0 0-0.20139 0.35121-0.27539 0.07421-0.779-0.684-0.90777-0.055-0.75977 0.5 0.427 0.481 1.1296 0.88814 1.5566 1.3692 0.426 0.48 0.44714 1.6656 0.24414 2.0176-0.481 0.426-0.90764-0.05632-1.0566-0.61133-0.074-0.277-0.62847-0.12803-0.98047-0.33203l-0.55468 0.14844c-0.833 0.223-0.70514-0.40481 0.25586-1.2578l-0.8711-2.1445-0.15039-0.55664c-0.11175-0.41625 0.32961-0.6451 0.82227-0.67969zm22.117 2.9023c0.33743 0.03666 0.69222 0.21971 1.0117 0.58008l0.22266 0.83399-0.33203 0.98046c-0.609 1.056-1.441 1.2794-2.293 0.31836l0.05469-0.9082 0.05468-0.90625c0.2075-0.61312 0.71887-0.95953 1.2812-0.89844zm0.76954 5.9824c0.12917 0.03325 0.25817 0.20754 0.34179 0.51954l0.15039 0.55468c0.371 1.388 0.01925 1.1863-1.2188 2.1133-0.481 0.426-0.98254-0.33246-1.1855 0.01954-0.129 0.629-0.53572 1.3337-0.38672 1.8887l0.24414 2.0156c-1.185 0.02-1.9636-0.66318-1.5566-1.3672l0.20312-0.35157c0.535-1.333 0.79213-2.5928 1.3281-3.9258 0.257-1.259 0.25608-1.2585 0.33008-0.98047 0.224 0.832 0.65085 1.3127 1.1308 0.88672l0.20313-0.35156c-0.0125-0.74 0.20073-1.0769 0.41602-1.0215zm-15.203 0.22461c1.259 0.258-0.05547 0.9056 0.01953 1.1836l0.57617 1.0371c0.02 1.184-0.71934 2.8685-1.4023 3.6465l-0.68359 0.77735-0.2793 0.07421s-0.57453-1.0344-0.51953-1.9414l0.48047-0.42578c0.962-0.853 0.94222-2.0379 1.1992-3.2969-0.074-0.277 0.33137-0.97969 0.60937-1.0547zm-8.2363 1.7305c0.2112-0.04445 0.48908 0.15928 0.89258 0.83203 0.074 0.278 0.70313 0.40625 0.70313 0.40625 1.036-0.574 1.888 0.38632 2.666 1.0703 0.148 0.555-0.46062 1.6108-1.0156 1.7598-0.481 0.426-0.55457 0.14888-0.35157-0.20312s-0.29773-1.1112-0.92773-1.2402c-0.907-0.054-2.8684-0.71809-2.9434-0.99609l0.20313-0.35156c0.25374-0.43938 0.42144-1.2033 0.77343-1.2774zm-82.922 3.8984c0.065771-0.01472 0.12398-0.0117 0.16797 0.01367-0.5351 1.333 0.03815 2.3695 1.0938 2.9785 0.2231 0.833-1.3119 0.64819-2.0156 0.24219-0.6294-0.129-0.85341-0.9618-0.72461-1.5918 0.1127-0.55038 1.0181-1.5395 1.4785-1.6426zm76.385 2.8008c0.20199-0.0263 0.3851 0.03492 0.4961 0.45117l0.07617 0.2793c-0.129 0.629-0.53506 1.3319-0.66406 1.9609l-0.1836 1.5371c-0.982-0.332-1.6305-1.646-1.5215-3.459l1.3125-0.65039 0.27734-0.07422c0.06925-0.0185 0.1397-0.03615 0.20703-0.04492zm21.811 1.0078c0.3596-0.02358 1.062 0.25235 1.9883 0.9336l-0.05469 0.90625 0.07422 0.27734c-0.684 0.778-1.0154 1.7598-1.7734 2.2598-0.48099 0.426-1.2597-0.25577-1.8887-0.38477-0.278 0.074-0.5-0.75781-0.5-0.75781-0.074-0.278 0.40682-0.70495 0.75782-0.50195l0.6289 0.1289c0.629 0.129 0.66463-1.9626 0.51563-2.5176-0.05588-0.20812 0.03619-0.3296 0.25195-0.34375zm-12.66 0.01563c0.04724 0.00709 0.09468 0.0215 0.13868 0.04687 0.352 0.203 0.99975 1.5167 0.59375 2.2207-0.332 0.981-2.0369-0.94053-1.6309-1.6445 0.17762-0.308 0.56778-0.67269 0.89843-0.62305zm-16.264 0.71875c0.84668 0.03792 2.0773 0.26611 2.1328 0.47461 0.075 0.277-0.40578 0.70473-1.2383 0.92773-0.8326 0.223-2.1098-1.2201-1.5547-1.3691 0.13875-0.03725 0.37793-0.04584 0.66016-0.0332zm10.687 3.5371 0.07422 0.27539c0.223 0.833 0.49991 0.75967 1.1289 0.88867l1.1113-0.29687c1.258 0.257 0.64921 1.3128-1.5508 3.0918l-1.6504-2.8301-0.07422-0.27734c0.203-0.352 0.68394-0.77756 0.96094-0.85156zm-82.684 9.1543c1.21-0.11499 1.3254 0.52412 1.6191 2.4531-1.5163 1.001-2.0359-0.94047-3.2402-2.1055 0.69378-0.18575 1.2178-0.30933 1.6211-0.34765zm69.311 11.477c0.072267 0.00735 0.14055 0.05369 0.20312 0.14844-1.2933 1.834 0.18859 2.9233 0.83789 4.2363 0.0744 0.278 0.70315 0.40569 0.90625 0.05469 0.2775-0.075 0.48065-0.42612 0.40625-0.70312l-0.14844-0.55469c-0.1487-0.555-0.22266-0.83399-0.22266-0.83399s0.42544 0.48246 0.64844 1.3145l0.42774 0.48047c0.4262 0.481 0.50008 0.75737 0.29688 1.1094-0.2031 0.352-0.48031 0.42695-0.75781 0.50195l-1.666 0.44532c-1.685-0.738-2.6853-2.2557-2.4277-3.5137 0.29041-0.85925 0.99022-2.737 1.4961-2.6855zm-47.877 0.53906c0.3519 0.203 0.29682 1.1104-0.23828 2.4434l-0.33203 0.98047-0.46094 1.6113c-0.7781-0.684-1.0741-1.7929-0.94531-2.4219-0.2974-1.11 1.3473-2.7423 1.9766-2.6133zm45.012 9.4922c1.1834 0.06118 2.0066 0.58859 2.1367 1.0742 0.2231 0.833-0.79258 2.5919-1.4219 2.4629-0.3519-0.203-0.90618-0.05317-1.1094 0.29883-0.2031 0.352-1.0368 0.57453-1.1855 0.01953l0.20508-0.35157c0.1288-0.63 0.25606-1.2597 0.38476-1.8887l0.46094-1.6113c0.18274-0.01175 0.36023-0.01264 0.5293-0.0039zm0.037109 8.7754c0.2775-0.074-0.10989 1.8139 0.31641 2.2949 0.4262 0.481 0.29744 1.109-0.53516 1.332l-0.42578-0.48047-0.35156-0.20312c-0.1488-0.555 0.18354-1.5362 0.58984-2.2402l0.40625-0.70312zm-37.756 75.553 0.09375 1.4629c-0.1288 0.629-0.88651 1.1282-1.5703 1.9062l-0.27734 0.07422c-0.555 0.149-0.75805 0.50208-0.40625 0.70508 0.3519 0.203 0.62857 0.12903 0.98047 0.33203l0.14844 0.55469c-0.2775 0.074-0.83169 0.22253-1.1836 0.01953l-0.70312-0.40625c-0.7781-0.684-0.79906-1.8689-0.31836-2.2949l0.40625-0.70313 0.27734-0.07422c0.4063-0.70399 1.3683-1.5562 2.5527-1.5762zm1.4824 9.4863c0.27508 0.00766 0.64958 0.2775 0.91602 0.57813 0.1487 0.555 0.72542 1.5913-0.45898 1.6113 0 0-0.054769 0.9056 0.019531 1.1836 0.5949 2.22 0.59505 2.2203-1.2188 2.1113l-0.27734 0.07422s0.074475 0.27756-0.20312 0.35156c0 0-0.6306-0.1286-0.7793-0.6836l0.40625-0.70312c0.2031-0.352 0.33245-0.98094-0.09375-1.4609l0.75781-0.50195c0.4806-0.426 0.18354-1.5362 0.58984-2.2402 0.0483-0.23587 0.17675-0.3249 0.3418-0.32031zm107.21 47.93c0.45131-0.03894 0.8953 0.10881 1.1387 0.60156 0.575 1.035 0.52158 1.9415-0.10742 1.8125-0.63-0.128-2.3158-0.86687-2.4648-1.4219-0.0925-0.34688 0.68141-0.9273 1.4336-0.99219z" fill="#d67886" stroke-width="1.4366"/>
</svg>
