<svg width="128" height="37" viewBox="0 0 128 37" fill="none" xmlns="http://www.w3.org/2000/svg">
<path d="M79.8135 0.873047H74.5359C74.3447 0.873047 74.1726 0.91129 74.0005 0.987776C73.8284 1.06426 73.6755 1.15987 73.5607 1.29372C73.446 1.40845 73.3313 1.56142 73.2739 1.73352C73.1974 1.90561 73.1592 2.07771 73.1592 2.26892V8.4452C73.1592 8.63642 73.1974 8.80851 73.2739 8.98061C73.3504 9.1527 73.446 9.30567 73.5607 9.4204C73.6946 9.55425 73.8284 9.64986 74.0005 9.70723C74.1726 9.78371 74.3447 9.82196 74.5359 9.82196H79.8135C79.8326 9.82196 79.8517 9.82196 79.8709 9.80283C79.89 9.78371 79.89 9.76459 79.89 9.74547V8.0054C79.89 7.98628 79.89 7.96716 79.8709 7.94804C79.8517 7.92892 79.8326 7.92892 79.8135 7.92892H75.5685C75.4538 7.92892 75.3582 7.89067 75.2817 7.81419C75.2052 7.7377 75.1478 7.64209 75.1478 7.50824V3.18676C75.1478 3.07203 75.1861 2.9573 75.2817 2.88082C75.3582 2.80433 75.4538 2.76609 75.5685 2.76609H79.8135C79.8326 2.76609 79.8517 2.76609 79.8709 2.74696C79.89 2.72784 79.89 2.70872 79.89 2.6896V0.949533C79.89 0.930412 79.89 0.91129 79.8709 0.892168C79.8709 0.873047 79.8517 0.873047 79.8135 0.873047Z" fill="#D6D6E9"/>
<path d="M82.4332 9.78371H89.6803C89.6994 9.78371 89.7185 9.78371 89.7185 9.76459C89.7376 9.74547 89.7376 9.74547 89.7376 9.70723V7.96716C89.7376 7.92892 89.7185 7.9098 89.7185 7.9098C89.7185 7.9098 89.6994 7.89067 89.6803 7.89067H84.766C84.6513 7.89067 84.5557 7.85243 84.4792 7.77594C84.4027 7.69946 84.3453 7.60385 84.3453 7.47V0.949533C84.3453 0.873047 84.3453 0.873047 84.2688 0.873047H82.4332C82.3567 0.873047 82.3567 0.873047 82.3567 0.949533V9.70723C82.3567 9.78371 82.3567 9.78371 82.4332 9.78371Z" fill="#D6D6E9"/>
<path d="M92.2232 9.78371H98.801C98.8202 9.78371 98.8393 9.78371 98.8584 9.76459C98.8775 9.74547 98.8775 9.72635 98.8775 9.70723V8.04365C98.8775 8.02453 98.8775 8.0054 98.8584 7.98628C98.8393 7.96716 98.8202 7.96716 98.801 7.96716H94.3648C94.231 7.96716 94.1354 7.87155 94.1354 7.7377V6.30358C94.1354 6.16973 94.231 6.07412 94.3648 6.07412H98.1509C98.17 6.07412 98.1892 6.07412 98.1892 6.055C98.2083 6.03588 98.2083 6.03588 98.2083 5.99764V4.67825C98.2083 4.64 98.1892 4.62088 98.1892 4.62088C98.1892 4.62088 98.17 4.60176 98.1509 4.60176H94.3648C94.1927 4.60176 94.1354 4.48703 94.1354 4.3723V2.93818C94.1354 2.80433 94.231 2.70872 94.3648 2.70872H98.801C98.8393 2.70872 98.8584 2.6896 98.8584 2.6896C98.8584 2.6896 98.8775 2.67048 98.8775 2.65136V0.949533C98.8775 0.930412 98.8775 0.91129 98.8584 0.892168C98.8393 0.873047 98.8202 0.873047 98.801 0.873047H92.2232C92.2041 0.873047 92.185 0.873047 92.1659 0.892168C92.1467 0.91129 92.1467 0.930412 92.1467 0.949533V9.70723C92.1467 9.78371 92.1467 9.78371 92.2232 9.78371Z" fill="#D6D6E9"/>
<path d="M106.354 9.66857L109.108 0.872637V0.853516H107.1C107.062 0.853516 107.043 0.853516 107.004 0.891759C106.985 0.91088 106.966 0.930002 106.947 0.968245L104.977 8.1006L102.989 0.968245C102.989 0.930002 102.97 0.91088 102.931 0.891759C102.893 0.872637 102.874 0.853516 102.836 0.853516H100.847V0.872637L103.582 9.64945C103.601 9.6877 103.601 9.70682 103.639 9.72594C103.677 9.74506 103.696 9.76418 103.735 9.76418H106.201C106.239 9.76418 106.259 9.74506 106.297 9.72594C106.335 9.72594 106.354 9.70682 106.354 9.66857Z" fill="#D6D6E9"/>
<path d="M117.751 0.873047H111.173C111.154 0.873047 111.135 0.873047 111.116 0.892168C111.097 0.91129 111.097 0.91129 111.097 0.949533V9.70723C111.097 9.78371 111.097 9.78371 111.173 9.78371H117.751C117.77 9.78371 117.789 9.78371 117.808 9.76459C117.827 9.74547 117.827 9.72635 117.827 9.70723V8.04365C117.827 8.02453 117.827 8.0054 117.808 7.98628C117.789 7.96716 117.77 7.96716 117.751 7.96716H113.315C113.181 7.96716 113.085 7.87155 113.085 7.7377V6.30358C113.085 6.16973 113.181 6.07412 113.315 6.07412H117.101C117.12 6.07412 117.139 6.07412 117.139 6.055C117.158 6.03588 117.158 6.03588 117.158 5.99764V4.67825C117.158 4.64 117.139 4.62088 117.139 4.62088C117.139 4.62088 117.12 4.60176 117.101 4.60176H113.315C113.143 4.60176 113.085 4.48703 113.085 4.3723V2.93818C113.085 2.80433 113.181 2.70872 113.315 2.70872H117.751C117.789 2.70872 117.808 2.6896 117.808 2.6896C117.808 2.6896 117.827 2.67048 117.827 2.65136V0.949533C117.827 0.930412 117.827 0.91129 117.808 0.892168C117.789 0.873047 117.77 0.873047 117.751 0.873047Z" fill="#D6D6E9"/>
<path d="M126.566 7.18318C126.585 7.12581 126.623 7.04932 126.738 7.0302L126.776 7.01108C127.044 6.91547 127.273 6.7625 127.446 6.51392C127.618 6.28446 127.713 5.99764 127.713 5.71081V2.2498C127.713 2.05859 127.675 1.88649 127.598 1.7144C127.522 1.5423 127.426 1.38933 127.312 1.2746C127.197 1.15987 127.044 1.04514 126.872 0.987776C126.7 0.91129 126.528 0.873047 126.336 0.873047H120.351C120.275 0.873047 120.275 0.873047 120.275 0.949533V9.70723C120.275 9.78371 120.275 9.78371 120.351 9.78371H122.187C122.264 9.78371 122.264 9.78371 122.264 9.70723V7.24054C122.264 7.10669 122.359 7.01108 122.493 7.01108H124.061C124.176 7.01108 124.252 7.06845 124.31 7.16405L125.705 9.66898C125.725 9.70723 125.763 9.72635 125.801 9.74547C125.839 9.76459 125.897 9.78371 125.935 9.78371H128L126.604 7.37439C126.566 7.31703 126.547 7.24054 126.566 7.18318ZM125.725 5.27102H122.187V2.67048H125.725V5.27102Z" fill="#D6D6E9"/>
<path d="M79.8135 13.6074H74.5359C74.3447 13.6074 74.1726 13.6457 74.0005 13.7222C73.8284 13.7986 73.6755 13.8942 73.5607 14.0281C73.446 14.1428 73.3313 14.2958 73.2739 14.4679C73.1974 14.64 73.1592 14.8121 73.1592 15.0033V21.1796C73.1592 21.3708 73.1974 21.5429 73.2739 21.715C73.3504 21.8871 73.446 22.04 73.5607 22.1548C73.6946 22.2886 73.8284 22.3842 74.0005 22.4416C74.1726 22.5181 74.3447 22.5563 74.5359 22.5563H79.8135C79.8326 22.5563 79.8517 22.5563 79.8709 22.5372C79.89 22.5181 79.89 22.499 79.89 22.4798V20.7398C79.89 20.7207 79.89 20.7015 79.8709 20.6824C79.8517 20.6633 79.8326 20.6633 79.8135 20.6633H75.5685C75.4538 20.6633 75.3582 20.6251 75.2817 20.5486C75.2052 20.4721 75.1478 20.3765 75.1478 20.2426V15.9211C75.1478 15.8064 75.1861 15.6917 75.2817 15.6152C75.3582 15.5387 75.4538 15.5005 75.5685 15.5005H79.8135C79.8326 15.5005 79.8517 15.5005 79.8709 15.4813C79.89 15.4622 79.89 15.4431 79.89 15.424V13.6839C79.89 13.6648 79.89 13.6457 79.8709 13.6265C79.8517 13.6074 79.8517 13.6074 79.8135 13.6074Z" fill="#D6D6E9"/>
<path d="M89.3554 14.009C89.2406 13.8942 89.0877 13.7795 88.9156 13.7222C88.7435 13.6457 88.5714 13.6074 88.3802 13.6074H83.6954C83.5041 13.6074 83.332 13.6457 83.16 13.7222C82.9879 13.7986 82.8349 13.8942 82.7202 14.0281C82.6054 14.1428 82.4907 14.2958 82.4333 14.4679C82.3568 14.64 82.3186 14.8121 82.3186 15.0033V21.1796C82.3186 21.3708 82.3568 21.5429 82.4333 21.715C82.5098 21.8871 82.6054 22.04 82.7202 22.1548C82.854 22.2886 82.9879 22.3842 83.16 22.4416C83.332 22.5181 83.5041 22.5563 83.6954 22.5563H88.3802C88.5714 22.5563 88.7435 22.5181 88.9156 22.4416C89.0877 22.3651 89.2215 22.2695 89.3554 22.1548C89.4701 22.0209 89.5848 21.8871 89.6613 21.715C89.7378 21.5429 89.776 21.3708 89.776 21.1796V14.9842C89.776 14.793 89.7378 14.6209 89.6613 14.4488C89.5657 14.2767 89.4701 14.1428 89.3554 14.009ZM87.7683 20.6251H84.3072V15.5196H87.7683V20.6251Z" fill="#D6D6E9"/>
<path d="M99.2221 14.009C99.1073 13.8942 98.9543 13.7795 98.7822 13.7222C98.6102 13.6457 98.4381 13.6074 98.2468 13.6074H92.2618C92.1853 13.6074 92.1853 13.6074 92.1853 13.6839V22.4416C92.1853 22.5181 92.1853 22.5181 92.2618 22.5181H98.2468C98.4381 22.5181 98.6102 22.4798 98.7822 22.4034C98.9543 22.3269 99.0882 22.2313 99.2221 22.1165C99.3368 21.9827 99.4515 21.8488 99.528 21.6767C99.6045 21.5046 99.6427 21.3325 99.6427 21.1413V14.9842C99.6427 14.793 99.6045 14.6209 99.528 14.4488C99.4324 14.2767 99.3368 14.1428 99.2221 14.009ZM97.6158 20.6251H94.1548V15.5196H97.6158V20.6251Z" fill="#D6D6E9"/>
<path d="M108.706 13.6074H102.128C102.109 13.6074 102.09 13.6074 102.071 13.6265C102.052 13.6457 102.052 13.6648 102.052 13.6839V22.4416C102.052 22.5181 102.052 22.5181 102.128 22.5181H108.706C108.725 22.5181 108.745 22.5181 108.764 22.499C108.783 22.4798 108.783 22.4607 108.783 22.4416V20.778C108.783 20.7589 108.783 20.7398 108.764 20.7207C108.745 20.7015 108.725 20.7015 108.706 20.7015H104.27C104.136 20.7015 104.041 20.6059 104.041 20.4721V19.038C104.041 18.9041 104.136 18.8085 104.27 18.8085H108.056C108.075 18.8085 108.094 18.8085 108.094 18.7894C108.114 18.7703 108.114 18.7703 108.114 18.732V17.4126C108.114 17.3744 108.094 17.3553 108.094 17.3553C108.094 17.3553 108.075 17.3361 108.056 17.3361H104.27C104.098 17.3361 104.041 17.2214 104.041 17.1067V15.6726C104.041 15.5387 104.136 15.4431 104.27 15.4431H108.706C108.745 15.4431 108.764 15.424 108.764 15.424C108.764 15.424 108.783 15.4049 108.783 15.3857V13.7222C108.783 13.703 108.783 13.6839 108.764 13.6648C108.745 13.6074 108.725 13.6074 108.706 13.6074Z" fill="#D6D6E9"/>
<path d="M80.1003 33.1504H75.5685C75.4538 33.1504 75.3582 33.1122 75.2817 33.0357C75.2052 32.9592 75.1478 32.8636 75.1478 32.7298V26.2093C75.1478 26.1328 75.1478 26.1328 75.0713 26.1328H73.2357C73.1592 26.1328 73.1592 26.1328 73.1592 26.2093V34.967C73.1592 35.0435 73.1592 35.0435 73.2357 35.0435H80.1003C80.1194 35.0435 80.1386 35.0435 80.1386 35.0244C80.1577 35.0052 80.1577 35.0052 80.1577 34.967V33.2269C80.1577 33.1887 80.1386 33.1696 80.1386 33.1696C80.1386 33.1504 80.1386 33.1504 80.1003 33.1504Z" fill="#D6D6E9"/>
<path d="M89.6039 26.5344C89.4892 26.4196 89.3362 26.3049 89.1641 26.2475C88.992 26.1711 88.8199 26.1328 88.6287 26.1328H83.9439C83.7527 26.1328 83.5806 26.1711 83.4085 26.2475C83.2364 26.324 83.0834 26.4196 82.9687 26.5535C82.854 26.6682 82.7392 26.8212 82.6819 26.9933C82.6054 27.1654 82.5671 27.3375 82.5671 27.5287V34.9861C82.5671 35.0626 82.5671 35.0626 82.6436 35.0626H84.4793C84.5558 35.0626 84.5558 35.0626 84.5558 34.9861V32.3665H88.0168V34.967C88.0168 34.9861 88.0168 35.0052 88.0359 35.0244C88.055 35.0435 88.0742 35.0435 88.0933 35.0435H89.929C89.9481 35.0435 89.9672 35.0435 89.9863 35.0244C90.0054 35.0052 90.0054 34.9861 90.0054 34.967V27.5096C90.0054 27.3184 89.9672 27.1463 89.8907 26.9742C89.8142 26.8021 89.7186 26.6491 89.6039 26.5344ZM87.9977 30.5308H84.5367V27.8538H87.9977V30.5308Z" fill="#D6D6E9"/>
<path d="M99.4706 26.5344C99.3559 26.4196 99.2029 26.3049 99.0308 26.2475C98.8587 26.1711 98.6866 26.1328 98.4954 26.1328H92.5103C92.4721 26.1328 92.4338 26.1711 92.4338 26.2093V34.967C92.4338 35.0052 92.4721 35.0435 92.5103 35.0435H98.4954C98.6866 35.0435 98.8587 35.0052 99.0308 34.9287C99.2029 34.8523 99.3367 34.7567 99.4706 34.6419C99.5853 34.5081 99.7 34.3742 99.7765 34.2021C99.853 34.03 99.8913 33.8579 99.8913 33.6667V31.4869C99.8913 31.4295 99.8721 31.3721 99.853 31.3148C99.8339 31.2574 99.7957 31.2 99.7765 31.1618L99.2029 30.6646C99.1455 30.6264 99.1455 30.5499 99.2029 30.5117L99.7765 29.938C99.8148 29.8998 99.8339 29.8424 99.8721 29.785C99.8913 29.7277 99.9104 29.6703 99.9104 29.6129V27.5096C99.9104 27.3184 99.8721 27.1463 99.7957 26.9742C99.6809 26.8021 99.5853 26.6491 99.4706 26.5344ZM98.1129 33.3608H94.2122V31.2H98.1129V33.3608ZM98.1129 29.8042H94.2122V27.7964H98.1129V29.8042Z" fill="#D6D6E9"/>
<path d="M13.1174 36.0943C13.0409 36.3429 12.7732 36.4577 12.5246 36.3812C5.00986 33.5321 0 26.285 0 18.2156C0 10.1081 5.0481 2.861 12.6011 0.0310056C12.8306 -0.0646024 13.0983 0.0692488 13.1939 0.31783L16.5211 9.89775C16.5975 10.1272 16.4828 10.3758 16.2534 10.4714C13.1174 11.7525 11.0523 14.812 11.0523 18.2156C11.0523 21.6193 13.1174 24.6787 16.2342 25.9599C16.4637 26.0555 16.5784 26.3041 16.5019 26.5335L13.1174 36.0943Z" fill="#5C5DB1"/>
<path d="M35.9297 36.0948C35.8532 36.3433 35.5855 36.4581 35.3369 36.3816C27.8221 33.5325 22.8123 26.3045 22.8123 18.2352C22.8123 10.1276 27.8604 2.88053 35.4134 0.0505368C35.6428 -0.0450712 35.9106 0.0887801 36.0062 0.337361L39.3333 9.91728C39.4098 10.1467 39.2951 10.3953 39.0656 10.4909C35.9297 11.753 33.8454 14.8124 33.8454 18.2161C33.8454 21.6197 35.9106 24.6792 39.0274 25.9603C39.2568 26.0559 39.3716 26.3045 39.2951 26.534L35.9297 36.0948Z" fill="#D16978"/>
<path d="M62.2598 25.9597C59.2003 24.6977 57.1543 21.7147 57.097 18.3685V0.470637C57.097 0.222056 56.8866 0.0117188 56.638 0.0117188H46.5036C46.255 0.0117188 46.0447 0.222056 46.0447 0.470637V18.2155C46.0447 26.2848 51.0545 33.5319 58.5693 36.3619C58.7988 36.4575 59.0665 36.3236 59.1621 36.0751L62.5275 26.5143C62.604 26.3039 62.4893 26.0553 62.2598 25.9597Z" fill="#F4BC4F"/>
</svg>
