<svg width="302" height="123" viewBox="0 0 302 123" fill="none" xmlns="http://www.w3.org/2000/svg">
<path d="M198.345 13.3896H103.655V122.239H198.345V13.3896Z" fill="white" stroke="#525375" stroke-linecap="round" stroke-linejoin="round"/>
<path d="M198.345 13.3894H103.655C103.655 6.57522 108.965 1 115.513 1H186.398C193.035 1 198.345 6.48673 198.345 13.3894Z" fill="white" stroke="#525375" stroke-linecap="round" stroke-linejoin="round"/>
<path d="M116.133 8.87553C117.018 8.87553 117.814 8.16756 117.814 7.19411C117.814 6.30916 117.107 5.5127 116.133 5.5127C115.16 5.5127 114.452 6.22066 114.452 7.19411C114.54 8.07907 115.248 8.87553 116.133 8.87553Z" fill="#D16978"/>
<path d="M121 8.87553C121.885 8.87553 122.682 8.16756 122.682 7.19411C122.682 6.30916 121.974 5.5127 121 5.5127C120.115 5.5127 119.319 6.22066 119.319 7.19411C119.319 8.07907 120.115 8.87553 121 8.87553Z" fill="#5C5DB1"/>
<path d="M125.867 8.87553C126.752 8.87553 127.549 8.16756 127.549 7.19411C127.549 6.30916 126.841 5.5127 125.867 5.5127C124.983 5.5127 124.186 6.22066 124.186 7.19411C124.186 8.07907 124.983 8.87553 125.867 8.87553Z" fill="#F4BC4F"/>
<path d="M157.903 31.0889H166.929C168.522 31.0889 169.761 32.2393 169.761 33.6552C169.761 35.0712 168.522 36.2216 166.929 36.2216H157.903C156.31 36.2216 155.071 35.0712 155.071 33.6552C155.159 32.2393 156.398 31.0889 157.903 31.0889Z" fill="#F4BC4F"/>
<path d="M174.451 31.0889H183.478C185.07 31.0889 186.309 32.2393 186.309 33.6552C186.309 35.0712 185.07 36.2216 183.478 36.2216H174.451C172.858 36.2216 171.619 35.0712 171.619 33.6552C171.708 32.2393 172.947 31.0889 174.451 31.0889Z" fill="#F4BC4F"/>
<path d="M157.549 41.1777H183.743C185.159 41.1777 186.31 42.3282 186.31 43.7441C186.31 45.16 185.159 46.3105 183.743 46.3105H157.549C156.133 46.3105 154.982 45.16 154.982 43.7441C155.071 42.3282 156.221 41.1777 157.549 41.1777Z" fill="#D16978"/>
<path d="M157.549 51.2656H183.743C185.159 51.2656 186.31 52.4161 186.31 53.832C186.31 55.2479 185.159 56.3984 183.743 56.3984H157.549C156.133 56.3984 154.982 55.2479 154.982 53.832C155.071 52.4161 156.221 51.2656 157.549 51.2656Z" fill="#D16978"/>
<path d="M118.257 75.248H127.283C128.876 75.248 130.115 76.3985 130.115 77.8144C130.115 79.2303 128.876 80.3808 127.283 80.3808H118.257C116.664 80.3808 115.425 79.2303 115.425 77.8144C115.425 76.31 116.664 75.248 118.257 75.248Z" fill="#D16978"/>
<path d="M134.805 75.248H143.832C145.425 75.248 146.664 76.3985 146.664 77.8144C146.664 79.2303 145.425 80.3808 143.832 80.3808H134.805C133.213 80.3808 131.974 79.2303 131.974 77.8144C131.974 76.31 133.213 75.248 134.805 75.248Z" fill="#D16978"/>
<path d="M117.903 85.3359H144.097C145.513 85.3359 146.664 86.4864 146.664 87.9023C146.664 89.3182 145.513 90.4687 144.097 90.4687H117.903C116.487 90.4687 115.336 89.3182 115.336 87.9023C115.336 86.4864 116.487 85.3359 117.903 85.3359Z" fill="#D16978"/>
<path d="M117.903 95.4248H144.097C145.513 95.4248 146.664 96.5752 146.664 97.9912C146.664 99.4071 145.513 100.558 144.097 100.558H117.903C116.487 100.558 115.336 99.4071 115.336 97.9912C115.336 96.4868 116.487 95.4248 117.903 95.4248Z" fill="#5C5DB1"/>
<path d="M185.159 6.04395L186.752 7.63687L188.345 9.22978" stroke="#525375" stroke-miterlimit="10" stroke-linejoin="round"/>
<path d="M188.257 6.04395L186.664 7.63687L185.071 9.22978" stroke="#525375" stroke-miterlimit="10" stroke-linejoin="round"/>
<path d="M145.16 29.2305H115.248V59.142H145.16V29.2305Z" fill="#5C5DB1"/>
<path d="M170.734 103.832C179.495 103.832 186.575 96.7522 186.575 87.9911C186.575 79.23 179.495 72.1504 170.734 72.1504C161.973 72.1504 154.894 79.23 154.894 87.9911C154.894 96.7522 161.973 103.832 170.734 103.832Z" fill="#F4BC4F"/>
<path d="M95.6903 23.5664H1V106.752H95.6903V23.5664Z" fill="white" stroke="#525375" stroke-linecap="round" stroke-linejoin="round"/>
<path d="M95.6903 23.5662H1C1 16.752 6.30973 11.1768 12.8584 11.1768H83.7434C90.292 11.0883 95.6018 16.6635 95.6903 23.5662Z" fill="white" stroke="#525375" stroke-linecap="round" stroke-linejoin="round"/>
<path d="M13.4783 19.0533C14.3632 19.0533 15.1597 18.3453 15.1597 17.3718C15.1597 16.4869 14.4517 15.6904 13.4783 15.6904C12.5048 15.6904 11.7969 16.3984 11.7969 17.3718C11.8854 18.2568 12.5933 19.0533 13.4783 19.0533Z" fill="#D16978"/>
<path d="M18.3455 19.0533C19.2304 19.0533 20.0269 18.3453 20.0269 17.3718C20.0269 16.4869 19.3189 15.6904 18.3455 15.6904C17.4605 15.6904 16.6641 16.3984 16.6641 17.3718C16.6641 18.2568 17.372 19.0533 18.3455 19.0533Z" fill="#5C5DB1"/>
<path d="M23.2127 19.0533C24.0976 19.0533 24.8941 18.3453 24.8941 17.3718C24.8941 16.4869 24.1861 15.6904 23.2127 15.6904C22.3277 15.6904 21.5312 16.3984 21.5312 17.3718C21.5312 18.2568 22.2392 19.0533 23.2127 19.0533Z" fill="#F4BC4F"/>
<path d="M64.0086 75.9561H73.0352C74.6281 75.9561 75.867 77.1065 75.867 78.5224C75.867 79.9384 74.6281 81.0888 73.0352 81.0888H64.0086C62.4157 81.0888 61.1768 79.9384 61.1768 78.5224C61.1768 77.1065 62.4157 75.9561 64.0086 75.9561Z" fill="#5C5DB1"/>
<path d="M54.894 49.584H81.0887C82.5046 49.584 83.6551 50.7344 83.6551 52.1504C83.6551 53.5663 82.5046 54.7167 81.0887 54.7167H54.894C53.4781 54.7167 52.3276 53.5663 52.3276 52.1504C52.4161 50.7344 53.4781 49.584 54.894 49.584Z" fill="#F4BC4F"/>
<path d="M54.894 59.6729H81.0887C82.5046 59.6729 83.6551 60.8233 83.6551 62.2392C83.6551 63.6552 82.5046 64.8056 81.0887 64.8056H54.894C53.4781 64.8056 52.3276 63.6552 52.3276 62.2392C52.4161 60.8233 53.4781 59.6729 54.894 59.6729Z" fill="#F4BC4F"/>
<path d="M82.5044 16.2217L84.0088 17.8146L85.6017 19.4075" stroke="#525375" stroke-miterlimit="10" stroke-linejoin="round"/>
<path d="M85.6019 16.2217L84.0089 17.8146L82.416 19.4075" stroke="#525375" stroke-miterlimit="10" stroke-linejoin="round"/>
<path d="M42.4159 43.124H12.5044V87.3718H42.4159V43.124Z" fill="#D16978"/>
<path d="M20.5509 57.1657C16.4652 60.7487 15.7383 66.8623 18.8715 71.2972C22.2554 76.0829 28.8979 77.2104 33.6855 73.8278C38.4731 70.4453 39.6011 63.8055 36.2172 59.0199C32.8333 54.2342 26.1908 53.1067 21.4032 56.4892L20.5509 57.1657Z" stroke="white" stroke-width="0.6" stroke-linecap="round" stroke-linejoin="round"/>
<path d="M27 60.5C27 60.7692 27.2308 61 27.5 61C27.7692 61 28 60.7692 28 60.5C28 60.2308 27.7692 60 27.5 60C27.2308 60 27 60.2308 27 60.5Z" fill="white"/>
<path d="M32 60.5C32 60.7692 32.2308 61 32.5 61C32.7692 61 33 60.7692 33 60.5C33 60.2308 32.7692 60 32.5 60C32.2308 60 32 60.2308 32 60.5Z" fill="white"/>
<path d="M33.7432 63.3887C33.439 64.9017 31.9733 66.0435 30.2034 66.0435C28.4335 66.0435 26.9678 64.9017 26.6636 63.3887" stroke="white" stroke-width="0.6" stroke-linecap="round"/>
<path d="M301 23.3896H206.31V106.575H301V23.3896Z" fill="white" stroke="#525375" stroke-linecap="round" stroke-linejoin="round"/>
<path d="M301 23.3894H206.31C206.31 16.5752 211.619 11 218.168 11H289.053C295.602 11 300.911 16.4867 301 23.3894Z" fill="white" stroke="#525375" stroke-linecap="round" stroke-linejoin="round"/>
<path d="M218.788 18.8765C219.673 18.8765 220.469 18.1685 220.469 17.1951C220.469 16.3101 219.761 15.5137 218.788 15.5137C217.814 15.5137 217.106 16.2216 217.106 17.1951C217.195 18.08 217.903 18.8765 218.788 18.8765Z" fill="#D16978"/>
<path d="M223.655 18.8765C224.54 18.8765 225.336 18.1685 225.336 17.1951C225.336 16.3101 224.629 15.5137 223.655 15.5137C222.77 15.5137 221.974 16.2216 221.974 17.1951C221.974 18.08 222.682 18.8765 223.655 18.8765Z" fill="#5C5DB1"/>
<path d="M228.522 18.8765C229.407 18.8765 230.204 18.1685 230.204 17.1951C230.204 16.3101 229.496 15.5137 228.522 15.5137C227.637 15.5137 226.841 16.2216 226.841 17.1951C226.841 18.08 227.549 18.8765 228.522 18.8765Z" fill="#F4BC4F"/>
<path d="M287.726 16.0439L289.318 17.6369L290.911 19.2298" stroke="#525375" stroke-miterlimit="10" stroke-linejoin="round"/>
<path d="M290.911 16.0439L289.318 17.6369L287.726 19.2298" stroke="#525375" stroke-miterlimit="10" stroke-linejoin="round"/>
<path d="M195.69 67.4603C196.398 67.4603 196.929 66.9293 196.929 66.2214C196.929 65.5134 196.398 64.9824 195.69 64.9824C194.982 64.9824 194.451 65.5134 194.451 66.2214C194.451 66.9293 195.071 67.4603 195.69 67.4603Z" fill="#525375"/>
<path d="M209.053 71.8849C209.673 71.8849 210.204 71.3539 210.204 70.7344C210.204 70.115 209.673 69.584 209.053 69.584C208.434 69.584 207.903 70.115 207.903 70.7344C207.903 71.3539 208.434 71.8849 209.053 71.8849Z" fill="#525375"/>
<path d="M195.69 66.2211C198.522 65.8671 200.204 66.5751 201.177 67.2831C202.593 68.2565 202.947 69.3185 204.451 70.2034C205.867 70.9114 207.46 71.1769 208.965 70.8229" stroke="#525375" stroke-miterlimit="10" stroke-linejoin="round"/>
<path d="M93.1242 39.3177C93.8322 39.3177 94.3631 38.7867 94.3631 38.0788C94.3631 37.3708 93.8322 36.8398 93.1242 36.8398C92.4162 36.8398 91.8853 37.3708 91.8853 38.0788C91.8853 38.7867 92.4162 39.3177 93.1242 39.3177Z" fill="#525375"/>
<path d="M106.398 43.7423C107.018 43.7423 107.549 43.2113 107.549 42.5918C107.549 41.9724 107.018 41.4414 106.398 41.4414C105.779 41.4414 105.248 41.9724 105.248 42.5918C105.248 43.2113 105.779 43.7423 106.398 43.7423Z" fill="#525375"/>
<path d="M93.124 38.0795C95.9559 37.7255 97.6373 38.4335 98.6108 39.1415C100.027 40.1149 100.381 41.1769 101.885 42.0618C103.301 42.7698 104.894 43.0353 106.398 42.6813" stroke="#525375" stroke-miterlimit="10" stroke-linejoin="round"/>
<path d="M281.266 39.3184H225.956V90.8228H281.266V39.3184Z" fill="#F4BC4F"/>
<path d="M245.336 72.1505H261L266.133 53.5664H240.204L245.336 72.1505Z" fill="white" stroke="#525375" stroke-linecap="round" stroke-linejoin="round"/>
<path d="M248.168 80.2033C249.439 80.2033 250.469 79.1732 250.469 77.9024C250.469 76.6317 249.439 75.6016 248.168 75.6016C246.897 75.6016 245.867 76.6317 245.867 77.9024C245.867 79.1732 246.897 80.2033 248.168 80.2033Z" fill="white" stroke="#525375" stroke-linecap="round" stroke-linejoin="round"/>
<path d="M258.345 80.2033C259.616 80.2033 260.646 79.1732 260.646 77.9024C260.646 76.6317 259.616 75.6016 258.345 75.6016C257.075 75.6016 256.044 76.6317 256.044 77.9024C256.044 79.1732 257.075 80.2033 258.345 80.2033Z" fill="white" stroke="#525375" stroke-linecap="round" stroke-linejoin="round"/>
<path d="M271.177 48.9648L266.133 53.5666L272.77 51.7967L271.177 48.9648Z" fill="white" stroke="#525375" stroke-linecap="round" stroke-linejoin="round"/>
</svg>
