<svg width="166" height="166" viewBox="0 0 166 166" fill="none" xmlns="http://www.w3.org/2000/svg">
<path d="M39.9615 74.2627C44.6858 50.5947 67.7022 35.2378 91.3702 39.962C115.038 44.6863 130.395 67.7027 125.671 91.3706C120.947 115.039 97.9302 130.396 74.2622 125.671C50.5942 120.947 35.2373 97.9306 39.9615 74.2627Z" stroke="#DEDEF3"/>
<path d="M89.2142 67.8073C88.0088 67.1339 86.4858 67.5652 85.8124 68.7706C85.139 69.976 85.5703 71.499 86.7757 72.1724C87.9811 72.8457 89.5041 72.4144 90.1775 71.2091C90.8508 70.0037 90.4196 68.4807 89.2142 67.8073Z" fill="#DEDEF3"/>
<path d="M120.66 80.2982C120.08 80.1824 119.515 80.559 119.4 81.1396C119.284 81.7201 119.66 82.2847 120.241 82.4005C120.821 82.5164 121.386 82.1397 121.502 81.5592C121.618 80.9787 121.241 80.4141 120.66 80.2982Z" fill="#DEDEF3"/>
<path d="M121.774 89.7191C121.194 89.6033 120.629 89.9799 120.513 90.5605C120.397 91.141 120.774 91.7056 121.355 91.8214C121.935 91.9373 122.5 91.5606 122.616 90.9801C122.731 90.3996 122.355 89.835 121.774 89.7191Z" fill="#DEDEF3"/>
<path d="M124.814 75.0307C124.234 74.9148 123.669 75.2915 123.553 75.872C123.437 76.4525 123.814 77.0171 124.395 77.133C124.975 77.2488 125.54 76.8722 125.656 76.2916C125.771 75.7111 125.395 75.1465 124.814 75.0307Z" fill="#DEDEF3"/>
<path d="M108.787 90.2992C108.207 90.1833 107.642 90.56 107.526 91.1406C107.41 91.7211 107.787 92.2856 108.368 92.4015C108.948 92.5174 109.513 92.1407 109.629 91.5602C109.744 90.9797 109.368 90.4151 108.787 90.2992Z" fill="#DEDEF3"/>
<path d="M104.154 96.8979C103.574 96.782 103.009 97.1587 102.893 97.7392C102.777 98.3197 103.154 98.8843 103.734 99.0001C104.315 99.116 104.88 98.7393 104.995 98.1588C105.111 97.5783 104.735 97.0137 104.154 96.8979Z" fill="#DEDEF3"/>
<path d="M115.965 107.92C115.385 107.804 114.82 108.181 114.704 108.762C114.589 109.342 114.965 109.907 115.546 110.023C116.126 110.138 116.691 109.762 116.807 109.181C116.923 108.601 116.546 108.036 115.965 107.92Z" fill="#DEDEF3"/>
<path d="M119.748 99.5121C119.167 99.3962 118.603 99.7729 118.487 100.353C118.371 100.934 118.747 101.499 119.328 101.614C119.909 101.73 120.473 101.354 120.589 100.773C120.705 100.193 120.328 99.628 119.748 99.5121Z" fill="#DEDEF3"/>
<path d="M99.567 120.048C98.9864 119.932 98.4219 120.309 98.306 120.89C98.1901 121.47 98.5668 122.035 99.1473 122.151C99.7279 122.266 100.292 121.89 100.408 121.309C100.524 120.729 100.147 120.164 99.567 120.048Z" fill="#DEDEF3"/>
<path d="M79.982 115.995C79.4015 115.879 78.8369 116.255 78.721 116.836C78.6052 117.416 78.9818 117.981 79.5624 118.097C80.1429 118.213 80.7075 117.836 80.8233 117.255C80.9392 116.675 80.5625 116.11 79.982 115.995Z" fill="#DEDEF3"/>
<path d="M76.679 123.073C76.0985 122.957 75.5339 123.333 75.4181 123.914C75.3022 124.495 75.6789 125.059 76.2594 125.175C76.8399 125.291 77.4045 124.914 77.5204 124.334C77.6362 123.753 77.2596 123.189 76.679 123.073Z" fill="#DEDEF3"/>
<path d="M63.3751 118.277C62.7945 118.161 62.23 118.538 62.1141 119.118C61.9982 119.699 62.3749 120.263 62.9554 120.379C63.536 120.495 64.1005 120.118 64.2164 119.538C64.3323 118.957 63.9556 118.393 63.3751 118.277Z" fill="#DEDEF3"/>
<path d="M92.7603 105.569C92.1798 105.453 91.6152 105.83 91.4994 106.41C91.3835 106.991 91.7602 107.555 92.3407 107.671C92.9212 107.787 93.4858 107.41 93.6017 106.83C93.7175 106.249 93.3409 105.685 92.7603 105.569Z" fill="#DEDEF3"/>
<path d="M97.6024 108.817C97.0218 108.701 96.4573 109.078 96.3414 109.658C96.2255 110.239 96.6022 110.803 97.1827 110.919C97.7633 111.035 98.3278 110.658 98.4437 110.078C98.5596 109.497 98.1829 108.933 97.6024 108.817Z" fill="#DEDEF3"/>
<path d="M99.7296 113.342C99.149 113.226 98.5845 113.603 98.4686 114.184C98.3527 114.764 98.7294 115.329 99.3099 115.444C99.8905 115.56 100.455 115.184 100.571 114.603C100.687 114.023 100.31 113.458 99.7296 113.342Z" fill="#DEDEF3"/>
<path d="M104.092 117.921C103.512 117.805 102.947 118.182 102.831 118.763C102.715 119.343 103.092 119.908 103.672 120.024C104.253 120.139 104.818 119.763 104.933 119.182C105.049 118.602 104.673 118.037 104.092 117.921Z" fill="#DEDEF3"/>
<path d="M88.6607 108.601C88.0802 108.485 87.5156 108.862 87.3998 109.442C87.2839 110.023 87.6606 110.587 88.2411 110.703C88.8216 110.819 89.3862 110.442 89.502 109.862C89.6179 109.281 89.2412 108.717 88.6607 108.601Z" fill="#DEDEF3"/>
<path d="M92.2806 106.899C91.7001 106.783 91.1355 107.16 91.0196 107.74C90.9038 108.321 91.2804 108.885 91.861 109.001C92.4415 109.117 93.006 108.74 93.1219 108.16C93.2378 107.579 92.8611 107.015 92.2806 106.899Z" fill="#DEDEF3"/>
<path d="M100.797 106.21C100.216 106.094 99.6516 106.471 99.5357 107.052C99.4199 107.632 99.7965 108.197 100.377 108.313C100.958 108.429 101.522 108.052 101.638 107.471C101.754 106.891 101.377 106.326 100.797 106.21Z" fill="#DEDEF3"/>
<path d="M122.741 68.2709C122.161 68.155 121.596 68.5317 121.48 69.1122C121.364 69.6928 121.741 70.2573 122.322 70.3732C122.902 70.4891 123.467 70.1124 123.583 69.5319C123.698 68.9513 123.322 68.3868 122.741 68.2709Z" fill="#DEDEF3"/>
<path d="M116.663 77.6019C116.21 77.5116 115.77 77.8052 115.68 78.2578C115.589 78.7103 115.883 79.1504 116.336 79.2407C116.788 79.3311 117.228 79.0374 117.319 78.5849C117.409 78.1323 117.115 77.6922 116.663 77.6019Z" fill="#DEDEF3"/>
<path d="M111.975 86.4359C111.523 86.3456 111.083 86.6392 110.992 87.0917C110.902 87.5443 111.196 87.9844 111.648 88.0747C112.101 88.1651 112.541 87.8714 112.631 87.4189C112.721 86.9663 112.428 86.5262 111.975 86.4359Z" fill="#DEDEF3"/>
<path d="M115.433 91.4398C114.98 91.3495 114.54 91.6431 114.45 92.0957C114.359 92.5482 114.653 92.9883 115.106 93.0786C115.558 93.169 115.998 92.8753 116.089 92.4228C116.179 91.9702 115.885 91.5301 115.433 91.4398Z" fill="#DEDEF3"/>
<path d="M84.5548 110.375C84.1023 110.285 83.6622 110.579 83.5718 111.031C83.4815 111.484 83.7752 111.924 84.2277 112.014C84.6803 112.105 85.1203 111.811 85.2107 111.358C85.301 110.906 85.0074 110.466 84.5548 110.375Z" fill="#DEDEF3"/>
<path d="M116.63 86.5772C115.773 86.4061 114.94 86.9623 114.769 87.8195C114.597 88.6767 115.154 89.5103 116.011 89.6814C116.868 89.8525 117.702 89.2963 117.873 88.4391C118.044 87.5819 117.488 86.7483 116.63 86.5772Z" fill="#DEDEF3"/>
<path d="M122.716 94.0323C121.859 93.8612 121.026 94.4173 120.855 95.2746C120.683 96.1318 121.24 96.9654 122.097 97.1365C122.954 97.3076 123.788 96.7514 123.959 95.8942C124.13 95.037 123.574 94.2034 122.716 94.0323Z" fill="#DEDEF3"/>
<path d="M122.662 96.2676C121.805 96.0965 120.971 96.6527 120.8 97.5099C120.629 98.3671 121.185 99.2007 122.043 99.3718C122.9 99.5429 123.733 98.9867 123.905 98.1295C124.076 97.2723 123.519 96.4387 122.662 96.2676Z" fill="#DEDEF3"/>
<path d="M117.72 103.338C116.39 103.073 115.095 103.936 114.83 105.267C114.564 106.598 115.428 107.892 116.759 108.158C118.089 108.423 119.384 107.56 119.649 106.229C119.915 104.898 119.051 103.604 117.72 103.338Z" fill="#DEDEF3"/>
<path d="M80.9124 120.887C79.5815 120.621 78.2873 121.485 78.0217 122.816C77.756 124.147 78.6195 125.441 79.9504 125.707C81.2812 125.972 82.5755 125.109 82.8411 123.778C83.1067 122.447 82.2432 121.153 80.9124 120.887Z" fill="#DEDEF3"/>
<path d="M105.665 114.777C104.334 114.511 103.04 115.375 102.774 116.705C102.508 118.036 103.372 119.331 104.703 119.596C106.033 119.862 107.328 118.998 107.593 117.667C107.859 116.337 106.995 115.042 105.665 114.777Z" fill="#DEDEF3"/>
<path d="M91.9754 121.729C90.9602 121.526 89.9729 122.185 89.7703 123.2C89.5677 124.216 90.2264 125.203 91.2416 125.406C92.2568 125.608 93.2441 124.949 93.4468 123.934C93.6494 122.919 92.9907 121.932 91.9754 121.729Z" fill="#DEDEF3"/>
<path d="M97.8309 120.082C96.8157 119.879 95.8284 120.538 95.6258 121.553C95.4231 122.568 96.0819 123.555 97.0971 123.758C98.1123 123.961 99.0996 123.302 99.3022 122.287C99.5049 121.272 98.8461 120.284 97.8309 120.082Z" fill="#DEDEF3"/>
<path d="M103.375 116.958C102.044 116.693 100.75 117.556 100.484 118.887C100.218 120.218 101.082 121.512 102.413 121.778C103.744 122.043 105.038 121.18 105.303 119.849C105.569 118.518 104.706 117.224 103.375 116.958Z" fill="#DEDEF3"/>
<path d="M109.65 112.316C108.635 112.113 107.648 112.772 107.445 113.787C107.242 114.803 107.901 115.79 108.916 115.992C109.931 116.195 110.919 115.536 111.121 114.521C111.324 113.506 110.665 112.519 109.65 112.316Z" fill="#DEDEF3"/>
<path d="M117.287 94.6163C116.577 94.4746 115.887 94.935 115.746 95.6446C115.604 96.3542 116.064 97.0443 116.774 97.1859C117.484 97.3276 118.174 96.8671 118.315 96.1576C118.457 95.448 117.997 94.7579 117.287 94.6163Z" fill="#DEDEF3"/>
<path d="M110.229 106.354C109.519 106.212 108.829 106.672 108.688 107.382C108.546 108.092 109.006 108.782 109.716 108.923C110.425 109.065 111.116 108.604 111.257 107.895C111.399 107.185 110.938 106.495 110.229 106.354Z" fill="#DEDEF3"/>
<path d="M68.9781 110.275C68.2685 110.134 67.5784 110.594 67.4368 111.304C67.2952 112.013 67.7556 112.703 68.4652 112.845C69.1748 112.987 69.8648 112.526 70.0065 111.817C70.1481 111.107 69.6877 110.417 68.9781 110.275Z" fill="#DEDEF3"/>
<path d="M102.401 115.559C101.691 115.417 101.001 115.877 100.86 116.587C100.718 117.297 101.178 117.987 101.888 118.128C102.598 118.27 103.288 117.81 103.429 117.1C103.571 116.39 103.111 115.7 102.401 115.559Z" fill="#DEDEF3"/>
<path d="M106.392 116.997C105.683 116.855 104.993 117.316 104.851 118.025C104.709 118.735 105.17 119.425 105.879 119.567C106.589 119.708 107.279 119.248 107.421 118.538C107.562 117.829 107.102 117.139 106.392 116.997Z" fill="#DEDEF3"/>
<path d="M118.329 73.0562C117.947 72.9801 117.699 72.6091 117.776 72.2275C117.852 71.846 118.223 71.5985 118.604 71.6746C118.986 71.7508 119.233 72.1218 119.157 72.5033C119.081 72.8848 118.71 73.1324 118.329 73.0562Z" fill="#DEDEF3"/>
<path d="M123.674 80.9967C123.293 80.9205 123.045 80.5495 123.121 80.168C123.197 79.7864 123.569 79.5389 123.95 79.615C124.332 79.6912 124.579 80.0622 124.503 80.4437C124.427 80.8253 124.056 81.0728 123.674 80.9967Z" fill="#DEDEF3"/>
<path d="M117.347 65.1861C116.966 65.11 116.718 64.739 116.794 64.3574C116.871 63.9759 117.242 63.7283 117.623 63.8045C118.005 63.8806 118.252 64.2517 118.176 64.6332C118.1 65.0147 117.729 65.2623 117.347 65.1861Z" fill="#DEDEF3"/>
<path d="M121.702 88.5543C121.32 88.4781 121.073 88.1071 121.149 87.7256C121.225 87.3441 121.596 87.0965 121.978 87.1727C122.359 87.2488 122.607 87.6198 122.531 88.0014C122.454 88.3829 122.083 88.6305 121.702 88.5543Z" fill="#DEDEF3"/>
<path d="M112.335 87.4322C111.953 87.3561 111.706 86.985 111.782 86.6035C111.858 86.222 112.229 85.9744 112.611 86.0506C112.992 86.1267 113.24 86.4978 113.164 86.8793C113.087 87.2608 112.716 87.5084 112.335 87.4322Z" fill="#DEDEF3"/>
<path d="M114.779 97.3336C114.397 97.2574 114.15 96.8864 114.226 96.5049C114.302 96.1234 114.673 95.8758 115.055 95.952C115.436 96.0281 115.684 96.3991 115.608 96.7807C115.532 97.1622 115.161 97.4097 114.779 97.3336Z" fill="#DEDEF3"/>
<path d="M115.259 96.0025C114.877 95.9264 114.63 95.5554 114.706 95.1738C114.782 94.7923 115.153 94.5447 115.535 94.6209C115.916 94.6971 116.164 95.0681 116.087 95.4496C116.011 95.8311 115.64 96.0787 115.259 96.0025Z" fill="#DEDEF3"/>
<path d="M122.499 92.5992C122.117 92.5231 121.87 92.152 121.946 91.7705C122.022 91.389 122.393 91.1414 122.775 91.2176C123.156 91.2937 123.404 91.6648 123.327 92.0463C123.251 92.4278 122.88 92.6754 122.499 92.5992Z" fill="#DEDEF3"/>
<path d="M124.896 85.9469C124.515 85.8707 124.267 85.4997 124.344 85.1182C124.42 84.7366 124.791 84.4891 125.172 84.5652C125.554 84.6414 125.801 85.0124 125.725 85.3939C125.649 85.7755 125.278 86.023 124.896 85.9469Z" fill="#DEDEF3"/>
<path d="M109.642 99.2403C109.261 99.1641 109.013 98.793 109.089 98.4113C109.165 98.0296 109.537 97.782 109.918 97.8582C110.3 97.9343 110.548 98.3055 110.471 98.6872C110.395 99.0688 110.024 99.3165 109.642 99.2403Z" fill="#DEDEF3"/>
<path d="M116.002 102.284C115.62 102.208 115.372 101.837 115.449 101.455C115.525 101.074 115.896 100.826 116.278 100.902C116.659 100.978 116.907 101.349 116.831 101.731C116.755 102.113 116.383 102.36 116.002 102.284Z" fill="#DEDEF3"/>
<path d="M117.866 99.1983C117.484 99.1221 117.236 98.751 117.313 98.3693C117.389 97.9876 117.76 97.74 118.142 97.8162C118.523 97.8923 118.771 98.2635 118.695 98.6452C118.619 99.0269 118.247 99.2745 117.866 99.1983Z" fill="#DEDEF3"/>
<path d="M120.21 94.7813C119.828 94.7051 119.58 94.334 119.656 93.9523C119.733 93.5706 120.104 93.323 120.485 93.3992C120.867 93.4754 121.115 93.8465 121.039 94.2282C120.962 94.6099 120.591 94.8575 120.21 94.7813Z" fill="#DEDEF3"/>
<path d="M118.987 89.8311C118.606 89.755 118.358 89.3838 118.434 89.0021C118.51 88.6204 118.882 88.3728 119.263 88.449C119.645 88.5252 119.893 88.8963 119.816 89.278C119.74 89.6597 119.369 89.9073 118.987 89.8311Z" fill="#DEDEF3"/>
<path d="M112.843 102.751C112.409 102.664 112.127 102.242 112.214 101.808C112.3 101.374 112.722 101.092 113.156 101.179C113.59 101.266 113.872 101.688 113.785 102.122C113.699 102.556 113.277 102.837 112.843 102.751Z" fill="#DEDEF3"/>
<path d="M119.249 104.307C118.815 104.221 118.533 103.799 118.62 103.365C118.706 102.931 119.129 102.649 119.563 102.736C119.997 102.822 120.278 103.244 120.192 103.678C120.105 104.112 119.683 104.394 119.249 104.307Z" fill="#DEDEF3"/>
<path d="M108.816 103.452C108.434 103.376 108.187 103.005 108.263 102.623C108.339 102.242 108.71 101.994 109.092 102.07C109.474 102.146 109.721 102.517 109.645 102.899C109.569 103.281 109.198 103.528 108.816 103.452Z" fill="#DEDEF3"/>
<path d="M113.604 108.937C113.222 108.86 112.975 108.489 113.051 108.108C113.127 107.726 113.498 107.478 113.88 107.554C114.261 107.631 114.509 108.002 114.433 108.383C114.357 108.765 113.986 109.013 113.604 108.937Z" fill="#DEDEF3"/>
<path d="M109.396 116.44C109.015 116.363 108.767 115.992 108.843 115.611C108.919 115.229 109.291 114.981 109.672 115.057C110.054 115.134 110.302 115.505 110.225 115.886C110.149 116.268 109.778 116.516 109.396 116.44Z" fill="#DEDEF3"/>
<path d="M113.55 111.172C113.168 111.096 112.921 110.725 112.997 110.343C113.073 109.961 113.444 109.714 113.826 109.79C114.207 109.866 114.455 110.237 114.379 110.619C114.303 111 113.932 111.248 113.55 111.172Z" fill="#DEDEF3"/>
<path d="M107.64 115.055C107.259 114.979 107.011 114.607 107.087 114.226C107.163 113.844 107.535 113.596 107.916 113.673C108.298 113.749 108.546 114.12 108.469 114.502C108.393 114.883 108.022 115.131 107.64 115.055Z" fill="#DEDEF3"/>
<path d="M106.681 117.716C106.3 117.64 106.052 117.269 106.128 116.887C106.204 116.505 106.575 116.258 106.957 116.334C107.339 116.41 107.586 116.781 107.51 117.163C107.434 117.544 107.063 117.792 106.681 117.716Z" fill="#DEDEF3"/>
<path d="M110.355 113.778C109.974 113.702 109.726 113.331 109.802 112.949C109.878 112.568 110.25 112.32 110.631 112.396C111.013 112.472 111.261 112.844 111.184 113.225C111.108 113.607 110.737 113.855 110.355 113.778Z" fill="#DEDEF3"/>
<path d="M107.378 107.443C106.996 107.367 106.748 106.996 106.824 106.614C106.901 106.233 107.272 105.985 107.653 106.061C108.035 106.137 108.283 106.509 108.207 106.89C108.13 107.272 107.759 107.52 107.378 107.443Z" fill="#DEDEF3"/>
<path d="M103.603 97.0636C103.221 96.9874 102.974 96.6162 103.05 96.2345C103.126 95.8529 103.497 95.6052 103.879 95.6814C104.26 95.7576 104.508 96.1287 104.432 96.5104C104.356 96.8921 103.985 97.1397 103.603 97.0636Z" fill="#DEDEF3"/>
<path d="M95.4576 100.892C95.0759 100.815 94.8283 100.444 94.9045 100.063C94.9806 99.681 95.3518 99.4333 95.7335 99.5095C96.1152 99.5857 96.3628 99.9569 96.2866 100.339C96.2104 100.72 95.8393 100.968 95.4576 100.892Z" fill="#DEDEF3"/>
<path d="M89.231 99.3995C88.8494 99.3233 88.6017 98.9521 88.6779 98.5705C88.7541 98.1888 89.1252 97.9411 89.5069 98.0173C89.8886 98.0935 90.1362 98.4647 90.0601 98.8464C89.9839 99.228 89.6127 99.4757 89.231 99.3995Z" fill="#DEDEF3"/>
<path d="M97.195 107.586C96.9988 107.547 96.8704 107.361 96.9083 107.171C96.9463 106.981 97.1361 106.859 97.3324 106.898C97.5286 106.937 97.657 107.123 97.6191 107.313C97.5811 107.503 97.3913 107.625 97.195 107.586Z" fill="#DEDEF3"/>
<path d="M99.08 111.596C98.8838 111.557 98.7554 111.371 98.7934 111.181C98.8313 110.991 99.0211 110.868 99.2174 110.908C99.4137 110.947 99.542 111.133 99.5041 111.323C99.4661 111.513 99.2763 111.635 99.08 111.596Z" fill="#DEDEF3"/>
<path d="M102.275 108.988C102.078 108.949 101.95 108.763 101.988 108.573C102.026 108.383 102.216 108.261 102.412 108.3C102.608 108.339 102.737 108.525 102.699 108.715C102.661 108.905 102.471 109.028 102.275 108.988Z" fill="#DEDEF3"/>
<path d="M104.139 105.902C103.942 105.863 103.814 105.677 103.852 105.487C103.89 105.297 104.08 105.175 104.276 105.214C104.472 105.253 104.601 105.439 104.563 105.629C104.525 105.819 104.335 105.942 104.139 105.902Z" fill="#DEDEF3"/>
<path d="M95.8852 114.202C95.6889 114.163 95.5606 113.977 95.5985 113.787C95.6365 113.597 95.8263 113.475 96.0226 113.514C96.2188 113.553 96.3472 113.739 96.3092 113.929C96.2713 114.119 96.0815 114.241 95.8852 114.202Z" fill="#DEDEF3"/>
<path d="M98.4377 119.632C98.2414 119.593 98.1131 119.407 98.151 119.217C98.189 119.027 98.3788 118.905 98.5751 118.944C98.7713 118.983 98.8997 119.169 98.8617 119.359C98.8238 119.549 98.6339 119.671 98.4377 119.632Z" fill="#DEDEF3"/>
<path d="M98.9172 118.302C98.7209 118.263 98.5926 118.077 98.6305 117.887C98.6684 117.697 98.8583 117.574 99.0546 117.614C99.2508 117.653 99.3792 117.839 99.3412 118.029C99.3033 118.219 99.1134 118.341 98.9172 118.302Z" fill="#DEDEF3"/>
<path d="M95.3515 117.768C95.1552 117.729 95.0269 117.543 95.0648 117.353C95.1028 117.163 95.2926 117.04 95.4889 117.079C95.6851 117.119 95.8135 117.304 95.7755 117.495C95.7376 117.685 95.5478 117.807 95.3515 117.768Z" fill="#DEDEF3"/>
<path d="M104.827 114.418C104.631 114.379 104.502 114.193 104.54 114.003C104.578 113.813 104.768 113.691 104.964 113.73C105.16 113.769 105.289 113.955 105.251 114.145C105.213 114.335 105.023 114.457 104.827 114.418Z" fill="#DEDEF3"/>
<path d="M112.655 105.214C112.458 105.175 112.33 104.989 112.368 104.799C112.406 104.609 112.596 104.487 112.792 104.526C112.988 104.565 113.117 104.751 113.079 104.941C113.041 105.131 112.851 105.253 112.655 105.214Z" fill="#DEDEF3"/>
<path d="M91.6772 121.705C91.4809 121.666 91.3526 121.48 91.3905 121.29C91.4285 121.1 91.6183 120.978 91.8146 121.017C92.0108 121.056 92.1392 121.242 92.1012 121.432C92.0633 121.622 91.8734 121.744 91.6772 121.705Z" fill="#DEDEF3"/>
<path d="M88.4828 124.312C88.2866 124.272 88.1582 124.087 88.1962 123.897C88.2341 123.707 88.424 123.584 88.6202 123.623C88.8165 123.663 88.9448 123.848 88.9069 124.038C88.869 124.229 88.6791 124.351 88.4828 124.312Z" fill="#DEDEF3"/>
<path d="M94.0754 115.053C93.8791 115.014 93.7508 114.828 93.7887 114.638C93.8267 114.448 94.0165 114.325 94.2128 114.365C94.409 114.404 94.5374 114.59 94.4994 114.78C94.4615 114.97 94.2716 115.092 94.0754 115.053Z" fill="#DEDEF3"/>
<path d="M90.935 115.424C90.7387 115.385 90.6104 115.199 90.6483 115.009C90.6863 114.819 90.8761 114.697 91.0724 114.736C91.2686 114.775 91.397 114.961 91.359 115.151C91.3211 115.341 91.1313 115.463 90.935 115.424Z" fill="#DEDEF3"/>
<path d="M88.2741 114.465C88.0779 114.426 87.9495 114.24 87.9874 114.05C88.0254 113.86 88.2152 113.738 88.4115 113.777C88.6077 113.816 88.7361 114.002 88.6982 114.192C88.6602 114.382 88.4704 114.504 88.2741 114.465Z" fill="#DEDEF3"/>
<path d="M76.5092 119.995C76.313 119.956 76.1846 119.77 76.2226 119.58C76.2605 119.39 76.4503 119.268 76.6466 119.307C76.8429 119.346 76.9712 119.532 76.9333 119.722C76.8953 119.912 76.7055 120.034 76.5092 119.995Z" fill="#DEDEF3"/>
<path d="M56.1005 112.033C55.8268 111.978 55.6478 111.719 55.7007 111.454C55.7536 111.189 56.0184 111.018 56.292 111.073C56.5657 111.128 56.7447 111.387 56.6918 111.652C56.6389 111.917 56.3741 112.087 56.1005 112.033Z" fill="#DEDEF3"/>
<path d="M57.5846 117.077C57.3109 117.022 57.1319 116.763 57.1848 116.498C57.2377 116.233 57.5025 116.062 57.7762 116.117C58.0499 116.172 58.2288 116.431 58.1759 116.696C58.123 116.961 57.8583 117.131 57.5846 117.077Z" fill="#DEDEF3"/>
<path d="M93.8124 107.442C93.6162 107.402 93.4878 107.217 93.5258 107.026C93.5637 106.836 93.7536 106.714 93.9498 106.753C94.1461 106.792 94.2744 106.978 94.2365 107.168C94.1985 107.358 94.0087 107.481 93.8124 107.442Z" fill="#DEDEF3"/>
<path d="M106.057 100.581C105.861 100.542 105.732 100.356 105.77 100.166C105.808 99.9761 105.998 99.8538 106.194 99.8929C106.39 99.9321 106.519 100.118 106.481 100.308C106.443 100.498 106.253 100.62 106.057 100.581Z" fill="#DEDEF3"/>
<path d="M104.409 94.7257C104.213 94.6866 104.085 94.5007 104.123 94.3107C104.161 94.1206 104.35 93.9983 104.547 94.0375C104.743 94.0766 104.871 94.2625 104.833 94.4525C104.795 94.6426 104.606 94.7649 104.409 94.7257Z" fill="#DEDEF3"/>
<path d="M110.211 95.3136C110.014 95.2745 109.886 95.0886 109.924 94.8986C109.962 94.7085 110.152 94.5862 110.348 94.6254C110.544 94.6645 110.673 94.8504 110.635 95.0404C110.597 95.2305 110.407 95.3528 110.211 95.3136Z" fill="#DEDEF3"/>
<path d="M120.591 91.5382C120.395 91.4991 120.266 91.3132 120.304 91.1232C120.342 90.9331 120.532 90.8108 120.728 90.85C120.925 90.8891 121.053 91.075 121.015 91.265C120.977 91.4551 120.787 91.5774 120.591 91.5382Z" fill="#DEDEF3"/>
<path d="M111.17 92.6525C110.974 92.6133 110.845 92.4275 110.883 92.2374C110.921 92.0474 111.111 91.9251 111.307 91.9642C111.503 92.0034 111.632 92.1892 111.594 92.3793C111.556 92.5693 111.366 92.6917 111.17 92.6525Z" fill="#DEDEF3"/>
<path d="M113.622 83.7648C113.425 83.7256 113.297 83.5398 113.335 83.3497C113.373 83.1597 113.563 83.0374 113.759 83.0765C113.955 83.1157 114.084 83.3015 114.046 83.4916C114.008 83.6817 113.818 83.804 113.622 83.7648Z" fill="#DEDEF3"/>
<path d="M114.31 92.2814C114.114 92.2422 113.985 92.0564 114.023 91.8663C114.061 91.6763 114.251 91.554 114.447 91.5931C114.644 91.6323 114.772 91.8181 114.734 92.0082C114.696 92.1983 114.506 92.3206 114.31 92.2814Z" fill="#DEDEF3"/>
<path d="M123.522 81.3205C123.326 81.2813 123.198 81.0955 123.236 80.9054C123.274 80.7153 123.464 80.593 123.66 80.6322C123.856 80.6714 123.984 80.8572 123.946 81.0473C123.909 81.2373 123.719 81.3596 123.522 81.3205Z" fill="#DEDEF3"/>
<path d="M123.894 84.4611C123.697 84.4219 123.569 84.2361 123.607 84.046C123.645 83.856 123.835 83.7336 124.031 83.7728C124.227 83.812 124.356 83.9978 124.318 84.1879C124.28 84.3779 124.09 84.5003 123.894 84.4611Z" fill="#DEDEF3"/>
<path d="M119.848 85.258C119.652 85.2188 119.524 85.033 119.562 84.8429C119.6 84.6528 119.789 84.5305 119.986 84.5697C120.182 84.6089 120.31 84.7947 120.272 84.9848C120.234 85.1748 120.045 85.2971 119.848 85.258Z" fill="#DEDEF3"/>
<path d="M102.282 90.2003C102.086 90.1612 101.958 89.9753 101.996 89.7853C102.034 89.5952 102.224 89.4729 102.42 89.5121C102.616 89.5513 102.744 89.7371 102.706 89.9271C102.669 90.1172 102.479 90.2395 102.282 90.2003Z" fill="#DEDEF3"/>
<path d="M53.0143 110.169C52.7406 110.114 52.5616 109.855 52.6145 109.59C52.6674 109.325 52.9322 109.154 53.2059 109.209C53.4795 109.263 53.6585 109.522 53.6056 109.788C53.5527 110.053 53.288 110.223 53.0143 110.169Z" fill="#DEDEF3"/>
<path d="M62.3 115.625C62.1037 115.586 61.9754 115.4 62.0133 115.21C62.0513 115.02 62.2411 114.898 62.4374 114.937C62.6336 114.976 62.762 115.162 62.724 115.352C62.6861 115.542 62.4962 115.664 62.3 115.625Z" fill="#DEDEF3"/>
<path d="M59.5851 116.902C59.3889 116.862 59.2605 116.677 59.2985 116.486C59.3364 116.296 59.5263 116.174 59.7225 116.213C59.9188 116.252 60.0471 116.438 60.0092 116.628C59.9713 116.818 59.7814 116.941 59.5851 116.902Z" fill="#DEDEF3"/>
<path d="M68.4184 121.589C68.2221 121.55 68.0938 121.364 68.1317 121.174C68.1697 120.984 68.3595 120.862 68.5558 120.901C68.752 120.94 68.8804 121.126 68.8424 121.316C68.8045 121.506 68.6147 121.628 68.4184 121.589Z" fill="#DEDEF3"/>
<path d="M70.1743 122.974C69.978 122.935 69.8497 122.749 69.8876 122.559C69.9255 122.369 70.1154 122.246 70.3116 122.286C70.5079 122.325 70.6362 122.511 70.5983 122.701C70.5604 122.891 70.3705 123.013 70.1743 122.974Z" fill="#DEDEF3"/>
<path d="M50.86 107.743C50.6638 107.704 50.5354 107.518 50.5734 107.328C50.6113 107.138 50.8012 107.016 50.9974 107.055C51.1937 107.094 51.322 107.28 51.2841 107.47C51.2462 107.66 51.0563 107.782 50.86 107.743Z" fill="#DEDEF3"/>
<path d="M79.3325 114.248C79.1362 114.209 79.0079 114.023 79.0458 113.833C79.0837 113.643 79.2736 113.521 79.4698 113.56C79.6661 113.599 79.7944 113.785 79.7565 113.975C79.7186 114.165 79.5287 114.287 79.3325 114.248Z" fill="#DEDEF3"/>
<path d="M70.3366 116.267C70.1404 116.228 70.012 116.042 70.0499 115.852C70.0879 115.662 70.2777 115.539 70.474 115.578C70.6702 115.618 70.7986 115.803 70.7607 115.994C70.7227 116.184 70.5329 116.306 70.3366 116.267Z" fill="#DEDEF3"/>
<path d="M93.062 119.949C92.8657 119.91 92.7374 119.724 92.7753 119.534C92.8132 119.344 93.0031 119.222 93.1993 119.261C93.3956 119.3 93.5239 119.486 93.486 119.676C93.4481 119.866 93.2582 119.989 93.062 119.949Z" fill="#DEDEF3"/>
<path d="M108.499 98.0772C108.117 98.001 107.87 97.6299 107.946 97.2482C108.022 96.8665 108.393 96.6189 108.775 96.6951C109.157 96.7712 109.404 97.1424 109.328 97.5241C109.252 97.9058 108.881 98.1534 108.499 98.0772Z" fill="#DEDEF3"/>
<path d="M99.7117 109.942C99.3301 109.866 99.0824 109.495 99.1586 109.113C99.2348 108.732 99.606 108.484 99.9876 108.56C100.369 108.636 100.617 109.008 100.541 109.389C100.465 109.771 100.093 110.019 99.7117 109.942Z" fill="#DEDEF3"/>
<path d="M103.278 110.476C102.896 110.399 102.648 110.028 102.725 109.647C102.801 109.265 103.172 109.017 103.554 109.094C103.935 109.17 104.183 109.541 104.107 109.923C104.031 110.304 103.659 110.552 103.278 110.476Z" fill="#DEDEF3"/>
<path d="M105.993 109.199C105.611 109.123 105.363 108.752 105.44 108.37C105.516 107.989 105.887 107.741 106.269 107.817C106.65 107.893 106.898 108.264 106.822 108.646C106.746 109.028 106.374 109.275 105.993 109.199Z" fill="#DEDEF3"/>
<path d="M106.364 112.34C105.982 112.264 105.735 111.893 105.811 111.511C105.887 111.129 106.258 110.882 106.64 110.958C107.021 111.034 107.269 111.405 107.193 111.787C107.117 112.168 106.746 112.416 106.364 112.34Z" fill="#DEDEF3"/>
<path d="M102.69 116.277C102.308 116.201 102.06 115.83 102.137 115.448C102.213 115.067 102.584 114.819 102.966 114.895C103.347 114.971 103.595 115.343 103.519 115.724C103.443 116.106 103.071 116.354 102.69 116.277Z" fill="#DEDEF3"/>
<path d="M99.441 121.119C99.0593 121.043 98.8117 120.672 98.8879 120.29C98.964 119.909 99.3352 119.661 99.7169 119.737C100.099 119.813 100.346 120.184 100.27 120.566C100.194 120.948 99.8227 121.195 99.441 121.119Z" fill="#DEDEF3"/>
<path d="M98.2191 116.169C97.8374 116.093 97.5897 115.722 97.6659 115.34C97.7421 114.958 98.1133 114.711 98.495 114.787C98.8766 114.863 99.1243 115.234 99.0481 115.616C98.9719 115.998 98.6007 116.245 98.2191 116.169Z" fill="#DEDEF3"/>
<path d="M106.31 114.575C105.928 114.499 105.681 114.128 105.757 113.746C105.833 113.365 106.204 113.117 106.586 113.193C106.967 113.269 107.215 113.64 107.139 114.022C107.063 114.404 106.692 114.651 106.31 114.575Z" fill="#DEDEF3"/>
<path d="M85.2862 114.514C84.9045 114.438 84.6569 114.066 84.7331 113.685C84.8093 113.303 85.1804 113.055 85.5621 113.132C85.9438 113.208 86.1914 113.579 86.1152 113.961C86.039 114.342 85.6679 114.59 85.2862 114.514Z" fill="#DEDEF3"/>
<path d="M73.4671 122.279C73.0854 122.203 72.8378 121.832 72.914 121.45C72.9902 121.069 73.3613 120.821 73.743 120.897C74.1247 120.973 74.3723 121.345 74.2961 121.726C74.22 122.108 73.8488 122.356 73.4671 122.279Z" fill="#DEDEF3"/>
<path d="M71.1776 124.461C70.7959 124.385 70.5482 124.014 70.6244 123.632C70.7006 123.25 71.0718 123.003 71.4534 123.079C71.8351 123.155 72.0828 123.526 72.0066 123.908C71.9304 124.29 71.5592 124.537 71.1776 124.461Z" fill="#DEDEF3"/>
<path d="M86.4 123.935C86.0183 123.858 85.7707 123.487 85.8468 123.106C85.923 122.724 86.2942 122.476 86.6759 122.552C87.0575 122.629 87.3052 123 87.229 123.382C87.1528 123.763 86.7816 124.011 86.4 123.935Z" fill="#DEDEF3"/>
<path d="M90.608 116.432C90.2263 116.356 89.9787 115.984 90.0548 115.603C90.131 115.221 90.5022 114.973 90.8839 115.05C91.2655 115.126 91.5132 115.497 91.437 115.879C91.3608 116.26 90.9897 116.508 90.608 116.432Z" fill="#DEDEF3"/>
<path d="M85.0155 125.691C84.6338 125.614 84.3861 125.243 84.4623 124.861C84.5385 124.48 84.9097 124.232 85.2913 124.308C85.673 124.385 85.9207 124.756 85.8445 125.137C85.7683 125.519 85.3971 125.767 85.0155 125.691Z" fill="#DEDEF3"/>
<path d="M71.4473 120.15C71.0131 120.063 70.7314 119.641 70.8181 119.207C70.9047 118.773 71.327 118.491 71.7612 118.577C72.1954 118.664 72.4771 119.086 72.3904 119.521C72.3038 119.955 71.8815 120.236 71.4473 120.15Z" fill="#DEDEF3"/>
<path d="M74.6877 118.429C73.8057 118.253 73.2334 117.395 73.4095 116.513C73.5855 115.631 74.4432 115.059 75.3252 115.235C76.2071 115.411 76.7794 116.269 76.6034 117.151C76.4273 118.033 75.5696 118.605 74.6877 118.429Z" fill="#DEDEF3"/>
<path d="M108.048 110.16C107.166 109.984 106.594 109.127 106.77 108.245C106.946 107.363 107.803 106.79 108.685 106.966C109.567 107.142 110.14 108 109.963 108.882C109.787 109.764 108.93 110.336 108.048 110.16Z" fill="#DEDEF3"/>
<path d="M88.4716 121.894C87.5896 121.718 87.0174 120.86 87.1934 119.978C87.3695 119.096 88.2271 118.524 89.1091 118.7C89.9911 118.876 90.5633 119.734 90.3873 120.615C90.2113 121.497 89.3536 122.07 88.4716 121.894Z" fill="#DEDEF3"/>
<path d="M99.7106 101.141C98.8286 100.965 98.2564 100.107 98.4324 99.2251C98.6085 98.3431 99.4662 97.7708 100.348 97.9469C101.23 98.1229 101.802 98.9806 101.626 99.8626C101.45 100.745 100.593 101.317 99.7106 101.141Z" fill="#DEDEF3"/>
<path d="M111.042 113.494C110.16 113.318 109.588 112.461 109.764 111.579C109.94 110.697 110.798 110.124 111.68 110.3C112.562 110.476 113.134 111.334 112.958 112.216C112.782 113.098 111.924 113.67 111.042 113.494Z" fill="#DEDEF3"/>
<path d="M115.413 99.2843C114.531 99.1083 113.958 98.2506 114.134 97.3686C114.31 96.4866 115.168 95.9144 116.05 96.0904C116.932 96.2665 117.504 97.1242 117.328 98.0061C117.152 98.8881 116.294 99.4604 115.413 99.2843Z" fill="#DEDEF3"/>
<path d="M103.005 112.852C102.123 112.676 101.551 111.818 101.727 110.936C101.903 110.054 102.761 109.482 103.643 109.658C104.525 109.834 105.097 110.692 104.921 111.574C104.745 112.455 103.887 113.028 103.005 112.852Z" fill="#DEDEF3"/>
<path d="M92.1996 115.722C91.3177 115.546 90.7454 114.688 90.9214 113.806C91.0975 112.924 91.9552 112.352 92.8371 112.528C93.7191 112.704 94.2914 113.562 94.1153 114.444C93.9393 115.326 93.0816 115.898 92.1996 115.722Z" fill="#DEDEF3"/>
<path d="M96.1366 119.396C95.2547 119.22 94.6824 118.362 94.8584 117.48C95.0345 116.598 95.8922 116.026 96.7741 116.202C97.6561 116.378 98.2284 117.235 98.0523 118.117C97.8763 118.999 97.0186 119.572 96.1366 119.396Z" fill="#DEDEF3"/>
<path d="M93.3136 125.143C92.4317 124.967 91.8594 124.109 92.0355 123.227C92.2115 122.345 93.0692 121.773 93.9512 121.949C94.8331 122.125 95.4054 122.983 95.2293 123.865C95.0533 124.746 94.1956 125.319 93.3136 125.143Z" fill="#DEDEF3"/>
<path d="M88.6431 105.2C88.2615 105.124 88.0138 104.753 88.09 104.371C88.1662 103.99 88.5374 103.742 88.919 103.818C89.3007 103.894 89.5483 104.265 89.4722 104.647C89.396 105.029 89.0248 105.276 88.6431 105.2Z" fill="#DEDEF3"/>
<path d="M80.4984 109.029C80.1167 108.953 79.869 108.582 79.9452 108.2C80.0214 107.819 80.3926 107.571 80.7743 107.647C81.1559 107.723 81.4036 108.095 81.3274 108.476C81.2512 108.858 80.88 109.106 80.4984 109.029Z" fill="#DEDEF3"/>
<path d="M66.4437 116.741C66.062 116.665 65.8144 116.294 65.8905 115.912C65.9667 115.531 66.3379 115.283 66.7196 115.359C67.1012 115.435 67.3489 115.806 67.2727 116.188C67.1965 116.57 66.8254 116.817 66.4437 116.741Z" fill="#DEDEF3"/>
<path d="M84.598 105.997C84.2163 105.921 83.9687 105.55 84.0448 105.168C84.121 104.786 84.4922 104.539 84.8739 104.615C85.2555 104.691 85.5032 105.062 85.427 105.444C85.3508 105.826 84.9796 106.073 84.598 105.997Z" fill="#DEDEF3"/>
<path d="M60.7508 111.683C60.3691 111.607 60.1215 111.235 60.1977 110.854C60.2739 110.472 60.645 110.224 61.0267 110.301C61.4084 110.377 61.656 110.748 61.5798 111.13C61.5036 111.511 61.1325 111.759 60.7508 111.683Z" fill="#DEDEF3"/>
<path d="M57.9276 117.43C57.5459 117.354 57.2982 116.982 57.3744 116.601C57.4506 116.219 57.8218 115.971 58.2034 116.048C58.5851 116.124 58.8328 116.495 58.7566 116.877C58.6804 117.258 58.3092 117.506 57.9276 117.43Z" fill="#DEDEF3"/>
<path d="M68.95 105.618C68.5683 105.542 68.3207 105.171 68.3969 104.789C68.4731 104.408 68.8442 104.16 69.2259 104.236C69.6076 104.312 69.8552 104.683 69.779 105.065C69.7029 105.447 69.3317 105.694 68.95 105.618Z" fill="#DEDEF3"/>
<path d="M101.829 104.818C101.383 104.728 101.093 104.294 101.182 103.848C101.271 103.402 101.705 103.112 102.152 103.201C102.598 103.29 102.888 103.724 102.799 104.171C102.71 104.617 102.275 104.907 101.829 104.818Z" fill="#DEDEF3"/>
<path d="M85.8561 117.851C85.4097 117.762 85.12 117.328 85.2092 116.881C85.2983 116.435 85.7324 116.145 86.1788 116.234C86.6252 116.323 86.9148 116.757 86.8257 117.204C86.7366 117.65 86.3025 117.94 85.8561 117.851Z" fill="#DEDEF3"/>
<path d="M85.3224 121.416C84.876 121.327 84.5864 120.893 84.6755 120.447C84.7646 120 85.1987 119.71 85.6451 119.8C86.0915 119.889 86.3811 120.323 86.292 120.769C86.2029 121.216 85.7688 121.505 85.3224 121.416Z" fill="#DEDEF3"/>
<path d="M88.0373 120.141C87.5908 120.052 87.3012 119.618 87.3903 119.171C87.4794 118.725 87.9135 118.435 88.3599 118.524C88.8063 118.613 89.096 119.047 89.0069 119.494C88.9178 119.94 88.4837 120.23 88.0373 120.141Z" fill="#DEDEF3"/>
<path d="M113.377 108.229C112.931 108.14 112.641 107.705 112.73 107.259C112.819 106.813 113.253 106.523 113.7 106.612C114.146 106.701 114.436 107.135 114.347 107.582C114.258 108.028 113.823 108.318 113.377 108.229Z" fill="#DEDEF3"/>
<path d="M82.9787 125.833C82.5323 125.744 82.2426 125.31 82.3317 124.864C82.4208 124.417 82.8549 124.127 83.3013 124.217C83.7477 124.306 84.0374 124.74 83.9483 125.186C83.8592 125.633 83.4251 125.922 82.9787 125.833Z" fill="#DEDEF3"/>
<path d="M87.0241 125.036C86.5777 124.947 86.288 124.513 86.3771 124.067C86.4662 123.62 86.9003 123.331 87.3467 123.42C87.7931 123.509 88.0828 123.943 87.9937 124.389C87.9046 124.836 87.4705 125.125 87.0241 125.036Z" fill="#DEDEF3"/>
<path d="M94.8519 115.832C94.4055 115.743 94.1159 115.309 94.205 114.863C94.2941 114.416 94.7282 114.127 95.1746 114.216C95.621 114.305 95.9107 114.739 95.8216 115.185C95.7325 115.632 95.2984 115.921 94.8519 115.832Z" fill="#DEDEF3"/>
<path d="M103.368 115.144C102.922 115.055 102.632 114.62 102.721 114.174C102.81 113.728 103.244 113.438 103.691 113.527C104.137 113.616 104.427 114.05 104.338 114.497C104.249 114.943 103.814 115.233 103.368 115.144Z" fill="#DEDEF3"/>
<path d="M114.336 105.568C113.89 105.478 113.6 105.044 113.689 104.598C113.778 104.152 114.213 103.862 114.659 103.951C115.105 104.04 115.395 104.474 115.306 104.921C115.217 105.367 114.783 105.657 114.336 105.568Z" fill="#DEDEF3"/>
<path d="M92.9877 118.918C92.5413 118.829 92.2516 118.395 92.3407 117.949C92.4298 117.502 92.864 117.212 93.3104 117.302C93.7568 117.391 94.0464 117.825 93.9573 118.271C93.8682 118.718 93.4341 119.007 92.9877 118.918Z" fill="#DEDEF3"/>
<path d="M96.0739 120.782C95.6275 120.693 95.3378 120.259 95.4269 119.813C95.516 119.366 95.9501 119.077 96.3965 119.166C96.843 119.255 97.1326 119.689 97.0435 120.135C96.9544 120.582 96.5203 120.871 96.0739 120.782Z" fill="#DEDEF3"/>
<path d="M101.875 121.37C101.429 121.281 101.139 120.847 101.228 120.401C101.317 119.954 101.751 119.665 102.198 119.754C102.644 119.843 102.934 120.277 102.845 120.723C102.756 121.17 102.322 121.459 101.875 121.37Z" fill="#DEDEF3"/>
<path d="M97.3502 123.497C96.9038 123.408 96.6142 122.974 96.7033 122.528C96.7924 122.081 97.2265 121.792 97.6729 121.881C98.1193 121.97 98.409 122.404 98.3199 122.85C98.2308 123.297 97.7966 123.586 97.3502 123.497Z" fill="#DEDEF3"/>
<path d="M91.4948 125.145C91.0484 125.056 90.7587 124.621 90.8478 124.175C90.9369 123.729 91.371 123.439 91.8174 123.528C92.2639 123.617 92.5535 124.051 92.4644 124.498C92.3753 124.944 91.9412 125.234 91.4948 125.145Z" fill="#DEDEF3"/>
<path d="M93.7846 122.964C93.3382 122.875 93.0485 122.441 93.1376 121.994C93.2267 121.548 93.6608 121.258 94.1072 121.347C94.5536 121.437 94.8433 121.871 94.7542 122.317C94.6651 122.763 94.231 123.053 93.7846 122.964Z" fill="#DEDEF3"/>
<path d="M102.255 105.723C101.808 105.634 101.518 105.2 101.608 104.753C101.697 104.307 102.131 104.017 102.577 104.106C103.024 104.195 103.313 104.629 103.224 105.076C103.135 105.522 102.701 105.812 102.255 105.723Z" fill="#DEDEF3"/>
<path d="M69.5858 56.2008C68.3804 55.5275 66.8573 55.9588 66.184 57.1642C65.5106 58.3695 65.9419 59.8926 67.1473 60.5659C68.3527 61.2393 69.8757 60.808 70.5491 59.6026C71.2224 58.3972 70.7911 56.8742 69.5858 56.2008Z" fill="#DEDEF3"/>
<path d="M85.6332 82.8305C81.2352 87.9379 73.0115 89.0868 66.0602 85.2036C59.1089 81.3204 55.7754 73.7153 57.8186 67.2924" stroke="#DEDEF3" stroke-linecap="round"/>
</svg>
