<svg width="302" height="171" viewBox="0 0 302 171" fill="none" xmlns="http://www.w3.org/2000/svg">
<path d="M215.551 44.1895H121.279V169.576H215.551V44.1895Z" fill="white" stroke="#525375" stroke-linecap="round" stroke-linejoin="round"/>
<path d="M215.384 43.9713H121.158C121.158 40.8273 122.407 37.8134 124.632 35.5889C126.856 33.3645 129.87 32.1152 133.014 32.1152H203.528C206.672 32.1152 209.69 33.3645 211.91 35.5889C214.135 37.8134 215.384 40.8273 215.384 43.9713Z" fill="white" stroke="#525375" stroke-linecap="round" stroke-linejoin="round"/>
<path d="M133.738 39.6511C134.625 39.6511 135.345 38.9313 135.345 38.0443C135.345 37.1573 134.625 36.4375 133.738 36.4375C132.851 36.4375 132.132 37.1573 132.132 38.0443C132.132 38.9313 132.851 39.6511 133.738 39.6511Z" fill="#D16978"/>
<path d="M138.559 39.6511C139.446 39.6511 140.166 38.9313 140.166 38.0443C140.166 37.1573 139.446 36.4375 138.559 36.4375C137.672 36.4375 136.952 37.1573 136.952 38.0443C136.952 38.9313 137.672 39.6511 138.559 39.6511Z" fill="#5C5DB1"/>
<path d="M143.375 39.6511C144.262 39.6511 144.981 38.9313 144.981 38.0443C144.981 37.1573 144.262 36.4375 143.375 36.4375C142.488 36.4375 141.768 37.1573 141.768 38.0443C141.768 38.9313 142.488 39.6511 143.375 39.6511Z" fill="#F4BC4F"/>
<path d="M159.707 59.4258H133.654C132.275 59.4258 131.156 60.545 131.156 61.9242C131.156 63.3035 132.275 64.4227 133.654 64.4227H159.707C161.086 64.4227 162.206 63.3035 162.206 61.9242C162.206 60.545 161.086 59.4258 159.707 59.4258Z" fill="#D16978"/>
<path d="M146.597 109.395H133.654C132.275 109.395 131.156 110.514 131.156 111.893C131.156 113.272 132.275 114.391 133.654 114.391H146.597C147.976 114.391 149.096 113.272 149.096 111.893C149.096 110.514 147.976 109.395 146.597 109.395Z" fill="#F4BC4F"/>
<path d="M151.641 117.601H138.698C137.319 117.601 136.2 118.72 136.2 120.099C136.2 121.478 137.319 122.597 138.698 122.597H151.641C153.02 122.597 154.139 121.478 154.139 120.099C154.139 118.72 153.02 117.601 151.641 117.601Z" fill="#D16978"/>
<path d="M167.974 109.395H155.031C153.652 109.395 152.532 110.514 152.532 111.893C152.532 113.272 153.652 114.391 155.031 114.391H167.974C169.353 114.391 170.472 113.272 170.472 111.893C170.472 110.514 169.353 109.395 167.974 109.395Z" fill="#5C5DB1"/>
<path d="M185.913 117.601H172.97C171.591 117.601 170.472 118.72 170.472 120.099C170.472 121.478 171.591 122.597 172.97 122.597H185.913C187.292 122.597 188.412 121.478 188.412 120.099C188.412 118.72 187.292 117.601 185.913 117.601Z" fill="#F4BC4F"/>
<path d="M148.641 67.6357H138.828C137.449 67.6357 136.33 68.7549 136.33 70.1342C136.33 71.5134 137.449 72.6326 138.828 72.6326H148.641C150.02 72.6326 151.139 71.5134 151.139 70.1342C151.139 68.7549 150.02 67.6357 148.641 67.6357Z" fill="#5C5DB1"/>
<path d="M147.763 75.8428H142.576C141.197 75.8428 140.078 76.962 140.078 78.3412C140.078 79.7205 141.197 80.8397 142.576 80.8397H147.763C149.143 80.8397 150.262 79.7205 150.262 78.3412C150.262 76.962 149.143 75.8428 147.763 75.8428Z" fill="#D16978"/>
<path d="M151.692 84.0527H146.505C145.126 84.0527 144.006 85.1719 144.006 86.5512C144.006 87.9304 145.126 89.0496 146.505 89.0496H151.692C153.071 89.0496 154.191 87.9304 154.191 86.5512C154.191 85.1719 153.071 84.0527 151.692 84.0527Z" fill="#D16978"/>
<path d="M155.96 92.2627H142.576C141.197 92.2627 140.078 93.3819 140.078 94.7611C140.078 96.1404 141.197 97.2596 142.576 97.2596H155.96C157.339 97.2596 158.458 96.1404 158.458 94.7611C158.458 93.3819 157.339 92.2627 155.96 92.2627Z" fill="#F4BC4F"/>
<path d="M151.864 101.185H138.48C137.101 101.185 135.981 102.304 135.981 103.683C135.981 105.062 137.101 106.181 138.48 106.181H151.864C153.243 106.181 154.362 105.062 154.362 103.683C154.362 102.304 153.243 101.185 151.864 101.185Z" fill="#D16978"/>
<path d="M179.987 101.185H160.956C159.577 101.185 158.458 102.304 158.458 103.683C158.458 105.062 159.577 106.181 160.956 106.181H179.987C181.367 106.181 182.486 105.062 182.486 103.683C182.486 102.304 181.367 101.185 179.987 101.185Z" fill="#5C5DB1"/>
<path d="M166.251 125.812H147.22C145.841 125.812 144.722 126.931 144.722 128.31C144.722 129.689 145.841 130.808 147.22 130.808H166.251C167.63 130.808 168.75 129.689 168.75 128.31C168.75 126.931 167.63 125.812 166.251 125.812Z" fill="#D16978"/>
<path d="M153.253 142.228H134.222C132.842 142.228 131.723 143.347 131.723 144.726C131.723 146.105 132.842 147.224 134.222 147.224H153.253C154.632 147.224 155.751 146.105 155.751 144.726C155.751 143.347 154.632 142.228 153.253 142.228Z" fill="#5C5DB1"/>
<path d="M195.517 125.812H176.486C175.107 125.812 173.988 126.931 173.988 128.31C173.988 129.689 175.107 130.808 176.486 130.808H195.517C196.896 130.808 198.015 129.689 198.015 128.31C198.015 126.931 196.896 125.812 195.517 125.812Z" fill="#5C5DB1"/>
<path d="M150.039 134.021H138.118C136.738 134.021 135.619 135.141 135.619 136.52C135.619 137.899 136.738 139.018 138.118 139.018H150.039C151.418 139.018 152.537 137.899 152.537 136.52C152.537 135.141 151.418 134.021 150.039 134.021Z" fill="#5C5DB1"/>
<path d="M146.087 150.438H134.166C132.786 150.438 131.667 151.558 131.667 152.937C131.667 154.316 132.786 155.435 134.166 155.435H146.087C147.466 155.435 148.585 154.316 148.585 152.937C148.585 151.558 147.466 150.438 146.087 150.438Z" fill="#F4BC4F"/>
<path d="M172.302 134.021H160.381C159.002 134.021 157.883 135.141 157.883 136.52C157.883 137.899 159.002 139.018 160.381 139.018H172.302C173.681 139.018 174.801 137.899 174.801 136.52C174.801 135.141 173.681 134.021 172.302 134.021Z" fill="#5C5DB1"/>
<path d="M167.974 92.2627H164.704C163.325 92.2627 162.206 93.3819 162.206 94.7611C162.206 96.1404 163.325 97.2596 164.704 97.2596H167.974C169.353 97.2596 170.472 96.1404 170.472 94.7611C170.472 93.3819 169.353 92.2627 167.974 92.2627Z" fill="#D16978"/>
<path d="M192.601 101.185H189.331C187.952 101.185 186.833 102.304 186.833 103.683C186.833 105.062 187.952 106.181 189.331 106.181H192.601C193.98 106.181 195.099 105.062 195.099 103.683C195.099 102.304 193.98 101.185 192.601 101.185Z" fill="#F4BC4F"/>
<path d="M163.841 117.601H160.571C159.192 117.601 158.073 118.72 158.073 120.099C158.073 121.478 159.192 122.597 160.571 122.597H163.841C165.22 122.597 166.339 121.478 166.339 120.099C166.339 118.72 165.22 117.601 163.841 117.601Z" fill="#5C5DB1"/>
<path d="M166.246 142.228H162.977C161.597 142.228 160.478 143.347 160.478 144.726C160.478 146.105 161.597 147.224 162.977 147.224H166.246C167.625 147.224 168.745 146.105 168.745 144.726C168.745 143.347 167.625 142.228 166.246 142.228Z" fill="#D16978"/>
<path d="M166.144 84.0527H160.956C159.577 84.0527 158.458 85.1719 158.458 86.5512C158.458 87.9304 159.577 89.0496 160.956 89.0496H166.144C167.523 89.0496 168.642 87.9304 168.642 86.5512C168.642 85.1719 167.523 84.0527 166.144 84.0527Z" fill="#5C5DB1"/>
<path d="M186.508 84.0527H174.805C173.426 84.0527 172.307 85.1719 172.307 86.5512C172.307 87.9304 173.426 89.0496 174.805 89.0496H186.508C187.887 89.0496 189.006 87.9304 189.006 86.5512C189.006 85.1719 187.887 84.0527 186.508 84.0527Z" fill="#F4BC4F"/>
<path d="M167.973 75.8428H157.566C156.187 75.8428 155.068 76.962 155.068 78.3412C155.068 79.7205 156.187 80.8397 157.566 80.8397H167.973C169.353 80.8397 170.472 79.7205 170.472 78.3412C170.472 76.962 169.353 75.8428 167.973 75.8428Z" fill="#5C5DB1"/>
<path d="M179.987 67.6357H160.956C159.577 67.6357 158.458 68.7549 158.458 70.1342C158.458 71.5134 159.577 72.6326 160.956 72.6326H179.987C181.367 72.6326 182.486 71.5134 182.486 70.1342C182.486 68.7549 181.367 67.6357 179.987 67.6357Z" fill="#F4BC4F"/>
<path d="M289.878 110.598H234.104C227.96 110.598 222.981 114.87 222.981 120.142V160.032C222.981 165.304 227.96 169.576 234.104 169.576H289.878C296.021 169.576 301 165.304 301 160.032V120.142C301 114.87 296.021 110.598 289.878 110.598Z" fill="white" stroke="#525375" stroke-linecap="round" stroke-linejoin="round"/>
<path fill-rule="evenodd" clip-rule="evenodd" d="M262.007 160.119C250.997 160.119 242.031 151.162 242.031 140.143C242.031 129.125 250.988 120.168 262.007 120.168C273.025 120.168 281.982 129.125 281.982 140.143C281.982 151.162 273.025 160.119 262.007 160.119ZM262.007 120.438C251.136 120.438 242.301 129.28 242.301 140.143C242.301 151.014 251.144 159.857 262.007 159.857C272.87 159.857 281.712 151.014 281.712 140.143C281.72 129.28 272.878 120.438 262.007 120.438ZM262.007 157.256C260.477 157.256 258.972 157.051 257.508 156.659L262.318 142.867L267.275 156.43C265.581 156.978 263.815 157.256 262.007 157.256ZM253.622 155.055C248.289 152.045 244.903 146.319 244.903 140.143C244.903 138.074 245.263 136.07 245.982 134.156L253.622 155.055ZM276.379 140.201C277.156 137.984 277.68 135.702 277.876 133.738C278.694 135.759 279.119 137.943 279.119 140.143C279.119 145.959 276.166 151.342 271.34 154.491L276.379 140.201ZM251.79 132.307H253.532C253.884 132.307 254.179 132.013 254.179 131.653V130.597C254.179 130.237 253.892 129.943 253.541 129.943C251.708 130.041 249.86 130.074 248.166 130.09C251.389 125.649 256.502 123.031 262.015 123.031C265.958 123.031 269.745 124.381 272.788 126.851C271.479 127.203 270.367 128.258 270.309 130.139C270.26 131.833 270.972 133.01 271.733 134.254C272.993 136.323 274.285 138.458 272.592 143.62L270.727 149.289L264.96 132.307L266.596 132.299C266.948 132.299 267.242 132.004 267.242 131.644V130.589C267.242 130.229 266.956 129.935 266.604 129.935C264.903 130.008 263.217 130.049 261.557 130.049C259.896 130.049 258.228 130.008 256.584 129.935C256.207 129.935 255.921 130.229 255.921 130.589V131.644C255.921 132.004 256.207 132.299 256.559 132.299H258.35C258.424 132.299 258.465 132.307 258.481 132.307C258.481 132.315 261.033 139.284 261.033 139.284L257.647 149.509L251.79 132.307Z" fill="#5C5DB1"/>
<path d="M262.007 123.513C265.565 123.513 268.993 124.642 271.831 126.728C270.735 127.308 269.876 128.421 269.827 130.131C269.77 131.963 270.555 133.255 271.316 134.507C272.518 136.478 273.761 138.523 272.134 143.48L270.719 147.799L265.622 132.789H266.596C267.218 132.789 267.717 132.282 267.717 131.66V130.605C267.717 129.983 267.218 129.476 266.604 129.476C266.588 129.476 266.571 129.476 266.555 129.476C264.886 129.55 263.209 129.583 261.557 129.583C259.905 129.583 258.236 129.542 256.6 129.476C256.584 129.476 256.567 129.476 256.551 129.476C256.24 129.476 255.937 129.607 255.725 129.844C255.537 130.049 255.438 130.319 255.438 130.605V131.66C255.438 132.282 255.937 132.789 256.559 132.789H258.146L260.526 139.308L257.639 148.036L252.469 132.797H253.549C254.162 132.797 254.67 132.29 254.67 131.668V130.613C254.67 129.992 254.171 129.484 253.557 129.484C253.541 129.484 253.516 129.484 253.5 129.484C252.044 129.558 250.563 129.599 249.156 129.615C252.281 125.762 256.976 123.513 262.007 123.513ZM245.999 135.611L252.698 153.926C248.183 150.859 245.377 145.689 245.377 140.143C245.377 138.597 245.582 137.075 245.999 135.611ZM278.064 135.799C278.44 137.206 278.637 138.67 278.637 140.143C278.637 145.296 276.256 150.098 272.281 153.222L276.821 140.355C277.14 139.472 277.696 137.762 278.064 135.799ZM262.334 144.282L266.661 156.118C265.156 156.56 263.594 156.781 262.007 156.781C260.698 156.781 259.398 156.625 258.13 156.323L262.334 144.282ZM262.007 119.701C250.719 119.701 241.557 128.863 241.557 140.151C241.557 151.439 250.719 160.601 262.007 160.601C273.295 160.601 282.457 151.439 282.457 140.151C282.457 128.863 273.295 119.701 262.007 119.701ZM262.007 159.382C251.389 159.382 242.776 150.769 242.776 140.151C242.776 129.533 251.389 120.912 262.007 120.912C272.624 120.912 281.238 129.525 281.238 140.143C281.238 150.76 272.624 159.382 262.007 159.382ZM262.007 122.564C255.823 122.564 250.383 125.762 247.25 130.589C249.246 130.564 251.389 130.548 253.533 130.433H253.541C253.631 130.433 253.696 130.515 253.696 130.605V131.66C253.696 131.758 253.623 131.832 253.533 131.832H251.496C251.267 131.832 251.169 131.971 251.25 132.208L257.639 151.022L261.524 139.292L258.939 132.225C258.841 131.971 258.735 131.832 258.334 131.832H256.543C256.453 131.832 256.379 131.75 256.379 131.66V130.605C256.379 130.507 256.453 130.425 256.543 130.425H256.551C258.211 130.499 259.88 130.54 261.549 130.54C263.226 130.54 264.903 130.499 266.588 130.425H266.596C266.686 130.425 266.759 130.507 266.759 130.597V131.652C266.759 131.75 266.686 131.824 266.588 131.824H264.813C264.461 131.824 264.346 131.987 264.445 132.274L270.735 150.793L273.042 143.767C275.831 135.276 270.653 134.376 270.784 130.147C270.849 128.102 272.314 127.186 273.811 127.186C273.843 127.186 273.876 127.186 273.909 127.186C270.776 124.323 266.596 122.564 262.007 122.564ZM277.475 131.775C277.573 134.392 276.78 137.64 275.937 140.045L270.449 155.578C275.896 152.593 279.594 146.801 279.594 140.151C279.594 137.116 278.825 134.261 277.475 131.775ZM246.007 132.854C244.993 135.079 244.428 137.542 244.428 140.143C244.428 147.161 248.543 153.214 254.49 156.036L246.007 132.854ZM262.31 141.452L256.894 156.977C258.514 157.468 260.232 157.73 262.007 157.73C264.076 157.73 266.056 157.37 267.896 156.715L262.31 141.452Z" fill="#525375"/>
<path d="M230.822 120.242C232.335 120.242 233.554 119.023 233.554 117.509C233.554 115.996 232.335 114.777 230.822 114.777C229.317 114.777 228.09 115.996 228.09 117.509C228.09 119.023 229.308 120.242 230.822 120.242Z" fill="#D16978"/>
<path d="M289.674 1H233.683C227.515 1 222.517 5.99793 222.517 12.1656V90.881C222.517 97.0487 227.515 102.047 233.683 102.047H289.674C295.842 102.047 300.84 97.0487 300.84 90.881V12.1656C300.84 5.99793 295.842 1 289.674 1Z" fill="white" stroke="#525375" stroke-linecap="round" stroke-linejoin="round"/>
<path d="M261.389 91.3545C261.323 91.3545 261.25 91.3381 261.193 91.3054L243.09 81.2523C242.976 81.1868 242.894 81.0723 242.886 80.9414L239.614 52.6634C239.589 52.4753 239.704 52.2953 239.884 52.2299L261.25 44.6144C261.291 44.598 261.34 44.5898 261.389 44.5898C261.43 44.5898 261.479 44.598 261.52 44.6144L283.467 52.0908C283.646 52.1563 283.761 52.3362 283.736 52.5325L280.186 80.8024C280.17 80.9332 280.096 81.0478 279.982 81.1132L261.593 91.2972C261.528 91.3381 261.463 91.3545 261.389 91.3545Z" fill="#D16978"/>
<path d="M261.389 45.0074L283.336 52.4839L279.786 80.7537L261.397 90.9377L243.295 80.8846L240.031 52.6148L261.389 45.0074ZM261.389 44.1895C261.299 44.1895 261.201 44.2058 261.111 44.2385L239.745 51.8459C239.385 51.9767 239.164 52.3285 239.205 52.7129L242.469 80.9827C242.502 81.2445 242.657 81.4735 242.886 81.6044L260.988 91.6576C261.111 91.723 261.25 91.7639 261.389 91.7639C261.528 91.7639 261.659 91.7312 261.782 91.6576L280.17 81.4735C280.399 81.3508 280.555 81.1218 280.587 80.8601L284.137 52.5902C284.186 52.2058 283.957 51.8377 283.589 51.715L261.643 44.2385C261.569 44.2058 261.479 44.1895 261.389 44.1895Z" fill="#525375"/>
<path d="M270.559 80.4008C270.395 80.4008 270.256 80.3026 270.191 80.1554L267.369 73.636H255.966L253.397 80.0654C253.34 80.2208 253.193 80.319 253.021 80.319L248.039 80.4008C247.9 80.4008 247.778 80.3353 247.696 80.2126C247.622 80.0981 247.606 79.9509 247.663 79.82L260.98 50.1923C261.045 50.0451 261.193 49.9551 261.348 49.9551C261.504 49.9551 261.651 50.0451 261.716 50.1923L275.671 79.9018C275.728 80.0327 275.72 80.1799 275.647 80.2944C275.573 80.4089 275.442 80.4825 275.303 80.4825C275.319 80.4907 270.559 80.4008 270.559 80.4008ZM265.242 68.8589L261.414 60.8589L258.043 68.8589H265.242Z" fill="white"/>
<path d="M261.356 50.3727L275.319 80.0822L270.567 80.0004L267.638 73.2356H255.695L253.021 79.9186L248.047 80.0004L261.356 50.3727ZM257.43 69.2683H265.888L261.389 59.8614L257.43 69.2683ZM261.356 49.5547C261.029 49.5547 260.743 49.7428 260.612 50.0373L247.295 79.6568C247.18 79.9104 247.205 80.2049 247.36 80.4421C247.516 80.6711 247.769 80.8102 248.039 80.8102C248.047 80.8102 248.047 80.8102 248.055 80.8102L253.029 80.7284C253.356 80.7202 253.65 80.5239 253.773 80.213L256.244 74.0454H267.098L269.814 80.3194C269.945 80.6139 270.231 80.8102 270.55 80.8102L275.303 80.892C275.311 80.892 275.311 80.892 275.319 80.892C275.597 80.892 275.851 80.7529 276.006 80.5157C276.162 80.2785 276.178 79.9758 276.063 79.7223L262.1 50.0128C261.961 49.7347 261.675 49.5547 261.356 49.5547ZM258.665 68.4503L261.438 61.8573L264.595 68.4503H258.665Z" fill="#525375"/>
<path d="M230.117 11.3226C231.63 11.3226 232.849 10.1038 232.849 8.59049C232.849 7.07721 231.63 5.8584 230.117 5.8584C228.612 5.8584 227.385 7.07721 227.385 8.59049C227.385 10.1038 228.612 11.3226 230.117 11.3226Z" fill="#D16978"/>
<path d="M245.429 27.994C247.032 27.994 248.227 27.6995 248.979 27.1187C249.724 26.5461 250.247 25.5482 250.517 24.1494C250.771 22.8488 250.673 21.9408 250.231 21.45C249.781 20.951 248.799 20.6975 247.327 20.6975H244.767L243.351 27.994H245.429ZM237.061 36.9837C236.938 36.9837 236.832 36.9346 236.75 36.8365C236.677 36.7465 236.644 36.6238 236.668 36.5093L240.431 17.1637C240.464 16.9756 240.628 16.8447 240.824 16.8447H248.922C251.466 16.8447 253.364 17.54 254.558 18.8979C255.752 20.2721 256.129 22.1862 255.654 24.5911C255.466 25.5727 255.139 26.4807 254.681 27.2987C254.223 28.1167 253.617 28.8692 252.889 29.5481C252.014 30.3661 251.016 30.9633 249.936 31.315C248.873 31.6586 247.507 31.8385 245.879 31.8385H242.599L241.658 36.6565C241.625 36.8446 241.462 36.9755 241.266 36.9755H237.061V36.9837Z" fill="#F4BC4F" stroke="#525375" stroke-width="1.76141" stroke-miterlimit="10" stroke-linejoin="round"/>
<path d="M265.315 31.846C265.192 31.846 265.086 31.7969 265.004 31.6988C264.93 31.6088 264.897 31.4861 264.922 31.3716L266.582 22.8154C266.738 22.0056 266.705 21.4166 266.476 21.1712C266.337 21.024 265.912 20.7704 264.668 20.7704H261.658L259.564 31.527C259.531 31.7151 259.368 31.846 259.171 31.846H254.992C254.869 31.846 254.763 31.7969 254.681 31.6988C254.607 31.6088 254.574 31.4861 254.599 31.3716L258.362 12.026C258.394 11.8379 258.558 11.707 258.754 11.707H262.934C263.057 11.707 263.163 11.7561 263.245 11.8543C263.319 11.9442 263.351 12.0669 263.327 12.1815L262.419 16.8522H265.658C268.128 16.8522 269.797 17.2857 270.779 18.1855C271.777 19.1017 272.079 20.5577 271.703 22.5291L269.953 31.527C269.92 31.7151 269.756 31.846 269.56 31.846H265.315Z" fill="#F4BC4F" stroke="#525375" stroke-width="1.76141" stroke-miterlimit="10" stroke-linejoin="round"/>
<path d="M278.312 27.994C279.916 27.994 281.11 27.6995 281.863 27.1187C282.607 26.5461 283.13 25.5482 283.4 24.1494C283.654 22.8488 283.556 21.9408 283.114 21.45C282.664 20.951 281.683 20.6975 280.21 20.6975H277.65L276.235 27.994H278.312ZM269.944 36.9837C269.822 36.9837 269.715 36.9346 269.634 36.8365C269.56 36.7465 269.527 36.6238 269.552 36.5093L273.315 17.1637C273.347 16.9756 273.511 16.8447 273.707 16.8447H281.805C284.349 16.8447 286.247 17.54 287.441 18.8979C288.636 20.2721 289.012 22.1862 288.537 24.5911C288.349 25.5727 288.022 26.4807 287.564 27.2987C287.106 28.1167 286.501 28.8692 285.773 29.5481C284.897 30.3661 283.899 30.9633 282.82 31.315C281.756 31.6586 280.39 31.8385 278.762 31.8385H275.482L274.55 36.6565C274.517 36.8446 274.353 36.9755 274.157 36.9755H269.944V36.9837Z" fill="#F4BC4F" stroke="#525375" stroke-width="1.76141" stroke-miterlimit="10" stroke-linejoin="round"/>
<path d="M83.9268 32.1152H104.626C109.672 32.1152 113.713 36.1509 113.713 41.2031V149.154C113.713 154.2 109.678 158.242 104.626 158.242H83.9268C78.8807 158.242 74.8389 154.207 74.8389 149.154V41.2031C74.8389 36.2252 78.9489 32.1152 83.9268 32.1152Z" fill="white" stroke="#525375" stroke-width="1.1633" stroke-linecap="round" stroke-linejoin="round"/>
<path d="M81.1873 41.2033C82.5016 41.2033 83.5678 40.1371 83.5678 38.8228C83.5678 37.5086 82.5016 36.4424 81.1873 36.4424C79.8731 36.4424 78.8069 37.5086 78.8069 38.8228C78.8069 40.1371 79.8731 41.2033 81.1873 41.2033Z" fill="#D16978"/>
<path d="M6.64941 78.5684H43.0766C46.1953 78.5684 48.726 81.0991 48.726 84.2178V120.645C48.726 123.764 46.1953 126.294 43.0766 126.294H6.64941C3.53073 126.294 1 123.764 1 120.645V84.2178C1 80.9457 3.53073 78.5684 6.64941 78.5684Z" fill="#F4BC4F" stroke="#525375" stroke-miterlimit="10" stroke-linejoin="round"/>
<path d="M24.863 82.6191C13.9732 82.6191 5.05176 91.5278 5.05176 102.43C5.05176 113.32 13.9732 122.242 24.863 122.242C35.7528 122.242 44.6743 113.32 44.6743 102.43C44.6743 91.5278 35.7656 82.6191 24.863 82.6191ZM13.8326 113.474C10.8545 110.508 9.30799 106.533 9.30799 102.724C9.30799 102.673 9.30799 102.622 9.30799 102.584L24.5818 117.858L24.7224 117.998C20.7602 117.845 16.7979 116.439 13.8326 113.474ZM38.8843 109.153C36.8521 113.371 32.9793 116.567 28.4035 117.717L19.0347 108.335L9.72978 99.0305C9.75534 98.9283 9.7809 98.8133 9.80646 98.711C9.88315 98.3915 9.97262 98.0719 10.0749 97.7652C10.1643 97.4968 10.2538 97.2284 10.3561 96.9727C10.4072 96.8577 10.4455 96.7427 10.4967 96.6276C10.535 96.5254 10.5734 96.4359 10.6245 96.3337C10.8801 95.7457 11.1741 95.1705 11.4936 94.6209C11.5447 94.5315 11.5959 94.442 11.6598 94.3525C11.7365 94.2375 11.8132 94.1225 11.8771 93.9946C12.1071 93.6495 12.35 93.3045 12.5928 92.9849C13.0146 92.4353 13.4747 91.9241 13.9604 91.4256C14.4717 90.9143 15.0213 90.4414 15.5965 90.0068C16.0822 89.6362 16.5806 89.3039 17.1047 88.9971C17.3092 88.8693 17.5265 88.7543 17.7438 88.6392C18.0633 88.4731 18.3956 88.3069 18.7279 88.1663C18.8813 88.1024 19.0219 88.0385 19.1753 87.9746C19.4053 87.8851 19.6354 87.7956 19.8655 87.719C20.0955 87.6423 20.3384 87.5656 20.5685 87.4889C21.9361 87.0927 23.3932 86.8754 24.8886 86.8754C25.7066 86.8754 26.5118 86.9393 27.2915 87.0543C27.5983 87.1054 27.9178 87.1566 28.2118 87.2205C29.2726 87.4505 30.2952 87.7956 31.2666 88.2302C33.7589 89.3422 35.8807 91.0933 37.4783 93.2405L35.3566 95.0811C35.101 94.736 34.8326 94.4164 34.5514 94.0969C34.4619 93.9946 34.3597 93.8796 34.2574 93.7774C34.1296 93.6368 34.0018 93.509 33.8612 93.3811C33.3116 92.8571 32.7364 92.3714 32.1101 91.9496C31.9056 91.809 31.6883 91.6684 31.4711 91.5406C31.0109 91.2594 30.5252 91.0038 30.0268 90.7993C29.835 90.7098 29.6305 90.6331 29.4388 90.5564C29.196 90.467 28.9659 90.3775 28.723 90.3008C27.5088 89.9174 26.2307 89.7129 24.9014 89.7129C24.2112 89.7129 23.5338 89.764 22.8691 89.879C18.255 90.6203 14.4845 93.8668 12.874 98.1998L29.1448 114.471C29.4005 114.381 29.6561 114.279 29.9117 114.177C31.3944 113.55 32.7364 112.643 33.874 111.518C34.3469 111.045 34.7815 110.547 35.1777 110.01C35.4077 109.69 35.6378 109.358 35.8423 109.013C36.5325 107.863 37.0438 106.61 37.3633 105.281H30.5764V102.456H40.482C40.482 104.527 40.073 106.508 39.3189 108.323C39.1527 108.578 39.0121 108.872 38.8843 109.153Z" fill="white" stroke="#525375" stroke-miterlimit="10"/>
<path d="M63.77 105.967H100.197C103.316 105.967 105.847 108.498 105.847 111.616V148.043C105.847 151.162 103.316 153.693 100.197 153.693H63.77C60.6513 153.693 58.1206 151.162 58.1206 148.043V111.616C58.1206 108.485 60.6513 105.967 63.77 105.967Z" fill="#5C5DB1" stroke="#525375" stroke-miterlimit="10" stroke-linejoin="round"/>
<path d="M73.9445 148.108C73.1393 148.108 72.4107 147.929 71.81 147.571C69.4199 146.191 68.6658 142.241 69.7522 136.924C64.5885 135.237 61.5337 132.604 61.5337 129.83C61.5337 127.07 64.5757 124.449 69.7138 122.749C68.6146 117.445 69.3559 113.496 71.7461 112.115C72.3724 111.757 73.1009 111.566 73.8934 111.566C76.1685 111.566 79.0187 113.01 81.9585 115.63C84.911 112.984 87.7613 111.527 90.0236 111.527C90.816 111.527 91.5318 111.719 92.1453 112.077C94.5354 113.445 95.2896 117.407 94.2031 122.724C99.3668 124.411 102.422 127.044 102.422 129.818C102.422 132.578 99.3796 135.199 94.2542 136.899C95.3535 142.203 94.6121 146.152 92.222 147.533C91.6085 147.891 90.8799 148.07 90.0747 148.07C87.7996 148.07 84.9493 146.625 82.0096 144.005C79.0699 146.651 76.2196 148.108 73.9445 148.108ZM72.7175 137.742C72.6024 138.356 72.513 138.905 72.4491 139.417C72.0784 142.471 72.6152 144.491 73.331 144.9C73.4716 144.976 73.6761 145.028 73.9445 145.028C75.3632 145.028 77.5361 143.852 79.7984 141.845C78.8398 140.81 77.9068 139.672 76.9993 138.445C75.5166 138.292 74.0851 138.049 72.7175 137.742ZM84.1952 141.832C86.4576 143.826 88.6304 144.989 90.0619 144.989C90.3303 144.989 90.5348 144.951 90.6627 144.874C91.3784 144.452 91.9152 142.433 91.5318 139.378C91.4679 138.867 91.3784 138.317 91.2634 137.729C89.9086 138.036 88.477 138.279 86.9688 138.445C86.1125 139.634 85.1794 140.771 84.1952 141.832ZM81.1405 138.714C81.4217 139.046 81.7156 139.365 81.9968 139.685C82.2908 139.365 82.572 139.046 82.8404 138.726C82.5464 138.726 82.2652 138.739 81.9713 138.739C81.7028 138.726 81.4217 138.726 81.1405 138.714ZM78.6992 135.531C79.8368 135.62 80.936 135.659 81.984 135.659C83.0577 135.659 84.1697 135.608 85.2817 135.531C85.8568 134.687 86.432 133.767 87.0327 132.732C87.5568 131.812 88.068 130.84 88.5537 129.83C88.0808 128.833 87.5568 127.862 87.0327 126.942C86.4703 125.983 85.8824 125.05 85.2817 124.168C84.1441 124.079 83.0449 124.04 81.9968 124.04C80.9232 124.04 79.8112 124.092 78.6992 124.168C78.124 125.012 77.5489 125.919 76.9481 126.967C76.3858 127.952 75.8745 128.923 75.4271 129.869C75.9128 130.878 76.4241 131.85 76.9481 132.77C77.5105 133.716 78.0985 134.649 78.6992 135.531ZM73.4844 134.751C73.8806 134.841 74.2768 134.917 74.6986 134.994C74.558 134.764 74.4174 134.521 74.2768 134.291C74.1362 134.061 74.0084 133.818 73.8678 133.588C73.74 133.984 73.6122 134.368 73.4844 134.751ZM89.6913 134.266C89.5507 134.508 89.4101 134.751 89.2567 134.994C89.6657 134.917 90.0875 134.828 90.4837 134.738C90.3559 134.342 90.2281 133.933 90.0875 133.537C89.9597 133.78 89.8319 134.023 89.6913 134.266ZM70.4935 125.74C69.8928 125.945 69.3815 126.137 68.9342 126.328C66.0967 127.53 64.614 129 64.614 129.83C64.614 130.648 66.0967 132.118 68.9342 133.333C69.4199 133.537 69.9567 133.742 70.5191 133.933C70.9281 132.604 71.4393 131.224 72.0401 129.856C71.4265 128.463 70.9153 127.082 70.4935 125.74ZM91.928 129.818C92.5288 131.198 93.0528 132.578 93.4746 133.92C94.0753 133.716 94.5866 133.524 95.0339 133.333C97.8714 132.131 99.3541 130.661 99.3668 129.83C99.3668 129.012 97.8842 127.543 95.0467 126.341C94.5482 126.137 94.0114 125.932 93.449 125.74C93.04 127.07 92.5288 128.437 91.928 129.818ZM73.4716 124.91C73.5994 125.306 73.7272 125.715 73.8678 126.111C73.9956 125.868 74.1362 125.638 74.264 125.395C74.4046 125.152 74.5452 124.91 74.6986 124.667C74.2896 124.743 73.8806 124.82 73.4716 124.91ZM89.6913 125.382C89.8319 125.613 89.9597 125.855 90.0875 126.085C90.2281 125.689 90.3559 125.306 90.4709 124.922C90.0747 124.833 89.6785 124.756 89.2695 124.679C89.4101 124.897 89.5507 125.14 89.6913 125.382ZM73.9062 114.672C73.6377 114.672 73.4332 114.71 73.3054 114.787C72.5897 115.208 72.0528 117.228 72.4363 120.283C72.5002 120.819 72.6024 121.382 72.7047 121.931C74.0595 121.625 75.4911 121.382 76.9993 121.216C77.8684 120.027 78.8015 118.889 79.7728 117.829C77.6128 115.937 75.5422 114.787 74.1107 114.672H73.9062ZM86.9688 121.203C88.4642 121.369 89.8958 121.612 91.2506 121.919C91.3656 121.305 91.4551 120.756 91.519 120.244C91.8897 117.19 91.3529 115.17 90.6371 114.761C90.4837 114.684 90.292 114.633 90.0364 114.633H89.8446C88.4131 114.735 86.3425 115.899 84.1697 117.816C85.1155 118.838 86.0613 119.976 86.9688 121.203ZM82.8148 120.947C82.5336 120.615 82.2397 120.295 81.9585 119.976C81.6645 120.295 81.3833 120.615 81.1149 120.935C81.4089 120.935 81.6901 120.922 81.984 120.922C82.2652 120.935 82.5464 120.947 82.8148 120.947Z" fill="white"/>
<path d="M90.0361 112.18C90.7008 112.18 91.3143 112.334 91.8383 112.641C94.1134 113.944 94.6374 118.034 93.4743 123.173C98.5102 124.719 101.795 127.199 101.795 129.832C101.795 132.452 98.523 134.932 93.5127 136.478C94.6886 141.603 94.1773 145.681 91.9022 146.984C91.3654 147.291 90.7519 147.432 90.0745 147.432C87.8505 147.432 84.9491 145.86 82.0094 143.137C79.0696 145.885 76.1682 147.47 73.9443 147.47C73.2668 147.47 72.6533 147.33 72.1293 147.023C69.8542 145.719 69.3301 141.629 70.4933 136.491C65.4574 134.944 62.1725 132.465 62.1725 129.832C62.1725 127.211 65.4446 124.732 70.4677 123.185C69.2918 118.06 69.8031 113.983 72.0782 112.679C72.615 112.372 73.2285 112.219 73.9059 112.219C76.1299 112.219 79.0313 113.791 81.971 116.513C84.9108 113.765 87.8121 112.18 90.0361 112.18ZM91.7361 122.687C91.915 121.869 92.0556 121.076 92.1451 120.31C92.5157 117.229 92.0428 114.826 90.9436 114.2C90.688 114.059 90.394 113.995 90.0233 113.995V113.983C88.349 113.983 85.8821 115.325 83.2492 117.766C84.3867 118.955 85.5243 120.31 86.6107 121.805C88.4257 122.009 90.1639 122.303 91.7361 122.687ZM72.2188 122.7C73.8037 122.303 75.5292 122.009 77.3569 121.805C78.4305 120.31 79.5681 118.967 80.6929 117.779C78.0599 115.35 75.5803 114.021 73.9059 114.021V114.034C73.5352 114.034 73.2157 114.098 72.9729 114.238C71.8864 114.877 71.4135 117.28 71.797 120.361C71.8864 121.115 72.027 121.894 72.2188 122.7ZM79.7343 121.639C80.4756 121.6 81.2169 121.588 81.9838 121.588C82.7379 121.588 83.4792 121.613 84.2078 121.639C83.4664 120.693 82.7123 119.824 81.9582 119.057C81.2169 119.824 80.4628 120.693 79.7343 121.639ZM81.9838 136.299C83.2108 136.299 84.4251 136.248 85.6393 136.133C86.3039 135.174 86.9558 134.139 87.5821 133.053C88.1828 131.992 88.7452 130.918 89.2565 129.832C88.7452 128.745 88.1956 127.672 87.5821 126.624C86.9558 125.537 86.3039 124.515 85.6265 123.556C84.4251 123.454 83.2108 123.403 81.9966 123.403C80.7696 123.403 79.5553 123.454 78.3411 123.569C77.6764 124.527 77.0246 125.563 76.3983 126.649C75.7976 127.71 75.2224 128.784 74.7239 129.87C75.2352 130.956 75.7848 132.03 76.3983 133.078C77.0246 134.165 77.6764 135.187 78.3539 136.146C79.5425 136.235 80.7696 136.299 81.9838 136.299ZM90.1895 127.633C90.6113 126.56 90.982 125.486 91.2759 124.438C90.2151 124.182 89.1159 123.965 87.9655 123.799C88.3617 124.412 88.758 125.039 89.1286 125.691C89.5121 126.342 89.8572 126.994 90.1895 127.633ZM73.7781 127.659C74.1104 127.007 74.4555 126.368 74.8262 125.716C75.1968 125.064 75.5931 124.425 75.9893 123.799C74.839 123.965 73.7142 124.182 72.6661 124.438C72.9601 125.499 73.3307 126.572 73.7781 127.659ZM93.0525 134.74C93.8322 134.484 94.5991 134.229 95.2893 133.922C98.1524 132.708 99.9929 131.097 100.006 129.832C100.006 128.566 98.1524 126.969 95.3021 125.742C94.5863 125.448 93.8322 125.166 93.027 124.924C92.5796 126.496 91.9789 128.132 91.2376 129.819C91.9789 131.506 92.5924 133.155 93.0525 134.74ZM70.9406 134.74C71.388 133.168 71.9887 131.532 72.73 129.844C71.9759 128.157 71.3752 126.509 70.915 124.924C70.1354 125.179 69.3685 125.435 68.6783 125.742C65.8152 126.956 63.9747 128.566 63.9747 129.832C63.9747 131.097 65.828 132.695 68.6783 133.922C69.3813 134.216 70.1354 134.497 70.9406 134.74ZM87.9783 135.852C89.1286 135.686 90.2534 135.468 91.3015 135.2C90.9947 134.152 90.6241 133.065 90.1895 131.992C89.8572 132.644 89.5121 133.295 89.1414 133.935C88.7708 134.599 88.3745 135.238 87.9783 135.852ZM75.9893 135.852C75.5931 135.238 75.2096 134.612 74.8262 133.96C74.4427 133.308 74.0976 132.669 73.7653 132.017C73.3435 133.091 72.9729 134.165 72.6789 135.213C73.7397 135.481 74.8517 135.686 75.9893 135.852ZM90.0745 145.642C90.4451 145.642 90.7647 145.578 91.0075 145.438C92.0939 144.799 92.5669 142.396 92.1834 139.316C92.0939 138.561 91.9533 137.782 91.7616 136.964C90.1767 137.36 88.4512 137.654 86.6235 137.858C85.5498 139.354 84.4123 140.696 83.2875 141.885C85.9205 144.3 88.4001 145.642 90.0745 145.642ZM73.9315 145.681C75.6058 145.681 78.0854 144.339 80.7184 141.897C79.5809 140.709 78.4433 139.354 77.3569 137.858C75.5419 137.667 73.8164 137.36 72.2315 136.977C72.0526 137.795 71.912 138.587 71.8225 139.354C71.4519 142.434 71.9248 144.837 73.024 145.463C73.2668 145.591 73.5736 145.668 73.9315 145.681ZM81.9838 138.089C81.2297 138.089 80.4884 138.063 79.7598 138.037C80.5011 138.983 81.2553 139.852 82.0094 140.619C82.7507 139.84 83.5048 138.983 84.2333 138.037C83.492 138.076 82.7379 138.089 81.9838 138.089ZM90.0361 110.902C87.7227 110.902 84.8852 112.283 81.9582 114.801C79.0441 112.308 76.2066 110.941 73.8931 110.941C72.9856 110.941 72.1548 111.158 71.4263 111.567C68.8317 113.062 67.9625 116.948 68.9723 122.329C63.8085 124.144 60.8816 126.841 60.8816 129.832C60.8816 132.835 63.8213 135.545 68.9978 137.347C67.9881 142.741 68.8828 146.639 71.4774 148.122C72.1804 148.531 73.0112 148.748 73.9315 148.748C76.2449 148.748 79.0824 147.368 81.9966 144.85C84.9108 147.342 87.7482 148.71 90.0617 148.71C90.982 148.71 91.8127 148.505 92.5285 148.084C95.1231 146.588 95.9923 142.703 94.9825 137.322C100.133 135.519 103.06 132.81 103.06 129.819C103.06 126.815 100.121 124.106 94.9442 122.303C95.9539 116.91 95.0592 113.011 92.4646 111.529C91.7616 111.12 90.9436 110.915 90.0361 110.902ZM85.0769 117.868C87.2242 116.079 88.8986 115.35 89.87 115.274H90.0233C90.1256 115.274 90.2534 115.286 90.3301 115.325C90.5857 115.465 91.2631 116.974 90.8797 120.169C90.8414 120.488 90.7902 120.808 90.7391 121.166C89.6399 120.936 88.4896 120.757 87.3137 120.616C86.5851 119.632 85.831 118.712 85.0769 117.868ZM73.2029 121.166C73.1518 120.846 73.1007 120.514 73.0623 120.194C72.6661 116.974 73.3307 115.504 73.6247 115.338C73.6247 115.338 73.7014 115.299 73.9059 115.299H74.0848C75.0562 115.376 76.7306 116.104 78.8651 117.868C78.0982 118.737 77.3569 119.645 76.6539 120.591C75.4525 120.744 74.3021 120.936 73.2029 121.166ZM79.0441 124.77C80.041 124.694 81.0252 124.655 81.9838 124.655C82.9168 124.655 83.901 124.694 84.9108 124.757C85.4476 125.55 85.9716 126.381 86.4701 127.237C86.943 128.055 87.4031 128.924 87.8377 129.806C87.4031 130.701 86.943 131.57 86.4701 132.388C85.9461 133.308 85.4348 134.126 84.9235 134.88C83.9266 134.957 82.9424 134.995 81.9838 134.995C81.0507 134.995 80.0666 134.957 79.0568 134.893C78.52 134.101 77.996 133.27 77.4975 132.414C77.0246 131.596 76.5645 130.726 76.1299 129.844C76.5389 129.001 76.999 128.132 77.4975 127.263C78.0215 126.355 78.5328 125.524 79.0441 124.77ZM92.6308 129.819C93.1037 128.72 93.5127 127.633 93.8578 126.56C94.1773 126.675 94.4969 126.802 94.7908 126.93C97.7817 128.208 98.7147 129.512 98.7147 129.844C98.7147 130.177 97.7817 131.481 94.778 132.759C94.4969 132.874 94.2029 133.002 93.8706 133.117C93.5255 132.017 93.1037 130.918 92.6308 129.819ZM70.097 133.104C69.7775 132.989 69.458 132.861 69.164 132.733C66.1603 131.455 65.2273 130.151 65.2273 129.819C65.2273 129.499 66.1987 128.17 69.1512 126.905C69.4324 126.79 69.7264 126.662 70.0587 126.547C70.4166 127.633 70.8384 128.732 71.3113 129.832C70.8639 130.944 70.4549 132.043 70.097 133.104ZM87.3265 139.047C88.5151 138.907 89.6782 138.715 90.7647 138.485C90.8286 138.817 90.8669 139.137 90.9053 139.443C91.3015 142.677 90.6369 144.147 90.3557 144.313C90.3557 144.313 90.279 144.351 90.0745 144.351C89.1414 144.351 87.3904 143.661 85.1153 141.77C85.8821 140.913 86.6235 139.993 87.3265 139.047ZM73.9443 144.403C73.727 144.39 73.6503 144.351 73.6503 144.351C73.3819 144.198 72.7044 142.69 73.0879 139.507C73.1262 139.188 73.1774 138.868 73.2285 138.51C74.3277 138.74 75.478 138.919 76.6539 139.06C77.3825 140.031 78.1238 140.952 78.8907 141.795C76.6284 143.687 74.8901 144.39 73.9443 144.403Z" fill="#525375"/>
<path d="M81.9839 133.524C84.0161 133.524 85.6777 131.876 85.6777 129.831C85.6777 127.798 84.0289 126.137 81.9839 126.137C79.9388 126.137 78.29 127.786 78.29 129.831C78.29 131.863 79.9516 133.524 81.9839 133.524Z" fill="white" stroke="#525375" stroke-width="2.06182" stroke-miterlimit="10"/>
<path d="M63.77 48.7715H100.197C103.316 48.7715 105.847 51.3022 105.847 54.4209V90.8481C105.847 93.9668 103.316 96.4975 100.197 96.4975H63.77C60.6513 96.4975 58.1206 93.9668 58.1206 90.8481V54.4209C58.1206 51.3022 60.6513 48.7715 63.77 48.7715Z" fill="#D16978" stroke="#525375" stroke-miterlimit="10" stroke-linejoin="round"/>
<path d="M101.961 62.0258C101.961 62.0002 101.949 61.9874 101.949 61.9619C101.936 61.9363 101.923 61.8979 101.897 61.8724C101.885 61.8468 101.872 61.834 101.859 61.8085C101.846 61.7957 101.821 61.7701 101.808 61.7446C101.782 61.719 101.757 61.7062 101.744 61.6934C101.719 61.6807 101.693 61.6551 101.667 61.6423L94.1263 57.3222C94.0241 57.2583 93.9218 57.2327 93.8068 57.2327C93.6917 57.2327 93.5895 57.2583 93.4872 57.3222L85.9462 61.6423H85.9334C85.9206 61.6551 85.895 61.6807 85.8695 61.6934C85.8439 61.7062 85.8311 61.719 85.8056 61.7446C85.7928 61.7701 85.7672 61.7957 85.7544 61.8085C85.7417 61.834 85.7161 61.8468 85.7161 61.8724C85.6905 61.8979 85.6778 61.9363 85.665 61.9619C85.665 61.9874 85.6522 62.0002 85.6522 62.0258C85.6266 62.0769 85.6266 62.128 85.6266 62.1791V70.3976L79.3382 73.9892V57.9357C79.3382 57.8846 79.3254 57.8207 79.3126 57.7695C79.2998 57.7567 79.2998 57.7312 79.287 57.7184C79.2742 57.6801 79.2615 57.6545 79.2487 57.6161C79.2359 57.6034 79.2231 57.5906 79.2103 57.565C79.1848 57.5395 79.172 57.5139 79.1464 57.4883C79.1336 57.4756 79.1081 57.4628 79.0825 57.45C79.0697 57.4244 79.0442 57.4116 79.0186 57.3989L71.4648 53.0659C71.3753 53.0148 71.2603 52.9893 71.1452 52.9893C71.043 52.9893 70.9279 53.0148 70.8385 53.0659L63.2846 57.3989C63.2591 57.4116 63.2335 57.4244 63.2207 57.45C63.1952 57.4628 63.1696 57.4756 63.1568 57.4883C63.1312 57.5139 63.1185 57.5395 63.0929 57.565C63.0801 57.5906 63.0673 57.6034 63.0546 57.6161C63.0418 57.6545 63.029 57.6801 63.0162 57.7184C63.0034 57.7312 63.0034 57.7567 62.9907 57.7695C62.9779 57.8207 62.9651 57.8846 62.9651 57.9357V83.6392C62.9651 83.7543 63.0034 83.8693 63.0546 83.9588C63.1057 84.0482 63.1952 84.1377 63.2846 84.1888L78.3923 92.8291C78.4179 92.8547 78.4562 92.8547 78.4946 92.8674C78.5074 92.8802 78.5201 92.893 78.5457 92.893C78.648 92.9186 78.763 92.9186 78.8652 92.893C78.878 92.893 78.8908 92.8802 78.9036 92.8802C78.9419 92.8674 78.9803 92.8547 79.0186 92.8291L94.1263 84.1888C94.318 84.0738 94.4331 83.8693 94.4331 83.6392V75.4335L101.667 71.2923C101.77 71.2412 101.846 71.1645 101.897 71.0623C101.961 70.9728 101.987 70.8578 101.987 70.7555V62.1791C101.987 62.128 101.974 62.0769 101.961 62.0258ZM71.158 54.3313L77.4465 57.9357L71.1452 61.5401L64.8567 57.9357L71.158 54.3313ZM78.0728 59.0221V74.7178L74.4301 76.8011L71.7843 78.3094V62.6137L75.427 60.5303L78.0728 59.0221ZM78.0728 91.2059L64.2305 83.2813V59.0221L66.8762 60.5303L70.5189 62.6137V79.3958C70.5189 79.4213 70.5317 79.4469 70.5317 79.4725C70.5317 79.498 70.5317 79.5364 70.5445 79.5619C70.5445 79.5875 70.5701 79.6131 70.5701 79.6258C70.5828 79.6642 70.5956 79.6897 70.6084 79.7153C70.6212 79.7281 70.634 79.7537 70.6595 79.7792C70.6723 79.792 70.6851 79.8176 70.7107 79.8431C70.7234 79.8559 70.749 79.8687 70.7618 79.8815C70.7873 79.907 70.8129 79.9198 70.8385 79.9326V79.9454L78.0728 84.0099V91.2059ZM78.6991 82.9235L72.4234 79.3958L79.0186 75.6125L86.2529 71.4713L92.5414 75.0756L87.9273 77.6958L78.6991 82.9235ZM93.1805 83.2813L79.3382 91.2059V84.0099L89.5889 78.1943L93.1805 76.1493V83.2813ZM93.1805 73.9892L90.5347 72.481L86.8792 70.3976V63.2656L89.525 64.7738L93.1805 66.8699V73.9892ZM93.8068 65.7835L87.5183 62.1791L93.8068 58.5875L100.095 62.1791L93.8068 65.7835ZM100.734 70.3976L94.4331 73.9892V66.8699L98.0886 64.7738L100.734 63.2656V70.3976Z" fill="#525375"/>
<path d="M77.4464 57.9354L71.1452 61.5398L64.8567 57.9354L71.158 54.3311L77.4464 57.9354Z" fill="white"/>
<path d="M100.734 63.2656V70.3977L94.4329 73.9893V66.87L98.0884 64.7738L100.734 63.2656Z" fill="white"/>
<path d="M93.1804 66.87V73.9893L90.5347 72.4811L86.8792 70.3977V63.2656L89.5249 64.7738L93.1804 66.87Z" fill="white"/>
<path d="M100.095 62.1795L93.8066 65.7839L87.5181 62.1795L93.8066 58.5879L100.095 62.1795Z" fill="white"/>
<path d="M93.179 76.1494V83.2815L79.3367 91.206V84.01L89.5874 78.1945L93.179 76.1494Z" fill="white"/>
<path d="M92.5411 75.0751L87.927 77.6953L78.6988 82.9229L72.4231 79.3952L79.0183 75.6119L86.2526 71.4707L92.5411 75.0751Z" fill="white"/>
<path d="M78.0729 59.0225V74.7181L74.4302 76.8015L71.7844 78.3097V62.6141L75.4271 60.5307L78.0729 59.0225Z" fill="white"/>
<path d="M78.0726 84.0102V91.2062L64.2302 83.2817V59.0225L66.876 60.5307L70.5187 62.6141V79.3961C70.5187 79.4217 70.5315 79.4472 70.5315 79.4728C70.5315 79.4984 70.5315 79.5367 70.5443 79.5623C70.5443 79.5878 70.5698 79.6134 70.5698 79.6262C70.5826 79.6645 70.5954 79.6901 70.6082 79.7157C70.621 79.7284 70.6337 79.754 70.6593 79.7796C70.6721 79.7923 70.6849 79.8179 70.7104 79.8435C70.7232 79.8563 70.7488 79.869 70.7616 79.8818C70.7871 79.9074 70.8127 79.9202 70.8382 79.9329V79.9457L78.0726 84.0102Z" fill="white"/>
<path d="M110.718 48.9256C111.373 48.9256 111.907 48.3915 111.907 47.7367C111.907 47.0819 111.373 46.5479 110.718 46.5479C110.063 46.5479 109.529 47.0819 109.529 47.7367C109.529 48.3915 110.063 48.9256 110.718 48.9256Z" fill="#525375"/>
<path d="M123.972 53.3795C124.581 53.3795 125.077 52.8826 125.077 52.2742C125.077 51.6658 124.581 51.1689 123.972 51.1689C123.364 51.1689 122.867 51.6658 122.867 52.2742C122.867 52.8826 123.364 53.3795 123.972 53.3795Z" fill="#525375"/>
<path d="M110.718 47.7504C113.542 47.4253 115.213 48.0987 116.216 48.7628C117.638 49.6916 117.925 50.7829 119.467 51.6327C120.86 52.3386 122.444 52.5662 123.981 52.2875" stroke="#525375" stroke-miterlimit="10"/>
<path d="M212.56 72.3264C213.215 72.3264 213.749 72.8604 213.749 73.5152C213.749 74.17 213.215 74.7041 212.56 74.7041C211.905 74.7041 211.371 74.17 211.371 73.5152C211.371 72.8604 211.905 72.3264 212.56 72.3264Z" fill="#525375"/>
<path d="M225.814 67.8725C226.423 67.8725 226.92 68.3694 226.92 68.9777C226.92 69.5861 226.423 70.083 225.814 70.083C225.206 70.083 224.709 69.5861 224.709 68.9777C224.709 68.3694 225.206 67.8725 225.814 67.8725Z" fill="#525375"/>
<path d="M212.56 73.5016C215.384 73.8266 217.056 73.1533 218.059 72.4892C219.48 71.5604 219.768 70.4691 221.31 69.6192C222.703 68.9133 224.286 68.6858 225.823 68.9644" stroke="#525375" stroke-miterlimit="10"/>
<path d="M212.56 144.772C213.215 144.772 213.749 145.306 213.749 145.961C213.749 146.615 213.215 147.149 212.56 147.149C211.905 147.149 211.371 146.615 211.371 145.961C211.371 145.306 211.905 144.772 212.56 144.772Z" fill="#525375"/>
<path d="M225.814 140.319C226.423 140.319 226.92 140.816 226.92 141.424C226.92 142.032 226.423 142.529 225.814 142.529C225.206 142.529 224.709 142.032 224.709 141.424C224.709 140.816 225.206 140.319 225.814 140.319Z" fill="#525375"/>
<path d="M212.56 145.948C215.384 146.273 217.056 145.6 218.059 144.935C219.48 144.007 219.768 142.915 221.31 142.066C222.703 141.36 224.286 141.132 225.823 141.411" stroke="#525375" stroke-miterlimit="10"/>
<path d="M190.474 56.8575V56.1651L194.726 53.4766L195.118 54.308L191.586 56.4951L195.118 58.6822L194.726 59.5137L190.474 56.8575Z" fill="#525375"/>
<path d="M197.833 62.7653H196.975L199.832 50.2266H200.69L197.833 62.7653Z" fill="#525375"/>
<path d="M207.656 56.1418V56.8485L203.417 59.5137L203.012 58.6683L206.531 56.4871L203.012 54.3058L203.405 53.4766L207.656 56.1418Z" fill="#525375"/>
</svg>
