<svg width="495" height="26" viewBox="0 0 495 26" fill="none" xmlns="http://www.w3.org/2000/svg">
<path d="M6.45431 18.9788C6.23175 18.7555 6.23175 18.7555 6.23175 18.5322V6.92191C6.23175 6.69864 6.23175 6.47536 6.45431 6.47536C6.67687 6.25208 6.67687 6.25208 6.89944 6.25208H18.2501C18.4727 6.25208 18.6952 6.25208 18.6952 6.02881C18.9178 5.80553 18.9178 5.80553 18.9178 5.58226V0.893482C18.9178 0.670208 18.9178 0.44693 18.6952 0.44693C18.4727 0.223656 18.4727 0.223656 18.2501 0.223656H10.9056H4.89637H4.22869C3.561 0.223656 3.11587 0.223656 2.67075 0.44693C2.22562 0.670206 1.7805 0.893482 1.33537 1.34003C0.89025 1.78658 0.667687 2.23313 0.445125 2.67968C0 3.34951 0 3.79606 0 4.46588V4.91243V7.59173V16.0762V18.3089V20.9882C0 21.6581 0 22.1046 0.222562 22.5512C0.445125 22.9977 0.667687 23.4443 1.11281 23.8908C1.55794 24.3374 2.00306 24.5606 2.44819 24.7839C3.11587 25.0072 3.561 25.2305 4.22869 25.2305H4.89637H18.4727C18.6952 25.2305 18.9178 25.2305 18.9178 25.0072C19.1404 24.7839 19.1404 24.7839 19.1404 24.5606V19.8719C19.1404 19.6486 19.1404 19.4253 18.9178 19.4253C18.6952 19.202 18.6952 19.202 18.4727 19.202H6.89944C6.67687 19.202 6.67687 18.9788 6.45431 18.9788Z" fill="#6C6DB9"/>
<path d="M53.4539 6.25208C53.6765 6.25208 53.8991 6.25208 53.8991 6.02881C54.1216 5.80553 54.1216 5.80553 54.1216 5.58226V0.893482C54.1216 0.670208 54.1216 0.44693 53.8991 0.44693C53.6765 0.223656 53.6765 0.223656 53.4539 0.223656H38.0971C37.652 0.223656 37.4294 0.446932 37.4294 0.893482V24.5606C37.4294 25.0072 37.652 25.2305 38.0971 25.2305H42.9935C43.4386 25.2305 43.6612 25.0072 43.6612 24.5606V6.92191C43.6612 6.69864 43.6612 6.47536 43.8838 6.47536C44.1063 6.25208 44.1063 6.25208 44.3289 6.25208H53.4539Z" fill="#6C6DB9"/>
<path d="M89.3255 25.0072C89.5481 24.7839 89.5481 24.7839 89.5481 24.5606V22.5512V21.4348V20.0951C89.5481 19.8719 89.5481 19.6486 89.3255 19.6486C89.103 19.4253 89.103 19.4253 88.8804 19.4253H86.4322H78.8651H76.862C76.6395 19.4253 76.6395 19.4253 76.6395 19.202V15.4064C76.6395 15.4064 76.6395 15.1831 76.862 15.1831H87.0999C87.3225 15.1831 87.545 15.1831 87.545 14.9598C87.545 14.9598 87.7676 14.7365 87.7676 14.5133V10.9409C87.7676 10.7176 87.7676 10.4943 87.545 10.4943C87.3225 10.271 87.3225 10.271 87.0999 10.271H76.862C76.6395 10.271 76.6395 10.271 76.6395 10.0478V8.26156V6.25209C76.6395 6.02881 76.6395 6.02881 76.862 6.02881H78.42H86.4322H88.8804C89.103 6.02881 89.3255 6.02881 89.3255 5.80554C89.5481 5.58226 89.5481 5.58226 89.5481 5.35899V4.01933V2.23313V1.11676C89.5481 0.893484 89.5481 0.670208 89.3255 0.670208C89.103 0.446934 89.103 0.446934 88.8804 0.446934H86.8773H73.301H71.0754C70.6303 0.446934 70.4077 0.670208 70.4077 1.11676V2.23313V22.7744V24.5606C70.4077 24.7839 70.4077 25.0072 70.6303 25.0072C70.6303 25.2305 70.8528 25.2305 71.0754 25.2305H73.7462H87.7676H88.8804C89.103 25.2305 89.103 25.2305 89.3255 25.0072Z" fill="#6C6DB9"/>
<path d="M129.648 25.0072C129.648 24.7839 129.648 24.7839 129.648 24.5606L122.303 0.893482C122.303 0.670208 122.081 0.44693 122.081 0.44693C121.858 0.223656 121.636 0.223656 121.636 0.223656H114.959C114.736 0.223656 114.514 0.223656 114.514 0.44693C114.291 0.670206 114.291 0.670208 114.291 0.893482L106.501 24.5606C106.501 24.7839 106.501 25.0072 106.501 25.0072C106.724 25.2305 106.947 25.2305 107.169 25.2305H112.511C112.733 25.2305 112.956 25.2305 112.956 25.0072C113.178 24.7839 113.178 24.7839 113.178 24.5606L118.075 6.92191L122.971 24.5606C122.971 24.7839 123.194 25.0072 123.194 25.0072C123.416 25.2305 123.639 25.2305 123.861 25.2305H129.203C129.425 25.2305 129.648 25.2305 129.648 25.0072Z" fill="#6C6DB9"/>
<path d="M165.742 25.0072C165.965 24.7839 165.965 24.7839 165.965 24.5606V22.5512V21.4348V20.0951C165.965 19.8719 165.965 19.6486 165.742 19.6486C165.519 19.4253 165.519 19.4253 165.297 19.4253H162.849H155.504H153.279C153.056 19.4253 153.056 19.4253 153.056 19.202V15.4064C153.056 15.4064 153.056 15.1831 153.279 15.1831H163.516C163.739 15.1831 163.962 15.1831 163.962 14.9598C164.184 14.7365 164.184 14.7365 164.184 14.5133V10.9409C164.184 10.7176 164.184 10.4943 163.962 10.4943C163.739 10.271 163.739 10.271 163.516 10.271H153.279C153.056 10.271 153.056 10.271 153.056 10.0478V8.26156V6.25209C153.056 6.02881 153.056 6.02881 153.279 6.02881H154.836H162.849H165.297C165.519 6.02881 165.742 6.02881 165.742 5.80554C165.965 5.58226 165.965 5.58226 165.965 5.35899V4.01933V2.23313V1.11676C165.965 0.893484 165.965 0.670208 165.742 0.670208C165.519 0.446934 165.519 0.446934 165.297 0.446934H163.294H149.718H147.492C147.047 0.446934 146.824 0.670208 146.824 1.11676V2.23313V22.7744V24.5606C146.824 24.7839 146.824 25.0072 147.047 25.0072C147.269 25.2305 147.269 25.2305 147.492 25.2305H150.163H164.184H165.297C165.519 25.2305 165.519 25.2305 165.742 25.0072Z" fill="#6C6DB9"/>
<path d="M206.065 0.670206C206.065 0.446932 206.065 0.446932 206.065 0.223656C206.065 0.223656 205.842 0.00038147 205.62 0.00038147H200.056C199.833 0.00038147 199.61 0.00038147 199.388 0.223656C199.165 0.223656 199.165 0.446932 198.943 0.670206L195.159 7.36846L194.937 7.59173H190.708C190.485 7.59173 190.485 7.59173 190.485 7.36846V0.670206C190.485 0.223656 190.263 0.00038147 189.818 0.00038147H184.921C184.476 0.00038147 184.254 0.223656 184.254 0.670206V24.5606C184.254 25.0072 184.476 25.2305 184.921 25.2305H200.946C201.614 25.2305 202.059 25.0072 202.504 24.7839C202.949 24.5606 203.394 24.3374 203.839 23.8908C204.284 23.4443 204.507 22.9977 204.729 22.5512C204.952 22.1046 205.175 21.4348 205.175 20.9882V11.6107C205.175 10.7176 204.952 9.82449 204.284 9.15466C203.839 8.48484 203.171 8.03828 202.281 7.59173C202.059 7.59173 202.059 7.36846 202.281 7.36846L206.065 0.670206ZM198.943 19.4253H190.485V13.3969H199.165V19.4253H198.943Z" fill="#6C6DB9"/>
<path d="M242.826 18.9788C242.604 18.7555 242.604 18.7555 242.604 18.5322V6.92191C242.604 6.69864 242.604 6.47536 242.826 6.47536C243.049 6.25208 243.049 6.25208 243.271 6.25208H254.622C254.845 6.25208 255.067 6.25208 255.067 6.02881C255.29 5.80553 255.29 5.80553 255.29 5.58226V0.893482C255.29 0.670208 255.29 0.44693 255.067 0.44693C254.845 0.223656 254.845 0.223656 254.622 0.223656H247.277H241.046H240.378C239.71 0.223656 239.265 0.223656 238.82 0.44693C238.375 0.670206 237.93 0.893482 237.485 1.34003C237.04 1.78658 236.817 2.23313 236.594 2.67968C236.372 3.12623 236.372 3.79606 236.372 4.24261V4.91243V7.59173V16.0762V18.3089V20.9882C236.372 21.6581 236.372 22.1046 236.594 22.5512C236.817 22.9977 237.04 23.4443 237.485 23.8908C237.93 24.3374 238.375 24.5606 238.82 24.7839C239.265 25.0072 239.933 25.2305 240.378 25.2305H241.046H254.622C254.845 25.2305 255.067 25.2305 255.067 25.0072C255.29 24.7839 255.29 24.7839 255.29 24.5606V19.8719C255.29 19.6486 255.29 19.4253 255.067 19.4253C254.845 19.202 254.845 19.202 254.622 19.202H243.271C243.049 19.202 242.826 18.9788 242.826 18.9788Z" fill="#6C6DB9"/>
<path d="M290.493 25.2305C291.161 25.2305 291.606 25.0072 292.051 24.7839C292.496 24.5606 292.942 24.3374 293.387 23.8908C293.832 23.4443 294.054 22.9977 294.277 22.5512C294.5 22.1046 294.722 21.4348 294.722 20.9882V4.24261C294.722 3.57278 294.5 3.12623 294.277 2.67968C294.054 2.23313 293.832 1.78658 293.387 1.34003C292.942 0.893482 292.496 0.670206 292.051 0.44693C291.606 0.223656 290.939 0.223656 290.493 0.223656H277.807C277.14 0.223656 276.695 0.223656 276.249 0.44693C275.804 0.670206 275.359 0.893482 274.914 1.34003C274.469 1.78658 274.246 2.23313 274.024 2.67968C273.801 3.12623 273.801 3.79606 273.801 4.24261V20.9882C273.801 21.6581 273.801 22.1046 274.024 22.5512C274.246 22.9977 274.469 23.4443 274.914 23.8908C275.359 24.3374 275.804 24.5606 276.249 24.7839C276.695 25.0072 277.362 25.2305 277.807 25.2305H290.493ZM288.268 19.202H279.81V6.25208H288.268V19.202Z" fill="#6C6DB9"/>
<path d="M329.703 25.2305C330.371 25.2305 330.816 25.0072 331.261 24.7839C331.706 24.5606 332.152 24.3374 332.597 23.8908C333.042 23.4443 333.264 22.9977 333.487 22.5512C333.71 22.1046 333.932 21.4348 333.932 20.9882V4.24261C333.932 3.57278 333.71 3.12623 333.487 2.67968C333.264 2.23313 333.042 1.78658 332.597 1.34003C332.152 0.893482 331.706 0.670206 331.261 0.44693C330.816 0.223656 330.149 0.223656 329.703 0.223656H313.679C313.234 0.223656 313.011 0.446932 313.011 0.893482V24.5606C313.011 25.0072 313.234 25.2305 313.679 25.2305H329.703ZM319.243 6.25208H327.7V19.202H319.243V6.25208Z" fill="#6C6DB9"/>
<path d="M371.139 25.0072C371.361 24.7839 371.361 24.7839 371.361 24.5606V22.5512V21.4348V20.0951C371.361 19.8719 371.361 19.6486 371.139 19.6486C370.916 19.4253 370.916 19.4253 370.694 19.4253H368.246H360.901H358.898C358.675 19.4253 358.675 19.4253 358.675 19.202V15.4064C358.675 15.4064 358.675 15.1831 358.898 15.1831H369.136C369.358 15.1831 369.581 15.1831 369.581 14.9598C369.803 14.7365 369.803 14.7365 369.803 14.5133V10.9409C369.803 10.7176 369.803 10.4943 369.581 10.4943C369.358 10.271 369.358 10.271 369.136 10.271H358.898C358.675 10.271 358.675 10.271 358.675 10.0478V8.26156V6.25209C358.675 6.02881 358.675 6.02881 358.898 6.02881H360.456H368.468H370.916C371.139 6.02881 371.361 6.02881 371.361 5.80554C371.584 5.58226 371.584 5.58226 371.584 5.35899V4.01933V2.23313V1.11676C371.584 0.893484 371.584 0.670208 371.361 0.670208C371.139 0.446934 371.139 0.446934 370.916 0.446934H368.913H355.337H353.111C352.666 0.446934 352.444 0.670208 352.444 1.11676V2.23313V22.7744V24.5606C352.444 24.7839 352.444 25.0072 352.666 25.0072C352.666 25.2305 352.666 25.2305 352.889 25.2305H355.559H369.581H370.694C370.916 25.2305 370.916 25.2305 371.139 25.0072Z" fill="#6C6DB9"/>
<path d="M417.916 19.201C418.138 19.201 418.361 19.201 418.361 19.4243C418.584 19.6476 418.584 19.6476 418.584 19.8709V24.5596C418.584 24.7829 418.584 25.0062 418.361 25.0062C418.138 25.2295 418.138 25.2295 417.916 25.2295H402.559C402.114 25.2295 401.891 25.0062 401.891 24.5596V0.892482C401.891 0.445931 402.114 0.222656 402.559 0.222656H407.455C407.901 0.222656 408.123 0.445931 408.123 0.892482V18.5312C408.123 18.7545 408.123 18.9778 408.346 18.9778C408.568 19.201 408.568 19.201 408.791 19.201H417.916Z" fill="#6C6DB9"/>
<path d="M451.562 25.2305C452.23 25.2305 452.675 25.0072 453.12 24.7839C453.565 24.5606 454.01 24.3374 454.455 23.8908C454.9 23.4443 455.123 22.9977 455.345 22.5512C455.568 22.1046 455.79 21.4348 455.79 20.9882V0.893482C455.79 0.670208 455.791 0.44693 455.568 0.44693C455.345 0.223656 455.345 0.223656 455.123 0.223656H450.226C450.004 0.223656 449.781 0.223656 449.781 0.44693C449.559 0.670206 449.559 0.670208 449.559 0.893482V7.36846C449.559 7.59173 449.559 7.81501 449.336 7.81501C449.114 8.03828 449.114 8.03829 448.891 8.03829H441.769C441.547 8.03829 441.324 8.03828 441.324 7.81501C441.101 7.59173 441.101 7.59173 441.101 7.36846V0.893482C441.101 0.446932 440.879 0.223656 440.434 0.223656H435.537C435.092 0.223656 434.87 0.446932 434.87 0.893482V20.9882C434.87 21.6581 434.87 22.1046 435.092 22.5512C435.315 22.9977 435.537 23.4443 435.982 23.8908C436.428 24.3374 436.873 24.5606 437.318 24.7839C437.763 25.0072 438.431 25.2305 438.876 25.2305H451.562V25.2305ZM449.336 13.3969V19.6486H440.879V13.3969H449.336Z" fill="#6C6DB9"/>
<path d="M492.997 13.1736C492.774 12.9503 492.774 12.9503 492.774 12.7271C492.774 12.5038 492.774 12.2805 492.997 12.2805L494.555 10.4943C494.777 10.271 494.777 10.271 494.777 10.0478C494.777 9.82449 495 9.60121 495 9.37794V4.46589C495 3.79606 494.777 3.34951 494.555 2.90296C494.332 2.45641 494.11 2.00986 493.665 1.56331C493.219 1.11676 492.774 0.893484 492.329 0.670208C491.884 0.446934 491.216 0.446934 490.771 0.446934H474.747C474.302 0.446934 474.079 0.670208 474.079 1.11676V24.5606C474.079 25.0072 474.302 25.2305 474.747 25.2305H490.771C491.439 25.2305 491.884 25.0072 492.329 24.7839C492.774 24.5606 493.219 24.3374 493.665 23.8908C494.11 23.4443 494.332 22.9977 494.555 22.5512C494.777 22.1046 495 21.4348 495 20.9882V16.2995C495 16.0762 495 15.8529 494.777 15.6296C494.777 15.4064 494.555 15.1831 494.555 15.1831L492.997 13.1736ZM489.213 19.8719H479.643V15.4064H489.213V19.8719ZM489.213 10.4943H479.643V5.58226H489.213V10.4943Z" fill="#6C6DB9"/>
</svg>
