<svg width="495" height="26" viewBox="0 0 495 26" fill="none" xmlns="http://www.w3.org/2000/svg">
<path d="M6.45431 19.0286C6.23175 18.8053 6.23175 18.8053 6.23175 18.582V6.97171C6.23175 6.74844 6.23175 6.52517 6.45431 6.52517C6.67687 6.30189 6.67687 6.30189 6.89944 6.30189H18.2501C18.4727 6.30189 18.6952 6.30189 18.6952 6.07861C18.9178 5.85534 18.9178 5.85534 18.9178 5.63206V0.943287C18.9178 0.720013 18.9178 0.496735 18.6952 0.496735C18.4727 0.27346 18.4727 0.27346 18.2501 0.27346H10.9056H4.89637H4.22869C3.561 0.27346 3.11587 0.27346 2.67075 0.496735C2.22562 0.720011 1.7805 0.943287 1.33537 1.38984C0.89025 1.83639 0.667687 2.28294 0.445125 2.72949C0 3.39931 0 3.84586 0 4.51569V4.96224V7.64154V16.126V18.3587V21.038C0 21.7079 0 22.1544 0.222562 22.601C0.445125 23.0475 0.667687 23.4941 1.11281 23.9406C1.55794 24.3872 2.00306 24.6104 2.44819 24.8337C3.11587 25.057 3.561 25.2803 4.22869 25.2803H4.89637H18.4727C18.6952 25.2803 18.9178 25.2803 18.9178 25.057C19.1404 24.8337 19.1404 24.8337 19.1404 24.6104V19.9217C19.1404 19.6984 19.1404 19.4751 18.9178 19.4751C18.6952 19.2518 18.6952 19.2518 18.4727 19.2518H6.89944C6.67687 19.2518 6.67687 19.0286 6.45431 19.0286Z" fill="#EFEFF7"/>
<path d="M53.4539 6.30189C53.6765 6.30189 53.8991 6.30189 53.8991 6.07861C54.1216 5.85534 54.1216 5.85534 54.1216 5.63206V0.943287C54.1216 0.720013 54.1216 0.496735 53.8991 0.496735C53.6765 0.27346 53.6765 0.27346 53.4539 0.27346H38.0971C37.652 0.27346 37.4294 0.496737 37.4294 0.943287V24.6104C37.4294 25.057 37.652 25.2803 38.0971 25.2803H42.9935C43.4386 25.2803 43.6612 25.057 43.6612 24.6104V6.97171C43.6612 6.74844 43.6612 6.52517 43.8838 6.52517C44.1063 6.30189 44.1063 6.30189 44.3289 6.30189H53.4539Z" fill="#EFEFF7"/>
<path d="M89.3255 25.057C89.5481 24.8337 89.5481 24.8337 89.5481 24.6104V22.601V21.4846V20.1449C89.5481 19.9217 89.5481 19.6984 89.3255 19.6984C89.103 19.4751 89.103 19.4751 88.8804 19.4751H86.4322H78.8651H76.862C76.6395 19.4751 76.6395 19.4751 76.6395 19.2518V15.4562C76.6395 15.4562 76.6395 15.2329 76.862 15.2329H87.0999C87.3225 15.2329 87.545 15.2329 87.545 15.0096C87.545 15.0096 87.7676 14.7863 87.7676 14.5631V10.9907C87.7676 10.7674 87.7676 10.5441 87.545 10.5441C87.3225 10.3208 87.3225 10.3208 87.0999 10.3208H76.862C76.6395 10.3208 76.6395 10.3208 76.6395 10.0976V8.31137V6.30189C76.6395 6.07862 76.6395 6.07862 76.862 6.07862H78.42H86.4322H88.8804C89.103 6.07862 89.3255 6.07862 89.3255 5.85534C89.5481 5.63207 89.5481 5.63207 89.5481 5.40879V4.06914V2.28294V1.16656C89.5481 0.943289 89.5481 0.720013 89.3255 0.720013C89.103 0.496738 89.103 0.496738 88.8804 0.496738H86.8773H73.301H71.0754C70.6303 0.496738 70.4077 0.720013 70.4077 1.16656V2.28294V22.8242V24.6104C70.4077 24.8337 70.4077 25.057 70.6303 25.057C70.6303 25.2803 70.8528 25.2803 71.0754 25.2803H73.7462H87.7676H88.8804C89.103 25.2803 89.103 25.2803 89.3255 25.057Z" fill="#EFEFF7"/>
<path d="M129.648 25.057C129.648 24.8337 129.648 24.8337 129.648 24.6104L122.303 0.943287C122.303 0.720013 122.081 0.496735 122.081 0.496735C121.858 0.27346 121.636 0.27346 121.636 0.27346H114.959C114.736 0.27346 114.514 0.27346 114.514 0.496735C114.291 0.720011 114.291 0.720013 114.291 0.943287L106.501 24.6104C106.501 24.8337 106.501 25.057 106.501 25.057C106.724 25.2803 106.947 25.2803 107.169 25.2803H112.511C112.733 25.2803 112.956 25.2803 112.956 25.057C113.178 24.8337 113.178 24.8337 113.178 24.6104L118.075 6.97171L122.971 24.6104C122.971 24.8337 123.194 25.057 123.194 25.057C123.416 25.2803 123.639 25.2803 123.861 25.2803H129.203C129.425 25.2803 129.648 25.2803 129.648 25.057Z" fill="#EFEFF7"/>
<path d="M165.742 25.057C165.965 24.8337 165.965 24.8337 165.965 24.6104V22.601V21.4846V20.1449C165.965 19.9217 165.965 19.6984 165.742 19.6984C165.519 19.4751 165.519 19.4751 165.297 19.4751H162.849H155.504H153.279C153.056 19.4751 153.056 19.4751 153.056 19.2518V15.4562C153.056 15.4562 153.056 15.2329 153.279 15.2329H163.516C163.739 15.2329 163.962 15.2329 163.962 15.0096C164.184 14.7863 164.184 14.7863 164.184 14.5631V10.9907C164.184 10.7674 164.184 10.5441 163.962 10.5441C163.739 10.3208 163.739 10.3208 163.516 10.3208H153.279C153.056 10.3208 153.056 10.3208 153.056 10.0976V8.31137V6.30189C153.056 6.07862 153.056 6.07862 153.279 6.07862H154.836H162.849H165.297C165.519 6.07862 165.742 6.07862 165.742 5.85534C165.965 5.63207 165.965 5.63207 165.965 5.40879V4.06914V2.28294V1.16656C165.965 0.943289 165.965 0.720013 165.742 0.720013C165.519 0.496738 165.519 0.496738 165.297 0.496738H163.294H149.718H147.492C147.047 0.496738 146.824 0.720013 146.824 1.16656V2.28294V22.8242V24.6104C146.824 24.8337 146.824 25.057 147.047 25.057C147.269 25.2803 147.269 25.2803 147.492 25.2803H150.163H164.184H165.297C165.519 25.2803 165.519 25.2803 165.742 25.057Z" fill="#EFEFF7"/>
<path d="M206.065 0.720011C206.065 0.496737 206.065 0.496737 206.065 0.27346C206.065 0.27346 205.842 0.0501862 205.62 0.0501862H200.056C199.833 0.0501862 199.61 0.0501862 199.388 0.27346C199.165 0.27346 199.165 0.496737 198.943 0.720011L195.159 7.41826L194.937 7.64154H190.708C190.485 7.64154 190.485 7.64154 190.485 7.41826V0.720011C190.485 0.27346 190.263 0.0501862 189.818 0.0501862H184.921C184.476 0.0501862 184.254 0.27346 184.254 0.720011V24.6104C184.254 25.057 184.476 25.2803 184.921 25.2803H200.946C201.614 25.2803 202.059 25.057 202.504 24.8337C202.949 24.6104 203.394 24.3872 203.839 23.9406C204.284 23.4941 204.507 23.0475 204.729 22.601C204.952 22.1544 205.175 21.4846 205.175 21.038V11.6605C205.175 10.7674 204.952 9.87429 204.284 9.20447C203.839 8.53464 203.171 8.08809 202.281 7.64154C202.059 7.64154 202.059 7.41826 202.281 7.41826L206.065 0.720011ZM198.943 19.4751H190.485V13.4467H199.165V19.4751H198.943Z" fill="#EFEFF7"/>
<path d="M242.826 19.0286C242.604 18.8053 242.604 18.8053 242.604 18.582V6.97171C242.604 6.74844 242.604 6.52517 242.826 6.52517C243.049 6.30189 243.049 6.30189 243.271 6.30189H254.622C254.845 6.30189 255.067 6.30189 255.067 6.07861C255.29 5.85534 255.29 5.85534 255.29 5.63206V0.943287C255.29 0.720013 255.29 0.496735 255.067 0.496735C254.845 0.27346 254.845 0.27346 254.622 0.27346H247.277H241.046H240.378C239.71 0.27346 239.265 0.27346 238.82 0.496735C238.375 0.720011 237.93 0.943287 237.485 1.38984C237.04 1.83639 236.817 2.28294 236.594 2.72949C236.372 3.17604 236.372 3.84586 236.372 4.29241V4.96224V7.64154V16.126V18.3587V21.038C236.372 21.7079 236.372 22.1544 236.594 22.601C236.817 23.0475 237.04 23.4941 237.485 23.9406C237.93 24.3872 238.375 24.6104 238.82 24.8337C239.265 25.057 239.933 25.2803 240.378 25.2803H241.046H254.622C254.845 25.2803 255.067 25.2803 255.067 25.057C255.29 24.8337 255.29 24.8337 255.29 24.6104V19.9217C255.29 19.6984 255.29 19.4751 255.067 19.4751C254.845 19.2518 254.845 19.2518 254.622 19.2518H243.271C243.049 19.2518 242.826 19.0286 242.826 19.0286Z" fill="#EFEFF7"/>
<path d="M290.493 25.2803C291.161 25.2803 291.606 25.057 292.051 24.8337C292.496 24.6104 292.942 24.3872 293.387 23.9406C293.832 23.4941 294.054 23.0475 294.277 22.601C294.5 22.1544 294.722 21.4846 294.722 21.038V4.29241C294.722 3.62259 294.5 3.17604 294.277 2.72949C294.054 2.28294 293.832 1.83639 293.387 1.38984C292.942 0.943287 292.496 0.720011 292.051 0.496735C291.606 0.27346 290.939 0.27346 290.493 0.27346H277.807C277.14 0.27346 276.695 0.27346 276.249 0.496735C275.804 0.720011 275.359 0.943287 274.914 1.38984C274.469 1.83639 274.246 2.28294 274.024 2.72949C273.801 3.17604 273.801 3.84586 273.801 4.29241V21.038C273.801 21.7079 273.801 22.1544 274.024 22.601C274.246 23.0475 274.469 23.4941 274.914 23.9406C275.359 24.3872 275.804 24.6104 276.249 24.8337C276.695 25.057 277.362 25.2803 277.807 25.2803H290.493ZM288.268 19.2518H279.81V6.30189H288.268V19.2518Z" fill="#EFEFF7"/>
<path d="M329.703 25.2803C330.371 25.2803 330.816 25.057 331.261 24.8337C331.706 24.6104 332.152 24.3872 332.597 23.9406C333.042 23.4941 333.264 23.0475 333.487 22.601C333.71 22.1544 333.932 21.4846 333.932 21.038V4.29241C333.932 3.62259 333.71 3.17604 333.487 2.72949C333.264 2.28294 333.042 1.83639 332.597 1.38984C332.152 0.943287 331.706 0.720011 331.261 0.496735C330.816 0.27346 330.149 0.27346 329.703 0.27346H313.679C313.234 0.27346 313.011 0.496737 313.011 0.943287V24.6104C313.011 25.057 313.234 25.2803 313.679 25.2803H329.703ZM319.243 6.30189H327.7V19.2518H319.243V6.30189Z" fill="#EFEFF7"/>
<path d="M371.139 25.057C371.361 24.8337 371.361 24.8337 371.361 24.6104V22.601V21.4846V20.1449C371.361 19.9217 371.361 19.6984 371.139 19.6984C370.916 19.4751 370.916 19.4751 370.694 19.4751H368.246H360.901H358.898C358.675 19.4751 358.675 19.4751 358.675 19.2518V15.4562C358.675 15.4562 358.675 15.2329 358.898 15.2329H369.136C369.358 15.2329 369.581 15.2329 369.581 15.0096C369.803 14.7863 369.803 14.7863 369.803 14.5631V10.9907C369.803 10.7674 369.803 10.5441 369.581 10.5441C369.358 10.3208 369.358 10.3208 369.136 10.3208H358.898C358.675 10.3208 358.675 10.3208 358.675 10.0976V8.31137V6.30189C358.675 6.07862 358.675 6.07862 358.898 6.07862H360.456H368.468H370.916C371.139 6.07862 371.361 6.07862 371.361 5.85534C371.584 5.63207 371.584 5.63207 371.584 5.40879V4.06914V2.28294V1.16656C371.584 0.943289 371.584 0.720013 371.361 0.720013C371.139 0.496738 371.139 0.496738 370.916 0.496738H368.913H355.337H353.111C352.666 0.496738 352.444 0.720013 352.444 1.16656V2.28294V22.8242V24.6104C352.444 24.8337 352.444 25.057 352.666 25.057C352.666 25.2803 352.666 25.2803 352.889 25.2803H355.559H369.581H370.694C370.916 25.2803 370.916 25.2803 371.139 25.057Z" fill="#EFEFF7"/>
<path d="M417.916 19.2518C418.138 19.2518 418.361 19.2518 418.361 19.4751C418.584 19.6984 418.584 19.6984 418.584 19.9216V24.6104C418.584 24.8337 418.584 25.057 418.361 25.057C418.138 25.2803 418.138 25.2803 417.916 25.2803H402.559C402.114 25.2803 401.891 25.057 401.891 24.6104V0.943263C401.891 0.496713 402.114 0.273438 402.559 0.273438H407.455C407.901 0.273438 408.123 0.496713 408.123 0.943263V18.582C408.123 18.8053 408.123 19.0285 408.346 19.0285C408.568 19.2518 408.568 19.2518 408.791 19.2518H417.916Z" fill="#EFEFF7"/>
<path d="M451.562 25.2803C452.23 25.2803 452.675 25.057 453.12 24.8337C453.565 24.6104 454.01 24.3872 454.455 23.9406C454.9 23.4941 455.123 23.0475 455.345 22.601C455.568 22.1544 455.79 21.4846 455.79 21.038V0.943287C455.79 0.720013 455.791 0.496735 455.568 0.496735C455.345 0.27346 455.345 0.27346 455.123 0.27346H450.226C450.004 0.27346 449.781 0.27346 449.781 0.496735C449.559 0.720011 449.559 0.720013 449.559 0.943287V7.41826C449.559 7.64154 449.559 7.86481 449.336 7.86481C449.114 8.08809 449.114 8.08809 448.891 8.08809H441.769C441.547 8.08809 441.324 8.08809 441.324 7.86481C441.101 7.64154 441.101 7.64154 441.101 7.41826V0.943287C441.101 0.496737 440.879 0.27346 440.434 0.27346H435.537C435.092 0.27346 434.87 0.496737 434.87 0.943287V21.038C434.87 21.7079 434.87 22.1544 435.092 22.601C435.315 23.0475 435.537 23.4941 435.982 23.9406C436.428 24.3872 436.873 24.6104 437.318 24.8337C437.763 25.057 438.431 25.2803 438.876 25.2803H451.562V25.2803ZM449.336 13.4467V19.6984H440.879V13.4467H449.336Z" fill="#EFEFF7"/>
<path d="M492.997 13.2234C492.774 13.0001 492.774 13.0001 492.774 12.7769C492.774 12.5536 492.774 12.3303 492.997 12.3303L494.555 10.5441C494.777 10.3208 494.777 10.3208 494.777 10.0976C494.777 9.87429 495 9.65102 495 9.42774V4.51569C495 3.84587 494.777 3.39931 494.555 2.95276C494.332 2.50621 494.11 2.05966 493.665 1.61311C493.219 1.16656 492.774 0.943289 492.329 0.720013C491.884 0.496738 491.216 0.496738 490.771 0.496738H474.747C474.302 0.496738 474.079 0.720013 474.079 1.16656V24.6104C474.079 25.057 474.302 25.2803 474.747 25.2803H490.771C491.439 25.2803 491.884 25.057 492.329 24.8337C492.774 24.6104 493.219 24.3872 493.665 23.9406C494.11 23.4941 494.332 23.0475 494.555 22.601C494.777 22.1544 495 21.4846 495 21.038V16.3493C495 16.126 495 15.9027 494.777 15.6794C494.777 15.4562 494.555 15.2329 494.555 15.2329L492.997 13.2234ZM489.213 19.9217H479.643V15.4562H489.213V19.9217ZM489.213 10.5441H479.643V5.63206H489.213V10.5441Z" fill="#EFEFF7"/>
</svg>
