<svg width="80" height="91" viewBox="0 0 80 91" fill="none" xmlns="http://www.w3.org/2000/svg">
<path d="M3.68 26L0.4 1.08H4.32L6 16.72L9.2 3.04H11.6L14.8 16.68L16.12 1.08H19.8L16.56 26H13.72L10.2 10.64L6.6 26H3.68ZM21.52 1.08H26.44V1.44C26.28 1.6 26.1733 1.78667 26.12 2C26.0933 2.18666 26.08 2.49333 26.08 2.92V11.2H33.76V1.08H38.68V1.44C38.52 1.6 38.4267 1.78667 38.4 2C38.3733 2.18666 38.36 2.49333 38.36 2.92V26H33.76V14.8H26.08V26H21.52V1.08ZM54.96 26L53.24 20.2H46.72L44.96 26H40.48L48.92 0.919999H51.08L59.52 26H54.96ZM50 9.28L47.68 16.96H52.28L50 9.28ZM67.64 26V4.88H60.92V1.08H79.04V4.88H71.96V26H67.64ZM3.68 58L0.4 33.08H4.32L6 48.72L9.2 35.04H11.6L14.8 48.68L16.12 33.08H19.8L16.56 58H13.72L10.2 42.64L6.6 58H3.68ZM22.04 58V33.08H38.28V36.76H26.44V43.16H36.16V46.88H26.44V54.32H38.16V58H22.04ZM1.68 90V65.08H8.12C10.3067 65.08 12 65.3867 13.2 66C14.4267 66.5867 15.4533 67.4267 16.28 68.52C17.1067 69.64 17.7467 70.9733 18.2 72.52C18.68 74.0667 18.92 75.8 18.92 77.72C18.8667 80.2267 18.4533 82.4133 17.68 84.28C16.9067 86.12 15.6933 87.5333 14.04 88.52C12.4133 89.5067 10.28 90 7.64 90H1.68ZM6.08 86.48H7.52C9.22667 86.48 10.5867 86.12 11.6 85.4C12.64 84.68 13.3867 83.6667 13.84 82.36C14.2933 81.0533 14.5067 79.52 14.48 77.76C14.48 75.92 14.28 74.32 13.88 72.96C13.5067 71.6 12.84 70.5467 11.88 69.8C10.92 69.0533 9.61333 68.68 7.96 68.68H6.08V86.48ZM30.08 90.48C27.0133 90.48 24.6933 89.36 23.12 87.12C21.5467 84.88 20.76 81.6933 20.76 77.56C20.76 73.5333 21.5467 70.3867 23.12 68.12C24.6933 65.8533 27.0133 64.72 30.08 64.72C33.0933 64.72 35.3867 65.8533 36.96 68.12C38.56 70.3867 39.36 73.5333 39.36 77.56C39.36 81.6933 38.56 84.88 36.96 87.12C35.3867 89.36 33.0933 90.48 30.08 90.48ZM30.08 86.8C31.5733 86.8 32.7467 86.04 33.6 84.52C34.4533 82.9733 34.88 80.64 34.88 77.52C34.88 74.6133 34.4533 72.3733 33.6 70.8C32.7467 69.2 31.5733 68.4 30.08 68.4C28.5333 68.4 27.3333 69.2 26.48 70.8C25.6533 72.3733 25.24 74.6133 25.24 77.52C25.24 80.64 25.6533 82.9733 26.48 84.52C27.3333 86.04 28.5333 86.8 30.08 86.8Z" fill="#EBEBF1"/>
</svg>
