<?xml version="1.0" encoding="UTF-8"?>
<svg version="1.1" viewBox="0 0 40 20" xmlns="http://www.w3.org/2000/svg">
 <path d="m1.4668 1.2646c2.6498 3.142 5.5756 6.1461 8.5014 9.1501l4.4451 4.4352c0.7408 0.7392 1.4817 1.4784 2.3229 2.1959 0.8789 0.6702 1.7577 1.3404 2.9501 1.8254 0.5021 0.2042 1.1043 0.0738 1.4052-0.3042 0.1505-0.189 0.1378-0.3819 0.1251-0.5747-0.3269-0.9461-0.8921-1.8016-1.5953-2.588-0.7033-0.7865-1.4818-1.4784-2.2226-2.2176-1.5193-1.4312-3.1014-2.8879-4.6207-4.319-3.139-2.8406-6.3408-5.7066-9.7181-8.4565-0.36409-0.2732-0.95385-0.2628-1.305-0.0303-0.47672 0.1814-0.55174 0.5888-0.28803 0.8837z" fill="#fff"/>
 <path d="m20 19.31c1.1918-0.4535 2.1074-1.082 2.9979-1.7832l2.4078-2.0858c1.6179-1.4063 3.2357-2.8126 4.8535-4.2189 1.555-1.4318 3.1728-2.8381 4.7278-4.2699 1.5551-1.4318 3.1101-2.8636 4.64-4.3682l0.0753-0.0945c0.5141-0.5415 0.4634-1.3128-0.3149-1.6919-0.2762-0.1749-0.6276-0.2553-0.9914-0.2156l-34.809 0.1046c-0.58977 0.0103-1.0162 0.3373-0.99084 0.723-0.03741 0.3601 0.35181 0.706 0.90397 0.743l34.735 0.9284-1.1683-1.9764c-1.6806 1.3807-3.2984 2.787-4.9162 4.1933s-3.1728 2.8381-4.7906 4.2444c-1.5551 1.4318-3.1729 2.8381-4.6652 4.2954l-2.32 2.1841c-0.7649 0.7523-1.4671 1.5301-1.7927 2.4611-0.1754 0.4291 0.1386 0.8696 0.7535 0.932 0.2259 0.0293 0.4894 0.0114 0.665-0.1049z" fill="#fff"/>
</svg>
