<svg width="37" height="37" viewBox="0 0 37 37" fill="none" xmlns="http://www.w3.org/2000/svg">
<path d="M22.5221 1.00925C12.8551 -1.205 3.22348 4.83695 1.0093 14.5036C-1.20487 24.1702 4.83664 33.8021 14.5036 36.0164C24.1706 38.2307 33.8023 32.1887 36.0164 22.5221C38.2306 12.8554 32.1891 3.22351 22.5221 1.00925ZM23.748 13.1924C23.8717 12.6524 24.4097 12.3149 24.9496 12.4386L29.5459 13.4914C30.0858 13.6151 30.4233 14.1531 30.2996 14.693C30.1759 15.233 29.6379 15.5705 29.098 15.4468L24.5017 14.394C23.9618 14.2703 23.6243 13.7323 23.748 13.1924ZM18.3115 21.7123C17.2013 26.5589 12.194 25.2442 12.194 25.2442L7.57159 24.1854L7.43585 24.1544L6.85511 24.0213C5.24008 23.6514 4.23073 22.0423 4.60066 20.4272L6.89811 10.3971C7.26803 8.78202 8.87716 7.77267 10.4922 8.14259L11.0729 8.27561L11.2087 8.3067L15.8307 9.36539C18.3419 9.94059 20.0066 11.781 19.3558 14.6224C18.7048 17.4641 16.2405 17.0892 16.2405 17.0892C19.4346 17.8209 18.3115 21.7123 18.3115 21.7123ZM24.5584 25.779C25.489 25.9922 26.1285 25.9152 26.5665 25.7261C27.3009 25.4091 28.1513 24.8041 28.9311 24.9827C29.6816 25.1546 30.1788 25.9271 29.7947 26.5944C28.1221 29.5 23.8893 28.2725 23.8893 28.2725C17.3688 26.7789 19.1786 20.8047 19.1786 20.8047C19.1786 20.8047 20.5709 14.7032 26.6763 16.1016C30.4498 16.966 31.1535 19.6275 31.0913 21.678C31.0456 23.184 29.5264 24.0083 28.0577 23.6719L22.397 22.3752C21.7211 25.3259 24.5584 25.779 24.5584 25.779Z" fill="#525375"/>
</svg>
