<svg width="44" height="44" viewBox="0 0 44 44" fill="none" xmlns="http://www.w3.org/2000/svg">
<path d="M18.9292 17.0963C19.3075 15.4449 18.184 15.1876 18.184 15.1876L17.5892 15.0513L13.562 14.1289L12.7504 17.6722L17.0859 18.6653C17.8352 18.8366 18.5508 18.7483 18.9292 17.0963Z" fill="#525375"/>
<path d="M16.8123 21.1779L12.1899 20.1191L11.2179 24.363L15.6268 25.3729C16.2944 25.5058 17.5661 25.5785 17.9866 23.7423C18.4913 21.5391 16.8123 21.1779 16.8123 21.1779Z" fill="#525375"/>
<path d="M29.2065 21.4409C26.7536 20.8791 25.8509 23.2486 25.8509 23.2486L31.0671 24.4434C31.0675 24.4435 31.6593 22.0028 29.2065 21.4409Z" fill="#525375"/>
<path d="M25.5221 4.00925C15.8551 1.795 6.22348 7.83695 4.0093 17.5036C1.79513 27.1702 7.83664 36.8021 17.5036 39.0164C27.1706 41.2307 36.8023 35.1887 39.0164 25.5221C41.2306 15.8554 35.1891 6.22351 25.5221 4.00925ZM26.748 16.1924C26.8717 15.6524 27.4097 15.3149 27.9496 15.4386L32.5459 16.4914C33.0858 16.6151 33.4233 17.1531 33.2996 17.693C33.1759 18.233 32.6379 18.5705 32.098 18.4468L27.5017 17.394C26.9618 17.2703 26.6243 16.7323 26.748 16.1924ZM21.3115 24.7123C20.2013 29.5589 15.194 28.2442 15.194 28.2442L10.5716 27.1854L10.4359 27.1544L9.85511 27.0213C8.24008 26.6514 7.23073 25.0423 7.60066 23.4272L9.89811 13.3971C10.268 11.782 11.8772 10.7727 13.4922 11.1426L14.0729 11.2756L14.2087 11.3067L18.8307 12.3654C21.3419 12.9406 23.0066 14.781 22.3558 17.6224C21.7048 20.4641 19.2405 20.0892 19.2405 20.0892C22.4346 20.8209 21.3115 24.7123 21.3115 24.7123ZM27.5584 28.779C28.489 28.9922 29.1285 28.9152 29.5665 28.7261C30.3009 28.4091 31.1513 27.8041 31.9311 27.9827C32.6816 28.1546 33.1788 28.9271 32.7947 29.5944C31.1221 32.5 26.8893 31.2725 26.8893 31.2725C20.3688 29.7789 22.1786 23.8047 22.1786 23.8047C22.1786 23.8047 23.5709 17.7032 29.6763 19.1016C33.4498 19.966 34.1535 22.6275 34.0913 24.678C34.0456 26.184 32.5264 27.0083 31.0577 26.6719L25.397 25.3752C24.7211 28.3259 27.5584 28.779 27.5584 28.779Z" fill="#525375"/>
</svg>
