<svg width="41" height="42" viewBox="0 0 41 42" fill="none" xmlns="http://www.w3.org/2000/svg">
<path fill-rule="evenodd" clip-rule="evenodd" d="M20.6734 21.8235C23.822 22.1473 26.9951 22.2296 30.1682 22.3118L35.3007 22.3509C36.1561 22.3574 37.0114 22.3639 37.8979 22.28C38.7689 22.133 39.6398 21.986 40.5262 21.469C40.8995 21.2512 41.0861 20.7092 40.9616 20.2041C40.8993 19.9516 40.7594 19.8166 40.6194 19.6816C39.8106 19.2147 38.9552 18.9915 38.0843 18.9219C37.5036 18.8755 36.9368 18.8852 36.3701 18.8949C36.0866 18.8997 35.8032 18.9046 35.5181 18.9024C34.6707 18.9275 33.8116 18.9593 32.9525 18.9912C32.0932 19.0231 31.2334 19.055 30.3858 19.08C27.1746 19.2589 23.9223 19.4618 20.6675 19.8452L20.6162 2.75465C20.6071 2.23678 20.3714 1.83588 20.0597 1.72046C20.2514 1.33109 20.2156 0.803133 19.9966 0.472075C19.8014 -0.0411677 19.3632 -0.121936 19.0459 0.161983C15.6655 3.01475 12.4336 6.16462 9.20173 9.31449L4.42979 14.1004C3.6345 14.898 2.83922 15.6956 2.06731 16.6013C1.34624 17.5475 0.625181 18.4936 0.103395 19.7774C-0.116303 20.318 0.0239655 20.9663 0.430695 21.2903C0.626211 21.446 0.825503 21.4394 1.02494 21.4265C1.44728 22.2512 1.95226 22.9591 2.49826 23.653L4.74231 26.2453L9.28126 31.4706C10.0515 32.3077 10.8149 33.1617 11.5782 34.0157C12.3416 34.8697 13.1049 35.7237 13.8751 36.5607C15.4155 38.2348 16.9561 39.9092 18.5748 41.5562L18.6764 41.6372C19.2591 42.1907 20.0889 42.1361 20.4967 41.2982C20.6849 41.0009 20.7714 40.6226 20.7287 40.2308L20.6734 21.8235ZM3.36587 20.1037C3.62153 20.3326 3.87075 20.5773 4.11741 20.8283L6.46723 23.3261C7.51251 24.3972 8.53338 25.5283 9.55425 26.6594C10.0647 27.225 10.5751 27.7906 11.0886 28.3486C11.8451 29.2195 12.6084 30.0735 13.3717 30.9274C14.1351 31.7814 14.8985 32.6354 15.655 33.5063C16.4842 34.461 17.3135 35.4156 18.1382 36.3814L19.0295 3.01467C16.3592 6.23529 13.6016 9.31462 10.8659 12.3398C10.0961 13.1576 9.31945 13.9922 8.54281 14.8269L8.54206 14.8277C7.76549 15.6623 6.98893 16.4968 6.21923 17.3145C5.95412 17.5804 5.69466 17.8508 5.4352 18.1212C4.91633 18.6619 4.39744 19.2026 3.83337 19.7074C3.68002 19.8446 3.52424 19.9769 3.36587 20.1037Z" fill="#525375"/>
</svg>
