<svg width="41" height="42" viewBox="0 0 41 42" fill="none" xmlns="http://www.w3.org/2000/svg">
<path fill-rule="evenodd" clip-rule="evenodd" d="M21.9541 0.16198C25.3345 3.01471 28.5664 6.16455 31.7983 9.31439L36.5702 14.1002C37.3655 14.8977 38.1608 15.6953 38.9327 16.601C39.6538 17.5472 40.3748 18.4933 40.8966 19.7771C41.1163 20.3176 40.976 20.966 40.5693 21.2899C40.3739 21.4456 40.1747 21.4391 39.9754 21.4262C39.553 22.2511 39.0479 22.9593 38.5017 23.6533L36.2577 26.2456L31.7187 31.4708C30.9485 32.3079 30.1852 33.1618 29.4218 34.0158C28.6584 34.8698 27.8951 35.7237 27.1249 36.5608C25.5845 38.2349 24.0439 39.9092 22.4252 41.5562L22.3236 41.6372C21.7409 42.1907 20.9111 42.1361 20.5033 41.2983C20.3151 41.0009 20.2286 40.6226 20.2713 40.2309L20.3266 21.8238C17.178 22.1476 14.0049 22.2299 10.8319 22.3122L5.69933 22.3512C4.84394 22.3577 3.98855 22.3642 3.10207 22.2804C2.23115 22.1334 1.36021 21.9864 0.47377 21.4693C0.10053 21.2516 -0.0860511 20.7095 0.0384156 20.2045C0.100649 19.9519 0.240635 19.817 0.38062 19.682C1.18939 19.2151 2.0448 18.9919 2.91575 18.9223C3.49637 18.8759 4.06315 18.8856 4.62994 18.8953C4.91336 18.9001 5.19677 18.905 5.48191 18.9028C6.3295 18.9279 7.18874 18.9597 8.04799 18.9916C8.90729 19.0235 9.76659 19.0553 10.6142 19.0804C13.8254 19.2593 17.0777 19.4622 20.3325 19.8456L20.3838 2.75533C20.3929 2.23729 20.6288 1.83632 20.9406 1.72105C20.7485 1.33162 20.7842 0.803293 21.0034 0.472067C21.1986 -0.041167 21.6368 -0.121934 21.9541 0.16198ZM21.9705 3.01459L22.8618 36.3815C23.6865 35.4157 24.5158 34.4611 25.345 33.5065C26.1015 32.6356 26.8649 31.7816 27.6282 30.9277C28.3916 30.0737 29.1549 29.2197 29.9114 28.3489C30.4249 27.7908 30.9353 27.2252 31.4458 26.6597C32.4666 25.5286 33.4875 24.3974 34.5328 23.3264L36.8826 20.8287C37.1294 20.5776 37.3787 20.3327 37.6346 20.1037C37.476 19.9768 37.3201 19.8444 37.1666 19.707C36.6026 19.2023 36.0837 18.6616 35.5648 18.1209C35.3053 17.8505 35.0459 17.5801 34.7808 17.3142C34.0109 16.4964 33.2341 15.6616 32.4574 14.8269C31.6807 13.9921 30.904 13.1574 30.1341 12.3396C27.3984 9.31445 24.6408 6.23516 21.9705 3.01459Z" fill="#525375"/>
</svg>
