<?xml version="1.0" encoding="UTF-8" standalone="no"?>
<svg
   xmlns:dc="http://purl.org/dc/elements/1.1/"
   xmlns:cc="http://creativecommons.org/ns#"
   xmlns:rdf="http://www.w3.org/1999/02/22-rdf-syntax-ns#"
   xmlns:svg="http://www.w3.org/2000/svg"
   xmlns="http://www.w3.org/2000/svg"
   xmlns:sodipodi="http://sodipodi.sourceforge.net/DTD/sodipodi-0.dtd"
   xmlns:inkscape="http://www.inkscape.org/namespaces/inkscape"
   inkscape:version="1.0 (4035a4fb49, 2020-05-01)"
   sodipodi:docname="1.svg"
   id="svg34"
   version="1.1"
   fill="none"
   viewBox="0 0 54.840801 8.968444"
   height="8.9684439"
   width="54.840801">
  <metadata
     id="metadata40">
    <rdf:RDF>
      <cc:Work
         rdf:about="">
        <dc:format>image/svg+xml</dc:format>
        <dc:type
           rdf:resource="http://purl.org/dc/dcmitype/StillImage" />
        <dc:title></dc:title>
      </cc:Work>
    </rdf:RDF>
  </metadata>
  <defs
     id="defs38" />
  <sodipodi:namedview
     inkscape:pagecheckerboard="true"
     inkscape:current-layer="svg34"
     inkscape:window-maximized="1"
     inkscape:window-y="-9"
     inkscape:window-x="-9"
     inkscape:cy="22.310227"
     inkscape:cx="9.9213104"
     inkscape:zoom="9.5234375"
     showgrid="false"
     id="namedview36"
     inkscape:window-height="1001"
     inkscape:window-width="1920"
     inkscape:pageshadow="2"
     inkscape:pageopacity="0"
     guidetolerance="10"
     gridtolerance="10"
     objecttolerance="10"
     borderopacity="1"
     bordercolor="#666666"
     pagecolor="#ffffff" />
  <path
     id="path2"
     fill="#d6d6e9"
     d="M 6.6543,0.019531 H 1.3767 c -0.1912,0 -0.3633,0.038243 -0.5354,0.114729 C 0.6692,0.210744 0.5163,0.306354 0.4015,0.440204 0.2868,0.554934 0.1721,0.707904 0.1147,0.880004 0.0382,1.052094 0,1.224194 0,1.415404 v 6.17628 c 0,0.19122 0.0382,0.36331 0.1147,0.53541 0.0765,0.17209 0.1721,0.32506 0.2868,0.43979 0.1339,0.13385 0.2677,0.22946 0.4398,0.28683 0.1721,0.07648 0.3442,0.11473 0.5354,0.11473 h 5.2776 c 0.0191,0 0.0382,0 0.0574,-0.01913 0.0191,-0.01912 0.0191,-0.03824 0.0191,-0.05736 v -1.74007 c 0,-0.01912 0,-0.03824 -0.0191,-0.05736 C 6.6925,7.075404 6.6734,7.075404 6.6543,7.075404 h -4.245 c -0.1147,0 -0.2103,-0.03825 -0.2868,-0.11473 C 2.046,6.884184 1.9886,6.788574 1.9886,6.654724 v -4.32148 c 0,-0.11473 0.0383,-0.22946 0.1339,-0.30594 0.0765,-0.07649 0.1721,-0.11473 0.2868,-0.11473 h 4.245 c 0.0191,0 0.0382,0 0.0574,-0.01913 0.0191,-0.01912 0.0191,-0.03824 0.0191,-0.05736 V 0.096017 c 0,-0.019121 0,-0.038243 -0.0191,-0.057365 0,-0.019121 -0.0192,-0.019121 -0.0574,-0.019121 z" />
  <path
     id="path4"
     fill="#d6d6e9"
     d="m 9.274,8.930194 h 7.2471 c 0.0191,0 0.0382,0 0.0382,-0.01912 0.0191,-0.01912 0.0191,-0.01912 0.0191,-0.05736 v -1.74007 c 0,-0.03824 -0.0191,-0.05736 -0.0191,-0.05736 0,0 -0.0191,-0.01913 -0.0382,-0.01913 h -4.9143 c -0.1147,0 -0.2103,-0.03824 -0.2868,-0.11473 -0.0765,-0.07648 -0.1339,-0.17209 -0.1339,-0.30594 V 0.096017 c 0,-0.076486 0,-0.076486 -0.0765,-0.076486 H 9.274 c -0.0765,0 -0.0765,0 -0.0765,0.076486 v 8.757697 c 0,0.07648 0,0.07648 0.0765,0.07648 z" />
  <path
     id="path6"
     fill="#d6d6e9"
     d="m 19.064,8.930194 h 6.5778 c 0.0192,0 0.0383,0 0.0574,-0.01912 0.0191,-0.01912 0.0191,-0.03824 0.0191,-0.05736 v -1.66358 c 0,-0.01912 0,-0.03825 -0.0191,-0.05737 -0.0191,-0.01912 -0.0382,-0.01912 -0.0574,-0.01912 h -4.4362 c -0.1338,0 -0.2294,-0.09561 -0.2294,-0.22946 v -1.43412 c 0,-0.13385 0.0956,-0.22946 0.2294,-0.22946 h 3.7861 c 0.0191,0 0.0383,0 0.0383,-0.01912 0.0191,-0.01912 0.0191,-0.01912 0.0191,-0.05736 v -1.31939 c 0,-0.03825 -0.0191,-0.05737 -0.0191,-0.05737 0,0 -0.0192,-0.01912 -0.0383,-0.01912 h -3.7861 c -0.1721,0 -0.2294,-0.11473 -0.2294,-0.22946 v -1.43412 c 0,-0.13385 0.0956,-0.22946 0.2294,-0.22946 h 4.4362 c 0.0383,0 0.0574,-0.01912 0.0574,-0.01912 0,0 0.0191,-0.01912 0.0191,-0.03824 V 0.096017 c 0,-0.019121 0,-0.038243 -0.0191,-0.057365 C 25.6801,0.019531 25.661,0.019531 25.6418,0.019531 H 19.064 c -0.0191,0 -0.0382,0 -0.0573,0.019121 -0.0192,0.019122 -0.0192,0.038244 -0.0192,0.057365 v 8.757697 c 0,0.07648 0,0.07648 0.0765,0.07648 z" />
  <path
     id="path8"
     fill="#d6d6e9"
     d="m 33.1948,8.815054 2.754,-8.795933 V 0 h -2.008 c -0.038,0 -0.057,0 -0.096,0.038243 -0.019,0.019121 -0.038,0.038243 -0.057,0.076486 l -1.97,7.132355 -1.988,-7.132355 c 0,-0.038243 -0.019,-0.057365 -0.058,-0.076486 C 29.7338,0.019121 29.7148,0 29.6768,0 h -1.989 v 0.019121 l 2.735,8.776813 c 0.019,0.03825 0.019,0.05737 0.057,0.07649 0.038,0.01912 0.057,0.03824 0.096,0.03824 h 2.466 c 0.038,0 0.058,-0.01912 0.096,-0.03824 0.038,0 0.057,-0.01912 0.057,-0.05737 z" />
  <path
     id="path10"
     fill="#d6d6e9"
     d="m 44.5918,0.019531 h -6.578 c -0.019,0 -0.038,0 -0.057,0.019121 -0.019,0.019122 -0.019,0.019122 -0.019,0.057365 v 8.757697 c 0,0.07648 0,0.07648 0.076,0.07648 h 6.578 c 0.019,0 0.038,0 0.057,-0.01912 0.019,-0.01912 0.019,-0.03824 0.019,-0.05736 v -1.66358 c 0,-0.01912 0,-0.03825 -0.019,-0.05737 -0.019,-0.01912 -0.038,-0.01912 -0.057,-0.01912 h -4.436 c -0.134,0 -0.23,-0.09561 -0.23,-0.22946 v -1.43412 c 0,-0.13385 0.096,-0.22946 0.23,-0.22946 h 3.786 c 0.019,0 0.038,0 0.038,-0.01912 0.019,-0.01912 0.019,-0.01912 0.019,-0.05736 v -1.31939 c 0,-0.03825 -0.019,-0.05737 -0.019,-0.05737 0,0 -0.019,-0.01912 -0.038,-0.01912 h -3.786 c -0.172,0 -0.23,-0.11473 -0.23,-0.22946 v -1.43412 c 0,-0.13385 0.096,-0.22946 0.23,-0.22946 h 4.436 c 0.038,0 0.057,-0.01912 0.057,-0.01912 0,0 0.019,-0.01912 0.019,-0.03824 V 0.096017 c 0,-0.019121 0,-0.038243 -0.019,-0.057365 -0.019,-0.019121 -0.038,-0.019121 -0.057,-0.019121 z" />
  <path
     id="path12"
     fill="#d6d6e9"
     d="m 53.4068,6.329664 c 0.019,-0.05737 0.057,-0.13386 0.172,-0.15298 l 0.038,-0.01912 c 0.268,-0.09561 0.497,-0.24858 0.67,-0.49716 0.172,-0.22946 0.267,-0.51628 0.267,-0.80311 v -3.46101 c 0,-0.19121 -0.038,-0.36331 -0.115,-0.5354 -0.076,-0.1721 -0.172,-0.32507 -0.286,-0.4398 -0.115,-0.11473 -0.268,-0.22946 -0.44,-0.286824 -0.172,-0.076486 -0.344,-0.114729 -0.536,-0.114729 h -5.985 c -0.076,0 -0.076,0 -0.076,0.076486 v 8.757697 c 0,0.07648 0,0.07648 0.076,0.07648 h 1.836 c 0.077,0 0.077,0 0.077,-0.07648 v -2.46669 c 0,-0.13385 0.095,-0.22946 0.229,-0.22946 h 1.568 c 0.115,0 0.191,0.05737 0.249,0.15297 l 1.395,2.50493 c 0.02,0.03825 0.058,0.05737 0.096,0.07649 0.038,0.01912 0.096,0.03824 0.134,0.03824 h 2.065 l -1.396,-2.40932 c -0.038,-0.05736 -0.057,-0.13385 -0.038,-0.19121 z m -0.841,-1.91216 h -3.538 v -2.60054 h 3.538 z" />
</svg>
