<?xml version="1.0" encoding="UTF-8" standalone="no"?>
<svg
   xmlns:dc="http://purl.org/dc/elements/1.1/"
   xmlns:cc="http://creativecommons.org/ns#"
   xmlns:rdf="http://www.w3.org/1999/02/22-rdf-syntax-ns#"
   xmlns:svg="http://www.w3.org/2000/svg"
   xmlns="http://www.w3.org/2000/svg"
   xmlns:sodipodi="http://sodipodi.sourceforge.net/DTD/sodipodi-0.dtd"
   xmlns:inkscape="http://www.inkscape.org/namespaces/inkscape"
   inkscape:version="1.0 (4035a4fb49, 2020-05-01)"
   sodipodi:docname="2.svg"
   id="svg34"
   version="1.1"
   fill="none"
   viewBox="0 0 35.623798 8.9489003"
   height="8.9489002"
   width="35.623798">
  <metadata
     id="metadata40">
    <rdf:RDF>
      <cc:Work
         rdf:about="">
        <dc:format>image/svg+xml</dc:format>
        <dc:type
           rdf:resource="http://purl.org/dc/dcmitype/StillImage" />
        <dc:title></dc:title>
      </cc:Work>
    </rdf:RDF>
  </metadata>
  <defs
     id="defs38" />
  <sodipodi:namedview
     inkscape:pagecheckerboard="true"
     inkscape:current-layer="svg34"
     inkscape:window-maximized="1"
     inkscape:window-y="-9"
     inkscape:window-x="-9"
     inkscape:cy="9.5563428"
     inkscape:cx="9.9213104"
     inkscape:zoom="9.5234375"
     showgrid="false"
     id="namedview36"
     inkscape:window-height="1001"
     inkscape:window-width="1920"
     inkscape:pageshadow="2"
     inkscape:pageopacity="0"
     guidetolerance="10"
     gridtolerance="10"
     objecttolerance="10"
     borderopacity="1"
     bordercolor="#666666"
     pagecolor="#ffffff" />
  <path
     id="path14"
     fill="#d6d6e9"
     d="M 6.6543,0 H 1.3767 C 1.1855,0 1.0134,0.0383 0.8413,0.1148 0.6692,0.1912 0.5163,0.2868 0.4015,0.4207 0.2868,0.5354 0.1721,0.6884 0.1147,0.8605 0.0382,1.0326 0,1.2047 0,1.3959 v 6.1763 c 0,0.1912 0.0382,0.3633 0.1147,0.5354 0.0765,0.1721 0.1721,0.325 0.2868,0.4398 0.1339,0.1338 0.2677,0.2294 0.4398,0.2868 0.1721,0.0765 0.3442,0.1147 0.5354,0.1147 h 5.2776 c 0.0191,0 0.0382,0 0.0574,-0.0191 C 6.7308,8.9107 6.7308,8.8916 6.7308,8.8724 v -1.74 c 0,-0.0191 0,-0.0383 -0.0191,-0.0574 C 6.6925,7.0559 6.6734,7.0559 6.6543,7.0559 H 2.4093 C 2.2946,7.0559 2.199,7.0177 2.1225,6.9412 2.046,6.8647 1.9886,6.7691 1.9886,6.6352 V 2.3137 C 1.9886,2.199 2.0269,2.0843 2.1225,2.0078 2.199,1.9313 2.2946,1.8931 2.4093,1.8931 h 4.245 c 0.0191,0 0.0382,0 0.0574,-0.0192 C 6.7308,1.8548 6.7308,1.8357 6.7308,1.8166 V 0.0765 c 0,-0.0191 0,-0.0382 -0.0191,-0.0574 C 6.6925,0 6.6925,0 6.6543,0 Z" />
  <path
     id="path16"
     fill="#d6d6e9"
     d="M 16.1962,0.4016 C 16.0814,0.2868 15.9285,0.1721 15.7564,0.1148 15.5843,0.0383 15.4122,0 15.221,0 H 10.5362 C 10.3449,0 10.1728,0.0383 10.0008,0.1148 9.8287,0.1912 9.6757,0.2868 9.561,0.4207 9.4462,0.5354 9.3315,0.6884 9.2741,0.8605 9.1976,1.0326 9.1594,1.2047 9.1594,1.3959 v 6.1763 c 0,0.1912 0.0382,0.3633 0.1147,0.5354 0.0765,0.1721 0.1721,0.325 0.2869,0.4398 0.1338,0.1338 0.2677,0.2294 0.4398,0.2868 0.172,0.0765 0.3441,0.1147 0.5354,0.1147 h 4.6848 c 0.1912,0 0.3633,-0.0382 0.5354,-0.1147 0.1721,-0.0765 0.3059,-0.1721 0.4398,-0.2868 0.1147,-0.1339 0.2294,-0.2677 0.3059,-0.4398 0.0765,-0.1721 0.1147,-0.3442 0.1147,-0.5354 V 1.3768 c 0,-0.1912 -0.0382,-0.3633 -0.1147,-0.5354 C 16.4065,0.6693 16.3109,0.5354 16.1962,0.4016 Z M 14.6091,7.0177 H 11.148 V 1.9122 h 3.4611 z" />
  <path
     id="path18"
     fill="#d6d6e9"
     d="M 26.0629,0.4016 C 25.9481,0.2868 25.7951,0.1721 25.623,0.1148 25.451,0.0383 25.2789,0 25.0876,0 h -5.985 c -0.0765,0 -0.0765,0 -0.0765,0.0765 v 8.7577 c 0,0.0765 0,0.0765 0.0765,0.0765 h 5.985 c 0.1913,0 0.3634,-0.0383 0.5354,-0.1147 0.1721,-0.0765 0.306,-0.1721 0.4399,-0.2869 0.1147,-0.1338 0.2294,-0.2677 0.3059,-0.4398 0.0765,-0.1721 0.1147,-0.3442 0.1147,-0.5354 V 1.3768 c 0,-0.1912 -0.0382,-0.3633 -0.1147,-0.5354 -0.0956,-0.1721 -0.1912,-0.306 -0.3059,-0.4398 z m -1.6063,6.6161 h -3.461 V 1.9122 h 3.461 z" />
  <path
     id="path20"
     fill="#d6d6e9"
     d="m 35.5468,0 h -6.578 c -0.019,0 -0.038,0 -0.057,0.0191 -0.019,0.0192 -0.019,0.0383 -0.019,0.0574 v 8.7577 c 0,0.0765 0,0.0765 0.076,0.0765 h 6.578 c 0.019,0 0.039,0 0.058,-0.0191 0.019,-0.0192 0.019,-0.0383 0.019,-0.0574 V 7.1706 c 0,-0.0191 0,-0.0382 -0.019,-0.0573 -0.019,-0.0192 -0.039,-0.0192 -0.058,-0.0192 h -4.436 c -0.134,0 -0.229,-0.0956 -0.229,-0.2294 V 5.4306 c 0,-0.1339 0.095,-0.2295 0.229,-0.2295 h 3.786 c 0.019,0 0.038,0 0.038,-0.0191 0.02,-0.0191 0.02,-0.0191 0.02,-0.0574 V 3.8052 c 0,-0.0382 -0.02,-0.0573 -0.02,-0.0573 0,0 -0.019,-0.0192 -0.038,-0.0192 h -3.786 c -0.172,0 -0.229,-0.1147 -0.229,-0.2294 V 2.0652 c 0,-0.1339 0.095,-0.2295 0.229,-0.2295 h 4.436 c 0.039,0 0.058,-0.0191 0.058,-0.0191 0,0 0.019,-0.0191 0.019,-0.0383 V 0.1148 c 0,-0.0192 0,-0.0383 -0.019,-0.0574 C 35.5858,0 35.5658,0 35.5468,0 Z" />
</svg>
