<svg width="222" height="121" viewBox="0 0 222 121" fill="none" xmlns="http://www.w3.org/2000/svg">
<path d="M178.739 48.6457L188.555 45.9197L203.814 111.262C204.087 112.369 203.38 113.565 202.273 113.839C201.167 114.113 199.932 113.542 199.61 112.347L178.739 48.6457Z" fill="white" stroke="#525375" stroke-linecap="round" stroke-linejoin="round"/>
<path d="M186.806 22.0485C185.408 16.8738 178.104 16.711 173.893 1.76973C173.893 1.76973 166.661 22.062 168.107 27.324C169.505 32.4987 174.968 35.5202 180.094 34.0355C185.22 32.5507 188.203 27.2232 186.806 22.0485Z" fill="#525375" stroke="#525375" stroke-linecap="round" stroke-linejoin="round"/>
<path d="M186.806 22.0493C185.408 16.8746 178.104 16.7118 173.893 1.77053C173.893 1.77053 166.661 22.0628 168.107 27.3248C168.596 29.2278 169.597 23.6315 171.036 24.7753C171.97 25.6285 172.439 21.1307 173.712 21.5657C175.48 22.0678 177.195 25.348 179.098 24.8592C180.292 24.5368 179.525 18.4383 180.183 17.1551C181.335 14.9096 187.499 24.525 186.806 22.0493Z" fill="#D16978"/>
<path d="M188.554 45.9199L178.739 48.6459L176.618 34.3714L182.987 32.6515L188.554 45.9199Z" fill="white" stroke="#525375" stroke-linecap="round" stroke-linejoin="round"/>
<path d="M23.2207 94.3838L96.4701 77.8562C100.48 76.976 103.022 72.9664 102.142 68.8589L89.2332 11.6481C88.353 7.63845 84.3433 5.09574 80.2359 5.97591L6.98647 22.5035C2.97682 23.3836 0.434121 27.3933 1.31429 31.5007L14.2234 88.7116C15.1036 92.7212 19.1132 95.2639 23.2207 94.3838Z" fill="white" stroke="#525375" stroke-width="0.977963" stroke-linecap="round" stroke-linejoin="round"/>
<path d="M23.9781 89.2802L93.5781 73.5802C95.9781 73.0802 97.4781 70.6802 96.8781 68.2802L84.7781 14.4802C84.2781 12.0802 81.8781 10.5802 79.4781 11.1802L9.8781 26.7802C7.4781 27.2802 5.9781 29.6802 6.5781 32.0802L18.6781 85.9801C19.1781 88.2802 21.5781 89.7802 23.9781 89.2802Z" fill="white" stroke="#525375" stroke-linecap="round" stroke-linejoin="round"/>
<path d="M66.0784 30.0796C55.4784 22.5796 40.8784 25.0796 33.3784 35.6796C25.8784 46.2796 28.3784 60.8796 38.9784 68.3796C49.5784 75.8796 64.1784 73.3796 71.6784 62.7796C78.5784 52.9796 76.9784 39.4796 67.9784 31.5796" fill="#F6D37E"/>
<path d="M66.0784 30.0796C55.4784 22.5796 40.8784 25.0796 33.3784 35.6796C25.8784 46.2796 28.3784 60.8796 38.9784 68.3796C49.5784 75.8796 64.1784 73.3796 71.6784 62.7796C78.5784 52.9796 76.9784 39.4796 67.9784 31.5796" stroke="#525375" stroke-miterlimit="10" stroke-linecap="round" stroke-linejoin="round"/>
<path d="M43.1783 37.8799C42.6783 37.8799 42.2783 38.2799 42.2783 38.7799C42.2783 39.2799 42.6783 39.6799 43.1783 39.6799C43.6783 39.6799 44.0783 39.2799 44.0783 38.7799C44.0783 38.2799 43.6783 37.8799 43.1783 37.8799Z" fill="#525375"/>
<path d="M51.9781 37.8799C51.4781 37.8799 51.0781 38.2799 51.0781 38.7799C51.0781 39.2799 51.4781 39.6799 51.9781 39.6799C52.4781 39.6799 52.8781 39.2799 52.8781 38.7799C52.8781 38.2799 52.4781 37.8799 51.9781 37.8799Z" fill="#525375"/>
<path d="M54.3782 44.6797C53.7782 47.5797 50.8782 49.8797 47.2782 49.8797C43.7782 49.8797 40.7782 47.6797 40.1782 44.6797" stroke="#525375" stroke-linecap="round"/>
<path d="M49.9637 110.75L141.235 119.603C145.416 120.008 149.228 116.962 149.643 112.682L156.613 40.8192C157.019 36.6388 153.972 32.8269 149.693 32.4118L58.4209 23.5588C54.2405 23.1533 50.4286 26.1995 50.0135 30.4795L43.043 102.342C42.6279 106.622 45.6838 110.334 49.9637 110.75Z" fill="#EFEFF7" stroke="#525375" stroke-linecap="round" stroke-linejoin="round"/>
<path d="M54.2836 104.538L138.19 112.676C140.579 112.908 142.762 111.111 142.994 108.722L149.327 43.4282C149.559 41.0394 147.761 38.8556 145.373 38.6239L61.4664 30.4853C59.0776 30.2536 56.8938 32.0512 56.6621 34.44L50.3386 99.634C50.0972 102.122 51.7952 104.296 54.2836 104.538Z" fill="white" stroke="#525375" stroke-linecap="round" stroke-linejoin="round"/>
<path d="M117.075 69.3358L84.1917 106.937L142.02 112.546L117.075 69.3358Z" fill="#D16978"/>
<path d="M80.6794 46.8164L52.0719 86.9419L50.45 103.663L109.174 109.36L80.6794 46.8164Z" fill="#D16978"/>
<path d="M125.524 63.0218C130.999 63.5528 135.813 59.4986 136.334 54.1239C136.865 48.6496 132.811 43.8357 127.436 43.3143C121.962 42.7833 117.148 46.8375 116.626 52.2123C115.996 57.677 120.05 62.4909 125.524 63.0218Z" fill="#F4BC4F"/>
</svg>
