<?xml version="1.0" encoding="UTF-8"?>
<svg width="100%" height="100%" preserveAspectRatio="none" fill="none" version="1.1" viewBox="0 0 1460 540" xmlns="http://www.w3.org/2000/svg">
 <path d="m1457.4 0v48.439c1.1992 8.3066 0.1998 12.41 0 37.43v13.611c0 2.8022-6e-4 6.1037 0.1992 9.8066v33.727c-0.1998 16.613-0.2992 31.126-1.998 45.938-2.998 26.121-6.9961 60.648-26.883 67.754-5.8961 2.1017-14.491 2.3015-20.986-2.002-18.088-11.91-3.4964-47.238-20.885-58.547-7.3951-4.7038-18.987-4.3028-25.283 0.70117-9.8934 8.0064-3.7971 25.52-14.59 31.625-4.8968 2.7022-10.394 1.4009-10.994 1.3008-13.591-3.4027-13.091-25.02-25.283-28.322-5.5962-1.5012-11.891 1.4014-15.389 4.5039-11.492 10.308-1.2001 31.225 2.0977 69.756 2.2985 27.122 4.7982 60.648-14.289 76.861-1.9986 1.6013-11.094 9.4078-19.988 7.0059-15.49-4.1033-21.184-36.529-21.584-56.545-0.4996-26.121 7.7941-35.529 0.1992-48.539-5.5963-9.6077-18.288-18.616-29.381-16.715-25.483 4.3034-37.575 64.853-39.873 101.88-2.0986 33.927 4.3967 41.233 3.6972 101.78-0.4997 40.032-3.4978 50.239-8.9941 59.547-12.226 20.77-37.913 38.91-66.572 39h359.35v-540zm-356.78 540c-2.9647 9e-3 -5.9598-0.17429-8.9765-0.56836-38.474-5.004-57.462-41.034-60.859-47.939-13.491-27.022-3.1987-41.033-3.9981-106.79-0.5996-47.938-1.2-73.559-15.99-100.88-7.0953-13.11-29.38-54.343-65.855-53.342-26.782 0.70055-52.465 24.019-63.258 57.746-7.1952 41.833-9.5928 76.162-10.492 100.38-1.6989 46.837 1.9971 72.957-16.99 97.877-3.6975 4.9039-19.385 25.42-40.871 24.92-19.587-0.5004-33.279-18.113-40.074-27.221-22.285-29.624-14.39-52.843-28.98-136.01-6.2958-35.929-11.891-55.344-28.58-66.453-12.292-8.2066-27.483-9.7067-35.877-10.607-13.391-1.301-32.578-3.3029-46.568 6.7051-5.5963 4.0032-11.893 11.009-21.287 58.547-8.8941 45.236-6.3944 55.144-17.287 71.857-3.9973 6.205-19.089 29.522-41.174 29.322-20.986-0.20016-35.176-21.417-38.574-26.621-13.091-19.616-12.292-38.33-11.992-81.164 0.69954-90.672-1.9972-106.78-13.09-113.09-10.493-6.0048-26.384-2.103-35.178 6.1035-9.4937 8.9071-8.5943 31.025-1.7988 85.469 11.492 91.573-91.038 74.56-80.445 0 5.2965-37.63-8.4953-109.09-62.959-123.1-2.5983-0.70056-4.9968-0.70049-7.7949 0.40039-39.674 15.913 48.068 243.49-4.7969 273.32-14.59 8.2066-38.375 0.30007-50.467-12.01-30.68-31.225-13.59-117.19 2.6992-199.66 2.1985-11.409 8.6944-42.635-6.6953-55.945-7.1952-6.305-16.989-6.7051-18.588-6.7051-13.291-0.30024-24.085 8.2074-29.281 16.014-8.3944 12.51-4.8958 26.822-2.6973 42.635 2.1985 15.612 11.992 85.067-13.191 103.68-8.6942 6.5052-24.684 9.2083-35.877 2.7031-48.268-28.122 1.2001-221.98-24.383-242.7-5.8961-4.8038-11.492-4.4024-11.492-4.4024-9.6933 0.70056-16.189 13.111-19.486 19.516-14.29 28.223-17.989 72.358-19.088 90.572-1.1992 33.026 3.9972 43.634-5.9961 59.246-2.6982 4.1033-15.389 22.619-33.277 21.318-12.592-0.80064-20.688-11.109-22.486-13.311-3.1888-4.0187-5.271-8.3079-6.5938-13.33v273.51z" fill="#fcfcff" stroke-width="8.5602"/>
</svg>
