<svg width="20" height="40" viewBox="0 0 20 40" fill="none" xmlns="http://www.w3.org/2000/svg">
<path fill-rule="evenodd" clip-rule="evenodd" d="M19.0466 19.9017C18.6541 20.6677 18.1847 21.3253 17.6771 21.9698L15.5913 24.3777L11.3725 29.2311C10.6566 30.0086 9.94704 30.8019 9.23751 31.5951C8.528 32.3883 7.81848 33.1815 7.10258 33.959C5.67083 35.514 4.23891 37.0692 2.73437 38.599L2.63986 38.6742C2.09832 39.1883 1.32705 39.1376 0.947959 38.3594C0.773075 38.0832 0.692697 37.7318 0.732361 37.3679L0.836949 2.55872C0.845394 2.07728 1.06485 1.70468 1.35497 1.59784C1.17682 1.2362 1.21011 0.745927 1.41363 0.438479C1.59506 -0.0382384 2.00243 -0.113258 2.29735 0.150456C5.43933 2.80023 8.44333 5.72597 11.4473 8.65171L15.8827 13.0969C16.6219 13.8378 17.3611 14.5786 18.0785 15.4199C18.7488 16.2987 19.419 17.1775 19.904 18.37C20.1082 18.872 19.9778 19.4743 19.5997 19.7752C19.4178 19.92 19.2323 19.9137 19.0466 19.9017ZM2.31167 2.79906L3.14015 33.7924C3.90672 32.8954 4.67748 32.0087 5.44825 31.122C6.15139 30.3131 6.8609 29.5199 7.57042 28.7267C8.27995 27.9334 8.98948 27.1402 9.69263 26.3313C10.1699 25.8129 10.6444 25.2876 11.1188 24.7623C12.0677 23.7117 13.0165 22.661 13.9881 21.6662L16.1722 19.3462C16.4016 19.1129 16.6334 18.8855 16.8712 18.6728C16.7241 18.5551 16.5794 18.4322 16.437 18.3049C15.9127 17.8361 15.4304 17.3338 14.9481 16.8316C14.707 16.5804 14.4658 16.3293 14.2194 16.0823C13.5039 15.3227 12.7819 14.5473 12.0599 13.772C11.338 12.9966 10.616 12.2213 9.90047 11.4617C7.35742 8.65141 4.79391 5.79087 2.31167 2.79906Z" fill="#525375"/>
</svg>
