<?xml version="1.0" encoding="UTF-8"?>
<svg fill="none" version="1.1" viewBox="0 0 1300 25" xmlns="http://www.w3.org/2000/svg">
 <path d="m0 0v17.729c1.2603-0.17592 2.4914-0.47572 2.8418-0.81055 0.54979-0.5254 2.1513 0.04495 2.6777 0.59375 0.53814 0.0117 3.8026-1.5292 4.8672-0.96875 1.6144 0.0351 5.9189 0.12896 7.5332 0.16406 1.6028 0.5721 8.0614 0.71305 9.6758 0.74805 2.1525 0.0468 5.3799 0.11731 5.918 0.12891 0.5382 0.0117 3.7567 0.61724 5.3711 0.65234 1.6144 0.035 6.4579 0.14068 8.0723 0.17578 1.0763 0.0233 4.3045 0.093825 6.4453 0.67774l7.6152-3.5957c6.984 0.689 14.484 2.4629 15.561 2.4863 1.0879-0.5137 3.7683 0.082235 6.459 0.14062l2.1641-0.49024 1.625-0.50195c1.6027 0.5721 4.3057 0.093788 5.9434-0.94531l3.1582 3.293 1.6035 0.57227c2.7022-0.4787 5.381 0.11527 6.457 0.13867l0.54883-0.52539 3.8144-2.0664c4.831 0.6422 15.595 0.87705 18.285 0.93555 2.691 0.0584 7.5451-0.37496 8.6211-0.35156 1.088-0.5138 5.3704 0.65445 6.9844 0.68945 1.626-0.502 6.4697-0.39644 8.0957-0.89844 1.627-0.5021 5.3693 0.65434 6.4453 0.67774 1.077 0.023299 4.8794-1.5058 5.9434-0.94531 1.065 0.5604 4.8322 0.64066 5.9082 0.66406 1.076 0.023299 11.324-0.82791 14.553-0.75781 3.228 0.0701 8.6088 0.18763 9.1348 0.73633 0.527 0.5488 7.0309-1.4608 9.1719-0.87695 2.141 0.5839 6.4467 0.67783 9.1367 0.73633l2.6914 0.058594 8.6094 0.1875 7.5352 0.16211 16.682 0.36328c2.691 0.0584 5.9184 0.129 8.6094 0.1875l2.6914 0.058594c3.24-0.467 7.5318 0.16231 10.211 0.75781l2.7266-1.5527c0.55-0.5254 2.1633-0.49012 2.1523 0.046875l1.5566 2.7207c2.714-1.0158 8.6808-3.035 10.295-3 1.603 0.5722 5.9077 0.66418 9.1367 0.73438l18.834 0.41016c5.92 0.1286 15.055 0.8637 20.963 1.5293l5.4297-2.0312s1.0636 0.56056 1.6016 0.57226l1.0762 0.023438c1.614 0.035 4.3285-0.98044 4.8555-0.43164-0.012 0.5371 1.5911 1.1095 3.2051 1.1445l1.6152 0.035157 5.3574 1.1895 1.6133 0.035156c1.614 0.0351 4.8565-0.43162 5.3945-0.41992 1.076 0.0234 3.2039 1.1445 3.7539 0.61914s4.8548-0.43148 6.4688-0.39648c1.615 0.0351 3.2179 0.60746 4.2949 0.63086l0.54883-0.52539 2.1875-1.5645c2.679 0.5955 21.503 1.5404 42.49 1.9961l18.834 0.41016 2.6894 0.058594c2.702-0.4786 7.5116 1.2364 8.5996 0.72266s3.2395-0.46674 4.8535-0.43164l0.55078-0.52539c2.199-2.1016 3.2057 1.1444 4.3047 0.09375l1.0996-1.0508c2.152 0.0467 9.1498 0.19954 15.607 0.33984l5.918 0.12695 6.459 0.14062c5.919 0.1286 19.909 0.43184 23.15-0.035156 3.24-0.4669 14.541-0.22059 17.77-0.15039 3.229 0.070101 11.3 0.24617 13.453 0.29297 2.153 0.0467 6.4924-1.4726 7.5684-1.4492 1.064 0.5604 4.8085 1.7169 5.8965 1.2031 1.088-0.5137 12.927-0.25561 17.232-0.16211 4.305 0.0935 18.831 0.40844 23.148-0.035156 4.317-0.4436 12.928-0.25764 15.08-0.21094 2.153 0.0468 8.6092 0.18766 10.225 0.22266 1.614 0.0351 6.5053-2.0077 7.5703-1.4473 1.064 0.5605 4.2941 0.63104 6.9961 0.15234l2.1523 0.046875 1.6133 0.035156c2.153 0.0468 10.788-0.8416 13.479-0.7832 3.228 0.0701 8.0706 0.17599 11.299 0.24609l3.2285 0.070312c1.615 0.0351 3.217 0.60562 4.832 0.64062l1.6152 0.035156c1.615 0.0351 7.5462-0.37299 9.1602-0.33789 1.614 0.035 6.9954 0.1525 8.6094 0.1875 1.614 0.0351 6.5164-2.5447 8.1074-1.4355s3.7317 1.6915 5.3457 1.7266l1.6152 0.035157c1.614 0.0351 3.7904-0.99206 4.3164-0.44336l1.5801 1.6465c1.099-1.0508 16.738-2.3219 22.658-2.1934 5.931-0.4085 11.301 0.2443 12.904 0.81641l2.1523 0.046874c1.626-0.502 4.8656-0.96856 7.5566-0.91016l2.6914 0.058594c2.153 0.0467 4.8551-0.43146 6.9961 0.15234l2.6777 0.59375c2.176-1.0274 5.9443-0.94514 7.5703-1.4473 1.614 0.0351 4.8549-0.43155 7.5449-0.37305l4.3047 0.09375c2.153 0.0468 7.5462-0.37289 9.1602-0.33789 1.615 0.0351 7.5462-0.37494 9.1602-0.33984 1.626-0.502 4.2927 0.63104 5.3457 1.7285l1.6602-2.1133 1.1133-1.5879c1.591 1.1092 6.3974 2.8262 8.0234 2.3242 1.626-0.5021 5.9312-0.40799 9.1602-0.33789l3.2285 0.068359c2.152 0.0468 4.8319 0.64261 5.9199 0.12891l2.1875-1.5645c1.591 1.1092 4.2809 1.1679 5.3809 0.11719l1.5918 1.1094 0.52539 0.54883c2.703-0.4786 21.034-1.693 27.492-1.5527 5.931-0.4086 13.463-0.24407 15.615-0.19727l2.1523 0.046875 6.457 0.13867 26.908 0.58594 2.1524 0.044922c2.153 0.0468 6.4806-0.93356 7.5566-0.91016 1.065 0.5604 3.228 0.070459 4.293 0.63086 1.064 0.5605 13.465-0.24396 15.605 0.33984 2.153 0.0468 4.8331 0.64074 5.3711 0.65234 0.538 0.0117 2.1622-0.49017 4.3262-0.98047l1.6152 0.035156c2.691 0.0585 5.9203 0.1291 8.6113 0.1875l8.6094 0.1875 8.6152 0.18555 8.6094 0.1875 2.6894 0.058594c3.22 0.0701 8.0606 0.71308 10.74 1.3086l2.7011-0.47852 3.25-1.0039c3.77 0.0818 9.689 0.20922 13.44 0.82812l3.2305 0.070312c1.61 0.0351 3.7786-0.45502 5.3886-0.41992l1.6211 0.035157c2.15 0.0468 7.5194 0.7012 8.6094 0.1875s4.2713 1.7032 5.3613 1.1895c1.62-0.502 4.8893-2.0428 5.9493-1.4824 1.06 0.5605 4.8301 0.64272 5.9101 0.66602 1.06 0.5605 3.2306 0.070478 5.3906-0.41992l1.6094 0.035156c2.16 0.0467 3.7504 1.1563 5.9004 1.2031 1.08 0.0233 2.6902 0.058603 3.2402-0.4668 2.73-1.5528 5.3589 1.1895 7.5489-0.375 0.55-0.5254 2.1504 0.046875 2.1504 0.046875l2.0898 2.7324c3.26-1.0041 9.7692-3.5487 11.369-2.9766 1.61 0.5722 4.8414 0.64272 5.3614 1.1914 1.07 0.5605 4.28 1.1663 7.5 1.7734l1.1191-2.125 2.1895-1.5645c2.14 0.5839 6.9512 2.3008 8.0312 2.3242 1.07 0.0234 4.8892-2.0428 5.9492-1.4824 1.6 0.5722 5.4107-0.95698 6.4707-0.39648 1.6 0.5721 3.7603 0.61918 4.8203 1.1797 1.06 0.5604 3.2292 0.068397 4.8692-0.9707l2.1094 1.6582c0.53 0.5487 2.7103-0.47846 4.3203-0.44336 0.55-0.5254 2.1704-0.49012 2.1504 0.046875 1.04 1.6346 2.711-0.47836 4.291 1.168 0.52 0.5487 3.2189 0.070488 5.3789 0.11719 3.23 0.0701 6.4497 0.13888 9.6797 0.20898l3.2304 0.070313c3.23 0.0701 10.25-0.8515 11.85-0.2793 1.6 0.5721 5.92 0.12894 7 0.15234 1.07 0.0233 5.8914 1.2013 7.5214 0.69922 1.61 0.0351 5.3796 0.11741 8.5996 0.72461l3.2286 0.070312c0.54 0.0117 6.4906-1.4705 8.6406-1.4238 2.14 0.5838 14.521 0.85179 18.291 0.93359 4.3 0.0935 9.689-0.32615 10.228-0.31445 0.54 0.0116 3.2315 0.070331 3.7715 0.082031 0.54 0.0116 2.1398 0.58414 3.7598 0.61914l3.2187 0.070312c1.63-0.502 7.0013 0.15045 8.6113 0.18555 1.63-0.502 4.329-0.98044 5.959-1.4824l0.5313 0.54883 2.4492 2.0488v-23.975h-1300z" fill="#5c5db1"/>
</svg>
