<?xml version="1.0" encoding="UTF-8"?>
<svg fill="none" version="1.1" viewBox="0 0 1300 25" xmlns="http://www.w3.org/2000/svg">
 <path d="m-0.99903-1v17.729c1.2622-0.17592 2.4952-0.47572 2.8462-0.81055 0.55064-0.5254 2.1546 0.04495 2.6818 0.59375 0.53897 0.0117 3.8085-1.5292 4.8747-0.96875 1.6169 0.0351 5.928 0.12896 7.5448 0.16406 1.6053 0.5721 8.0738 0.71305 9.6907 0.74805 2.1558 0.0468 5.3882 0.11731 5.9271 0.12891 0.53903 0.0117 3.7625 0.61724 5.3794 0.65234 1.6169 0.035 6.4678 0.14068 8.0847 0.17578 1.078 0.0233 4.3111 0.09382 6.4552 0.67774l7.6269-3.5957c6.9947 0.689 14.506 2.4629 15.585 2.4863 1.0896-0.5137 3.7741 0.08224 6.4689 0.14062l2.1674-0.49024 1.6275-0.50195c1.6052 0.5721 4.3123 0.09379 5.9525-0.94531l3.1631 3.293 1.606 0.57227c2.7064-0.4787 5.3893 0.11527 6.4669 0.13867l0.54968-0.52539 3.8203-2.0664c4.8384 0.6422 15.619 0.87705 18.313 0.93555 2.6951 0.0584 7.5567-0.37496 8.6344-0.35156 1.0897-0.5138 5.3787 0.65445 6.9952 0.68945 1.6285-0.502 6.4796-0.39644 8.1082-0.89844 1.6295-0.5021 5.3776 0.65434 6.4552 0.67774 1.0786 0.0233 4.8869-1.5058 5.9525-0.94531 1.0666 0.5604 4.8396 0.64066 5.9173 0.66406 1.0777 0.0233 11.341-0.82791 14.575-0.75781 3.233 0.0701 8.622 0.18763 9.1488 0.73633 0.52781 0.5488 7.0417-1.4608 9.186-0.87695 2.1443 0.5839 6.4566 0.67783 9.1508 0.73633l2.6955 0.05859 8.6226 0.1875 7.5468 0.16211 16.708 0.36328c2.6951 0.0584 5.9275 0.129 8.6226 0.1875l2.6955 0.05859c3.245-0.467 7.5434 0.16231 10.227 0.75781l2.7308-1.5527c0.55085-0.5254 2.1666-0.49012 2.1556 0.04687l1.559 2.7207c2.7182-1.0158 8.6942-3.035 10.311-3 1.6055 0.5722 5.9168 0.66418 9.1508 0.73438l18.863 0.41016c5.9291 0.1286 15.078 0.8637 20.995 1.5293l5.438-2.0312s1.0652 0.56056 1.6041 0.57226l1.0778 0.02344c1.6165 0.035 4.3352-0.98044 4.863-0.43164-0.012 0.5371 1.5936 1.1095 3.21 1.1445l1.6177 0.03516 5.3656 1.1895 1.6158 0.03516c1.6165 0.0351 4.864-0.43162 5.4028-0.41992 1.0777 0.0234 3.2088 1.1445 3.7597 0.61914 0.55084-0.52536 4.8623-0.43148 6.4788-0.39648 1.6175 0.0351 3.2228 0.60746 4.3015 0.63086l0.54967-0.52539 2.1909-1.5645c2.6831 0.5955 21.536 1.5404 42.555 1.9961l18.863 0.41016 2.6935 0.05859c2.7062-0.4786 7.5232 1.2364 8.6128 0.72266s3.2445-0.46674 4.861-0.43164l0.55162-0.52539c2.2024-2.1016 3.2106 1.1444 4.3113 0.09375l1.1013-1.0508c2.1553 0.0467 9.1639 0.19954 15.631 0.33984l5.9271 0.12695 6.4689 0.14062c5.9281 0.1286 19.94 0.43184 23.186-0.03516 3.245-0.4669 14.563-0.22059 17.797-0.15039 3.234 0.0701 11.317 0.24617 13.474 0.29297 2.1563 0.0467 6.5024-1.4726 7.58-1.4492 1.0656 0.5604 4.8159 1.7169 5.9056 1.2031 1.0897-0.5137 12.947-0.25561 17.259-0.16211 4.3116 0.0935 18.86 0.40844 23.184-0.03516s12.948-0.25764 15.103-0.21094c2.1563 0.0468 8.6224 0.18766 10.241 0.22266 1.6165 0.0351 6.5153-2.0077 7.582-1.4473 1.0656 0.5605 4.3007 0.63104 7.0069 0.15234l2.1556 0.04687 1.6158 0.03516c2.1563 0.0468 10.805-0.8416 13.5-0.7832 3.233 0.0701 8.083 0.17599 11.316 0.24609l3.2335 0.07031c1.6175 0.0351 3.222 0.60562 4.8394 0.64062l1.6177 0.03516c1.6175 0.0351 7.5578-0.37299 9.1743-0.33789 1.6165 0.035 7.0062 0.1525 8.6226 0.1875 1.6165 0.0351 6.5264-2.5447 8.1199-1.4355s3.7374 1.6915 5.3539 1.7266l1.6177 0.03516c1.6165 0.0351 3.7962-0.99206 4.323-0.44336l1.5825 1.6465c1.1007-1.0508 16.764-2.3219 22.693-2.1934 5.9401-0.4085 11.318 0.2443 12.924 0.81641l2.1556 0.04687c1.6285-0.502 4.8731-0.96856 7.5682-0.91016l2.6955 0.05859c2.1563 0.0467 4.8626-0.43146 7.0069 0.15234l2.6818 0.59375c2.1794-1.0274 5.9534-0.94514 7.582-1.4473 1.6165 0.0351 4.8624-0.43155 7.5565-0.37305l4.3113 0.09375c2.1563 0.0468 7.5578-0.37289 9.1743-0.33789 1.6175 0.0351 7.5578-0.37494 9.1743-0.33984 1.6285-0.502 4.2993 0.63104 5.3539 1.7285l1.6628-2.1133 1.115-1.5879c1.5934 1.1092 6.4072 2.8262 8.0358 2.3242 1.6285-0.5021 5.9403-0.40799 9.1743-0.33789l3.2335 0.06836c2.1553 0.0468 4.8393 0.64261 5.929 0.12891l2.1909-1.5645c1.5934 1.1092 4.2875 1.1679 5.3892 0.11719l1.5942 1.1094 0.5262 0.54883c2.7072-0.4786 21.066-1.693 27.534-1.5527 5.9401-0.4086 13.484-0.24407 15.639-0.19727l2.1556 0.04687 6.4669 0.13867 26.949 0.58594 2.1557 0.04492c2.1563 0.0468 6.4906-0.93356 7.5682-0.91016 1.0666 0.5604 3.233 0.07046 4.2996 0.63086 1.0656 0.5605 13.486-0.24396 15.629 0.33984 2.1563 0.0468 4.8405 0.64074 5.3794 0.65234 0.53883 0.0117 2.1655-0.49017 4.3328-0.98047l1.6177 0.03516c2.6951 0.0585 5.9294 0.1291 8.6246 0.1875l8.6226 0.1875 8.6285 0.18555 8.6226 0.1875 2.6936 0.05859c3.2249 0.0701 8.073 0.71308 10.756 1.3086l2.7052-0.47852 3.255-1.0039c3.7758 0.0818 9.7039 0.20922 13.461 0.82812l3.2355 0.07031c1.6125 0.0351 3.7844-0.45502 5.3969-0.41992l1.6236 0.03516c2.1533 0.0468 7.5309 0.7012 8.6226 0.1875s4.2779 1.7032 5.3696 1.1895c1.6225-0.502 4.8968-2.0428 5.9584-1.4824 1.0616 0.5605 4.8375 0.64272 5.9192 0.66602 1.0616 0.5605 3.2356 0.07048 5.3989-0.41992l1.6119 0.03516c2.1633 0.0467 3.7561 1.1563 5.9095 1.2031 1.0816 0.0233 2.6943 0.0586 3.2451-0.4668 2.7342-1.5528 5.3672 1.1895 7.5606-0.375 0.5508-0.5254 2.1537 0.04687 2.1537 0.04687l2.093 2.7324c3.265-1.0041 9.7842-3.5487 11.386-2.9766 1.6124 0.5722 4.8488 0.64272 5.3696 1.1914 1.0717 0.5605 4.2866 1.1663 7.5116 1.7734l1.1208-2.125 2.1928-1.5645c2.1433 0.5839 6.9619 2.3008 8.0436 2.3242 1.0716 0.0234 4.8967-2.0428 5.9584-1.4824 1.6024 0.5722 5.419-0.95698 6.4806-0.39648 1.6025 0.5721 3.7661 0.61918 4.8277 1.1797 1.0617 0.5604 3.2342 0.0684 4.8767-0.9707l2.1127 1.6582c0.5308 0.5487 2.7144-0.47846 4.3269-0.44336 0.5509-0.5254 2.1737-0.49012 2.1537 0.04687 1.0416 1.6346 2.7152-0.47836 4.2976 1.168 0.5208 0.5487 3.2239 0.07049 5.3872 0.11719 3.235 0.0701 6.4596 0.13888 9.6946 0.20898l3.2354 0.07031c3.2349 0.0701 10.266-0.8515 11.868-0.2793 1.6024 0.5721 5.9291 0.12894 7.0108 0.15234 1.0716 0.0233 5.9004 1.2013 7.5329 0.69922 1.6125 0.0351 5.3879 0.11741 8.6129 0.72461l3.2335 0.07031c0.5409 0.0117 6.5006-1.4705 8.6539-1.4238 2.1433 0.5838 14.543 0.85179 18.319 0.93359 4.3066 0.0935 9.7039-0.32615 10.244-0.31445 0.5408 0.0116 3.2365 0.07033 3.7773 0.08203 0.5408 0.0116 2.1431 0.58414 3.7656 0.61914l3.2236 0.07031c1.6325-0.502 7.0121 0.15045 8.6246 0.18555 1.6325-0.502 4.3356-0.98044 5.9681-1.4824l0.5322 0.54883 2.4529 2.0488v-23.975h-1302z" fill="#5c5db1" stroke-width="1.0008"/>
</svg>
