<svg width="20" height="40" viewBox="0 0 20 40" fill="none" xmlns="http://www.w3.org/2000/svg">
<path fill-rule="evenodd" clip-rule="evenodd" d="M0.953372 19.9017C1.34594 20.6677 1.81534 21.3253 2.32287 21.9698L4.40866 24.3777L8.62752 29.2311C9.34343 30.0086 10.053 30.8019 10.7625 31.5951C11.472 32.3883 12.1815 33.1815 12.8974 33.959C14.3292 35.514 15.7611 37.0692 17.2656 38.599L17.3601 38.6742C17.9017 39.1883 18.673 39.1376 19.052 38.3594C19.2269 38.0832 19.3073 37.7318 19.2676 37.3679L19.1631 2.55872C19.1546 2.07728 18.9351 1.70468 18.645 1.59784C18.8232 1.2362 18.7899 0.745927 18.5864 0.438479C18.4049 -0.0382384 17.9976 -0.113258 17.7026 0.150456C14.5607 2.80023 11.5567 5.72597 8.55266 8.65171L4.11732 13.0969C3.37812 13.8378 2.63892 14.5786 1.92145 15.4199C1.25124 16.2987 0.581025 17.1775 0.0960399 18.37C-0.108167 18.872 0.0222121 19.4743 0.400258 19.7752C0.58224 19.92 0.767739 19.9137 0.953372 19.9017ZM17.6883 2.79906L16.8599 33.7924C16.0933 32.8954 15.3225 32.0087 14.5517 31.122C13.8486 30.3131 13.1391 29.5199 12.4296 28.7267C11.7201 27.9334 11.0105 27.1402 10.3074 26.3313C9.83009 25.8129 9.35565 25.2876 8.88121 24.7623C7.93235 23.7117 6.98349 22.661 6.01194 21.6662L3.82784 19.3462C3.59841 19.1129 3.36662 18.8855 3.12883 18.6728C3.27589 18.5551 3.42056 18.4322 3.56297 18.3049C4.08727 17.8361 4.56956 17.3338 5.05185 16.8316C5.29301 16.5804 5.53416 16.3293 5.78057 16.0823C6.49615 15.3227 7.21812 14.5473 7.94008 13.772C8.66202 12.9966 9.38397 12.2213 10.0995 11.4617C12.6426 8.65141 15.2061 5.79087 17.6883 2.79906Z" fill="white"/>
</svg>
