<svg width="103" height="117" fill="none" version="1.1" viewBox="0 0 103 117" xmlns="http://www.w3.org/2000/svg">
 <path d="m71 41c-0.052-3.4-5.1-3.4-7.3-2.4-0.62 1.4-1.4 4.4 0.59 5.5 2.5 1.5 6.7 1 6.7-3.2z" fill="#fff" stroke="#525375" stroke-linejoin="round" stroke-miterlimit="10"/>
 <path d="m37 42c0.84 7.9 8.6 20 17 19 8-0.85 13-14 12-22-0.84-7.9-8-14-16-13-8 0.85-14 7.9-13 16z" fill="#fff" stroke="#525375" stroke-linejoin="round" stroke-miterlimit="10"/>
 <path d="m61 46c4.4-0.47 7.6-4.4 7.1-8.8s-4.4-7.6-8.8-7.1c-4.4 0.47-7.6 4.4-7.1 8.8s4.4 7.6 8.8 7.1z" fill="#fff" stroke="#525375" stroke-linejoin="round" stroke-miterlimit="10"/>
 <path d="m42 48c4.4-0.47 7.6-4.4 7.1-8.8-0.47-4.4-4.4-7.6-8.8-7.1s-7.6 4.4-7.1 8.8c0.47 4.4 4.4 7.6 8.8 7.1z" fill="#fff" stroke="#525375" stroke-linejoin="round" stroke-miterlimit="10"/>
 <path d="m49 22c0.44 0.05 0.25-4.9 2.8-6.3 1.1-0.6 2.6-0.47 3.5 0.27 1.2 1 1.1 3.2 1.1 4.1-0.018 1.3-0.34 1.8-0.066 2 0.74 0.53 3.3-3.7 5.7-3.2 1.1 0.26 2.1 1.5 2.1 2.7 0.018 2.2-3.6 3.7-3.3 4.3 0.28 0.61 3.7-1.3 5.4 0.13 0.99 0.89 1.2 2.8 0.57 4.2-0.47 1.1-1.4 2-2.5 2.3-1.5 0.42-2.3-0.53-4.3-0.12-1 0.2-1.1 0.5-1.9 0.71-2.8 0.74-4.6-2.3-7.6-2.7-2.1-0.29-3.7 0.94-6.4 3-5.4 4.1-5.7 11-9.6 12-0.3 0.096-0.97 0.23-1.7-0.043-1.8-0.64-3.1-3.4-2.4-4.9 0.75-1.7 3.6-1.6 3.6-2.6-0.013-0.42-0.54-0.71-1-1-2.2-1.6-3.9-5-3-6.6 0.62-1.2 2.7-1.6 4.1-1 1 0.44 1.5 1.3 1.8 1.2 0.41-0.27-1.7-2.8-1.1-5.3 0.38-1.4 1.7-2.8 3.1-2.9 2.1-0.16 3.6 2.7 4.2 2.3 0.87-0.54-2.5-5.8-0.58-8.7 0.54-0.8 1.5-1.4 2.4-1.5 1.7-0.21 3 1.1 3.2 1.3 2.3 2.4 1.4 6.8 1.8 6.8z" fill="#525375" stroke="#525375" stroke-linejoin="round" stroke-miterlimit="10"/>
 <path d="m32 45c-0.62-3.3 3.7-4.4 5.7-3.8 0.8 1.2 2 4 0.59 5.5-1.8 1.9-5.6 2.3-6.3-1.8z" fill="#fff" stroke="#525375" stroke-linejoin="round" stroke-miterlimit="10"/>
 <path d="m42 48c4.4-0.47 7.6-4.4 7.1-8.8-0.47-4.4-4.4-7.6-8.8-7.1s-7.6 4.4-7.1 8.8c0.47 4.4 4.4 7.6 8.8 7.1z" fill="#fff" stroke="#525375" stroke-linejoin="round" stroke-miterlimit="10"/>
 <path d="m44 41c1.4-0.15 2.4-1.2 2.3-2.3-0.12-1.1-1.3-1.9-2.7-1.7-1.4 0.15-2.4 1.2-2.3 2.3 0.12 1.1 1.3 1.9 2.7 1.7z" fill="#525375" stroke="#525375" stroke-linejoin="round" stroke-miterlimit="10"/>
 <path d="m58 40c1.4-0.15 2.4-1.2 2.3-2.3-0.12-1.1-1.3-1.9-2.7-1.7s-2.4 1.2-2.3 2.3c0.12 1.1 1.3 1.9 2.7 1.7z" fill="#525375" stroke="#525375" stroke-linejoin="round" stroke-miterlimit="10"/>
 <path d="m53 39-3 0.32" stroke="#525375" stroke-linejoin="round" stroke-miterlimit="10"/>
 <path d="m57 49c-0.081 0.16-1 1.8-3.2 2.2-1.8 0.34-3.7-0.26-4.7-1.5" fill="#fff"/>
 <path d="m57 49c-0.081 0.16-1 1.8-3.2 2.2-1.8 0.34-3.7-0.26-4.7-1.5" stroke="#525375" stroke-linejoin="round" stroke-miterlimit="10"/>
 <path d="m51 61c0.35 3.3-0.67 6.5-2.8 8.9l-8 9.2c-2.1 2.5-3.1 5.7-2.8 8.9l1.8 17 36-3.8-1.8-17c-0.35-3.3-2-6.2-4.6-8.2l-9.7-7.3c-2.6-2-4.3-4.9-4.6-8.2l-3.3 0.35z" fill="#fff" stroke="#525375" stroke-linejoin="round" stroke-miterlimit="10"/>
 <path d="m60 68-4.8 5.9-6.2-5.4" stroke="#525375" stroke-miterlimit="10"/>
 <path d="m63 69-7.6 9.3-9.4-8.1" stroke="#525375" stroke-miterlimit="10"/>
 <path d="m57 98-4.9-3.4 2.8-16 6.2 15-4.1 4.4z" fill="#525375" stroke="#525375" stroke-linejoin="round" stroke-miterlimit="10"/>
 <path d="m59 76-4.4-3.6-3.6 4.4 4.4 3.6 3.6-4.4z" fill="#525375" stroke="#525375" stroke-linejoin="round" stroke-miterlimit="10"/>
 <path d="m68 83-6 0.63 0.42 4 6-0.63-0.42-4z" fill="#fff" stroke="#525375" stroke-linejoin="round" stroke-miterlimit="10"/>
 <path d="m49 85-6 0.63 0.42 4 6-0.63-0.42-4z" fill="#fff" stroke="#525375" stroke-linejoin="round" stroke-miterlimit="10"/>
</svg>
