<svg width="63" height="97" fill="none" version="1.1" viewBox="0 0 63 97" xmlns="http://www.w3.org/2000/svg">
 <path d="m15 30c0.78 9 9.3 23 18 22 9-0.78 15-16 14-25-0.78-9-8.7-16-18-15-9 0.78-16 8.7-15 18z" fill="#fff" stroke="#525375" stroke-linejoin="round" stroke-miterlimit="10"/>
 <path d="m34 34-3.9 0.34" stroke="#525375" stroke-linejoin="round" stroke-miterlimit="10"/>
 <path d="m38 44c-0.84 0.42-2.3 0.96-4.1 1.1-2 0.18-3.6-0.27-4.5-0.54" stroke="#525375" stroke-linejoin="round" stroke-miterlimit="10"/>
 <path d="m31 52c0.32 3.7-0.95 7.3-3.4 10l-9.4 10c-2.5 2.7-3.7 6.3-3.4 10l0.5 5.8 41-3.6-0.5-5.8c-0.32-3.7-2.2-7.1-5.1-9.3l-11-8.5c-2.9-2.3-4.8-5.6-5.1-9.3l-3.8 0.33z" fill="#fff" stroke="#525375" stroke-linejoin="round" stroke-miterlimit="10"/>
 <path d="m19 39c-2.2 3.3-5.9 3.9-7.7 2.5-1.2-0.95-1.7-3.1-0.89-4.9 0.89-1.8 3.1-2.8 5.2-2.2l3.3 4.6z" fill="#fff" stroke="#525375" stroke-linejoin="round" stroke-miterlimit="10"/>
 <path d="m44 36c2.8 2.9 6.5 2.8 8 1.2 1-1.1 1.2-3.4 0.038-5-1.2-1.7-3.5-2.3-5.5-1.3l-2.5 5.1z" fill="#fff" stroke="#525375" stroke-linejoin="round" stroke-miterlimit="10"/>
 <path d="m30 29-15 1.3 0.83 9.6 15-1.3-0.83-9.6z" fill="#fff" stroke="#525375" stroke-linejoin="round" stroke-miterlimit="10"/>
 <path d="m49 27-15 1.3 0.83 9.6 15-1.3-0.83-9.6z" fill="#fff" stroke="#525375" stroke-linejoin="round" stroke-miterlimit="10"/>
 <path d="m33 45c-0.38-0.66-1.1-1.8-2.6-2.3-0.6-0.21-1.8-0.48-2.1-0.083-0.29 0.34 0.091 1.1 0.99 1.8l3.8 0.53z" fill="#fff" stroke="#525375" stroke-linejoin="round" stroke-miterlimit="10"/>
 <path d="m27 39c1.2-0.1 2-1.1 1.9-2.3-0.1-1.2-1.1-2-2.3-1.9-1.2 0.1-2 1.1-1.9 2.3s1.1 2 2.3 1.9z" fill="#525375"/>
 <path d="m38 38c1.2-0.1 2-1.1 1.9-2.3-0.1-1.2-1.1-2-2.3-1.9-1.2 0.1-2 1.1-1.9 2.3 0.1 1.2 1.1 2 2.3 1.9z" fill="#525375"/>
 <path d="m27 27s-3.7-2.7-5.9-1.8c-2.1 0.89-2.3 2.1-2.3 2.1" fill="#fff"/>
 <path d="m27 27s-3.7-2.7-5.9-1.8c-2.1 0.89-2.3 2.1-2.3 2.1" stroke="#525375" stroke-linejoin="round" stroke-miterlimit="10"/>
 <path d="m48 27c0.85-1.7 3.5-7.5 1.3-13-3.3-8.5-15-12-22-9.6-5.9 1.7-11 7.5-12 8.4-2.1 2.2-4.7 5.6-9.6 7.2-1.3 0.4-2.3 0.61-3 0.72 0 0 3 5.3 7.8 6.2 4.8 0.88 5.5 1.6 5.5 1.6 0.44-1 1.7-3.6 4.5-5.2 2.4-1.4 4.8-1.4 6.2-1.4 0 0 2.5 0.075 10 3.4 0.14-0.36 0.86-2.2 2.7-2.9 1.4-0.47 2.6-0.1 3.4 0.17 3.1 1 4.6 3.8 5 4.8z" fill="#525375" stroke="#525375" stroke-linejoin="round" stroke-miterlimit="10"/>
 <path d="m21 15c4.3-3.4 10-2.9 13 0.19 2.7 3.2 1.3 7.8 1.2 8.1" stroke="#fff" stroke-linejoin="round" stroke-miterlimit="10"/>
 <path d="m39 21c0.19-0.48 2-4.8-0.18-8.2-2.4-3.7-8.6-4.9-14-1.5" stroke="#fff" stroke-linejoin="round" stroke-miterlimit="10"/>
 <path d="m17 91 40-3.5c1.8-0.16 3.3-1.6 3.1-3.3l-2.4-28c-0.14-1.6-1.8-2.9-3.6-2.7l-40 3.5c-1.8 0.16-3.3 1.6-3.1 3.3l2.4 28c0.14 1.7 1.8 2.9 3.6 2.7z" fill="#fff" stroke="#525375" stroke-linecap="round" stroke-linejoin="round"/>
 <path d="m62 90c0.071 0.83-0.54 1.6-1.4 1.6l-46 4c-0.83 0.071-1.6-0.54-1.6-1.4-0.071-0.83 0.54-1.6 1.4-1.6l46-4c0.83-0.071 1.6 0.54 1.6 1.4z" fill="#fff" stroke="#525375" stroke-linecap="round" stroke-linejoin="round"/>
 <path d="m36 74c1.6-0.14 2.9-1.6 2.7-3.2-0.14-1.6-1.6-2.9-3.2-2.7-1.6 0.14-2.9 1.6-2.7 3.2 0.19 1.7 1.6 2.9 3.2 2.7z" fill="#525375"/>
</svg>
