<svg width="52" height="102" fill="none" version="1.1" viewBox="0 0 52 102" xmlns="http://www.w3.org/2000/svg">
 <path d="m9 30c0 8.9 7.2 23 16 23 8.8 0 16-14 16-23 0-8.9-7.1-16-16-16-8.8 0-16 7.2-16 16z" fill="#fff" stroke="#525375" stroke-miterlimit="10"/>
 <path d="m29 42c-0.91 1.8-2.6 2.9-4.2 2.7-2.5-0.2-3.7-2.9-3.8-3" stroke="#525375" stroke-miterlimit="10"/>
 <path d="m24 53c0 3.6-1.6 7.2-4.2 9.6l-10 9.3c-2.7 2.5-4.2 5.9-4.2 9.6v20h41v-20c0-3.6-1.6-7.2-4.2-9.6l-10-9.3c-2.7-2.5-4.2-5.9-4.2-9.6h-3.8z" fill="#fff" stroke="#525375" stroke-miterlimit="10"/>
 <path d="m21 60c2.8 2.4 5.9 2.9 9 0" stroke="#525375" stroke-miterlimit="10"/>
 <path d="m19 63c3.7 2.4 7.8 2.9 12 0" stroke="#525375" stroke-miterlimit="10"/>
 <path d="m20 35c0.55 0 1-0.67 1-1.5s-0.45-1.5-1-1.5-1 0.67-1 1.5 0.45 1.5 1 1.5z" fill="#525375"/>
 <path d="m30 35c0.55 0 1-0.67 1-1.5s-0.45-1.5-1-1.5-1 0.67-1 1.5 0.45 1.5 1 1.5z" fill="#525375"/>
 <path d="m18 70-2.6-8.9c-3.2-7.3-2.5-25 0-33 5.6-17 15-15 20-8 1.8 2.5 3 8.9 3.2 14 0.29 8.7 0.18 17-4.7 24l-3.7 5.9 16-0.23s0.41-21-2.3-36c-2.1-12-15-20-26-16-7.4 2.3-14 8.6-15 17-1.1 5.4-1.3 11 0.18 17 5.5 22 8.9 27 8.9 27l6.9-3.8z" fill="#525375" stroke="#525375" stroke-miterlimit="10"/>
 <path d="m21 31s-0.45-0.52-1.5-0.47c-1 0.051-1.8 0.81-2 1.1" fill="#fff"/>
 <path d="m21 31s-0.45-0.52-1.5-0.47c-1 0.051-1.8 0.81-2 1.1" stroke="#525375" stroke-miterlimit="10"/>
 <path d="m33 31c0.041-0.83-0.45-1.5-1.2-1.9-0.98-0.36-2.2 0.036-2.8 1" fill="#fff"/>
 <path d="m33 31c0.041-0.83-0.45-1.5-1.2-1.9-0.98-0.36-2.2 0.036-2.8 1" stroke="#525375" stroke-miterlimit="10"/>
 <path d="m46 26c-4.3 1.1-6.3-4.3-14-6.4-2.7-0.73-5.6-0.79-12-0.9-6.3-0.11-8.1 0.51-11-0.79-2.8-1.5-5.6-4.7-5.4-8.2 0.35-4.8 6.3-8.3 11-8.5 0 0 4.5-0.23 14 5.9 0.93 0.62 1.3 0.96 1.3 0.96 0.23 0.17 0.41 0.34 0.58 0.45 0.23 0.17 0.64 0.39 1.2 0.56 0.058 0 0.76 0.28 1.6 0.45 2.7 0.56 10 0.45 14 3.2 2.4 1.7 4.1 5.1 3.4 8.2-0.58 2.2-2.4 4.6-4.9 5.2z" fill="#fff" stroke="#525375" stroke-miterlimit="10"/>
 <path d="m32 11c0.39 0.17 3.6-2.2 3.1-4.9-0.32-1.6-1.9-3.3-2.9-3-0.77 0.17-1.2 1.6-0.97 2.6 0.19 0.93 0.84 1 1.2 1.9 0.71 1.7-0.65 3.3-0.39 3.4z" fill="#fff" stroke="#525375" stroke-miterlimit="10"/>
 <path d="m21 89 0.4 0.75c1.3 2.2 1.9 4.6 1.9 7.2v4.8h2.2v-4.8c0-2.5 0.63-5 1.9-7.2l0.4-0.75h-6.8z" fill="#fff" stroke="#525375" stroke-miterlimit="10"/>
 <path d="m28 89h-6.3l-2.3-8h6.6l0.75 1.2 0.81-1.2h2.2l-1.7 8z" fill="#525375" stroke="#525375" stroke-miterlimit="10"/>
 <path d="m23 89-0.58-5" stroke="#fff" stroke-miterlimit="10"/>
 <path d="m25 88 0.12-3" stroke="#fff" stroke-miterlimit="10"/>
 <path d="m38 93h-2.2v8.7h2.2v-8.7z" fill="#fff" stroke="#525375" stroke-miterlimit="10"/>
 <path d="m35 93h2.2l0.58-4h-3.3l0.58 4z" fill="#fff" stroke="#525375" stroke-miterlimit="10"/>
 <path d="m38 89c0.81-0.69 2-2 2.2-3.8 0.4-3.5-3.2-6.2-3.9-6.8-0.23-0.17-0.4-0.35-0.58-0.4 0 0.92-0.12 2.3-0.75 3.8-0.75 1.7-1.6 2.2-1.7 3.4-0.058 0.87 0.29 2.1 2.2 3.7 0.87-0.058 1.7 0 2.5 0z" fill="#525375" stroke="#525375" stroke-miterlimit="10"/>
 <path d="m37 89s1.6-3 0.87-5.5" stroke="#fff" stroke-miterlimit="10"/>
</svg>
