<svg width="88" height="94" fill="none" version="1.1" viewBox="0 0 88 94" xmlns="http://www.w3.org/2000/svg">
 <path d="m58 31c0.82-1.2 2.3-1.7 3.3-0.69 0.041 0.058 0.86 0.86 0.86 2.1 0.041 1.7-1.3 2.8-2.3 3.2-0.21 0.058-1.8 0.63-2.5-0.58-0.62-1.1-0.12-3 0.57-4z" fill="#fff" stroke="#525375" stroke-miterlimit="10" stroke-width=".45"/>
 <path d="m30 29c0 8 6.5 21 15 21 8 0 15-13 15-21 0-8-6.5-15-15-15-8.1 0-15 6.5-15 15z" fill="#fff" stroke="#525375" stroke-miterlimit="10" stroke-width=".52"/>
 <path d="m49 39c-0.88 1.4-2.5 2.2-4.1 2.1-2.4-0.15-3.5-2.2-3.6-2.3" stroke="#525375" stroke-miterlimit="10" stroke-width=".52"/>
 <path d="m43 50c0 3.3-1.4 6.4-3.8 8.6l-9.1 8.3c-2.4 2.2-3.8 5.3-3.8 8.6v17h37v-17c0-3.3-1.4-6.4-3.8-8.6l-9.1-8.3c-2.4-2.2-3.8-5.3-3.8-8.6h-3.4z" fill="#fff" stroke="#525375" stroke-miterlimit="10" stroke-width=".52"/>
 <path d="m40 32c0 0.43-0.35 0.77-0.77 0.77-0.43 0-0.78-0.35-0.78-0.77s0.35-0.78 0.78-0.78c0.43 0 0.77 0.35 0.77 0.78z" fill="#525375" stroke="#525375" stroke-width=".52"/>
 <path d="m51 32c0 0.43-0.35 0.77-0.77 0.77-0.43 0-0.78-0.35-0.78-0.77s0.35-0.78 0.78-0.78c0.43 0 0.77 0.35 0.77 0.78z" fill="#525375" stroke="#525375" stroke-width=".52"/>
 <path d="m42 28c-0.21-0.1-1.1-0.62-2.3-0.36-1.4 0.31-2.1 1.4-2.2 1.7" fill="#fff"/>
 <path d="m42 28c-0.21-0.1-1.1-0.62-2.3-0.36-1.4 0.31-2.1 1.4-2.2 1.7" stroke="#525375" stroke-miterlimit="10" stroke-width=".52"/>
 <path d="m53 30c-0.1-0.26-0.57-1.1-1.7-1.5-1-0.41-2.2-0.15-3.1 0.57" fill="#fff"/>
 <path d="m53 30c-0.1-0.26-0.57-1.1-1.7-1.5-1-0.41-2.2-0.15-3.1 0.57" stroke="#525375" stroke-miterlimit="10" stroke-width=".52"/>
 <path d="m30 2.5 3e-4 2.3e-4c2.6 2 4.1 4.9 4.9 7.5 0.85 2.6 1.1 4.8 1.2 5.7l-1.2 5c-3.1-4.9-5.5-7.4-7.3-8.6-1.9-1.3-3.1-1.2-3.6-1l-9e-4 2e-4c-0.89 0.19-1.6 0.75-2.3 1.5-0.64 0.79-1.2 1.8-1.6 3-0.89 2.4-1.5 5.5-1.8 8.6-0.66 5.7-0.63 12-0.6 13-1.7-0.41-3.4-0.82-5.1-1.2-1.4-0.36-2.9-0.71-4.3-1.1l-0.14-0.034-0.1 0.099c-1.6 1.6-2.9 2.5-3.9 3-0.97 0.44-1.6 0.39-2.1 0.11l-0.0026-0.0016c-0.4-0.24-0.77-0.75-1.1-1.5-0.3-0.77-0.52-1.8-0.65-3-0.25-2.4-0.14-5.4 0.43-8.7 1.1-6.6 4.1-14 9.3-19l7e-4 -6.6e-4c2.2-2 5.6-4.3 9.2-5.3 3.6-1.1 7.4-0.94 11 1.6z" fill="#525375" stroke="#525375" stroke-width=".52"/>
 <path d="m36 10-2.1-4.1-7.3 5.4 4 3.4 5.3-4.7z" fill="#fff" stroke="#525375" stroke-miterlimit="10" stroke-width=".52"/>
 <path d="m47 11 0.08 0.032 0.083-0.023c1.3-0.36 5.1-1.2 9.3 0.56l1e-3 4e-4c0.61 0.25 5.2 2.2 7.3 7.1l1e-4 3e-4 7e-4 0.0017c0.0015 0.0037 0.0042 0.01 0.0079 0.021 0.0075 0.02 0.019 0.054 0.034 0.1 0.03 0.097 0.074 0.25 0.12 0.48 0.099 0.46 0.22 1.2 0.3 2.4 0.15 2 0.17 5.3-0.24 10-0.06-0.33-0.13-0.68-0.21-1-0.2-0.88-0.46-1.8-0.8-2.6-0.34-0.82-0.78-1.6-1.3-2l-0.19-0.16-4.4 4.8c-0.54-5.1-2.9-9.4-6.6-11v-1e-4l-0.0091-0.0031c-0.79-0.26-1.9-0.53-3.2-0.48l-0.086 0.0035-0.067 0.054c-2.5 2-5.8 5.1-8.7 9.7-4 6.2-5.5 12-6.1 16-7.2-8.7-9.8-19-6.3-26 0.56-1.2 2.7-5.6 7.8-7.9v1e-4l0.0037-0.0018c6.1-2.9 12-0.63 13-0.15l0.018 0.0069z" fill="#525375" stroke="#525375" stroke-width=".52"/>
 <path d="m31 78c1.4 0 2.5-1.1 2.5-2.5s-1.1-2.5-2.5-2.5-2.5 1.1-2.5 2.5 1.1 2.5 2.5 2.5z" stroke="#525375" stroke-miterlimit="10" stroke-width=".52"/>
 <path d="m46 84c1.4 0 2.5-1.1 2.5-2.5s-1.1-2.5-2.5-2.5-2.5 1.1-2.5 2.5 1.1 2.5 2.5 2.5z" stroke="#525375" stroke-miterlimit="10" stroke-width=".52"/>
 <path d="m56 76c1.4 0 2.5-1.1 2.5-2.5 0-1.4-1.1-2.5-2.5-2.5s-2.5 1.1-2.5 2.5c0 1.4 1.1 2.5 2.5 2.5z" stroke="#525375" stroke-miterlimit="10" stroke-width=".52"/>
 <path d="m57 91c1.4 0 2.5-1.1 2.5-2.5s-1.1-2.5-2.5-2.5c-1.4 0-2.5 1.1-2.5 2.5s1.1 2.5 2.5 2.5z" stroke="#525375" stroke-miterlimit="10" stroke-width=".52"/>
 <path d="m37 91c1.4 0 2.5-1.1 2.5-2.5 0-1.4-1.1-2.5-2.5-2.5-1.4 0-2.5 1.1-2.5 2.5 0 1.4 1.1 2.5 2.5 2.5z" stroke="#525375" stroke-miterlimit="10" stroke-width=".52"/>
 <path d="m86 41-13-2.4-6.1 33 13 2.4 6.1-33z" fill="#fff" stroke="#525375" stroke-linejoin="round" stroke-miterlimit="10" stroke-width=".52"/>
 <path d="m86 41-13-2.4-0.77 4.2 13 2.4 0.77-4.2z" fill="#fff" stroke="#525375" stroke-linejoin="round" stroke-miterlimit="10" stroke-width=".52"/>
 <path d="m73 38 13 2.4 1.5-8.3c0.1-0.52-0.26-1-0.78-1.1l-11-2.1c-0.52-0.1-1 0.26-1.1 0.77l-1.5 8.3z" fill="#fff" stroke="#525375" stroke-linejoin="round" stroke-miterlimit="10" stroke-width=".52"/>
 <path d="m75 82 4.9-8.5-13-2.4 1.5 9.7" fill="#fff"/>
 <path d="m75 82 4.9-8.5-13-2.4 1.5 9.7" stroke="#525375" stroke-linejoin="round" stroke-miterlimit="10" stroke-width=".52"/>
 <path d="m73 86 2-3.5c-0.1-0.77-0.72-1.3-1.4-1.4-0.67-0.052-1.3 0.26-1.7 0.83-0.16-0.72-0.77-1.3-1.5-1.5-0.77-0.16-1.5 0.16-2 0.83l0.62 4c0.16 0.88 0.83 1.6 1.7 1.8 0.88 0.21 1.8-0.21 2.2-0.98z" fill="#525375" stroke="#525375" stroke-linejoin="round" stroke-miterlimit="10" stroke-width=".52"/>
 <path d="m76 43-5.3 29" stroke="#525375" stroke-linejoin="round" stroke-miterlimit="10" stroke-width=".52"/>
 <path d="m80 44-5.3 29" stroke="#525375" stroke-linejoin="round" stroke-miterlimit="10" stroke-width=".52"/>
 <path d="m50 59-4.8 9.9-5.8-10-2.4 2.2c-2.2 3.4 3.3 4 3.3 4s-1.6-0.1-1.7 1.8c-0.052 1.9 4.2 2.2 4.2 2.2s-1.6 0-1.5 1.4c0.1 1.4 4.3 4 4.3 4 4.6-1.7 2.4-5.2 2.4-5.2l1.9-1.1c1.9-1.1-0.36-3.1-0.36-3.1s1-0.052 2.4-1.4-0.83-3.3-0.83-3.3l-1.2-1.2z" fill="#525375" stroke="#525375" stroke-miterlimit="10" stroke-width=".52"/>
</svg>
