<svg width="105" height="99" fill="none" version="1.1" viewBox="0 0 105 99" xmlns="http://www.w3.org/2000/svg">
 <path d="m53 34c0 8.7 7.1 23 16 23 8.7 0 16-14 16-23 0-8.7-7.1-16-16-16-8.8 0.056-16 7.1-16 16z" fill="#fff" stroke="#525375" stroke-miterlimit="10"/>
 <path d="m69 11 0.35 0.72 7.9-10-0.35 5.8 5.8-2.9 4.9-0.4-2.5 3.1-2.3 5.1 9.4-0.42 4.6 3.7h-6.9l-2.9 4.9 10 2.6 4.9 4.2-6.6-1-5.9 2.7 6.1 6.2-7.2-0.8-3.8-0.99c-0.024-0.064-0.053-0.14-0.086-0.22-0.12-0.3-0.29-0.73-0.53-1.2-0.47-1-1.2-2.4-2.2-3.7-1.9-2.6-5-5.3-9.2-5.1-0.0048-0.0018-0.0098-0.0038-0.015-0.0057-0.079-0.03-0.19-0.073-0.34-0.13-0.29-0.11-0.72-0.25-1.2-0.41-1-0.32-2.5-0.69-4.1-0.92-3.2-0.45-7.2-0.34-9.9 2.2-2.4 2.3-4.9 3.1-6.8 3.3-0.93 0.12-1.7 0.11-2.3 0.063-0.12-0.01-0.24-0.023-0.34-0.035l1.9-7.8-7.6 0.48 12-6.9-6.4-3.9 12-2.7 5.9 2.5 1.8-1.5 1.9 3.8z" fill="#525375" stroke="#525375"/>
 <path d="m67 57c0 3.6-1.5 7-4.1 9.4l-9.9 9.1c-2.6 2.4-4.1 5.8-4.1 9.4v13h40v-13c0-3.6-1.5-7-4.1-9.4l-9.9-9.1c-2.6-2.4-4.1-5.8-4.1-9.4h-3.7z" fill="#fff" stroke="#525375" stroke-miterlimit="10"/>
 <path d="m89 37c-0.056-0.34-0.28-2.1-1.6-2.9-0.85-0.51-1.9-0.45-2.8-0.17v0.23c0 2.9-0.79 6.4-2.2 9.8 1.5 0.23 3.6-1.1 4.6-2.2 0.51-0.56 2.3-2.3 2-4.7z" fill="#fff" stroke="#525375" stroke-miterlimit="10"/>
 <path d="m77 34c0 0.84-0.68 1.5-1.5 1.5-0.84 0-1.5-0.68-1.5-1.5s0.68-1.5 1.5-1.5c0.84 0 1.5 0.68 1.5 1.5z" fill="#525375" stroke="#525375"/>
 <path d="m77 31s-0.18-0.67-1.1-1.1c-0.95-0.4-2-0.059-2.3 0.088" fill="#fff"/>
 <path d="m77 31s-0.18-0.67-1.1-1.1c-0.95-0.4-2-0.059-2.3 0.088" stroke="#525375" stroke-miterlimit="10"/>
 <path d="m75 66-5.5 4.8-5.8-5.4-2.4 1.6 8.1 7.9 7.8-7-2.2-2z" fill="#fff" stroke="#525375" stroke-miterlimit="10"/>
 <path d="m78 45c-0.34 0.45-2.4 3.3-6.2 3.6-3.1 0.28-6.1-1.2-7.9-3.9" stroke="#525375" stroke-miterlimit="10"/>
 <path d="m36 95c-1.6-0.45-2.6-2.1-2.1-3.8l7.4-26 5.8 1.7-7.4 26c-0.47 1.6-2.1 2.6-3.7 2.1z" fill="#525375" stroke="#525375" stroke-miterlimit="10"/>
 <path d="m49 60-5.8-1.7-2.4 8.2 5.8 1.7 2.4-8.2z" fill="#fff" stroke="#525375" stroke-miterlimit="10"/>
 <path d="m39 56c10 7.7 25 5.6 32-4.5s5.6-25-4.5-32c-10-7.7-25-5.6-32 4.5s-5.6 25 4.5 32z" fill="#fff" stroke="#525375" stroke-miterlimit="10"/>
 <path d="m41 53c8.6 6.5 21 4.8 27-3.8 6.5-8.6 4.8-21-3.8-27-8.6-6.5-21-4.8-27 3.8-6.5 8.6-4.8 21 3.8 27z" fill="#fff" stroke="#525375" stroke-miterlimit="10"/>
 <path d="m69 35s-7.6-9.9-17-9.7-16 10-16 10" stroke="#525375" stroke-miterlimit="10"/>
 <path d="m63 38c0.12 5.5-4.3 10-9.8 10s-10-4.3-10-9.8 4.3-10 9.8-10c5.5-0.12 10 4.3 10 9.8z" fill="#525375" stroke="#525375"/>
 <path d="m68 82c0.015 0.73 0.62 1.3 1.3 1.3s1.3-0.62 1.3-1.3c-0.015-0.73-0.62-1.3-1.3-1.3-0.73 0.015-1.3 0.62-1.3 1.3z" fill="#525375" stroke="#525375"/>
 <path d="m68 92c0.015 0.73 0.62 1.3 1.3 1.3s1.3-0.62 1.3-1.3c-0.015-0.73-0.62-1.3-1.3-1.3-0.73 0.015-1.3 0.62-1.3 1.3z" fill="#525375" stroke="#525375"/>
 <path d="m75 23 3.7 0.93 0.71 4-4.4-5z" fill="#525375" stroke="#525375"/>
 <path d="m70 69c1.9-2.4 4.6-4.2 8.1-5.3 1 3.4 1 6.9 0 10-3-0.59-5.6-2.6-8.1-5.2z" fill="#525375" stroke="#525375" stroke-miterlimit="10"/>
 <path d="m69 69c-1.9 2.4-4.6 4.2-8.1 5.3-1-3.4-1-6.9 0-10 3 0.59 5.6 2.6 8.1 5.2z" fill="#525375" stroke="#525375" stroke-miterlimit="10"/>
 <path d="m67 68v2.4c0 0.79 0.62 1.4 1.4 1.4h1.3c0.79 0 1.4-0.63 1.4-1.4v-2.4c0-0.79-0.62-1.4-1.4-1.4h-1.3c-0.75 0-1.4 0.63-1.4 1.4z" fill="#525375" stroke="#525375" stroke-miterlimit="10"/>
</svg>
