<svg width="170" height="182" viewBox="0 0 170 182" fill="none" xmlns="http://www.w3.org/2000/svg">
<g clip-path="url(#clip0)">
<path d="M24.744 119.924C25.749 114.551 25.3074 109.232 26.0048 103.967C26.6118 98.7208 27.6526 93.5287 29.7774 88.8258C30.8668 86.4924 32.2272 84.3401 33.9305 82.4955C34.7821 81.5732 35.7058 80.7776 36.7379 80.0545C37.281 79.711 37.77 79.3313 38.331 79.0783L39.1817 78.6264L40.0504 78.265C42.3124 77.3435 44.8085 76.8924 47.34 76.8575C49.8715 76.8227 52.4384 77.2039 55.041 77.7661C60.1922 78.8543 65.2152 80.7204 70.4196 82.3152C73.0218 83.1126 75.624 83.9101 78.4438 84.3819C79.1307 84.527 79.8537 84.6178 80.5227 84.6725C81.2458 84.7633 81.9147 84.8179 82.674 84.8545C83.0537 84.8728 83.3792 84.8548 83.7589 84.8731C84.1386 84.8914 84.4641 84.8735 84.88 84.8375C85.6215 84.7836 86.3629 84.7297 87.0686 84.4949C87.7921 84.3505 88.534 84.0614 89.2397 83.8266C89.5836 83.6639 89.9274 83.5013 90.2713 83.3386L90.7781 83.0494L91.2308 82.724C92.5705 81.8924 93.6214 80.7893 94.546 79.5233C96.3591 77.0455 97.1423 74.115 97.4734 71.2746C97.8044 68.4342 97.7736 65.6661 97.5078 62.8978C97.2962 60.1657 96.8495 57.4335 96.3666 54.7555C95.4006 49.3997 94.1634 44.0979 93.0345 38.8686C92.4611 36.2087 91.9056 33.6393 91.4768 30.9975C91.048 28.3558 90.7638 25.7322 90.8231 23.1812C90.8461 20.6845 91.4659 18.1157 93.1136 16.9405C93.9464 16.3981 95.0138 16.0911 96.1891 16.0917C97.3645 16.0923 98.6297 16.3101 99.8225 16.6364C102.262 17.3251 104.683 18.3938 106.995 19.6253C109.307 20.8568 111.601 22.233 113.822 23.7177C118.3 26.6329 122.598 29.8194 126.822 33.1144C131.047 36.4094 135.163 39.8672 139.242 43.3793C147.402 50.4034 155.325 57.6625 163.14 65.0845C163.483 65.3922 163.953 65.3925 164.315 65.0851C164.623 64.7415 164.624 64.2711 164.318 63.9091C156.63 56.4148 148.761 48.9566 140.674 41.824C136.631 38.2577 132.461 34.7637 128.254 31.324C124.066 27.9747 119.751 24.6978 115.2 21.6559C112.925 20.1349 110.613 18.6683 108.157 17.4186C105.736 16.1147 103.207 14.9736 100.46 14.158C99.0687 13.7773 97.6408 13.4509 96.14 13.4683C94.6392 13.4856 92.9208 13.8285 91.5628 14.8048C90.8567 15.2748 90.2768 15.9077 89.8053 16.6131C89.3338 17.3185 89.0069 18.042 88.7705 18.7475C88.2613 20.2127 88.1318 21.6963 88.0749 23.0713C87.9789 25.9117 88.3352 28.662 88.6914 31.4122C89.0839 34.1082 89.6573 36.7681 90.2307 39.428C91.3234 44.7116 92.5606 50.0133 93.4545 55.2425C93.8832 57.8843 94.2579 60.4898 94.4516 63.1314C94.6453 65.773 94.6944 68.3965 94.3459 70.9111C93.9975 73.4258 93.3056 75.868 91.8915 77.7489C91.1845 78.6893 90.3691 79.5573 89.3554 80.1358L89.1199 80.3708L88.7397 80.5878C88.4863 80.7324 88.2329 80.877 87.9253 80.9854C87.4005 81.1841 86.8395 81.4371 86.2427 81.5092C83.909 82.0689 81.3238 81.8323 78.8295 81.3426C76.2989 80.907 73.7509 80.1458 71.185 79.2942C66.071 77.6813 60.9938 75.779 55.5534 74.6545C52.8061 74.0741 50.0405 73.6385 47.1835 73.6913C44.3628 73.6898 41.4144 74.2311 38.718 75.3333C38.3742 75.496 38.0666 75.6044 37.7227 75.767L36.7453 76.2912C36.0575 76.6165 35.4781 77.0143 34.8625 77.4663C33.6674 78.316 32.5444 79.2924 31.584 80.3775C29.6089 82.5114 28.0309 84.9893 26.8868 87.5216C24.5261 92.6949 23.4123 98.2306 22.7869 103.622C22.2699 109.086 21.7167 114.603 23.1165 120.014C23.206 120.466 23.6756 120.702 24.1279 120.611C24.4355 120.503 24.671 120.268 24.744 119.924Z" fill="#EFEFF7"/>
<path d="M6.25503 115.336C8.41693 119.372 10.8323 123.263 13.2476 127.154C14.4734 129.073 15.6992 130.991 16.925 132.91C17.5379 133.869 18.1508 134.828 18.8541 135.769C19.5937 136.656 20.3333 137.543 21.3626 138.231C21.796 138.521 22.3387 138.413 22.6288 137.979C22.7739 137.761 22.7744 137.526 22.7748 137.291C22.5421 136.115 22.0922 135.029 21.5155 134.016C20.9389 133.002 20.2897 132.097 19.6768 131.138C18.4148 129.274 17.0985 127.373 15.8365 125.509C13.2219 121.799 10.5531 118.052 7.72142 114.432C7.41474 114.07 6.89044 114.034 6.56448 114.287C6.13016 114.468 6.0388 114.956 6.25503 115.336Z" fill="#EFEFF7"/>
<path d="M21.9238 137.743C23.0096 137.292 23.8608 136.605 24.6941 135.827L26.9588 133.494C28.4808 131.921 30.0027 130.348 31.5247 128.774C32.9924 127.165 34.5144 125.592 35.9822 123.982C37.4499 122.373 38.9177 120.763 40.3676 119.063L40.4401 118.955C40.9295 118.34 40.9313 117.399 40.2634 116.874C40.0288 116.639 39.7216 116.512 39.3961 116.53L8.48187 113.764C7.95757 113.728 7.55906 114.089 7.55814 114.56C7.50305 114.994 7.82762 115.446 8.31565 115.537L39.1009 119.551L38.1836 117.054C36.6075 118.591 35.0856 120.164 33.5636 121.738C32.0417 123.311 30.5739 124.92 29.052 126.494C27.5842 128.103 26.0622 129.676 24.6487 131.322L22.456 133.781C21.731 134.631 21.0603 135.518 20.7146 136.621C20.5327 137.128 20.7848 137.689 21.327 137.816C21.5258 137.87 21.7608 137.87 21.9238 137.743Z" fill="#EFEFF7"/>
</g>
<defs>
<clipPath id="clip0">
<rect width="104" height="149" fill="white" transform="matrix(-0.831364 -0.555728 -0.555728 0.831364 169.265 57.7959)"/>
</clipPath>
</defs>
</svg>
