<svg width="122" height="34" version="1.1" viewBox="0 0 122 34" xmlns="http://www.w3.org/2000/svg">
 <path d="m14 18c-0.82 0.0094-1-0.87-1.3-1.4-0.69-1.4-1.3-2.7-2.1-4.1-0.61-0.87-1.9-0.25-1.9 0.7-0.64 1.7-1.2 3.4-2.1 5-0.78 0.37-1.8 0.38-2.6 0.65-0.89 0.37-2.4 0.088-2.7 1.2-0.16 0.8 0.66 1.1 1.2 1.5 1.1 0.72 2.2 1.4 3.2 2.1 0.62 0.57 0.14 1.4 0.022 2.1-0.23 0.95-0.5 1.9-0.71 2.8-0.12 0.95 1.2 1.5 1.8 0.71 1.3-1.1 2.6-2.2 3.9-3.2 0.73-0.43 1.4 0.26 2 0.58 1.1 0.65 2.2 1.3 3.3 2 0.9 0.4 1.8-0.79 1.2-1.6-0.58-1.2-1.2-2.4-1.8-3.7-0.24-0.81 0.59-1.2 1.1-1.7 0.81-0.69 1.6-1.4 2.4-2.1 0.63-0.68-0.083-1.8-0.97-1.6h-3.8z" fill="#f4bc4f"/>
 <path d="m38 26c-4 0.19-6.3-4-6.3-7.6-0.3-3.5 0.82-8 4.7-8.9 2-0.88 6.7 0.95 5.7 3-1.5 2-1.7-2.1-3.8-1.5-3.8-0.48-5.2 3.9-4.8 6.9-0.13 2.9 1.3 6.9 4.8 6.5 2 0.11 3.2-1.2 2.7-3.1 0.3-1.4-0.17-2-1.6-1.7-1.4 0.72-1.8-1.2-0.96-1.6h4.3v6.3c-1.4 1-3 1.7-4.8 1.7zm12-0.052c-3.8 0.19-6.2-4.1-5.4-7.5 0.31-3.5 4.3-6 7.6-4.4 4.8 2.1 4.3 11-1 12-0.38 0.076-0.77 0.11-1.2 0.11zm0-1.6c3.7-0.23 4.4-5.4 2.5-7.9-1.7-2.6-5.7-0.94-5.9 1.9-0.56 2.4 0.39 6 3.4 6zm26 1.6c-3.9-0.044-5.5-4.6-4.8-7.8 0.19-3.5 4.6-6.1 7.4-3.7 1.4 2.5 0.79-0.49 0.93-1.7v-4.3c1.7-0.26 2.3 0.058 1.7 1.9 0.073 5-0.11 10 0.14 15 0.02 1.1-3 0.4-2-1.4-0.71 1.2-2 2.2-3.5 2.1zm0.29-1.6c3.6-0.22 3.6-5.1 2.5-7.6-1.3-3.1-6.1-1.5-5.9 1.7-0.26 2.3 0.33 6 3.3 5.9zm13 1.6c-3.8 0.19-6.2-4.1-5.4-7.5 0.31-3.5 4.3-6 7.6-4.4 4.8 2.1 4.3 11-1 12-0.38 0.076-0.77 0.11-1.2 0.11zm0-1.6c3.7-0.23 4.4-5.4 2.5-7.9-1.7-2.6-5.7-0.94-5.9 1.9-0.56 2.4 0.39 6 3.4 6zm9.3 1.4c-0.8-4-1.6-7.9-2.4-12 1.3-0.31 2 0.2 2 1.6l1.6 8 2-8.4c1.5-0.51 1.4 1.1 1.8 2.1 0.63 2.1 1.3 4.2 1.9 6.3 0.39-3.2 1.1-6.3 1.1-9.5 2.5-0.72 1.4 1.8 1.3 3.4-0.43 2.9-0.93 5.7-1.5 8.5-1.3 0.26-2.2-0.11-2.2-1.6l-1.7-6.1c-0.69 2.6-1.4 5.1-2.1 7.7h-1.7zm12-0.026v-12c1.3-0.17 2.3-0.1 1.8 1.4-2e-3 1.4 2.4-2.7 4-1.7 3.2 0.019 3.7 3.6 3.5 6v6.1c-1.3 0.17-2.3 0.1-1.8-1.4-0.13-2.6 0.32-5.3-0.37-7.9-1.7-2.9-5.9 0.13-5.3 2.9v6.5h-1.8z" fill="#fff"/>
</svg>
