<svg width="78" height="66" viewBox="0 0 78 66" fill="none" xmlns="http://www.w3.org/2000/svg">
<path fill-rule="evenodd" clip-rule="evenodd" d="M16.5789 54.1193C16.5022 53.5125 16.4046 52.9117 16.3072 52.3126C16.1476 51.3301 15.9887 50.3521 15.924 49.3597C15.7409 47.1262 15.745 44.8786 16.2461 42.7427C16.5096 41.6801 16.9022 40.6698 17.4649 39.7585C17.7462 39.3028 18.0685 38.8938 18.4424 38.5057C18.501 38.4504 18.5573 38.3941 18.6131 38.3384C18.7478 38.2041 18.8793 38.0729 19.0313 37.9649L19.3515 37.705L19.6869 37.4812C20.5619 36.9066 21.5747 36.5079 22.6372 36.2793C23.6997 36.0506 24.8119 35.9921 25.9543 36.0058C27.5645 36.0179 29.1803 36.1999 30.8171 36.3842C31.4766 36.4585 32.1396 36.5332 32.8069 36.5973C33.9687 36.7089 35.1305 36.8204 36.3567 36.7782C36.6579 36.7805 36.9699 36.7571 37.2559 36.7232C37.5679 36.6998 37.8539 36.666 38.1766 36.617C38.2573 36.6047 38.3315 36.5898 38.4057 36.575C38.4799 36.5601 38.5541 36.5452 38.6347 36.533C38.7961 36.5085 38.9316 36.4735 39.1036 36.4233C39.4112 36.3382 39.7187 36.2531 39.9961 36.0957C40.2208 36.0026 40.4429 35.8729 40.6596 35.7465C40.7249 35.7084 40.7897 35.6706 40.8539 35.6341L41.2473 35.3439L41.4365 35.1807L41.5998 35.0071C42.0941 34.5479 42.4442 34.0002 42.7275 33.3954C43.2834 32.2115 43.3681 30.9263 43.27 29.7169C43.1719 28.5075 42.9276 27.3587 42.5843 26.2297C42.2669 25.1113 41.8505 24.0126 41.4234 22.9396C40.7793 21.3214 40.0728 19.7291 39.3732 18.1522C39.145 17.6377 38.9175 17.125 38.6931 16.6134L38.6777 16.5783C38.2195 15.5329 37.7764 14.5221 37.3796 13.4713C36.9783 12.4088 36.6394 11.3416 36.4511 10.2755C36.2521 9.23509 36.2982 8.1142 36.8934 7.48604C37.1986 7.19002 37.6222 6.97203 38.1169 6.87288C38.6116 6.77372 39.1623 6.75728 39.6916 6.79211C40.7759 6.87225 41.8841 7.11201 42.9601 7.42867C44.0361 7.74534 45.1165 8.12376 46.1754 8.55346C48.3039 9.3872 50.3788 10.3491 52.4323 11.3623C54.4857 12.3755 56.507 13.4656 58.5175 14.5814C62.5386 16.8129 66.4801 19.1621 70.3895 21.5881C70.5596 21.6871 70.7575 21.6475 70.8842 21.489C70.9851 21.32 70.9462 21.1243 70.7869 20.9997C66.9248 18.5328 62.9896 16.0962 58.99 13.8134C56.9902 12.6721 54.9431 11.5715 52.8853 10.4965C50.8426 9.45768 48.7526 8.45963 46.5831 7.57929C45.4984 7.13912 44.4029 6.72458 43.2645 6.41258C42.1369 6.07496 40.977 5.81424 39.7528 5.70733C39.1353 5.6667 38.5071 5.6517 37.8769 5.78584C37.2467 5.91998 36.5522 6.20794 36.0622 6.72888C35.8043 6.98411 35.6132 7.29642 35.4737 7.62969C35.3342 7.96296 35.2571 8.29155 35.2166 8.60499C35.1248 9.25749 35.1943 9.8855 35.2853 10.4622C35.4823 11.6518 35.8621 12.7656 36.242 13.8794C36.6325 14.9676 37.0962 16.0254 37.5598 17.0832C37.8305 17.7154 38.1068 18.3471 38.383 18.9785C39.0265 20.4497 39.6695 21.9196 40.2385 23.3885C40.6398 24.451 41.0152 25.503 41.3176 26.5854C41.6199 27.6678 41.8599 28.7548 41.9234 29.8302C41.9869 30.9056 41.8999 31.9799 41.462 32.8819C41.243 33.3328 40.9724 33.7628 40.5941 34.0892L40.5147 34.2069L40.3728 34.3293C40.2782 34.4108 40.1837 34.4924 40.0633 34.5635C40.0286 34.5851 39.9936 34.6074 39.9581 34.63C39.7852 34.7403 39.6023 34.857 39.3989 34.9237C38.4635 35.3539 37.3557 35.4741 36.265 35.4814C35.1636 35.5143 34.0276 35.4132 32.8765 35.276C32.3013 35.216 31.7256 35.1483 31.1481 35.0803C29.4291 34.8781 27.6941 34.6739 25.9098 34.6682C24.7051 34.6592 23.5047 34.7119 22.3067 34.9755C21.1194 35.2135 19.9238 35.688 18.8811 36.3745C18.8156 36.4229 18.7527 36.4649 18.6898 36.5068C18.6269 36.5488 18.564 36.5908 18.4985 36.6391L18.1309 36.9398C17.8687 37.1333 17.6581 37.3477 17.4367 37.5878C17.0048 38.0423 16.6138 38.5434 16.3003 39.076C15.6474 40.1306 15.1904 41.2947 14.9206 42.4448C14.3594 44.7962 14.3534 47.1929 14.5408 49.4882L14.5521 49.5978C14.7139 51.1666 14.8768 52.7453 15.2963 54.2611L9.36828 54.9166C9.18579 54.9404 9.06067 55.0673 9.0419 55.2195C8.89069 55.1432 8.70654 55.18 8.60494 55.2964C8.43725 55.4083 8.43963 55.6192 8.56241 55.759C9.80958 57.2547 11.1513 58.6688 12.4931 60.083L14.522 62.1659C14.8601 62.513 15.1982 62.8602 15.5729 63.1922C15.9583 63.4985 16.3437 63.8048 16.8344 64.004C17.0411 64.0878 17.2604 63.9969 17.3462 63.7918C17.3875 63.6932 17.3711 63.5989 17.3525 63.5048C17.6142 63.2735 17.8289 63.0073 18.0357 62.7222L18.7939 61.5604L20.3209 59.2111C20.5625 58.8143 20.8106 58.4201 21.0587 58.0259C21.3067 57.6318 21.5548 57.2376 21.7964 56.8408C22.2796 56.0472 22.7628 55.2536 23.2309 54.4239L23.2523 54.3727C23.4069 54.0755 23.329 53.684 23.004 53.5221C22.8856 53.4441 22.7458 53.4173 22.6103 53.4523L16.5789 54.1193ZM16.6853 55.1594L21.4321 54.8258C21.1488 55.2533 20.8698 55.6825 20.5909 56.1117C20.3363 56.5032 20.0883 56.8974 19.8402 57.2916C19.5922 57.6858 19.3441 58.0799 19.0896 58.4715C18.9285 58.736 18.7646 58.9994 18.6007 59.2627C18.2728 59.7895 17.9449 60.3162 17.64 60.8522L16.9227 62.0607C16.8514 62.1871 16.7825 62.3146 16.7196 62.4445C16.6636 62.3741 16.6058 62.3052 16.5464 62.2377C16.3282 61.9891 16.1004 61.7634 15.8726 61.5377C15.7587 61.4248 15.6448 61.312 15.532 61.1962C15.1885 60.8619 14.8386 60.525 14.4886 60.1881C14.1387 59.8511 13.7887 59.5142 13.4453 59.1799C12.1826 57.9963 10.8992 56.8044 9.57208 55.6593L15.6072 55.2351C15.736 55.5877 15.8823 55.9357 16.0497 56.2784C16.1252 56.459 16.3425 56.5172 16.5253 56.4414C16.6457 56.3703 16.7252 56.2526 16.7272 56.1035C16.7236 55.7863 16.7087 55.4717 16.6853 55.1594Z" fill="#525375"/>
</svg>
