<svg width="498" height="492" viewBox="0 0 498 492" fill="none" xmlns="http://www.w3.org/2000/svg">
<path d="M478.602 245.274C496.263 238.606 502.633 214.252 494.236 197.437C485.84 180.331 466.731 170.764 447.911 169.024C429.091 166.995 410.271 171.634 392.031 176.562C381.318 179.462 367.71 181.491 360.761 172.793C353.523 164.096 358.734 150.759 364.235 141.192C370.026 131.334 376.106 119.158 370.026 109.3C363.367 98.573 346.284 100.023 336.44 108.43C326.885 116.838 321.963 129.015 314.435 139.452C306.907 149.889 294.457 158.587 282.297 154.818C267.241 149.889 264.346 129.595 267.82 114.229C272.453 94.2242 283.166 75.959 287.219 55.6644C290.983 35.3697 285.192 10.7262 266.083 2.60837C249.29 -4.34979 229.023 5.5076 219.468 21.1635C210.203 36.8193 209.624 56.2442 212.23 74.5094C214.835 92.4846 220.336 110.17 221.784 128.435C222.653 138.293 222.363 148.73 218.02 157.717C214.256 166.415 205.57 173.953 195.726 174.243C164.746 175.403 167.931 130.465 159.534 110.75C157.797 106.691 155.481 102.342 152.006 99.7327C148.821 97.1234 144.478 95.9637 140.425 95.0939C127.685 93.0645 114.946 96.8335 104.812 104.661C91.783 114.519 83.676 129.015 77.0167 144.091C72.3841 154.528 68.3307 165.545 68.6202 176.852C68.6202 188.159 73.8318 200.046 83.676 205.845C93.5202 211.643 105.681 210.194 117.262 211.353C128.554 212.513 141.583 218.311 143.32 229.618C144.478 238.316 137.819 246.724 129.712 250.493C121.895 254.262 112.629 254.842 103.943 256.001C77.0167 259.77 50.9586 269.918 28.9539 285.864C19.9783 292.242 11.5818 299.78 6.37019 309.637C1.44809 319.495 0.579488 331.961 6.65972 341.239C16.5039 356.025 37.9295 356.025 55.5911 353.126C77.8853 349.357 100.469 343.558 119.289 331.382C128.264 325.583 136.661 318.045 146.795 314.276C156.928 310.507 169.668 311.087 176.617 319.205C186.171 330.512 179.512 347.327 173.721 361.244C167.931 374.87 165.904 394.585 179.223 400.963C190.514 406.472 203.833 396.904 209.334 385.597C214.835 374.29 216.573 361.244 223.232 350.806C229.891 340.369 245.816 333.411 254.791 342.109C263.767 350.806 258.555 365.882 253.923 377.479C243.21 406.182 241.762 438.653 250.448 467.935C253.923 480.112 262.898 494.029 275.348 491.709C286.64 489.68 290.983 475.763 293.01 464.456C297.932 437.204 302.564 409.661 307.486 382.408C309.803 369.651 312.119 356.315 320.226 346.168C328.333 336.02 343.678 330.222 354.681 337.47C365.104 344.428 367.71 360.084 379.002 365.882C393.478 373.42 410.85 357.475 412.588 341.239C414.325 325.003 406.797 309.347 402.743 293.402C398.69 277.456 399.848 257.451 413.746 248.753C432.276 236.287 458.045 253.102 478.602 245.274Z" fill="#F6D37E"/>
<path d="M361.919 402.413C359.892 400.384 357.286 397.485 354.97 395.165C352.654 392.846 348.6 394.006 348.021 397.195C344.257 415.46 346.574 434.595 354.102 451.7C356.418 456.339 359.313 461.268 364.235 462.717C370.026 464.457 376.106 460.398 379.291 455.469C384.792 447.062 383.924 435.754 379.581 426.477C375.238 417.199 368.868 409.661 361.919 402.413Z" fill="#F6D37E"/>
<path d="M486.998 287.603C484.103 283.254 478.891 281.514 473.969 280.644C464.414 278.905 454.281 279.485 445.016 282.674C442.699 283.544 441.831 285.863 442.989 287.892C445.595 291.951 449.938 298.33 452.833 300.939C457.176 304.998 462.388 308.187 468.468 309.347C474.259 310.217 480.918 308.767 484.971 304.418C489.025 299.489 490.183 292.531 486.998 287.603Z" fill="#F6D37E"/>
<path d="M170.247 59.1437C174.59 61.1732 179.222 57.984 179.512 53.3453C179.801 48.7065 179.801 44.0677 179.801 39.4289C179.801 37.1096 179.512 34.7902 179.222 32.4708C178.933 30.4413 178.933 28.1219 178.354 26.0925C177.775 24.3529 176.906 22.9033 175.748 21.7436C174.3 20.294 171.984 19.1343 169.957 18.8444C166.193 18.2645 162.14 19.1343 159.534 22.0335C157.218 24.6428 156.349 28.4119 155.77 31.8909C155.48 33.6305 155.48 35.37 155.48 37.1096C155.77 40.5886 156.639 44.0677 158.086 47.2569C160.692 52.4755 165.035 56.5344 170.247 59.1437Z" fill="#F6D37E"/>
<path d="M439.224 125.825C442.409 122.636 445.594 117.997 443.857 113.648C442.409 110.169 438.356 108.72 434.881 109.01C431.407 109.3 427.932 111.329 425.037 113.359C417.22 118.867 408.533 132.204 403.901 140.032C402.453 142.351 404.77 145.25 407.375 144.67C419.536 141.191 430.538 134.813 439.224 125.825Z" fill="#F6D37E"/>
<path d="M48.0628 241.506C51.2477 239.476 50.3791 234.548 46.6151 233.678C44.5884 233.098 42.8512 232.518 40.8245 231.938C35.0338 230.199 29.5326 227.879 23.7419 226.72C17.9512 225.85 11.5814 226.14 6.65933 229.619C1.73724 232.808 -1.15811 239.476 0.868637 245.275C2.60585 249.913 7.52794 252.813 12.45 253.393C17.3721 253.972 22.2942 252.813 27.2163 251.653C33.5861 249.913 41.6931 245.275 48.0628 241.506Z" fill="#F6D37E"/>
<path d="M82.5179 422.417C82.2283 425.316 82.5179 428.215 83.097 430.824C83.9656 433.724 85.1237 436.623 87.44 438.652C91.2039 442.132 97.2842 442.711 101.917 440.972C106.839 439.232 110.603 435.173 113.209 430.824C117.262 424.156 119.578 416.328 121.605 409.08C123.921 401.252 126.238 393.424 127.975 385.306C128.843 381.827 129.423 378.348 130.002 374.579C130.87 370.23 125.659 367.621 122.474 370.52C113.788 378.638 105.681 387.626 97.8632 396.903C94.3888 401.252 90.9144 405.601 87.7295 410.24C85.7028 413.139 83.3865 416.328 82.5179 419.807C82.8074 420.677 82.5179 421.547 82.5179 422.417Z" fill="#F6D37E"/>
</svg>
