<svg width="252" height="158" viewBox="0 0 252 158" fill="none" xmlns="http://www.w3.org/2000/svg">
<path d="M225.95 97.3857H191.587C187.803 97.3857 184.735 100.454 184.735 104.238V116.823C184.735 120.608 187.803 123.676 191.587 123.676H225.95C229.734 123.676 232.802 120.608 232.802 116.823V104.238C232.802 100.454 229.734 97.3857 225.95 97.3857Z" fill="white" stroke="#525375" stroke-miterlimit="10"/>
<path d="M189.268 103.662C190.238 103.662 191.025 102.875 191.025 101.904C191.025 100.934 190.238 100.147 189.268 100.147C188.298 100.147 187.511 100.934 187.511 101.904C187.511 102.875 188.298 103.662 189.268 103.662Z" fill="#D16978"/>
<path d="M199.961 105.202H217.576" stroke="#525375" stroke-miterlimit="10" stroke-linecap="round"/>
<path d="M199.961 110.527H217.576" stroke="#525375" stroke-miterlimit="10" stroke-linecap="round"/>
<path d="M199.961 115.859H217.576" stroke="#525375" stroke-miterlimit="10" stroke-linecap="round"/>
<path d="M69.1373 10.0635C67.4338 10.0635 66.0527 11.4445 66.0527 13.1481C66.0527 16.5552 63.2907 19.3173 59.8835 19.3173H26.4777C23.0705 19.3173 20.3084 16.5552 20.3084 13.1481C20.3084 11.4445 18.9274 10.0635 17.2238 10.0635H15.4813C7.48351 10.0635 1 16.547 1 24.5448V142.152C1 150.436 7.71573 157.152 16 157.152H70.3373C78.6216 157.152 85.3373 150.436 85.3373 142.152V24.5269C85.3373 16.539 78.8618 10.0635 70.8739 10.0635H69.1373Z" fill="white" stroke="#525375" stroke-miterlimit="10"/>
<path d="M161.005 1C159.301 1 157.92 2.38103 157.92 4.08461C157.92 7.49177 155.158 10.2538 151.751 10.2538H118.345C114.938 10.2538 112.176 7.49177 112.176 4.08461C112.176 2.38103 110.795 1 109.092 1H107.349C99.3512 1 92.8677 7.48351 92.8677 15.4813V133.088C92.8677 141.373 99.5834 148.088 107.868 148.088H162.205C170.489 148.088 177.205 141.373 177.205 133.088V15.4635C177.205 7.47551 170.729 1 162.742 1H161.005Z" fill="white" stroke="#525375" stroke-miterlimit="10"/>
<path d="M62.7472 123.518H23.5906C19.7091 123.518 16.5625 126.664 16.5625 130.546C16.5625 134.427 19.7091 137.574 23.5906 137.574H62.7472C66.6287 137.574 69.7753 134.427 69.7753 130.546C69.7753 126.664 66.6287 123.518 62.7472 123.518Z" fill="#D16978"/>
<path d="M46.6828 44.2002H11.5422V79.3408H46.6828V44.2002Z" fill="#5C5DB1"/>
<path d="M42.9176 79.8425C54.7008 79.8425 64.253 70.2904 64.253 58.5072C64.253 46.724 54.7008 37.1719 42.9176 37.1719C31.1344 37.1719 21.5823 46.724 21.5823 58.5072C21.5823 70.2904 31.1344 79.8425 42.9176 79.8425Z" fill="#F4BC4F"/>
<path d="M166.462 69.8388C167.388 69.8388 168.139 69.0881 168.139 68.1621C168.139 67.236 167.388 66.4854 166.462 66.4854C165.536 66.4854 164.785 67.236 164.785 68.1621C164.785 69.0881 165.536 69.8388 166.462 69.8388Z" fill="#D16978"/>
<path d="M105.669 75.1904H126.251C126.51 75.1904 126.767 75.2415 127.006 75.3406C127.245 75.4398 127.463 75.5851 127.646 75.7683C127.829 75.9515 127.975 76.169 128.074 76.4083C128.173 76.6477 128.224 76.9042 128.224 77.1633C128.224 77.4224 128.173 77.679 128.074 77.9183C127.975 78.1577 127.829 78.3752 127.646 78.5584C127.463 78.7416 127.245 78.8869 127.006 78.986C126.767 79.0852 126.51 79.1362 126.251 79.1362H105.669C105.145 79.1362 104.644 78.9284 104.274 78.5584C103.904 78.1884 103.696 77.6866 103.696 77.1633C103.696 76.6401 103.904 76.1383 104.274 75.7683C104.644 75.3983 105.145 75.1904 105.669 75.1904Z" fill="#D16978"/>
<path d="M105.669 114.644H115.89C116.413 114.644 116.915 114.851 117.285 115.221C117.655 115.591 117.862 116.093 117.862 116.616C117.862 117.14 117.655 117.642 117.285 118.012C116.915 118.381 116.413 118.589 115.89 118.589H105.669C105.145 118.589 104.644 118.381 104.274 118.012C103.904 117.642 103.696 117.14 103.696 116.616C103.696 116.093 103.904 115.591 104.274 115.221C104.644 114.851 105.145 114.644 105.669 114.644Z" fill="#F4BC4F"/>
<path d="M109.65 121.123H119.871C120.393 121.124 120.893 121.333 121.262 121.703C121.631 122.073 121.838 122.574 121.838 123.096C121.838 123.619 121.631 124.121 121.261 124.491C120.891 124.861 120.389 125.069 119.866 125.069H109.65C109.126 125.069 108.625 124.861 108.255 124.491C107.885 124.121 107.677 123.619 107.677 123.096C107.677 122.573 107.885 122.071 108.255 121.701C108.625 121.331 109.126 121.123 109.65 121.123Z" fill="#D16978"/>
<path d="M122.546 114.644H132.762C133.021 114.644 133.278 114.695 133.517 114.794C133.756 114.893 133.974 115.038 134.157 115.221C134.34 115.405 134.486 115.622 134.585 115.861C134.684 116.101 134.735 116.357 134.735 116.616C134.735 116.876 134.684 117.132 134.585 117.371C134.486 117.611 134.34 117.828 134.157 118.012C133.974 118.195 133.756 118.34 133.517 118.439C133.278 118.538 133.021 118.589 132.762 118.589H122.546C122.023 118.589 121.521 118.381 121.151 118.012C120.781 117.642 120.573 117.14 120.573 116.616C120.573 116.093 120.781 115.591 121.151 115.221C121.521 114.851 122.023 114.644 122.546 114.644Z" fill="#5C5DB1"/>
<path d="M136.708 121.123H146.939C147.462 121.123 147.964 121.331 148.334 121.701C148.704 122.071 148.912 122.573 148.912 123.096C148.912 123.619 148.704 124.121 148.334 124.491C147.964 124.861 147.462 125.069 146.939 125.069H136.708C136.185 125.069 135.683 124.861 135.313 124.491C134.943 124.121 134.735 123.619 134.735 123.096C134.735 122.573 134.943 122.071 135.313 121.701C135.683 121.331 136.185 121.123 136.708 121.123Z" fill="#F4BC4F"/>
<path d="M109.755 81.6768H117.501C118.024 81.6768 118.526 81.8846 118.896 82.2546C119.266 82.6246 119.474 83.1264 119.474 83.6496C119.474 84.1729 119.266 84.6747 118.896 85.0447C118.526 85.4147 118.024 85.6225 117.501 85.6225H109.755C109.232 85.6225 108.73 85.4147 108.36 85.0447C107.99 84.6747 107.782 84.1729 107.782 83.6496C107.782 83.1264 107.99 82.6246 108.36 82.2546C108.73 81.8846 109.232 81.6768 109.755 81.6768Z" fill="#5C5DB1"/>
<path d="M112.712 88.1523H116.818C117.341 88.1523 117.843 88.3602 118.213 88.7302C118.583 89.1002 118.791 89.602 118.791 90.1252C118.794 90.3864 118.746 90.6457 118.648 90.8879C118.551 91.1302 118.406 91.3507 118.222 91.5365C118.039 91.7224 117.82 91.87 117.579 91.9707C117.338 92.0714 117.079 92.1232 116.818 92.1232H112.722C112.463 92.1232 112.206 92.0722 111.967 91.9731C111.727 91.8739 111.51 91.7286 111.327 91.5454C111.144 91.3622 110.998 91.1447 110.899 90.9053C110.8 90.666 110.749 90.4094 110.749 90.1503C110.746 89.89 110.794 89.6316 110.891 89.39C110.988 89.1483 111.132 88.9283 111.314 88.7426C111.497 88.5569 111.714 88.4091 111.954 88.3078C112.194 88.2065 112.451 88.1536 112.712 88.1523Z" fill="#D16978"/>
<path d="M115.814 94.6328H119.911C120.17 94.6322 120.427 94.6827 120.667 94.7816C120.906 94.8806 121.124 95.0259 121.307 95.2092C121.491 95.3925 121.636 95.6103 121.735 95.8499C121.834 96.0896 121.884 96.3464 121.884 96.6057C121.884 96.8646 121.833 97.1209 121.733 97.3599C121.634 97.599 121.489 97.8162 121.306 97.999C121.122 98.1818 120.905 98.3266 120.665 98.4252C120.426 98.5238 120.17 98.5742 119.911 98.5736H115.814C115.556 98.5742 115.299 98.5238 115.06 98.4252C114.821 98.3266 114.603 98.1818 114.42 97.999C114.236 97.8162 114.091 97.599 113.992 97.3599C113.893 97.1209 113.842 96.8646 113.842 96.6057C113.841 96.3464 113.891 96.0896 113.99 95.8499C114.089 95.6103 114.235 95.3925 114.418 95.2092C114.601 95.0259 114.819 94.8806 115.059 94.7816C115.298 94.6827 115.555 94.6322 115.814 94.6328Z" fill="#D16978"/>
<path d="M112.712 101.119H123.279C123.802 101.119 124.304 101.327 124.674 101.697C125.044 102.067 125.252 102.569 125.252 103.092C125.252 103.615 125.044 104.117 124.674 104.487C124.304 104.857 123.802 105.065 123.279 105.065H112.712C112.188 105.065 111.687 104.857 111.317 104.487C110.947 104.117 110.739 103.615 110.739 103.092C110.739 102.569 110.947 102.067 111.317 101.697C111.687 101.327 112.188 101.119 112.712 101.119Z" fill="#F4BC4F"/>
<path d="M109.479 108.188H120.046C120.569 108.188 121.071 108.395 121.441 108.765C121.811 109.135 122.019 109.637 122.019 110.16C122.019 110.684 121.811 111.185 121.441 111.555C121.071 111.925 120.569 112.133 120.046 112.133H109.479C108.956 112.133 108.454 111.925 108.084 111.555C107.714 111.185 107.506 110.684 107.506 110.16C107.506 109.637 107.714 109.135 108.084 108.765C108.454 108.395 108.956 108.188 109.479 108.188Z" fill="#D16978"/>
<path d="M127.225 108.188H142.25C142.773 108.188 143.275 108.395 143.645 108.765C144.015 109.135 144.223 109.637 144.223 110.16C144.223 110.684 144.015 111.185 143.645 111.555C143.275 111.925 142.773 112.133 142.25 112.133H127.225C126.702 112.133 126.2 111.925 125.83 111.555C125.46 111.185 125.252 110.684 125.252 110.16C125.252 109.637 125.46 109.135 125.83 108.765C126.2 108.395 126.702 108.188 127.225 108.188Z" fill="#5C5DB1"/>
<path d="M116.382 127.604H131.407C131.666 127.604 131.922 127.656 132.161 127.755C132.4 127.854 132.617 127.999 132.8 128.183C132.983 128.366 133.128 128.583 133.226 128.823C133.325 129.062 133.375 129.319 133.375 129.577C133.375 129.836 133.325 130.093 133.226 130.332C133.128 130.571 132.983 130.789 132.8 130.972C132.617 131.155 132.4 131.301 132.161 131.4C131.922 131.499 131.666 131.55 131.407 131.55H116.382C116.122 131.551 115.865 131.5 115.626 131.401C115.386 131.303 115.168 131.157 114.985 130.974C114.802 130.791 114.656 130.573 114.558 130.333C114.459 130.094 114.408 129.837 114.409 129.577C114.408 129.318 114.459 129.061 114.558 128.822C114.656 128.582 114.802 128.364 114.985 128.181C115.168 127.998 115.386 127.852 115.626 127.753C115.865 127.654 116.122 127.604 116.382 127.604Z" fill="#D16978"/>
<path d="M139.484 127.604H154.509C155.032 127.604 155.534 127.812 155.904 128.182C156.274 128.552 156.482 129.054 156.482 129.577C156.482 130.101 156.274 130.602 155.904 130.972C155.534 131.342 155.032 131.55 154.509 131.55H139.484C138.961 131.55 138.459 131.342 138.089 130.972C137.719 130.602 137.511 130.101 137.511 129.577C137.511 129.054 137.719 128.552 138.089 128.182C138.459 127.812 138.961 127.604 139.484 127.604Z" fill="#5C5DB1"/>
<path d="M130.182 101.119H132.762C133.021 101.119 133.278 101.17 133.517 101.269C133.756 101.368 133.974 101.514 134.157 101.697C134.34 101.88 134.486 102.098 134.585 102.337C134.684 102.576 134.735 102.833 134.735 103.092C134.735 103.351 134.684 103.608 134.585 103.847C134.486 104.086 134.34 104.304 134.157 104.487C133.974 104.67 133.756 104.816 133.517 104.915C133.278 105.014 133.021 105.065 132.762 105.065H130.182C129.658 105.065 129.157 104.857 128.787 104.487C128.417 104.117 128.209 103.615 128.209 103.092C128.209 102.569 128.417 102.067 128.787 101.697C129.157 101.327 129.658 101.119 130.182 101.119Z" fill="#D16978"/>
<path d="M149.624 108.188H152.21C152.733 108.188 153.235 108.395 153.605 108.765C153.975 109.135 154.183 109.637 154.183 110.16C154.183 110.684 153.975 111.185 153.605 111.555C153.235 111.925 152.733 112.133 152.21 112.133H149.624C149.101 112.133 148.599 111.925 148.229 111.555C147.859 111.185 147.652 110.684 147.652 110.16C147.652 109.637 147.859 109.135 148.229 108.765C148.599 108.395 149.101 108.188 149.624 108.188Z" fill="#F4BC4F"/>
<path d="M126.919 121.123H129.499C130.022 121.123 130.524 121.331 130.894 121.701C131.264 122.071 131.472 122.573 131.472 123.096C131.472 123.619 131.264 124.121 130.894 124.491C130.524 124.861 130.022 125.069 129.499 125.069H126.919C126.395 125.069 125.894 124.861 125.524 124.491C125.154 124.121 124.946 123.619 124.946 123.096C124.946 122.573 125.154 122.071 125.524 121.701C125.894 121.331 126.395 121.123 126.919 121.123Z" fill="#5C5DB1"/>
<path d="M127.225 94.6328H131.321C131.581 94.6322 131.838 94.6827 132.077 94.7816C132.317 94.8806 132.535 95.0259 132.718 95.2092C132.901 95.3925 133.047 95.6103 133.146 95.8499C133.244 96.0896 133.295 96.3464 133.294 96.6057C133.294 96.8646 133.243 97.1209 133.144 97.3599C133.045 97.599 132.899 97.8162 132.716 97.999C132.533 98.1818 132.315 98.3266 132.076 98.4252C131.837 98.5238 131.58 98.5742 131.321 98.5736H127.225C126.966 98.5742 126.71 98.5238 126.47 98.4252C126.231 98.3266 126.014 98.1818 125.83 97.999C125.647 97.8162 125.502 97.599 125.402 97.3599C125.303 97.1209 125.252 96.8646 125.252 96.6057C125.252 96.3464 125.302 96.0896 125.401 95.8499C125.5 95.6103 125.645 95.3925 125.829 95.2092C126.012 95.0259 126.23 94.8806 126.469 94.7816C126.709 94.6827 126.966 94.6322 127.225 94.6328Z" fill="#5C5DB1"/>
<path d="M138.159 94.6328H147.396C147.655 94.6322 147.912 94.6827 148.151 94.7816C148.391 94.8806 148.609 95.0259 148.792 95.2092C148.975 95.3925 149.121 95.6103 149.22 95.8499C149.319 96.0896 149.369 96.3464 149.369 96.6057C149.369 96.8646 149.317 97.1209 149.218 97.3599C149.119 97.599 148.974 97.8162 148.79 97.999C148.607 98.1818 148.39 98.3266 148.15 98.4252C147.911 98.5238 147.654 98.5742 147.396 98.5736H138.159C137.9 98.5742 137.643 98.5238 137.404 98.4252C137.165 98.3266 136.947 98.1818 136.764 97.999C136.581 97.8162 136.435 97.599 136.336 97.3599C136.237 97.1209 136.186 96.8646 136.186 96.6057C136.185 96.3464 136.236 96.0896 136.335 95.8499C136.434 95.6103 136.579 95.3925 136.762 95.2092C136.946 95.0259 137.163 94.8806 137.403 94.7816C137.643 94.6827 137.899 94.6322 138.159 94.6328Z" fill="#F4BC4F"/>
<path d="M124.549 88.1523H132.762C133.021 88.1523 133.278 88.2034 133.517 88.3025C133.756 88.4017 133.974 88.547 134.157 88.7302C134.34 88.9134 134.485 89.1309 134.585 89.3702C134.684 89.6096 134.735 89.8662 134.735 90.1252C134.735 90.3843 134.684 90.6409 134.585 90.8802C134.485 91.1196 134.34 91.3371 134.157 91.5203C133.974 91.7035 133.756 91.8488 133.517 91.948C133.278 92.0471 133.021 92.0981 132.762 92.0981H124.549C124.026 92.0981 123.524 91.8903 123.154 91.5203C122.784 91.1503 122.576 90.6485 122.576 90.1252C122.576 89.602 122.784 89.1002 123.154 88.7302C123.524 88.3602 124.026 88.1523 124.549 88.1523Z" fill="#5C5DB1"/>
<path d="M127.225 81.6768H142.25C142.773 81.6768 143.275 81.8846 143.645 82.2546C144.015 82.6246 144.223 83.1264 144.223 83.6496C144.223 84.1729 144.015 84.6747 143.645 85.0447C143.275 85.4147 142.773 85.6225 142.25 85.6225H127.225C126.702 85.6225 126.2 85.4147 125.83 85.0447C125.46 84.6747 125.252 84.1729 125.252 83.6496C125.252 83.1264 125.46 82.6246 125.83 82.2546C126.2 81.8846 126.702 81.6768 127.225 81.6768Z" fill="#F4BC4F"/>
<path d="M98.8916 61.3301H170.091" stroke="#525375" stroke-linecap="round" stroke-linejoin="round"/>
<path d="M134.745 26.1046H145.162C145.435 26.0876 145.709 26.1246 145.968 26.2136C146.227 26.3026 146.466 26.4417 146.671 26.6231C146.876 26.8045 147.043 27.0245 147.163 27.2706C147.283 27.5167 147.354 27.7841 147.37 28.0574C147.354 28.3307 147.283 28.5981 147.163 28.8442C147.043 29.0903 146.876 29.3104 146.671 29.4917C146.466 29.6731 146.227 29.8122 145.968 29.9012C145.709 29.9902 145.435 30.0272 145.162 30.0102H134.745C134.472 30.0272 134.198 29.9902 133.939 29.9012C133.68 29.8122 133.441 29.6731 133.236 29.4917C133.031 29.3104 132.863 29.0903 132.743 28.8442C132.623 28.5981 132.553 28.3307 132.536 28.0574C132.553 27.7841 132.623 27.5167 132.743 27.2706C132.863 27.0245 133.031 26.8045 133.236 26.6231C133.441 26.4417 133.68 26.3026 133.939 26.2136C134.198 26.1246 134.472 26.0876 134.745 26.1046Z" fill="#5C5DB1"/>
<path d="M19.403 97.4182H32.7983C33.1498 97.3964 33.5021 97.4439 33.8351 97.5581C34.1682 97.6722 34.4754 97.8507 34.7392 98.0833C35.003 98.316 35.2182 98.5982 35.3726 98.9139C35.527 99.2296 35.6174 99.5725 35.6388 99.9231C35.6174 100.274 35.527 100.617 35.3726 100.932C35.2182 101.248 35.003 101.53 34.7392 101.763C34.4754 101.996 34.1682 102.174 33.8351 102.288C33.5021 102.402 33.1498 102.45 32.7983 102.428H19.403C19.0515 102.45 18.6992 102.402 18.3662 102.288C18.0332 102.174 17.726 101.996 17.4621 101.763C17.1983 101.53 16.9831 101.248 16.8287 100.932C16.6743 100.617 16.5839 100.274 16.5625 99.9231C16.5839 99.5725 16.6743 99.2296 16.8287 98.9139C16.9831 98.5982 17.1983 98.316 17.4621 98.0833C17.726 97.8507 18.0332 97.6722 18.3662 97.5581C18.6992 97.4439 19.0515 97.3964 19.403 97.4182Z" fill="#F4BC4F"/>
<path d="M241.553 1.50293H194.182C188.964 1.50293 184.735 5.71538 184.735 10.9117V68.9014C184.735 74.0977 188.964 78.3102 194.182 78.3102H241.553C246.77 78.3102 251 74.0977 251 68.9014V10.9117C251 5.71538 246.77 1.50293 241.553 1.50293Z" fill="white" stroke="#525375" stroke-miterlimit="10"/>
<path d="M191.512 10.0356C192.76 10.0356 193.771 9.02425 193.771 7.77662C193.771 6.52899 192.76 5.51758 191.512 5.51758C190.265 5.51758 189.253 6.52899 189.253 7.77662C189.253 9.02425 190.265 10.0356 191.512 10.0356Z" fill="#D16978"/>
<path d="M188.209 22.1445C188.918 22.1445 189.494 21.5691 189.494 20.8594C189.494 20.1496 188.918 19.5742 188.209 19.5742C187.499 19.5742 186.924 20.1496 186.924 20.8594C186.924 21.5691 187.499 22.1445 188.209 22.1445Z" fill="#525375"/>
<path d="M173.882 26.9638C174.541 26.9638 175.076 26.4289 175.076 25.769C175.076 25.1091 174.541 24.5742 173.882 24.5742C173.222 24.5742 172.687 25.1091 172.687 25.769C172.687 26.4289 173.222 26.9638 173.882 26.9638Z" fill="#525375"/>
<path d="M188.209 20.8595C185.157 20.5131 183.349 21.241 182.265 21.9589C180.729 22.9629 180.418 24.1426 178.751 25.0563C177.246 25.8202 175.532 26.0705 173.872 25.7691" stroke="#525375" stroke-miterlimit="10"/>
<path d="M188.209 109.996C188.918 109.996 189.494 109.421 189.494 108.711C189.494 108.001 188.918 107.426 188.209 107.426C187.499 107.426 186.924 108.001 186.924 108.711C186.924 109.421 187.499 109.996 188.209 109.996Z" fill="#525375"/>
<path d="M173.882 114.815C174.541 114.815 175.076 114.28 175.076 113.621C175.076 112.961 174.541 112.426 173.882 112.426C173.222 112.426 172.687 112.961 172.687 113.621C172.687 114.28 173.222 114.815 173.882 114.815Z" fill="#525375"/>
<path d="M188.209 108.711C185.157 108.365 183.349 109.093 182.265 109.81C180.729 110.814 180.418 111.994 178.751 112.908C177.246 113.672 175.532 113.922 173.872 113.621" stroke="#525375" stroke-miterlimit="10"/>
<path d="M191.567 63.7517H190.759V56.7284H192.505C192.998 56.6951 193.486 56.8361 193.873 57.1236C194.032 57.2671 194.156 57.4414 194.237 57.6343C194.317 57.8271 194.352 58.0341 194.339 58.2407V59.753C194.373 60.0619 194.29 60.3723 194.103 60.6291C193.917 60.886 193.639 61.0727 193.32 61.1563L194.775 63.7517H193.851L192.505 61.2653H191.567V63.7517ZM193.531 59.753V58.2407C193.539 58.1221 193.519 58.0032 193.473 57.8925C193.426 57.7818 193.354 57.6821 193.262 57.6004C193.057 57.4451 192.798 57.3651 192.534 57.3756H191.596V60.6182H192.534C193.189 60.6182 193.531 60.3321 193.531 59.753Z" fill="#525375"/>
<path d="M199.261 63.7517H196.281V56.7236H199.19V57.3712H196.996V59.8594H198.785V60.541H196.996V63.1382H199.293L199.261 63.7517Z" fill="#525375"/>
<path d="M201.947 56.7236H203.144L204.815 63.7517H204.019L203.632 62.1294H201.48L201.093 63.7517H200.297L201.947 56.7236ZM202.542 57.5621L201.609 61.4818H203.474L202.542 57.5621Z" fill="#525375"/>
<path d="M208.989 62.1971V61.5913H209.825V62.1971C209.839 62.409 209.803 62.6211 209.718 62.8184C209.633 63.0158 209.503 63.1935 209.336 63.339C208.906 63.6433 208.368 63.7874 207.828 63.7429C207.289 63.7847 206.753 63.6408 206.321 63.339C206.152 63.1951 206.019 63.0178 205.933 62.8202C205.847 62.6226 205.81 62.4097 205.824 62.1971V57.7755C205.806 57.5633 205.84 57.3499 205.925 57.152C206.01 56.954 206.143 56.7767 206.314 56.6336C206.742 56.3262 207.281 56.1818 207.821 56.2297C208.36 56.1873 208.897 56.3312 209.328 56.6336C209.499 56.7772 209.633 56.9543 209.72 57.1519C209.807 57.3494 209.846 57.5625 209.833 57.7755V58.827H208.996V57.7755C208.996 57.1837 208.612 56.8912 207.859 56.8912C207.105 56.8912 206.721 57.1837 206.721 57.7755V62.1971C206.721 62.789 207.098 63.0814 207.859 63.0814C208.62 63.0814 208.989 62.8168 208.989 62.1971Z" fill="#525375"/>
<path d="M214.353 56.7236V57.3712H212.972V63.7517H212.228V57.3712H210.839V56.7236H214.353Z" fill="#525375"/>
<path d="M219.157 63.7517H218.369V56.7236H219.157L221.598 62.1294V56.7236H222.385V63.7517H221.598L219.157 58.346V63.7517Z" fill="#525375"/>
<path d="M225.541 56.7236H226.738L228.409 63.7517H227.613L227.226 62.1294H225.075L224.687 63.7517H223.891L225.541 56.7236ZM226.129 57.5621L225.197 61.4818H227.068L226.129 57.5621Z" fill="#525375"/>
<path d="M231.924 56.7236V57.3712H230.536V63.7517H229.791V57.3712H228.41V56.7236H231.924Z" fill="#525375"/>
<path d="M234.936 63.0734V63.7517H232.927V63.0734H233.522V57.3681H232.927V56.7236H234.936V57.3681H234.348V63.0734H234.936Z" fill="#525375"/>
<path d="M239 63.7517H237.932L236.442 56.7236H237.151L238.43 62.9201L239.748 56.7236H240.458L239 63.7517Z" fill="#525375"/>
<path d="M245.456 63.7517H241.964V56.7236H245.359V57.3712H242.814V59.8594H244.881V60.541H242.814V63.1382H245.478L245.456 63.7517Z" fill="#525375"/>
<path d="M238.45 30.368C238.45 27.7153 235.079 25.2068 229.907 23.6468C231.1 18.4581 230.57 14.3277 228.232 13.0013C227.667 12.6903 227.029 12.5337 226.382 12.5477C224.1 12.5477 221.12 14.1421 218.104 16.9186C215.082 14.1696 212.102 12.5752 209.82 12.5752C209.166 12.5601 208.521 12.7167 207.949 13.0288C205.618 14.3483 205.095 18.4718 206.295 23.6468C201.144 25.2137 197.787 27.7221 197.787 30.3612C197.787 33.0002 201.158 35.5292 206.33 37.0893C205.137 42.278 205.667 46.4084 208.005 47.7279C208.572 48.0453 209.217 48.2045 209.869 48.1883C212.151 48.1883 215.131 46.587 218.153 43.8106C221.168 46.5595 224.149 48.154 226.431 48.154C227.084 48.1691 227.73 48.0125 228.302 47.7004C230.633 46.374 231.156 42.2574 229.956 37.0824C235.086 35.5567 238.45 33.0414 238.45 30.368ZM226.375 14.3621C226.703 14.3502 227.028 14.4237 227.317 14.5751C228.448 15.2074 228.937 17.6334 228.553 20.7603C228.454 21.5689 228.312 22.3718 228.127 23.1657C226.395 22.754 224.637 22.4555 222.864 22.2723C221.81 20.8363 220.658 19.4724 219.417 18.19C222.118 15.7434 224.651 14.3896 226.375 14.3896V14.3621ZM210.776 34.5465C211.167 35.1994 211.565 35.8385 211.969 36.457C210.79 36.2852 209.652 36.079 208.57 35.8179C208.878 34.7595 209.268 33.6737 209.687 32.5878C210.029 33.2682 210.385 33.9211 210.776 34.574V34.5465ZM208.543 24.925C209.631 24.6776 210.776 24.4508 211.962 24.2859C211.551 24.9113 211.146 25.5573 210.769 26.2171C210.392 26.8768 210.029 27.5228 209.687 28.1757C209.261 27.1105 208.857 26.0178 208.563 24.9525L208.543 24.925ZM210.636 30.423C211.153 29.3303 211.732 28.2376 212.353 27.1655C212.975 26.0934 213.665 25.0213 214.349 24.0522C215.583 23.9423 216.832 23.8873 218.097 23.8873C219.347 23.8873 220.603 23.9423 221.825 24.0385C222.523 25.0144 223.22 26.0453 223.835 27.1448C224.449 28.2444 225.035 29.2959 225.559 30.3886C225.035 31.4814 224.463 32.5741 223.842 33.6462C223.22 34.7183 222.53 35.7904 221.846 36.7663C220.61 36.8694 219.354 36.9244 218.097 36.9244C216.841 36.9244 215.592 36.8694 214.363 36.7732C213.665 35.8042 213.009 34.7664 212.36 33.6737C211.711 32.581 211.181 31.5157 210.657 30.423H210.636ZM225.44 34.5465C225.824 33.8592 226.18 33.2338 226.515 32.581C226.953 33.642 227.335 34.7248 227.659 35.8248C226.578 36.0859 225.433 36.3058 224.246 36.512C224.672 35.866 225.077 35.2131 225.461 34.5534L225.44 34.5465ZM225.44 26.2102C225.056 25.5229 224.651 24.925 224.246 24.3065C225.419 24.4715 226.557 24.6845 227.645 24.9457C227.338 26.004 226.947 27.083 226.522 28.1688C226.201 27.5228 225.845 26.87 225.454 26.2446L225.44 26.2102ZM220.429 22.1211C219.689 22.0867 218.921 22.0661 218.153 22.0661C217.386 22.0661 216.604 22.0661 215.85 22.1211C216.561 21.2114 217.32 20.3396 218.125 19.5095C218.94 20.3391 219.709 21.2108 220.429 22.1211ZM208.905 14.6438C209.197 14.4909 209.525 14.4174 209.855 14.4308C211.572 14.4308 214.119 15.8053 216.834 18.2381C215.596 19.5129 214.451 20.8725 213.407 22.3066C211.632 22.4893 209.872 22.7901 208.138 23.2069C207.949 22.3891 207.803 21.5988 207.705 20.8359C207.265 17.709 207.747 15.283 208.871 14.637L208.905 14.6438ZM206.812 35.3643C206.025 35.1271 205.252 34.8495 204.494 34.5327C201.556 33.3026 199.658 31.6875 199.658 30.4093C199.658 29.131 201.556 27.5091 204.494 26.2858C205.245 25.9724 206.011 25.6972 206.791 25.4611C207.297 27.1569 207.92 28.817 208.654 30.4299C207.918 32.0296 207.291 33.6758 206.777 35.3574L206.812 35.3643ZM209.89 46.4152C209.564 46.4201 209.243 46.3444 208.954 46.1953C207.824 45.563 207.335 43.1371 207.719 40.0101C207.81 39.2472 207.956 38.4363 208.138 37.6116C209.87 38.0222 211.628 38.3206 213.4 38.505C214.459 39.9356 215.61 41.2969 216.848 42.5804C214.147 45.0545 211.579 46.4084 209.855 46.4084L209.89 46.4152ZM218.167 41.3021C217.355 40.4708 216.586 39.5992 215.864 38.6906C216.611 38.7249 217.372 38.7456 218.146 38.7456C218.921 38.7456 219.696 38.7456 220.45 38.6906C219.727 39.6007 218.954 40.4702 218.132 41.2952L218.167 41.3021ZM227.366 46.1747C227.074 46.3252 226.746 46.3964 226.417 46.3809C224.7 46.3809 222.153 45.0064 219.438 42.5804C220.672 41.3 221.817 39.9384 222.864 38.505C224.64 38.3279 226.401 38.0294 228.134 37.6116C228.322 38.4363 228.469 39.2266 228.567 39.9826C228.965 43.089 228.483 45.4874 227.366 46.1747ZM231.77 34.5396C231.072 34.842 230.277 35.11 229.474 35.3643C228.966 33.6691 228.343 32.0092 227.611 30.3955C228.337 28.7897 228.951 27.1364 229.446 25.4473C230.27 25.7016 231.044 25.9834 231.777 26.2858C234.709 27.516 236.607 29.131 236.607 30.4093C236.607 31.6875 234.702 33.3026 231.77 34.5259V34.5396Z" fill="#5758B0"/>
<path d="M218.675 34.123C220.722 33.7907 222.112 31.8618 221.78 29.8147C221.448 27.7677 219.519 26.3776 217.472 26.7099C215.425 27.0422 214.035 28.971 214.367 31.0181C214.699 33.0651 216.628 34.4552 218.675 34.123Z" fill="#5758B0"/>
<path d="M150.879 26.1046H161.296C161.569 26.0876 161.843 26.1246 162.102 26.2136C162.361 26.3026 162.6 26.4417 162.805 26.6231C163.01 26.8045 163.178 27.0245 163.298 27.2706C163.418 27.5167 163.488 27.7841 163.505 28.0574C163.488 28.3307 163.418 28.5981 163.298 28.8442C163.178 29.0903 163.01 29.3104 162.805 29.4917C162.6 29.6731 162.361 29.8122 162.102 29.9012C161.843 29.9902 161.569 30.0272 161.296 30.0102H150.879C150.606 30.0272 150.332 29.9902 150.073 29.9012C149.814 29.8122 149.575 29.6731 149.37 29.4917C149.165 29.3104 148.997 29.0903 148.877 28.8442C148.757 28.5981 148.687 28.3307 148.67 28.0574C148.715 27.5097 148.97 27.0006 149.382 26.6367C149.794 26.2727 150.33 26.082 150.879 26.1046Z" fill="#5C5DB1"/>
<path d="M40.4995 97.4182H66.922C67.275 97.3964 67.6289 97.4439 67.9634 97.5581C68.2979 97.6722 68.6064 97.8507 68.8714 98.0833C69.1364 98.316 69.3525 98.5982 69.5076 98.9139C69.6626 99.2296 69.7535 99.5725 69.775 99.9231C69.7535 100.274 69.6626 100.617 69.5076 100.932C69.3525 101.248 69.1364 101.53 68.8714 101.763C68.6064 101.996 68.2979 102.174 67.9634 102.288C67.6289 102.402 67.275 102.45 66.922 102.428H40.4995C40.1465 102.45 39.7926 102.402 39.4581 102.288C39.1236 102.174 38.815 101.996 38.5501 101.763C38.2851 101.53 38.0689 101.248 37.9139 100.932C37.7588 100.617 37.668 100.274 37.6465 99.9231C37.7045 99.2206 38.0338 98.5676 38.5655 98.1007C39.0973 97.6338 39.7903 97.3893 40.4995 97.4182Z" fill="#F4BC4F"/>
<path d="M134.489 33.915H161.597C161.854 33.9144 162.108 33.9644 162.345 34.0623C162.583 34.1602 162.798 34.3041 162.98 34.4855C163.161 34.667 163.305 34.8825 163.403 35.1198C163.501 35.357 163.551 35.6112 163.55 35.8679C163.552 36.1249 163.502 36.3797 163.404 36.6175C163.307 36.8553 163.163 37.0714 162.982 37.2534C162.8 37.4354 162.584 37.5797 162.347 37.6779C162.109 37.7761 161.854 37.8264 161.597 37.8257H134.489C134.232 37.8264 133.977 37.7761 133.74 37.6779C133.502 37.5797 133.286 37.4354 133.105 37.2534C132.923 37.0714 132.78 36.8553 132.682 36.6175C132.584 36.3797 132.535 36.1249 132.536 35.8679C132.535 35.6112 132.586 35.357 132.683 35.1198C132.781 34.8825 132.925 34.667 133.107 34.4855C133.288 34.3041 133.504 34.1602 133.741 34.0623C133.978 33.9644 134.232 33.9144 134.489 33.915Z" fill="#D16978"/>
<path d="M19.0937 107.453H67.2442C67.5768 107.452 67.9063 107.517 68.2138 107.642C68.5213 107.768 68.8006 107.953 69.0359 108.185C69.2711 108.418 69.4575 108.695 69.5844 109C69.7113 109.304 69.7762 109.631 69.7753 109.96C69.777 110.29 69.7128 110.617 69.5863 110.922C69.4597 111.228 69.2735 111.505 69.0382 111.739C68.8029 111.972 68.5232 112.157 68.2153 112.284C67.9074 112.41 67.5773 112.474 67.2442 112.473H19.0937C18.7605 112.474 18.4304 112.41 18.1225 112.284C17.8146 112.157 17.535 111.972 17.2997 111.739C17.0644 111.505 16.8781 111.228 16.7516 110.922C16.6251 110.617 16.5608 110.29 16.5625 109.96C16.5617 109.631 16.6266 109.304 16.7535 109C16.8804 108.695 17.0668 108.418 17.302 108.185C17.5372 107.953 17.8166 107.768 18.124 107.642C18.4315 107.517 18.761 107.452 19.0937 107.453Z" fill="#F4BC4F"/>
<path d="M134.489 41.6963H161.597C161.854 41.6956 162.108 41.7457 162.345 41.8436C162.583 41.9415 162.798 42.0853 162.98 42.2668C163.161 42.4483 163.305 42.6638 163.403 42.901C163.501 43.1382 163.551 43.3925 163.55 43.6491C163.551 43.9057 163.501 44.16 163.403 44.3972C163.305 44.6344 163.161 44.85 162.98 45.0314C162.798 45.2129 162.583 45.3567 162.345 45.4546C162.108 45.5525 161.854 45.6026 161.597 45.6019H134.489C134.232 45.6026 133.978 45.5525 133.741 45.4546C133.504 45.3567 133.288 45.2129 133.107 45.0314C132.925 44.85 132.781 44.6344 132.683 44.3972C132.586 44.16 132.535 43.9057 132.536 43.6491C132.535 43.3925 132.586 43.1382 132.683 42.901C132.781 42.6638 132.925 42.4483 133.107 42.2668C133.288 42.0853 133.504 41.9415 133.741 41.8436C133.978 41.7457 134.232 41.6956 134.489 41.6963Z" fill="#D16978"/>
<path d="M116.04 47.2993C121.893 47.2993 126.638 42.5547 126.638 36.7019C126.638 30.8491 121.893 26.1045 116.04 26.1045C110.187 26.1045 105.443 30.8491 105.443 36.7019C105.443 42.5547 110.187 47.2993 116.04 47.2993Z" fill="#F4BC4F"/>
<path d="M58.2288 55.7471L39.6545 87.8756H76.8031L58.2288 55.7471Z" fill="#D16978"/>
</svg>
