<?xml version="1.0" encoding="UTF-8"?>
<svg width="302" height="138" fill="none" inkscape:version="1.0 (4035a4fb49, 2020-05-01)" sodipodi:docname="comp2.svg" version="1.1" viewBox="0 0 302 138" xmlns="http://www.w3.org/2000/svg" xmlns:inkscape="http://www.inkscape.org/namespaces/inkscape" xmlns:sodipodi="http://sodipodi.sourceforge.net/DTD/sodipodi-0.dtd">
 <sodipodi:namedview bordercolor="#666666" borderopacity="1" gridtolerance="10" guidetolerance="10" inkscape:current-layer="svg208" inkscape:cx="-290.55906" inkscape:cy="67.637046" inkscape:document-rotation="0" inkscape:pageopacity="0" inkscape:pageshadow="2" inkscape:window-height="1001" inkscape:window-maximized="1" inkscape:window-width="1920" inkscape:window-x="-9" inkscape:window-y="-9" inkscape:zoom="0.71354566" objecttolerance="10" pagecolor="#ffffff" showgrid="false"/>
 <g>
  <path d="m247.68 8.0186h-184.16c-2.4441 0-4.4254 1.9813-4.4254 4.4254v105.94c0 2.444 1.9813 4.425 4.4254 4.425h184.16c2.444 0 4.425-1.981 4.425-4.425v-105.94c0-2.4441-1.981-4.4254-4.425-4.4254z" fill="#fff" stroke="#525375" stroke-linecap="round" stroke-linejoin="round"/>
  <path d="m59.087 105.38h193.02" stroke="#525375" stroke-linecap="round" stroke-linejoin="round"/>
  <path d="m171.08 122.97h-30.979v14.382h30.979v-14.382z" fill="#fff" stroke="#525375" stroke-linecap="round" stroke-linejoin="round"/>
  <path d="m121.67 137.35h56.534-22.602 33.925" stroke="#525375" stroke-linecap="round" stroke-linejoin="round"/>
  <path d="m151.5 118.54c-4e-3 0.013-0.01 0.026-0.02 0.036-9e-3 0.01-0.02 0.019-0.032 0.025-0.013 6e-3 -0.026 9e-3 -0.04 9e-3 -0.014 1e-3 -0.028-2e-3 -0.04-7e-3 -0.835-0.313-1.554-0.873-2.062-1.605-0.508-0.733-0.78-1.603-0.78-2.494s0.272-1.761 0.78-2.494c0.508-0.732 1.227-1.292 2.062-1.605 0.012-5e-3 0.026-8e-3 0.04-8e-3 0.014 1e-3 0.027 4e-3 0.04 0.01 0.012 6e-3 0.023 0.014 0.032 0.025 0.01 0.01 0.016 0.022 0.02 0.035l0.738 2.162c9e-3 0.025 7e-3 0.052-4e-3 0.076s-0.031 0.043-0.055 0.053c-0.347 0.141-0.644 0.383-0.854 0.695-0.209 0.311-0.32 0.678-0.32 1.053s0.111 0.741 0.32 1.053c0.21 0.311 0.507 0.553 0.854 0.695 0.025 0.01 0.045 0.028 0.056 0.052 0.012 0.024 0.014 0.051 7e-3 0.077l-0.742 2.157z" fill="#5C5DB1"/>
  <path d="m156.64 118.54c-4e-3 0.013-0.01 0.026-0.02 0.036-9e-3 0.01-0.02 0.019-0.032 0.025-0.013 6e-3 -0.026 9e-3 -0.04 9e-3 -0.014 1e-3 -0.028-2e-3 -0.04-7e-3 -0.833-0.314-1.551-0.875-2.057-1.607-0.507-0.733-0.778-1.602-0.778-2.492s0.271-1.76 0.778-2.492c0.506-0.732 1.224-1.293 2.057-1.607 0.012-5e-3 0.026-8e-3 0.04-8e-3 0.014 1e-3 0.027 4e-3 0.04 0.01 0.012 6e-3 0.023 0.014 0.032 0.025 0.01 0.01 0.016 0.022 0.02 0.035l0.738 2.162c9e-3 0.025 7e-3 0.052-4e-3 0.076s-0.031 0.043-0.055 0.053c-0.347 0.141-0.644 0.383-0.854 0.695-0.209 0.311-0.32 0.678-0.32 1.053s0.111 0.741 0.32 1.053c0.21 0.311 0.507 0.553 0.854 0.695 0.025 9e-3 0.046 0.028 0.057 0.052 0.012 0.024 0.014 0.051 6e-3 0.077l-0.742 2.157z" fill="#D16978"/>
  <path d="m162.6 116.27c-0.34-0.141-0.632-0.378-0.84-0.682-0.207-0.304-0.322-0.662-0.329-1.03v-4.056c0-0.014-2e-3 -0.028-7e-3 -0.04-5e-3 -0.013-0.013-0.025-0.023-0.034-9e-3 -0.01-0.021-0.018-0.034-0.023-0.012-5e-3 -0.026-7e-3 -0.04-7e-3h-2.286c-0.014 0-0.028 2e-3 -0.04 7e-3 -0.013 5e-3 -0.025 0.013-0.034 0.023-0.01 9e-3 -0.018 0.021-0.023 0.034-5e-3 0.012-7e-3 0.026-6e-3 0.04v4.019c0 0.89 0.271 1.758 0.776 2.489 0.505 0.732 1.221 1.293 2.052 1.609 0.013 5e-3 0.027 7e-3 0.04 7e-3 0.014 0 0.028-4e-3 0.04-9e-3 0.013-6e-3 0.024-0.015 0.033-0.025 9e-3 -0.011 0.016-0.023 0.02-0.036l0.76-2.157c4e-3 -0.013 6e-3 -0.026 6e-3 -0.039s-3e-3 -0.026-9e-3 -0.038c-5e-3 -0.012-0.013-0.023-0.023-0.032s-0.021-0.016-0.033-0.02z" fill="#F4BC4F"/>
 </g>
 <path d="m121.67 137.35h56.534-22.602 33.925" fill="#fff"/>
 <g>
  <path d="m149.38 12.65h-74.83v85.816h74.83v-85.816z" fill="#fff" stroke="#525375" stroke-linecap="round" stroke-linejoin="round"/>
  <path d="m149.38 12.65h-74.827c0-2.4971 0.992-4.8918 2.7577-6.6575 1.7656-1.7657 4.1604-2.7576 6.6575-2.7576h55.997c2.497 0 4.891 0.99195 6.657 2.7576 1.766 1.7657 2.758 4.1604 2.758 6.6575z" fill="#fff" stroke="#525375" stroke-linecap="round" stroke-linejoin="round"/>
  <path d="m84.541 9.2209c0.7047 0 1.2759-0.57128 1.2759-1.276 0-0.70472-0.5712-1.276-1.2759-1.276-0.7048 0-1.2761 0.57128-1.2761 1.276 0 0.70471 0.5713 1.276 1.2761 1.276z" fill="#D16978"/>
  <path d="m88.368 9.2209c0.7047 0 1.276-0.57128 1.276-1.276 0-0.70472-0.5713-1.276-1.276-1.276s-1.276 0.57128-1.276 1.276c0 0.70471 0.5713 1.276 1.276 1.276z" fill="#5C5DB1"/>
  <path d="m92.193 9.2209c0.7047 0 1.2759-0.57128 1.2759-1.276 0-0.70472-0.5712-1.276-1.2759-1.276-0.7048 0-1.2761 0.57128-1.2761 1.276 0 0.70471 0.5713 1.276 1.2761 1.276z" fill="#F4BC4F"/>
  <path d="m101.48 17.548h-20.689c-1.0958 0-1.9841 0.8883-1.9841 1.984 0 1.0958 0.8883 1.9841 1.9841 1.9841h20.689c1.096 0 1.984-0.8883 1.984-1.9841 0-1.0957-0.888-1.984-1.984-1.984z" fill="#D16978"/>
  <path d="m91.064 57.23h-10.278c-1.0958 0-1.9841 0.8883-1.9841 1.9841 0 1.0957 0.8883 1.984 1.9841 1.984h10.278c1.0958 0 1.9841-0.8883 1.9841-1.984 0-1.0958-0.8883-1.9841-1.9841-1.9841z" fill="#F4BC4F"/>
  <path d="m95.069 63.745h-10.278c-1.0958 0-1.9841 0.8883-1.9841 1.9841s0.8883 1.9841 1.9841 1.9841h10.278c1.0957 0 1.984-0.8883 1.984-1.9841s-0.8883-1.9841-1.984-1.9841z" fill="#D16978"/>
  <path d="m108.04 57.23h-10.278c-1.0958 0-1.9841 0.8883-1.9841 1.9841 0 1.0957 0.8883 1.984 1.9841 1.984h10.278c1.096 0 1.985-0.8883 1.985-1.984 0-1.0958-0.889-1.9841-1.985-1.9841z" fill="#5C5DB1"/>
  <path d="m122.29 63.745h-10.278c-1.096 0-1.985 0.8883-1.985 1.9841s0.889 1.9841 1.985 1.9841h10.278c1.095 0 1.984-0.8883 1.984-1.9841s-0.889-1.9841-1.984-1.9841z" fill="#F4BC4F"/>
  <path d="m92.687 24.068h-7.7924c-1.0958 0-1.9841 0.8883-1.9841 1.984 0 1.0958 0.8883 1.9841 1.9841 1.9841h7.7924c1.0958 0 1.9841-0.8883 1.9841-1.9841 0-1.0957-0.8883-1.984-1.9841-1.984z" fill="#5C5DB1"/>
  <path d="m91.99 30.585h-4.1194c-1.0957 0-1.984 0.8883-1.984 1.984 0 1.0958 0.8883 1.9841 1.984 1.9841h4.1194c1.0958 0 1.9841-0.8883 1.9841-1.9841 0-1.0957-0.8883-1.984-1.9841-1.984z" fill="#D16978"/>
  <path d="m95.11 37.104h-4.1194c-1.0958 0-1.9841 0.8883-1.9841 1.9841 0 1.0957 0.8883 1.984 1.9841 1.984h4.1194c1.0957 0 1.984-0.8883 1.984-1.984 0-1.0958-0.8883-1.9841-1.984-1.9841z" fill="#D16978"/>
  <path d="m98.499 43.624h-10.628c-1.0957 0-1.984 0.8883-1.984 1.9841s0.8883 1.9841 1.984 1.9841h10.628c1.0957 0 1.984-0.8883 1.984-1.9841s-0.8883-1.9841-1.984-1.9841z" fill="#F4BC4F"/>
  <path d="m95.246 50.709h-10.628c-1.0958 0-1.9841 0.8883-1.9841 1.9841 0 1.0957 0.8883 1.984 1.9841 1.984h10.628c1.0957 0 1.984-0.8883 1.984-1.984 0-1.0958-0.8883-1.9841-1.984-1.9841z" fill="#D16978"/>
  <path d="m117.58 50.709h-15.113c-1.096 0-1.984 0.8883-1.984 1.9841 0 1.0957 0.888 1.984 1.984 1.984h15.113c1.096 0 1.984-0.8883 1.984-1.984 0-1.0958-0.888-1.9841-1.984-1.9841z" fill="#5C5DB1"/>
  <path d="m106.67 70.266h-15.113c-1.0958 0-1.9841 0.8883-1.9841 1.9841s0.8883 1.9841 1.9841 1.9841h15.113c1.096 0 1.984-0.8883 1.984-1.9841s-0.888-1.9841-1.984-1.9841z" fill="#D16978"/>
  <path d="m96.349 83.302h-15.113c-1.0958 0-1.984 0.8883-1.984 1.984 0 1.0958 0.8882 1.9841 1.984 1.9841h15.113c1.0958 0 1.984-0.8883 1.984-1.9841 0-1.0957-0.8882-1.984-1.984-1.984z" fill="#5C5DB1"/>
  <path d="m129.91 70.266h-15.112c-1.096 0-1.985 0.8883-1.985 1.9841s0.889 1.9841 1.985 1.9841h15.112c1.096 0 1.984-0.8883 1.984-1.9841s-0.888-1.9841-1.984-1.9841z" fill="#5C5DB1"/>
  <path d="m93.797 76.786h-9.4667c-1.0958 0-1.9841 0.8883-1.9841 1.9841s0.8883 1.9841 1.9841 1.9841h9.4667c1.0958 0 1.9841-0.8883 1.9841-1.9841s-0.8883-1.9841-1.9841-1.9841z" fill="#5C5DB1"/>
  <path d="m90.659 89.823h-9.4668c-1.0957 0-1.984 0.8883-1.984 1.9841s0.8883 1.9841 1.984 1.9841h9.4668c1.0957 0 1.984-0.8883 1.984-1.9841s-0.8883-1.9841-1.984-1.9841z" fill="#F4BC4F"/>
  <path d="m111.48 76.786h-9.467c-1.096 0-1.984 0.8883-1.984 1.9841s0.888 1.9841 1.984 1.9841h9.467c1.095 0 1.984-0.8883 1.984-1.9841s-0.889-1.9841-1.984-1.9841z" fill="#5C5DB1"/>
  <path d="m108.04 43.624h-2.597c-1.095 0-1.984 0.8883-1.984 1.9841s0.889 1.9841 1.984 1.9841h2.597c1.095 0 1.984-0.8883 1.984-1.9841s-0.889-1.9841-1.984-1.9841z" fill="#D16978"/>
  <path d="m127.6 50.709h-2.596c-1.096 0-1.984 0.8883-1.984 1.9841 0 1.0957 0.888 1.984 1.984 1.984h2.596c1.096 0 1.984-0.8883 1.984-1.984 0-1.0958-0.888-1.9841-1.984-1.9841z" fill="#F4BC4F"/>
  <path d="m104.76 63.745h-2.596c-1.096 0-1.984 0.8883-1.984 1.9841s0.888 1.9841 1.984 1.9841h2.596c1.096 0 1.984-0.8883 1.984-1.9841s-0.888-1.9841-1.984-1.9841z" fill="#5C5DB1"/>
  <path d="m106.67 83.302h-2.596c-1.096 0-1.984 0.8883-1.984 1.984 0 1.0958 0.888 1.9841 1.984 1.9841h2.596c1.096 0 1.985-0.8883 1.985-1.9841 0-1.0957-0.889-1.984-1.985-1.984z" fill="#D16978"/>
  <path d="m106.59 37.104h-4.119c-1.096 0-1.984 0.8883-1.984 1.9841 0 1.0957 0.888 1.984 1.984 1.984h4.119c1.096 0 1.984-0.8883 1.984-1.984 0-1.0958-0.888-1.9841-1.984-1.9841z" fill="#5C5DB1"/>
  <path d="m122.76 37.104h-9.294c-1.095 0-1.984 0.8883-1.984 1.9841 0 1.0957 0.889 1.984 1.984 1.984h9.294c1.095 0 1.984-0.8883 1.984-1.984 0-1.0958-0.889-1.9841-1.984-1.9841z" fill="#F4BC4F"/>
  <path d="m108.04 30.585h-8.2649c-1.0958 0-1.9841 0.8883-1.9841 1.984 0 1.0958 0.8883 1.9841 1.9841 1.9841h8.2649c1.095 0 1.984-0.8883 1.984-1.9841 0-1.0957-0.889-1.984-1.984-1.984z" fill="#5C5DB1"/>
  <path d="m117.58 24.068h-15.113c-1.096 0-1.984 0.8883-1.984 1.984 0 1.0958 0.888 1.9841 1.984 1.9841h15.113c1.096 0 1.984-0.8883 1.984-1.9841 0-1.0957-0.888-1.984-1.984-1.984z" fill="#F4BC4F"/>
  <path d="m127.6 45.786c0.484 0 0.877-0.393 0.877-0.8777 0-0.4848-0.393-0.8777-0.877-0.8777-0.485 0-0.878 0.3929-0.878 0.8777 0 0.4847 0.393 0.8777 0.878 0.8777z" fill="#525375"/>
 </g>
 <g>
  <path d="m105.68 20.372h-87.273c-9.6117 0-17.404 7.8253-17.404 17.478v32.101c0 9.653 7.7919 17.478 17.404 17.478h87.273c9.611 0 17.403-7.8254 17.403-17.478v-32.101c0-9.6531-7.792-17.478-17.403-17.478z" fill="#f4bc4f" stroke="#525375" stroke-linecap="round" stroke-linejoin="round"/>
  <path d="m11.849 36.417c2.1585 0 3.9083-1.7498 3.9083-3.9083s-1.7498-3.9083-3.9083-3.9083c-2.1585 0-3.9083 1.7498-3.9083 3.9083s1.7498 3.9083 3.9083 3.9083z" fill="#d16978"/>
  <path d="m16.008 61.101h3.8099v11.816c0.0222 0.39-0.0262 0.7811-0.1422 1.148-0.1159 0.3669-0.2968 0.7015-0.5309 0.9822-0.533 0.5141-1.2133 0.7756-1.905 0.7322-0.688 0.0494-1.3657-0.2131-1.8906-0.7322-0.2323-0.2815-0.411-0.6166-0.5246-0.9836-0.1135-0.367-0.1592-0.7577-0.1343-1.1466v-1.4479h1.3321v1.5311c-0.026 0.1941-0.0126 0.3926 0.039 0.5796 0.0515 0.1871 0.1399 0.3577 0.258 0.4982 0.1182 0.1405 0.2628 0.247 0.4226 0.3113 0.1598 0.0642 0.3302 0.0844 0.4978 0.0588 0.1692 0.0277 0.3417 0.0094 0.5037-0.0536 0.1621-0.0629 0.3094-0.1688 0.4302-0.3092s0.2119-0.3115 0.2661-0.4998 0.07-0.3887 0.0461-0.5853v-10.584h-2.4779z" fill="#fff"/>
  <path d="m26.443 61.101h2.1022l3.0249 14.684h-1.4066l-0.6806-3.407h-3.902l-0.6806 3.407h-1.4066zm1.0435 1.7035-1.6485 8.1768h3.2971z" fill="#fff"/>
  <path d="m38.41 75.785h-2.5032l-3.6018-14.684h1.6748l3.0796 12.947 3.1155-12.947h1.6748z" fill="#fff"/>
  <path d="m46.262 61.101h2.1134l3.0192 14.684h-1.4039l-0.6793-3.407h-3.9099l-0.6793 3.407h-1.4039zm1.0416 1.7035-1.6455 8.1768h3.291z" fill="#fff"/>
  <path d="m61.671 72.763c0 2.0147-1.225 3.0221-3.675 3.0221-2.4337 0-3.6587-1.0074-3.6587-3.0221v-1.836h1.519v1.9335c-0.0096 0.2282 0.034 0.4555 0.1276 0.6641 0.0935 0.2087 0.2343 0.3929 0.4114 0.5382 0.4787 0.325 1.0561 0.4744 1.6334 0.4225 0.5774 0.0546 1.1557-0.095 1.6333-0.4225 0.1805-0.136 0.3253-0.3134 0.422-0.5171s0.1424-0.4276 0.1334-0.6527c0.0091-0.4015-0.046-0.8019-0.1634-1.1861-0.1474-0.3612-0.3766-0.6837-0.6697-0.9424l-3.871-3.7046c-0.3982-0.3701-0.7152-0.8182-0.931-1.316-0.1805-0.5223-0.2635-1.0729-0.245-1.6248-0.0269-0.4143 0.0398-0.8292 0.1952-1.2144 0.1555-0.3852 0.3957-0.7309 0.7031-1.0116 0.7849-0.5787 1.7537-0.8557 2.7277-0.7799 2.3194 0 3.4791 1.0073 3.4791 3.0059v1.836h-1.519v-1.9173c0.0148-0.2257-0.0232-0.4518-0.1111-0.6604-0.0878-0.2086-0.2232-0.3942-0.3953-0.542-0.457-0.2873-0.9865-0.4398-1.5272-0.4398-0.5406 0-1.0702 0.1525-1.5272 0.4398-0.1708 0.1453-0.3054 0.3281-0.3933 0.5339-0.0878 0.2058-0.1265 0.4291-0.113 0.6523-0.0134 0.4005 0.0362 0.8007 0.147 1.1861 0.1512 0.3497 0.3802 0.6608 0.6697 0.9099l3.8874 3.7045c0.3703 0.3797 0.6642 0.8264 0.8656 1.3161 0.1805 0.5222 0.2635 1.0729 0.245 1.6248z" fill="#fff"/>
  <path d="m71.137 72.75v-1.1866h1.5433v1.1866c0.0264 0.4152-0.041 0.831-0.1974 1.2185-0.1565 0.3874-0.3982 0.7371-0.7084 1.0247-0.7828 0.5745-1.7552 0.8519-2.7343 0.7802-0.9895 0.0708-1.9721-0.2062-2.7679-0.7802-0.3151-0.2848-0.5612-0.6336-0.7208-1.0214-0.1595-0.3879-0.2284-0.8051-0.2018-1.2218v-8.6314c-0.0262-0.4128 0.0413-0.8262 0.1978-1.2109 0.1565-0.3848 0.3982-0.7316 0.708-1.0161 0.7828-0.5745 1.7552-0.8519 2.7343-0.7802 0.9894-0.0708 1.972 0.2062 2.7679 0.7802 0.3157 0.2809 0.5624 0.6267 0.7221 1.012 0.1596 0.3854 0.2281 0.8006 0.2005 1.215v2.0481h-1.5433v-2.0481c0-1.1379-0.7045-1.7231-2.1304-1.7231-1.4258 0-2.1136 0.5852-2.1136 1.7231v8.6314c0 1.1541 0.7045 1.723 2.1136 1.723s2.1304-0.5689 2.1304-1.723z" fill="#fff"/>
  <path d="m77.997 75.785h-1.64v-14.673h3.5268c0.9994-0.0744 1.9903 0.2241 2.7685 0.834 0.3243 0.2953 0.5777 0.6556 0.7422 1.0556s0.2362 0.8299 0.2101 1.2594v3.1662c0.0676 0.6463-0.1018 1.2951-0.4789 1.8332-0.377 0.5382-0.9377 0.9316-1.5843 1.1116l2.892 5.413h-1.7634l-2.7333-5.1066h-1.9397zm3.9676-8.3578v-3.1662c0.0162-0.245-0.0226-0.4905-0.1139-0.7197s-0.2329-0.4366-0.4151-0.608c-0.4361-0.3427-0.9907-0.513-1.5518-0.4766h-1.8868v6.8089h1.8868c1.4636-0.0341 2.0808-0.5788 2.0808-1.8384z" fill="#fff"/>
  <path d="m89.573 74.568v1.2168h-3.6711v-1.2168h1.0768v-10.782h-1.0768v-1.2169h3.6711v1.2169h-1.0769v10.782z" fill="#fff"/>
  <path d="m94.886 75.785h-1.6423v-14.674h3.5702c1.0113-0.0709 2.0131 0.2272 2.8026 0.8341 0.3283 0.2953 0.5851 0.6556 0.7511 1.0556 0.167 0.4 0.239 0.8299 0.213 1.2595v3.8473c0.026 0.4306-0.044 0.8617-0.208 1.2641-0.163 0.4023-0.4147 0.7666-0.7383 1.068-0.7949 0.6095-1.8033 0.9078-2.8204 0.8342h-1.9279zm4.0343-7.6774v-3.8473c0.0164-0.245-0.0229-0.4906-0.1154-0.7198-0.0924-0.2292-0.2357-0.4366-0.4201-0.608-0.4415-0.3427-1.0029-0.513-1.5709-0.4766h-1.9279v7.4561h1.9279c1.4102 0 2.1064-0.5958 2.1064-1.8044z" fill="#fff"/>
  <path d="m109.4 61.101v1.3457h-2.883v13.338h-1.559v-13.338h-2.9v-1.3457z" fill="#fff"/>
  <path d="m40.547 50.749 17.535-17.768 10.807 17.436 17.51-7.935" stroke="#fff" stroke-miterlimit="10"/>
  <path d="m39.974 53.042c-0.3401 0-0.6725-0.1177-0.9553-0.3381-0.2827-0.2204-0.5031-0.5337-0.6333-0.9002-0.1301-0.3666-0.1642-0.7699-0.0978-1.1591 0.0663-0.3891 0.2301-0.7465 0.4706-1.0271 0.2404-0.2805 0.5468-0.4716 0.8803-0.549 0.3336-0.0774 0.6793-0.0377 0.9935 0.1142 0.3142 0.1518 0.5827 0.4089 0.7716 0.7388 0.189 0.3299 0.2898 0.7177 0.2898 1.1145 0 0.532-0.1811 1.0423-0.5036 1.4185-0.3224 0.3762-0.7598 0.5875-1.2158 0.5875z" fill="#f4bc4f"/>
  <path d="m40.26 49.874c0.2298 0 0.4545 0.0681 0.6456 0.1958s0.34 0.3092 0.428 0.5215c0.0879 0.2124 0.1109 0.446 0.0661 0.6714s-0.1555 0.4325-0.318 0.595-0.3696 0.2732-0.595 0.318-0.4591 0.0218-0.6714-0.0661c-0.2123-0.088-0.3938-0.2369-0.5215-0.428s-0.1958-0.4158-0.1958-0.6456c0-0.3082 0.1224-0.6038 0.3403-0.8217s0.5135-0.3403 0.8217-0.3403zm0-1.4171c-0.5101 0-1.0088 0.1512-1.4329 0.4346s-0.7547 0.6862-0.9499 1.1575-0.2463 0.9899-0.1468 1.4902 0.3452 0.9598 0.7059 1.3205 0.8202 0.6064 1.3205 0.7059 1.0189 0.0484 1.4902-0.1468 0.8741-0.5258 1.1575-0.9499 0.4346-0.9228 0.4346-1.4329c0.0019-0.3392-0.0635-0.6754-0.1925-0.9892-0.1289-0.3138-0.3188-0.5988-0.5587-0.8387s-0.5249-0.4298-0.8387-0.5587c-0.3138-0.129-0.65-0.1944-0.9892-0.1925z" fill="#fff"/>
  <path d="m57.742 34.701c-0.3401 0-0.6726-0.084-0.9553-0.2415-0.2828-0.1574-0.5032-0.3812-0.6333-0.643-0.1301-0.2619-0.1642-0.55-0.0978-0.8279 0.0663-0.278 0.2301-0.5333 0.4705-0.7337 0.2405-0.2004 0.5469-0.3368 0.8804-0.3921 0.3336-0.0553 0.6793-0.0269 0.9935 0.0815 0.3141 0.1085 0.5827 0.2921 0.7716 0.5278 0.189 0.2356 0.2898 0.5126 0.2898 0.796 0 0.38-0.1812 0.7445-0.5036 1.0132-0.3225 0.2687-0.7598 0.4197-1.2158 0.4197z" fill="#f4bc4f"/>
  <path d="m57.742 31.949c0.2043 0 0.404 0.0606 0.5739 0.1741 0.1698 0.1135 0.3022 0.2748 0.3804 0.4636 0.0782 0.1887 0.0986 0.3964 0.0588 0.5968-0.0399 0.2003-0.1382 0.3844-0.2827 0.5288-0.1445 0.1445-0.3285 0.2429-0.5289 0.2827-0.2003 0.0399-0.408 0.0194-0.5968-0.0588-0.1887-0.0781-0.35-0.2105-0.4635-0.3804s-0.1741-0.3696-0.1741-0.5739c0-0.2739 0.1088-0.5366 0.3025-0.7303 0.1937-0.1938 0.4565-0.3026 0.7304-0.3026zm0-1.2596c-0.4534 0-0.8967 0.1344-1.2737 0.3863s-0.6708 0.61-0.8444 1.0289c-0.1735 0.4189-0.2189 0.8799-0.1304 1.3246 0.0884 0.4447 0.3068 0.8532 0.6274 1.1738 0.3206 0.3207 0.7291 0.539 1.1738 0.6275 0.4448 0.0884 0.9057 0.043 1.3246-0.1305 0.419-0.1735 0.777-0.4674 1.0289-0.8444s0.3864-0.8202 0.3864-1.2737c-0.0033-0.607-0.2459-1.1882-0.6751-1.6174-0.4293-0.4292-1.0105-0.6718-1.6175-0.6751z" fill="#fff"/>
  <path d="m69.217 51.896c-0.3411 0.0025-0.6753-0.0965-0.9601-0.2844-0.2847-0.188-0.5071-0.4564-0.6388-0.7711-0.1318-0.3147-0.1669-0.6615-0.101-0.9962 0.066-0.3348 0.23-0.6423 0.4712-0.8836 0.2413-0.2412 0.5488-0.4052 0.8836-0.4712 0.3347-0.0659 0.6815-0.0307 0.9962 0.101s0.5831 0.3541 0.7711 0.6389c0.1879 0.2847 0.2869 0.6189 0.2843 0.9601-0.0033 0.4515-0.1842 0.8836-0.5035 1.2029s-0.7514 0.5002-1.203 0.5036z" fill="#f4bc4f"/>
  <path d="m69.217 49.71c0.2062-0.0024 0.4084 0.0564 0.581 0.1692 0.1727 0.1127 0.3079 0.2742 0.3885 0.464 0.0807 0.1898 0.103 0.3992 0.0643 0.6017-0.0386 0.2025-0.1367 0.389-0.2816 0.5357-0.1449 0.1466-0.3301 0.2469-0.5322 0.2881-0.202 0.0411-0.4117 0.0213-0.6025-0.057-0.1907-0.0784-0.3538-0.2116-0.4686-0.3829-0.1149-0.1712-0.1762-0.3728-0.1762-0.5789-0.0017-0.136 0.0237-0.2709 0.0746-0.397s0.1263-0.2408 0.2218-0.3376c0.0956-0.0967 0.2094-0.1735 0.3348-0.2259 0.1255-0.0524 0.2601-0.0794 0.3961-0.0794zm0-1.2527c-0.454-0.0025-0.8984 0.1298-1.2771 0.3802s-0.6745 0.6076-0.8499 1.0263-0.2226 0.88-0.1356 1.3256c0.087 0.4455 0.3044 0.8552 0.6245 1.1771s0.7286 0.5414 1.1737 0.6309c0.445 0.0895 0.9066 0.0449 1.3263-0.1283 0.4196-0.1731 0.7784-0.467 1.0309-0.8443 0.2525-0.3772 0.3872-0.821 0.3872-1.2749 1e-4 -0.6059-0.2398-1.1871-0.667-1.6167s-1.0072-0.6726-1.613-0.6759z" fill="#fff"/>
  <path d="m86.972 44.445c-0.34 0-0.6725-0.1008-0.9552-0.2897-0.2828-0.189-0.5032-0.4575-0.6333-0.7717-0.1302-0.3142-0.1642-0.6599-0.0979-0.9934 0.0664-0.3336 0.2301-0.64 0.4706-0.8804 0.2405-0.2405 0.5468-0.4043 0.8804-0.4706 0.3335-0.0663 0.6792-0.0323 0.9934 0.0978 0.3142 0.1302 0.5828 0.3506 0.7717 0.6333 0.1889 0.2828 0.2898 0.6152 0.2898 0.9553 0 0.456-0.1812 0.8934-0.5036 1.2158-0.3225 0.3225-0.7598 0.5036-1.2159 0.5036z" fill="#f4bc4f"/>
  <path d="m86.686 41.276c0.3082 0 0.6038 0.1224 0.8217 0.3403 0.2179 0.218 0.3403 0.5135 0.3403 0.8217s-0.1224 0.6038-0.3403 0.8217-0.5135 0.3404-0.8217 0.3404-0.6038-0.1225-0.8217-0.3404-0.3403-0.5135-0.3403-0.8217 0.1224-0.6037 0.3403-0.8217c0.2179-0.2179 0.5135-0.3403 0.8217-0.3403zm0-1.4171c-0.5101 0-1.0087 0.1512-1.4329 0.4346-0.4241 0.2834-0.7547 0.6863-0.9499 1.1575-0.1952 0.4713-0.2463 0.9899-0.1468 1.4902s0.3452 0.9599 0.7059 1.3206 0.8202 0.6063 1.3205 0.7058c0.5003 0.0996 1.0189 0.0485 1.4902-0.1467s0.8741-0.5258 1.1575-0.95c0.2834-0.4241 0.4347-0.9228 0.4347-1.4329 0-0.684-0.2718-1.34-0.7554-1.8237-0.4837-0.4837-1.1398-0.7554-1.8238-0.7554z" fill="#fff"/>
  <path d="m117.08 42.25c0.522 0 0.944-0.4227 0.944-0.9441s-0.422-0.9441-0.944-0.9441c-0.521 0-0.944 0.4227-0.944 0.9441s0.423 0.9441 0.944 0.9441z" fill="#525375"/>
 </g>
 <path d="m117.08 41.316c2.242-0.2581 3.569 0.2766 4.366 0.804 1.129 0.7376 1.357 1.6042 2.582 2.2791 1.106 0.5591 2.365 0.7417 3.584 0.52" stroke="#525375" stroke-miterlimit="10"/>
 <g>
  <path d="m236.64 12.65h-74.823v34.939h74.823v-34.939z" fill="#fff" stroke="#525375" stroke-linecap="round" stroke-linejoin="round"/>
  <path d="m236.64 12.65h-74.823c0-1.2368 0.244-2.4614 0.717-3.6039 0.473-1.1425 1.167-2.1806 2.042-3.0549s1.913-1.5678 3.056-2.0407c1.142-0.47294 2.367-0.71611 3.604-0.71563h55.989c1.236-4.8e-4 2.461 0.24271 3.603 0.7157 1.143 0.47298 2.181 1.1665 3.055 2.0408 0.875 0.87437 1.568 1.9125 2.041 3.055 0.473 1.1425 0.716 2.367 0.716 3.6036z" fill="#fff" stroke="#525375" stroke-linecap="round" stroke-linejoin="round"/>
  <path d="m171.81 9.2209c0.705 0 1.276-0.57128 1.276-1.276 0-0.70472-0.571-1.276-1.276-1.276-0.704 0-1.276 0.57128-1.276 1.276 0 0.70471 0.572 1.276 1.276 1.276z" fill="#D16978"/>
  <path d="m175.63 9.2209c0.705 0 1.276-0.57128 1.276-1.276 0-0.70472-0.571-1.276-1.276-1.276-0.704 0-1.276 0.57128-1.276 1.276 0 0.70471 0.572 1.276 1.276 1.276z" fill="#5C5DB1"/>
  <path d="m179.46 9.2209c0.704 0 1.276-0.57128 1.276-1.276 0-0.70472-0.572-1.276-1.276-1.276-0.705 0-1.276 0.57128-1.276 1.276 0 0.70471 0.571 1.276 1.276 1.276z" fill="#F4BC4F"/>
  <path d="m178.08 17.548h-9.39c-1.096 0-1.984 0.8883-1.984 1.984 0 1.0958 0.888 1.9841 1.984 1.9841h9.39c1.095 0 1.984-0.8883 1.984-1.9841 0-1.0957-0.889-1.984-1.984-1.984z" fill="#D16978"/>
  <path d="m181.05 24.068h-9.389c-1.096 0-1.985 0.8883-1.985 1.984 0 1.0958 0.889 1.9841 1.985 1.9841h9.389c1.096 0 1.984-0.8883 1.984-1.9841 0-1.0957-0.888-1.984-1.984-1.984z" fill="#5C5DB1"/>
  <path d="m202.66 30.585h-9.39c-1.095 0-1.984 0.8883-1.984 1.984 0 1.0958 0.889 1.9841 1.984 1.9841h9.39c1.096 0 1.984-0.8883 1.984-1.9841 0-1.0957-0.888-1.984-1.984-1.984z" fill="#F4BC4F"/>
  <path d="m202.66 24.068h-14.63c-1.096 0-1.984 0.8883-1.984 1.984 0 1.0958 0.888 1.9841 1.984 1.9841h14.63c1.096 0 1.984-0.8883 1.984-1.9841 0-1.0957-0.888-1.984-1.984-1.984z" fill="#D16978"/>
  <path d="m185.86 30.585h-14.629c-1.096 0-1.985 0.8883-1.985 1.984 0 1.0958 0.889 1.9841 1.985 1.9841h14.629c1.096 0 1.984-0.8883 1.984-1.9841 0-1.0957-0.888-1.984-1.984-1.984z" fill="#D16978"/>
  <path d="m191.44 17.548h-5.642c-1.096 0-1.984 0.8883-1.984 1.984 0 1.0958 0.888 1.9841 1.984 1.9841h5.642c1.096 0 1.985-0.8883 1.985-1.9841 0-1.0957-0.889-1.984-1.985-1.984z" fill="#F4BC4F"/>
  <path d="m173.9 37.104h-5.642c-1.096 0-1.984 0.8883-1.984 1.9841 0 1.0957 0.888 1.984 1.984 1.984h5.642c1.096 0 1.984-0.8883 1.984-1.984 0-1.0958-0.888-1.9841-1.984-1.9841z" fill="#5C5DB1"/>
  <path d="m223.98 25.241c0.522 0 0.944-0.4227 0.944-0.9441s-0.422-0.9441-0.944-0.9441c-0.521 0-0.944 0.4227-0.944 0.9441s0.423 0.9441 0.944 0.9441z" fill="#525375"/>
 </g>
 <g>
  <path d="m290.74 1h-51.473c-5.669 0-10.265 4.5831-10.265 10.236v18.801c0 5.6535 4.596 10.236 10.265 10.236h51.473c5.669 0 10.264-4.583 10.264-10.236v-18.801c0-5.6534-4.595-10.236-10.264-10.236z" fill="#D16978" stroke="#525375" stroke-linecap="round" stroke-linejoin="round"/>
  <path d="m248.42 29.8h-1.97v-18.316h4.252c1.201-0.0838 2.39 0.2883 3.33 1.0424 0.388 0.3728 0.691 0.8255 0.887 1.3268s0.282 1.0394 0.25 1.577v4.7875c0.036 0.5389-0.046 1.0791-0.24 1.5831s-0.495 0.9597-0.882 1.3356c-0.947 0.7503-2.141 1.117-3.345 1.0274h-2.282v5.6364zm4.779-9.5825v-4.7652c0.019-0.3071-0.029-0.6146-0.141-0.9012-0.112-0.2867-0.284-0.5456-0.505-0.7592-0.519-0.4266-1.181-0.6395-1.851-0.5956h-2.282v9.2995h2.282c1.665-0.0149 2.497-0.7743 2.497-2.2783z" fill="#fff"/>
  <path d="m261.97 29.8h-1.994v-18.328h1.994v8.1953h5.613v-8.1953h1.994v18.328h-1.994v-8.4561h-5.613v8.4561z" fill="#fff"/>
  <path d="m276.79 29.8h-1.97v-18.316h4.252c1.202-0.0838 2.391 0.2883 3.331 1.0424 0.387 0.3728 0.69 0.8255 0.886 1.3268 0.197 0.5013 0.282 1.0394 0.251 1.577v4.7875c0.035 0.5389-0.047 1.0791-0.241 1.5831-0.193 0.504-0.494 0.9597-0.882 1.3356-0.947 0.7503-2.14 1.117-3.345 1.0274h-2.282v5.6364zm4.78-9.5825v-4.7652c0.018-0.3071-0.03-0.6146-0.142-0.9012-0.111-0.2867-0.284-0.5456-0.505-0.7592-0.519-0.4266-1.181-0.6395-1.851-0.5956h-2.282v9.2995h2.282c1.665-0.0149 2.498-0.7743 2.498-2.2783z" fill="#fff"/>
  <path d="m234.51 28.781c0.485 0 0.878-0.393 0.878-0.8777s-0.393-0.8777-0.878-0.8777c-0.484 0-0.877 0.393-0.877 0.8777s0.393 0.8777 0.877 0.8777z" fill="#525375"/>
 </g>
 <path d="m223.98 24.297c2.242-0.2545 3.57 0.2766 4.367 0.8076 1.128 0.7376 1.357 1.6043 2.581 2.2754 1.106 0.5602 2.365 0.744 3.585 0.5237" stroke="#525375" stroke-miterlimit="10"/>
 <g>
  <path d="m236.64 63.528h-74.823v34.942h74.823v-34.942z" fill="#fff" stroke="#525375" stroke-linecap="round" stroke-linejoin="round"/>
  <path d="m236.64 63.528h-74.823c0-1.2367 0.244-2.4613 0.717-3.6039 0.473-1.1425 1.167-2.1806 2.042-3.0549s1.913-1.5678 3.056-2.0407c1.142-0.4729 2.367-0.7161 3.604-0.7156h55.989c1.236-5e-4 2.461 0.2427 3.603 0.7157 1.143 0.473 2.181 1.1665 3.055 2.0408 0.875 0.8744 1.568 1.9125 2.041 3.055s0.716 2.3671 0.716 3.6036z" fill="#fff" stroke="#525375" stroke-linecap="round" stroke-linejoin="round"/>
  <path d="m236.64 63.528h-74.823c0-1.2367 0.244-2.4613 0.717-3.6039 0.473-1.1425 1.167-2.1806 2.042-3.0549s1.913-1.5678 3.056-2.0407c1.142-0.4729 2.367-0.7161 3.604-0.7156h55.989c1.236-5e-4 2.461 0.2427 3.603 0.7157 1.143 0.473 2.181 1.1665 3.055 2.0408 0.875 0.8744 1.568 1.9125 2.041 3.055s0.716 2.3671 0.716 3.6036z" fill="#fff" stroke="#525375" stroke-linecap="round" stroke-linejoin="round"/>
  <path d="m171.81 60.095c0.705 0 1.276-0.5713 1.276-1.276s-0.571-1.276-1.276-1.276c-0.704 0-1.276 0.5713-1.276 1.276s0.572 1.276 1.276 1.276z" fill="#D16978"/>
  <path d="m175.63 60.095c0.705 0 1.276-0.5713 1.276-1.276s-0.571-1.276-1.276-1.276c-0.704 0-1.276 0.5713-1.276 1.276s0.572 1.276 1.276 1.276z" fill="#5C5DB1"/>
  <path d="m179.46 60.095c0.704 0 1.276-0.5713 1.276-1.276s-0.572-1.276-1.276-1.276c-0.705 0-1.276 0.5713-1.276 1.276s0.571 1.276 1.276 1.276z" fill="#F4BC4F"/>
  <path d="m177.12 68.142h-9.39c-1.095 0-1.984 0.8883-1.984 1.9841 0 1.0957 0.889 1.984 1.984 1.984h9.39c1.096 0 1.984-0.8883 1.984-1.984 0-1.0958-0.888-1.9841-1.984-1.9841z" fill="#D16978"/>
  <path d="m185.5 80.33h-14.629c-1.096 0-1.985 0.8883-1.985 1.984 0 1.0958 0.889 1.9841 1.985 1.9841h14.629c1.096 0 1.984-0.8883 1.984-1.9841 0-1.0957-0.888-1.984-1.984-1.984z" fill="#D16978"/>
  <path d="m197.24 80.33h-5.329c-1.096 0-1.984 0.8883-1.984 1.984 0 1.0958 0.888 1.9841 1.984 1.9841h5.329c1.096 0 1.984-0.8883 1.984-1.9841 0-1.0957-0.888-1.984-1.984-1.984z" fill="#5C5DB1"/>
  <path d="m209.25 80.33h-5.329c-1.096 0-1.984 0.8883-1.984 1.984 0 1.0958 0.888 1.9841 1.984 1.9841h5.329c1.096 0 1.984-0.8883 1.984-1.9841 0-1.0957-0.888-1.984-1.984-1.984z" fill="#F4BC4F"/>
  <path d="m174.37 86.422h-6.642c-1.095 0-1.984 0.8883-1.984 1.984 0 1.0958 0.889 1.9841 1.984 1.9841h6.642c1.096 0 1.984-0.8883 1.984-1.9841 0-1.0957-0.888-1.984-1.984-1.984z" fill="#5C5DB1"/>
  <path d="m195.5 74.233h-12.148c-1.096 0-1.984 0.8883-1.984 1.9841 0 1.0957 0.888 1.984 1.984 1.984h12.148c1.096 0 1.984-0.8883 1.984-1.984 0-1.0958-0.888-1.9841-1.984-1.9841z" fill="#D16978"/>
  <path d="m176.2 74.233h-5.643c-1.096 0-1.984 0.8883-1.984 1.9841 0 1.0957 0.888 1.984 1.984 1.984h5.643c1.095 0 1.984-0.8883 1.984-1.984 0-1.0958-0.889-1.9841-1.984-1.9841z" fill="#5C5DB1"/>
  <path d="m222.06 86.441c0.485 0 0.878-0.393 0.878-0.8777 0-0.4848-0.393-0.8778-0.878-0.8778s-0.878 0.393-0.878 0.8778c0 0.4847 0.393 0.8777 0.878 0.8777z" fill="#525375"/>
 </g>
 <g>
  <path d="m276.31 67.65h-40.073c-4.413 0-7.991 3.58-7.991 7.9961v49.282c0 4.417 3.578 7.997 7.991 7.997h40.073c4.414 0 7.992-3.58 7.992-7.997v-49.282c0-4.4161-3.578-7.9961-7.992-7.9961z" fill="#5C5DB1" stroke="#525375" stroke-linecap="round" stroke-linejoin="round"/>
  <path d="m233.78 75.395c1.222 0 2.213-0.9907 2.213-2.2128 0-1.222-0.991-2.2127-2.213-2.2127s-2.213 0.9907-2.213 2.2127c0 1.2221 0.991 2.2128 2.213 2.2128z" fill="#D16978"/>
  <path d="m239.31 100.77v-1.2687l8.104-4.9271 0.747 1.5238-6.731 4.008 6.731 4.008-0.747 1.524-8.104-4.868z" fill="#fff"/>
  <path d="m254.29 111.91h-1.704l5.672-23.971h1.704l-5.672 23.971z" fill="#fff"/>
  <path d="m273.61 99.458v1.2955l-8.416 4.884-0.804-1.549 6.986-3.998-6.986-3.9971 0.78-1.5197 8.44 4.8843z" fill="#fff"/>
  <path d="m232.59 82.9c0.521 0 0.944-0.4227 0.944-0.9441s-0.423-0.9441-0.944-0.9441-0.944 0.4227-0.944 0.9441 0.423 0.9441 0.944 0.9441z" fill="#525375"/>
 </g>
 <path d="m232.59 81.956c-2.242-0.2545-3.57 0.2803-4.366 0.8076-1.129 0.7376-1.358 1.6042-2.582 2.2754-1.105 0.562-2.365 0.746-3.585 0.5237" stroke="#525375" stroke-miterlimit="10"/>
</svg>
