<?xml version="1.0" encoding="UTF-8" standalone="no"?>
<svg
   xmlns:dc="http://purl.org/dc/elements/1.1/"
   xmlns:cc="http://creativecommons.org/ns#"
   xmlns:rdf="http://www.w3.org/1999/02/22-rdf-syntax-ns#"
   xmlns:svg="http://www.w3.org/2000/svg"
   xmlns="http://www.w3.org/2000/svg"
   width="302"
   height="138"
   viewBox="0 0 302 138"
   fill="none"
   version="1.1"
   id="svg208">
  <metadata
     id="metadata214">
    <rdf:RDF>
      <cc:Work
         rdf:about="">
        <dc:format>image/svg+xml</dc:format>
        <dc:type
           rdf:resource="http://purl.org/dc/dcmitype/StillImage" />
        <dc:title></dc:title>
      </cc:Work>
    </rdf:RDF>
  </metadata>
  <defs
     id="defs212" />
  <g
     id="g1042">
    <path
       id="path2"
       stroke-linejoin="round"
       stroke-linecap="round"
       stroke="#525375"
       fill="white"
       d="M247.677 8.01855H63.5123C61.0682 8.01855 59.0869 9.99989 59.0869 12.444V118.382C59.0869 120.826 61.0682 122.807 63.5123 122.807H247.677C250.121 122.807 252.102 120.826 252.102 118.382V12.444C252.102 9.99989 250.121 8.01855 247.677 8.01855Z" />
    <path
       id="path4"
       stroke-linejoin="round"
       stroke-linecap="round"
       stroke="#525375"
       d="M59.0869 105.378H252.102" />
    <path
       id="path116"
       stroke-linejoin="round"
       stroke-linecap="round"
       stroke="#525375"
       fill="white"
       d="M171.084 122.969H140.105V137.351H171.084V122.969Z" />
    <path
       id="path120"
       stroke-linejoin="round"
       stroke-linecap="round"
       stroke="#525375"
       d="M121.666 137.352H155.588H178.2H155.598H155.599H189.523" />
    <path
       id="path202"
       fill="#5C5DB1"
       d="M151.497 118.543C151.493 118.556 151.487 118.569 151.477 118.579C151.468 118.589 151.457 118.598 151.445 118.604C151.432 118.61 151.419 118.613 151.405 118.613C151.391 118.614 151.377 118.611 151.365 118.606C150.53 118.293 149.811 117.733 149.303 117.001C148.795 116.268 148.523 115.398 148.523 114.507C148.523 113.616 148.795 112.746 149.303 112.013C149.811 111.281 150.53 110.721 151.365 110.408C151.377 110.403 151.391 110.4 151.405 110.4C151.419 110.401 151.432 110.404 151.445 110.41C151.457 110.416 151.468 110.424 151.477 110.435C151.487 110.445 151.493 110.457 151.497 110.47L152.235 112.632C152.244 112.657 152.242 112.684 152.231 112.708C152.22 112.732 152.2 112.751 152.176 112.761C151.829 112.902 151.532 113.144 151.322 113.456C151.113 113.767 151.002 114.134 151.002 114.509C151.002 114.884 151.113 115.25 151.322 115.562C151.532 115.873 151.829 116.115 152.176 116.257C152.201 116.267 152.221 116.285 152.232 116.309C152.244 116.333 152.246 116.36 152.239 116.386L151.497 118.543Z" />
    <path
       id="path204"
       fill="#D16978"
       d="M156.645 118.543C156.641 118.556 156.635 118.569 156.625 118.579C156.616 118.589 156.605 118.598 156.593 118.604C156.58 118.61 156.567 118.613 156.553 118.613C156.539 118.614 156.525 118.611 156.513 118.606C155.68 118.292 154.962 117.731 154.456 116.999C153.949 116.266 153.678 115.397 153.678 114.507C153.678 113.617 153.949 112.747 154.456 112.015C154.962 111.283 155.68 110.722 156.513 110.408C156.525 110.403 156.539 110.4 156.553 110.4C156.567 110.401 156.58 110.404 156.593 110.41C156.605 110.416 156.616 110.424 156.625 110.435C156.635 110.445 156.641 110.457 156.645 110.47L157.383 112.632C157.392 112.657 157.39 112.684 157.379 112.708C157.368 112.732 157.348 112.751 157.324 112.761C156.977 112.902 156.68 113.144 156.47 113.456C156.261 113.767 156.15 114.134 156.15 114.509C156.15 114.884 156.261 115.25 156.47 115.562C156.68 115.873 156.977 116.115 157.324 116.257C157.349 116.266 157.37 116.285 157.381 116.309C157.393 116.333 157.395 116.36 157.387 116.386L156.645 118.543Z" />
    <path
       id="path206"
       fill="#F4BC4F"
       d="M162.602 116.272C162.262 116.131 161.97 115.894 161.762 115.59C161.555 115.286 161.44 114.928 161.433 114.56V110.504C161.433 110.49 161.431 110.476 161.426 110.464C161.421 110.451 161.413 110.439 161.403 110.43C161.394 110.42 161.382 110.412 161.369 110.407C161.357 110.402 161.343 110.4 161.329 110.4H159.043C159.029 110.4 159.015 110.402 159.003 110.407C158.99 110.412 158.978 110.42 158.969 110.43C158.959 110.439 158.951 110.451 158.946 110.464C158.941 110.476 158.939 110.49 158.94 110.504V114.523C158.94 115.413 159.211 116.281 159.716 117.012C160.221 117.744 160.937 118.305 161.768 118.621C161.781 118.626 161.795 118.628 161.808 118.628C161.822 118.628 161.836 118.624 161.848 118.619C161.861 118.613 161.872 118.604 161.881 118.594C161.89 118.583 161.897 118.571 161.901 118.558L162.661 116.401C162.665 116.388 162.667 116.375 162.667 116.362C162.667 116.349 162.664 116.336 162.658 116.324C162.653 116.312 162.645 116.301 162.635 116.292C162.625 116.283 162.614 116.276 162.602 116.272Z" />
  </g>
  <path
     d="M121.666 137.352H155.588H178.2H155.598H155.599H189.523"
     fill="white"
     id="path118" />
  <g
     id="g987">
    <path
       id="path6"
       stroke-linejoin="round"
       stroke-linecap="round"
       stroke="#525375"
       fill="white"
       d="M149.38 12.6504H74.55V98.4669H149.38V12.6504Z" />
    <path
       id="path16"
       stroke-linejoin="round"
       stroke-linecap="round"
       stroke="#525375"
       fill="white"
       d="M149.377 12.6505H74.55C74.55 10.1534 75.542 7.75865 77.3077 5.99297C79.0733 4.2273 81.4681 3.23535 83.9652 3.23535H139.962C142.459 3.23535 144.853 4.2273 146.619 5.99297C148.385 7.75865 149.377 10.1534 149.377 12.6505Z" />
    <path
       id="path18"
       fill="#D16978"
       d="M84.5407 9.22094C85.2454 9.22094 85.8166 8.64966 85.8166 7.94495C85.8166 7.24023 85.2454 6.66895 84.5407 6.66895C83.8359 6.66895 83.2646 7.24023 83.2646 7.94495C83.2646 8.64966 83.8359 9.22094 84.5407 9.22094Z" />
    <path
       id="path20"
       fill="#5C5DB1"
       d="M88.3683 9.22094C89.073 9.22094 89.6443 8.64966 89.6443 7.94495C89.6443 7.24023 89.073 6.66895 88.3683 6.66895C87.6636 6.66895 87.0923 7.24023 87.0923 7.94495C87.0923 8.64966 87.6636 9.22094 88.3683 9.22094Z" />
    <path
       id="path22"
       fill="#F4BC4F"
       d="M92.1928 9.22094C92.8975 9.22094 93.4687 8.64966 93.4687 7.94495C93.4687 7.24023 92.8975 6.66895 92.1928 6.66895C91.488 6.66895 90.9167 7.24023 90.9167 7.94495C90.9167 8.64966 91.488 9.22094 92.1928 9.22094Z" />
    <path
       id="path38"
       fill="#D16978"
       d="M101.475 17.5479H80.7861C79.6903 17.5479 78.802 18.4362 78.802 19.5319C78.802 20.6277 79.6903 21.516 80.7861 21.516H101.475C102.571 21.516 103.459 20.6277 103.459 19.5319C103.459 18.4362 102.571 17.5479 101.475 17.5479Z" />
    <path
       id="path68"
       fill="#F4BC4F"
       d="M91.0641 57.2295H80.7861C79.6903 57.2295 78.802 58.1178 78.802 59.2136C78.802 60.3093 79.6903 61.1976 80.7861 61.1976H91.0641C92.1599 61.1976 93.0482 60.3093 93.0482 59.2136C93.0482 58.1178 92.1599 57.2295 91.0641 57.2295Z" />
    <path
       id="path70"
       fill="#D16978"
       d="M95.0693 63.7451H84.7912C83.6954 63.7451 82.8071 64.6334 82.8071 65.7292C82.8071 66.825 83.6954 67.7133 84.7912 67.7133H95.0693C96.165 67.7133 97.0533 66.825 97.0533 65.7292C97.0533 64.6334 96.165 63.7451 95.0693 63.7451Z" />
    <path
       id="path72"
       fill="#5C5DB1"
       d="M108.039 57.2295H97.7614C96.6656 57.2295 95.7773 58.1178 95.7773 59.2136C95.7773 60.3093 96.6656 61.1976 97.7614 61.1976H108.039C109.135 61.1976 110.024 60.3093 110.024 59.2136C110.024 58.1178 109.135 57.2295 108.039 57.2295Z" />
    <path
       id="path74"
       fill="#F4BC4F"
       d="M122.286 63.7451H112.008C110.912 63.7451 110.023 64.6334 110.023 65.7292C110.023 66.825 110.912 67.7133 112.008 67.7133H122.286C123.381 67.7133 124.27 66.825 124.27 65.7292C124.27 64.6334 123.381 63.7451 122.286 63.7451Z" />
    <path
       id="path76"
       fill="#5C5DB1"
       d="M92.6869 24.0684H84.8945C83.7987 24.0684 82.9104 24.9567 82.9104 26.0524C82.9104 27.1482 83.7987 28.0365 84.8945 28.0365H92.6869C93.7827 28.0365 94.671 27.1482 94.671 26.0524C94.671 24.9567 93.7827 24.0684 92.6869 24.0684Z" />
    <path
       id="path78"
       fill="#D16978"
       d="M91.9899 30.585H87.8705C86.7748 30.585 85.8865 31.4733 85.8865 32.569C85.8865 33.6648 86.7748 34.5531 87.8705 34.5531H91.9899C93.0857 34.5531 93.974 33.6648 93.974 32.569C93.974 31.4733 93.0857 30.585 91.9899 30.585Z" />
    <path
       id="path80"
       fill="#D16978"
       d="M95.1098 37.1045H90.9904C89.8946 37.1045 89.0063 37.9928 89.0063 39.0886C89.0063 40.1843 89.8946 41.0726 90.9904 41.0726H95.1098C96.2055 41.0726 97.0938 40.1843 97.0938 39.0886C97.0938 37.9928 96.2055 37.1045 95.1098 37.1045Z" />
    <path
       id="path82"
       fill="#F4BC4F"
       d="M98.499 43.624H87.8705C86.7748 43.624 85.8865 44.5123 85.8865 45.6081C85.8865 46.7039 86.7748 47.5922 87.8705 47.5922H98.499C99.5947 47.5922 100.483 46.7039 100.483 45.6081C100.483 44.5123 99.5947 43.624 98.499 43.624Z" />
    <path
       id="path84"
       fill="#D16978"
       d="M95.2463 50.709H84.6179C83.5221 50.709 82.6338 51.5973 82.6338 52.6931C82.6338 53.7888 83.5221 54.6771 84.6179 54.6771H95.2463C96.342 54.6771 97.2303 53.7888 97.2303 52.6931C97.2303 51.5973 96.342 50.709 95.2463 50.709Z" />
    <path
       id="path86"
       fill="#5C5DB1"
       d="M117.58 50.709H102.467C101.371 50.709 100.483 51.5973 100.483 52.6931C100.483 53.7888 101.371 54.6771 102.467 54.6771H117.58C118.676 54.6771 119.564 53.7888 119.564 52.6931C119.564 51.5973 118.676 50.709 117.58 50.709Z" />
    <path
       id="path88"
       fill="#D16978"
       d="M106.671 70.2656H91.5583C90.4625 70.2656 89.5742 71.1539 89.5742 72.2497C89.5742 73.3455 90.4625 74.2338 91.5583 74.2338H106.671C107.767 74.2338 108.655 73.3455 108.655 72.2497C108.655 71.1539 107.767 70.2656 106.671 70.2656Z" />
    <path
       id="path90"
       fill="#5C5DB1"
       d="M96.3489 83.3018H81.236C80.1402 83.3018 79.252 84.1901 79.252 85.2858C79.252 86.3816 80.1402 87.2699 81.236 87.2699H96.3489C97.4447 87.2699 98.3329 86.3816 98.3329 85.2858C98.3329 84.1901 97.4447 83.3018 96.3489 83.3018Z" />
    <path
       id="path92"
       fill="#5C5DB1"
       d="M129.912 70.2656H114.8C113.704 70.2656 112.815 71.1539 112.815 72.2497C112.815 73.3455 113.704 74.2338 114.8 74.2338H129.912C131.008 74.2338 131.896 73.3455 131.896 72.2497C131.896 71.1539 131.008 70.2656 129.912 70.2656Z" />
    <path
       id="path94"
       fill="#5C5DB1"
       d="M93.797 76.7861H84.3303C83.2345 76.7861 82.3462 77.6744 82.3462 78.7702C82.3462 79.866 83.2345 80.7543 84.3303 80.7543H93.797C94.8928 80.7543 95.7811 79.866 95.7811 78.7702C95.7811 77.6744 94.8928 76.7861 93.797 76.7861Z" />
    <path
       id="path96"
       fill="#F4BC4F"
       d="M90.6586 89.8232H81.1918C80.0961 89.8232 79.2078 90.7115 79.2078 91.8073C79.2078 92.9031 80.0961 93.7914 81.1918 93.7914H90.6586C91.7543 93.7914 92.6426 92.9031 92.6426 91.8073C92.6426 90.7115 91.7543 89.8232 90.6586 89.8232Z" />
    <path
       id="path98"
       fill="#5C5DB1"
       d="M111.477 76.7861H102.01C100.914 76.7861 100.026 77.6744 100.026 78.7702C100.026 79.866 100.914 80.7543 102.01 80.7543H111.477C112.572 80.7543 113.461 79.866 113.461 78.7702C113.461 77.6744 112.572 76.7861 111.477 76.7861Z" />
    <path
       id="path100"
       fill="#D16978"
       d="M108.04 43.624H105.443C104.348 43.624 103.459 44.5123 103.459 45.6081C103.459 46.7039 104.348 47.5922 105.443 47.5922H108.04C109.135 47.5922 110.024 46.7039 110.024 45.6081C110.024 44.5123 109.135 43.624 108.04 43.624Z" />
    <path
       id="path102"
       fill="#F4BC4F"
       d="M127.596 50.709H125C123.904 50.709 123.016 51.5973 123.016 52.6931C123.016 53.7888 123.904 54.6771 125 54.6771H127.596C128.692 54.6771 129.58 53.7888 129.58 52.6931C129.58 51.5973 128.692 50.709 127.596 50.709Z" />
    <path
       id="path104"
       fill="#5C5DB1"
       d="M104.757 63.7451H102.161C101.065 63.7451 100.177 64.6334 100.177 65.7292C100.177 66.825 101.065 67.7133 102.161 67.7133H104.757C105.853 67.7133 106.741 66.825 106.741 65.7292C106.741 64.6334 105.853 63.7451 104.757 63.7451Z" />
    <path
       id="path106"
       fill="#D16978"
       d="M106.667 83.3018H104.071C102.975 83.3018 102.087 84.1901 102.087 85.2858C102.087 86.3816 102.975 87.2699 104.071 87.2699H106.667C107.763 87.2699 108.652 86.3816 108.652 85.2858C108.652 84.1901 107.763 83.3018 106.667 83.3018Z" />
    <path
       id="path108"
       fill="#5C5DB1"
       d="M106.586 37.1045H102.467C101.371 37.1045 100.483 37.9928 100.483 39.0886C100.483 40.1843 101.371 41.0726 102.467 41.0726H106.586C107.682 41.0726 108.57 40.1843 108.57 39.0886C108.57 37.9928 107.682 37.1045 106.586 37.1045Z" />
    <path
       id="path110"
       fill="#F4BC4F"
       d="M122.758 37.1045H113.464C112.369 37.1045 111.48 37.9928 111.48 39.0886C111.48 40.1843 112.369 41.0726 113.464 41.0726H122.758C123.853 41.0726 124.742 40.1843 124.742 39.0886C124.742 37.9928 123.853 37.1045 122.758 37.1045Z" />
    <path
       id="path112"
       fill="#5C5DB1"
       d="M108.04 30.585H99.7751C98.6793 30.585 97.791 31.4733 97.791 32.569C97.791 33.6648 98.6793 34.5531 99.7751 34.5531H108.04C109.135 34.5531 110.024 33.6648 110.024 32.569C110.024 31.4733 109.135 30.585 108.04 30.585Z" />
    <path
       id="path114"
       fill="#F4BC4F"
       d="M117.58 24.0684H102.467C101.371 24.0684 100.483 24.9567 100.483 26.0524C100.483 27.1482 101.371 28.0365 102.467 28.0365H117.58C118.676 28.0365 119.564 27.1482 119.564 26.0524C119.564 24.9567 118.676 24.0684 117.58 24.0684Z" />
    <path
       id="path166"
       fill="#525375"
       d="M127.604 45.7857C128.088 45.7857 128.481 45.3927 128.481 44.908C128.481 44.4232 128.088 44.0303 127.604 44.0303C127.119 44.0303 126.726 44.4232 126.726 44.908C126.726 45.3927 127.119 45.7857 127.604 45.7857Z" />
  </g>
  <g
     id="g954">
    <path
       id="path122"
       stroke-linejoin="round"
       stroke-linecap="round"
       stroke="#525375"
       fill="#f4bc4f"
       d="M 105.677,20.3721 H 18.4036 C 8.79187,20.3721 1,28.1974 1,37.8505 v 32.1014 c 0,9.653 7.79187,17.4784 17.4036,17.4784 h 87.2734 c 9.611,0 17.403,-7.8254 17.403,-17.4784 V 37.8505 c 0,-9.6531 -7.792,-17.4784 -17.403,-17.4784 z" />
    <path
       id="path124"
       fill="#d16978"
       d="m 11.8492,36.4172 c 2.1585,0 3.9083,-1.7498 3.9083,-3.9083 0,-2.1585 -1.7498,-3.9083 -3.9083,-3.9083 -2.15847,0 -3.90828,1.7498 -3.90828,3.9083 0,2.1585 1.74981,3.9083 3.90828,3.9083 z" />
    <path
       id="path126"
       fill="#ffffff"
       d="m 16.0079,61.1006 h 3.8099 v 11.8159 c 0.0222,0.39 -0.0262,0.7811 -0.1422,1.148 -0.1159,0.3669 -0.2968,0.7015 -0.5309,0.9822 -0.533,0.5141 -1.2133,0.7756 -1.905,0.7322 -0.688,0.0494 -1.3657,-0.2131 -1.8906,-0.7322 -0.2323,-0.2815 -0.411,-0.6166 -0.5246,-0.9836 -0.1135,-0.367 -0.1592,-0.7577 -0.1343,-1.1466 v -1.4479 h 1.3321 v 1.5311 c -0.026,0.1941 -0.0126,0.3926 0.039,0.5796 0.0515,0.1871 0.1399,0.3577 0.258,0.4982 0.1182,0.1405 0.2628,0.247 0.4226,0.3113 0.1598,0.0642 0.3302,0.0844 0.4978,0.0588 0.1692,0.0277 0.3417,0.0094 0.5037,-0.0536 0.1621,-0.0629 0.3094,-0.1688 0.4302,-0.3092 0.1208,-0.1404 0.2119,-0.3115 0.2661,-0.4998 0.0542,-0.1883 0.07,-0.3887 0.0461,-0.5853 V 62.4153 h -2.4779 z" />
    <path
       id="path128"
       fill="#ffffff"
       d="m 26.4434,61.1006 h 2.1022 l 3.0249,14.6842 h -1.4066 l -0.6806,-3.407 h -3.902 l -0.6806,3.407 h -1.4066 z m 1.0435,1.7035 -1.6485,8.1768 h 3.2971 z" />
    <path
       id="path130"
       fill="#ffffff"
       d="M 38.4097,75.7848 H 35.9065 L 32.3047,61.1006 h 1.6748 l 3.0796,12.9466 3.1155,-12.9466 h 1.6748 z" />
    <path
       id="path132"
       fill="#ffffff"
       d="m 46.2616,61.1006 h 2.1134 l 3.0192,14.6842 h -1.4039 l -0.6793,-3.407 h -3.9099 l -0.6793,3.407 h -1.4039 z m 1.0416,1.7035 -1.6455,8.1768 h 3.291 z" />
    <path
       id="path134"
       fill="#ffffff"
       d="m 61.6706,72.7627 c 0,2.0147 -1.225,3.0221 -3.675,3.0221 -2.4337,0 -3.6587,-1.0074 -3.6587,-3.0221 v -1.836 h 1.519 v 1.9335 c -0.0096,0.2282 0.034,0.4555 0.1276,0.6641 0.0935,0.2087 0.2343,0.3929 0.4114,0.5382 0.4787,0.325 1.0561,0.4744 1.6334,0.4225 0.5774,0.0546 1.1557,-0.095 1.6333,-0.4225 0.1805,-0.136 0.3253,-0.3134 0.422,-0.5171 0.0967,-0.2037 0.1424,-0.4276 0.1334,-0.6527 0.0091,-0.4015 -0.046,-0.8019 -0.1634,-1.1861 -0.1474,-0.3612 -0.3766,-0.6837 -0.6697,-0.9424 l -3.871,-3.7046 c -0.3982,-0.3701 -0.7152,-0.8182 -0.931,-1.316 -0.1805,-0.5223 -0.2635,-1.0729 -0.245,-1.6248 -0.0269,-0.4143 0.0398,-0.8292 0.1952,-1.2144 0.1555,-0.3852 0.3957,-0.7309 0.7031,-1.0116 0.7849,-0.5787 1.7537,-0.8557 2.7277,-0.7799 2.3194,0 3.4791,1.0073 3.4791,3.0059 v 1.836 h -1.519 v -1.9173 c 0.0148,-0.2257 -0.0232,-0.4518 -0.1111,-0.6604 -0.0878,-0.2086 -0.2232,-0.3942 -0.3953,-0.542 -0.457,-0.2873 -0.9865,-0.4398 -1.5272,-0.4398 -0.5406,0 -1.0702,0.1525 -1.5272,0.4398 -0.1708,0.1453 -0.3054,0.3281 -0.3933,0.5339 -0.0878,0.2058 -0.1265,0.4291 -0.113,0.6523 -0.0134,0.4005 0.0362,0.8007 0.147,1.1861 0.1512,0.3497 0.3802,0.6608 0.6697,0.9099 l 3.8874,3.7045 c 0.3703,0.3797 0.6642,0.8264 0.8656,1.3161 0.1805,0.5222 0.2635,1.0729 0.245,1.6248 z" />
    <path
       id="path136"
       fill="#ffffff"
       d="m 71.1371,72.7503 v -1.1866 h 1.5433 v 1.1866 c 0.0264,0.4152 -0.041,0.831 -0.1974,1.2185 -0.1565,0.3874 -0.3982,0.7371 -0.7084,1.0247 -0.7828,0.5745 -1.7552,0.8519 -2.7343,0.7802 -0.9895,0.0708 -1.9721,-0.2062 -2.7679,-0.7802 -0.3151,-0.2848 -0.5612,-0.6336 -0.7208,-1.0214 -0.1595,-0.3879 -0.2284,-0.8051 -0.2018,-1.2218 v -8.6314 c -0.0262,-0.4128 0.0413,-0.8262 0.1978,-1.2109 0.1565,-0.3848 0.3982,-0.7316 0.708,-1.0161 0.7828,-0.5745 1.7552,-0.8519 2.7343,-0.7802 0.9894,-0.0708 1.972,0.2062 2.7679,0.7802 0.3157,0.2809 0.5624,0.6267 0.7221,1.012 0.1596,0.3854 0.2281,0.8006 0.2005,1.215 v 2.0481 h -1.5433 v -2.0481 c 0,-1.1379 -0.7045,-1.7231 -2.1304,-1.7231 -1.4258,0 -2.1136,0.5852 -2.1136,1.7231 v 8.6314 c 0,1.1541 0.7045,1.723 2.1136,1.723 1.4091,0 2.1304,-0.5689 2.1304,-1.723 z" />
    <path
       id="path138"
       fill="#ffffff"
       d="m 77.9974,75.7848 h -1.64 v -14.673 h 3.5268 c 0.9994,-0.0744 1.9903,0.2241 2.7685,0.834 0.3243,0.2953 0.5777,0.6556 0.7422,1.0556 0.1645,0.4 0.2362,0.8299 0.2101,1.2594 v 3.1662 c 0.0676,0.6463 -0.1018,1.2951 -0.4789,1.8332 -0.377,0.5382 -0.9377,0.9316 -1.5843,1.1116 l 2.892,5.413 H 82.6704 L 79.9371,70.6782 H 77.9974 Z M 81.965,67.427 v -3.1662 c 0.0162,-0.245 -0.0226,-0.4905 -0.1139,-0.7197 -0.0913,-0.2292 -0.2329,-0.4366 -0.4151,-0.608 -0.4361,-0.3427 -0.9907,-0.513 -1.5518,-0.4766 h -1.8868 v 6.8089 h 1.8868 c 1.4636,-0.0341 2.0808,-0.5788 2.0808,-1.8384 z" />
    <path
       id="path140"
       fill="#ffffff"
       d="m 89.5732,74.5683 v 1.2168 h -3.6711 v -1.2168 h 1.0768 V 63.7862 h -1.0768 v -1.2169 h 3.6711 v 1.2169 h -1.0769 v 10.7821 z" />
    <path
       id="path142"
       fill="#ffffff"
       d="M 94.8864,75.7848 H 93.2441 V 61.1109 h 3.5702 c 1.0113,-0.0709 2.0131,0.2272 2.8026,0.8341 0.3283,0.2953 0.5851,0.6556 0.7511,1.0556 0.167,0.4 0.239,0.8299 0.213,1.2595 v 3.8473 c 0.026,0.4306 -0.044,0.8617 -0.208,1.2641 -0.163,0.4023 -0.4147,0.7666 -0.7383,1.068 -0.7949,0.6095 -1.8033,0.9078 -2.8204,0.8342 h -1.9279 z m 4.0343,-7.6774 v -3.8473 c 0.0164,-0.245 -0.0229,-0.4906 -0.1154,-0.7198 -0.0924,-0.2292 -0.2357,-0.4366 -0.4201,-0.608 -0.4415,-0.3427 -1.0029,-0.513 -1.5709,-0.4766 h -1.9279 v 7.4561 h 1.9279 c 1.4102,0 2.1064,-0.5958 2.1064,-1.8044 z" />
    <path
       id="path144"
       fill="#ffffff"
       d="m 109.397,61.1006 v 1.3457 h -2.883 v 13.3385 h -1.559 V 62.4463 h -2.9 v -1.3457 z" />
    <path
       id="path146"
       stroke-miterlimit="10"
       stroke="#ffffff"
       d="M 40.5471,50.749 58.082,32.9814 68.8893,50.4179 86.3989,42.4829" />
    <path
       id="path148"
       fill="#f4bc4f"
       d="m 39.9741,53.0423 c -0.3401,0 -0.6725,-0.1177 -0.9553,-0.3381 -0.2827,-0.2204 -0.5031,-0.5337 -0.6333,-0.9002 -0.1301,-0.3666 -0.1642,-0.7699 -0.0978,-1.1591 0.0663,-0.3891 0.2301,-0.7465 0.4706,-1.0271 0.2404,-0.2805 0.5468,-0.4716 0.8803,-0.549 0.3336,-0.0774 0.6793,-0.0377 0.9935,0.1142 0.3142,0.1518 0.5827,0.4089 0.7716,0.7388 0.189,0.3299 0.2898,0.7177 0.2898,1.1145 0,0.532 -0.1811,1.0423 -0.5036,1.4185 -0.3224,0.3762 -0.7598,0.5875 -1.2158,0.5875 z" />
    <path
       id="path150"
       fill="#ffffff"
       d="m 40.2603,49.8742 c 0.2298,0 0.4545,0.0681 0.6456,0.1958 0.1911,0.1277 0.34,0.3092 0.428,0.5215 0.0879,0.2124 0.1109,0.446 0.0661,0.6714 -0.0448,0.2254 -0.1555,0.4325 -0.318,0.595 -0.1625,0.1625 -0.3696,0.2732 -0.595,0.318 -0.2254,0.0448 -0.4591,0.0218 -0.6714,-0.0661 -0.2123,-0.088 -0.3938,-0.2369 -0.5215,-0.428 -0.1277,-0.1911 -0.1958,-0.4158 -0.1958,-0.6456 0,-0.3082 0.1224,-0.6038 0.3403,-0.8217 0.2179,-0.2179 0.5135,-0.3403 0.8217,-0.3403 z m 0,-1.4171 c -0.5101,0 -1.0088,0.1512 -1.4329,0.4346 -0.4241,0.2834 -0.7547,0.6862 -0.9499,1.1575 -0.1952,0.4713 -0.2463,0.9899 -0.1468,1.4902 0.0995,0.5003 0.3452,0.9598 0.7059,1.3205 0.3607,0.3607 0.8202,0.6064 1.3205,0.7059 0.5003,0.0995 1.0189,0.0484 1.4902,-0.1468 0.4713,-0.1952 0.8741,-0.5258 1.1575,-0.9499 0.2834,-0.4241 0.4346,-0.9228 0.4346,-1.4329 0.0019,-0.3392 -0.0635,-0.6754 -0.1925,-0.9892 -0.1289,-0.3138 -0.3188,-0.5988 -0.5587,-0.8387 -0.2399,-0.2399 -0.5249,-0.4298 -0.8387,-0.5587 -0.3138,-0.129 -0.65,-0.1944 -0.9892,-0.1925 z" />
    <path
       id="path152"
       fill="#f4bc4f"
       d="m 57.7417,34.7007 c -0.3401,0 -0.6726,-0.084 -0.9553,-0.2415 -0.2828,-0.1574 -0.5032,-0.3812 -0.6333,-0.643 -0.1301,-0.2619 -0.1642,-0.55 -0.0978,-0.8279 0.0663,-0.278 0.2301,-0.5333 0.4705,-0.7337 0.2405,-0.2004 0.5469,-0.3368 0.8804,-0.3921 0.3336,-0.0553 0.6793,-0.0269 0.9935,0.0815 0.3141,0.1085 0.5827,0.2921 0.7716,0.5278 0.189,0.2356 0.2898,0.5126 0.2898,0.796 0,0.38 -0.1812,0.7445 -0.5036,1.0132 -0.3225,0.2687 -0.7598,0.4197 -1.2158,0.4197 z" />
    <path
       id="path154"
       fill="#ffffff"
       d="m 57.7418,31.9491 c 0.2043,0 0.404,0.0606 0.5739,0.1741 0.1698,0.1135 0.3022,0.2748 0.3804,0.4636 0.0782,0.1887 0.0986,0.3964 0.0588,0.5968 -0.0399,0.2003 -0.1382,0.3844 -0.2827,0.5288 -0.1445,0.1445 -0.3285,0.2429 -0.5289,0.2827 -0.2003,0.0399 -0.408,0.0194 -0.5968,-0.0588 -0.1887,-0.0781 -0.35,-0.2105 -0.4635,-0.3804 -0.1135,-0.1699 -0.1741,-0.3696 -0.1741,-0.5739 0,-0.2739 0.1088,-0.5366 0.3025,-0.7303 0.1937,-0.1938 0.4565,-0.3026 0.7304,-0.3026 z m 0,-1.2596 c -0.4534,0 -0.8967,0.1344 -1.2737,0.3863 -0.377,0.2519 -0.6708,0.61 -0.8444,1.0289 -0.1735,0.4189 -0.2189,0.8799 -0.1304,1.3246 0.0884,0.4447 0.3068,0.8532 0.6274,1.1738 0.3206,0.3207 0.7291,0.539 1.1738,0.6275 0.4448,0.0884 0.9057,0.043 1.3246,-0.1305 0.419,-0.1735 0.777,-0.4674 1.0289,-0.8444 0.2519,-0.377 0.3864,-0.8202 0.3864,-1.2737 -0.0033,-0.607 -0.2459,-1.1882 -0.6751,-1.6174 -0.4293,-0.4292 -1.0105,-0.6718 -1.6175,-0.6751 z" />
    <path
       id="path156"
       fill="#f4bc4f"
       d="m 69.2174,51.8959 c -0.3411,0.0025 -0.6753,-0.0965 -0.9601,-0.2844 -0.2847,-0.188 -0.5071,-0.4564 -0.6388,-0.7711 -0.1318,-0.3147 -0.1669,-0.6615 -0.101,-0.9962 0.066,-0.3348 0.23,-0.6423 0.4712,-0.8836 0.2413,-0.2412 0.5488,-0.4052 0.8836,-0.4712 0.3347,-0.0659 0.6815,-0.0307 0.9962,0.101 0.3147,0.1317 0.5831,0.3541 0.7711,0.6389 0.1879,0.2847 0.2869,0.6189 0.2843,0.9601 -0.0033,0.4515 -0.1842,0.8836 -0.5035,1.2029 -0.3193,0.3193 -0.7514,0.5002 -1.203,0.5036 z" />
    <path
       id="path158"
       fill="#ffffff"
       d="m 69.217,49.7098 c 0.2062,-0.0024 0.4084,0.0564 0.581,0.1692 0.1727,0.1127 0.3079,0.2742 0.3885,0.464 0.0807,0.1898 0.103,0.3992 0.0643,0.6017 -0.0386,0.2025 -0.1367,0.389 -0.2816,0.5357 -0.1449,0.1466 -0.3301,0.2469 -0.5322,0.2881 -0.202,0.0411 -0.4117,0.0213 -0.6025,-0.057 -0.1907,-0.0784 -0.3538,-0.2116 -0.4686,-0.3829 -0.1149,-0.1712 -0.1762,-0.3728 -0.1762,-0.5789 -0.0017,-0.136 0.0237,-0.2709 0.0746,-0.397 0.0509,-0.1261 0.1263,-0.2408 0.2218,-0.3376 0.0956,-0.0967 0.2094,-0.1735 0.3348,-0.2259 0.1255,-0.0524 0.2601,-0.0794 0.3961,-0.0794 z m 0,-1.2527 c -0.454,-0.0025 -0.8984,0.1298 -1.2771,0.3802 -0.3787,0.2504 -0.6745,0.6076 -0.8499,1.0263 -0.1754,0.4187 -0.2226,0.88 -0.1356,1.3256 0.087,0.4455 0.3044,0.8552 0.6245,1.1771 0.3201,0.3219 0.7286,0.5414 1.1737,0.6309 0.445,0.0895 0.9066,0.0449 1.3263,-0.1283 0.4196,-0.1731 0.7784,-0.467 1.0309,-0.8443 0.2525,-0.3772 0.3872,-0.821 0.3872,-1.2749 1e-4,-0.6059 -0.2398,-1.1871 -0.667,-1.6167 -0.4272,-0.4296 -1.0072,-0.6726 -1.613,-0.6759 z" />
    <path
       id="path160"
       fill="#f4bc4f"
       d="m 86.9721,44.4447 c -0.34,0 -0.6725,-0.1008 -0.9552,-0.2897 -0.2828,-0.189 -0.5032,-0.4575 -0.6333,-0.7717 -0.1302,-0.3142 -0.1642,-0.6599 -0.0979,-0.9934 0.0664,-0.3336 0.2301,-0.64 0.4706,-0.8804 0.2405,-0.2405 0.5468,-0.4043 0.8804,-0.4706 0.3335,-0.0663 0.6792,-0.0323 0.9934,0.0978 0.3142,0.1302 0.5828,0.3506 0.7717,0.6333 0.1889,0.2828 0.2898,0.6152 0.2898,0.9553 0,0.456 -0.1812,0.8934 -0.5036,1.2158 -0.3225,0.3225 -0.7598,0.5036 -1.2159,0.5036 z" />
    <path
       id="path162"
       fill="#ffffff"
       d="m 86.6856,41.2765 c 0.3082,0 0.6038,0.1224 0.8217,0.3403 0.2179,0.218 0.3403,0.5135 0.3403,0.8217 0,0.3082 -0.1224,0.6038 -0.3403,0.8217 -0.2179,0.2179 -0.5135,0.3404 -0.8217,0.3404 -0.3082,0 -0.6038,-0.1225 -0.8217,-0.3404 -0.2179,-0.2179 -0.3403,-0.5135 -0.3403,-0.8217 0,-0.3082 0.1224,-0.6037 0.3403,-0.8217 0.2179,-0.2179 0.5135,-0.3403 0.8217,-0.3403 z m 0,-1.4171 c -0.5101,0 -1.0087,0.1512 -1.4329,0.4346 -0.4241,0.2834 -0.7547,0.6863 -0.9499,1.1575 -0.1952,0.4713 -0.2463,0.9899 -0.1468,1.4902 0.0995,0.5003 0.3452,0.9599 0.7059,1.3206 0.3607,0.3607 0.8202,0.6063 1.3205,0.7058 0.5003,0.0996 1.0189,0.0485 1.4902,-0.1467 0.4713,-0.1952 0.8741,-0.5258 1.1575,-0.95 0.2834,-0.4241 0.4347,-0.9228 0.4347,-1.4329 0,-0.684 -0.2718,-1.34 -0.7554,-1.8237 -0.4837,-0.4837 -1.1398,-0.7554 -1.8238,-0.7554 z" />
    <path
       id="path164"
       fill="#525375"
       d="m 117.078,42.2495 c 0.522,0 0.944,-0.4227 0.944,-0.9441 0,-0.5214 -0.422,-0.9441 -0.944,-0.9441 -0.521,0 -0.944,0.4227 -0.944,0.9441 0,0.5214 0.423,0.9441 0.944,0.9441 z" />
  </g>
  <path
     d="M117.079 41.316C119.321 41.0579 120.648 41.5926 121.445 42.12C122.574 42.8576 122.802 43.7242 124.027 44.3991C125.133 44.9582 126.392 45.1408 127.611 44.9191"
     stroke="#525375"
     stroke-miterlimit="10"
     id="path168" />
  <g
     id="g1002">
    <path
       id="path8"
       stroke-linejoin="round"
       stroke-linecap="round"
       stroke="#525375"
       fill="white"
       d="M236.639 12.6504H161.816V47.5892H236.639V12.6504Z" />
    <path
       id="path12"
       stroke-linejoin="round"
       stroke-linecap="round"
       stroke="#525375"
       fill="white"
       d="M236.639 12.6505H161.816C161.816 11.4137 162.06 10.1891 162.533 9.0466C163.006 7.90407 163.7 6.86599 164.575 5.99167C165.45 5.11735 166.488 4.42391 167.631 3.95098C168.773 3.47804 169.998 3.23487 171.235 3.23535H227.224C228.46 3.23487 229.685 3.47806 230.827 3.95105C231.97 4.42403 233.008 5.11752 233.882 5.99189C234.757 6.86626 235.45 7.90437 235.923 9.04688C236.396 10.1894 236.639 11.4139 236.639 12.6505Z" />
    <path
       id="path24"
       fill="#D16978"
       d="M171.806 9.22094C172.511 9.22094 173.082 8.64966 173.082 7.94495C173.082 7.24023 172.511 6.66895 171.806 6.66895C171.102 6.66895 170.53 7.24023 170.53 7.94495C170.53 8.64966 171.102 9.22094 171.806 9.22094Z" />
    <path
       id="path26"
       fill="#5C5DB1"
       d="M175.634 9.22094C176.339 9.22094 176.91 8.64966 176.91 7.94495C176.91 7.24023 176.339 6.66895 175.634 6.66895C174.93 6.66895 174.358 7.24023 174.358 7.94495C174.358 8.64966 174.93 9.22094 175.634 9.22094Z" />
    <path
       id="path28"
       fill="#F4BC4F"
       d="M179.459 9.22094C180.163 9.22094 180.735 8.64966 180.735 7.94495C180.735 7.24023 180.163 6.66895 179.459 6.66895C178.754 6.66895 178.183 7.24023 178.183 7.94495C178.183 8.64966 178.754 9.22094 179.459 9.22094Z" />
    <path
       id="path40"
       fill="#D16978"
       d="M178.076 17.5479H168.686C167.59 17.5479 166.702 18.4362 166.702 19.5319C166.702 20.6277 167.59 21.516 168.686 21.516H178.076C179.171 21.516 180.06 20.6277 180.06 19.5319C180.06 18.4362 179.171 17.5479 178.076 17.5479Z" />
    <path
       id="path44"
       fill="#5C5DB1"
       d="M181.052 24.0684H171.663C170.567 24.0684 169.678 24.9567 169.678 26.0524C169.678 27.1482 170.567 28.0365 171.663 28.0365H181.052C182.148 28.0365 183.036 27.1482 183.036 26.0524C183.036 24.9567 182.148 24.0684 181.052 24.0684Z" />
    <path
       id="path46"
       fill="#F4BC4F"
       d="M202.659 30.585H193.269C192.174 30.585 191.285 31.4733 191.285 32.569C191.285 33.6648 192.174 34.5531 193.269 34.5531H202.659C203.755 34.5531 204.643 33.6648 204.643 32.569C204.643 31.4733 203.755 30.585 202.659 30.585Z" />
    <path
       id="path48"
       fill="#D16978"
       d="M202.659 24.0684H188.029C186.933 24.0684 186.045 24.9567 186.045 26.0524C186.045 27.1482 186.933 28.0365 188.029 28.0365H202.659C203.755 28.0365 204.643 27.1482 204.643 26.0524C204.643 24.9567 203.755 24.0684 202.659 24.0684Z" />
    <path
       id="path60"
       fill="#D16978"
       d="M185.864 30.585H171.235C170.139 30.585 169.25 31.4733 169.25 32.569C169.25 33.6648 170.139 34.5531 171.235 34.5531H185.864C186.96 34.5531 187.848 33.6648 187.848 32.569C187.848 31.4733 186.96 30.585 185.864 30.585Z" />
    <path
       id="path62"
       fill="#F4BC4F"
       d="M191.44 17.5479H185.798C184.702 17.5479 183.814 18.4362 183.814 19.5319C183.814 20.6277 184.702 21.516 185.798 21.516H191.44C192.536 21.516 193.425 20.6277 193.425 19.5319C193.425 18.4362 192.536 17.5479 191.44 17.5479Z" />
    <path
       id="path66"
       fill="#5C5DB1"
       d="M173.901 37.1045H168.259C167.163 37.1045 166.275 37.9928 166.275 39.0886C166.275 40.1843 167.163 41.0726 168.259 41.0726H173.901C174.997 41.0726 175.885 40.1843 175.885 39.0886C175.885 37.9928 174.997 37.1045 173.901 37.1045Z" />
    <path
       id="path180"
       fill="#525375"
       d="M223.981 25.2407C224.503 25.2407 224.925 24.818 224.925 24.2966C224.925 23.7752 224.503 23.3525 223.981 23.3525C223.46 23.3525 223.037 23.7752 223.037 24.2966C223.037 24.818 223.46 25.2407 223.981 25.2407Z" />
  </g>
  <g
     id="g1009">
    <path
       id="path170"
       stroke-linejoin="round"
       stroke-linecap="round"
       stroke="#525375"
       fill="#D16978"
       d="M290.736 1H239.263C233.594 1 228.998 5.58306 228.998 11.2365V30.0373C228.998 35.6908 233.594 40.2738 239.263 40.2738H290.736C296.405 40.2738 301 35.6908 301 30.0373V11.2365C301 5.58306 296.405 1 290.736 1Z" />
    <path
       id="path174"
       fill="white"
       d="M248.423 29.7995H246.453V11.4833H250.705C251.906 11.3995 253.095 11.7716 254.035 12.5257C254.423 12.8985 254.726 13.3512 254.922 13.8525C255.118 14.3538 255.204 14.8919 255.172 15.4295V20.217C255.208 20.7559 255.126 21.2961 254.932 21.8001C254.738 22.3041 254.437 22.7598 254.05 23.1357C253.103 23.886 251.909 24.2527 250.705 24.1631H248.423V29.7995ZM253.202 20.217V15.4518C253.221 15.1447 253.173 14.8372 253.061 14.5506C252.949 14.2639 252.777 14.005 252.556 13.7914C252.037 13.3648 251.375 13.1519 250.705 13.1958H248.423V22.4953H250.705C252.37 22.4804 253.202 21.721 253.202 20.217Z" />
    <path
       id="path176"
       fill="white"
       d="M261.974 29.7995H259.98V11.4717H261.974V19.667H267.587V11.4717H269.581V29.7995H267.587V21.3434H261.974V29.7995Z" />
    <path
       id="path178"
       fill="white"
       d="M276.787 29.7995H274.817V11.4833H279.069C280.271 11.3995 281.46 11.7716 282.4 12.5257C282.787 12.8985 283.09 13.3512 283.286 13.8525C283.483 14.3538 283.568 14.8919 283.537 15.4295V20.217C283.572 20.7559 283.49 21.2961 283.296 21.8001C283.103 22.3041 282.802 22.7598 282.414 23.1357C281.467 23.886 280.274 24.2527 279.069 24.1631H276.787V29.7995ZM281.567 20.217V15.4518C281.585 15.1447 281.537 14.8372 281.425 14.5506C281.314 14.2639 281.141 14.005 280.92 13.7914C280.401 13.3648 279.739 13.1519 279.069 13.1958H276.787V22.4953H279.069C280.734 22.4804 281.567 21.721 281.567 20.217Z" />
    <path
       id="path182"
       fill="#525375"
       d="M234.506 28.7808C234.991 28.7808 235.384 28.3878 235.384 27.9031C235.384 27.4184 234.991 27.0254 234.506 27.0254C234.022 27.0254 233.629 27.4184 233.629 27.9031C233.629 28.3878 234.022 28.7808 234.506 28.7808Z" />
  </g>
  <path
     d="M223.981 24.2971C226.223 24.0426 227.551 24.5737 228.348 25.1047C229.476 25.8423 229.705 26.709 230.929 27.3801C232.035 27.9403 233.294 28.1241 234.514 27.9038"
     stroke="#525375"
     stroke-miterlimit="10"
     id="path184" />
  <g
     id="g1033">
    <path
       id="path10"
       stroke-linejoin="round"
       stroke-linecap="round"
       stroke="#525375"
       fill="white"
       d="M236.639 63.5283H161.816V98.4708H236.639V63.5283Z" />
    <path
       id="path14"
       stroke-linejoin="round"
       stroke-linecap="round"
       stroke="#525375"
       fill="white"
       d="M236.639 63.5284H161.816C161.816 62.2917 162.06 61.0671 162.533 59.9245C163.006 58.782 163.7 57.7439 164.575 56.8696C165.45 55.9953 166.488 55.3018 167.631 54.8289C168.773 54.356 169.998 54.1128 171.235 54.1133H227.224C228.46 54.1128 229.685 54.356 230.827 54.829C231.97 55.302 233.008 55.9955 233.882 56.8698C234.757 57.7442 235.45 58.7823 235.923 59.9248C236.396 61.0673 236.639 62.2919 236.639 63.5284Z" />
    <path
       id="path30"
       stroke-linejoin="round"
       stroke-linecap="round"
       stroke="#525375"
       fill="white"
       d="M236.639 63.5284H161.816C161.816 62.2917 162.06 61.0671 162.533 59.9245C163.006 58.782 163.7 57.7439 164.575 56.8696C165.45 55.9953 166.488 55.3018 167.631 54.8289C168.773 54.356 169.998 54.1128 171.235 54.1133H227.224C228.46 54.1128 229.685 54.356 230.827 54.829C231.97 55.302 233.008 55.9955 233.882 56.8698C234.757 57.7442 235.45 58.7823 235.923 59.9248C236.396 61.0673 236.639 62.2919 236.639 63.5284Z" />
    <path
       id="path32"
       fill="#D16978"
       d="M171.806 60.095C172.511 60.095 173.082 59.5237 173.082 58.819C173.082 58.1143 172.511 57.543 171.806 57.543C171.102 57.543 170.53 58.1143 170.53 58.819C170.53 59.5237 171.102 60.095 171.806 60.095Z" />
    <path
       id="path34"
       fill="#5C5DB1"
       d="M175.634 60.095C176.339 60.095 176.91 59.5237 176.91 58.819C176.91 58.1143 176.339 57.543 175.634 57.543C174.93 57.543 174.358 58.1143 174.358 58.819C174.358 59.5237 174.93 60.095 175.634 60.095Z" />
    <path
       id="path36"
       fill="#F4BC4F"
       d="M179.459 60.095C180.163 60.095 180.735 59.5237 180.735 58.819C180.735 58.1143 180.163 57.543 179.459 57.543C178.754 57.543 178.183 58.1143 178.183 58.819C178.183 59.5237 178.754 60.095 179.459 60.095Z" />
    <path
       id="path42"
       fill="#D16978"
       d="M177.117 68.1416H167.727C166.632 68.1416 165.743 69.0299 165.743 70.1257C165.743 71.2214 166.632 72.1097 167.727 72.1097H177.117C178.213 72.1097 179.101 71.2214 179.101 70.1257C179.101 69.0299 178.213 68.1416 177.117 68.1416Z" />
    <path
       id="path50"
       fill="#D16978"
       d="M185.499 80.3301H170.87C169.774 80.3301 168.885 81.2184 168.885 82.3141C168.885 83.4099 169.774 84.2982 170.87 84.2982H185.499C186.595 84.2982 187.483 83.4099 187.483 82.3141C187.483 81.2184 186.595 80.3301 185.499 80.3301Z" />
    <path
       id="path52"
       fill="#5C5DB1"
       d="M197.245 80.3301H191.916C190.82 80.3301 189.932 81.2184 189.932 82.3141C189.932 83.4099 190.82 84.2982 191.916 84.2982H197.245C198.341 84.2982 199.229 83.4099 199.229 82.3141C199.229 81.2184 198.341 80.3301 197.245 80.3301Z" />
    <path
       id="path54"
       fill="#F4BC4F"
       d="M209.253 80.3301H203.924C202.828 80.3301 201.94 81.2184 201.94 82.3141C201.94 83.4099 202.828 84.2982 203.924 84.2982H209.253C210.349 84.2982 211.237 83.4099 211.237 82.3141C211.237 81.2184 210.349 80.3301 209.253 80.3301Z" />
    <path
       id="path56"
       fill="#5C5DB1"
       d="M174.369 86.4219H167.727C166.632 86.4219 165.743 87.3102 165.743 88.4059C165.743 89.5017 166.632 90.39 167.727 90.39H174.369C175.465 90.39 176.353 89.5017 176.353 88.4059C176.353 87.3102 175.465 86.4219 174.369 86.4219Z" />
    <path
       id="path58"
       fill="#D16978"
       d="M195.501 74.2334H183.353C182.257 74.2334 181.369 75.1217 181.369 76.2175C181.369 77.3132 182.257 78.2015 183.353 78.2015H195.501C196.597 78.2015 197.485 77.3132 197.485 76.2175C197.485 75.1217 196.597 74.2334 195.501 74.2334Z" />
    <path
       id="path64"
       fill="#5C5DB1"
       d="M176.199 74.2334H170.556C169.46 74.2334 168.572 75.1217 168.572 76.2175C168.572 77.3132 169.46 78.2015 170.556 78.2015H176.199C177.294 78.2015 178.183 77.3132 178.183 76.2175C178.183 75.1217 177.294 74.2334 176.199 74.2334Z" />
    <path
       id="path198"
       fill="#525375"
       d="M222.061 86.441C222.546 86.441 222.939 86.048 222.939 85.5633C222.939 85.0785 222.546 84.6855 222.061 84.6855C221.576 84.6855 221.183 85.0785 221.183 85.5633C221.183 86.048 221.576 86.441 222.061 86.441Z" />
  </g>
  <g
     id="g1017">
    <path
       id="path186"
       stroke-linejoin="round"
       stroke-linecap="round"
       stroke="#525375"
       fill="#5C5DB1"
       d="M276.309 67.6504H236.236C231.823 67.6504 228.245 71.2304 228.245 75.6465V124.929C228.245 129.346 231.823 132.926 236.236 132.926H276.309C280.723 132.926 284.301 129.346 284.301 124.929V75.6465C284.301 71.2304 280.723 67.6504 276.309 67.6504Z" />
    <path
       id="path188"
       fill="#D16978"
       d="M233.777 75.3952C234.999 75.3952 235.99 74.4045 235.99 73.1824C235.99 71.9604 234.999 70.9697 233.777 70.9697C232.555 70.9697 231.564 71.9604 231.564 73.1824C231.564 74.4045 232.555 75.3952 233.777 75.3952Z" />
    <path
       id="path190"
       fill="white"
       d="M239.309 100.769V99.5003L247.413 94.5732L248.16 96.097L241.429 100.105L248.16 104.113L247.413 105.637L239.309 100.769Z" />
    <path
       id="path192"
       fill="white"
       d="M254.289 111.906H252.585L258.257 87.9346H259.961L254.289 111.906Z" />
    <path
       id="path194"
       fill="white"
       d="M273.606 99.4575V100.753L265.19 105.637L264.386 104.088L271.372 100.09L264.386 96.0929L265.166 94.5732L273.606 99.4575Z" />
    <path
       id="path196"
       fill="#525375"
       d="M232.586 82.8999C233.107 82.8999 233.53 82.4772 233.53 81.9558C233.53 81.4344 233.107 81.0117 232.586 81.0117C232.065 81.0117 231.642 81.4344 231.642 81.9558C231.642 82.4772 232.065 82.8999 232.586 82.8999Z" />
  </g>
  <path
     d="M232.586 81.956C230.344 81.7015 229.016 82.2363 228.22 82.7636C227.091 83.5012 226.862 84.3678 225.638 85.039C224.533 85.601 223.273 85.785 222.053 85.5627"
     stroke="#525375"
     stroke-miterlimit="10"
     id="path200" />
</svg>
