<svg width="408" height="183" version="1.1" viewBox="0 0 408 183" xmlns="http://www.w3.org/2000/svg">
 <path d="m64 180c1.4 0.49 3.4 0.91 5.2 0 1.9-1.1 1.8-2.8 3.5-3.5 2.4-0.98 4.1 1.8 6.3 0.91 2.8-1.1 2.5-6.7 3.7-6.7 1.5-0.07 1.9 7.9 4.4 8.4 1.4 0.28 3-2 4.2-4 7.6-55 15-110 23-166 0.35-7.3-0.35-9.5-1.3-9.8-2-0.49-4.8 7.4-8.1 7-2.3-0.35-2.8-4.6-4.7-4.5-2.5 0.07-3.7 7.6-5 7.4-1.1-0.14-0.63-6.4-2-6.7-0.77-0.14-1.8 1.5-2.5 2.9-8.8 58-18 116-26 174z" fill="#F4BC4F"/>
 <path d="m6.5 72c-3.7 0.35-5 1.5-5.5 2.5-1.1 2.2 1.8 4.5 2.3 8.8 0.56 4.6-1.8 7.4-1.9 8.8-0.28 4.6 20 12 96 24 0.35-0.91 0.63-2.2 0.35-3.6-0.77-3.4-4.5-4.4-4.2-5.6 0.42-2 11-0.21 12-2.6 0.77-2-5.8-6.5-9.5-8.6-17-9.8-59-18-89-24z" fill="#F4BC4F"/>
 <path d="m47 12c-0.49-5.9-1.8-7.6-3-7.9-3.3-0.91-7.3 8-11 7-2.7-0.77-2.4-6.4-4.6-6.8-1.3-0.28-3.4 1.3-6.9 8.3-2.2 30-4.6 60-6.8 89 0.42 13 1.8 17 3.3 17 3.9 0.56 11-25 13-24 1.1 0.28-0.14 5.8 2.7 7.5 1.3 0.77 3 0.42 4.3 0 2.8-30 5.7-61 8.5-91z" fill="#F4BC4F"/>
 <path d="m359 168c1.3-0.56 3.2-1.5 5.1-3.1 2.7-2.1 3.2-3.3 5-3.7 2.1-0.49 5 0.28 6.5 2.2 2.2 2.7 0.42 6.1 2.4 7.8 1.3 1 3.2 0.77 4.4 0.42 11-86 17-117 21-127 0.98-2.8 6.9-18 3.1-21-0.49-0.28-0.98-0.35-1.3-0.35-4.6 1.1-6.2 0.35-6.8-0.42-0.98-1.3 0.21-2.7-0.7-4.9-1.3-3.1-5.3-3.9-5.5-4-3.8-0.77-8 1.5-11 5.7-7.4 50-15 99-22 149z" fill="#F4BC4F"/>
 <path d="m308 84c-1 1.2-2 2.7-1.5 4.1 0.98 3.6 10 3.2 10 5 0.07 1.3-5.1 2.6-5.9 2.8-3.4 0.84-4.5 0.42-5.9 0.91-2.1 0.84-4.4 3.7-5.1 13 32 7 64 14 96 21 5.2-4.3 6-7.4 5.6-9.4-0.77-4-6.6-5.2-6.5-8.4 0.07-2.3 3.1-4.1 6-5.5-31-7.8-62-16-93-23z" fill="#F4BC4F"/>
 <path d="m339 26c0.56-5.4 0.21-6.7-0.28-6.7-1.3-0.35-4.1 7.9-6.4 7.6-2.2-0.35-1.8-7.4-5-8.1-1.1-0.28-2.4 0.28-3.2 1.1-1.5 2.1 1.3 5.7 0.14 6.7-1.1 1.1-4.8-2.3-6.4-2-4.4 0.77-3.2 38 1.2 94 0.84 0.77 5.2 4.8 11 4.1 4.5-0.49 7.4-3.1 8.5-4.1 0.07-31 0.07-62 0.07-92z" fill="#F4BC4F"/>
 <path d="m178 20c8.1-3.8 9.2-4.7 14-6.3 4.8-1.7 9.9-2.9 15-3.6 2.7-0.35 5.3-0.49 8.1-0.49 2.7 0 5.5 0.14 8.2 0.49 5.5 0.7 11 2.2 16 4.6 5.2 2.3 10 5.5 14 9.3 2.1 1.9 4 3.9 5.7 6 1.8 2.1 3.3 4.3 4.7 6.5 5.6 9 8.8 18 11 27 0.56 2.2 0.98 4.5 1.4 6.5 0.49 2.3 0.91 4.7 1.2 7.1 0.63 4.7 0.98 9.4 1 14 0.14 9.3-0.77 19-3 28s-5.8 19-11 27c-2.7 4.2-5.8 8.2-9.4 12-3.6 3.6-7.5 6.9-12 9.7s-8.5 5.1-13 7c-4.5 1.9-9 3.4-14 4.6-4.7 1.1-9.4 1.9-14 2.3-4.8 0.42-9.7 0.42-15-0.14-4.9-0.49-9.9-1.5-15-3.2-4.9-1.7-9.7-4-14-7.1-4.4-3.1-8.3-6.9-12-11-3.2-4.2-5.7-8.9-7.6-14-3.8-9.6-4.9-20-3.9-30 0.49-5 1.5-9.9 3.2-15 1.6-4.8 3.8-9.3 6.7-14 4.1-6.3 8.3-10 9.5-11 6.9-6.3 7.8-4.1 15-11 1.5-1.4 3.6-3.4 4.7-2.8 1.8 0.91-0.35 7.1 1.3 7.8 1.4 0.63 3.4-3.8 7.1-3.7 1.3 0 3 0.56 3.7 1.9 1.2 2.2-1.7 4.9-0.63 6.5 1 1.5 4.6 0.14 5 0.91 0.84 1.8-20 11-27 23-2.5 4.2-4 8.8-4 8.8-0.98 3.1-1.5 6.4-1.8 9.7-0.21 3.3-0.07 6.6 0.42 9.8 0.49 3.2 1.4 6.3 2.7 9.2 1.3 2.9 2.8 5.5 4.7 7.8 1.8 2.3 4.1 4.2 6.4 5.8 2.4 1.6 5.2 2.9 8.2 3.8 2.9 0.91 6.2 1.5 9.5 1.8 6.6 0.49 14-0.35 20-2.2 6.7-1.9 13-4.7 18-8.5 5.3-3.7 9.7-8.5 13-14 6.8-11 9.5-26 8.8-40-0.14-3.6-0.49-7.2-1-11-0.28-1.8-0.63-3.4-0.98-5.2-0.49-2-0.91-3.8-1.3-5.6-0.91-3.5-2-6.9-3.3-9.9-1.3-3.1-2.8-6-4.5-8.4-0.84-1.3-1.8-2.4-2.7-3.4s-1.9-2-2.9-2.9c-2-1.7-4.2-3-6.6-4-4.8-2-10-2.5-16-1.6s-12 3.2-17 6.6c-1.4 0.84-2.7 1.8-4.1 2.7-2.2 1.5-3.3 2.5-3.9 3-4.3 3.2-14 1.8-15-1.5-1.5-4.5 13-12 12-14-0.98-1.5-22 9.9-24 7.4-0.56-0.84 2-2.5 1.9-5.6-0.28-3.8-4.6-4.6-4.7-7.1-0.35-3.2 6.2-5.2 21-12z" fill="#F4BC4F"/>
</svg>
