<svg width="178" height="139" viewBox="0 0 178 139" fill="none" xmlns="http://www.w3.org/2000/svg">
<path d="M108 15H1V138H108V15Z" fill="white" stroke="#525375" stroke-linecap="round" stroke-linejoin="round"/>
<path d="M108 15H1C1 7.25902 7.01183 1.00036 14.4475 1.00036H94.4998C101.935 0.945458 107.947 7.20412 108 15Z" fill="white" stroke="#525375" stroke-linecap="round" stroke-linejoin="round"/>
<path d="M15.1142 9.85824C16.1365 9.85824 16.9652 9.02952 16.9652 8.00725C16.9652 6.98497 16.1365 6.15625 15.1142 6.15625C14.0919 6.15625 13.2632 6.98497 13.2632 8.00725C13.2632 9.02952 14.0919 9.85824 15.1142 9.85824Z" fill="#D16978"/>
<path d="M20.5612 9.85824C21.5835 9.85824 22.4122 9.02952 22.4122 8.00725C22.4122 6.98497 21.5835 6.15625 20.5612 6.15625C19.5389 6.15625 18.7102 6.98497 18.7102 8.00725C18.7102 9.02952 19.5389 9.85824 20.5612 9.85824Z" fill="#5C5DB1"/>
<path d="M26.0612 9.85824C27.0835 9.85824 27.9122 9.02952 27.9122 8.00725C27.9122 6.98497 27.0835 6.15625 26.0612 6.15625C25.0389 6.15625 24.2102 6.98497 24.2102 8.00725C24.2102 9.02952 25.0389 9.85824 26.0612 9.85824Z" fill="#F4BC4F"/>
<path d="M52.0812 91.6211H67.3123C69.1104 91.6211 70.5383 92.8903 70.5383 94.4769C70.5383 96.0635 69.1104 97.3327 67.3123 97.3327H52.0812C50.2831 97.3327 48.8552 96.0635 48.8552 94.4769C48.8552 92.8903 50.2831 91.6211 52.0812 91.6211Z" fill="#5C5DB1"/>
<path d="M75.6681 91.6211H90.8992C92.6973 91.6211 94.1252 92.8903 94.1252 94.4769C94.1252 96.0635 92.6973 97.3327 90.8992 97.3327H75.6681C73.87 97.3327 72.4421 96.0635 72.4421 94.4769C72.495 92.8903 73.9229 91.6211 75.6681 91.6211Z" fill="#5C5DB1"/>
<path d="M125.322 7.3457H150.614C157.588 7.3457 163.353 13.0205 163.353 19.9978V43.3484C163.353 50.3256 157.681 56.0005 150.614 56.0005H125.322C118.348 56.0005 112.583 50.3256 112.583 43.3484V19.9978C112.676 13.0205 118.348 7.3457 125.322 7.3457Z" fill="#5C5DB1" stroke="#525375" stroke-miterlimit="10" stroke-linejoin="round"/>
<path d="M128.401 18.4531H147.006C149.317 18.4531 151.189 20.3246 151.189 22.6365V41.2414C151.189 43.5533 149.317 45.4248 147.006 45.4248H128.401C126.089 45.4248 124.217 43.5533 124.217 41.2414V22.6365C124.217 20.3246 126.089 18.4531 128.401 18.4531Z" fill="white" stroke="#525375" stroke-miterlimit="10" stroke-linejoin="round"/>
<path d="M147.487 36.3504C147.487 38.7998 145.504 40.1359 142.937 40.1359C141.77 40.1359 140.721 39.9132 139.671 39.4679C139.554 39.4679 139.554 39.3565 139.554 39.2452V37.0184C139.554 36.9071 139.671 36.7958 139.787 36.9071C140.721 37.4638 141.887 37.7978 142.937 37.7978C144.22 37.7978 144.687 37.3524 144.687 36.5731C144.687 35.7937 144.337 35.571 142.704 34.7917C140.487 33.7896 139.554 32.6762 139.554 31.0062C139.554 29.0021 141.187 27.4434 143.987 27.4434C144.92 27.4434 145.97 27.5547 146.787 27.8887C146.904 28.0001 146.903 28.1114 146.903 28.2227V30.3382C146.903 30.4495 146.787 30.5608 146.67 30.4495C145.854 30.0041 144.92 29.7815 143.87 29.7815C142.587 29.7815 142.237 30.4495 142.237 30.8948C142.237 31.3402 142.47 31.7855 144.22 32.6762C146.787 33.6783 147.487 34.7917 147.487 36.3504Z" fill="#5C5DB1" stroke="#525375" stroke-miterlimit="10" stroke-linejoin="round"/>
<path d="M132.644 23.2119C131.209 23.2119 129.773 23.2119 128.779 23.324C128.669 23.324 128.448 23.4361 128.448 23.5481V39.9112C128.448 40.0232 128.448 40.1353 128.558 40.1353H130.877C130.988 40.1353 131.098 40.0232 131.098 39.9112V34.0832H132.313C135.736 34.0832 138.496 32.4021 138.496 28.5915C138.386 25.5655 136.73 23.2119 132.644 23.2119ZM132.313 31.6176C131.871 31.6176 131.54 31.6176 131.098 31.6176V25.7897C131.319 25.7897 131.981 25.7897 132.534 25.7897C134.521 25.7897 135.736 26.7983 135.736 28.7036C135.736 31.0572 134.079 31.6176 132.313 31.6176Z" fill="#5C5DB1" stroke="#525375" stroke-miterlimit="10" stroke-linejoin="round"/>
<path d="M51.7111 103.042H91.3224C92.9089 103.042 94.1782 104.311 94.1782 105.898C94.1782 107.484 92.9089 108.754 91.3224 108.754H51.7111C50.1245 108.754 48.8552 107.484 48.8552 105.898C48.8552 104.311 50.1245 103.042 51.7111 103.042Z" fill="#D16978"/>
<path d="M165.627 79.667H121.679C116.654 79.667 112.582 83.7392 112.582 88.7633V113.884C112.582 118.908 116.654 122.98 121.679 122.98H165.627C170.651 122.98 174.723 118.908 174.723 113.884V88.7633C174.723 83.7392 170.651 79.667 165.627 79.667Z" fill="#525375"/>
<path d="M174.035 88.7635V113.884C174.035 118.538 170.227 122.346 165.573 122.346H121.626C116.972 122.346 113.164 118.538 113.164 113.884V88.7635C113.164 84.1095 116.972 80.3018 121.626 80.3018H165.573C170.28 80.3018 174.035 84.0566 174.035 88.7635Z" fill="white"/>
<path d="M174.353 88.7634V96.3789H112.899V88.7634C112.899 83.8979 116.813 79.9844 121.678 79.9844H165.626C170.439 79.9844 174.353 83.8979 174.353 88.7634Z" fill="white" stroke="#525375" stroke-linecap="round" stroke-linejoin="round"/>
<path d="M118.823 88.0759C120.02 88.0759 120.991 87.1051 120.991 85.9076C120.991 84.71 120.02 83.7393 118.823 83.7393C117.625 83.7393 116.654 84.71 116.654 85.9076C116.654 87.1051 117.625 88.0759 118.823 88.0759Z" fill="#D16978"/>
<path d="M120.905 102.012H130.384C132.003 102.012 133.313 103.322 133.313 104.94V114.42C133.313 116.038 132.003 117.349 130.384 117.349H120.905C119.286 117.349 117.976 116.038 117.976 114.42V104.94C117.976 103.322 119.286 102.012 120.905 102.012Z" fill="#D16978" stroke="#525375" stroke-miterlimit="10" stroke-linejoin="round"/>
<path d="M138.886 102.012H148.366C149.984 102.012 151.294 103.322 151.294 104.94V114.42C151.294 116.038 149.984 117.349 148.366 117.349H138.886C137.268 117.349 135.958 116.038 135.958 114.42V104.94C135.958 103.322 137.268 102.012 138.886 102.012Z" fill="#5C5DB1" stroke="#525375" stroke-miterlimit="10" stroke-linejoin="round"/>
<path d="M156.868 102.012H166.347C167.966 102.012 169.276 103.322 169.276 104.94V114.42C169.276 116.038 167.966 117.349 166.347 117.349H156.868C155.249 117.349 153.939 116.038 153.939 114.42V104.94C153.939 103.322 155.249 102.012 156.868 102.012Z" fill="#F4BC4F" stroke="#525375" stroke-miterlimit="10" stroke-linejoin="round"/>
<path d="M159.28 80.872C158.563 81.5033 157.509 81.3397 156.968 80.7251L156.427 80.1105L146.491 88.8587C145.877 89.3998 144.992 89.6336 144.131 89.4823L143.516 90.0234C142.902 90.5645 142.041 90.4131 141.5 89.7986C140.959 89.184 141.02 88.2209 141.532 87.77L142.147 87.2288C142.106 86.3559 142.347 85.5977 143.064 84.9664L153 76.2182L152.369 75.5012C151.737 74.7842 151.901 73.7309 152.516 73.1898C153.233 72.5585 154.286 72.7221 154.827 73.3367L168.757 61.0712C170.191 59.8086 172.31 59.9432 173.573 61.3772C174.835 62.8113 174.701 64.93 173.267 66.1927L159.336 78.4582L159.426 78.5606C159.968 79.1752 159.906 80.1382 159.28 80.872Z" fill="white" stroke="#525375" stroke-linecap="round" stroke-linejoin="round"/>
<path d="M51.7111 114.413H91.3224C92.9089 114.413 94.1782 115.682 94.1782 117.269C94.1782 118.855 92.9089 120.125 91.3224 120.125H51.7111C50.1245 120.125 48.8552 118.855 48.8552 117.269C48.8552 115.682 50.1245 114.413 51.7111 114.413Z" fill="#D16978"/>
<path d="M102.851 33.8956C103.611 33.8956 104.226 33.2799 104.226 32.5205C104.226 31.7611 103.611 31.1455 102.851 31.1455C102.092 31.1455 101.476 31.7611 101.476 32.5205C101.476 33.2799 102.092 33.8956 102.851 33.8956Z" fill="#525375"/>
<path d="M117.977 38.9194C118.678 38.9194 119.246 38.3511 119.246 37.6501C119.246 36.9491 118.678 36.3809 117.977 36.3809C117.276 36.3809 116.707 36.9491 116.707 37.6501C116.707 38.3511 117.276 38.9194 117.977 38.9194Z" fill="#525375"/>
<path d="M102.851 32.5188C106.077 32.1486 107.981 32.9419 109.092 33.6823C110.731 34.74 111.048 36.0092 112.794 36.9612C114.38 37.7545 116.178 38.0189 117.923 37.7016" stroke="#525375" stroke-miterlimit="10" stroke-linejoin="round"/>
<path d="M119.352 95.109C120.257 95.109 120.991 94.375 120.991 93.4695C120.991 92.5641 120.257 91.8301 119.352 91.8301C118.446 91.8301 117.712 92.5641 117.712 93.4695C117.712 94.375 118.446 95.109 119.352 95.109Z" fill="#525375"/>
<path d="M101 101.296C101.847 101.296 102.534 100.609 102.534 99.7622C102.534 98.9152 101.847 98.2285 101 98.2285C100.153 98.2285 99.4666 98.9152 99.4666 99.7622C99.4666 100.609 100.153 101.296 101 101.296Z" fill="#525375"/>
<path d="M119.351 93.4691C115.438 93.046 113.111 93.945 111.736 94.8441C109.779 96.1133 109.356 97.647 107.24 98.8105C105.337 99.7624 103.115 100.133 101 99.7096" stroke="#525375" stroke-miterlimit="10" stroke-linejoin="round"/>
<path d="M24.7394 122.612C33.2973 122.612 40.2349 115.674 40.2349 107.117C40.2349 98.5587 33.2973 91.6211 24.7394 91.6211C16.1815 91.6211 9.2439 98.5587 9.2439 107.117C9.2439 115.674 16.1815 122.612 24.7394 122.612Z" fill="#F4BC4F" stroke="#525375" stroke-miterlimit="10" stroke-linejoin="round"/>
<path d="M13.792 96.168L24.7393 107.115L35.7395 118.063" stroke="#525375" stroke-miterlimit="10" stroke-linejoin="round"/>
<path d="M35.7395 96.168L24.7393 107.115L13.792 118.063" stroke="#525375" stroke-miterlimit="10" stroke-linejoin="round"/>
<path d="M44.8359 25.8564H11.042V59.6503H44.8359V25.8564Z" fill="#5C5DB1"/>
<path d="M56.3119 45.4238L39.2827 74.8811H73.341L56.3119 45.4238Z" fill="#D16978"/>
<path d="M76.2498 55.8161C86.1221 55.8161 94.1252 47.813 94.1252 37.9408C94.1252 28.0685 86.1221 20.0654 76.2498 20.0654C66.3776 20.0654 58.3745 28.0685 58.3745 37.9408C58.3745 47.813 66.3776 55.8161 76.2498 55.8161Z" fill="#F4BC4F"/>
</svg>
