<svg width="139" height="139" viewBox="0 0 139 139" fill="none" xmlns="http://www.w3.org/2000/svg">
<path d="M126.945 58.0336C120.613 26.3074 89.7598 5.72186 58.0336 12.0546C26.3073 18.3873 5.7218 49.2401 12.0545 80.9664C18.3872 112.693 49.2401 133.278 80.9663 126.945C112.693 120.613 133.278 89.7599 126.945 58.0336Z" stroke="white"/>
<path d="M60.9482 49.4373C62.5594 48.5372 64.5951 49.1137 65.4951 50.7248C66.3951 52.336 65.8187 54.3717 64.2075 55.2717C62.5964 56.1717 60.5607 55.5953 59.6606 53.9841C58.7606 52.373 59.3371 50.3373 60.9482 49.4373Z" fill="white"/>
<path d="M87.1841 33.9246C88.7952 33.0245 90.8309 33.601 91.7309 35.2121C92.631 36.8233 92.0545 38.859 90.4433 39.759C88.8322 40.6591 86.7965 40.0826 85.8965 38.4714C84.9964 36.8603 85.5729 34.8246 87.1841 33.9246Z" fill="white"/>
<path d="M65.7345 69.517C71.6129 76.3436 82.605 77.8793 91.8962 72.689C101.187 67.4986 105.643 57.3334 102.912 48.7485" stroke="white" stroke-linecap="round"/>
</svg>
