<svg width="125" height="132" viewBox="0 0 125 132" fill="none" xmlns="http://www.w3.org/2000/svg">
<g clip-path="url(#clip0)">
<path d="M45.2897 131.175H118.033C121.443 131.175 124.153 128.464 124.153 125.054V37.5353L109.639 22.6719H45.2897C41.8798 22.6719 39.1694 25.3823 39.1694 28.7921V125.054C39.1694 128.464 41.8798 131.175 45.2897 131.175Z" fill="#F4BC4F" stroke="#525375" stroke-linecap="round" stroke-linejoin="round"/>
<path d="M113.312 39.4588H124.153V37.5353L109.639 22.6719H107.191V33.3385C107.191 36.7484 109.902 39.4588 113.312 39.4588Z" fill="#F4BC4F" stroke="#525375" stroke-linecap="round" stroke-linejoin="round"/>
<path d="M25.8797 120.683H106.055C109.727 120.683 112.787 117.711 112.787 113.951V17.5138L96.6994 1.16406H25.8797C22.2076 1.16406 19.1475 4.13674 19.1475 7.8963V113.951C19.1475 117.623 22.1201 120.683 25.8797 120.683Z" fill="white" stroke="#525375" stroke-linecap="round" stroke-linejoin="round"/>
<path d="M100.808 19.6996H112.787V17.5138L96.6992 1.16406H93.9888V12.9673C94.0762 16.6395 97.0489 19.6996 100.808 19.6996Z" fill="white" stroke="#525375" stroke-linecap="round" stroke-linejoin="round"/>
<path d="M37.6831 24.7705H46.6011C48.1749 24.7705 49.3989 25.9071 49.3989 27.306C49.3989 28.7049 48.1749 29.8415 46.6011 29.8415H37.6831C36.1093 29.8415 34.8853 28.7049 34.8853 27.306C34.8853 25.9071 36.1093 24.7705 37.6831 24.7705Z" fill="#D16978"/>
<path d="M53.9453 24.7705H80.4371C82.0108 24.7705 83.2349 25.9071 83.2349 27.306C83.2349 28.7049 82.0108 29.8415 80.4371 29.8415H53.9453C52.3715 29.8415 51.1475 28.7049 51.1475 27.306C51.2349 25.9071 52.4589 24.7705 53.9453 24.7705Z" fill="#D16978"/>
<path d="M37.3334 34.8252H80.6995C82.0984 34.8252 83.235 35.9618 83.235 37.3607C83.235 38.7596 82.0984 39.8962 80.6995 39.8962H37.3334C35.9345 39.8962 34.7979 38.7596 34.7979 37.3607C34.7979 35.8744 35.9345 34.8252 37.3334 34.8252Z" fill="#D16978"/>
<path d="M37.3334 44.7051H80.6995C82.0984 44.7051 83.235 45.8417 83.235 47.2406C83.235 48.6395 82.0984 49.7761 80.6995 49.7761H37.3334C35.9345 49.7761 34.7979 48.6395 34.7979 47.2406C34.7979 45.8417 35.9345 44.7051 37.3334 44.7051Z" fill="#5C5DB1"/>
<path d="M4.28401 97.8635H77.9889C80.0873 97.8635 81.8359 96.1148 81.8359 94.0165V67.6995C81.8359 65.6012 80.0873 63.8525 77.9889 63.8525H4.28401C2.18565 63.8525 0.437012 65.6012 0.437012 67.6995V94.0165C0.437012 96.2023 2.18565 97.8635 4.28401 97.8635Z" fill="#D16978" stroke="#525375" stroke-linecap="round" stroke-linejoin="round"/>
<path d="M17.5737 90.9558V71.1963H24.306C25.7923 71.1963 27.1038 71.4586 28.0655 71.9832C29.0273 72.5078 29.8142 73.2072 30.2513 74.0815C30.7759 74.9559 30.9508 75.9176 30.9508 76.9668C30.9508 78.016 30.6885 78.9777 30.2513 79.852C29.8142 80.7263 29.1147 81.3384 28.0655 81.863C27.1038 82.3875 25.8797 82.6498 24.3934 82.6498H21.1584V90.8684H17.5737V90.9558ZM21.1584 79.6772H24.1311C25.1803 79.6772 25.8797 79.4149 26.4043 78.8903C26.9289 78.3657 27.1912 77.7537 27.1912 76.9668C27.1912 76.1799 26.9289 75.5679 26.4043 75.0433C25.8797 74.5187 25.0929 74.2564 24.1311 74.2564H21.1584V79.6772ZM34.5355 90.9558V71.1963H39.6065C41.3551 71.1963 42.6666 71.4586 43.6284 71.8957C44.5901 72.3329 45.377 73.0324 46.0765 73.9067C46.6885 74.781 47.2131 75.8302 47.5628 77.0542C47.9125 78.2783 48.1748 79.6772 48.1748 81.1635C48.1748 83.1744 47.8251 84.8356 47.2131 86.322C46.601 87.8083 45.6393 88.8575 44.3278 89.6444C43.0163 90.4313 41.3551 90.781 39.2568 90.781H34.5355V90.9558ZM38.0327 88.158H39.1694C40.4808 88.158 41.6174 87.8957 42.4043 87.2837C43.1912 86.6717 43.8032 85.8848 44.153 84.9231C44.5027 83.8739 44.6775 82.6498 44.6775 81.2509C44.6775 79.7646 44.5027 78.5406 44.2404 77.4914C43.9781 76.4422 43.4535 75.5679 42.6666 74.9559C41.8797 74.3438 40.918 74.0815 39.6065 74.0815H38.1202V88.158H38.0327ZM52.459 90.9558V71.1963H64.6994V74.0815H55.6065V78.8903H62.9508V81.7755H55.6065V90.9558H52.459Z" fill="white"/>
</g>
<defs>
<clipPath id="clip0">
<rect width="124.59" height="130.885" fill="white" transform="translate(0 0.726562)"/>
</clipPath>
</defs>
</svg>
