<svg width="80" height="80" viewBox="0 0 80 80" fill="none" xmlns="http://www.w3.org/2000/svg">
<path d="M10.9969 2H69.0031C73.9751 2 78 6.02491 78 10.9969V69.0031C78 73.9751 73.9751 78 69.0031 78H10.9969C6.02493 78 2 73.9751 2 69.0031V10.9969C2 6.02491 6.02493 2 10.9969 2Z" fill="#D16978" stroke="#525375" stroke-width="2.23529" stroke-miterlimit="10" stroke-linejoin="round"/>
<path d="M33.252 60.4782C37.0402 60.4782 40.1181 57.4003 40.1181 53.6121V46.7461H33.252C29.4639 46.9829 26.6227 50.2975 26.8595 53.8489C27.0962 57.6371 29.7006 60.2414 33.252 60.4782Z" fill="white" stroke="#525375" stroke-width="2.23529" stroke-miterlimit="10" stroke-linejoin="round"/>
<path d="M26.3848 40.116C26.3848 36.3279 29.4627 33.25 33.2508 33.25H40.1169V46.9821H33.2508C29.4627 46.9821 26.3848 43.9042 26.3848 40.116Z" fill="white" stroke="#525375" stroke-width="2.23529" stroke-miterlimit="10" stroke-linejoin="round"/>
<path d="M26.3848 26.3836C26.3848 22.5954 29.4627 19.5176 33.2508 19.5176H40.1169V33.2497H33.2508C29.4627 33.2497 26.3848 30.1718 26.3848 26.3836Z" fill="white" stroke="#525375" stroke-width="2.23529" stroke-miterlimit="10" stroke-linejoin="round"/>
<path d="M40.1196 19.5157H46.9857C50.7738 19.279 54.0885 22.1201 54.0885 25.9083C54.0885 29.6964 51.4841 33.0111 47.6959 33.0111C47.4592 33.0111 47.2224 33.0111 46.9857 33.0111H40.1196V19.5157Z" fill="white" stroke="#525375" stroke-width="2.23529" stroke-miterlimit="10" stroke-linejoin="round"/>
<path d="M53.6115 40.116C53.6115 43.9042 50.5336 46.9821 46.7455 46.9821C42.9573 46.9821 39.8794 43.9042 39.8794 40.116C39.8794 36.3279 42.9573 33.25 46.7455 33.25C50.5336 33.25 53.6115 36.3279 53.6115 40.116Z" fill="white" stroke="#525375" stroke-width="2.23529" stroke-miterlimit="10" stroke-linejoin="round"/>
</svg>
