<svg width="80" height="80" viewBox="0 0 80 80" fill="none" xmlns="http://www.w3.org/2000/svg">
<path d="M10.9969 2H69.0031C73.9751 2 78 6.02489 78 10.9969V69.0031C78 73.9751 73.9751 78 69.0031 78H10.9969C6.02493 78 2 73.9751 2 69.0031V10.9969C2 5.78813 6.02493 2 10.9969 2Z" fill="#5C5DB1" stroke="#525375" stroke-width="2.23529" stroke-miterlimit="10" stroke-linejoin="round"/>
<path d="M57.8743 28.9902C49.5877 28.9902 44.8525 36.3298 44.8525 45.5634C44.8525 53.8501 48.6407 61.4264 58.8214 61.4264C61.4257 61.4264 64.0301 60.9529 66.6345 60.0058C66.8712 59.7691 67.108 59.5323 67.108 59.2955V54.5603C67.108 54.3236 66.8712 54.0868 66.6345 54.3236C64.7404 55.2706 62.6095 55.5074 60.4787 55.5074C54.7964 55.5074 52.1921 51.956 52.1921 46.984H62.3728C64.5036 46.984 66.6344 46.984 68.7653 46.7472C69.002 46.7472 69.2388 46.5105 69.2388 46.2737C69.4756 44.8532 69.4756 43.4326 69.4756 42.2488C69.2388 35.8563 66.3977 28.9902 57.8743 28.9902ZM62.6095 41.065C61.6625 41.065 60.7155 41.065 59.7684 41.065H51.9553C52.4289 37.7504 53.8494 34.4357 57.6376 34.4357C60.4787 34.6725 62.8463 37.0401 62.6095 40.118V40.3547C62.6095 40.5915 62.6095 40.8283 62.6095 41.065Z" fill="white" stroke="#525375" stroke-width="2.23529" stroke-miterlimit="10" stroke-linejoin="round"/>
<path d="M43.1959 60.2444L30.8844 18.8114C30.8844 18.5746 30.6476 18.3379 30.4108 18.3379H22.361C22.1243 18.3379 22.1242 18.5746 22.1242 18.8114C22.1242 19.9952 22.1242 20.9423 21.6507 21.8893L10.7598 60.0077C10.7598 60.4812 10.7598 60.4812 11.2333 60.4812H16.9155C17.389 60.4812 17.389 60.2445 17.389 60.0077L20.4669 48.4064H32.7784L35.8563 60.0077C35.8563 60.2445 36.0931 60.4812 36.3298 60.4812H42.7224C43.1959 60.718 43.1959 60.4812 43.1959 60.2444ZM22.1242 42.4874C23.7816 36.5684 26.6227 24.4937 26.6227 24.4937C27.5697 28.9921 30.1741 38.2257 31.3579 42.4874H22.1242Z" fill="white" stroke="#525375" stroke-width="2.23529" stroke-miterlimit="10" stroke-linejoin="round"/>
</svg>
