<svg width="80" height="80" viewBox="0 0 80 80" fill="none" xmlns="http://www.w3.org/2000/svg">
<path d="M10.9969 2H69.0031C73.9751 2 78 6.02493 78 10.9969V69.0031C78 73.9751 73.9751 78 69.0031 78H10.9969C6.02493 78 2 73.9751 2 69.0031V10.9969C2 6.02493 6.02493 2 10.9969 2Z" fill="#F4BC4F" stroke="#525375" stroke-width="2.23529" stroke-miterlimit="10" stroke-linejoin="round"/>
<path d="M55.0366 31.3603C55.0366 31.1235 55.0366 30.8867 55.5101 30.8867H61.4291C61.6659 30.8867 61.9026 30.8867 61.9026 31.3603V61.192C61.9026 61.4288 61.9027 61.6655 61.4291 61.6655H55.5101C55.0366 61.6655 55.0366 61.4288 55.0366 61.192V31.3603Z" fill="white" stroke="#525375" stroke-width="2.23529" stroke-miterlimit="10" stroke-linejoin="round"/>
<path d="M54.5601 22.8331C54.5601 20.7023 56.2174 19.0449 58.3482 19.0449C60.4791 19.0449 62.1364 20.7023 62.1364 22.8331C62.1364 24.9639 60.4791 26.6213 58.3482 26.6213C56.4542 26.858 54.7968 25.2007 54.5601 23.3066C54.5601 23.3066 54.5601 23.0699 54.5601 22.8331Z" fill="white" stroke="#525375" stroke-width="2.23529" stroke-miterlimit="10" stroke-linejoin="round"/>
<path d="M49.5891 61.1865L37.5144 20.4637C37.5144 20.227 37.2776 19.9902 37.0408 19.9902H29.2278C28.991 19.9902 28.991 19.9902 28.991 20.4637C28.991 21.4108 28.991 22.5946 28.5175 23.5416L17.8633 60.9497C17.8633 61.4233 17.8633 61.4233 18.3368 61.4233H23.7823C24.2558 61.4233 24.2558 61.4233 24.2558 60.9497L27.3337 49.5852H39.6452L42.7231 60.9497C42.7231 61.1865 42.9599 61.1865 43.1966 61.1865H49.3524C49.5891 61.66 49.5891 61.4232 49.5891 61.1865ZM28.7542 43.903C30.4116 37.984 33.0159 26.146 33.0159 26.146C33.963 30.6444 36.3306 39.6413 37.5144 43.903H28.7542Z" fill="white" stroke="#525375" stroke-width="2.23529" stroke-miterlimit="10" stroke-linejoin="round"/>
</svg>
