<svg width="80" height="80" viewBox="0 0 80 80" fill="none" xmlns="http://www.w3.org/2000/svg">
<path d="M13.7877 2H66.2123C72.7266 2 78 7.27348 78 13.7878V66.2122C78 72.7265 72.7266 78 66.2123 78H13.7877C7.27343 78 2 72.7265 2 66.2122V13.7878C2 7.27348 7.27343 2 13.7877 2Z" fill="#72CDDA" stroke="#525375" stroke-width="2.23529" stroke-miterlimit="10" stroke-linejoin="round"/>
<path d="M67.5678 52.43C67.5678 59.332 61.9795 63.0967 54.7476 63.0967C51.4604 63.0967 48.502 62.4693 45.5435 61.2144C45.2148 61.2144 45.2148 60.9007 45.2148 60.5869V54.3124C45.2148 53.9987 45.5436 53.6849 45.8723 53.9987C48.5021 55.5673 51.7891 56.5085 54.7476 56.5085C58.3635 56.5085 59.6784 55.2536 59.6784 53.0575C59.6784 50.8614 58.6924 50.234 54.0903 48.0379C47.8446 45.2144 45.2148 42.0771 45.2148 37.3712C45.2148 31.7242 49.8169 27.332 57.7062 27.332C60.3359 27.332 63.2945 27.6458 65.5955 28.587C65.9243 28.9007 65.9242 29.2144 65.9242 29.5281V35.4889C65.9242 35.8026 65.5954 36.1163 65.2667 35.8026C62.9657 34.5477 60.336 33.9203 57.3775 33.9203C53.7616 33.9203 52.7754 35.8026 52.7754 37.0575C52.7754 38.3124 53.4329 39.5673 58.3637 42.0771C65.5955 44.9006 67.5678 48.0379 67.5678 52.43Z" fill="white" stroke="#525375" stroke-width="2.23529" stroke-miterlimit="10" stroke-linejoin="round"/>
<path d="M25.7437 15.4102C21.6989 15.4102 17.6541 15.4101 14.8538 15.7259C14.5427 15.7259 13.9204 16.0418 13.9204 16.3576V62.4648C13.9204 62.7806 13.9203 63.0964 14.2315 63.0964H20.7654C21.0765 63.0964 21.3877 62.7806 21.3877 62.4648V46.0431H24.8103C34.4557 46.0431 42.2341 41.306 42.2341 30.5687C41.923 22.042 37.2559 15.4102 25.7437 15.4102ZM24.8103 39.0954C23.5658 39.0954 22.6322 39.0954 21.3877 39.0954V22.6736C22.01 22.6736 23.8768 22.6736 25.4325 22.6736C31.033 22.6736 34.4556 25.5158 34.4556 30.8845C34.4556 37.5164 29.7886 39.0954 24.8103 39.0954Z" fill="white" stroke="#525375" stroke-width="2.23529" stroke-miterlimit="10" stroke-linejoin="round"/>
</svg>
