<?xml version="1.0" encoding="UTF-8" standalone="no"?>
<svg
   xmlns:dc="http://purl.org/dc/elements/1.1/"
   xmlns:cc="http://creativecommons.org/ns#"
   xmlns:rdf="http://www.w3.org/1999/02/22-rdf-syntax-ns#"
   xmlns:svg="http://www.w3.org/2000/svg"
   xmlns="http://www.w3.org/2000/svg"
   xmlns:sodipodi="http://sodipodi.sourceforge.net/DTD/sodipodi-0.dtd"
   xmlns:inkscape="http://www.inkscape.org/namespaces/inkscape"
   inkscape:version="1.0 (4035a4fb49, 2020-05-01)"
   sodipodi:docname="color-logo.svg"
   id="svg34"
   version="1.1"
   fill="none"
   viewBox="0 0 62.551109 36.405025"
   height="36.405025"
   width="62.551109">
  <metadata
     id="metadata40">
    <rdf:RDF>
      <cc:Work
         rdf:about="">
        <dc:format>image/svg+xml</dc:format>
        <dc:type
           rdf:resource="http://purl.org/dc/dcmitype/StillImage" />
        <dc:title></dc:title>
      </cc:Work>
    </rdf:RDF>
  </metadata>
  <defs
     id="defs38" />
  <sodipodi:namedview
     inkscape:current-layer="svg34"
     inkscape:window-maximized="1"
     inkscape:window-y="-9"
     inkscape:window-x="-9"
     inkscape:cy="23.163743"
     inkscape:cx="64"
     inkscape:zoom="9.5234375"
     showgrid="false"
     id="namedview36"
     inkscape:window-height="1001"
     inkscape:window-width="1920"
     inkscape:pageshadow="2"
     inkscape:pageopacity="0"
     guidetolerance="10"
     gridtolerance="10"
     objecttolerance="10"
     borderopacity="1"
     bordercolor="#666666"
     pagecolor="#ffffff" />
  <path
     id="path28"
     fill="#5c5db1"
     d="m 13.1174,36.0943 c -0.0765,0.2486 -0.3442,0.3634 -0.5928,0.2869 C 5.00986,33.5321 0,26.285 0,18.2156 0,10.1081 5.0481,2.861 12.6011,0.03100559 c 0.2295,-0.095608 0.4972,0.0382432 0.5928,0.2868244 L 16.5211,9.89775 c 0.0764,0.22945 -0.0383,0.47805 -0.2677,0.57365 -3.136,1.2811 -5.2011,4.3406 -5.2011,7.7442 0,3.4037 2.0651,6.4631 5.1819,7.7443 0.2295,0.0956 0.3442,0.3442 0.2677,0.5736 z" />
  <path
     id="path30"
     fill="#d16978"
     d="m 35.9297,36.0948 c -0.0765,0.2485 -0.3442,0.3633 -0.5928,0.2868 -7.5148,-2.8491 -12.5246,-10.0771 -12.5246,-18.1464 0,-8.1076 5.0481,-15.35467 12.6011,-18.18466321 0.2294,-0.095608 0.4972,0.0382433 0.5928,0.2868242 L 39.3333,9.91728 c 0.0765,0.22942 -0.0382,0.47802 -0.2677,0.57362 -3.1359,1.2621 -5.2202,4.3215 -5.2202,7.7252 0,3.4036 2.0652,6.4631 5.182,7.7442 0.2294,0.0956 0.3442,0.3442 0.2677,0.5737 z" />
  <path
     id="path32"
     fill="#f4bc4f"
     d="m 62.2598,25.9597 c -3.0595,-1.262 -5.1055,-4.245 -5.1628,-7.5912 V 0.47063699 c 0,-0.248581 -0.2104,-0.4589182 -0.459,-0.4589182 H 46.5036 c -0.2486,0 -0.4589,0.2103372 -0.4589,0.4589182 V 18.2155 c 0,8.0693 5.0098,15.3164 12.5246,18.1464 0.2295,0.0956 0.4972,-0.0383 0.5928,-0.2868 l 3.3654,-9.5608 c 0.0765,-0.2104 -0.0382,-0.459 -0.2677,-0.5546 z" />
</svg>
