<?xml version="1.0" encoding="UTF-8" standalone="no"?>
<svg
   height="69.302727"
   width="1299.998"
   id="svg4"
   viewBox="0 0 1299.998 69.302727"
   version="1.1"
   fill="none">

  <defs
     id="defs8" />

  <rect
     y="20"
     x="-1"
     height="50"
     width="1302"
     id="rect835"
     style="fill:#fcfcff;fill-opacity:1;stroke-width:0.964674" />
  <path
     d="M -1,0 V 9.4673489 35.30675 c 1.2077571,-0.155064 2.3583921,-0.421266 2.7014196,-0.737819 0.5618139,-0.518666 2.154829,0.09323 2.6701214,0.658903 0.5385782,0.02343 3.8403239,-1.460951 4.894244,-0.871965 1.615785,0.0705 5.923152,0.257081 7.538937,0.327482 1.592549,0.612511 8.057292,0.894288 9.673077,0.964689 2.154312,0.09393 5.384542,0.234899 5.923169,0.258434 0.53853,0.02343 3.748033,0.70677 5.363717,0.777272 1.615785,0.0704 6.463046,0.282726 8.07883,0.353127 1.077156,0.04697 4.308512,0.186609 6.439589,0.822644 l 2.20065,-0.990334 5.500645,-2.47583 c 6.978431,0.847238 14.448169,2.801716 15.525826,2.848684 1.100393,-0.495132 3.770123,0.164751 6.463064,0.28211 l 2.179133,-0.447821 1.637282,-0.471496 c 1.592449,0.612602 4.309818,0.187215 5.972074,-0.826583 l 3.092645,3.393167 1.592293,0.613531 c 2.716184,-0.42473 5.385404,0.235243 6.463064,0.28211 l 0.56142,-0.518838 3.86335,-2.004344 c 4.82342,0.753303 15.59475,1.222143 18.28789,1.339512 2.69315,0.117369 7.56359,-0.212678 8.64024,-0.16571 1.10069,-0.495233 5.36399,0.775918 6.97948,0.846319 1.63852,-0.471698 6.4843,-0.260201 8.12383,-0.7319 1.63851,-0.471698 5.36388,0.777656 6.44154,0.824624 1.07665,0.04697 4.9165,-1.415701 5.97012,-0.826593 1.05462,0.589067 4.82303,0.75398 5.89969,0.800947 1.07766,0.04687 11.35788,-0.592572 14.58885,-0.451769 3.23196,0.140903 8.61739,0.37548 9.13317,0.941013 0.5148,0.565633 7.07038,-1.320443 9.20166,-0.684549 2.13127,0.636035 6.44004,0.823644 9.13318,0.941013 l 2.69359,0.118369 8.61677,0.374823 7.5409,0.329452 8.61676,0.374833 8.07883,0.353128 c 2.69314,0.117369 5.92362,0.257454 8.61676,0.374823 l 2.69361,0.116389 c 3.25499,-0.401297 7.53838,0.328896 10.20708,0.988365 l 2.76403,-1.507202 c 0.56186,-0.518667 2.17673,-0.449387 2.15369,0.09272 l 1.49841,2.781606 c 2.7392,-0.96683 8.75728,-2.877653 10.37336,-2.807251 1.59245,0.6125 5.90222,0.80021 9.13318,0.941013 l 3.23155,0.142034 10.23252,0.445851 5.38524,0.234758 c 5.92411,0.258172 15.05889,1.198054 20.95996,1.998426 l 5.47718,-1.933317 c 0,0 1.05347,0.590098 1.59228,0.613531 l 1.07784,0.04535 c 1.61548,0.0704 4.35498,-0.894985 4.87077,-0.329452 -0.024,0.5421 1.56809,1.154691 3.18459,1.225093 l 1.61771,0.06909 5.33829,1.319785 1.61381,0.07101 c 1.61648,0.0704 4.87378,-0.331189 5.41262,-0.307756 1.07766,0.04697 3.18216,1.224901 3.74403,0.706255 0.56186,-0.518646 4.87201,-0.330805 6.4885,-0.260404 1.61549,0.0704 3.20923,0.682953 4.28589,0.729921 l 0.5614,-0.518838 2.22413,-1.532838 c 2.67011,0.659458 21.4966,2.023909 42.50089,2.939428 l 18.85126,0.820674 2.69164,0.118369 c 2.71618,-0.42473 7.49556,1.41256 8.59525,0.917337 1.10069,-0.495131 3.25529,-0.401822 4.87077,-0.331421 l 0.56142,-0.518848 c 2.24744,-2.074452 3.18562,1.226628 4.30934,0.189387 l 1.12283,-1.037676 c 2.15432,0.09394 9.15648,0.398903 15.61972,0.680609 l 5.92316,0.258434 6.46308,0.28013 c 5.92511,0.258273 19.92517,0.868743 23.18017,0.467547 3.255,-0.401297 14.56788,0.09202 17.79885,0.232789 3.23196,0.140803 11.30975,0.49395 13.46406,0.587886 2.15432,0.09394 6.53466,-1.345048 7.61132,-1.29808 1.05362,0.588967 4.77749,1.836614 5.87818,1.341482 1.10069,-0.495132 12.94643,0.02131 17.25505,0.209113 4.30862,0.18777 18.85046,0.821876 23.18213,0.467547 4.33166,-0.35433 12.94899,0.02252 15.1033,0.116399 2.15432,0.09394 8.6178,0.37544 10.23448,0.445841 1.61549,0.0704 6.55575,-1.887147 7.60937,-1.29808 1.05362,0.589068 4.28482,0.730507 7.00099,0.305776 l 2.15566,0.09272 1.61381,0.07101 c 2.15431,0.09383 10.81787,-0.614511 13.51101,-0.497142 3.23197,0.140803 8.07939,0.3524 11.31036,0.493203 l 3.23349,0.140065 c 1.61548,0.0704 3.20639,0.683195 4.82186,0.753596 l 1.61577,0.07101 c 1.6165,0.0704 7.56465,-0.214405 9.18013,-0.144004 1.61648,0.0705 7.00029,0.306392 8.61677,0.376793 1.61549,0.0704 6.57984,-2.429014 8.14925,-1.274414 1.56842,1.154601 3.69933,1.789929 5.31482,1.86033 l 1.61771,0.07101 c 1.61549,0.0704 3.81509,-0.920609 4.33088,-0.355097 l 1.5473,1.696589 c 1.12373,-1.037332 16.81007,-1.982375 22.73417,-1.724204 5.94816,-0.283827 11.31217,0.492203 12.90462,1.104754 l 1.07587,0.04737 1.07783,0.04737 c 1.63953,-0.471699 4.89274,-0.872945 7.58589,-0.755576 l 2.69359,0.116389 c 2.15432,0.09394 4.86972,-0.330249 7.001,0.305786 l 2.67012,0.658903 c 2.20139,-0.990365 5.97084,-0.824422 7.60936,-1.29611 1.61649,0.0704 4.87122,-0.332401 7.56436,-0.215032 l 4.30741,0.189387 c 2.15431,0.09393 7.56465,-0.214426 9.18013,-0.144015 1.61649,0.0704 7.56269,-0.212537 9.17817,-0.142035 1.63953,-0.471698 4.28619,0.729153 5.31677,1.86032 l 1.70771,-2.097058 1.14825,-1.580189 c 1.56942,1.1546 6.34642,2.992901 7.98493,2.521202 1.63852,-0.471698 5.94817,-0.284918 9.18014,-0.144014 l 3.23153,0.140075 c 2.15431,0.09394 4.82443,0.753657 5.92512,0.258424 l 2.22217,-1.530868 c 1.56942,1.1546 4.26346,1.271959 5.38719,0.234758 l 1.56882,1.154075 0.51446,0.56619 c 2.71618,-0.424731 21.09898,-1.254293 27.56191,-0.972577 5.94715,-0.283827 13.48693,0.04616 15.64124,0.140065 l 2.15566,0.09272 12.92612,0.56422 6.46111,0.28013 14.00397,0.611562 2.15564,0.09272 c 2.15432,0.09394 6.50824,-0.802543 7.58589,-0.755576 1.05362,0.588967 3.23031,0.140863 4.28393,0.729931 1.05462,0.589067 13.48844,0.04656 15.61973,0.682579 2.1543,0.09383 4.82488,0.751768 5.3637,0.775302 0.53783,0.02343 2.17701,-0.447477 4.35436,-0.895641 l 1.61576,0.07101 c 2.69315,0.117369 5.92463,0.257455 8.61678,0.374824 l 8.61872,0.374833 8.61671,0.376793 8.6129,0.374834 2.6935,0.118369 c 3.2349,0.140802 8.0634,0.893105 10.7275,1.552564 l 2.7131,-0.424145 3.2864,-0.942982 c 3.7657,0.164337 9.6946,0.421983 13.4405,1.128429 l 3.2257,0.140065 c 1.6224,0.0704 3.7943,-0.376186 5.4067,-0.305785 l 1.6237,0.06909 c 2.1533,0.09394 7.5111,0.872026 8.6128,0.376803 1.1017,-0.495132 4.2367,1.813049 5.3383,1.317816 1.6426,-0.471597 4.9378,-1.956205 5.9994,-1.367137 1.0516,0.589067 4.8162,0.75201 5.8978,0.798978 1.0516,0.589067 3.2354,0.142479 5.4087,-0.305786 l 1.6138,0.06909 c 2.1533,0.09394 3.7249,1.249526 5.8782,1.343462 1.0816,0.04697 2.6941,0.116217 3.2549,-0.402449 2.7643,-1.508929 5.3391,1.319351 7.5625,-0.213052 0.5609,-0.518666 2.1517,0.09464 2.1517,0.09464 l 2.0442,2.803312 c 3.275,-0.943296 9.8544,-3.372512 11.4472,-2.75991 1.5925,0.612501 4.8275,0.754192 5.3384,1.319786 1.0616,0.588966 4.2675,1.272009 7.4724,1.955012 l 1.1717,-2.120733 2.2221,-1.532838 c 2.1334,0.635935 6.9114,2.472265 7.983,2.519233 1.0817,0.04697 4.948,-1.956205 5.9996,-1.367137 1.5924,0.6125 5.4287,-0.849471 6.4903,-0.260404 1.5924,0.612501 3.7448,0.707042 4.7965,1.29611 1.0517,0.588976 3.2356,0.139863 4.8981,-0.873935 l 2.0833,1.720254 c 0.5108,0.565533 2.7126,-0.423528 4.3251,-0.353127 0.5609,-0.518666 2.1838,-0.449386 2.1537,0.09272 1.0116,1.673165 2.7139,-0.424296 4.2663,1.272434 0.5107,0.565533 3.2358,0.140833 5.3892,0.234768 3.2249,0.140803 6.4596,0.281363 9.6945,0.422165 l 3.2258,0.140075 c 3.2349,0.140803 10.2851,-0.638136 11.8775,-0.02566 1.5925,0.612602 5.9194,0.258787 7.001,0.305775 1.0717,0.04687 5.8791,1.343684 7.5116,0.871966 1.6225,0.0704 5.3883,0.234334 8.5933,0.917337 l 2.6936,0.116399 0.5418,0.02363 c 0.5408,0.02343 6.53,-1.344673 8.6833,-1.250737 2.1333,0.635934 14.5221,1.175175 18.2878,1.339512 4.3167,0.18777 9.7255,-0.118278 10.256,-0.09464 0.5409,0.02343 3.2346,0.140207 3.7754,0.163741 0.5408,0.02343 2.1336,0.635853 3.746,0.706255 l 1.6119,0.07101 1.6236,0.07101 c 1.6325,-0.471688 7.0004,0.304422 8.6128,0.374823 1.6426,-0.471597 4.3569,-0.897368 5.9994,-1.369096 l 0.5106,0.566179 L 1300.5951,70 c 0.1353,-0.02121 0.2697,-0.05636 0.4049,-0.08282 V 0 Z"
     style="fill:#5c5db1;fill-opacity:1;stroke-width:1.2812"
     id="rect837" />
</svg>
