<?xml version="1.0" encoding="UTF-8" standalone="no"?>
<svg
   id="svg4"
   viewBox="0 0 1700 291.55664"
   version="1.1"
   fill="none"
   width="1700"
   height="291.55664">
  <metadata
     id="metadata10">
    <rdf:RDF>
      <cc:Work
         rdf:about="">
        <dc:format>image/svg+xml</dc:format>
        <dc:type
           rdf:resource="http://purl.org/dc/dcmitype/StillImage" />
      </cc:Work>
    </rdf:RDF>
  </metadata>
  <defs
     id="defs8" />
  <path
     id="rect831"
     style="fill:#5c5db1;fill-opacity:1;stroke-width:0.97017"
     d="m 1679.6354,65 c -0.8538,0.669827 -1.9262,1.221197 -3.2711,1.472656 L 1675.929,65 Z m -16.2917,0 c -1.4504,2.435628 -2.8973,4.882812 -2.8973,4.882812 1.5111,1.704638 3.0348,3.407448 0,4.259766 h -0.755 c -1.5237,-1.704495 -3.0345,-2.556641 -3.79,-2.55664 v 0.853515 c 0.7555,1.704495 1.5096,3.408786 2.2651,5.113281 l 0.7698,1.705078 c -0.7681,1.704495 -3.7907,4.261105 -6.07,5.113282 l 4.5452,0.851562 c 2.2792,0 5.3133,0.852491 4.5451,-2.55664 0.7682,0 1.5244,5.83e-4 2.2799,1.705078 0.7556,1.704636 0.755,5.965427 -2.2799,7.669922 l -3.7901,-1.703125 c -2.2666,-0.852318 -7.5811,-3.410501 -9.8478,1.703125 v 0.853515 c -3.0348,0.852318 -4.5582,1.703125 -3.7901,1.703125 0.7556,0.852176 4.5458,5.114918 6.8251,7.671874 l 7.5826,-0.85351 h 0.7551 c 0.7555,0 0.756,0.85351 -0.7551,0.85351 -1.5237,0 -1.5243,3.4082 -2.2799,3.4082 -0.7555,0 -3.035,0.85201 -3.035,2.55665 0,1.70463 -1.5122,5.96679 -2.2677,5.96679 -1.5237,0.85231 -5.3145,-5.8e-4 -6.07,-1.70508 l -0.7551,-1.70507 c -0.7681,-0.85218 -3.0344,-1.70313 -3.79,-1.70313 l -3.7901,2.55664 c -3.7904,-1.70449 -7.5945,-2.55783 -8.35,-3.41015 -0.7556,0 -3.7895,3.40966 -4.5451,8.52343 l 3.035,3.40821 c 0,0 -0.7543,0.85289 -1.5225,1.70507 -0.7555,1.70463 -0.7568,3.41016 1.5225,3.41016 h 3.7901 c 1.5111,2.55695 3.0344,5.96605 3.79,6.81836 l -1.5101,1.70312 c -0.7682,0.85232 -0.7697,3.40958 2.2653,1.70508 1.5237,-0.85231 4.5468,-0.85231 5.3149,0 3.0223,2.55682 3.791,7.5e-4 6.0577,-0.85156 l 0.755,-0.85352 c 1.5238,0 3.0351,0.001 3.0351,0.85352 0,0.85231 -3.0217,3.4082 -7.5802,3.4082 h -4.5476 c -0.7555,0.85232 -0.7555,2.55664 0,2.55664 0.7556,0.85232 3.7903,0.85352 6.8251,0.85352 v 6.81836 c 3.0348,-0.85275 5.3027,-2.55742 5.3027,-3.41016 0,-0.85274 0.7683,-3.40882 3.035,-2.55664 l 1.5224,0.85352 c 0.7556,0.85133 0.7576,3.40702 0.7576,4.25976 l -0.7576,2.55664 c -3.0348,0 -7.5804,0.85352 -10.6152,0.85352 l 1.5126,2.55664 2.2775,3.41016 c -2.2792,2.55681 -3.7893,5.11351 -4.5575,5.96484 0,0.85274 -0.755,-0.001 -0.755,-1.70508 0,-2.55681 -3.792,-10.22757 -4.5476,-11.93164 l -3.0349,0.85156 c -0.7556,0 -1.5103,0.85352 -1.5103,0.85352 -8.3488,0 -9.8587,-9.5e-4 -15.1602,1.70312 -0.7681,0 -1.5259,2.55759 -3.7925,0.85352 l -4.5575,-2.55664 c -1.5111,3.40955 3.79,5.96525 10.6152,4.25977 h 3.035 c 1.5112,0 2.2789,0.002 3.79,-0.84961 3.0349,-2.55681 4.5468,-9.5e-4 5.315,1.70312 0.7555,0.85275 0.7544,3.40938 -1.5248,2.55664 l -6.0677,-0.85156 c 0.7682,3.40956 -1.5122,4.26189 -5.3026,1.70508 l -3.035,-0.85352 -3.79,-0.85156 c -4.546,0.85275 -7.5803,3.40803 -7.5803,5.96484 0,1.70407 -3.0367,8.52327 -7.5825,11.08008 l -5.3125,-2.55664 h -2.2677 l -3.035,0.85156 c -3.7903,0.85275 -9.0904,0.85234 -12.1252,1.70508 l -3.0351,0.85352 h -0.7551 c -0.7681,-0.85274 -3.0356,-0.85352 -5.3149,-0.85352 l -1.5101,1.70508 -1.525,1.70508 c -1.5111,1.70407 -3.0227,4.26054 -3.0227,5.11328 0,0.85133 0.7552,3.40897 0.7552,4.26172 0,0.85274 -1.5222,2.55563 -5.3126,0.85156 -3.0348,-0.85274 -12.1283,-2.55545 -11.3726,-3.4082 0.7554,-0.85274 2.2794,-3.41039 3.0349,-4.26172 0.7556,-0.85274 3.037,2.55687 3.7925,3.4082 h 3.7902 c 1.5111,0 3.7896,-2.55646 4.5451,-5.11328 l -1.5102,-2.55664 c -0.7556,-0.85133 -1.5243,-1.70508 -2.2799,-1.70508 l -2.2677,-0.85156 c -3.0348,-0.85275 -5.3124,-0.85393 -5.3124,0.85156 0,0.85133 -2.2688,3.41016 -3.7925,3.41016 -1.5112,-0.85275 -6.8242,-2.55641 -8.3353,-1.70508 -1.5237,0 -6.0705,1.70491 -5.315,4.26172 0.7682,2.55681 3.7913,9.375 5.315,9.375 0.7556,0 3.7906,1.7039 3.0351,2.55664 0,0 -5e-4,1.7039 0.755,2.55664 0.7556,0.85275 3.7905,3.41015 3.035,3.41015 -0.7556,0.85133 -2.2788,3.40922 -0.7551,5.11329 0.7556,1.70407 5.3022,-0.85275 6.0578,0 0.7556,0 1.5237,1.7039 0,2.55664 -1.5111,0.85274 -3.7921,1.70312 -4.5477,1.70312 l -1.5101,0.85352 -2.2799,1.70508 c -4.5459,-0.85132 -8.3369,-2.55765 -9.1051,-4.26172 l -2.2651,1.70312 c -0.7556,0.85274 -3.0346,1.70703 -3.7901,1.70703 h -1.5249 c -1.5111,-1.70549 -3.0334,-0.85275 -2.2652,0 0,1.70407 1.5097,5.96443 2.2652,7.66992 0.7682,1.70408 5.3145,-0.85351 6.07,-0.85351 0.7556,-0.85274 3.0341,-1.70289 4.5452,-0.85156 l 2.2799,0.85156 c 2.2667,0.85275 6.0706,1.70567 2.2677,5.11523 0,0 0.7669,1.7039 1.5224,2.55664 1.5111,0.85275 3.0345,1.7039 3.79,2.55664 l 2.28,1.70313 c -1.5237,2.55823 -5.3139,6.81937 -6.825,8.52344 -2.2793,1.70548 -0.7682,12.7838 0,16.19336 l 0.755,3.41015 c 0.7556,1.70407 -2e-4,3.41016 -3.035,3.41016 h -0.7551 c -0.7556,0.85133 -1.5224,1.70389 -1.5224,2.55664 0,0.85132 3.7902,1.70414 6.825,3.4082 l 2.2775,0.85157 3.0351,0.85351 c 0.7555,-1.70549 0.755,-4.26196 0.755,-5.11328 l 1.5127,-0.85352 c 3.7903,-2.55681 5.3139,0.85376 6.825,1.70508 l 1.5225,0.85156 c 0.7555,2.55681 2.2676,5.96586 2.2676,7.66993 0,1.70407 5.3146,1.70507 9.105,1.70507 l -0.7551,-5.11328 c 0.7556,0 3.0215,-0.85156 4.5452,-0.85156 1.5111,0 6.8246,0.85039 7.5801,1.70313 0.7556,0.85274 3.7901,4.26071 3.7901,2.55664 0.7556,-0.85274 3.0352,-1.7029 6.07,-0.85157 2.2667,0.85274 9.0923,0.85274 9.8478,0 0.7682,-0.85133 3.0338,-1.70407 4.5575,0 l 1.5125,0.85157 0.7551,0.85351 c 1.5237,0 2.28,-1.70531 2.28,-2.55664 v -1.70508 c 0,-0.85133 1.5112,-0.85156 3.0349,-0.85156 h 1.5103 c 0,0 -0.7551,0.85039 -0.7551,1.70313 0,0.85274 2.2784,3.40939 4.5451,2.55664 l 2.28,0.85351 c 2.2666,0.85132 3.0333,-1.70491 2.2651,-4.26172 v -0.85156 c 0,-1.70549 2.2814,-1.70549 3.7925,0 l 0.7674,0.85156 1.5101,3.40821 c -3.7903,2.55682 -6.824,5.11405 -8.3351,5.96679 -0.7556,0.85133 -5.314,0.001 -6.8251,-0.85156 -1.5237,-0.85274 -7.5807,0.8518 -6.8252,1.70313 0.7556,0.85274 1.5116,3.40939 -0.755,2.55664 -1.5237,-0.85132 -6.0719,-3.40797 -6.8275,-2.55664 0,0.85274 -2.2775,4.26195 -2.2775,5.11328 -0.7555,0.85274 -1.5125,3.40915 1.5223,1.70508 h 1.5127 c 1.5237,0 3.7901,1.70507 3.7901,1.70507 3.7904,-2.55681 8.3345,-0.85115 12.1376,-2.55664 l 0.7575,-0.85351 c 2.2666,0.85274 5.3013,0.85234 6.825,1.70508 3.7904,2.55682 3.7891,-1.70508 5.3002,-1.70508 l 2.2801,-0.85157 c 3.0348,-0.85273 5.3002,-0.85274 5.3002,0 0,0.85274 2.2814,3.4094 3.7925,2.55665 h 5.3124 c 4.5459,0 9.8486,7.6e-4 12.1278,0.85351 2.2793,0.85132 10.6142,1.70407 12.1253,0 1.5237,-1.70549 6.8271,-5.11447 7.5826,-4.26172 0.7682,0.85274 3.7888,5.9668 5.3125,5.9668 1.5111,0.85274 8.3364,-0.85275 9.8601,0 0.7556,0.85274 5.3008,0.85197 7.5801,-0.85352 l 0.883,-0.66406 v 5.00586 H 0 V 65 Z" />
  <path
     id="rect835"
     style="fill:#d16978;fill-opacity:1;stroke-width:0.952342"
     d="M 1700,0 V 2.1601562 C 1696.0307,1.4401204 1691.9351,0.71993412 1690.0095,0 Z m -9.9905,0 c -2.2666,0 -9.0914,2.5572481 -10.6151,1.7050781 h -3.035 c -3.0222,0 -3.7914,4.482e-4 -2.2677,1.7050781 v 1.703125 c 0,0.85229 -1.5214,1.7050782 -3.0325,1.7050782 l -0.7576,-0.8515625 c -3.0348,-2.55682 -3.034,-2.55682 -4.5451,0 -0.7682,0.85229 -2.2779,3.4082031 -1.5224,3.4082031 1.5237,1.70463 1.5237,2.557836 0,3.410156 l -2.28,1.703125 c -2.2666,1.70464 -2.2666,3.410595 0,5.115235 2.2793,0.85232 8.3488,8.522901 6.8251,14.488281 h -9.0927 c -0.7556,1.70449 -6e-4,5.112962 0.755,7.669922 0.7556,2.55681 7.5821,6.817602 8.3377,7.669922 0.7681,0 1.5224,1.70432 1.5224,2.55664 0,0.85232 1.5128,5.114617 4.5476,5.966797 L 1677.8843,56.25 h 0.755 c 1.5111,0.85232 3.0346,2.557079 3.7901,4.261719 0,0.606915 -0.7733,2.938725 -2.8604,4.541015 h -3.6302 l -1.0896,-3.689453 h -2.2799 c 0,3.40913 -3.0234,3.410157 -5.3026,3.410157 h -3.7901 c -0.083,0.139505 -0.082,0.140206 -0.1649,0.279296 H 0 V 0 Z" />
</svg>
