<?xml version="1.0" encoding="UTF-8" standalone="no"?>
<svg
   id="svg4"
   viewBox="0 0 1300 288"
   version="1.1"
   fill="none">


  <rect
     y="0"
     x="0"
     height="65.053314"
     width="1300"
     id="rect835"
     style="fill:#d16978;fill-opacity:1;stroke-width:0.832799" />
  <path
     id="path2"
     fill="#6364B8"
     d="m-74.273 116.72c0.6021-0.601 1.8062 0.602 3.6125 1.805l1.2042 1.204 0.6021 0.601c0.602-1.203 1.8062-2.406 2.4083-3.008h2.4083c2.4084 0.602 3.6126 1.203 3.0105 1.203s-3.0105 1.805-3.0105 3.009c0 1.203 0.6021 5.415 1.2042 4.212 0.6021-1.204 3.0104-3.009 3.0104-2.407l0.6021 0.602c1.2042 1.203 6.0209 1.203 7.2251-0.602v-0.602c0-0.602-0.6021-1.805-1.2042-3.008-0.6021-1.204-1.2042-4.212-0.6021-4.814 0.6021-0.601 3.0104-1.805 3.0104-1.203s0 3.008 1.8063 2.407c1.2042-0.602 5.4188-2.407 5.4188-3.61v-1.204c0-0.601 0.602-1.203 1.2041-1.203h0.6021c0.6021 0.602 4.2146 2.407 7.8271 4.212l3.0105-0.602 1.8062-0.602c1.2042 0.602 0.6021 1.805-0.6021 1.805-1.2041 0 0.6021 3.009 3.0105 2.407l0.6021-1.203 1.2041-1.204c-0.6021-2.406 0-4.211 1.2042-3.61 1.2042 0.602 6.0209 3.009 7.8271 3.61h0.6021c0.6021 0 1.2042-0.601 1.2042-0.601s1.8062 0.601 3.0104 1.805c1.8063 1.203-1.2042 7.822-1.2042 7.822h1.2042c1.2042 0 3.6125-0.602 4.8167-2.407v-2.407c0.60209-1.203 1.8062-3.008 2.4083-3.61s-3.6125-3.008-4.2146-3.008c-0.60209 0-2.4083-0.602-1.2042-1.805 1.2042-1.204 4.2146-3.61 4.2146-4.212v-1.203c1.2042-0.602 1.8062-1.806 3.0104-1.806 1.8062 0 3.0104 0 4.2146-1.203 1.2042-1.203 1.8063-0.602 3.6125 0l1.2042 0.602c1.8062 0 1.8062-1.805-0.60209-3.6103l-0.60209-2.4067v-1.805c-1.8063 0.6017-3.0104 0.6017-3.6125-0.6017l-0.60207-1.2033c-0.60209 0-1.2042-1.2034-1.8063-2.4068l-0.60209-1.2033c0-0.6017 0.60209-1.805 1.2042-2.4067l3.0104-1.805c1.2042-1.2034 2.4083-1.2034 2.4083-0.6017s1.8063 2.4067 3.6125 1.2033c1.8063-1.2033 6.0209-6.0167 7.2251-6.6184v1.2033c0.602 2.4067 1.2041 2.4067 3.6125 1.2034 1.8062-1.2034 4.2146-1.805 6.0208-1.805 1.2042 0 3.0104-0.6017 3.6125 1.2033 0 1.2034 2.4084 1.805 4.2146 2.4067 0.6021 0 1.8063 0 1.8063-0.6017 1.2042-3.0083 4.8167-3.61 7.225-4.8134l2.4084-1.2033c-0.6021-2.4067-1.2042-3.6101-1.8063-3.0084s-3.0104 0.6017-3.6125-1.805l-1.2042-1.8051c-0.6021-1.2033-1.8062-2.4067-3.0104-2.4067h-1.2042c-1.8062 1.2034-2.4083 2.4067-1.8062 2.4067s1.8062 1.2034 1.2041 1.2034c-0.602 0-1.8062 1.2033-0.602 1.2033l0.602 0.6017 0.6021 0.6017c0 0.6017-0.6021 1.2033-1.2041 1.2033h-0.6021l0.6021 0.6017c-2.4084 0.6017-4.8167 1.8051-6.0209 3.0084l-1.8063-0.6017c-0.602-0.6016-1.8062-0.6016-3.0104-0.6016h-3.6125c0-1.8051 0.6021-3.6101 1.2042-3.6101v-0.6017c0-0.6017-0.6021-1.2033-0.6021-1.805h-1.8063l-1.2041 0.6017c-1.2042 1.2033-3.6126-0.6017-5.4188-4.2118l-3.6125 0.6017-3.0104 0.6017c-3.0104 1.805-7.225 1.805-9.0313 0.6016l-1.8063-0.6016-1.8062-0.6017c-2.4083 0-3.0104-1.805-0.60209-4.2117l4.2146 1.2033 1.8062 1.805c1.8063-1.2033 4.2146-3.0083 4.8167-3.61s4.8167 1.2033 7.225 3.0084l3.6125-2.4067 0.6021-0.6017c0.6021-0.6017 0.6021-1.2034-0.6021-1.2034-1.2041 0-5.4187-0.6017-4.2146-1.2033 0.60208 0 2.4084-1.8051 1.8063-3.0084-0.6021-1.2034-1.2042-4.2118 0.6021-3.6101l1.2041 0.6017h0.6021c1.2042 1.2034 2.4084 3.0084 2.4084 3.0084v1.2033c0 0.6017 0.6021 0.6017 1.8062 0.6017l0.6021-0.6017c0.6021-0.6016 0-1.2033 0-1.805v-2.4067c1.8063 0.6017 2.4084 1.2034 1.8063 2.4067-0.6021 1.2034-1.8063 3.6101-1.8063 4.2118 0 0 0.6021 0.6016 1.8063 0.6016s3.6125-0.6017 3.0104-1.805v-1.805c3.0104 0 5.4188-1.8051 6.0209-3.6101l-3.0105-1.2034c-0.602 0-1.8062 0.6017-1.8062 0.6017 0 0.6017 0.6021 1.8051 0.6021 1.8051h1.8062c0.6021 1.2033 1.2042 2.4067 2.4084 3.0083 0.6021 0.6017-1.8063-1.805-3.6125-2.4067-1.8063-0.6016-4.2147-1.805-4.8167-2.4067 0-0.6017 0.6021-1.805 2.4083-2.4067 1.8063-0.6017 6.6229-2.4067 6.6229-2.4067s-1.2041-0.6017-3.0104-0.6017h-1.8062c-1.2042-0.6016-2.4084-1.2033-3.6126-1.805 0-0.6017 0.6021-1.2034 1.2042-1.2034h0.6021l1.8063 0.6017c1.8062 0 5.4187-1.2033 7.8271-3.0084l3.0104 1.2034 2.4084 0.6017c3.0104-0.6017 4.8166 0 4.2146 0.6016-1.2042 0.6017-1.8063 2.4068 0.602 2.4068 2.4084 0 4.2146-4.8135 4.8167-4.8135 0 0 2.4084-0.6016 4.2146-1.2033h1.8063c1.8062 0 3.6125 0.6017 4.8167 1.2033 0.6021 0 1.2041 0.6017 1.2041 1.8051 0 0.6016 1.2042 3.61 2.4084 3.0084 1.2042-0.6017 4.2146-1.8051 4.2146-1.2034s1.8062 1.2033 1.8062 0c0-1.2034 0-4.2117-0.6021-5.4151 0-1.2034 1.2042-3.6101 1.8063-3.0084s4.2146 1.2034 5.4188-0.6017h1.2041c4.2147 0 8.4292 0 12.042-1.2033 3.0104-1.2034 4.8166-1.2034 6.6229 0.6017l1.2042 1.2033c1.2041-1.2033 2.4083-2.4067 3.0104-3.0084h0.6021l4.2145-0.6016c4.817-0.6017 8.429-0.6017 9.031 0 0 0.6016 1.807 2.4067 3.613 2.4067s4.214-3.6101 5.419-4.8135l1.204-1.2033c1.204 0 1.204 1.805 1.806 2.4067 1.806 1.2034 3.011 1.805 3.613-0.6017 0.602-1.2033 1.806-1.2033 3.01-0.6017 1.806 0.6017 4.215 2.4068 5.419-1.2033 0.602-0.6017 3.01-0.6017 4.214-0.6017 3.613 0.6017 4.817 0.6017 7.225 0 1.205-0.6017 2.409-1.2033 4.215 0 0.602 0.6017 3.01-0.6017 4.817-1.2033l3.01-1.2034c0.602 1.805 1.806 3.0084 2.409 2.4067 1.204 0 3.01-1.2033 3.612 0 0 1.2034 0.602 2.4067 1.204 1.2034 0.602-1.2034 3.011-4.2118 4.215-3.6101 0.602 0.6017 4.214 1.805 6.021 0l0.602-0.6017c3.01-0.6017 6.021-1.2033 9.031-1.2033 4.215-0.6017 9.031 1.2033 13.246-1.2034l1.204 0.6017c-0.602 3.0084 3.613 1.805 4.817 3.0084 0.602 0.6017 3.612-0.6017 5.419-1.2034 0.602 0 0 1.2034-0.603 1.8051-0.602 1.2033-0.602 4.2117 1.807 4.2117 2.408 0 8.429-1.2034 8.429-1.2034h1.204c0.602 0 3.011 1.2034 5.419 3.0084l1.806-2.4067 2.408-1.2033c-2.408-1.2034-4.816-3.0084-4.816-4.2118 0-1.2033 1.806-3.0084 4.214-1.805l2.409-2.4067c1.204 0 3.01 1.2033 4.214 1.2033l1.204 0.6017c0.603-0.6017 1.807-1.805 2.409-1.805s2.408-0.6017 3.01-0.6017c1.204 0 4.817-1.2033 6.021-1.805s6.623 0.6017 9.634 0.6017l1.806-1.2034c0.602-0.6017 1.806-0.6017 1.806-0.6017l1.806 2.4067h9.032 1.204c6.623-2.4067 13.246-3.61 18.664-2.4067l3.011 0.6017c2.408-0.6017 6.021-1.2034 7.827-0.6017h3.612c1.807-1.2033 4.817-2.4067 7.225-2.4067l2.409 1.2034c1.806 0.6016 4.817 1.2033 6.623 0 3.01-1.2034 4.816-1.2034 7.827 0 1.204 0 4.214-1.2034 6.623-1.2034h4.817c3.01-0.6017 6.02-1.2033 7.225-1.2033 0.602 0 3.01 0 3.01 0.6016-0.602 0.6017-0.602 1.8051 0 1.8051h0.602l1.204-0.6017c1.204-1.2034 2.409-1.805 3.011-1.2034v0.6017c1.204 1.2034-3.011 1.805-0.602 3.0084l1.204 0.6017c0.602-1.2034 0.602-2.4067 1.204-3.0084h1.806c1.806 0 3.613 0 4.215-0.6017s2.408 0 3.01 2.4067l3.613-2.4067c1.204-0.6017 3.612-1.2033 4.214-0.6017 1.204 0.6017 1.807 0.6017 3.011 0 1.204-1.2033 1.806-1.2033 3.612 0l2.409 1.2034c0-1.805 1.806-2.4067 3.612-1.805 1.806 0.6016 9.634 1.805 12.644 0.6016h3.612c1.807 0 4.215-0.6016 6.021-0.6016 1.807 0 4.215 0.6016 6.021 0.6016h1.806c1.807-0.6016 6.021-1.2033 8.43-1.2033l1.204 0.6017 2.408 0.6016c1.806-0.6016 4.215-0.6016 5.419 0 1.204 0.6017 6.623-0.6016 7.827 0l2.408-1.805c1.205-0.6017 2.409 0.6017 4.215 1.2034 0.602 0 1.204-0.6017 1.204-1.2034l0.602-0.6017c0.602-0.6016 2.409-1.2033 4.215-1.2033s7.225 3.0084 8.429 3.61c1.204 0.6017 6.021 0 6.623 0 0.602-0.6016 3.01-1.805 3.01-1.2033s0.602 1.805 1.205 1.805c1.806-1.2033 3.612-2.4067 6.02-2.4067h2.409c3.01-1.2033 5.419-1.805 6.021-1.805 0 2.4067 1.204 3.0084 3.612 1.2033h4.817c2.408 0 9.633-1.2033 10.837-0.6016 1.205 0.6016 4.817 2.4067 5.419 1.805s3.011-1.2034 3.613-0.6017 5.418 1.2034 9.031 0c3.612-1.805 15.052 0 15.654-0.6017 0.602-0.6016 2.409-1.2033 2.409-1.2033h0.602c1.204 0.6017 1.204 2.4067 4.214 1.2033 1.806-1.2033 5.419 0.6017 7.827 1.2034 0.602 0 1.205 1.2033 1.807 1.2033 1.806-0.6016 2.408-3.61 6.02-1.805l1.205 0.6017c2.408 0 7.827-0.6017 12.643-1.2034h4.215c3.613 0 6.623-0.6016 10.235 0.6017l2.409 0.6017c3.612-1.805 5.419-1.805 4.817-0.6017-1.205 1.2034 3.01 3.0084 2.408 3.6101v1.2033c0.602 0.6017 1.204 1.2034 1.806 1.2034s1.806-2.4067 1.806-4.2118l1.205-1.2033c1.204-1.2034 2.408-3.0084 4.816-1.2034 1.204 0.6017 3.613-0.6016 5.419-0.6016h1.806c1.807 0 4.817 0.6016 5.419 0 1.204 0 4.817 0 7.827-0.6017l2.408 1.2033 3.011 1.8051c1.204-1.8051 3.01-3.0084 3.612-1.2034h4.215c-0.602-2.4067-0.602-3.6101-0.602-3.6101s2.408 1.8051 4.817 1.2034l1.806 0.6017 2.408 0.6017c1.806-0.6017 3.613-1.2034 4.215-1.2034l0.602-0.6017c0.602-0.6017 2.408-1.805 4.215-2.4067l1.204 2.4067v0.6017c1.204 0 3.01 0.6017 4.816 0.6017 1.807 0 5.419 1.2033 5.419 0.6017 0-0.6017 1.806-0.6017 3.613 1.2033l3.01-1.2033c1.204-0.6017 2.408-1.2034 4.215-1.8051h0.602c1.204 0 3.01 0.6017 3.612 0.6017 1.205 0 4.215 1.2034 4.817 2.4067 0.602 0.6017 3.612 1.2034 5.419-0.6017h3.01c0.602 0 1.807-1.805 2.409-2.4067 1.204 0 3.01 0.6017 4.214 1.2034l3.613 0.6017c3.612-1.8051 7.225-2.4068 7.225-1.2034 0.602 1.2034 3.01 4.2117 4.816 3.6101 1.807 0 5.419-3.0084 6.021-3.0084h0.602l2.409-1.2034c1.806 1.2034 5.418 1.8051 7.225 1.8051h1.806 3.01l3.613 0.6016c1.806-1.2033 3.01-1.2033 3.612-0.6016v1.2033c0 0.6017 3.011 0.6017 5.419-0.6017l2.409-1.2033c0.602-0.6017-3.011-1.2034 0-1.8051 1.806-0.6016 1.806 1.8051 1.806 1.8051 2.408 0.6017 4.214 3.61 7.225 0.6017 0.602-0.6017 2.408 1.2033 4.214 1.2033h4.817c5.419-0.6017 10.838-0.6017 13.246-1.2033l1.204 0.6016c2.409 1.2034 3.011 0.6017 3.613-1.2033 1.204 0 4.816 0.6017 7.225 0.6017h2.408c3.01 0 6.021 0 8.429 0.6016h0.602c1.204 0 1.807 0 1.204-0.6016v-0.6017l1.205-0.6017c1.204 0.6017 1.806 0.6017 2.408 1.2034 1.204 1.2033 2.408 2.4067 4.817 0.6016 0.602-0.6016 1.806 0 3.01-0.6016 1.806-0.6017 3.011-1.8051 4.215 0l0.602 1.2033c1.204 1.2034 3.01 1.2034 4.214 0.6017l0.602-0.6017c3.011-2.4067 6.021-3.0084 10.236-1.805 2.408 0.6017 4.817 2.4067 7.827 0 1.204-0.6017 4.215-0.6017 5.419 0s2.408 1.805 4.214 1.2033l1.807-0.6016c1.204-0.6017 2.408-1.8051 2.408-2.4068 0-0.6016 0.602-2.4067 1.806-2.4067l0.602 0.60167 1.205 1.2034c1.204 1.2033 3.01 2.4067 4.816 3.0084 1.807 0 6.623-1.2034 7.827-1.8051 1.205-0.6017 5.419 1.8051 6.623 2.4067 1.205 0.6017 4.215-0.6016 5.419 0l1.806-1.2033 1.204-1.2034c1.807 1.2034 4.817 1.8051 6.021 1.8051 1.205 0 3.613-1.8051 4.215-0.6017 0.602 1.2033 4.817 0.6017 6.623 0s7.225 1.805 9.031 1.805c1.807 0 5.419-1.805 6.623-2.4067 1.806 1.805 3.613 0 5.419 0l1.806 0.6017c1.806 1.2033 3.613 0.6017 3.613-1.2034l3.01 0.6017c1.806 0.6017 3.613 0.6017 5.419 0.6017 3.612 0.6017 7.225 1.2033 10.235-1.8051l0.603-0.6016c1.204 0 4.214 0 7.225-0.6017l2.408 1.805 2.408 1.2034c0.602-2.4067 1.806-3.6101 2.409-3.0084 0.602 0.6017 2.408 2.4067 3.612 3.6101l1.204-1.2034 4.215-1.2034c1.806 0.6017 3.612 1.8051 5.419 2.4068 2.408 1.2033 4.21 1.805 6.62-0.6017l1.21-1.2034c2.41 0 6.02 0.6017 6.62 1.2034 1.2 0.6017 3.01-1.8051 3.61-1.8051l0.6 0.6017c0.61 1.2034 1.81 1.2034 3.62 0.6017h1.8c1.21 0 3.01 0.6017 3.62 0.6017 1.8-0.6017 3.01-2.4067 4.81-0.6017 1.21 1.2034 2.41-1.805 3.61 0 0 0 2.41 0 2.41-0.6017 0.61-3.0084 1.81-1.805 4.22-1.2033l2.41 0.6016c3.01 0 7.82 0 9.63 1.2034l1.81-1.2034 1.2 0.6017c0 0.6017 0 1.2034-0.6 1.8051l-0.6 0.6016c-1.21 0-1.81 0.6017-1.21 1.2034s4.22 0.6017 7.23-1.2034c3.01-1.805 9.03-7.8218 9.63-7.2201 0 0.60168 3.01 2.4067 6.02 2.4067h3.01c3.01 0 5.42-1.805 8.43 0.6017 0.6 0 4.82-0.6017 9.03-0.6017l3.61-0.60167c1.81 0 3.62-1.2034 4.82-1.2034 1.21 0 3.01 1.2034 4.22 1.2034h1.8c1.81-1.2034 5.42-1.805 7.23-1.805 1.8 0 7.22 1.805 9.03 0l3.01 0.60168h1.8c1.81-0.60168 4.82-1.2034 6.03-1.805l0.6 0.60168c3.01 1.805 6.02 0.60167 9.03 1.2034l3.01 0.60168c3.01-0.60168 7.22-0.60168 9.63 0h2.41c1.21 0 2.41 0.60167 3.61 0l8.43-1.805h1.21l4.81-0.60168h1.21 5.42c1.2 0.60168 5.42-1.2034 6.02-1.805 1.2-0.60168 5.42 0.60167 7.22 1.2034l1.81-1.2034c1.2-0.60168 3.01-0.60168 4.21-1.2034l0.61-0.60167c0.6-1.2034 0.6-1.805 0.6-1.2034l0.6 0.60168c0.6 0.60168 1.2 1.2034 1.81 1.2034 1.2 0 1.8-2.4067 3.61 0l0.6 0.60168c1.81 0 3.61-0.60168 3.61-1.805 0-0.60168 1.21-1.2034 2.41 0 1.21 1.2034 4.82 3.6101 6.02 3.0084 1.21-0.60167 3.01 1.805 3.61 3.0084l1.21-0.60168c0.6 0 0.6-1.805 1.2-3.0084 0 0 3.01-1.2034 6.02-1.805l6.02-1.2034c3.62-0.60168 7.83-1.2034 9.64-1.805 1.8 0 7.22 1.805 8.43 1.2034h2.41c2.4 0 3.01 0 1.8 1.2034v1.2034c0 0.60168 1.21 1.2034 2.41 1.2034l0.6-0.60168c2.41-1.805 2.41-1.805 3.61 0 0.61 0.60168 1.81 2.4067 1.21 2.4067-1.21 1.2034-1.21 1.805 0 2.4067l1.81 1.2033c1.8 1.2034 1.8 2.4067 0 3.6101-1.81 0.6017-6.63 6.0167-5.42 10.228h7.22c0.6 1.2033 0 3.61-0.6 5.4151-0.6 1.805-6.02 4.8134-6.62 5.4151-0.61 0-1.21 1.2033-1.21 1.805s-1.2 3.6101-3.61 4.2117l-2.41-1.2033h-0.6c-1.2 0.6017-2.41 1.805-3.01 3.0084 0 0.6017 1.2 3.61 4.82 4.2117l1.2-3.61h1.81c0 2.4067 2.4 2.4067 4.21 2.4067h3.01c1.21 1.805 2.41 3.61 2.41 3.61-1.2 1.2034-2.41 2.4067 0 3.0084h0.6c1.21-1.2033 2.41-1.805 3.01-1.805v0.6017c-0.6 1.2033-1.2 2.4067-1.8 3.61l-0.61 1.2034c0.61 1.2033 3.01 3.0084 4.82 3.61l-3.61 0.6017c-1.81 0-4.22 0.6017-3.61-1.805-0.61 0-1.21 0-1.81 1.2033-0.6 1.2034-0.6 4.2118 1.81 5.4151l3.01-1.2033c1.8-0.6017 6.02-2.4067 7.82 1.2033v0.6017c2.41 0.6017 3.62 1.2034 3.01 1.2034-0.6 0.6016-3.61 3.61-5.42 5.4151l-6.02-0.6017h-0.6c-0.6 0-0.6 0.6017 0.6 0.6017 1.21 0 1.21 2.4067 1.81 2.4067s2.41 0.6016 2.41 1.805 1.2 4.2117 1.8 4.2117c1.21 0.6017 4.22 0 4.82-1.2033l0.6-1.2034c0.61-0.6016 2.41-1.2033 3.01-1.2033l3.01 1.805c3.01-1.2033 6.03-1.805 6.63-2.4067 0.6 0 3.01 2.4067 3.61 6.0168l-2.41 2.4067s0.6 0.6017 1.21 1.2033c0.6 1.2034 0.6 2.4067-1.21 2.4067h-3.01c-1.2 1.8051-2.41 4.2118-3.01 4.8135l1.2 1.2033c0.61 0.6017 0.61 2.4067-1.8 1.2034-1.21-0.6017-3.61-0.6017-4.22 0-2.4 1.805-3.01 0-4.81-0.6017l-0.6-0.6017c-1.21 0-2.41 0-2.41 0.6017s2.4 2.4067 6.02 2.4067h3.61c0.6 0.6017 0.6 1.805 0 1.805-0.6 0.6017-3.01 0.6017-5.42 0.6017v4.8136c-2.41-0.602-4.21-1.805-4.21-2.407s-0.61-2.4066-2.41-1.805l-1.21 0.602c-0.6 0.601-0.6 2.406-0.6 3.008l0.6 1.805c2.41 0 6.02 0.602 8.43 0.602l-1.2 1.805-1.81 2.407c1.81 1.805 3.01 3.61 3.62 4.211 0 0.602 0.6 0 0.6-1.203 0-1.805 3.01-7.22 3.61-8.423l2.41 0.601c0.6 0 1.2 0.602 1.2 0.602 6.63 0 7.83 0 12.04 1.203 0.61 0 1.21 1.805 3.01 0.602l3.62-1.805c1.2 2.407-3.01 4.212-8.43 3.008h-2.41c-1.2 0-1.81 0-3.01-0.601-2.41-1.805-3.61 0-4.22 1.203-0.6 0.602-0.6 2.407 1.21 1.805l4.82-0.602c-0.61 2.407 1.2 3.009 4.21 1.204l2.41-0.602 3.01-0.602c3.61 0.602 6.02 2.407 6.02 4.212 0 1.203 2.41 6.017 6.02 7.822l4.22-1.805h1.8l2.41 0.601c3.01 0.602 7.22 0.602 9.63 1.204l2.41 0.602h0.6c0.61-0.602 2.41-0.602 4.22-0.602l1.2 1.203 1.21 1.204c1.2 1.203 2.4 3.008 2.4 3.61 0 0.601-0.6 2.406-0.6 3.008s1.21 1.805 4.22 0.602c2.41-0.602 9.63-1.805 9.03-2.407s-1.81-2.407-2.41-3.008c-0.6-0.602-2.41 1.805-3.01 2.406h-3.01c-1.2 0-3.01-1.805-3.61-3.61l1.2-1.805c0.6-0.601 1.21-1.203 1.81-1.203l1.8-0.602c2.41-0.602 4.22-0.602 4.22 0.602 0 0.601 1.8 2.407 3.01 2.407 1.2-0.602 5.42-1.805 6.62-1.204 1.21 0 4.82 1.204 4.22 3.009-0.61 1.805-3.01 6.618-4.22 6.618-0.6 0-3.01 1.203-2.41 1.805 0 0 0 1.203-0.6 1.805s-3.01 2.407-2.41 2.407c0.6 0.601 1.81 2.407 0.6 3.61-0.6 1.203-4.21-0.602-4.81 0-0.6 0-1.21 1.203 0 1.805 1.2 0.602 3.01 1.203 3.61 1.203l1.2 0.602 1.81 1.203c3.61-0.601 6.62-1.805 7.23-3.008l1.8 1.203c0.6 0.602 2.41 1.204 3.01 1.204h1.21c1.2-1.204 2.41-0.602 1.8 0 0 1.203-1.2 4.211-1.8 5.415-0.61 1.203-4.22-0.602-4.82-0.602-0.6-0.602-2.41-1.203-3.61-0.602l-1.81 0.602c-1.8 0.602-4.82 1.203-1.8 3.61 0 0-0.61 1.203-1.21 1.805-1.2 0.602-2.41 1.203-3.01 1.805l-1.81 1.203c1.21 1.806 4.22 4.814 5.42 6.017 1.81 1.204 0.61 9.025 0 11.432l-0.6 2.407c-0.6 1.203 0 2.407 2.41 2.407h0.6c0.6 0.601 1.21 1.203 1.21 1.805 0 0.601-3.01 1.203-5.42 2.406l-1.81 0.602-2.41 0.602c-0.6-1.204-0.6-3.009-0.6-3.61l-1.2-0.602c-3.01-1.805-4.22 0.602-5.42 1.203l-1.21 0.602c-0.6 1.805-1.8 4.212-1.8 5.415s-4.22 1.203-7.23 1.203l0.6-3.61c-0.6 0-2.4-0.601-3.61-0.601-1.2 0-5.42 0.601-6.02 1.203s-3.01 3.008-3.01 1.805c-0.6-0.602-2.41-1.203-4.82-0.602-1.8 0.602-7.22 0.602-7.82 0-0.61-0.601-2.41-1.203-3.62 0l-1.2 0.602-0.6 0.602c-1.21 0-1.81-1.204-1.81-1.805v-1.204c0-0.601-1.2-0.601-2.41-0.601h-1.2s0.6 0.601 0.6 1.203-1.81 2.407-3.61 1.805l-1.81 0.602c-1.8 0.601-2.41-1.204-1.8-3.009v-0.601c0-1.204-1.81-1.204-3.01 0l-0.61 0.601-1.2 2.407c3.01 1.805 5.42 3.61 6.62 4.212 0.6 0.601 4.22 0 5.42-0.602 1.21-0.602 6.02 0.602 5.42 1.203-0.6 0.602-1.2 2.407 0.6 1.805 1.21-0.601 4.82-2.406 5.42-1.805 0 0.602 1.81 3.009 1.81 3.61 0.6 0.602 1.2 2.407-1.21 1.204h-1.2c-1.21 0-3.01 1.203-3.01 1.203-3.01-1.805-6.62-0.601-9.64-1.805l-0.6-0.602c-1.8 0.602-4.21 0.602-5.42 1.204-3.01 1.805-3.01-1.204-4.21-1.204l-1.81-0.601c-2.41-0.602-4.21-0.602-4.21 0s-1.81 2.407-3.01 1.805h-4.22c-3.61 0-7.82 0-9.63 0.602-1.81 0.601-8.43 1.203-9.63 0-1.21-1.204-5.42-3.611-6.02-3.009-0.61 0.602-3.01 4.212-4.22 4.212-1.2 0.602-6.62-0.602-7.83 0-0.6 0.602-4.21 0.602-6.02-0.602l-1.8-1.203s-1.81 0.602-2.41 1.203v0.602c0.6 1.203 0 1.805-0.6 1.805-1.21 0-4.82 0-4.22-0.602 1.21-0.601 1.81-1.203 0-1.805h-1.8c-0.61-0.601-2.41-1.805-3.62-2.407-1.2-0.601-5.42 1e-3 -4.81 1.806 0.6 1.805-0.61 6.016-1.81 6.016s-4.21-1.805-4.82-3.008c-0.6-1.203 3.62 0.602 3.62 0.602 0.6 0 1.2-0.602 0.6-1.805-0.6-1.204-3.61-1.805-4.82 0l-1.8 0.601h-1.21c-1.81-1.203-6.02-0.601-9.03 1.204l-4.82-2.407-2.41-1.203c-4.21 0.601-7.82 1.805-7.82 3.008-0.6 1.203 0 3.61 0.6 4.212 0.6 0.601 0.6 2.406-1.81 3.61l-1.8-0.602-1.81-0.602c-1.81-2.406-1.2-3.61 0.6-3.61 1.81 0 0-4.813-1.2-4.813-1.21 0-4.82 1.203-5.42 1.203h-6.02c-2.41 0-9.03 0.602-9.03 1.204 0 0.601 0.6 2.406 1.2 2.406h0.6l1.81-0.601c1.81 0 4.21-0.602 4.82-0.602 0.6 0 2.41-0.602 3.01-0.602s2.41 1.805 1.8 2.407c-0.6 0.602-4.81 3.61-6.62 3.61h-4.21c-0.61-1.203-1.81-2.407-3.01-2.407h-0.61c-1.2 0.602-3.61 1.204-4.81 1.204h-1.81l-0.6-0.602v-2.407h2.41c1.2-1.203 0-3.61-2.41-5.415l-1.81 0.602c-1.8 0.602-3.01 0.602-4.21-0.602-1.81-1.805-4.22-2.406-4.22-1.203s-3.01 3.61-6.02 3.61h-3.61c-1.2 0.602-9.03 1.203-16.86 1.805l-7.22-1.203h-1.81c-1.81 0.601-4.21 1.203-6.02 1.203h-1.2c-1.21 0-3.02-0.602-4.22-1.203 0 0-1.2 0-1.2 0.601v1.204l1.8 1.203c2.41 1.203 5.42 1.203 7.23 0h3.61c1.2 0 1.81 0 1.81 0.602 0 0.601-0.61 2.406-1.21 3.008v0.602l-0.6 2.406c1.81-0.601 3.01 0 3.01 0.602-0.6 0.602-2.41 0.602-3.61-0.602-1.21-1.203-6.02 0.602-7.23 0.602-1.2-0.602-4.81-0.602-4.81 0.602 0 1.203-0.61 3.61-1.81 3.008 0-1.805 0-3.008-1.81-4.212l-0.6-0.601c-1.2 0-1.8 1.203-1.8 2.406h-2.41c-2.41 0-4.22 0.602-6.63 1.204-0.6 0-1.8-1.805-3.01-2.407l-1.8-1.805c-0.6 1.203-1.81 2.407-2.41 3.008-0.6 0.602-1.81 1.204-2.41 0.602s-1.81-1.805-1.81-1.805c-0.6 0-1.8 1.203-2.4 1.805-0.61 0.602-5.42 1.203-4.82 0.602 0.6-0.602 1.81-1.805 0.6-1.805-1.2 0.601-4.82 0-6.62-1.805l-3.01 1.805c-0.6 0.601-1.81 0-3.01 0-2.41-0.602-2.41-0.602-3.01 1.805 0 0.601-0.6 1.805-0.6 1.805h-2.41c-1.81 1.203-3.62 2.407-4.22 1.805-0.6 0-3.01-1.203-4.81-2.407-1.81-0.602-7.83-1.203-9.64 1.204h-7.22c-3.01 1.203-6.02 1.805-6.02 0.601 0-1.203-2.41-3.008-4.82-3.61l-1.2 2.407-0.61 0.602c1.81 0.601 1.81 1.805 0.61 1.805h-1.21l-2.41 0.601c-1.8-1.203-4.21-2.406-5.42-2.406-1.2 0-5.415 1.203-5.415 2.406-0.602 1.204-0.602 4.212 0 4.212 1.205 0 3.613 1.203 3.613 1.805s-1.806 2.407-3.613 2.407h-1.204l-3.01-0.602c-0.602-2.407-1.806-3.61-2.408-2.407-1.205 1.204-6.021 4.212-7.828 4.212-1.806 0-3.612-4.212-4.816-3.008-1.204 1.203-4.215 1.805-4.215 0.601v-3.61h1.204c0.602 0.602 1.807 0 3.011-0.601 1.204-1.204-1.204-4.212-2.409-3.61h-1.204c-3.01 0-1.204 1.805-3.01 2.406-1.204 0.602-2.409 0.602-2.409-1.203v-0.602c0-0.601-3.612 0-7.827 1.805l-4.214 1.204-3.011 0.601h-2.408c1.806 0 0.602-4.211-4.215-4.211h-5.418c0.602 2.406-1.205 3.61-3.011 3.008l-1.204 0.602c-2.408 1.203-2.408-1.204-3.613-1.204-1.204 0-2.408-0.601-3.01-0.601-2.408 1.203-4.215 0-6.021 0h-1.806-1.806c-0.602 1.203-1.205 1.805-1.807 1.805s-3.01 0.601-3.01 2.406c0 1.204 4.215 4.212 3.612 4.814 0 0.601-1.204 3.008-1.204 3.008s-1.204-1.203-1.204-1.805l-0.602-1.203c0-0.602-1.204-1.204-1.806-1.204h-0.602c-0.602 0.602-1.204 1.805-1.204 2.407 0 1.203-3.011 1.805-3.011 1.203-0.602-0.601-1.204-2.406-0.602-2.406s1.806-1.204 1.806-3.009c0.602-1.805 1.204-6.016 0.602-6.618h-0.602c-1.806 0-1.204 0.602-0.602 1.203 0 0 0 0.602-0.602 1.204-0.602 0.601-1.806 0.601-1.806 1.203v1.805c0 1.805-1.204 4.212-3.011 4.212h-1.806c-0.602 0-1.204-0.602-1.204-1.204 0-0.601 0.602-1.203 1.204-1.203h2.408l0.602-0.602c0.603-0.601-0.602-3.008-1.806-4.211-1.204-1.805-9.633-0.602-13.848 1.203l-3.612-0.602c2.408-1.203 3.01-2.406 1.806-3.61-1.204-0.601-6.623-4.212-7.827-4.212h-1.204c0 0.602 1.204 3.009 3.01 4.814l3.011 0.602 3.612 0.601c0-0.601-2.408-0.601-6.623 0-3.612 0.602-12.041 3.009-11.439 3.009s-0.603 1.805-3.613 3.008l-0.602-3.61c0-1.203-1.204-1.805-1.806-2.407l-0.602-0.601c-1.205 0-1.807 0-1.807 0.601v0.602l0.602 2.407c-2.408 0.601-4.214-1.805-4.214-5.415l3.612-2.407 1.807-1.204c1.806 0.602 3.612 0.602 3.612 0.602 0.602 0 0-1.805-2.408-2.407l-2.409-0.601c-1.204 0-3.01-0.602-3.612-0.602-0.602 0.602-0.602 1.805-1.204 3.008l-0.602 1.806c-1.807-0.602-2.409-1.805-2.409-3.611 0-1.805-1.204-6.016 0-6.618 1.205-0.602 5.419 1.203 6.021 1.203h0.602c1.807 0 2.409-0.601 2.409-1.805 0-0.601 2.408-1.203 0.602-2.406l-0.602-0.602c-1.205-0.602-4.817 0-8.43 0l-3.01 0.602h-1.806c0.602 1.203-0.602 4.813-2.409 7.22v1.203c0 0.602 0.602 1.203 0.602 1.805l1.807 0.602c2.408 0.601 4.214 1.805 4.816 3.008v1.805c0 0.602-0.602 2.407-1.204 3.009-0.602 0.601-3.612 1.805-4.816 0.601-1.205-1.203-4.215-3.61-4.215-3.008s-3.011 3.008-4.215 2.407c-1.806-0.602-5.418-2.407-6.02-1.805-0.603 0.601-2.409 1.805-3.613 1.805h-0.602l-1.204 0.601c-1.204 0-3.011-0.601-3.613-1.203s-2.408-1.203-3.612-0.602c-1.204 0.602-4.817 1.805-6.021 2.407-1.204 0-4.817-1.805-6.623-3.008l-2.408 1.805c-1.807-0.602-4.215 0-5.419 0.601-1.204 1.204-2.409 5.415-2.409 4.814 0-0.602-1.806-1.204-3.01-0.602s-4.817 3.008-4.817 2.407l-0.602-0.602-1.204-1.203c0.602-1.805 0.602-2.407 0-1.805-1.204 0.601-4.215-2.407-6.021-3.009-1.806-0.601-7.225-1.805-7.225-1.203s0 2.407-1.204 2.407l-1.204 0.601c-0.602 0.602-1.204 1.805-1.806 2.407-1.205 0.602-2.409 0.602-2.409-1.203v-0.602c0-0.602-1.204-1.203-3.01-0.602-1.806 0.602-6.021-1.203-6.623-0.601 0 0.601-1.204 2.406-2.409 1.805-0.602 0-2.408 1.805-3.01 2.406 0 0.602-1.204 1.805-2.408 1.805h-4.215c0.602 0.602 0.602 1.805 0 1.805h-3.612c-1.807-2.406-3.011-4.813-3.011-5.415 0-0.601-1.204-1.203-1.806-0.601-0.602 0.601-1.806 3.008-0.602 4.813 0.602 1.203 1.204 4.814-0.602 4.212-1.806 0-6.623-2.407-7.225-4.212s-4.215-5.415-4.817-5.415c0 0-1.204 0.602-2.408 0.602h-3.011c0.602-1.204 1.204-2.407 0.602-2.407-0.602-0.602-1.806-1.203-2.408 0 0 0.602-1.204 2.407-2.408 1.805s-3.613-1.203-3.613 0 1.806 3.61 2.409 4.212c0.602 0.601-1.205 1.805-2.409 1.805l-0.602-0.602-6.021-3.61c-3.612 4.212-7.225 7.22-8.429 6.618-1.204-0.601 0.602-3.61 0.602-4.211 0-0.602 0.602-3.009 2.408-3.009 1.807 0 1.205-3.61-1.204-2.406-2.408 1.203-8.429-1.805-9.031 0.601-0.602 1.805-5.419 6.619-5.419 7.22l-1.204 1.204c-0.602 0.601-1.204 0.601-1.806 0.601 0-0.601-2.409-1.805-3.613-2.406l-1.204-0.602-0.602-0.602c-0.602-1.203-2.408-1.203-3.613 0-1.204 1.204-4.214 3.61-4.816 3.009-0.602-0.602-1.204-1.805-0.602-1.805l1.204-1.204c0.602-0.601 0-1.805-0.602-2.406h-3.011c-1.806 2.406-3.01 4.813-1.806 4.813s2.408 1.203 1.204 2.407c-1.204 1.203 1.807 4.212 1.204 4.813-0.602 0.602-3.01 3.009-4.214 3.61h-1.204c0-0.601 0-3.008 0.602-4.211l-1.806-0.602-1.807-0.602c0-1.203 0.602-1.805 1.807-2.406h1.806c0.602 0 0-0.602-1.806-1.806v-1.805c1.204-1.805-1e-3 -3.008-3.011-3.61l-1.204 0.602c-1.806 1.203-3.613 1.805-4.817 0.602l-1.204-0.602c-1.204-1.203-3.612-2.407-5.419-1.805l2.409 1.805h0.602c-0.602 1.203-3.011 3.008-4.817 3.61l-1.204-1.203c-1.806-1.805-3.613-1.805-6.623-0.602-1.806 0.602-3.613 0.602-6.021-1.203l-1.806-1.204c-3.011-0.601-6.021 0.602-6.623 1.805-0.602 1.805 3.01 4.212 1.806 4.212s-3.612-1.203-3.612-2.407c0.602-1.203-1.205-5.415-2.409-4.813-1.204 1.203-4.816 2.407-5.419 1.203l-0.602-0.601h-2.408l-0.602 1.203 1.806 1.203c1.806 1.204 3.613 3.009 4.817 3.61 1.204 0.602-3.011 3.009-6.623 4.814l-3.01 0.602c-3.011 0.601-6.021-0.602-9.032-2.407l-2.408-1.805c-2.408 1.203-4.817 3.61-5.419 4.212l-0.602-0.602-1.204-0.602c-1.806 0-3.011 0-3.613-0.601 0-0.602 0.602-1.204 1.205-1.204 3.612-0.601 7.827-1.203 11.439-1.805 0.602-0.601 0-1.805-1.806-2.407-1.204-0.601-5.419-2.406-6.021-1.805 0 0.602-1.204 2.407-2.408 1.204-0.602-0.602-2.409-3.009-1.807-3.61 0.602 0 1.807-1.805 1.807-3.61l-2.409-0.602-1.806-0.602c-1.806 0.602-4.215 1.204-4.817 1.805v0.602l0.602 1.203c1.205 1.204 0.603 2.407-1.806 2.407l-1.806-0.602c-0.602 0-1.806-0.601-2.408-1.203-0.602-1.203-1.205-2.407-1.807-3.61 0-0.602-0.602-0.602-1.204-0.602h-0.602l-1.806 0.602c-1.806 0.602-2.408 2.407-1.806 3.61s0.602 5.415 0.602 7.22 0 5.415-4.215 4.814l-3.612-1.204-1.807-0.601c-0.602 1.203-2.408 2.406-4.214 3.008h-1.204c-1.205 0-1.807-1.805-3.011 0-1.204-0.602-1.806-1.203-1.806-2.407h0.602c1.806 0 2.408-1.203 1.806-1.805l-0.602-0.601c-1.806 0-3.612 0.601-3.612 1.203s-0.603 3.61-1.205 4.212h-1.806v-3.009l-0.602-0.601c-1.204-1.204-1.806 0-2.408 0.601l-1.807 1.204c-2.408-0.602-3.612-1.204-1.806-1.805l1.204-0.602c0.602-0.602 0.602-1.203 0.602-1.805s-1.204-0.602-1.806-0.602c-1.204 0-1.806 0.602-3.01 0.602s-3.613 1.203-4.215 0.602c-2.408-1.806-3.612-0.602-5.419 0.601-1.204 0.602-4.214 0-4.816-1.203 0.602-0.602-0.602-1.204-3.011-2.407-2.408-0.602-7.827 1.805-6.021 1.805l0.603 0.602 0.602 0.602c0 1.203-1.205 1.805-3.011 1.805-1.204 0-7.225 0-10.837 1.805h-6.623c-1.807-3.61-4.215-6.017-4.817-4.212s-2.408 4.813-3.01 3.61l-0.603-0.602c-0.602 0-1.806 0-2.408 0.602l-1.204 0.602c-1.204 1.203-3.01 1.805-4.215 1.203-1.204-0.602-3.612-2.407-3.01-3.008 0.602-0.602 2.408-1.204 3.01-0.602s2.409 1.805 3.011 0l5.419 7.22c-1.807-1.203-4.215-1.805-4.817-1.203-0.602 0.601-1.806 2.406-2.409 3.61-0.602 1.203-0.602 2.406-1.204 2.406-0.602 0.602-0.602 1.805-2.408 1.204-1.204-0.602 0.602-3.61 0-4.212 0-0.602-1.204-1.203-1.806-1.203s-1.806 1.805-2.409 2.406l-1.204-0.601c-0.602 0-1.806-0.602-1.806-0.602-1.806 1.203-3.01 2.407-5.419 1.203-2.408 0.602-6.623 1.805-8.429 1.805h-6.021c-1.806-2.406-2.408-2.406-2.408-0.601s-1.806 6.618-3.613 6.618c-2.408 0-5.419-4.813-5.419-6.618l-2.408 0.601h-0.602c-0.602 1.204-1.806 1.805-2.408 1.204-0.602-0.602-3.011-2.407-3.613-1.805-0.602 0.601-0.602 3.008 0 3.61 0.602 0.601 0.602 2.407-1.204 3.61l-3.01-0.602-3.011-0.601c-2.408-1.204-4.817-2.407-4.817-2.407s-0.602-1.805-0.602-2.407l-0.602-0.602c-0.602-0.601-2.408-1.805-3.01-1.203-1.204 0.602-1.204 1.805 0 2.407 1.204 1.203 1.204 1.805-0.602 2.406-0.602 0-1.806-0.601-1.806-1.203l-1.807-1.203c-1.204-1.204-3.01-1.805-4.214-0.602-1.204 0.602-4.215 4.212-4.817 4.212s-3.01 0-3.01-0.602 1.204-1.805 0.602-2.407c-0.602-1.203-2.409-0.601-3.011 0-1.204 1.204-3.01 1.805-3.01 3.009-0.602 3.008-1.806 0-3.011 0.602l-2.408 1.203c-1.204 2.407-2.408 3.61-3.01 3.008-0.602-0.601-0.602-3.61 0.602-4.211l1.204-0.602c0.602 0 1.204-0.602 1.204-0.602 0-0.602-0.602-1.203-0.602-2.407 0-1.203-0.602-1.805-0.602-3.008 0-0.602 1.204-1.203 0.602-1.805l-1.204-1.805c-2.409 0.602-4.215 1.203-4.215 1.805 0.602 0.602 0.602 4.813 0 8.424l-4.816 0.601-4.215 0.602c-4.215 2.407-7.827 3.61-9.031 2.407-0.602-1.204-3.613-3.009-4.215-1.805-0.602 2.406 1.806 1.805 3.01 2.406 0.603 0.602 1.205 0.602 1.807 1.204 0 0.601 0.602 1.203 0 1.805-0.602 0.601-1.807 0.601-1.807 0.601l-1.806-1.203c-1.204 1.203-3.01 1.805-3.612 1.805h-0.602c-1.205-0.602-3.011 0-2.409-1.805 0-0.602 0.602-1.203 1.204-1.203h1.205c1.806 0 1.806-1.805-0.602-4.814l-1.807-1.805h-1.204v0.602l0.602 0.602v0.601c0 0.602-0.602 1.805-1.806 1.805h-0.602l-1.204-0.601c-1.807-1.204-3.011-1.805-3.613-1.204 0 0.602-3.01 1.204-5.419 0l-2.408-0.601c-0.602 0-1.204 0.601-1.806 1.203l-0.602 0.602c-0.602 0.601-2.409 0.601-4.215 1.203l-3.01-1.203c-2.409-1.204-3.613 1.203-6.021 0.601-1.806-0.601-4.215-0.601-6.021 0-1.204 0.602-1.806 0.602-3.011 0-1.204-0.601-4.214-0.601-5.418 0-1.806 1.805-2.409-0.601-3.613-0.601-1.806 0.601-1.806 1.203-1.204 2.406 0.602 0.602 2.408 1.204 0 1.805-0.602 0-1.806-0.601-1.806-1.203l-0.602-1.805c-1.204-2.407-1.807-3.61-2.409-3.008 0 1.203-1.204 3.008-1.806 2.406-0.602-0.601-4.214-1.805-5.419-1.203-1.204 0.602-5.418 1.203-7.827-1.805l6.623-1.204h1.204c1.205 0 1.807-1.203 1.204-1.805-0.602-1.203-4.816-0.601-5.418-1.805 0-0.601-2.409-1.805-4.215-1.203s-7.225 3.008-7.827 2.407c-0.602-0.602-2.408-2.407-3.01-1.805-0.603 0.601-1.807 3.61-2.409 4.813l3.011-0.602 3.01-0.601c0 1.805 1.806 2.407 3.011 1.203 1.204-1.203 5.418-3.61 5.418-3.008 0 0-1.806 1.805-4.816 4.212l0.602 3.61c0 0.601-1.807 1.203-3.011 1.805l-1.204 0.601h-3.612s-3.011-1.203-4.817-0.601c-1.806 0.601-6.021 1.805-5.419 2.406 0 0.602 0 1.805-1.204 1.805h-0.602c-1.204-1.203-2.408-2.406-3.613-3.61l-1.204-1.203c-1.806-0.602-4.214 0-6.021 1.203l-3.01-0.601-3.011-0.602c0.603-1.805 0.603-2.407 0-1.805-0.602 1.203-4.214 3.61-4.816 4.212-0.602 0.601-3.011 2.406-2.409 0v-1.805c-0.602-0.602-3.01-1.805-5.418-1.805-1.807 0-4.817 3.61-5.419 3.008h-0.602c-1.204 0-1.806 1.203-2.409 1.203h-3.612c0.602 1.204-1.806 1.805-4.817 1.204h-6.021c-2.408-1.204-4.816-1.805-5.418-1.204-1.205 1.204-3.011 1.805-3.011 0l-3.01 0.602c-1.204 0.602-4.215-1.203-4.215 1.805 0 0.602-2.408 1.203-3.01 0.602-1.204 0-3.011-1.204-4.215-1.204h-1.806c-2.408 0-3.613 0.602-2.408 1.204 1.204 0.601 2.408 1.805 0.602 0.601-1.807-0.601-6.623 1.805-7.827 1.204-0.603-0.602-2.409-2.407-2.409-3.009l-1.806 0.602c-2.408 1.203-5.419 1.203-8.429 0h-0.602c-0.602 0-1.205 1.203-2.409 3.008l-2.408-0.601c-1.204-0.602-2.408-1.805-3.613-2.407-0.602 0-1.806 0-2.408 0.602-0.602 0.601-0.602 1.805-1.204 1.805l-2.408 0.601c-3.011 0.602-6.623 0.602-7.225 1.204-1.205 0.601-4.817-1.204-4.817-1.805 0-0.602-1.204-2.407-1.806-2.407-0.602 0.602-1.807 1.805-2.409 3.008-0.602 1.204-4.214 3.009-3.612 3.009h1.204c0.602 0 0 0.601-1.806 1.203l-1.205 0.602c-0.602 0.602-1.204 1.805-1.204 2.407l2.409 1.203c-0.602 1.805-0.602 4.212 0 4.813 0 0.602-0.602 2.407-1.807 1.805-1.204-0.601-4.214-1.805-3.01-2.406 1.204-0.602-0.602-3.61-1.204-3.61-1.204 0-3.613 0.601-3.011 1.203v0.602 2.406c-1.204 0.602-2.408 0-2.408 1.805s-1.806 1.204-3.0104 0.602c-2.4084-1.203-4.8167-3.008-6.623-4.212l-1.2041-0.601c-1.2042 0.601-1.8063 1.805-1.8063 3.008h1.8063c0.602 1.203 0 1.203-1.8063 1.203-1.8062-0.601-7.225-1.805-6.0209-2.406 0.6021-0.602 1.8063-2.407 0.6021-3.009l-0.6021-0.601c-0.602-0.602-1.2041-1.805-0.602-2.407 1.2041-1.203 2.4083-0.602 3.0104 0.602l1.8062 2.406c3.6126 1.204 7.2251 1.204 8.4292 0.602v-0.602l-0.602-2.406c-0.6021-2.407-1.8063-4.212-2.4084-4.212s-0.6021-1.204 0-1.204 3.6125 0.602 3.6125 1.204c0 1.203 1.2042 3.61 2.4084 3.61h0.6024c1.204-0.602 2.408-1.805 3.612-2.407 0.602 0 1.204 0.602 0.602 1.204v0.601l-0.602 2.407c2.409 0 4.817-1.203 4.215-3.008l0.602-1.204 0.602-1.203c1.806-1.805 1.806-1.805-0.602-1.204h-3.011c-1.806-1.203-3.01-1.805-3.612-1.203s-0.602 2.407-0.602 2.407l-0.602-0.602c0-0.602-2.4086-3.008-4.2149-3.008-1.8062-0.602-6.6229 2.406-7.225 1.203l-0.6021-0.602c-0.6021 0-1.8062 0.602-2.4083 0.602l-3.0104 1.805c-3.6126 1.203-6.623 3.61-6.623 4.212s-1.8062 3.61-3.6125 3.61l-1.2042-0.602c-1.2041-0.601-0.602-1.805 1.2042-2.406h0.6021c0.6021-0.602 1.2042-2.407 1.8062-3.611h0.6021c2.4084 0 3.0105-1.203 1.8063-2.406-0.6021-0.602-3.0104-0.602-4.2146 0l-1.8063 1.203c-2.4083 0-3.6125-0.602-2.4083-2.407l0.6021-1.203v-0.602c-1.2042-1.203-3.0105 0.602-3.0105 3.61l-3.6125 1.204h-0.6021c-0.602 1.203-1.2041 1.203-1.8062 0h-0.6021c-2.4083 0-4.2146-2.407-6.6229-1.204-0.6021 0-1.8063 2.407-2.4084 0 0-0.601-1.2041-1.805-0.6021-2.406 0.6021-0.602 1.8063-1.204 3.0105-1.805l4.2146 1.805c1.2041 0 2.4083 1.203 3.6125 0.601l1.2041-0.601c1.2042-1.204 1.8063-3.009 1.8063-3.61 0-1.204-0.6021-3.009-1.8063-1.204l-0.602 0.602c-0.6021 0.602-1.8063 0.602-1.8063 0.602-1.8062-2.407-3.6125 1.203-6.0208-0.602-1.8063-1.805-4.2146 0.602-6.623 1.203h-2.4083c-3.0105 0-3.6125 1.805-1.2042 4.212l3.0104 1.203c1.2042 0.602 1.8063 1.805 0.6021 2.407s-1.8062 2.407-3.6125 1.204c-3.0104-1.806-7.8271 0-9.6334-3.611v-0.601c-3.0104 0-4.2146 0.601-3.6125 1.203 1.2042 0.602 2.4084 1.203 2.4084 1.805h-0.6021l-2.4084 0.602c-3.0104 0.602-8.4292 1.805-12.042 2.407l-1.2042-4.212c-1.2041 0-1.8062-0.602-1.2041-0.602l0.6021-0.602 1.2041-0.601c1.8063-0.602 2.4084-1.805 1.2042-2.407s-7.225 0-9.0313 0.602h-4.2146c-1.2042-1.805-3.0104-4.212-3.6125-4.814-1.2042-0.601-1.8063-3.008 0.60209-3.008 1.8063 0 4.2146 4.813 4.2146 4.813h0.60208c0.60209 0 1.2042-0.601 1.2042-1.203l0.60209-1.805c0.60208-2.407-0.60209-3.61-2.4083-3.61-1.8063 0-5.4188-2.407-6.0209-1.805-0.60209 0.602-2.4083 2.407-3.0104 1.805h-0.60209c-0.60209 0-2.4083 0.602-2.4083 1.203l0.60209 1.204c-0.60209 1.805-2e-5 3.61 0.60207 4.211l1.2042-0.601h0.60209c0.60208-0.602 1.2042-0.602 1.2042 0.601 0 1.204-1.2042 3.009-2.4083 2.407s-6.0208-1.203-7.225-0.602c-1.2042 1.204 0.60207 4.212 0 4.212h-2.4084l-1.2041-0.602c-0.6021 0-2.4084 0.602-4.2146 0.602-1.8063 0-4.8167 1.203-4.2146 1.805s1.8062 3.61-0.6021 6.017l-4.2146-0.602c-1.2042 0-2.4084 0.602-3.6125 1.204-3.0105 0.601-3.6125 0.601-4.2146-2.407v-0.602c-2.4084-1.203-0.6021-5.415-4.2146-5.415-2.4084 0-5.4188 1.805-7.8272 3.61-1.2041 0.602-1.2041 0.602 1.2042 1.805 1.8063 0.602 3.0104 1.805 4.8167 3.61 0.6021 0.602 1.2042 2.407 1.2042 2.407l-1.8063 1.203c-0.6021-1.203-3.6125-3.008-6.0208-4.211l-2.4084-0.602c-0.6021 0-1.2042 0.602-1.8062 1.203l-3.0105 1.204c-0.6021 1.203-1.8062 1.203-2.4083 0.601 2.4083-3.008 1.8062-5.415-1.8063-7.821-0.6021-0.602-1.2041-1.204-1.8062-1.806-0.6021-0.601-1.8063-1.203-2.4084-1.203-1.8062 0.602-1.2041 1.805-0.6021 2.407 0 0.602-0.602 1.203-1.2041 1.203h-0.6021c-0.6021-0.601-1.8063-1.203-2.4084-1.805l-0.602-2.407c-0.6021-2.406-3.0105-5.415-5.4188-5.415l-2.4084 1.204c-0.602 0.601-1.8062 0.601-3.0104 0.601h-3.6125c-1.8063 1.204-4.8167 2.407-6.0209 2.407l-0.6021-0.602c-1.8062-1.203-2.4083 0.602-3.0104 1.204-0.6021 0.601-0.6021 1.805 0 2.406l1.8063 1.204c4.2146 0.602 4.8167 1.203 3.6125 1.805-1.2042 0-1.8063 3.008-3.0104 3.008h-0.6021c-1.2042 0-1.8063-1.203-3.0105-0.601-3.6125 0-3.0104-2.407-2.4083-3.009 1.8063-1.203-0.6021-3.008 1.2042-4.212l1.2041-1.203c1.8063-1.203 1.2042-2.407-0.602-3.61l-1.2042-0.602c-0.6021-0.601-1.2042-1.203-1.8063-1.203-1.8062-0.602-4.2144 3.008-6.0204 0l-1.205-1.805c-2.408 0-3.612-1.203-2.408-3.008l3.613 1.805 3.612 1.805c3.6126-2.407 7.8272-3.61 9.6335-3.009l0.602 0.602c0.6021 0.602 1.2042 0.602 2.4084 0s3.0104 0 4.2146 0c0.6021 0 1.2042 0.602 1.8063 0 4.2146-4.212 8.4292-0.602 12.042 0.602 0.6021 0 1.2041 1.203 1.8062 1.203h1.2042c1.2042 0 2.4083-1.203 2.4083-1.203 0-0.602 0-3.009 1.2042-3.61 1.2042-0.602 4.2146-2.407 4.8167-2.407s2.4083 0.602 2.4083 0.602-0.602-1.204-2.4083-2.407c-1.2042-1.204-5.4188-5.415-4.2146-5.415s3.6125 0.601 3.6125 0.601c0 0.602 0.6021 1.204 1.2042 1.204h1.2042c1.2041-0.602 2.4083 0 2.4083 1.203v1.203c0.6021 3.611 4.8167 3.611 7.225 4.814 1.2042 0.602 4.8167 0.602 4.2146-2.407-0.6021-1.805 1.2042-1.805 2.4084-1.805h2.4083c0-1.203-0.6021-3.008-1.2042-3.008 0-0.602-0.602-1.805-1.2041-3.009 0-0.601-1.2042-1.805 0-1.805 0.6021 0 3.6125 1.805 3.6125 4.212v2.407c0 0.601 1.2042 1.203 1.8062 1.203 0.6021 0 1.2042-0.602 1.8063-1.203v-1.204c0-1.203 1.2042-3.008 2.4083-3.008 1.2042-0.602 5.4188-0.602 6.0209 0.602 0.6021 1.203 4.2146 4.211 6.0209 3.008 1.8062-0.602 6.6229-1.805 7.225-0.602l2.4083 1.204c0.60208 0.601 1.2042 1.805 2.4083 2.406 2.4083-1.203 4.8167-1.203 7.225-1.203h0.60209c0.60208-1.203 1.2042-1.805 1.8062-0.602l0.60209 0.602c0 0.602 1.2042 0 2.4083 0l6.0208-0.602c1.2042-1.203 1.8063-2.406 0.6021-2.406-1.2041 0-4.2146-1.805-5.4187-1.204-1.2042 0.602-2.4083-2.406-3.0104-2.406-0.60208 0-1.8063-0.602-1.8063-1.204 0-0.601 1.8063-2.406 4.2146-3.008l2.4083 1.203 1.2042 0.602c1.2042 0.602 4.2146 0.602 6.0209-0.602l0.602 2.407c0 1.203 0 1.805 1.8063 2.407l1.8062 0.601c1.8063 1.204 4.2147 1.805 4.8167 1.204l1.2042-0.602 0.6021-0.602c0.6021-1.203 0-1.805-0.6021-1.203-0.6021 0-1.8063 0-0.6021-1.203 1.2042-1.204 2.4084-4.212 3.0104-4.212 0.6021 0 1.8063 1.805 3.0105 3.61 1.2041 1.805 9.0313 1.805 7.8271 1.203-0.6021-0.601-3.0104-1.805-3.6125-2.406-0.6021 0-2.4084-1.204-1.2042-1.204s4.8167-1.203 4.8167-1.805c0-0.601 1.8063-1.805 3.0104-0.601l-5.4187 4.813c4.2146 2.407 8.4292 3.008 9.0312 2.407 0.6021-0.602 1.8063-3.009 1.2042-3.009h-0.6021l-1.2041-0.601c-1.2042 0-2.4084-1.204-1.8063-1.805 0.6021-0.602 2.4083-1.204 3.0104 0 1.2042 1.203 5.4188 1.203 4.8167 0.601-0.6021-0.601-1.2042-2.406 0-0.601 1.8063 1.203 6.623 1.805 4.8167 1.805h-1.2042c-0.6021 0-1.2041 0.601-1.2041 1.203s1.2041 1.203 1.2041 1.203l1.8063-0.601c1.8062-0.602 4.8167-1.805 6.6229-3.009 1.8063-0.601 6.623-0.601 7.225-0.601 0.6021-0.602 1.8063-1.204 0-2.407l-3.6125 3.008c-3.0104-2.406-3.6125-4.813-2.4083-4.813h1.8062c1.8063 0 3.6126 0 5.4188 0.602l1.8063 0.601c1.8062 1.204 4.8167 1.204 6.6229 0 1.8063-1.203 6.0209-2.406 6.0209-1.203 1.2042 0 3.0104-0.602 4.2146 0h1.2041c1.2042 0.602 2.4084 0.602 2.4084 0s0.6021-3.009 1.2042-3.009c2.4083 1.806 4.8169 3.611 6.6229 5.416s3.613 1.805 5.419 1.805h0.602c0.602-0.602 0.602-1.805 0-2.407h-0.602l-3.613 0.602c-2.408-2.407-3.612-4.814-3.01-5.416 0.602-0.601 3.01-3.008 3.01-2.406 0 1.203 2.409 3.008 4.817 3.61l2.408 0.602c3.011 0.601 4.817-0.602 6.623-2.407l0.602-0.602c1.205 0 2.409-1.203 3.613-1.805s1.204 2.407 0 3.008h-1.806c-0.602 0.602-1.205 1.204-1.807 2.407 0 1.204 1.205 4.212 1.807 4.212s3.612-1.203 4.214-1.805 0.602-4.814 0.602-5.415l0.602-0.602h1.205c0.602 0 0.602 0.602 0.602 0.602-0.602 1.203-1.205 2.407-1.205 3.61 0 0 0.603 0.602 0.603 1.203l1.806 0.602c2.408 0.602 3.612 0.602 3.612-0.602l-0.602-0.601c-1.204-1.204-1.204-1.805 0.602-2.407 0.602 0 1.807 0.602 1.807 1.203l0.602 0.602c0 1.203 1.806 0.602 4.214 0l1.807-1.203 0.602-0.602c-0.603-1.204-1.205-2.407-1.807-2.407s-3.01-0.602-3.01-1.805 0.602-4.212 1.806-3.61v0.602l1.806 3.008c3.613 0 6.021-0.602 5.419-1.203v-0.602c-0.602-1.805 1.204-1.203 1.204-1.203l2.409 0.601c3.612 1.204 4.214 3.009 1.806 4.212l-1.204 0.602s-0.602 0.602 0 1.203c0 0.602 0.602 0.602 1.204 0.602 1.204-0.602 3.01-0.602 4.215-1.204 0.602-0.601 1.204-1.203 1.204-1.805l0.602-1.203c0.602-1.805 2.408-3.008 3.612-3.008s3.613 0.601 3.613 0.601-0.602 0.602-1.806 0.602c-1.205 0-3.011 2.407-1.807 4.212l1.205 1.203 0.602 0.602c0.602 0.602 1.806 0.602 2.408 0l1.204-1.204c0.602-0.601 1.806 0.602 2.408 1.806h3.011c1.204 0 3.01-0.602 4.214-1.204l0.603-0.602c0-1.203 0.602-3.008 0.602-3.61 0-0.601 5.418-4.813 5.418-4.211 0 0.601-1.806 3.008-1.806 4.211 0 1.204 4.215 3.61 7.225 3.61l3.011 1.806 1.204 1.203c-0.602-1.203-0.602-4.212 0-6.619l3.01 0.602c3.011 0.602-0.602 1.203 0 1.805s1.806 0.602 1.806 0.602l0.603-0.602c0.602-1.203 2.408-1.805 3.612-0.602l1.204 0.602 3.613 1.203c3.612-0.601 11.439-2.406 16.256-3.008l0.602 0.602 1.204 1.203c1.205 0 3.011 0 3.613 0.602 1.204-1.204 3.612 0 4.817-0.602l1.204-0.602c0.602-1.805 1.806-3.61 2.408-4.211l1.204-0.602h0.602c1.204 0.602 2.409 1.805 3.011 2.407 0.602 0.601 3.612 3.008 4.214 3.61 0.602 0.601 4.215 0.602 7.225-1.805l4.215 2.406c3.01 1.806 1.806-3.61 4.817-2.406 0 0 0.602-1.204 0.602-1.805 0-0.602-0.602-1.204-0.602-1.204l-4.215 0.602c-1.204-2.407-2.408-4.813-2.408-5.415 0 0 0.602-0.602 1.204-0.602h1.204c1.204-1.203 1.806-1.203 1.806 0-0.602 1.204 0 3.009 1.807 3.61 1.806 0 7.827-0.601 10.837-0.601 3.011 0 9.633 0 9.031 0.601-0.602 0.602-3.612 1.805-6.02 1.805l-1.205 0.602-1.806 1.203c-1.806-1.203-3.01-0.601-2.408 1.204l1.204 1.203c1.204 1.203 3.612 2.407 4.215 1.805 3.01-1.805 6.02-0.602 8.429-1.203 0.602 0 1.204-1.204 1.806-1.204 1.204-0.601 3.01-1.203 3.01-2.406l0.603-1.204c0-1.805 1.806-3.008 4.816-3.008h2.409c0.602 0.602-0.602 1.203-1.807 1.203-1.204 0-4.214 0.602-4.214 1.204 0 0.601 2.408 3.61 5.418 4.211 3.011 0.602 12.644 0 13.848 1.805l1.205-3.008c0.602-1.203-1.205-2.407-3.011-3.008-1.204 0-1.806-0.602-2.408-1.204l-0.602-1.203c0-0.602 0.602-1.805 1.806-1.805h1.204c0.602 0 1.806 0 3.011-0.602 0.602-0.601 3.01-0.601 2.408 0.602-0.602 0.602-1.806 3.61-0.602 4.212l0.602 0.601 1.204 0.602c1.204 0.602 2.408 0 3.011-1.805v-1.203c0-0.602-1.205-1.204 0-1.805h0.602c0.602-0.602 1.204 0 1.806 0.601 0 0.602 2.408 2.407 4.817 2.407l1.806-0.602h1.204c1.204 0 3.613-0.601 4.817-0.601s4.816 0 4.816 1.203c0.602 1.203 3.011 4.212 3.613 4.212s3.01-1.204 3.612-1.805c0.603-0.602-0.602-3.61-2.408-4.212-1.806-1.203 0-4.813 0.602-4.212 1.204 0.602 3.613 2.407 3.613 1.805v-1.203c0-0.602 0.602 0 0.602 0.602v3.61c0 0.601 0.602 1.203 1.806 1.203h0.602c0.602-0.602 1.204-1.203 1.806-1.203 1.807-1.204 3.011-1.805 3.613 1.203h1.806 2.408c1.205-1.805 2.409-1.805 2.409-1.203 0 1.203 0 3.61 1.204 3.008s3.613-1.805 3.613-1.203l0.602 0.601c1.806 1.805 5.418 3.009 6.02 2.407 1.807-2.407-1.204-1.805-2.408-3.008l-1.204-1.805c0-1.204-0.602-3.61 0-5.415l1.204-1.204c0.602-0.601 1.806-0.601 1.806 0 0.602 0 0.602 1.204 0.602 1.805v1.204c-0.602 1.203 0 2.406 1.205 2.406l1.204 0.602c1.204 1.203 2.408 0 3.612 0l1.204-0.602c1.807 0 4.215 1.204 4.817 2.407 1.204 1.203 0.602 4.813-1.204 5.415l-1.806-1.805c-2.409-2.407-3.011-2.407-6.623 0-0.602 0.602-1.806 0.602-3.011 1.203l-1.806 1.204c0 1.805 3.011 2.407 5.419 1.805l2.408-0.602 7.225 2.407h1.204c1.205 0 4.215-1.805 7.828-3.61h7.225c1.204-0.602 1.806-1.805 1.204-2.407l-0.602-0.602c-0.602 0-1.204-0.601-1.204 0l-6.021 0.602c-1.807-1.805-4.215-4.212-4.817-4.212-0.602-0.601-1.204-1.805 0.602-3.008 1.806-0.602 6.623 2.407 7.827 2.407s3.613-1.805 4.817-3.009h1.204l4.215 0.602c3.612-1.203 6.02-2.407 5.418-3.61s-0.602-4.212 1.807-3.61l1.806-2.407 0.602-0.602c0.602-0.601-3.01 0-8.429 1.805l-3.011-5.415s-1.806 0-1.806 0.602l-1.204 1.203c-1.204 1.204-2.408 1.805-2.408 1.204v-0.602l-1.205-2.407c-2.408-1.203-4.214-1.203-3.612-0.601 0.602 0.601-4.817 3.61-9.031 3.61h-7.828c-4.214-0.602-10.235-0.602-13.245 0l-1.807 0.601c-1.806 2.407-4.816 2.407-7.225 3.611l-3.01 1.203c-0.602-1.203 1.204-2.407 4.214-3.009l2.409-0.601 1.806-0.602c2.408-1.805 2.408-3.008 0.602-3.61l-1.204 0.602-3.01 1.203c-3.011 1.203-7.225 2.407-9.032 3.008-1.806 0.602-9.031-2.406-10.235-2.406v2.406c0 1.204-1.204 1.204-3.613 1.204-1.806-0.602-4.816 3.61-4.816 5.415v1.203c0 1.204 0.602 2.407-1.807 2.407l-3.01-0.602c1.806-0.601 3.01-2.406 3.01-3.008 0-1.203-1.806-3.61-4.214-2.407l-0.602-0.601c-3.011-1.805-7.225 0-9.634-1.805l-2.408-1.204c0 1.204-0.602 3.009-1.806 3.61l-1.204-1.805c-0.603-0.601 0-1.805-1.807-0.601-0.602 0.601-1.204 1.203-1.204 1.805v0.601c0.602 0.602-0.602 1.805-2.408 2.407s-5.419-2.407-6.021-3.008c-1.204-0.602-4.215-0.602-5.419 1.203l-4.817-0.602h-3.01c-0.602 0-1.806-0.601-1.806-1.203-0.602-1.203 0-2.407-2.409-0.602-1.204 0.602-3.01 0.602-4.816 0.602-1.204 0-2.409-1.203-3.613-1.203-0.602 0-1.204 2.406-1.806 2.406l-2.408-3.61c-2.409 2.407-7.828 3.009-11.44 1.204l-5.419 0.601c-4.214 0.602-4.816 0.602-7.827-2.407-0.602-0.601-1.204-0.601-2.408-0.601 0 0-6.021 4.212-6.021 4.813-1.806 1.204-3.011 3.61-5.419 1.204-0.602-0.602-2.408-0.602-3.01 0l-3.011 2.406c-1.204-1.805-3.01-3.008-4.214-2.406-1.205 0.601-3.613 1.203-3.613 0 0-1.204-3.612 0.601-4.214 0.601-0.603 0-3.011 0-6.021-0.601v5.415c-1.807 0-3.011 0.601-3.613 1.203s-1.204 2.407-2.408 1.805c-0.602-0.602-3.011-1.805-3.613-1.805 0-0.602-0.602-1.203 0.602-1.203 0.602 0 1.807-1.204-0.602-2.407-2.408-1.203-7.225 1.203-6.021 2.407 1.205 1.203 4.215 4.211 3.011 4.813l-0.602 0.602c-3.011 1.805-6.021 1.203-9.031 1.203-0.603 0-1.205-1.203-1.205-1.203 0-0.602 0.602-1.204 1.205-1.204 0.602 0 1.204 0 1.204 0.602l2.408 2.407c1.204-1.805 1.204-3.61 0.602-4.814-1.204-1.203-7.225-2.406-8.429-4.211v-3.61c0-0.602 0-0.602-0.602-0.602s-1.806 1.805-2.409 3.61c-0.602 1.805-3.01 4.212-4.214 2.407h-3.011c-3.01 0-6.02 1.805-9.031 0l-1.806-1.204c-2.408 0.602-5.419 1.805-7.827 2.407l-1.806-1.805c-0.603 0-1.205-0.602-1.807 0l-2.408 1.805c-3.01 1.203-7.225 1.805-9.031 1.805h-1.807c-0.602 0-1.204-0.602-1.806 0-2.408 1.203-7.225 2.407-9.633 1.805h-0.602c-0.602-0.602-1.807-0.602-2.409 0s-3.612 2.407-3.612 0.602-2.409-4.814-4.817-4.212l-3.612 3.61c-1.205-1.203-2.409-2.407-3.011-2.407h-0.602c-0.602 0-1.204 0.602-1.204 1.204l0.602 4.211c-3.6125 0-6.6229-0.601-6.0209-1.805 0.6021-1.203 1.8063-3.008 1.2042-3.61h-4.8167c-0.602 3.009-1.8062 4.814-3.0104 4.212-0.6021-0.602-3.0104-2.407-4.2146-2.407s-3.0104 3.009-4.2146 3.61l1.2042-1.805c-0.6021-0.601-1.2042-1.203-1.8063-1.203h-0.6021c-1.2041 0-1.8062 0.602-3.0104 0h-3.0104c-3.6125-0.602-6.0209 0-6.623 0.602 0 0.601-1.2041 1.805-1.2041 0.601-0.6021-1.203-4.8167-1.203-4.8167-0.601 0 0.601-1.2042 2.407-1.8063 3.008l-3.6125-3.008c-4.8167 1.203-9.0313 2.406-9.6334 2.406l-1.2041-0.601c-1.8063-1.204-3.0105-0.602-3.0105 1.203v1.204c-0.602 0.601-1.2041 0.601-1.8062 0.601h-0.6021c-0.6021-0.601-1.8063-1.805-2.4083-3.008-1.2042-1.204-6.0209-3.61-6.623-3.009-0.6021 0.602-2.4083 2.407-4.2146 3.009-1.8063 0.601-3.0104 4.212-3.6125 3.61 0-1.203-0.6021-2.407-2.4084-1.805-0.602 0-0.602 1.805-1.2041 2.407v0.601c-0.6021 0.602-0.6021-0.601 0-1.805 0-1.203-1.2042-5.415 0.6021-6.618l1.8062-1.204 0.6021-0.601c0.6021-1.204-1.2042-1.805-3.6125-1.805l-1.2042 0.601c-2.4083 1.204-3.6125 1.204-5.4188 0-0.602-0.601-3.0104 0-3.6125 0.602-0.60209 0.602 0 2.407 0 3.008l0.60209 0.602c1.2042 0.602 1.2042 1.805 0.60208 3.008-0.60208 1.204-4.2146 3.009-6.6229 2.407l4.8167-3.61c-3.0104-0.602-4.8167-0.602-5.4188 0.602 0 1.203-0.60209 3.008-0.60209 1.805 0-1.204-4.2146 0-5.4188-0.602-1.2042-0.601-4.2146-2.407-4.8167-1.805-0.60209 0.602-3.0104 2.407-2.4083 1.203 0.60207-1.203-4.2146-0.601-4.2146 0.602 0 1.204-2.4084 4.212-5.4188 4.212h-2.4083c-1.8063 0-3.6126 1.203-4.8167 1.203-2.4084 0.602-1.2042-2.406-2.4084-2.406h-2.4083c-2.4083 0.601-4.2146 1.203-3.6125 1.203s2.4083 1.805 1.8062 3.61l-1.8062-1.203c-1.8063-1.204-2.4084 2.406-4.8167 0.601-0.6021-0.601-3.0104-0.601-4.2146-1.203-1.8063-0.602-3.0104-1.805-4.8167-1.805l-1.2042-0.602c-1.8062 0-3.0104 1.204-2.4083 1.805 0.6021 0.602 2.4083 3.009 1.8062 3.61-0.602 0.602-2.4083 1.204-3.0104 0.602-0.6021 0.602-2.4083-0.602-2.4083 0s-2.4084 0.602-3.6125-0.602h-4.8167c-1.8063 0.602-4.2146 1.204-5.4188 1.204-1.8063-1.805-2.4083 0-3.6125 0.601-1.2042 1.204-2.4084 1.204-4.2146 0l-0.6021-0.601c-1.2042 0-1.8063 0.601-1.8063 1.203s-1.2041 3.008-3.0104 3.61l-0.6021-2.407-0.6021-1.805c-1.2041 0-4.2146 0.602-6.6229 0.602h-1.8063c-1.8062 0-3.6125-2.407-5.4187 0l-0.6021 0.602c-1.8062-0.602-3.0102-1.805-2.4082-1.805 0-0.602 3.0103-2.407 5.4186-3.61l1.2042-1.204c0.6021-0.601-1.8063-1.805 0-3.008 1.2041-0.602 2.4083-1.203 4.2146-1.805l3.0104-0.602c1.2042-1.805 2.4084-4.212 3.0104-4.212 0.6021 0 3.0105 0 3.0105-1.203s-6.623-7.22-5.4188-7.22 4.2146 0 4.8167-1.203c0-0.602 2.4083-3.009 4.2146-0.602v2.407c-1.8063 1.203-1.2042 3.008 1.8062 4.211l1.2042 1.204 1.2042 1.203c2.4083 1.203 3.6125 1.203 3.6125 0s1.2042-3.61 2.4083-3.008l1.2042-1.204c0.6021 1.204 0 3.61-1.2042 5.415l-0.602 1.805-2.4084 4.212c1.2042 1.805 2.4084 3.009 3.6125 1.204 1.2042-1.805 3.6125-7.221 5.4188-8.424l0.6021-2.407c0-1.203 1.2042-0.601 1.2042 0.602l0.602 2.407c1.8063-0.602 4.2146-1.805 4.8167-2.407 1.2042-0.602 7.2251-0.602 10.838-1.203l3.6125 1.203c0.6021 0.602 3.0104 0.602 3.0104-1.203 0-1.204 2.4084-2.407 0-3.61h-0.6021c-1.2041-1.204-1.2041-1.805 0-1.805 1.2042 0.601 3.6125 1.203 5.4188 1.203s5.4188 2.407 8.4292 1.805h3.0104v-1.805s-0.602-0.602-1.2041-0.602h-1.2042c-1.2042 0-1.8063-0.601-1.8063-0.601h1.8063c1.8063 0 3.6125 1.203 4.2146 3.008l1.2042 0.602 1.2041 1.203c1.8063-0.602 6.623-2.407 9.6334-3.008l-3.0104-3.61s0-0.602 0.60206-0.602h1.8063l4.2146 2.407c0.60209-2.407 1.2042-4.212 1.8063-4.814 0 0 1.2042 0 1.2042 1.204h0.60209l3.6125 0.601c1.2042 2.407 1.8062 4.814 2.4083 5.415h1.8063c0.60209-0.601 2.4083-1.203 2.4083-0.601 0.6021 0.601 2.4083 0.601 3.6125 0l1.8063-0.602 4.8167-1.203c1.2041-3.61 1.8062-7.221 1.8062-7.221h2.4084c1.2041 0.602-0.6021 5.416 0.6021 6.017 1.2041 0 6.0208 0 8.4292-1.805l2.4083-1.203v-1.204s-0.6021-0.601-1.2042-0.601h-3.6125c0-1.805 1.2042-2.407 3.6125-2.407 1.8063 0.602 6.0209 3.008 5.4188 3.61s0 3.009 3.0104 4.212c3.0105 1.203 10.838-1.805 10.236-2.407l-0.6021-0.601-1.2042-3.009c1.2042-1.203 4.2146-3.008 6.623-3.61 2.4083-0.602 9.6333 0.602 10.235-0.602 0.6021-1.203 2.4084-4.813 3.0104-4.211 0.6021 0.601 3.0105 1.203 4.2146-0.602l1.2042-1.203c0.6021-0.602 1.8063-0.602 1.8063-0.602 1.8062 4.813 6.6229 1.805 10.235 2.407 0.6021 0 1.8063 0 2.4084-0.602v-1.203c-0.6021 0-2.4084-0.602-4.8167-0.602h-1.8063c-1.2041 0-3.0104-1.203-4.2146-1.203h-1.8062c-0.6021-1.204-2.4084-3.009-3.6125-3.61-1.2042-1.204-6.0209 0.601-6.623 1.203-1.2042 0-3.0104-0.602-2.4083-2.407 0.6021-1.203 0.6021-5.415-0.6021-5.415-1.8063 1.203-3.0104 3.61-4.2146 3.61h-3.0104c-1.8063 1.805-4.2146 3.61-5.4188 4.212l-3.0104-2.407-1.2042-1.203c-1.2042-1.204-3.0104-1.805-4.2146-1.805h-0.6021l-5.4188 1.805c-1.2041-1.805-2.4083-3.009-3.0104-3.009 0 0-1.8063 0.602-3.0104 1.805l-1.2042 0.602c-1.2042 0.602-3.6125 0-4.8167 1.203h-1.8062c-1.8063-0.601-3.0105-1.203-4.8167-2.406-1.2042-0.602-1.8063 1.805-3.6125 0l-0.6021-1.204c-2.4084-0.601-7.225-1.203-10.838-1.805l-3.0104-2.406-1.2042-1.204c-3.0104 0-5.4188 1.204-4.8167 2.407 0 1.203-3.0104 4.212-7.225 4.212l-3.0104 1.203c-3.0104 0.602-1.2042-2.407-3.6125-3.008-1.8063 0-3.6125-0.602-5.4188-0.602h-0.6021c0-1.203-1.2042-1.203-2.4083 0.602v1.203c-0.6021 0.602-1.8063 0.602-1.8063 0.602-0.6021 0-1.2042-1.204-0.6021-1.805l1.8063-1.805c-0.6021-2.407-1.2042-3.61-1.8063-3.009-0.6021 0.602-2.4083 2.407-3.0104 2.407 0 0-0.6021-1.203 0-1.805s0-3.008-1.8063-3.008c-1.8062 0-6.6229 0.601-6.0208 1.805 0 1.203-3.0105 4.211-3.6125 4.813-0.6021 0.602-3.0105 2.407-3.0105 1.805s-1.8062-0.602-3.0104 0.602c-1.2042 1.203-7.225 1.203-8.4292 0.601-1.2042-0.601-3.0104-1.203-3.0104 0.602l-3.0105-1.203c-1.8062-0.602-2.4083-1.805-1.2041-3.61 1.2041-1.204-0.6021-0.602-1.8063-0.602h-3.0104c0.6021-1.203 1.8062-2.407 3.6125-2.407l0.6021-0.601 0.6021-0.602c0.6021-1.203 0-3.008-0.6021-3.61l-6.0209 3.008c-2.4083-3.61-4.2146-7.22-4.2146-7.22s-1.8062 1.204-2.4083 2.407-2.4084 3.61-2.4084 1.203h-3.6125c-1.2041 0.602-2.4083 0.602-2.4083-0.601-0.6021-1.204-3.0105-1.805-4.2146 1.203l-1.2042 1.805h-1.8063c-0.602-0.602-0.602-1.203-0.602-2.407 0-1.203 0-3.61 2.4083-4.211 1.8063-0.602 0.6021-6.017 0.6021-6.619 0.6021-0.602 1.2042-2.407 1.2042-2.407h-2.4084c-3.6125-0.601-6.0208-1.805-6.6229-3.008l-1.2042 0.602-0.602 0.601c0.602 1.805 0 3.009-0.602 3.61-0.602 0.602-3.613 0-3.011-1.805v-1.203-2.407c-0.602-1.203-0.602-2.406-1.806-3.61l-1.204-0.601c-1.806 0-3.613-0.602-3.613-1.204 0-0.601 0.603-4.212 1.807-7.822l6.021-0.601h2.408c2.4083-1.204 3.0103-2.407 1.8062-2.407-1.2042 0-3.0102-1.203-1.2042-2.407l1.2042-1.203 1.2041-0.602c1.2042 0 3.0105 0.602 4.2146 1.805l1.2042-1.203s-1.2042-1.203-1.2042-1.805 0-1.805 1.8063-0.602h0.6021c1.8062-0.601 1.8062-1.805-1.2042-3.008l-1.8062-0.602h-0.6021c-0.6021 0.602-1.2042 0.602-1.2042 0 0-0.601 0-2.407-0.6021-2.407s-3.0105-1.203-2.4083-1.805c0-0.601 0-1.805-1.8062-1.805-1.204 0-0.602 4.212-1.806 4.814-0.602 0.601-3.011 1.203-4.215 0.602-0.602 0-2.408-1.806-2.408-2.407l0.602-0.602h1.806c1.204 0.602 1.806 0 1.806-1.805s2.409-6.017 3.613-4.813c1.204 1.203 4.2144-2.407 3.6123-2.407-0.602 0-1.8063-1.203-1.8063-1.203 2.4084 0 3.6126-1.805 4.8168-3.009l0.6021-0.601c-0.6021-1.805-0.6021-3.009 0-3.009s3.0104-0.602 4.2146 0c1.2041 0.602 0 3.61 0.602 4.212 0.6021 0.602 3.6126 2.407 3.6126 2.407s0.6021-0.602 0-1.204c0-0.601-0.6021-3.008-1.2042-3.61 0-1.203 0-4.813 3.0104-6.618l3.6125 2.406 1.2042 0.602c3.6125-1.805 4.8167-4.212 5.4188-4.212zm1149.4 88.447c-0.6 0.602-3.01 0-4.82 0l-1.8-0.602c-1.21-0.601-3.01-1.203-4.22-1.203-1.2 0 0 3.008-2.41 2.407v2.406c0 0.602-4.21 0.602-4.21-0.601 0-0.602-1.21-3.009-2.41-2.407h-1.81c-1.2 0-3.01 1.203-4.21 1.805-1.21 1.203-6.02 0.602-6.62-1.203l1.8-1.204 1.21-1.203c-1.21-1.805-3.01-2.407-4.22-1.203-1.2 1.203-3.61 4.211-2.41 4.211 1.21 0.602 0.61 3.009-1.2 3.009l-1.2 0.601c-0.61 0-0.61 1.204-0.61 1.805 0 0 0.61 0.602 1.21 0.602l1.8 0.602c2.41 0.601 4.82 0.601 5.42 0l0.6-0.602c0.61-0.602 1.21-2.407 1.81-2.407s2.41 1.204 3.01 1.204h1.81c2.41-0.602 5.42 0 6.62 1.203l1.81-1.805 2.4-1.805c1.21 1.805 3.02 2.407 3.62 1.805s2.41-1.203 3.01-0.602c0 0 1.2 0.602 1.8 0.602h3.01s1.21-1.805 2.41-2.407c1.21-1.203 4.22-4.813 3.62-6.016h-0.61c-3.61 0.601-4.21 1.203-4.21 3.008zm-574.39 12.635c0.602 0.602-1.807 0.602-4.215 0l-1.204 1.805-0.602 1.204c-0.602 1.805 2.408 2.406 6.623 1.805h1.806c1.204 0 1.806-0.602 1.204-1.204 0-0.601 0.602-2.406 3.011-4.212l-4.215-3.008-0.602-0.602c-0.602-0.601-1.806-1.805-3.01-3.008h-3.011c-1.806 0-2.408 0.602-1.204 1.805 0.602 1.203 4.817 4.212 5.419 5.415zm305.86-2.407c1.807-0.601 2.409-0.601 2.409 0.602h0.602l2.408 1.805c4.817-1.805 8.429-3.61 7.225-4.212-0.602-0.601-4.816 0.602-6.021 0.602-1.204 0-4.214 0-4.816-0.602-1.205-0.601-3.613-0.601-4.215 0-0.602 0.602-2.408 2.407-3.01 1.805-0.602-0.601-3.011-1.203-4.215-0.601-1.204 0.601-3.01 3.008-3.01 3.008s0.602 0.602 1.806 0.602 3.612 0 3.612 0.601c0 0.602 0 2.407 1.807 2.407h1.806c-0.602-1.805 2.408-5.415 3.612-6.017zm-260.7 1.805c0-0.601 0.602-0.601 1.806-0.601 1.205 0 4.215 0.601 4.215 0.601 0.602 1.204-1.204 3.009 1.806 3.009h2.409c0-1.203 0.602-3.009 2.408-4.212h2.408c1.204 0 1.204-0.602 0-1.203l-0.602-1.204c0-0.601-2.408-0.601-3.612 0h-2.409c-1.806-1.203-2.408-2.406-1.806-3.008s1.806-2.407 1.204-3.008c-0.602-0.602-2.408-1.204-3.612-0.602-0.602 0.602 0 6.017-1.204 6.618-0.602 0.602-3.613 2.407-4.215 1.805-0.602-0.601-2.408-1.203-3.01-0.601h-0.602c-3.011-0.602-4.215 0.601-4.817 2.406v0.602c-8.429-0.602-14.45-0.602-13.848 0s4.214 2.407 6.623 2.407l1.806-1.204 1.204-0.601c1.204-1.204 2.409-2.407 2.409-2.407 0-0.602 0-1.203-1.807-0.602-1.204 1.204-6.021 1.805-7.225 1.204-0.602-0.602-3.01-3.009-2.408-4.814v-2.406c-1.204-0.602-3.613-1.204-6.021-0.602l-2.408 0.602c-0.602 0-0.602 1.203-0.602 1.805 0 0.601 1.204 1.203 1.806 0.601h0.602c0.602-0.601 1.806 0 2.408 0.602s0 3.008-1.806 1.805l-1.204 0.602-3.011 1.203c-1.204-1.805-3.01-3.008-3.612-3.61h-1.204c-0.602 0.602-1.204 2.407-1.204 4.212l3.612 2.406c1.204 1.806 3.011 1.806 3.613 0l3.01 0.602 2.408 0.602c7.828-1.203 13.848-0.602 13.848 0l0.602 0.602c1.205 0.601 2.409 0.601 3.011-1.204 0-0.602 1.204-1.203 1.806-1.203 1.806 0 3.613 0.601 4.817 1.203h0.602c1.204 0 1.806-1.203 1.204-1.805l0.602-0.602zm-520.2 46.931c0.6021-0.601 3.6125-0.601 6.623 0.602l2.4083 0.602c0.6021 0 1.8063-0.602 1.8063-1.204 0.6021-0.601 0-1.203 1.8062-0.601h3.6126c4.2146 0.601 8.4292 0.601 9.6333 0.601h1.2042l3.0104-0.601c3.6125-1.204 5.4188-2.407 3.6125-2.407l-0.602-1.203-1.2042-0.602c-0.6021-0.602 0-0.602 1.8062 0.602 1.8063 0.601 7.8271 0.601 7.8271-0.602v-0.602c0-1.203-0.602-2.407 0.6021-3.008l2.4084-1.805c-1.8063-0.602-4.8167 0.601-6.623 3.008l-4.8166-1.203-2.4084-0.602c-0.6021 1.805-1.2042 3.009-2.4083 3.009-1.2042 0-4.2146 1.203-5.4188 1.203-0.6021 0-4.8167-1.203-6.6229-1.805-1.8063-0.602-6.623 2.407-7.8272 3.008l-1.2041 1.204c-1.8063 1.805-1.8063 1.805-3.0105 0-1.2041-1.204-1.8062-1.805-3.0104-3.009l-0.6021-0.601c-1.2042 0-2.4083 0-2.4083 0.601 0 0.602-1.2042 1.805-2.4084 1.204-1.2041 0-0.6021 3.008 0 3.61 0.6021 1.203 3.6126 1.203 4.2146 0.601zm462.4-53.549c1.204 4.212 0 6.618-2.408 6.017l-1.807 0.601-1.204 0.602c-1.204 1.805-3.01 1.805-4.214 0l-1.807 1.805c-1.806 1.805-4.214 1.805-6.623 1.805-1.806 0-3.01 0.602-3.612 1.805 0 0.602-1.204 1.204-1.204 1.204l-0.602 1.203c-0.602 1.203-1.205 4.212-1.807 7.22l1.205 0.602 1.204 0.601c1.204-0.601 3.01-1.805 3.612-3.008l-1.806-1.203c-1.806 0-1.806-1.204-1.204-2.407l1.806-1.203c2.408-1.204 4.817-2.407 6.021-3.009 1.204-0.601 4.214 1.204 4.817 1.805 0.602 0.602-1.205 3.61-1.807 3.61s-3.01 1.204-2.408 2.407c0 1.203 2.408 3.61 4.215 1.805 2.408-1.203 3.01-9.627 4.214-12.033l1.806 1.203c2.409 1.203 3.011 0 4.215-0.602l0.602-0.601c-3.01-4.814-4.817-8.424-4.214-7.822 1.204 0.601 3.612 3.008 4.214 3.61 0.602 0.601 3.613 0 3.01-2.407l-1.806-2.407-2.408-1.203zm-34.921 13.839c1.204-4.212 0.602-8.424-1.806-9.026h-2.409c-2.408 0-4.816 1.204-7.225 1.204-1.806 0-3.612-0.602-5.418-0.602h-0.603-3.01c-1.204 0-3.01 1.805-2.408 3.008 0.602 0.602-0.602 3.611-1.205 3.611 0 0-2.408 0-4.816-0.602l-2.408-0.602c-0.603 0-1.205-0.601-1.205-1.203s0.602-1.204 1.205-1.204h1.204c1.806 0 1.204-1.805-1.204-3.61l-2.409 1.805c-1.204 1.204-1.806 3.009-1.806 4.212-0.602 2.407 1.806 1.204 3.01 2.407 1.807 1.203 3.011 3.61 5.419 1.203 0.602 0.602 1.806 0.602 3.01 1.204 1.205 0.601 2.409-1.805 2.409-2.407s1.204-3.61 3.01-2.407c1.204 1.204 5.419 1.805 6.623 1.204h1.204c1.205 0 2.409 2.406 4.215 0.601s-1.204-2.406-1.806-3.61c-0.602-0.602 1.204-0.601 3.612 0.602 2.409 1.203 9.032 4.813 9.032 2.407l0.602-1.805 2.408-6.017c-0.602 0-1.806-1.204-1.806-0.602l-1.204 0.602c-1.205 1.203-1.205 2.406-0.603 3.008l-0.602 1.203-0.602 1.204c-0.602 1.805-1.806 3.008-2.408 2.407l-0.602-0.602c-1.204-0.602-2.409-1.203-3.011 0s0 1.805 1.807 1.805l1.806 0.602zm543.08-12.034c1.205 0 1.205-1.203 0.603-2.407l-0.603-0.601c-0.602-0.602 1.807-1.805 0-3.009-1.204-0.601-1.806-1.203-3.612-0.601h-0.602c-0.602 0-7.225-0.602-14.45-1.204l-6.623 1.805-3.011 0.602c-2.408-1.805-5.418-2.407-6.02-1.203-1.205 0.601-3.613 2.406-4.215 2.406-0.602-0.601-3.011-0.601-3.613 0.602s-1.204 4.813 1.205 3.61h3.01c1.204 0 4.215 0.602 6.021 0.602l1.806 0.601h1.204c3.011-1.203 6.021-2.406 6.623-3.008h0.602l4.215 0.602c0-3.009 1.806-3.009 4.215-0.602l2.408 2.407 2.408 2.406c3.011 2.407 6.623 3.61 6.623 3.009 0 0 0.602-6.017 1.806-6.017zm-356.43 20.457c1.806 0.602 3.612 0 3.01 0l-2.408-0.602c-2.409-0.601-4.817-1.203-5.419-1.203v-1.203c0-0.602 1.806-1.204 3.01-1.805 1.807-0.602 3.011-4.212 3.613-4.212h1.806c0.602 0 1.204-0.602 1.204-1.203l-0.602-0.602h-1.204c-1.204 0-3.01 0.602-3.01-1.203 0-1.204 0-1.806 1.806-3.009l2.408-1.203c2.409-2.407 4.817-3.61 4.817-3.009 0 0.602 1.204 2.407 2.408 1.805h0.602c1.204-0.601 2.409-0.601 3.613-0.601h0.602c0.602 0 1.806 1.203 2.408 2.406l2.409-1.203 1.204-0.602c1.806 0 4.214 0.602 4.816 0.602 1.205 0 3.613-1.203 4.817-1.805l1.204 1.203 0.602 0.602c1.807 0 3.011-1.203 3.011-1.805 0-1.203-1.204-4.212-3.011-4.212-1.806 0-6.02 1.204-5.418 1.805 0.602 0.602-2.409 1.204-7.827 1.204h-4.215c-3.011 0-5.419-0.602-6.623-2.407l-1.204-1.805c-1.806 0.602-4.215 2.407-6.021 4.212h-2.408l-4.215-1.204c-3.613 2.407-6.021 5.415-5.419 6.619l1.806-1.204c1.205-0.601 2.409-1.203 3.613-1.203l1.204-0.602c1.204 1.204 1.204 3.61 1.204 6.017l0.602 1.805c0 0.602-0.602 2.407-1.204 2.407-4.214-0.602-3.01 2.407-4.214 3.61l-1.205 1.203c0.603 0.602 6.021 2.407 7.828 2.407zm440.13-22.864c0 0.602 2.4 1.204 5.41 1.805l1.81-0.601c2.41-0.602 4.21 2.406 7.23 0l1.2-0.602c2.41 0.602 4.82 1.203 5.42 1.805s2.41 0 1.2-1.805c-1.2-1.805-4.81-6.618-3.61-7.822 1.2-0.601-2.41-3.61-5.42-1.805l0.6 3.009c-2.41 0.601-3.61 0.601-3.01 0 0.6-0.602 1.21-1.805 0.6-1.805-0.6-0.602-1.2 0-1.2 1.805 0.6 1.805-1.2 5.415-2.41 4.813-1.2-0.602-3.61-5.415-4.21-5.415s-3.01 0.602-2.41 0.602 1.81 1.805 2.41 2.406c0 1.204-3.61 3.009-3.61 3.61zm-56.6-0.601c1.2 0 0.6-2.407-1.81-5.415l-4.81 3.61s-1.81-0.602-2.41-0.602l-1.81-1.805c-2.41 0.602-6.02 1.203-7.83 1.805l-0.6-0.602c-1.2-0.601-1.8-1.203-3.01 0l-0.6 0.602c-1.806 0.602-1.806 1.805-0.602 1.805 1.802 0 4.212 1.805 5.422 3.008 1.2 1.204 7.22 4.814 10.23 5.415h2.41c0.6 0 1.2-0.601 1.2-1.203s-0.6-1.203-1.2-1.203h-1.81c-2.4 0-3.01-0.602-2.4-1.204 1.8-1.805 8.43-4.211 9.63-4.211zm-1039.8 61.371c0 0.601 0 0-0.6021-1.204-0.602-1.203 3.6126-3.61 4.8167-3.61 1.2042 0 3.0105-1.805 1.8063-2.406l-1.2042-1.204c-0.6021-0.601-1.8062 0-1.8062 1.204h-0.6021c-0.6021 0.601-1.8063 0.601-3.0105 0.601h-1.8062c-1.8063-0.601-3.0105-0.601-2.4084 0.602s-3.6125 2.407-4.2146 1.203c-0.6021-1.203-6.0208 0.602-6.0208 1.805 0 1.204 1.2042 6.017 2.4083 6.017 1.2042-0.602 5.4188-2.407 6.623-3.61 1.2041-1.203 6.0208 0 6.0208 0.602zm366.67-25.271c0 2.407 1.807 4.212 4.817 4.212h3.01c0-1.203-0.602-1.805-1.204-2.407l-0.602-0.601-0.602-0.602c0-0.602 0.602-1.805 1.806-1.805h0.602c0.602 0 1.807 0.602 1.807 1.203v1.204c1.204 0 2.408 0 3.01-0.602 0-0.602 0-3.008-0.602-4.212l-0.602-0.601c-0.602 0.601-2.408 0.601-3.011 0.601l-3.01 0.602c0.602-1.203 0.602-3.008 0.602-3.008 0-0.602-1.204-1.204-2.408-1.204l-0.602 0.602c-1.807 1.203-3.011 1.203-3.613-1.204 0 0-1.806-0.601-2.408-0.601 0 0.601 3.612 6.017 3.01 8.423zm314.29-18.05c0 1.203 1.204 2.407 3.011 1.805h1.806c1.204 0 0.602-1.203-1.204-3.008l-1.807-1.805c0-0.602 0.602-0.602 1.807-0.602 0.602 0 2.408 0 3.01-0.602 0.602-0.601 1.204-3.61 0.602-4.813l-1.204-0.602-0.602-0.602c-1.204 0-3.011 1.204-4.817 2.407h-4.214c-1.807 1.204-3.011 3.61-3.613 4.814-0.602 1.203 3.011 2.406 3.011 1.203 0-0.602 4.214 0.602 4.214 1.805zm247.46-11.432c0 1.805 1.205 1.805 3.011 0.602 1.806-1.204 6.021-5.415 7.225-6.619l-1.806-1.203c-1.807-0.602-3.011-0.602-4.817 0.602l-1.204 0.601h-4.215c-0.602-0.601-0.602-1.805-1.204-2.406-0.602-0.602-1.806-0.602-1.806 0l-0.602 0.601c0 0.602 0 1.805 0.602 3.009 0 0.601-1.205 3.008-1.205 3.61 0 0 1e-3 0 1.205-1.204-0.602-1.805 4.816 1.204 4.816 2.407zm378.11-22.864c1.21-0.601 1.81 0.602 1.81 2.407-0.6 1.805-0.6 5.415 0.6 4.813 1.21-0.601 5.42-0.601 6.62-1.805 1.81-1.203-1.2-7.22-3.01-7.22-1.8 0-5.41-1.203-6.62-0.601-1.2 0.601-4.21 3.008-3.61 3.008 0 0 2.41-0.602 4.21-0.602zm-1277-81.226c-1.8062 0-3.6125 1.805-3.6125 3.61l-3.0104 1.805c-0.60209 0-0.60209 1.203-0.60209 1.203 2.4083 1.204-1.8063 1.805-0.60209 3.009 1.2042 1.203 2.4083 1.805 3.0104 2.407l1.2042 1.203c1.8063 1.203 4.2146 1.203 5.4188-0.602l1.2042-1.805c-0.6021-1.203-1.8063-1.203-2.4084-1.203-1.2042 0-3.6125-2.407-3.0104-6.619l4.8167-1.805 1.2042-0.601c1.2041 0 2.4083 0 2.4083-0.602 0 0.602-4.2146 0-6.0209 0zm254.08 98.675c-0.602 0.602-1.204 0-1.806-0.602-0.602-0.601-3.612-1.203-4.816 0l1.204 2.407c0.602 1.203-1.205 1.805 0.602 3.61l1.806 1.805c-3.01 0.602-4.215 1.805-3.01 1.805 1.204 0 4.214 0.602 4.214-0.602 0-1.805 0-6.016 0.602-6.016 0 0 0.602 0.601 1.204 1.203 0.603 0.602 1.205 2.407 2.409 2.407h1.806c1.204-0.602 0-1.805-2.408-3.009l0.602-1.203c0-0.602 1.204-0.602 1.204-1.203 0-0.602-0.602-1.805-0.602-1.805-3.011-1.204-3.613 0-3.011 1.203zm314.89 17.449c0.602 1.805 3.011 2.406 4.817 1.203l1.204-0.602c1.204-0.601 1.806-3.61 0.602-3.61-2.408-0.601-4.214-3.008-7.225-1.203-0.602 0.602-1.204 1.203-2.408 0l-2.408-1.805c-1.205 1.805-1.205 4.212 0.602 5.415h1.806l3.01 0.602zm-426.88-22.864c1.205 3.008 3.011 4.813 4.215 4.212 1.204-0.602-1.806-4.814-3.01-7.22v-2.407s-1.205-0.602-1.807-0.602-1.204 0.602-1.204 1.203v1.806c-0.602 0-1.204 0-1.204-1.204 0-0.601-1.806-2.407-3.612-2.407h-1.205s0.602 1.204 1.205 1.805c1.204 0.602-0.603 3.611-0.603 4.814h7.225zm632.19 12.635c1.204 1.805 2.408 2.407 3.01 1.805s-2.408-3.008-3.01-3.61-4.215 0-5.419 0h-1.204c-1.204 0-3.011 0.602-3.613 0.602l-3.612-1.204c-0.602 2.407 2.408 4.814 7.827 5.416l3.01-1.204 3.011-1.805zm543.08-51.744c1.81 1.203 3.01 2.407 2.41 3.008l1.81 2.407c3.01-1.203 6.02-3.61 6.02-5.415h-2.41c-3.01 0-3.61-2.407-5.42-3.61l-0.6-0.602c-0.6-0.602-2.41 0-3.01 0.602s-2.41 3.61-1.21 4.813l2.41-1.203zm-341.38 58.363c-1.806 1.203-2.408 3.008-1.806 4.211 0.602 1.204 3.613 3.61 4.817 2.407 0.602-1.203 3.612-4.813 4.214-4.813l0.603 0.601c1.204 0.602 2.408 1.204 3.01 0 0.602-0.601-0.602-1.805-1.204-2.406-0.602-0.602-3.011-1.204-3.613-0.602-1.806 1.203-3.01 0-4.214 0.602h-1.807zm-92.721-10.831c0-1.203-1.806-2.406-4.214-2.406-2.409 0-9.032 1.203-10.236 0.601-1.204-0.601 0 2.407 0.602 3.61 0.602 0.602 2.409 1.805 3.613 0.602l1.204-1.203 1.204-0.602c1.806-0.602 3.613-0.602 4.215 0.602 0.602 0.601 3.612 0 3.612-1.204zm-298.63 2.407c1.204 0.602 3.01 0.602 3.612-0.602 0.602-0.601 1.806-2.406 1.204-3.008-0.602 0-4.214 0-5.419 1.203l-3.01-1.203c-1.806-0.602-4.215 0-6.623 0h-0.602c-0.602 0.602-1.204 1.203-1.204 2.407 0.602 0.601 10.837 0.601 12.042 1.203zm-529.84-143.8c-1.8062-0.6017-1.8062-1.8051-0.6021-3.6101l0.6021-1.805c0-0.6017-0.6021-1.2034-1.2041-2.4067-0.6021-1.2034-1.2042 0-2.4084 0l-1.8062 0.6016c-0.6021 1.2034-0.6021 3.0084 0 3.6101 0.602 0.6017-1.2042 3.0084 0 4.8134l1.2041 1.2034c0.6021 0.6016 2.4084 1.2033 2.4084 0.6016 0.6021 0 3.0104-0.6016 1.8062-3.0083zm1224 46.931c-0.6-0.602-1.81 1.805-2.41 4.814l4.82-0.602c1.2 0 2.41-1.204 3.61-1.204h1.2c1.81 0.602 3.01 0.602 3.01-0.601 0-1.204-0.6-4.212-1.2-5.415-0.6-1.204-4.82 0-4.82 0.601-1.2 1.805-3.61 3.009-4.21 2.407zm74.06 46.931c1.2-1.805 0-3.008-1.81-2.407-1.81 0.602-7.23-1.203-6.62 0 0 1.204 1.8 4.212 2.41 4.212 0.6 0 3.01 0.602 4.21 0.602l0.6-0.602 1.21-1.805zm-1185.5 89.048c0.602 0.602 1.806 0.602 2.408 0l3.011-0.602c0.602 0 1.204 0 1.204-0.601v-1.204l-1.806-1.203c-2.409-1.203-3.613-3.008-2.409-4.212l-1.806-1.203-0.602-0.602c-1.204 0-1.806 0-2.408 0.602 0 0.602 0.602 3.008 1.204 5.415l-3.613 1.203-1.204 0.602c-0.602 1.805-0.602 3.008 0 2.407 1.204-1.204 5.419-0.602 6.021-0.602zm352.22-28.279c-0.602-0.601-2.408 0.602-4.214 2.407l-3.011-0.602c-1.204-0.601-2.408-0.601-3.612-1.203h-1.806v2.407c0 0.601 1.204 1.203 1.806 1.203h2.408c2.408 1.203 4.817 2.407 5.419 3.008 1.204 0 1.806-2.406 1.204-3.008h-1.204c0-0.602 0.602-1.203 1.204-1.203 1.204 0 2.408-2.407 1.806-3.009zm748.39-32.49c-0.6-1.204-3.01-2.407-4.81-1.805l-0.61-0.602-2.41-1.805c-0.6 1.805-0.6 3.008 0.61 3.61 1.2 0 4.21 1.203 3.61 1.805s-1.81 2.407-1.2 2.407c0.6 0 4.21 1.203 6.02 0.601l1.8 0.602h0.6c0.61-0.602 0-1.805-1.2-2.407l-1.2-0.601c-0.61 0-0.61-0.602-0.61-1.204l-0.6-0.601zm-1239.7-133.57c1.8062 0.6017 4.2146 0 4.2146-1.805l-0.6021-0.6017c-0.6021-1.2034-2.4084-3.0084-3.6125-3.0084-3.0105-0.6017-3.6125 1.805-5.4188 3.0084v1.2033l-0.6021 1.2034c0 1.2033 1.2042 2.4067 2.4084 2.4067v-1.805s1.8062-0.6017 3.0104-0.6017h0.6021zm890.48 147.41c-0.602-0.601-2.408-1.203-3.612-1.203l-0.602 0.602c-0.602 0.601-1.205 1.805-0.603 1.805l0.603 0.601c1.204 0 1.204 0.602 0 1.204l-0.603 0.601c-0.602 0.602 1e-3 1.805 0.603 2.407l0.602 0.602c1.204 0.601 3.612 0.601 5.419 1.203l1.204-0.602c0.602 0 1.204-0.601 1.204-0.601 0-0.602 0-1.204-0.602-1.805l-0.602-0.602c-1.204 0-1.807-0.602-1.204-1.203 0.602-0.602-1.205-2.407-1.807-3.009zm-455.78 9.025c3.011-0.601 5.419-1.203 5.419-1.805 0-0.601-0.602-1.805-1.204-0.601l-0.602 0.601-0.602 0.602h-4.817c-1.806 0-7.225 0-7.225 1.203 0 1.204-3.01-0.601-3.613 0-0.602 0-1.204 1.204-0.602 1.805h1.807c1.204 0 4.214-0.601 6.622-0.601h2.409l2.408-1.204zm-420.86-158.84c-1.2041 0.6017-1.8062 0-1.2041-1.2034v-1.2033c0-0.6017-0.6021-1.2034-1.2042-1.2034-1.2042 1.8051-1.2042 3.0084-3.6125 3.0084 0 0-0.6021 1.805-0.6021 3.0084 0 0 1.8063 0.6017 2.4083 0.6017h0.6021 4.8167c2.4084-0.6017 0-4.2118-1.2042-3.0084zm531.64 151.62c1.806 0.602 3.01 0 2.408-0.601-0.602-0.602-2.408-2.407-4.214-3.61l-1.204 0.601c-1.205 0.602-2.409 1.204-3.613 0-1.806 1.204-3.01 2.407-2.408 3.009 1.204 0 7.225 0 9.031 0.601zm-467.22-25.872c-3.01-1.805-5.418-1.203-6.02 1.204l2.408 0.601h1.204c1.806-1.805 4.215-1.805 5.419-0.601 1.204 1.203 4.817-0.602 4.214-1.805-0.602-1.204-4.816-3.611-6.02-3.611l-1.205 4.212zm-39.135 71.6c-1.8062 0-3.0104 0-3.0104 1.203l0.6021 0.602 0.6021 1.203c0.6021 1.204 2.4083 0.602 3.0104-0.601h0.6021l3.0104-0.602c3.6125-0.602 6.0209-1.805 4.2146-2.407-0.6021-1.203-7.225 0.602-9.0313 0.602zm502.74-40.914c0-1.204-3.011-1.204-6.623 0l-3.011 1.203c-1.204 0.602 1.204 1.805 7.225 3.008h0.602c1.204 0 1.807-1.203 1.807-2.406v-1.805zm-476.25 50.541c0.602-0.602 1.204-0.602 1.806-0.602 0 1.203 0.602 2.407 3.01 2.407 0.602 0 1.807-0.602 1.807-0.602v-1.203c-0.603-1.204-1.205-3.009-2.409-3.61-0.602-0.602-4.214-1.204-5.419 0.601-1.204 1.805 0.603 3.009 1.205 3.009zm-175.81-120.34c0.602-0.601 0.602-1.203 0.602-1.203-1.2041 0.602-3.0104 2.407-4.2146 2.407-1.2041 0-3.0104-0.602-4.8166-1.204-0.6021 0-1.8063 0-1.8063 0.602v0.602c0.6021 0.601 1.8063 1.203 3.6125 1.203 1.8063 0 6.0209 1.203 7.8271 0l-1.2041-1.805v-0.602zm193.27 59.566c-1.204 0-2.408 1.204-1.806 3.009l2.408 2.406c0.602 0.602 1.204 1.204 1.806 1.204h1.205c1.204-0.602 1.204-2.407 0.602-3.009v-1.203c1.204-1.203-3.011-2.407-4.215-2.407zm712.87 9.627c-1.204 0-0.602 1.805 1.204 4.813l2.408 1.204c1.205 0.602 4.817 0.602 5.419 0 1.806-2.407-1.806-1.805-3.01-2.407l-0.603-0.602c-1.204-0.601-2.408-0.601-1.806-1.203s-2.408-1.805-3.612-1.805zm-839.91-25.27c-0.60209 1.203-0.60209 1.805-0.60209 1.805s1.2042 0 1.8063-0.602c0.60208-0.602 3.0104-3.61 3.6125-4.813 0.60209-1.204 1e-5 -5.416-0.60207-6.619l-0.60209-0.602-1.2042-0.601c-0.60209 1.203-1.8063 2.406-2.4083 3.61v0.602l0.60209 1.203c0 1.805-1e-5 5.415-0.60209 6.017zm984.41 7.821c1.205-0.601 1.205-1.805 0.602-3.008l2.409-1.203 1.204-0.602c-0.602-1.203-2.408-1.805-3.613-1.805h-1.204c-1.806 0-3.612 1.805-3.01 3.61v0.602 1.805c0 0.601 0.602 1.203 1.806 1.203h0.602l1.204-0.602zm-665.91 46.33c0.602-1.204 1.205-1.204 1.807 0 0.602 1.203 4.214 1.203 2.408 0.601l-0.602-1.203c-0.602-0.602 3.01-1.805-0.602-2.407-1.204 0-3.011-1.203-4.215-0.601l-1.806 0.601c0 1.805-1.204 3.61-1.806 4.814v0.601c0 0.602 0.602 1.204 0.602 1.805h0.602c1.204-0.601 3.01-3.008 3.612-4.211zm606.3-21.661c-1.806 0-1.204 0.602 1.204 0.602s9.633 0.602 9.633 0 0.603-1.805 0.603-2.407c-0.603-0.602-1.807-1.203-2.409-1.203-1.204 0.601-7.225 2.407-9.031 3.008zm-969.96 48.134c1.2041 0 1.2041-1.203 0-1.805-1.2042-0.601-6.0209 1.805-7.8272 2.407l-1.2041-0.602c-0.6021 0-1.2042 0.602-1.8063 0.602v1.203c2.4084 0.602 4.8167 1.204 7.225 1.805 0.6021 0 2.4084-1.805 1.8063-1.805-1.2042-1.203-1.8063-1.805 0.6021-1.805h1.2042zm211.93-61.972c0-0.602-0.602-1.204-0.602-1.204s-1.205 0.602-1.807 1.204c-0.602 0.601-1.204 3.008-1.204 4.211 0 1.204-1.806 4.814-1.806 5.415 0 0.602 0 1.204 1.204 0l0.602-0.601c4.817-1.805 3.011-5.415 3.011-8.424l0.602-0.601zm-55.392 12.033c-1.806 0.602-1.806 1.204 0 1.204s5.419 2.406 6.021 2.406 2.408-1.805 3.01-3.008 1.204-4.212 1.204-4.814h-1.204c-0.602 0-1.806 0-1.806 0.602l-0.602 0.602c0 0.601-0.602 2.406-1.806 4.212l-3.613-0.602-1.204-0.602zm259.5 16.245c0-1.203-2.408-1.805-5.419-1.203l-2.408 0.602c-1.204 0-1.204 2.406 0 2.406 2.408 0 2.408 1.204 2.408 2.407v1.204c1.204 1.203 2.408 1.203 3.011 0l-0.603-0.602c-0.602-0.602-1.204-1.203 0-1.805 0.603-0.602 1.807-1.204 1.807-1.805l1.204-1.204zm-310.07-164.86c0-0.6017-3.6125-1.805-7.2251-2.4067l-3.6125-0.6017c-0.6021 0-1.8062 0.6017-1.8062 0.6017 0 0.6017 0 1.2033 0.6021 1.805 1.8062 0.6017 3.6125 1.2034 6.0208 1.2034h2.4084c1.8062 1.2033 3.6125 0 3.6125-0.6017zm-139.68 74.006c-3.0105-3.61-5.4188-6.017-5.4188-5.415s0.6021 4.212 1.2041 6.619l0.6021 1.805c0 0.601 1.2042 0.601 1.8063 0.601s1.2042-0.601 1.2042-1.203l0.6021-2.407zm1416.1 13.237c-1.81 0-2.41 0.602-0.6 1.805 1.8 1.203 6.02 4.212 6.62 3.61 0.6-0.601 0-3.61 0-3.008 0 0.601-3.61-2.407-6.02-2.407zm-724.31 58.964c1.205 0.602 3.613 0.602 5.419 0 1.806-0.601 1.204-4.813-1.806-5.415l-2.408 0.602h-1.807c-2.408 1.203-0.602 4.212 0.602 4.813zm211.94 5.416c-0.602-0.602-0.602 0-1.205 1.203 0 0.602-5.418 1.805-8.429 3.008l-2.408-1.805-1.204 0.602v1.203s7.827 1.204 8.429 1.204l2.408-1.204c2.409-1.805 3.011-4.211 2.409-4.211zm-688.79 43.32c0 1.805 1.205 2.407 2.409 1.805l0.602-0.601c1.806-3.009 3.01-4.212 4.817-4.814h0.602c0-1.203-0.603-1.203-2.409-0.601h-3.01c-1.806-0.602-3.011 2.406-3.011 4.211zm-75.26-187.12c3.6125 0 2.4083-1.805-3.0105-4.2117h-5.4187c0 0.6016 0 1.805 0.6021 1.805h1.2041c0.6021 0 1.8063 0.6017 2.4084 1.805h1.8062l2.4084 0.6017zm4.8166 137.18c-1.2041 2.407 0 4.212 3.0105 3.61l1.8062-0.602c1.2042-0.601 2.4084-1.203 3.6125-1.203 2.4084 0 1.8063-1.203 1.8063-2.407 0-0.601-0.6021-1.805-0.6021-1.805-1.8062-0.601-2.4083 0-2.4083 1.805 0 0.602-1.8063 1.204-2.4084 0.602h-4.8167zm1094-18.05c3.61 1.805 7.23 2.407 7.23 0.601l-2.41-0.601c-1.21-0.602-3.01-1.204-3.61-2.407-0.61-1.805-2.41-1.203-4.22-1.203l-1.2 1.805 4.21 1.805zm-982 10.83c1.807-0.602 1.807-1.203 0.602-1.203l-1.204-0.602-3.01-1.203c-1.204 1.805-2.409 4.211-3.613 6.016l-0.602 1.805v0.602c0.602 0.602 1.806 1.203 2.409 0.602 0.602-0.602 3.612-6.017 5.418-6.017zm-164.97 57.761c1.2042 0.602 2.4083 1.203 2.4083 0.602h0.6021c3.6126 0 3.0105-3.61 5.4188-4.814h0.6021c0-1.203-1.2042-1.805-2.4083-1.805l-0.6021 0.602c-1.8063 1.203-1.8063 4.212-5.4188 3.008 0 0-1.2042 1.204-0.6021 1.805v0.602zm596.67-42.117c-1.204-0.602-1.204 0.601-0.602 3.008h-4.215c-0.602 1.203 0 2.407 1.204 2.407h0.602l2.409-0.602c2.408-1.203 1.806-4.212 0.602-4.813zm-410.62 26.473c-2.408 0-2.408 0.602-0.602 0 1.806 0 5.419 1.805 6.021 1.805s-0.602-1.805-1.806-3.61l-1.204-1.203c-0.602-0.602-1.205-1.203-1.807-1.203-0.602 0.601-1.806 1.203-1.806 1.805l1.204 2.406zm-292.61-86.641c1.2042 1.805 2.4084 1.805 3.6125 0.602 1.2042-1.204 1.8063-4.212 0-4.212l-1.2042-0.602-1.2041-0.602c-1.2042 0-2.4084 1.204-3.6125 1.805l1.2041 2.407 1.2042 0.602zm839.31 60.168c0.602 0 0-1.805-2.408-3.61l-2.408-1.204c-1.205-0.602-3.613 1.204-4.817 1.805 0 0.602 1.204 0.602 3.01 0.602h2.409c1.806 0 2.408 0.602 2.408 1.203-0.602 0 1.204 1.204 1.806 1.204zm-175.81-10.229c-1.204 0-1.806 1.805-1.204 3.61l1.204 0.602 1.204 0.601c1.807 0 3.613-0.601 3.613-1.805 0-1.203-3.613-3.008-4.817-3.008zm193.87-0.602c-1.204-0.601-1.806-1.805-1.806-2.406 0.602-0.602 0.602-1.204 0-1.805h-0.603c-3.01 0.601-3.612 1.805-1.204 4.211l0.602 0.602c0.603 0.602 1.205 3.008 2.409 4.212l1.806-1.204c1.806-1.203 0-2.406-0.602-3.008l-0.602-0.602zm-727.92-140.79c-1.2042-2.4067-3.0105-4.2117-4.2146-3.61-1.2042 0.6017-4.2146 2.4067-4.8167 3.0084-0.6021 0.6016 1.8062 2.4067 3.0104 1.2033h1.2042l4.8167-0.6017zm1246.3 30.084c-0.61-1.204-2.41-1.805-3.62-1.204l-0.6 0.602c-0.6 0.602 0.6 1.805 0 2.407s-2.41 1.203-3.01 1.203h-0.6c0 0.602 0.6 1.204 1.8 1.204 1.21 1.203 6.03-3.009 6.03-4.212zm-1189.1 81.828c0.6021 1.203 2.4084 1.805 3.0104 0.602 0.6021-1.204 1.8063-4.212 0-4.212h-2.4083c-2.4084-1.805-1.2042 1.805-0.6021 3.61zm874.83 17.449c1.806-0.602 2.408-2.407 1.204-3.009h-0.602c-3.01-1.203-4.817 0.602-7.827 1.805 0 0-0.602 1.204 0 1.204 1.806 1.805 3.612 0.601 5.419 0.601l1.806-0.601zm-715.28 3.008c-1.204-1.203-3.01-1.805-4.215-1.203-1.204 0.601-3.01 3.008 0 3.008l1.807 0.602 1.806 0.601c1.204 1.204 2.408 1.204 1.806-0.601l-0.602-1.204-0.602-1.203zm-152.93 61.371c3.0105-0.602 4.8169-2.407 4.2149-4.212l-0.602-1.203c-1.2045 0-1.8066 0.602-2.4087 1.203 1.2042 0.602 0.6021 1.204 0 1.805-1.2042 0.602-3.0104 0.602-4.2146 1.204-0.6021 0-1.2041 1.203-0.6021 1.805 0 0.601 1.2042 1.203 1.8063 1.203l1.8062-1.805zm688.18-41.516c-2.408 0.602-4.816 1.805-4.816 3.009 0 0.601 0.602 3.008 0.602 3.008 0.602 0 1.204 0 1.806-0.602v-0.601-1.204c1.806-0.601 4.215-0.601 6.021-1.203h0.602c0.602-0.602 0-1.805-1.204-2.407h-3.011zm-752 1.805c-1.2042-1.805-2.4084-1.805-3.0105 0-3.0104 0-2.4083 2.407-3.6125 3.61-0.6021 0.602 0 3.009 0.6021 3.009 2.4083 0.601 1.8063-1.204 2.4083-2.407 0-1.203 1.2042-1.805 1.8063-2.407l1.8063-1.805zm48.167-179.3c0 1.2033 1.2042 1.2034 3.0104 0.6017 2.4084-1.2034 2.4084-4.8134 1.2042-4.8134s-4.2146 3.0083-4.2146 4.2117zm1104.8 4.8134c1.21-0.6017 0.6-1.805-1.2-2.4067-1.81-0.6017-4.22 0.6017-4.22 1.2034 1.21 0.6016 4.82 1.2033 5.42 1.2033zm-1022.9-15.042c-3.613 1.2033-4.215 3.0084-1.205 4.2117l3.011-1.805c0.602-0.6017 1.806 0 2.408-0.6017s0.602-1.2033 0.602-1.805-1.204-0.6017-1.806-0.6017l-3.01 0.6017zm-19.267 225.63c-0.602 0 0 1.805 1.204 3.008l1.806-1.805c0.602-0.601 2.409-2.406 4.215-1.203h0.602c1.806-0.602 1.806-1.805 0.602-2.407-1.204 0.602-7.827 2.407-8.429 2.407zm17.46-75.21c1.204 0.602 3.011 0 4.215-2.406v-2.407c-1.806 0-5.419 4.212-4.215 4.813zm-9.633-6.618c1.204 1.805 1.806 3.008 0.602 3.008l-0.602 0.602c-0.602 0.602-0.602 1.203-0.602 1.805s1.806 0.602 1.806 0.602l1.806-1.204c1.807-1.203 3.011-3.61 3.011-4.211l-0.602-0.602c-0.602-0.602-1.807-0.602-3.011-0.602l-2.408 0.602zm-13.848 2.407c-0.602 1.805 0 1.805 0.602-0.602l2.408 0.602 1.807 0.601c0-1.203-0.602-3.008-0.602-3.61s-4.215 1.204-4.215 3.009zm1221.6-7.822c1.21 0.601 3.01 0.601 4.82 0l-1.81-1.805-1.2-1.204c-1.2-1.203-1.81-2.406-2.41-2.406 0 0-1.81 0-2.41 0.601 0 0.602 1.81 4.212 3.01 4.814zm-1255.3 33.694c-1.806 0.601-2.408 1.805-0.602 1.805 1.204 0-0.602 3.008-0.602 3.008 0 0.602 1.204 1.203 2.408 0.602l0.602-0.602c0.603-0.602-0.602-2.407 1.205-2.407 1.806 0 2.408-1.203 1.806-1.805-0.602-0.601-1.806-0.601-3.011-0.601h-1.806zm1097.6-163.66c-0.61 0-0.61-0.6017-0.61-1.2034s-0.6-0.6017-2.4 1.2034l-3.01 0.6016s-0.61 1.2034 0 1.2034c0.6 0.6017 1.2 1.2034 1.8 1.2034 1.81-0.6017 3.61-0.6017 6.02-1.2034 0-1.2034-1.2-1.805-1.8-1.805zm-596.07 187.72c-1.807 0.601-2.409 1.805-1.204 2.406 1.204 0.602 3.612 1.805 3.01 1.204-0.602 0-0.602-1.204 0.602-1.805 1.806 0-0.602-2.407-2.408-1.805zm-519 30.685c-0.6021-1.203-1.8063-1.805-3.0104-1.203-1.2042 0.602-2.4084 5.415-1.2042 6.618 0.6021 1.204 4.8167-4.211 4.2146-5.415zm853.16-52.346c0.602 1.204 2.409 1.204 4.215 0l1.806 1.805s1.204 0 1.204-0.601v-1.204l-2.408-1.805c-4.215-1.203-5.419 0.602-4.817 1.805zm-375.7-9.025c-1.204 0-1.806 0.602-1.806 1.805 2.408 0 3.01 1.204 3.01 3.009v0.601c0.602 1.204 1.204 0.602 2.408-0.601 0.602-1.805-2.408-4.814-3.612-4.814zm425.07-6.017c-0.602 0.602 0.602 1.204 1.807 1.204h0.602c1.204-0.602 3.01-0.602 4.214-1.204 1.205-0.601 1.205-1.805 0-2.406l-3.01-1.204c-1.204 1.204-3.011 3.61-3.613 3.61zm90.92-7.821c-1.21 0.601-1.81 1.203-0.61 2.406 1.21 0.602 3.62 2.407 4.22 0.602 0-1.203-2.41-3.61-3.61-3.008zm-1075.3-1.204c0 1.204 1.2042 1.805 3.0104 1.204l1.2042-0.602h0.60209c0.60208-0.602 1.2042-1.203 0.60208-1.805l-0.60208-0.602-1.2042-0.601c-1.8063-1.204-3.6125 1.203-3.6125 2.406z" />
</svg>
