<?xml version="1.0" encoding="UTF-8"?>
<svg width="180" height="145" fill="none" version="1.1" viewBox="0 0 180 145" xmlns="http://www.w3.org/2000/svg">
 <g clip-path="url(#clip0)" fill="#efeff7">
  <path d="m24.744 119.92c1.005-5.373 0.5634-10.692 1.2608-15.957 0.607-5.2462 1.6478-10.438 3.7726-15.141 1.0894-2.3334 2.4498-4.4857 4.1531-6.3303 0.8516-0.9223 1.7753-1.7179 2.8074-2.441 0.5431-0.3435 1.0321-0.7232 1.5931-0.9762l0.8507-0.4519 0.8687-0.3614c2.262-0.9215 4.7581-1.3726 7.2896-1.4075 2.5315-0.0348 5.0984 0.3464 7.701 0.9086 5.1512 1.0882 10.174 2.9543 15.379 4.5491 2.6022 0.7974 5.2044 1.5949 8.0242 2.0667 0.6869 0.1451 1.4099 0.2359 2.0789 0.2906 0.7231 0.0908 1.392 0.1454 2.1513 0.182 0.3797 0.0183 0.7052 3e-4 1.0849 0.0186s0.7052 4e-4 1.1211-0.0356c0.7415-0.0539 1.4829-0.1078 2.1886-0.3426 0.7235-0.1444 1.4654-0.4335 2.1711-0.6683 0.3439-0.1627 0.6877-0.3253 1.0316-0.488l0.5068-0.2892 0.4527-0.3254c1.3397-0.8316 2.3906-1.9347 3.3152-3.2007 1.8131-2.4778 2.5963-5.4083 2.9274-8.2487 0.331-2.8404 0.3002-5.6085 0.0344-8.3768-0.2116-2.7321-0.6583-5.4643-1.1412-8.1423-0.966-5.3558-2.2032-10.658-3.3321-15.887-0.5734-2.6599-1.1289-5.2293-1.5577-7.8711-0.4288-2.6417-0.713-5.2653-0.6537-7.8163 0.023-2.4967 0.6428-5.0655 2.2905-6.2407 0.8328-0.5424 1.9002-0.8494 3.0755-0.8488 1.1754 6e-4 2.4406 0.2184 3.6334 0.5447 2.4395 0.6887 4.8605 1.7574 7.1725 2.9889s4.606 2.6077 6.827 4.0924c4.478 2.9152 8.776 6.1017 13 9.3967 4.225 3.295 8.341 6.7528 12.42 10.265 8.16 7.0241 16.083 14.283 23.898 21.705 0.343 0.3077 0.813 0.308 1.175 6e-4 0.308-0.3436 0.309-0.814 3e-3 -1.176-7.688-7.4943-15.557-14.952-23.644-22.085-4.043-3.5663-8.213-7.0603-12.42-10.5-4.188-3.3493-8.503-6.6262-13.054-9.6681-2.275-1.521-4.587-2.9876-7.043-4.2373-2.421-1.3039-4.95-2.445-7.697-3.2606-1.3913-0.3807-2.8192-0.7071-4.32-0.6897-1.5008 0.0173-3.2192 0.3602-4.5772 1.3365-0.7061 0.47-1.286 1.1029-1.7575 1.8083s-0.7984 1.4289-1.0348 2.1344c-0.5092 1.4652-0.6387 2.9488-0.6956 4.3238-0.096 2.8404 0.2603 5.5907 0.6165 8.3409 0.3925 2.696 0.9659 5.3559 1.5393 8.0158 1.0927 5.2836 2.3299 10.585 3.2238 15.814 0.4287 2.6418 0.8034 5.2473 0.9971 7.8889s0.2428 5.2651-0.1057 7.7797c-0.3484 2.5147-1.0403 4.9569-2.4544 6.8378-0.707 0.9404-1.5224 1.8084-2.5361 2.3869l-0.2355 0.235-0.3802 0.217c-0.2534 0.1446-0.5068 0.2892-0.8144 0.3976-0.5248 0.1987-1.0858 0.4517-1.6826 0.5238-2.3337 0.5597-4.9189 0.3231-7.4132-0.1666-2.5306-0.4356-5.0786-1.1968-7.6445-2.0484-5.114-1.6129-10.191-3.5152-15.632-4.6397-2.7473-0.5804-5.5129-1.016-8.3699-0.9632-2.8207-0.0015-5.7691 0.5398-8.4655 1.642-0.3438 0.1627-0.6514 0.2711-0.9953 0.4337l-0.9774 0.5242c-0.6878 0.3253-1.2672 0.7231-1.8828 1.1751-1.1951 0.8497-2.3181 1.8261-3.2785 2.9112-1.9751 2.1339-3.5531 4.6118-4.6972 7.1441-2.3607 5.1733-3.4745 10.709-4.0999 16.1-0.517 5.464-1.0702 10.981 0.3296 16.392 0.0895 0.452 0.5591 0.688 1.0114 0.597 0.3076-0.108 0.5431-0.343 0.6161-0.687z"/>
  <path d="m6.255 115.34c2.1619 4.036 4.5773 7.927 6.9926 11.818 1.2258 1.919 2.4516 3.837 3.6774 5.756 0.6129 0.959 1.2258 1.918 1.9291 2.859 0.7396 0.887 1.4792 1.774 2.5085 2.462 0.4334 0.29 0.9761 0.182 1.2662-0.252 0.1451-0.218 0.1456-0.453 0.146-0.688-0.2327-1.176-0.6826-2.262-1.2593-3.275-0.5766-1.014-1.2258-1.919-1.8387-2.878-1.262-1.864-2.5783-3.765-3.8403-5.629-2.6146-3.71-5.2834-7.457-8.1151-11.077-0.30668-0.362-0.83098-0.398-1.1569-0.145-0.43432 0.181-0.52568 0.669-0.30945 1.049z"/>
  <path d="m21.924 137.74c1.0858-0.451 1.937-1.138 2.7703-1.916l2.2647-2.333c1.522-1.573 3.0439-3.146 4.5659-4.72 1.4677-1.609 2.9897-3.182 4.4575-4.792 1.4677-1.609 2.9355-3.219 4.3854-4.919l0.0725-0.108c0.4894-0.615 0.4912-1.556-0.1767-2.081-0.2346-0.235-0.5418-0.362-0.8673-0.344l-30.914-2.766c-0.5243-0.036-0.92281 0.325-0.92373 0.796-0.05509 0.434 0.26948 0.886 0.75751 0.977l30.785 4.014-0.9173-2.497c-1.5761 1.537-3.098 3.11-4.62 4.684-1.5219 1.573-2.9897 3.182-4.5116 4.756-1.4678 1.609-2.9898 3.182-4.4033 4.828l-2.1927 2.459c-0.725 0.85-1.3957 1.737-1.7414 2.84-0.1819 0.507 0.0702 1.068 0.6124 1.195 0.1988 0.054 0.4338 0.054 0.5968-0.073z"/>
 </g>
 <defs>
  <clipPath id="clip0">
   <rect transform="matrix(-.83136 -.55573 -.55573 .83136 169.26 57.796)" width="104" height="149" fill="#fff"/>
  </clipPath>
 </defs>
</svg>
