<svg width="364" height="25" viewBox="0 0 364 25" fill="none" xmlns="http://www.w3.org/2000/svg">
<path d="M21.7902 0.499998C22.3502 0.499998 22.8752 0.616665 23.3652 0.849998C23.8785 1.06 24.3102 1.35167 24.6602 1.725C25.0335 2.075 25.3252 2.50667 25.5352 3.02C25.7685 3.51 25.8852 4.035 25.8852 4.595V24.335C25.8852 24.5217 25.8152 24.685 25.6752 24.825C25.5585 24.9417 25.4069 25 25.2202 25H20.3552C20.1685 25 20.0169 24.9417 19.9002 24.825C19.7835 24.685 19.7252 24.5217 19.7252 24.335V6.45H15.8052V24.335C15.8052 24.5217 15.7469 24.685 15.6302 24.825C15.5135 24.9417 15.3619 25 15.1752 25H10.7652C10.5785 25 10.4152 24.9417 10.2752 24.825C10.1585 24.685 10.1002 24.5217 10.1002 24.335V6.45H6.18022V24.335C6.18022 24.7783 5.95855 25 5.51522 25H0.685215C0.241882 25 0.020215 24.7783 0.020215 24.335V1.165C0.020215 0.721665 0.241882 0.499998 0.685215 0.499998H21.7902ZM65.3463 0.499998C65.9063 0.499998 66.4313 0.616665 66.9213 0.849998C67.4347 1.06 67.8663 1.35167 68.2163 1.725C68.5897 2.075 68.8813 2.50667 69.0913 3.02C69.3247 3.51 69.4413 4.035 69.4413 4.595V20.905C69.4413 21.465 69.3247 22.0017 69.0913 22.515C68.8813 23.005 68.5897 23.4367 68.2163 23.81C67.8663 24.1833 67.4347 24.475 66.9213 24.685C66.4313 24.895 65.9063 25 65.3463 25H52.9563C52.3963 25 51.8597 24.895 51.3463 24.685C50.8563 24.475 50.4247 24.1833 50.0513 23.81C49.678 23.4367 49.3863 23.005 49.1763 22.515C48.9663 22.0017 48.8613 21.465 48.8613 20.905V4.595C48.8613 4.035 48.9663 3.51 49.1763 3.02C49.3863 2.50667 49.678 2.075 50.0513 1.725C50.4247 1.35167 50.8563 1.06 51.3463 0.849998C51.8597 0.616665 52.3963 0.499998 52.9563 0.499998H65.3463ZM63.2463 6.45H55.0213V19.05H63.2463V6.45ZM113.442 0.499998C113.629 0.499998 113.757 0.558332 113.827 0.674998C113.92 0.791665 113.944 0.943332 113.897 1.13L106.617 24.37C106.57 24.5567 106.465 24.7083 106.302 24.825C106.139 24.9417 105.964 25 105.777 25H99.2671C99.0804 25 98.9054 24.9417 98.7421 24.825C98.5788 24.7083 98.4738 24.5567 98.4271 24.37L91.1821 1.13C91.1354 0.943332 91.1471 0.791665 91.2171 0.674998C91.3104 0.558332 91.4504 0.499998 91.6371 0.499998H96.8871C97.0738 0.499998 97.2488 0.558332 97.4121 0.674998C97.5754 0.791665 97.6804 0.943332 97.7271 1.13L102.522 18.385L107.352 1.13C107.399 0.943332 107.492 0.791665 107.632 0.674998C107.795 0.558332 107.97 0.499998 108.157 0.499998H113.442ZM141.978 6.205C141.861 6.205 141.803 6.26333 141.803 6.38V10.195C141.803 10.2883 141.861 10.335 141.978 10.335H151.953C152.139 10.335 152.291 10.405 152.408 10.545C152.548 10.6617 152.618 10.8133 152.618 11V14.5C152.618 14.9433 152.396 15.165 151.953 15.165H141.978C141.861 15.165 141.803 15.2233 141.803 15.34V19.12C141.803 19.2367 141.861 19.295 141.978 19.295H153.703C153.889 19.295 154.041 19.365 154.158 19.505C154.298 19.6217 154.368 19.7733 154.368 19.96V24.335C154.368 24.5217 154.298 24.685 154.158 24.825C154.041 24.9417 153.889 25 153.703 25H139.738C139.178 25 138.641 24.895 138.128 24.685C137.638 24.475 137.206 24.1833 136.833 23.81C136.459 23.4367 136.168 23.005 135.958 22.515C135.748 22.0017 135.643 21.465 135.643 20.905V4.595C135.643 4.035 135.748 3.51 135.958 3.02C136.168 2.50667 136.459 2.075 136.833 1.725C137.206 1.35167 137.638 1.06 138.128 0.849998C138.641 0.616665 139.178 0.499998 139.738 0.499998H153.703C153.889 0.499998 154.041 0.569999 154.158 0.71C154.298 0.826666 154.368 0.978332 154.368 1.165V5.575C154.368 5.76167 154.298 5.91333 154.158 6.03C154.041 6.14667 153.889 6.205 153.703 6.205H141.978ZM223.327 0.499998C223.887 0.499998 224.412 0.616665 224.902 0.849998C225.415 1.06 225.847 1.35167 226.197 1.725C226.57 2.075 226.862 2.50667 227.072 3.02C227.305 3.51 227.422 4.035 227.422 4.595V20.905C227.422 21.465 227.305 22.0017 227.072 22.515C226.862 23.005 226.57 23.4367 226.197 23.81C225.847 24.1833 225.415 24.475 224.902 24.685C224.412 24.895 223.887 25 223.327 25H207.507C207.063 25 206.842 24.7783 206.842 24.335V1.165C206.842 0.721665 207.063 0.499998 207.507 0.499998H223.327ZM213.002 19.05H221.227V6.45H213.002V19.05ZM266.836 0.499998C267.396 0.499998 267.921 0.616665 268.411 0.849998C268.924 1.06 269.356 1.35167 269.706 1.725C270.079 2.075 270.371 2.50667 270.581 3.02C270.814 3.51 270.931 4.035 270.931 4.595V20.905C270.931 21.465 270.814 22.0017 270.581 22.515C270.371 23.005 270.079 23.4367 269.706 23.81C269.356 24.1833 268.924 24.475 268.411 24.685C267.921 24.895 267.396 25 266.836 25H254.446C253.886 25 253.349 24.895 252.836 24.685C252.346 24.475 251.914 24.1833 251.541 23.81C251.167 23.4367 250.876 23.005 250.666 22.515C250.456 22.0017 250.351 21.465 250.351 20.905V4.595C250.351 4.035 250.456 3.51 250.666 3.02C250.876 2.50667 251.167 2.075 251.541 1.725C251.914 1.35167 252.346 1.06 252.836 0.849998C253.349 0.616665 253.886 0.499998 254.446 0.499998H266.836ZM264.736 6.45H256.511V19.05H264.736V6.45ZM318.755 0.499998C318.941 0.499998 319.093 0.569999 319.21 0.71C319.35 0.826666 319.42 0.978332 319.42 1.165V20.905C319.42 21.465 319.303 22.0017 319.07 22.515C318.86 23.005 318.568 23.4367 318.195 23.81C317.845 24.1833 317.413 24.475 316.9 24.685C316.41 24.895 315.885 25 315.325 25H297.65C297.09 25 296.553 24.895 296.04 24.685C295.55 24.475 295.118 24.1833 294.745 23.81C294.371 23.4367 294.08 23.005 293.87 22.515C293.66 22.0017 293.555 21.465 293.555 20.905V1.165C293.555 0.721665 293.776 0.499998 294.22 0.499998H299.05C299.493 0.499998 299.715 0.721665 299.715 1.165V19.05H303.6V1.165C303.6 0.978332 303.658 0.826666 303.775 0.71C303.915 0.569999 304.078 0.499998 304.265 0.499998H308.675C308.861 0.499998 309.013 0.569999 309.13 0.71C309.27 0.826666 309.34 0.978332 309.34 1.165V19.05H313.26V1.165C313.26 0.978332 313.318 0.826666 313.435 0.71C313.551 0.569999 313.703 0.499998 313.89 0.499998H318.755ZM358.952 0.499998C359.512 0.499998 360.037 0.616665 360.527 0.849998C361.04 1.06 361.472 1.35167 361.822 1.725C362.195 2.075 362.487 2.50667 362.697 3.02C362.93 3.51 363.047 4.035 363.047 4.595V24.335C363.047 24.5217 362.977 24.685 362.837 24.825C362.72 24.9417 362.568 25 362.382 25H357.517C357.33 25 357.178 24.9417 357.062 24.825C356.945 24.685 356.887 24.5217 356.887 24.335V7.08C356.887 6.89333 356.817 6.74167 356.677 6.625C356.56 6.50833 356.408 6.45 356.222 6.45H349.292C349.105 6.45 348.942 6.50833 348.802 6.625C348.685 6.74167 348.627 6.89333 348.627 7.08V24.335C348.627 24.7783 348.405 25 347.962 25H343.132C342.688 25 342.467 24.7783 342.467 24.335V1.165C342.467 0.721665 342.688 0.499998 343.132 0.499998H358.952Z" fill="#EFEFF7"/>
</svg>
