<svg width="690" height="77" viewBox="0 0 690 77" fill="none" xmlns="http://www.w3.org/2000/svg">
<path fill-rule="evenodd" clip-rule="evenodd" d="M655.16 0.296964C661.344 5.52697 667.256 11.3017 673.168 17.0764L681.897 25.8503C683.352 27.3125 684.806 28.7748 686.218 30.4352C687.537 32.1698 688.856 33.9044 689.811 36.258C690.213 37.249 689.956 38.4376 689.212 39.0315C688.855 39.3169 688.49 39.3049 688.126 39.2814C687.353 40.7937 686.429 42.092 685.43 43.3643L681.325 48.117L673.022 57.6964C671.613 59.2311 670.217 60.7967 668.82 62.3623C667.424 63.9279 666.028 65.4935 664.619 67.0282C661.801 70.0974 658.983 73.1668 656.022 76.1864L655.836 76.3349C654.77 77.3497 653.252 77.2496 652.506 75.7135C652.162 75.1684 652.004 74.4748 652.082 73.7566L652.183 40.0103C646.423 40.604 640.619 40.7548 634.814 40.9057L625.426 40.9772C623.861 40.9891 622.296 41.001 620.675 40.8473C619.081 40.5779 617.488 40.3084 615.867 39.3604C615.184 38.9613 614.843 37.9675 615.07 37.0415C615.184 36.5785 615.44 36.3311 615.696 36.0837C617.176 35.2276 618.74 34.8186 620.334 34.6909C621.396 34.6058 622.433 34.6236 623.469 34.6414C623.988 34.6502 624.506 34.6591 625.028 34.6552C626.578 34.7011 628.15 34.7595 629.722 34.818C631.294 34.8764 632.866 34.9348 634.416 34.9808C640.29 35.3087 646.24 35.6807 652.194 36.3836L652.288 5.05144C652.304 4.10171 652.736 3.36658 653.306 3.15525C652.955 2.44131 653.02 1.4727 653.421 0.865456C653.778 -0.0754728 654.58 -0.223545 655.16 0.296964ZM655.19 5.52676L656.82 66.6993C658.329 64.9288 659.846 63.1787 661.363 61.4285C662.747 59.8319 664.143 58.2663 665.539 56.7007C666.936 55.1351 668.332 53.5695 669.716 51.9729C670.655 50.9498 671.589 49.9129 672.523 48.8761C674.39 46.8024 676.258 44.7286 678.17 42.765L682.468 38.1859C682.92 37.7255 683.376 37.2767 683.844 36.8569C683.554 36.6242 683.269 36.3813 682.988 36.1296C681.956 35.2042 681.007 34.2129 680.058 33.2216C679.583 32.7259 679.108 32.2302 678.623 31.7428C677.215 30.2433 675.794 28.713 674.373 27.1826C672.952 25.6523 671.532 24.122 670.123 22.6226C665.119 17.0765 660.075 11.4311 655.19 5.52676Z" fill="#D67885"/>
<path fill-rule="evenodd" clip-rule="evenodd" d="M532.16 0.296964C538.344 5.52697 544.256 11.3017 550.168 17.0764L558.897 25.8503C560.352 27.3125 561.806 28.7748 563.218 30.4352C564.537 32.1698 565.856 33.9044 566.811 36.258C567.213 37.249 566.956 38.4376 566.212 39.0315C565.855 39.3169 565.49 39.3049 565.126 39.2814C564.353 40.7937 563.429 42.092 562.43 43.3643L558.325 48.117L550.022 57.6964C548.613 59.2311 547.217 60.7967 545.82 62.3623C544.424 63.9279 543.028 65.4935 541.619 67.0282C538.801 70.0974 535.983 73.1668 533.022 76.1864L532.836 76.3349C531.77 77.3497 530.252 77.2496 529.506 75.7135C529.162 75.1684 529.004 74.4748 529.082 73.7566L529.183 40.0103C523.423 40.604 517.619 40.7548 511.814 40.9057L502.426 40.9772C500.861 40.9891 499.296 41.001 497.675 40.8473C496.081 40.5779 494.488 40.3084 492.867 39.3604C492.184 38.9613 491.843 37.9675 492.07 37.0415C492.184 36.5785 492.44 36.3311 492.696 36.0837C494.176 35.2276 495.74 34.8186 497.334 34.6909C498.396 34.6058 499.433 34.6236 500.469 34.6414C500.988 34.6502 501.506 34.6591 502.028 34.6552C503.578 34.7011 505.15 34.7595 506.722 34.818C508.294 34.8764 509.866 34.9348 511.416 34.9808C517.29 35.3087 523.24 35.6807 529.194 36.3836L529.288 5.05144C529.304 4.10171 529.736 3.36658 530.306 3.15525C529.955 2.44131 530.02 1.4727 530.421 0.865456C530.778 -0.0754728 531.58 -0.223545 532.16 0.296964ZM532.19 5.52676L533.82 66.6993C535.329 64.9288 536.846 63.1787 538.363 61.4285C539.747 59.8319 541.143 58.2663 542.539 56.7007C543.936 55.1351 545.332 53.5695 546.716 51.9729C547.655 50.9498 548.589 49.9129 549.523 48.8761C551.39 46.8024 553.258 44.7286 555.17 42.765L559.468 38.1859C559.92 37.7255 560.376 37.2767 560.844 36.8569C560.554 36.6242 560.269 36.3813 559.988 36.1296C558.956 35.2042 558.007 34.2129 557.058 33.2216C556.583 32.7259 556.108 32.2302 555.623 31.7428C554.215 30.2433 552.794 28.713 551.373 27.1826C549.952 25.6523 548.532 24.122 547.123 22.6226C542.119 17.0765 537.075 11.4311 532.19 5.52676Z" fill="#D67885"/>
<path fill-rule="evenodd" clip-rule="evenodd" d="M409.16 0.296964C415.344 5.52697 421.256 11.3017 427.168 17.0764L435.897 25.8503C437.352 27.3125 438.806 28.7748 440.218 30.4352C441.537 32.1698 442.856 33.9044 443.811 36.258C444.213 37.249 443.956 38.4376 443.212 39.0315C442.855 39.3169 442.49 39.3049 442.126 39.2814C441.353 40.7937 440.429 42.092 439.43 43.3643L435.325 48.117L427.022 57.6964C425.613 59.2311 424.217 60.7967 422.82 62.3623C421.424 63.9279 420.028 65.4935 418.619 67.0282C415.801 70.0974 412.983 73.1668 410.022 76.1864L409.836 76.3349C408.77 77.3497 407.252 77.2496 406.506 75.7135C406.162 75.1684 406.004 74.4748 406.082 73.7566L406.183 40.0103C400.423 40.604 394.619 40.7548 388.814 40.9057L379.426 40.9772C377.861 40.9891 376.296 41.001 374.675 40.8473C373.081 40.5779 371.488 40.3084 369.867 39.3604C369.184 38.9613 368.843 37.9675 369.07 37.0415C369.184 36.5785 369.44 36.3311 369.696 36.0837C371.176 35.2276 372.74 34.8186 374.334 34.6909C375.396 34.6058 376.433 34.6236 377.469 34.6414C377.988 34.6502 378.506 34.6591 379.028 34.6552C380.578 34.7011 382.15 34.7595 383.722 34.818C385.294 34.8764 386.866 34.9348 388.416 34.9808C394.29 35.3087 400.24 35.6807 406.194 36.3836L406.288 5.05144C406.304 4.10171 406.736 3.36658 407.306 3.15525C406.955 2.44131 407.02 1.4727 407.421 0.865456C407.778 -0.0754728 408.58 -0.223545 409.16 0.296964ZM409.19 5.52676L410.82 66.6993C412.329 64.9288 413.846 63.1787 415.363 61.4285C416.747 59.8319 418.143 58.2663 419.539 56.7007C420.936 55.1351 422.332 53.5695 423.716 51.9729C424.655 50.9498 425.589 49.9129 426.523 48.8761C428.39 46.8024 430.258 44.7286 432.17 42.765L436.468 38.1859C436.92 37.7255 437.376 37.2767 437.844 36.8569C437.554 36.6242 437.269 36.3813 436.988 36.1296C435.956 35.2042 435.007 34.2129 434.058 33.2216C433.583 32.7259 433.108 32.2302 432.623 31.7428C431.215 30.2433 429.794 28.713 428.373 27.1826C426.952 25.6523 425.532 24.122 424.123 22.6226C419.119 17.0765 414.075 11.4311 409.19 5.52676Z" fill="#D67885"/>
<path fill-rule="evenodd" clip-rule="evenodd" d="M286.16 0.296964C292.344 5.52697 298.256 11.3017 304.168 17.0764L312.897 25.8503C314.352 27.3125 315.806 28.7748 317.218 30.4352C318.537 32.1698 319.856 33.9044 320.811 36.258C321.213 37.249 320.956 38.4376 320.212 39.0315C319.855 39.3169 319.49 39.3049 319.126 39.2814C318.353 40.7937 317.429 42.092 316.43 43.3643L312.325 48.117L304.022 57.6964C302.613 59.2311 301.217 60.7967 299.82 62.3623C298.424 63.9279 297.028 65.4935 295.619 67.0282C292.801 70.0974 289.983 73.1668 287.022 76.1864L286.836 76.3349C285.77 77.3497 284.252 77.2496 283.506 75.7135C283.162 75.1684 283.004 74.4748 283.082 73.7566L283.183 40.0103C277.423 40.604 271.619 40.7548 265.814 40.9057L256.426 40.9772C254.861 40.9891 253.296 41.001 251.675 40.8473C250.081 40.5779 248.488 40.3084 246.867 39.3604C246.184 38.9613 245.843 37.9675 246.07 37.0415C246.184 36.5785 246.44 36.3311 246.696 36.0837C248.176 35.2276 249.74 34.8186 251.334 34.6909C252.396 34.6058 253.433 34.6236 254.469 34.6414C254.988 34.6502 255.506 34.6591 256.028 34.6552C257.578 34.7011 259.15 34.7595 260.722 34.818C262.294 34.8764 263.866 34.9348 265.416 34.9808C271.29 35.3087 277.24 35.6807 283.194 36.3836L283.288 5.05144C283.304 4.10171 283.736 3.36658 284.306 3.15525C283.955 2.44131 284.02 1.4727 284.421 0.865456C284.778 -0.0754728 285.58 -0.223545 286.16 0.296964ZM286.19 5.52676L287.82 66.6993C289.329 64.9288 290.846 63.1787 292.363 61.4285C293.747 59.8319 295.143 58.2663 296.539 56.7007C297.936 55.1351 299.332 53.5695 300.716 51.9729C301.655 50.9498 302.589 49.9129 303.523 48.8761C305.39 46.8024 307.258 44.7286 309.17 42.765L313.468 38.1859C313.92 37.7255 314.376 37.2767 314.844 36.8569C314.554 36.6242 314.269 36.3813 313.988 36.1296C312.956 35.2042 312.007 34.2129 311.058 33.2216C310.583 32.7259 310.108 32.2302 309.623 31.7428C308.215 30.2433 306.794 28.713 305.373 27.1826C303.952 25.6523 302.532 24.122 301.123 22.6226C296.119 17.0765 291.075 11.4311 286.19 5.52676Z" fill="#D67885"/>
<path fill-rule="evenodd" clip-rule="evenodd" d="M163.16 0.296964C169.344 5.52697 175.256 11.3017 181.168 17.0764L189.897 25.8503C191.352 27.3125 192.806 28.7748 194.218 30.4352C195.537 32.1698 196.856 33.9044 197.811 36.258C198.213 37.249 197.956 38.4376 197.212 39.0315C196.855 39.3169 196.49 39.3049 196.126 39.2814C195.353 40.7937 194.429 42.092 193.43 43.3643L189.325 48.117L181.022 57.6964C179.613 59.2311 178.217 60.7967 176.82 62.3623C175.424 63.9279 174.028 65.4935 172.619 67.0282C169.801 70.0974 166.983 73.1668 164.022 76.1864L163.836 76.3349C162.77 77.3497 161.252 77.2496 160.506 75.7135C160.162 75.1684 160.004 74.4748 160.082 73.7566L160.183 40.0103C154.423 40.604 148.619 40.7548 142.814 40.9057L133.426 40.9772C131.861 40.9891 130.296 41.001 128.675 40.8473C127.081 40.5779 125.488 40.3084 123.867 39.3604C123.184 38.9613 122.843 37.9675 123.07 37.0415C123.184 36.5785 123.44 36.3311 123.696 36.0837C125.176 35.2276 126.74 34.8186 128.334 34.6909C129.396 34.6058 130.433 34.6236 131.469 34.6414C131.988 34.6502 132.506 34.6591 133.028 34.6552C134.578 34.7011 136.15 34.7595 137.722 34.818C139.294 34.8764 140.866 34.9348 142.416 34.9808C148.29 35.3087 154.24 35.6807 160.194 36.3836L160.288 5.05144C160.304 4.10171 160.736 3.36658 161.306 3.15525C160.955 2.44131 161.02 1.4727 161.421 0.865456C161.778 -0.0754728 162.58 -0.223545 163.16 0.296964ZM163.19 5.52676L164.82 66.6993C166.329 64.9288 167.846 63.1787 169.363 61.4285C170.747 59.8319 172.143 58.2663 173.539 56.7007C174.936 55.1351 176.332 53.5695 177.716 51.9729C178.655 50.9498 179.589 49.9129 180.523 48.8761C182.39 46.8024 184.258 44.7286 186.17 42.765L190.468 38.1859C190.92 37.7255 191.376 37.2767 191.844 36.8569C191.554 36.6242 191.269 36.3813 190.988 36.1296C189.956 35.2042 189.007 34.2129 188.058 33.2216C187.583 32.7259 187.108 32.2302 186.623 31.7428C185.215 30.2433 183.794 28.713 182.373 27.1826C180.952 25.6523 179.532 24.122 178.123 22.6226C173.119 17.0765 168.075 11.4311 163.19 5.52676Z" fill="#D67885"/>
<path fill-rule="evenodd" clip-rule="evenodd" d="M40.16 0.296964C46.3436 5.52697 52.2556 11.3017 58.1677 17.0764L66.8967 25.8503C68.3515 27.3125 69.8063 28.7748 71.2183 30.4352C72.5374 32.1698 73.8564 33.9044 74.8109 36.258C75.2127 37.249 74.9562 38.4376 74.2121 39.0315C73.8547 39.3169 73.4904 39.3049 73.1258 39.2814C72.3531 40.7937 71.4291 42.092 70.43 43.3643L66.325 48.117L58.0221 57.6964C56.6131 59.2311 55.2168 60.7967 53.8204 62.3623C52.424 63.9279 51.0276 65.4935 49.6187 67.0282C46.8008 70.0974 43.9828 73.1668 41.0218 76.1864L40.8358 76.3349C39.77 77.3497 38.2521 77.2496 37.506 75.7135C37.1618 75.1684 37.0036 74.4748 37.0817 73.7566L37.1828 40.0103C31.4232 40.604 25.6188 40.7548 19.8144 40.9057L10.4256 40.9772C8.86087 40.9891 7.29613 41.001 5.67451 40.8473C4.08136 40.5779 2.48819 40.3084 0.866652 39.3604C0.183897 38.9613 -0.157411 37.9675 0.0702724 37.0415C0.184114 36.5785 0.440185 36.3311 0.696255 36.0837C2.17572 35.2276 3.74049 34.8186 5.33368 34.6909C6.39579 34.6058 7.4326 34.6236 8.46941 34.6414C8.98785 34.6502 9.50629 34.6591 10.0279 34.6552C11.5783 34.7011 13.1501 34.7595 14.7219 34.818C16.2938 34.8764 17.8657 34.9348 19.4163 34.9808C25.2904 35.3087 31.2397 35.6807 37.1937 36.3836L37.2875 5.05144C37.3041 4.10171 37.7356 3.36658 38.3061 3.15525C37.9546 2.44131 38.02 1.4727 38.4208 0.865456C38.7778 -0.0754728 39.5796 -0.223545 40.16 0.296964ZM40.1899 5.52676L41.8204 66.6993C43.329 64.9288 44.8459 63.1787 46.3629 61.4285C47.7467 59.8319 49.1431 58.2663 50.5394 56.7007C51.9358 55.1351 53.3322 53.5695 54.716 51.9729C55.6553 50.9498 56.5891 49.9129 57.5228 48.8761C59.3902 46.8024 61.2576 44.7286 63.1697 42.765L67.4681 38.1859C67.9196 37.7255 68.3758 37.2767 68.8437 36.8569C68.5537 36.6242 68.2685 36.3813 67.9877 36.1296C66.9559 35.2042 66.0067 34.2129 65.0576 33.2216C64.5829 32.7259 64.1083 32.2302 63.6234 31.7428C62.215 30.2433 60.7942 28.713 59.3733 27.1826C57.9525 25.6523 56.5317 24.122 55.1234 22.6226C50.1191 17.0765 45.0746 11.4311 40.1899 5.52676Z" fill="#D67885"/>
</svg>
