<svg width="103" height="16" viewBox="0 0 103 16" fill="none" xmlns="http://www.w3.org/2000/svg">
<path d="M3.57254 5.36182C3.57254 8.64245 3.55568 11.8314 3.58772 15.0204C3.59446 15.6369 3.44607 15.8185 2.80361 15.8052C1.01111 15.7685 1.01111 15.8018 1.01111 14.0424C1.01111 9.82374 1.02628 5.60508 0.994244 1.38642C0.989186 0.75329 1.16793 0.644991 1.77836 0.605004C2.71929 0.545023 3.29431 0.849926 3.86089 1.60635C6.06315 4.55042 8.34635 7.43616 10.6009 10.3419C10.783 10.5752 10.9736 10.8018 11.2906 11.1916C11.2906 10.3536 11.2906 9.70211 11.2906 9.05065C11.2906 6.46981 11.3057 3.88729 11.2771 1.30645C11.2703 0.764953 11.4154 0.615001 11.9684 0.616667C13.8672 0.629996 13.8672 0.60667 13.8672 2.44275C13.8672 6.63475 13.8537 10.8251 13.8824 15.0171C13.8857 15.6269 13.7424 15.7802 13.105 15.8202C12.1556 15.8801 11.5907 15.5453 11.0309 14.8005C8.80502 11.8381 6.50664 8.93069 4.23187 6.00495C4.06493 5.79169 3.95364 5.52344 3.57254 5.36182Z" fill="#525375"/>
<path d="M44.586 6.19328C44.586 4.41385 44.6096 2.85934 44.5725 1.3065C44.559 0.750013 44.7394 0.618388 45.2824 0.620054C47.3312 0.623386 47.3261 0.603393 47.3312 2.63608C47.3379 5.1886 47.2924 7.74279 47.375 10.292C47.4695 13.206 50.2248 14.7156 52.8588 13.3577C54.1994 12.6662 54.5872 11.4349 54.6074 10.082C54.6496 7.16964 54.6445 4.25556 54.6159 1.34316C54.6091 0.751679 54.7727 0.611723 55.3578 0.618388C57.3442 0.641714 57.3459 0.616722 57.3426 2.59776C57.3375 5.12196 57.3358 7.64782 57.3189 10.172C57.3139 11.0667 57.1183 11.9298 56.7675 12.7562C56.1925 14.1124 55.1875 15.0438 53.7947 15.512C51.9043 16.1468 49.9753 16.1584 48.0951 15.4953C45.8878 14.7156 44.9114 12.9945 44.6787 10.7902C44.5118 9.18733 44.6062 7.57617 44.586 6.19328Z" fill="#525375"/>
<path d="M37.7717 9.35389C37.7717 11.2966 37.7582 13.241 37.7818 15.1837C37.7869 15.6386 37.6756 15.7918 37.1849 15.8018C34.9793 15.8435 34.981 15.8602 34.981 13.6825C34.981 10.4352 34.986 7.18625 34.9793 3.93895C34.9759 2.75266 35.1226 2.90595 33.8849 2.89595C32.8175 2.88762 31.7484 2.87262 30.6827 2.90428C30.197 2.91761 29.9997 2.82264 29.998 2.27615C29.9964 0.635001 29.9677 0.635001 31.654 0.635001C35.1091 0.635001 38.5659 0.653329 42.0211 0.61834C42.6669 0.611675 42.8187 0.793284 42.8035 1.40642C42.7664 2.89262 42.7985 2.89428 41.2943 2.89428C40.3669 2.89428 39.4377 2.92927 38.5137 2.88262C37.9319 2.85263 37.7498 3.01758 37.7616 3.61072C37.7953 5.52345 37.7717 7.4395 37.7717 9.35389Z" fill="#525375"/>
<path d="M101.511 14.1961C101.511 11.6319 101.511 9.28097 101.511 6.93172C101.511 5.01733 101.509 3.10127 101.512 1.18688C101.512 0.928628 101.414 0.637054 101.887 0.622058C102.362 0.608729 102.354 0.853651 102.354 1.18688C102.349 5.84873 102.352 10.5122 102.342 15.1741C102.342 15.3824 102.502 15.7023 102.124 15.7822C101.79 15.8522 101.556 15.7189 101.349 15.434C100.168 13.8145 98.9677 12.2084 97.7721 10.5989C95.8801 8.04969 93.9881 5.50051 92.0945 2.95298C91.9528 2.76138 91.8044 2.57477 91.6358 2.35651C91.4318 2.68474 91.5161 2.96465 91.5161 3.22623C91.5093 7.16664 91.5144 11.1087 91.5059 15.0491C91.5059 15.3624 91.6931 15.8256 91.049 15.7956C90.4503 15.7672 90.6864 15.3224 90.6847 15.0575C90.6696 10.5339 90.6679 6.01034 90.6881 1.48678C90.6898 1.21187 90.4301 0.787006 90.9292 0.64705C91.3694 0.523756 91.5717 0.846987 91.7943 1.14523C94.8802 5.30557 97.9711 9.46258 101.062 13.6196C101.16 13.7495 101.264 13.8795 101.511 14.1961Z" fill="#525375"/>
<path d="M61.3271 8.04487C61.3389 10.1309 61.6324 11.9886 63.0303 13.4531C65.0217 15.5375 68.6776 15.6241 71.1884 13.7231C71.4144 13.5514 71.6235 13.0883 71.9944 13.3798C72.3502 13.6614 72.3249 13.9696 71.9034 14.3012C69.691 16.039 67.2291 16.3855 64.617 15.5008C62.1197 14.6561 60.9949 12.6601 60.5397 10.2325C60.2496 8.69133 60.2715 7.14182 60.6594 5.61231C61.6661 1.62691 65.1415 -0.36079 69.1649 0.718866C70.2424 1.00877 71.1884 1.49529 72.0298 2.22339C72.3654 2.5133 72.2406 2.71157 72.0568 2.97981C71.7955 3.36136 71.6116 3.0298 71.4565 2.90317C69.9743 1.68689 68.288 1.18205 66.3724 1.41198C63.8279 1.71688 62.1433 3.2364 61.5767 5.73061C61.3912 6.54701 61.3474 7.37342 61.3271 8.04487Z" fill="#525375"/>
<path d="M31.308 15.0139C29.2811 10.6636 27.2543 6.31163 25.3353 1.91303C24.88 0.871695 24.3488 0.495148 23.2426 0.606779C22.6761 0.663428 22.3675 0.781724 22.1246 1.32155C20.0775 5.87677 17.995 10.4153 15.931 14.9622C15.8214 15.2038 15.6072 15.4271 15.7202 15.7886C16.3762 15.7886 17.0456 15.7586 17.7117 15.7986C18.172 15.8269 18.4149 15.6903 18.5818 15.2488C18.8955 14.4207 19.3018 13.626 19.6256 12.8012C19.7925 12.3747 20.0269 12.2198 20.4991 12.2281C22.0994 12.2581 23.7013 12.2397 25.3033 12.2397C27.3622 12.2397 27.3622 12.2397 28.1547 14.1025C28.8764 15.7969 28.8764 15.772 30.7718 15.8019C31.4699 15.8136 31.6385 15.722 31.308 15.0139ZM25.9069 10.1171C24.2561 10.1088 22.6035 10.1138 20.811 10.1138C21.7469 7.94778 22.6406 5.8801 23.6136 3.62582C24.5478 5.77014 25.4027 7.73451 26.2577 9.69889C26.4145 10.0604 26.2223 10.1188 25.9069 10.1171Z" fill="#525375"/>
<path d="M87.6915 15.4258C85.6225 10.6456 83.5467 5.86883 81.4878 1.08535C81.3461 0.755452 81.1775 0.630492 80.8116 0.620495C80.3917 0.608832 80.3057 0.86875 80.1826 1.15366C79.24 3.3413 78.2923 5.52727 77.3446 7.71324C76.1895 10.3791 75.0327 13.0449 73.8743 15.714C74.5437 15.9323 74.8843 15.7374 75.1137 15.1092C75.483 14.0962 75.9753 13.1282 76.3733 12.1252C76.5318 11.727 76.7426 11.5903 77.1743 11.5937C79.616 11.6137 82.0577 11.6137 84.4977 11.5937C84.9294 11.5903 85.1469 11.727 85.3055 12.1168C85.7118 13.1182 86.1958 14.0879 86.5735 15.0992C86.8029 15.7107 87.1351 15.939 87.7809 15.7307C87.7522 15.6324 87.7337 15.5241 87.6915 15.4258ZM77.5048 10.7556C77.1254 10.7573 76.9972 10.684 77.1726 10.2824C78.3817 7.51664 79.5722 4.74252 80.8369 1.81178C82.1488 4.84582 83.3949 7.72657 84.7035 10.7523C82.2112 10.7506 79.8588 10.7473 77.5048 10.7556Z" fill="#525375"/>
</svg>
