<svg width="134" height="21" viewBox="0 0 134 21" fill="none" xmlns="http://www.w3.org/2000/svg">
<g opacity="0.5">
<path d="M3.40376 6.51666C3.40376 10.848 3.38149 15.0584 3.42379 19.2688C3.4327 20.0828 3.23678 20.3225 2.38854 20.3049C0.0219122 20.2565 0.0219124 20.3005 0.0219124 17.9776C0.0219124 12.4077 0.0419496 6.83783 -0.000351251 1.26796C-0.00703034 0.432045 0.228964 0.289058 1.03491 0.236263C2.27722 0.157071 3.03641 0.559632 3.78447 1.55834C6.6921 5.44536 9.70659 9.2554 12.6832 13.0918C12.9237 13.3998 13.1753 13.699 13.5938 14.2137C13.5938 13.1072 13.5938 12.2471 13.5938 11.387C13.5938 7.97952 13.6139 4.56985 13.576 1.16237C13.5671 0.447443 13.7586 0.249462 14.4888 0.251662C16.9957 0.26926 16.9957 0.238463 16.9957 2.66263C16.9957 8.1973 16.9779 13.7298 17.0157 19.2644C17.0202 20.0696 16.831 20.2719 15.9894 20.3247C14.7359 20.4039 13.9901 19.9618 13.251 18.9785C10.3122 15.0672 7.27763 11.2286 4.27427 7.36578C4.05386 7.08421 3.90692 6.73004 3.40376 6.51666Z" fill="#525375"/>
<path d="M57.5535 7.6147C57.5535 5.26532 57.5847 3.21292 57.5357 1.16271C57.5179 0.427985 57.7561 0.254202 58.473 0.256401C61.178 0.260801 61.1714 0.234404 61.178 2.91815C61.1869 6.28822 61.1268 9.6605 61.2359 13.0262C61.3606 16.8736 64.9985 18.8666 68.4761 17.0738C70.246 16.1609 70.7581 14.5352 70.7848 12.749C70.8405 8.90377 70.8338 5.05634 70.7959 1.21111C70.787 0.430185 71.003 0.245402 71.7755 0.254202C74.3982 0.284999 74.4004 0.252002 74.396 2.86755C74.3893 6.20023 74.387 9.53511 74.3648 12.8678C74.3581 14.0491 74.0998 15.1886 73.6368 16.2797C72.8776 18.0703 71.5507 19.3 69.7117 19.9181C67.2159 20.7562 64.669 20.7716 62.1866 19.8961C59.2723 18.8666 57.9832 16.5942 57.676 13.6839C57.4556 11.5677 57.5802 9.44052 57.5535 7.6147Z" fill="#525375"/>
<path d="M48.5568 11.7876C48.5568 14.3526 48.5389 16.9197 48.5701 19.4847C48.5768 20.0852 48.4299 20.2876 47.782 20.3008C44.8699 20.3558 44.8721 20.3778 44.8721 17.5027C44.8721 13.2153 44.8788 8.92571 44.8699 4.63832C44.8654 3.07207 45.0591 3.27445 43.425 3.26125C42.0157 3.25025 40.6042 3.23045 39.1971 3.27225C38.5559 3.28985 38.2954 3.16446 38.2932 2.44293C38.291 0.276136 38.2531 0.276136 40.4795 0.276136C45.0413 0.276136 49.6054 0.300334 54.1672 0.254138C55.0199 0.245339 55.2203 0.485116 55.2002 1.29464C55.1512 3.25685 55.1935 3.25905 53.2076 3.25905C51.9831 3.25905 50.7564 3.30525 49.5364 3.24365C48.7683 3.20406 48.5278 3.42183 48.5434 4.20496C48.5879 6.73032 48.5568 9.26007 48.5568 11.7876Z" fill="#525375"/>
<path d="M132.711 18.1801C132.711 14.7946 132.711 11.6907 132.711 8.58902C132.711 6.06147 132.708 3.53171 132.713 1.00415C132.713 0.663184 132.584 0.27822 133.207 0.258422C133.835 0.240824 133.824 0.564193 133.824 1.00415C133.817 7.15916 133.822 13.3164 133.808 19.4714C133.808 19.7464 134.02 20.1687 133.521 20.2743C133.08 20.3667 132.771 20.1907 132.497 19.8145C130.939 17.6763 129.353 15.5558 127.775 13.4308C125.277 10.0651 122.779 6.6994 120.279 3.33593C120.092 3.08295 119.896 2.83657 119.673 2.5484C119.404 2.98176 119.515 3.35133 119.515 3.69669C119.506 8.89919 119.513 14.1039 119.502 19.3064C119.502 19.72 119.749 20.3315 118.898 20.2919C118.108 20.2545 118.42 19.6672 118.417 19.3174C118.397 13.345 118.395 7.37254 118.422 1.40011C118.424 1.03715 118.081 0.476202 118.74 0.291419C119.321 0.128635 119.589 0.555394 119.882 0.949156C123.957 6.44203 128.038 11.9305 132.118 17.419C132.248 17.5906 132.386 17.7621 132.711 18.1801Z" fill="#525375"/>
<path d="M79.6567 10.0588C79.6722 12.8129 80.0596 15.2657 81.9053 17.1993C84.5346 19.9513 89.3614 20.0656 92.6764 17.5557C92.9747 17.3291 93.2508 16.7176 93.7406 17.1025C94.2104 17.4743 94.177 17.8813 93.6204 18.319C90.6994 20.6134 87.4489 21.0709 84.0003 19.9029C80.703 18.7876 79.2181 16.1522 78.617 12.9471C78.234 10.9123 78.263 8.86652 78.775 6.84711C80.1042 1.58522 84.6927 -1.03913 90.0048 0.386333C91.4274 0.769096 92.6764 1.41143 93.7874 2.37274C94.2304 2.75551 94.0657 3.01728 93.823 3.37145C93.4779 3.8752 93.2352 3.43744 93.0304 3.27026C91.0734 1.66441 88.8471 0.997874 86.3179 1.30145C82.9584 1.70401 80.7342 3.71021 79.9862 7.0033C79.7413 8.08119 79.6834 9.17229 79.6567 10.0588Z" fill="#525375"/>
<path d="M40.023 19.2594C37.3469 13.5158 34.6708 7.76991 32.1372 1.96246C31.5361 0.587596 30.8348 0.0904435 29.3743 0.237829C28.6262 0.312622 28.2188 0.468807 27.8982 1.18154C25.1954 7.19576 22.4459 13.188 19.7208 19.1912C19.5761 19.5102 19.2933 19.805 19.4425 20.2823C20.3086 20.2823 21.1924 20.2427 22.0718 20.2955C22.6796 20.3329 23.0002 20.1525 23.2206 19.5696C23.6347 18.4763 24.1713 17.427 24.5988 16.3381C24.8192 15.7749 25.1286 15.5704 25.752 15.5814C27.8648 15.621 29.9799 15.5968 32.0949 15.5968C34.8133 15.5968 34.8133 15.5968 35.8597 18.0561C36.8126 20.2933 36.8126 20.2603 39.315 20.2999C40.2367 20.3153 40.4594 20.1943 40.023 19.2594ZM32.892 12.7942C30.7123 12.7832 28.5305 12.7898 26.1639 12.7898C27.3995 9.9301 28.5795 7.20016 29.8641 4.22385C31.0975 7.05498 32.2263 9.64853 33.355 12.2421C33.5621 12.7194 33.3083 12.7964 32.892 12.7942Z" fill="#525375"/>
<path d="M114.465 19.8037C111.734 13.4925 108.993 7.18569 106.275 0.8701C106.088 0.434542 105.865 0.269557 105.382 0.256359C104.827 0.24096 104.714 0.584127 104.551 0.960291C103.307 3.84861 102.056 6.73474 100.804 9.62086C99.2794 13.1405 97.7521 16.6602 96.2226 20.1842C97.1065 20.4724 97.5562 20.215 97.859 19.3857C98.3465 18.0483 98.9966 16.7702 99.5221 15.4459C99.7313 14.9202 100.01 14.7398 100.58 14.7442C103.803 14.7706 107.027 14.7706 110.249 14.7442C110.819 14.7398 111.106 14.9202 111.315 15.4349C111.852 16.757 112.491 18.0373 112.989 19.3725C113.292 20.1798 113.731 20.4812 114.583 20.2062C114.546 20.0765 114.521 19.9335 114.465 19.8037ZM101.016 13.6377C100.515 13.6399 100.346 13.5431 100.577 13.0129C102.174 9.36129 103.745 5.69864 105.415 1.82921C107.147 5.83502 108.793 9.63846 110.52 13.6333C107.23 13.6311 104.124 13.6267 101.016 13.6377Z" fill="#525375"/>
</g>
</svg>
