<svg width="86" height="85" viewBox="0 0 86 85" fill="none" xmlns="http://www.w3.org/2000/svg">
<path d="M79.1857 14.4355C79.497 20.7873 76.735 34.9901 76.735 34.9901L80.664 40.5924C86.2658 27.7309 85.4489 11.2004 85.4489 11.2004C43.9411 -10.3405 4.4563 6.82125 4.4563 6.82125C50.6711 -3.67304 79.1857 14.4355 79.1857 14.4355Z" fill="#8080A7"/>
<path d="M62.03 60.3962C60.435 64.1047 42.0736 76.8083 42.0736 76.8083L36.6274 72.942L43.3574 84.0675C56.9339 76.0193 73.5837 55.583 73.5837 55.583C71.2496 58.2263 62.03 60.3962 62.03 60.3962Z" fill="#8080A7"/>
<path d="M80.6642 43.5907C79.7306 39.3693 73.1173 34.5956 73.1173 34.5956C71.6002 33.8855 73.5452 33.3332 73.5452 33.3332C67.9045 17.2367 55.2227 13.5281 55.2227 13.5281C54.2891 12.8969 35.5386 5.6377 35.5386 5.6377C33.7103 12.7391 43.9413 18.7753 43.9413 18.7753C33.5547 16.921 33.7103 8.39935 33.7103 8.39935C13.2482 5.75605 0.605233 11.2005 0.605233 11.2005C0.605233 11.2005 0.605233 11.2005 0.605233 11.2399V11.2794C0.605233 11.2794 0.605233 11.2794 0.605233 11.3188C0.605233 11.3583 0.605233 11.3583 0.605233 11.3977C0.605233 11.4372 0.605233 11.4766 0.605233 11.5555C0.605233 11.595 0.605233 11.6344 0.605233 11.6344C0.605233 11.7133 0.605233 11.7528 0.605233 11.8317C0.52743 13.8832 0.683036 16.8027 0.955345 19.9589C1.14985 21.6948 1.42216 23.6674 1.77227 25.7978C1.96678 25.7583 2.16129 25.7189 2.35579 25.64C3.05602 25.2849 3.71734 24.772 4.37866 24.338C5.15669 23.8646 6.82945 23.6279 6.36263 22.5232C6.63494 22.4049 6.94615 22.4443 7.21846 22.5627C7.21846 22.5232 7.17956 22.5232 7.17956 22.4838C7.37407 22.5232 7.56857 22.5232 7.76308 22.5232L7.72418 22.4049L6.16812 20.9452L15.0765 22.6021L8.58001 29.309L8.85232 27.1392L8.73561 26.5474C8.58001 26.7052 8.4633 26.8235 8.3077 26.9813C8.03539 26.863 7.76308 26.7841 7.49077 26.863C7.21846 26.9419 7.06285 27.3364 7.25736 27.5337C7.10176 27.4942 6.94615 27.4942 6.79055 27.5337C6.63494 27.6126 6.51824 27.7704 6.59604 27.9282C6.28483 27.5731 5.74021 27.8493 5.3512 28.1255C4.41756 28.8356 3.56173 29.6246 2.78371 30.4531C3.28943 32.5836 3.91185 34.8718 4.68987 37.2389C4.92328 36.9628 5.15669 36.6866 5.429 36.371C6.01252 35.7397 6.79055 35.503 7.37407 34.9507C7.21846 34.714 7.02395 34.4378 6.82945 34.2406C7.10176 34.0433 7.56857 33.9644 7.80198 33.8066C8.07429 33.6093 8.11319 33.3726 8.3077 33.2148C8.3855 33.1359 8.4244 32.9781 8.54111 32.8597C8.65781 32.7808 9.31913 32.6625 9.51364 32.5836C10.0972 32.3863 10.3306 32.2679 10.9919 32.4652C11.0697 31.4 10.4862 31.4 11.6143 31.0844C11.4198 30.8082 11.2253 30.5715 10.9919 30.3348C11.6143 30.1375 12.12 30.2164 12.7425 29.8614C13.715 29.3485 14.6097 28.5594 15.5044 27.9282C16.5548 27.1786 18.8889 26.7841 18.1886 25.2454C18.5387 25.0482 19.0056 25.0876 19.3946 25.2849C19.3946 25.2455 19.3168 25.206 19.3168 25.1665C19.5891 25.1665 19.8614 25.206 20.1337 25.206L20.0948 25.0482L17.8385 23.0756L30.3648 24.9298L21.6898 34.6351L21.9621 31.5578L21.7287 30.7688C21.5342 30.966 21.3396 31.2027 21.1451 31.4C20.7561 31.2816 20.3671 31.1633 20.017 31.2816C19.6669 31.4 19.4335 31.9523 19.7058 32.2285C19.4724 32.189 19.239 32.189 19.0445 32.2679C18.85 32.3468 18.6944 32.623 18.8111 32.8203C18.3442 32.3468 17.5662 32.7808 17.0994 33.1753C15.7379 34.3195 14.4541 35.5819 13.2871 36.9628C12.3534 38.0674 11.2642 39.3299 9.82485 39.2904C10.175 39.6455 10.0194 40.2767 9.70815 40.6713C9.39694 41.0263 8.93012 41.2631 8.5022 41.5392C7.84088 42.0126 7.37407 42.6044 6.94615 43.3146C8.15209 46.1946 9.55254 49.114 11.2253 52.073C11.6143 51.7573 12.0811 51.4417 12.3145 51.0472C10.4084 49.8242 12.3145 49.2719 13.4038 48.4039C14.6486 47.4176 15.3877 46.2735 16.3992 45.0505C17.1772 44.1431 18.2275 43.7091 19.0445 42.92C18.8111 42.6044 18.5387 42.2494 18.2664 41.9337C18.6555 41.6181 19.2779 41.5392 19.628 41.2631C20.017 40.9474 20.017 40.6713 20.3282 40.3951C20.4449 40.2767 20.4449 40.0795 20.6394 39.9217C20.795 39.7639 21.7287 39.5666 22.001 39.4877C22.8179 39.1721 23.1291 38.9748 24.0627 39.2115C24.1016 37.7124 23.2847 37.7518 24.8408 37.1995C24.5685 36.8444 24.2572 36.4893 23.9071 36.2132C24.8019 35.937 25.5021 35.937 26.319 35.4636C27.6806 34.6745 28.8476 33.5304 30.0924 32.5836C31.5318 31.4789 34.7606 30.7688 33.6714 28.6778C34.1382 28.4016 34.8384 28.4411 35.383 28.6383C35.383 28.5594 35.2663 28.5594 35.3052 28.4411C35.6942 28.4411 36.0833 28.4411 36.4723 28.4411L36.3945 28.2044L33.0878 25.6005L50.788 27.4153L39.1176 41.6181L39.3121 37.2784L38.962 36.1737C38.6896 36.4893 38.4562 36.805 38.2228 37.1206C37.6782 36.9628 37.1336 36.805 36.6279 37.0417C36.1222 37.2389 35.8498 38.028 36.2389 38.383C35.9276 38.383 35.5775 38.3436 35.3052 38.5014C35.0329 38.6592 34.8384 39.0143 34.994 39.2904C34.3327 38.6987 33.2824 39.2904 32.5821 39.9217C30.7149 41.6181 29.0032 43.4724 27.4472 45.445C26.2023 47.0625 24.763 48.8773 22.7401 48.9562C23.2458 49.4691 23.0902 50.3371 22.6234 50.8894C22.1955 51.4417 21.5342 51.7573 20.9895 52.1913C18.5777 54.0456 17.9941 57.5568 16.2047 59.9634C21.4953 67.1832 28.4975 74.324 37.8727 80.5969C35.9665 78.1903 29.0421 66.118 29.0421 66.118C27.7973 64.3426 27.2526 62.1727 27.0192 60.3974C26.7469 58.3853 26.9025 56.8467 26.9025 56.8467C26.5524 57.3201 26.2412 57.8724 25.93 58.4248C24.4129 61.3048 23.6348 64.7766 23.6348 64.7766C23.4014 60.9892 24.0238 58.4642 25.0353 56.7678C27.7584 52.2308 33.3991 53.8483 33.3991 53.8483C44.3692 61.3837 38.4951 68.4851 38.4951 68.4851C38.6118 68.5245 38.7285 68.564 38.8452 68.564C49.5042 71.2862 57.2845 61.1075 57.5179 60.8314C56.9733 61.5415 48.7651 62.6856 48.7651 62.6856L48.5706 63.8297C47.1312 63.3168 45.8086 59.0166 45.5363 57.2412C42.2686 37.9491 56.1174 44.7743 56.1174 44.7743C56.0785 44.6165 56.0396 44.4587 56.0007 44.3009C54.5225 40.1978 46.1587 42.6833 46.1587 42.6833C52.2662 38.8565 58.9961 42.565 58.9961 42.565C66.8153 47.536 74.8679 47.2992 74.8679 47.2992C73.5452 48.759 67.6322 47.8121 67.6322 47.8121C64.17 53.8878 54.2891 59.2533 54.2891 59.2533C68.7215 60.2001 79.7306 45.6423 79.7306 45.6423C79.3415 42.4466 76.6962 42.131 76.6962 42.131C78.1356 40.5924 80.6642 43.5907 80.6642 43.5907ZM64.9091 33.6882C64.9091 33.6882 63.3531 33.4515 64.2089 31.4394C64.2089 31.4394 63.781 29.1512 62.8085 28.3622C62.8085 28.3622 62.8085 28.3622 62.8085 28.3227C64.4423 28.9145 68.2158 30.6504 69.1883 34.9901C69.1883 35.0296 65.9984 33.6882 64.9091 33.6882Z" fill="#525375"/>
</svg>
