<svg width="113" height="111" viewBox="0 0 113 111" fill="none" xmlns="http://www.w3.org/2000/svg">
<g opacity="0.5">
<path d="M103.776 18.6066C104.186 26.9928 100.54 45.7447 100.54 45.7447L105.727 53.1413C113.123 36.1604 112.045 14.3353 112.045 14.3353C57.2423 -14.105 5.11072 8.55349 5.11072 8.55349C66.1278 -5.30206 103.776 18.6066 103.776 18.6066Z" fill="#8080A7"/>
<path d="M81.1252 79.2894C79.0194 84.1857 54.7769 100.958 54.7769 100.958L47.5863 95.8535L56.4718 110.542C74.3969 99.9164 96.3794 72.9346 96.3794 72.9346C93.2978 76.4245 81.1252 79.2894 81.1252 79.2894Z" fill="#8080A7"/>
<path d="M105.728 57.1004C104.495 51.5269 95.7637 45.2242 95.7637 45.2242C93.7606 44.2866 96.3287 43.5573 96.3287 43.5573C88.8813 22.3052 72.1375 17.4089 72.1375 17.4089C70.9049 16.5755 46.1488 6.99121 46.1488 6.99121C43.7348 16.3671 57.2428 24.3367 57.2428 24.3367C43.5294 21.8885 43.7348 10.6374 43.7348 10.6374C16.7188 7.14748 0.0264426 14.3357 0.0264426 14.3357C0.0264426 14.3357 0.0264426 14.3357 0.0264426 14.3878V14.4399C0.0264426 14.4399 0.0264426 14.4399 0.0264426 14.492C0.0264426 14.544 0.0264426 14.544 0.0264426 14.5961C0.0264426 14.6482 0.0264426 14.7003 0.0264426 14.8045C0.0264426 14.8566 0.0264426 14.9087 0.0264426 14.9087C0.0264426 15.0128 0.0264426 15.0649 0.0264426 15.1691C-0.0762797 17.8777 0.129165 21.7323 0.488693 25.8993C0.745499 28.1912 1.10503 30.7957 1.56728 33.6084C1.82408 33.5563 2.08089 33.5043 2.3377 33.4001C3.2622 32.9313 4.13534 32.2541 5.00848 31.6812C6.0357 31.0561 8.24423 30.7436 7.6279 29.2851C7.98743 29.1288 8.39831 29.1809 8.75784 29.3372C8.75784 29.2851 8.70648 29.2851 8.70648 29.233C8.96329 29.2851 9.22009 29.2851 9.4769 29.2851L9.42554 29.1288L7.37109 27.2016L19.1328 29.3893L10.5555 38.2443L10.915 35.3794L10.7609 34.5981C10.5555 34.8065 10.4014 34.9627 10.196 35.1711C9.83643 35.0148 9.4769 34.9107 9.11737 35.0148C8.75784 35.119 8.5524 35.6399 8.8092 35.9003C8.60376 35.8482 8.39831 35.8482 8.19287 35.9003C7.98743 36.0045 7.83334 36.2129 7.93606 36.4212C7.52517 35.9524 6.80612 36.317 6.29251 36.6817C5.05984 37.6193 3.92989 38.661 2.90267 39.7549C3.57036 42.5677 4.39214 45.5888 5.41937 48.7141C5.72753 48.3495 6.0357 47.9849 6.39523 47.5682C7.16565 46.7347 8.19287 46.4222 8.96329 45.693C8.75784 45.3804 8.50104 45.0158 8.24423 44.7554C8.60376 44.4949 9.22009 44.3908 9.52826 44.1824C9.88779 43.922 9.93915 43.6094 10.196 43.4011C10.2987 43.2969 10.35 43.0885 10.5041 42.9323C10.6582 42.8281 11.5313 42.6718 11.7882 42.5677C12.5586 42.3072 12.8667 42.151 13.7399 42.4114C13.8426 41.005 13.0722 41.005 14.5617 40.5883C14.3049 40.2237 14.048 39.9111 13.7399 39.5986C14.5617 39.3382 15.2294 39.4423 16.0511 38.9736C17.3352 38.2964 18.5165 37.2546 19.6978 36.4212C21.0845 35.4315 24.1662 34.9106 23.2417 32.8792C23.7039 32.6188 24.3203 32.6708 24.8339 32.9313C24.8339 32.8792 24.7312 32.8271 24.7312 32.775C25.0907 32.775 25.4502 32.8271 25.8098 32.8271L25.7584 32.6188L22.7794 30.0143L39.3177 32.4625L27.8642 45.2763L28.2237 41.2134L27.9156 40.1716C27.6588 40.432 27.402 40.7446 27.1451 41.005C26.6315 40.8487 26.1179 40.6925 25.6557 40.8487C25.1934 41.005 24.8853 41.7342 25.2448 42.0989C24.9366 42.0468 24.6284 42.0468 24.3716 42.151C24.1148 42.2551 23.9094 42.6198 24.0635 42.8802C23.4471 42.2551 22.4199 42.8281 21.8036 43.349C20.0059 44.8596 18.311 46.5264 16.7702 48.3495C15.5375 49.808 14.0994 51.4748 12.199 51.4227C12.6613 51.8915 12.4558 52.7249 12.045 53.2458C11.6341 53.7146 11.0177 54.0271 10.4528 54.3918C9.57962 55.0168 8.96329 55.7981 8.39832 56.7357C9.99051 60.5382 11.8395 64.3927 14.048 68.2994C14.5617 67.8827 15.178 67.466 15.4862 66.9451C12.9695 65.3303 15.4862 64.6011 16.9243 63.4552C18.5678 62.1529 19.5437 60.6424 20.8791 59.0276C21.9063 57.8296 23.2931 57.2566 24.3716 56.2148C24.0635 55.7981 23.7039 55.3293 23.3444 54.9126C23.858 54.4959 24.6798 54.3918 25.1421 54.0271C25.6557 53.6104 25.6557 53.2458 26.0666 52.8812C26.2206 52.7249 26.2206 52.4645 26.4774 52.2561C26.6829 52.0478 27.9156 51.7873 28.2751 51.6832C29.3537 51.2664 29.7646 51.006 30.9972 51.3185C31.0486 49.3392 29.97 49.3913 32.0245 48.662C31.6649 48.1932 31.254 47.7244 30.7918 47.3598C31.9731 46.9952 32.8976 46.9952 33.9762 46.3701C35.7738 45.3284 37.3147 43.8178 38.9582 42.5677C40.8586 41.1092 45.1216 40.1716 43.6834 37.4109C44.2998 37.0463 45.2243 37.0984 45.9433 37.3588C45.9433 37.2546 45.7893 37.2546 45.8406 37.0984C46.3542 37.0984 46.8678 37.0984 47.3814 37.0984L47.2787 36.7858L42.913 33.348L66.2824 35.7441L50.874 54.4959L51.1308 48.7662L50.6686 47.3077C50.309 47.7244 50.0009 48.1411 49.6927 48.5578C48.9736 48.3495 48.2546 48.1411 47.5869 48.4537C46.9192 48.7141 46.5597 49.7559 47.0733 50.2247C46.6624 50.2247 46.2001 50.1726 45.8406 50.3809C45.4811 50.5893 45.2243 51.0581 45.4297 51.4227C44.5566 50.6414 43.1698 51.4227 42.2453 52.2561C39.78 54.4959 37.5201 56.9441 35.4657 59.5485C33.8221 61.6841 31.9217 64.0802 29.251 64.1844C29.9186 64.8615 29.7132 66.0075 29.0969 66.7367C28.5319 67.466 27.6588 67.8827 26.9397 68.4556C23.7553 70.9038 22.9849 75.5397 20.6223 78.7171C27.6074 88.2493 36.8524 97.6773 49.2304 105.959C46.7138 102.782 37.5715 86.8429 37.5715 86.8429C35.9279 84.4989 35.2088 81.634 34.9007 79.2901C34.5412 76.6335 34.7466 74.6021 34.7466 74.6021C34.2843 75.2272 33.8735 75.9564 33.4626 76.6856C31.4595 80.4881 30.4323 85.0719 30.4323 85.0719C30.1241 80.0714 30.9459 76.7377 32.2813 74.4979C35.8765 68.5077 43.3239 70.6434 43.3239 70.6434C57.8078 80.5923 50.0522 89.9682 50.0522 89.9682C50.2063 90.0203 50.3604 90.0724 50.5145 90.0724C64.5874 93.6665 74.8597 80.2277 75.1678 79.863C74.4488 80.8006 63.6116 82.3112 63.6116 82.3112L63.3548 83.8218C61.4544 83.1446 59.7081 77.467 59.3486 75.123C55.0343 49.6517 73.3188 58.663 73.3188 58.663C73.2675 58.4547 73.2161 58.2463 73.1648 58.0379C71.213 52.6207 60.1704 55.9023 60.1704 55.9023C68.2341 50.8497 77.1196 55.7461 77.1196 55.7461C87.4432 62.3092 98.0749 61.9967 98.0749 61.9967C96.3287 63.9239 88.5218 62.6738 88.5218 62.6738C83.9506 70.6955 70.9049 77.7795 70.9049 77.7795C89.9599 79.0296 104.495 59.809 104.495 59.809C103.981 55.5898 100.489 55.1731 100.489 55.1731C102.389 53.1416 105.728 57.1004 105.728 57.1004ZM84.9265 44.0261C84.9265 44.0261 82.872 43.7136 84.002 41.0571C84.002 41.0571 83.437 38.036 82.153 36.9942C82.153 36.9942 82.153 36.9942 82.153 36.9421C84.3101 37.7234 89.2922 40.0153 90.5762 45.7451C90.5762 45.7971 86.3646 44.0261 84.9265 44.0261Z" fill="#525375"/>
</g>
</svg>
