<?xml version="1.0" encoding="UTF-8" standalone="no"?>
<svg
   xmlns:dc="http://purl.org/dc/elements/1.1/"
   xmlns:cc="http://creativecommons.org/ns#"
   xmlns:rdf="http://www.w3.org/1999/02/22-rdf-syntax-ns#"
   xmlns:svg="http://www.w3.org/2000/svg"
   xmlns="http://www.w3.org/2000/svg"
   xmlns:sodipodi="http://sodipodi.sourceforge.net/DTD/sodipodi-0.dtd"
   xmlns:inkscape="http://www.inkscape.org/namespaces/inkscape"
   inkscape:version="1.0 (4035a4fb49, 2020-05-01)"
   sodipodi:docname="Group 44.svg"
   id="svg10"
   version="1.1"
   fill="none"
   viewBox="0 0 200 200"
   height="200"
   width="200">
  <metadata
     id="metadata16">
    <rdf:RDF>
      <cc:Work
         rdf:about="">
        <dc:format>image/svg+xml</dc:format>
        <dc:type
           rdf:resource="http://purl.org/dc/dcmitype/StillImage" />
      </cc:Work>
    </rdf:RDF>
  </metadata>
  <defs
     id="defs14" />
  <sodipodi:namedview
     inkscape:current-layer="svg10"
     inkscape:window-maximized="1"
     inkscape:window-y="-9"
     inkscape:window-x="-9"
     inkscape:cy="100"
     inkscape:cx="210"
     inkscape:zoom="3.775"
     showgrid="false"
     id="namedview12"
     inkscape:window-height="1001"
     inkscape:window-width="1920"
     inkscape:pageshadow="2"
     inkscape:pageopacity="0"
     guidetolerance="10"
     gridtolerance="10"
     objecttolerance="10"
     borderopacity="1"
     bordercolor="#666666"
     pagecolor="#ffffff" />
  <circle
     id="circle2"
     stroke-width="2"
     stroke="#ffffff"
     fill="#f6d37e"
     r="99"
     cy="100"
     cx="100" />
  <path
     id="path4"
     fill="#ffffff"
     d="m 108.23922,74.9127 c 2.34137,-1.308 5.29973,-0.4703 6.60769,1.8711 1.30796,2.3414 0.47021,5.2997 -1.87116,6.6077 -2.34137,1.308 -5.29973,0.4702 -6.60769,-1.8712 -1.30795,-2.3413 -0.47021,-5.2997 1.87116,-6.6076 z" />
  <path
     id="path6"
     fill="#ffffff"
     d="m 146.3657,52.3687 c 2.3414,-1.3079 5.2997,-0.4702 6.6077,1.8712 1.3079,2.3413 0.4702,5.2997 -1.8712,6.6077 -2.3414,1.3079 -5.2997,0.4702 -6.6077,-1.8712 -1.3079,-2.3414 -0.4702,-5.2997 1.8712,-6.6077 z" />
  <path
     id="path8"
     stroke-linecap="round"
     stroke-width="2"
     stroke="#ffffff"
     d="m 115.19447,104.094 c 8.54283,9.92 24.51683,12.152 38.01923,4.609 13.5023,-7.543 19.9774,-22.3151 16.0088,-34.7911" />
</svg>
