<?xml version="1.0" encoding="UTF-8" standalone="no"?>
<svg
   xmlns:dc="http://purl.org/dc/elements/1.1/"
   xmlns:cc="http://creativecommons.org/ns#"
   xmlns:rdf="http://www.w3.org/1999/02/22-rdf-syntax-ns#"
   xmlns:svg="http://www.w3.org/2000/svg"
   xmlns="http://www.w3.org/2000/svg"
   xmlns:sodipodi="http://sodipodi.sourceforge.net/DTD/sodipodi-0.dtd"
   xmlns:inkscape="http://www.inkscape.org/namespaces/inkscape"
   inkscape:version="1.0 (4035a4fb49, 2020-05-01)"
   sodipodi:docname="smile.svg"
   id="svg10"
   version="1.1"
   fill="none"
   viewBox="0 0 200 200"
   height="200"
   width="200">
  <metadata
     id="metadata16">
    <rdf:RDF>
      <cc:Work
         rdf:about="">
        <dc:format>image/svg+xml</dc:format>
        <dc:type
           rdf:resource="http://purl.org/dc/dcmitype/StillImage" />
      </cc:Work>
    </rdf:RDF>
  </metadata>
  <defs
     id="defs14" />
  <sodipodi:namedview
     inkscape:current-layer="svg10"
     inkscape:window-maximized="1"
     inkscape:window-y="-9"
     inkscape:window-x="-9"
     inkscape:cy="100"
     inkscape:cx="100"
     inkscape:zoom="3.775"
     showgrid="false"
     id="namedview12"
     inkscape:window-height="1001"
     inkscape:window-width="1920"
     inkscape:pageshadow="2"
     inkscape:pageopacity="0"
     guidetolerance="10"
     gridtolerance="10"
     objecttolerance="10"
     borderopacity="1"
     bordercolor="#666666"
     pagecolor="#ffffff" />
  <circle
     id="circle2"
     stroke-width="2"
     stroke="#ffffff"
     fill="#f6d37e"
     r="99"
     cy="100"
     cx="100" />
  <path
     id="path4"
     fill="#ffffff"
     d="m 91.9886,74.9127 c -2.3414,-1.308 -5.2998,-0.4703 -6.6077,1.8711 -1.308,2.3414 -0.4702,5.2997 1.8711,6.6077 2.3414,1.308 5.2998,0.4702 6.6077,-1.8712 1.308,-2.3413 0.4702,-5.2997 -1.8711,-6.6076 z" />
  <path
     id="path6"
     fill="#ffffff"
     d="m 53.8621,52.3687 c -2.3414,-1.3079 -5.2997,-0.4702 -6.6077,1.8712 -1.3079,2.3413 -0.4702,5.2997 1.8712,6.6077 2.3413,1.3079 5.2997,0.4702 6.6077,-1.8712 1.3079,-2.3414 0.4702,-5.2997 -1.8712,-6.6077 z" />
  <path
     id="path8"
     stroke-linecap="round"
     stroke-width="2"
     stroke="#ffffff"
     d="m 85.0333,104.094 c -8.5428,9.92 -24.5169,12.152 -38.0192,4.609 C 33.5117,101.16 27.0367,86.3879 31.0053,73.9119" />
</svg>
