<svg width="522" height="253" fill="none" version="1.1" viewBox="0 0 522 253" xmlns="http://www.w3.org/2000/svg">
 <path d="m85 196c46 0 84-6.4 84-14 0-7.9-38-14-84-14-46 0-84 6.4-84 14 0 7.9 38 14 84 14z" fill="#F0F0F0"/>
 <path d="m212 250c46 0 84-6.4 84-14 0-7.9-38-14-84-14-46 0-84 6.4-84 14 0 7.9 38 14 84 14z" fill="#F0F0F0"/>
 <path d="m424 134c54 0 98-6.8 98-15s-44-15-98-15c-54 0-98 6.8-98 15s44 15 98 15z" fill="#F0F0F0"/>
 <path d="m53 234c18 0 32-5.9 32-13s-14-13-32-13-32 5.9-32 13 14 13 32 13z" fill="#F4F4F4"/>
 <path d="m32 224c18 0 32-5.9 32-13 0-7.3-14-13-32-13s-32 5.9-32 13c0 7.3 14 13 32 13z" fill="#F4F4F4"/>
 <path d="m75 185 21-63h8l-24 65-5.3-1.4z" fill="#EDEEF4" stroke="#525375" stroke-linecap="round" stroke-linejoin="round"/>
 <path d="m101 73 2.8-67 7.7-2.2-5 69-5.5 0.21z" fill="#EDEEF4" stroke="#525375" stroke-linecap="round" stroke-linejoin="round"/>
 <path d="m113 120 13 63 8-0.7-17-63-4.7 1.3z" fill="#EDEEF4" stroke="#525375" stroke-linecap="round" stroke-linejoin="round"/>
 <path d="m127 150-46-2.2-1.3 7.7 47 2.5 0.35-8z" fill="#EDEEF4" stroke="#525375" stroke-linecap="round" stroke-linejoin="round"/>
 <path d="m185 18h-159v110h159v-110z" fill="#fff" stroke="#525375" stroke-linecap="round" stroke-linejoin="round"/>
 <path d="m188 124h-160v7.9h160v-7.9z" fill="#EDEEF4" stroke="#525375" stroke-linecap="round" stroke-linejoin="round"/>
 <path d="m26 18-8.3 3.9 1.3 109 7-2.5v-110z" fill="#F4F5FA" stroke="#525375" stroke-linecap="round" stroke-linejoin="round"/>
 <path d="m28 131-12-1 9e-4 -7.6 12 0.7v7.9z" fill="#DDDEE6" stroke="#525375" stroke-linecap="round" stroke-linejoin="round"/>
 <path d="m107 74c8 0 14-4.7 14-11s-6.5-11-14-11c-8 0-14 4.7-14 11s6.5 11 14 11z" stroke="#5758AA" stroke-linecap="round" stroke-linejoin="round"/>
 <path d="m109 93c8.1 0 15-4.3 15-9.5 0-5.3-6.6-9.5-15-9.5s-15 4.3-15 9.5c0 5.3 6.6 9.5 15 9.5z" stroke="#5758AA" stroke-linecap="round" stroke-linejoin="round"/>
 <path d="m148 59c2.5 8.3 1.8 16 4.6 26 0.35 1.3 1.9 6.7 3 6.5s1.3-5.1 2-5c0.56 0 0.07 4.1 2.4 7.4 1.2 1.7 3.4 3.4 4.5 2.9 1.5-0.7 0.77-5.2 0.28-8.3-0.63-4.1-1.8-7.5-1.7-7.5 0.21-0.07 2.2 8.3 4.3 8.2 1.3-0.07 2.2-3.1 2.6-4.9 1.2-6.1-1.9-12-1.8-12 0.07-0.07 2.4 9.5 6 9.7 1.3 0.07 2.8-0.98 3.4-2.2 1.7-3.9-5.6-7.4-7.1-15-1-5.6 2-6.5 1.9-13-0.21-11-8.9-19-9.5-19s5.7 12 4.8 12c-0.77 0.42-5.7-7.8-7-7.1-1.2 0.56 1.6 7.8 0.91 8.1-0.98 0.42-8.1-16-9.7-15-1.1 0.42 1.8 8.8 0.21 9.6-2.1 0.98-11-17-13-17-1.5 0.63 2.9 12 1.3 13-1.9 0.91-10-14-11-14-0.84 0.42 6.2 18 12 25 0.63 0.77 3.1 3.5 5 7.8 0.63 1.2 1.1 2.4 1.4 3.5z" fill="#F4BC4F"/>
 <path d="m144 59c-0.56-0.28-1.2-0.07-1.3 0.35-0.14 0.35 0 0.84 0.35 1.1 0.49 0.28 1.2-0.07 1.3-0.63 0-0.35-0.35-0.7-0.35-0.77z" fill="#EDEEF4" stroke="#5758AA" stroke-linecap="round" stroke-linejoin="round"/>
 <path d="m104 62c-0.56-0.28-1.2-0.07-1.3 0.35-0.14 0.35 0 0.84 0.35 1.1 0.49 0.28 1.2-0.07 1.3-0.63 0-0.42-0.35-0.77-0.35-0.77z" fill="#EDEEF4" stroke="#5758AA" stroke-linecap="round" stroke-linejoin="round"/>
 <path d="m107 84c-0.56-0.28-1.2-0.07-1.3 0.35-0.14 0.35 0 0.84 0.35 1.1 0.49 0.28 1.2-0.07 1.3-0.63 0.07-0.42-0.28-0.77-0.35-0.77z" fill="#EDEEF4" stroke="#5758AA" stroke-linecap="round" stroke-linejoin="round"/>
 <path d="m90 151c-0.56-0.28-1.2-0.07-1.3 0.35-0.14 0.35 0 0.84 0.35 1.1 0.49 0.28 1.2-0.07 1.3-0.63 0-0.42-0.35-0.77-0.35-0.77z" fill="#EDEEF4" stroke="#525375" stroke-linecap="round" stroke-linejoin="round"/>
 <path d="m123 153c-0.56-0.28-1.2-0.07-1.3 0.35-0.14 0.35 0 0.84 0.35 1.1 0.49 0.28 1.2-0.07 1.3-0.63 0.07-0.42-0.28-0.77-0.35-0.77z" fill="#EDEEF4" stroke="#525375" stroke-linecap="round" stroke-linejoin="round"/>
 <path d="m145 69c-0.28-0.21-0.63-0.07-0.84 0.07-0.28 0.21-0.49 0.56-0.35 0.84 0.14 0.42 1 0.56 1.4 0.14 0.14-0.28 0.14-0.77-0.21-1.1z" fill="#EDEEF4" stroke="#5758AA" stroke-linecap="round" stroke-linejoin="round"/>
 <path d="m130 49c-1.8-2.2-2.6-5-1.7-7.2 1.9-4.5 10-4.8 12-2.5 0.84 1.2 0.14 3.7-1.2 4.2-1.3 0.49-3.5-1.1-3.6-2.7-0.28-2.4 3.9-5.6 8-6 5.3-0.56 10 3.5 12 7.5 0.35 0.98 1.1 3 0 4.3-0.98 1.2-3.3 1.5-4.7 0.35-1.3-1.2-1-3.2-0.49-4.3 1-2.2 4.1-2.9 6.4-2.5 5.1 0.98 7.8 9 6.4 14-0.28 0.77-0.84 2.5-2.3 3-0.84 0.28-2 0.14-2.5-0.49-0.77-1.1 0-3.4 1.3-4.2 2.6-1.5 9.1 2 11 7 2.4 7.5-6.9 17-8.8 16-0.98-0.42-1.1-3.4-0.14-4 0.56-0.35 1.6 0.21 2.2 0.84 0.35 0.35 1.1 1.3 0.84 4.2-0.07 0.77-0.84 7.4-4.7 8.5-0.77 0.21-2 0.28-2.5-0.35-0.77-0.98 0.21-3.6 1.5-3.9 1.4-0.28 3.1 2 3.6 4 0.07 0.35 0.42 1.5 0 3.9-0.21 1.3-0.77 4.1-3 6.7-2.2 2.5-6.4 5.3-11 4-0.56-0.14-2.9-0.84-4-3-1.9-3.6 0.84-8.8 2.7-8.8 0.98 0 2 1.5 2 2.9 0 1.9-2.2 3.1-2.7 3.4-2.9 1.6-7.7 1.4-11-1.8-2.9-3.4-1.8-7.8-1.7-8.2" stroke="#5758AA" stroke-linecap="round" stroke-linejoin="round"/>
 <path d="m134 57c-2.4 1.8-3.6 4.8-2.9 7.6 0.56 2.5 2.6 4.6 5.1 5.3" stroke="#5758AA" stroke-linecap="round" stroke-linejoin="round"/>
 <path d="m93 64c-1.8-0.49-7.1-1.6-13 0.7-4 1.5-6.8 4-8.5 6-1.1 1.2-1.8 2.3-2.1 2.9 0.77 1.6 3.1 5.7 7.9 8.3 8.1 4.2 16 0.21 17-0.21" stroke="#5758AA" stroke-linecap="round" stroke-linejoin="round"/>
 <path d="m143 84-4.9 1.8s-8.3 13-8.9 14c-0.7 0.42-12-7.8-12-7.8" stroke="#5758AA" stroke-linecap="round" stroke-linejoin="round"/>
 <path d="m136 80 1.6 6.2 2.9-7.6" stroke="#5758AA" stroke-linecap="round" stroke-linejoin="round"/>
 <path d="m69 68c-2.5-5.7-7.7-8.9-12-8-5.9 1.2-7.6 9.4-7.8 13-0.14 3.7 0.98 6.7 1.8 8.3l-5.1 2.5" stroke="#5758AA" stroke-linecap="round" stroke-linejoin="round"/>
 <path d="m67 74c-0.63-2.1-3.6-11-13-16-4.2-2.2-8.1-2.6-11-2.7l-0.7-6.4" stroke="#5758AA" stroke-linecap="round" stroke-linejoin="round"/>
 <path d="m358 73c-7.1-19-11-29-7.6-39 6.1-16 32-22 48-19 11 1.3 26 7 29 13 0.28 0.56 1.3 2.9 3.1 3.1 2 0.14 3.8-3.1 4.2-3.9 4.3-7.4 20-13 27-14 15-2.7 35 5.3 42 20 10 23-18 50-20 53-17 16-42 12-65 11-24-0.21-46 3.4-54-9.5-2.5-3.8-4.6-9.3-6.6-15z" fill="#fff" stroke="#525375" stroke-linecap="round" stroke-linejoin="round"/>
 <path d="m430 104c10 0.14 21-0.07 33-0.63 15-0.77 28-2.1 41-3.7v-15c0-5.3-4.2-9.5-9.5-9.5-7.6 1.5-17 2.8-28 2.8-11 0-20-1.3-28-2.8-0.63 0-4 0.07-6.7 2.8-1.7 1.7-2.8 4.1-2.8 6.7 0.35 6.3 0.7 13 1 19z" fill="#fff" stroke="#525375" stroke-linecap="round" stroke-linejoin="round"/>
 <path d="m354 100c12 1.6 24 2.9 38 3.7 14 0.77 26 0.91 38 0.63-0.35-6.4-0.7-13-1.1-19 0-5.3-4.2-9.5-9.5-9.5-7.8 1.4-17 2.5-28 2.5-11 0-20-1.1-28-2.5-0.63 0-4 0.07-6.7 2.8-1.7 1.7-2.8 4.1-2.8 6.7v15z" fill="#fff" stroke="#525375" stroke-linecap="round" stroke-linejoin="round"/>
 <path d="m354 100c23 2.7 48 4.4 76 4.4 27-0.07 52-1.8 74-4.4v10c-22 3.1-47 5.3-75 5.3-28 0-53-2.2-75-5.3v-10z" fill="#fff" stroke="#525375" stroke-linecap="round" stroke-linejoin="round"/>
 <path d="m354 110c3 0.28 6.1 0.56 9.1 0.84-0.56 0.98-1.5 2.8-1.8 5.2-0.28 2.3 0.07 4.2 0.42 5.3-2.4 0.14-4.8 0.21-7.1 0.35l-0.63-12z" fill="#fff" stroke="#525375" stroke-linecap="round" stroke-linejoin="round"/>
 <path d="m494 111c2.9-0.35 6-0.63 8.9-0.98l-0.7 12c-2.3-0.21-4.6-0.35-6.9-0.56 0.21-1.3 0.35-3.2 0.07-5.4-0.28-1.9-0.84-3.5-1.4-4.6z" fill="#fff" stroke="#525375" stroke-linecap="round" stroke-linejoin="round"/>
 <path d="m360 80c7.9 0 14-6.4 14-14 0-7.9-6.4-14-14-14-7.9 0-14 6.4-14 14 0 7.9 6.4 14 14 14z" fill="#fff" stroke="#525375" stroke-linecap="round" stroke-linejoin="round"/>
 <path d="m360 70c2.3 0 4.1-1.9 4.1-4.1s-1.8-4.1-4.1-4.1-4.1 1.9-4.1 4.1 1.8 4.1 4.1 4.1z" fill="#fff" stroke="#525375" stroke-linecap="round" stroke-linejoin="round"/>
 <path d="m494 80c7.9 0 14-6.4 14-14 0-7.9-6.4-14-14-14-7.9 0-14 6.4-14 14 0 7.9 6.4 14 14 14z" fill="#fff" stroke="#525375" stroke-linecap="round" stroke-linejoin="round"/>
 <path d="m495 70c2.3 0 4.1-1.9 4.1-4.1s-1.8-4.1-4.1-4.1c-2.3 0-4.1 1.9-4.1 4.1s1.8 4.1 4.1 4.1z" fill="#fff" stroke="#525375" stroke-linecap="round" stroke-linejoin="round"/>
 <path d="m427 10c1.5 0.35 3.1 0.91 3.1 0.91 1.3 0.42 2.8 1.1 4.5 2 0.21-0.7 0.56-1.8 1.4-2.9 0 0 1.3-1.8 3.4-2.9 2.8-1.5 7.4-1.6 12 0.28 1.6-1.3 11-8.2 22-5.6 9.9 2.4 14 11 18 18 0 0 9.5 17 4.3 35-0.56 1.8-1.3 3.2-1.3 3.2s-0.49 0.7-1 1.3c-2 2.1-4.5 2.1-6.4 3.5-2.5 1.8-1.1 3.4-4.6 7.8-0.77 0.91-1.9 2.2-3.8 2.9-0.35 0.14-0.98 0.42-2 0.49-2.2 0.14-3.6-0.98-6.2-0.35-3.6 0.84-4.5 3.6-7.4 3.2-1-0.14-1.8-0.63-2.4-1.1-2.6 3.4-7.7 9-16 13-10 4.7-20 3.4-27 2.5-6.7-0.91-16-2.1-26-9-3.9-2.8-13-9.7-17-22-0.84-3-3.8-15 2.2-26 4.8-9.2 13-13 19-17 16-8.2 29-5.7 31-5.4z" fill="#DDD4CC" stroke="#525375" stroke-linecap="round" stroke-linejoin="round"/>
 <path d="m433 13c0.07 0 0.28 0.07 0.49 0.07 1 0 1.5-1.4 2.7-2.8 0.28-0.35 1.5-2 3.5-2.9 1.2-0.56 2.2-0.7 3.2-0.84 1.1-0.14 3.6-0.42 6.3 0.63 6.2 2.3 7.6 9 7.6 9.1v0.07 0.07c0.63 4.3 2.3 7.4 2.3 7.4 0.98 1.8 1.3 1.1 5.9 5.7 2.7 2.7 3.2 3.6 3.6 4.3 0.49 0.91 1 2.4 1.3 6.1 0.28 4-0.28 3.8 0.07 4.5 1.1 2.4 4.3 1.8 7.7 3.6 5.4 2.9 6.8 9.5 6.8 9.7 0.98 4.8-0.56 11-4.7 14-2.7 1.8-6.4 1.8-8.5 1.9-2.5 0.07-3.1-0.14-5.4 0.07-2.5 0.21-4.6 0.77-6 1.2-0.7 1.1-2 2.7-3.7 4.5-10 10-28 12-42 7.6-3.2-1.1-9-3.1-14-8.3-11-11-11-26-11-30 0.07-3.3 0.28-19 12-29 3.4-2.9 7.1-4.6 8.6-5.3 1.8-0.84 12-5.4 17-3 2.2 1.1 4.6 1.4 6.9 2.5z" fill="#F4EDE9"/>
 <path d="m468 22c2.1-0.55 3.5-2.4 3-4.2-0.46-1.8-2.6-2.8-4.7-2.3s-3.5 2.4-3 4.2c0.46 1.8 2.6 2.8 4.7 2.3z" fill="#525375"/>
 <path d="m469 18c0.75-0.19 1.2-0.8 1.1-1.4-0.14-0.56-0.87-0.86-1.6-0.67-0.75 0.19-1.2 0.8-1.1 1.4s0.87 0.86 1.6 0.67z" fill="#fff"/>
 <path d="m476 42c2-0.82 3.1-2.9 2.4-4.6s-2.9-2.5-5-1.6-3.1 2.9-2.4 4.6 2.9 2.5 5 1.6z" fill="#525375"/>
 <path d="m477 38c0.72-0.29 1.1-0.96 0.91-1.5-0.22-0.54-0.97-0.74-1.7-0.45-0.72 0.29-1.1 0.96-0.91 1.5 0.22 0.54 0.97 0.74 1.7 0.45z" fill="#fff"/>
 <path d="m461 25c0.42-0.63 1.3-0.98 2-0.63 0.91 0.35 2.1 1.1 2.9 2.9 0.84 1.9 1.2 3.7 1.3 4.9 0.14 0.98-0.7 1.8-1.6 1.7-0.63-0.07-1.4-0.21-2.5-0.63-3.4-1.3-4.2 0.21-4.5-2.2-0.28-1.7 1.4-4.5 2.3-6z" fill="#525375"/>
 <path d="m459 32c-2.8-0.14-4.8 2-4.6 3.6s2.3 3.4 5 2.9" stroke="#525375" stroke-linecap="round" stroke-linejoin="round"/>
 <path d="m454 29c-1.5 0.49-2.2 2-1.6 3.2 0.42 0.98 1.8 1.6 2.9 1.2" stroke="#525375" stroke-linecap="round" stroke-linejoin="round"/>
 <path d="m494 42c3.4-2.1 7.4-2.4 11-0.56 0.49 0.28 4.1 2.5 4.1 6.2 0 2.9-2 5.3-4.2 6.2-3.5 1.5-8.5-0.56-11-5.5" fill="#DDD4CC"/>
 <path d="m494 42c3.4-2.1 7.4-2.4 11-0.56 0.49 0.28 4.1 2.5 4.1 6.2 0 2.9-2 5.3-4.2 6.2-3.5 1.5-8.5-0.56-11-5.5" stroke="#525375" stroke-linecap="round" stroke-linejoin="round"/>
 <path d="m486 15c0.35 0 4.8 0.35 7.7-3.4 1.4-1.8 3.2-5.4 1.5-8.1-1.8-2.7-5.7-2.7-8.3-1.8-3.2 1.2-5.5 4.5-5.7 8.5" fill="#DDD4CC"/>
 <path d="m486 15c0.35 0 4.8 0.35 7.7-3.4 1.4-1.8 3.2-5.4 1.5-8.1-1.8-2.7-5.7-2.7-8.3-1.8-3.2 1.2-5.5 4.5-5.7 8.5" stroke="#525375" stroke-linecap="round" stroke-linejoin="round"/>
 <path d="m505 47s-2.2-7.1-11-2.9" stroke="#525375" stroke-linecap="round" stroke-linejoin="round"/>
 <path d="m493 4.4s1.7 6-7.6 8.3" stroke="#525375" stroke-linecap="round" stroke-linejoin="round"/>
 <path d="m488 7.4-1.9 4.7" stroke="#525375" stroke-linecap="round" stroke-linejoin="round"/>
 <path d="m498 47-2-2.9" stroke="#525375" stroke-linecap="round" stroke-linejoin="round"/>
 <path d="m473 59 10 2.2" stroke="#525375" stroke-linecap="round" stroke-linejoin="round"/>
 <path d="m472 62 7.8 3.6" stroke="#525375" stroke-linecap="round" stroke-linejoin="round"/>
 <path d="m458 78c3.7 4.8 9.4 6.5 13 4.7 4.9-2.2 7-9.3 5.2-11-1.2-1.3-4-0.77-4.8-0.56-2.9 0.63-4.5 2.6-5 3.2-1.1-0.42-2.2-0.84-3.4-1.3" fill="#DDD4CC"/>
 <path d="m458 78c3.7 4.8 9.4 6.5 13 4.7 4.9-2.2 7-9.3 5.2-11-1.2-1.3-4-0.77-4.8-0.56-2.9 0.63-4.5 2.6-5 3.2-1.1-0.42-2.2-0.84-3.4-1.3" stroke="#525375" stroke-linecap="round" stroke-linejoin="round"/>
 <path d="m476 72-1.8 3.4" stroke="#525375" stroke-linecap="round" stroke-linejoin="round"/>
 <path d="m473 71-1.7 3.2" stroke="#525375" stroke-linecap="round" stroke-linejoin="round"/>
 <path d="m431 24s2.4 8.8-1.3 12c-3.6 2.7-9.5-3.5-7.2-9.3l0.91-3" fill="#DDD4CC"/>
 <path d="m431 24s2.4 8.8-1.3 12c-3.6 2.7-9.5-3.5-7.2-9.3l0.91-3" stroke="#525375" stroke-linecap="round" stroke-linejoin="round"/>
 <path d="m430 36-0.7-3.8" stroke="#525375" stroke-linecap="round" stroke-linejoin="round"/>
 <path d="m427 36-0.63-3.6" stroke="#525375" stroke-linecap="round" stroke-linejoin="round"/>
 <path d="m377 58s-9.4 2.2-11-2.5c-1.8-4.7 2.2-7.6 11-5.8" fill="#DDD4CC"/>
 <path d="m377 58s-9.4 2.2-11-2.5c-1.8-4.7 2.2-7.6 11-5.8" stroke="#525375" stroke-linecap="round" stroke-linejoin="round"/>
 <path d="m366 55 3.8-0.21" stroke="#525375" stroke-linecap="round" stroke-linejoin="round"/>
 <path d="m366 51 3.7 0.42" stroke="#525375" stroke-linecap="round" stroke-linejoin="round"/>
 <path d="m392 80s-5.6 7.8-10 5.5c-4.4-2.4-3.3-7.2 4.3-12" fill="#DDD4CC"/>
 <path d="m392 80s-5.6 7.8-10 5.5c-4.4-2.4-3.3-7.2 4.3-12" stroke="#525375" stroke-linecap="round" stroke-linejoin="round"/>
 <path d="m383 86 2.7-2.6" stroke="#525375" stroke-linecap="round" stroke-linejoin="round"/>
 <path d="m380 83 3-2.2" stroke="#525375" stroke-linecap="round" stroke-linejoin="round"/>
 <path d="m471 13s3.2 0.35 3 3.7" stroke="#525375" stroke-linecap="round" stroke-linejoin="round"/>
 <path d="m482 37s1.3 1.9-0.35 4.4" stroke="#525375" stroke-linecap="round" stroke-linejoin="round"/>
 <path d="m442 9-1.7-5.6" stroke="#525375" stroke-linecap="round" stroke-linejoin="round"/>
 <path d="m439 11-4.5-7.1" stroke="#525375" stroke-linecap="round" stroke-linejoin="round"/>
 <path d="m446 52-2.2 2.2 3.1 3.1 2.2-2.2-3.1-3.1z" fill="#F4EDE9"/>
 <path d="m439 53-2.2 2.2 3.1 3.1 2.2-2.2-3.1-3.1z" fill="#F4EDE9"/>
 <path d="m441 51-2.2 2.2 3.1 3.1 2.2-2.2-3.1-3.1z" fill="#F4EDE9"/>
 <path d="m448 44-2.2 2.2 3.1 3.1 2.2-2.2-3.1-3.1z" fill="#F4EDE9"/>
 <path d="m450 42-2.2 2.2 3.1 3.1 2.2-2.2-3.1-3.1z" fill="#F4EDE9"/>
 <path d="m451 35-2.2 2.2 3.1 3.1 2.2-2.2-3.1-3.1z" fill="#F4EDE9"/>
 <path d="m434 39-2.2 2.2 3.1 3.1 2.2-2.2-3.1-3.1z" fill="#F4EDE9"/>
 <path d="m443 31-2.2 2.2 3.1 3.1 2.2-2.2-3.1-3.1z" fill="#F4EDE9"/>
 <path d="m444 36-2.2 2.2 3.1 3.1 2.2-2.2-3.1-3.1z" fill="#F4EDE9"/>
 <path d="m435 32-2.2 2.2 3.1 3.1 2.2-2.2-3.1-3.1z" fill="#F4EDE9"/>
 <path d="m452 71-2.2 2.2 3.1 3.1 2.2-2.2-3.1-3.1z" fill="#F4EDE9"/>
 <path d="m445 72-2.2 2.2 3.1 3.1 2.2-2.2-3.1-3.1z" fill="#F4EDE9"/>
 <path d="m447 70-2.2 2.2 3.1 3.1 2.2-2.2-3.1-3.1z" fill="#F4EDE9"/>
 <path d="m73 226c-5.1-0.77-8-1.9-14-2-0.63 0-9-0.07-9.3 1.8-0.21 1.2 3.2 2 3.1 3.4-0.14 2.9-16 3.6-16 5.3 0 1.2 7.6 2.8 16 3 11 0.21 12-2 22-1.7 8.2 0.21 9.5 1.6 17 0.91 5.5-0.56 14-2.2 14-4.7 0.07-1.5-3-2.7-5-3.6-9.8-3.8-14-0.49-26-2.4z" fill="#5758AA"/>
 <path d="m457 54-2.2 2.2 3.1 3.1 2.2-2.2-3.1-3.1z" fill="#F4EDE9"/>
 <path d="m449 50-2.2 2.2 3.1 3.1 2.2-2.2-3.1-3.1z" fill="#F4EDE9"/>
 <path d="m434 50-3.7 3.6 5.2 5.2 3.7-3.6-5.2-5.2z" fill="#EAE2DA"/>
 <path d="m437 47-3.7 3.6 5.2 5.2 3.7-3.6-5.2-5.2z" fill="#E5DEDA"/>
 <path d="m442 52-3.7 3.6 5.2 5.2 3.7-3.6-5.2-5.2z" fill="#E5D9D3"/>
 <path d="m441 43-3.7 3.6 5.2 5.2 3.7-3.6-5.2-5.2z" fill="#E5D9D3"/>
 <path d="m446 48-3.7 3.6 5.2 5.2 3.7-3.6-5.2-5.2z" fill="#EAE3DF"/>
 <path d="m455 50-3.7 3.6 5.2 5.2 3.7-3.6-5.2-5.2z" fill="#EAE4E1"/>
 <path d="m425 49-3.7 3.6 5.2 5.2 3.7-3.6-5.2-5.2z" fill="#EAE3DF"/>
 <path d="m432 41-3.7 3.6 5.2 5.2 3.7-3.6-5.2-5.2z" fill="#EAE2DA"/>
 <path d="m436 38-3.7 3.6 5.2 5.2 3.7-3.6-5.2-5.2z" fill="#E2D8D3"/>
 <path d="m440 34-3.7 3.6 5.2 5.2 3.7-3.6-5.2-5.2z" fill="#EADFDA"/>
 <path d="m444 82-3.7 3.6 5.2 5.2 3.7-3.6-5.2-5.2z" fill="#EAE2DA"/>
 <path d="m451 75-3.7 3.6 5.2 5.2 3.7-3.6-5.2-5.2z" fill="#E5D9D3"/>
 <path d="m456 80-3.7 3.6 5.2 5.2 3.7-3.6-5.2-5.2z" fill="#EAE3DF"/>
 <path d="m458 68-3.7 3.6 5.2 5.2 3.7-3.6-5.2-5.2z" fill="#EAE2DA"/>
 <path d="m455 71-3.7 3.6 5.2 5.2 3.7-3.6-5.2-5.2z" fill="#E8E1DD"/>
 <path d="m460 76-3.7 3.6 5.2 5.2 3.7-3.6-5.2-5.2z" fill="#F4EDE9"/>
 <path d="m462 64-3.7 3.6 5.2 5.2 3.7-3.6-5.2-5.2z" fill="#EAE3DF"/>
 <path d="m434 72-3.7 3.6 5.2 5.2 3.7-3.6-5.2-5.2z" fill="#EAE2DA"/>
 <path d="m435 80-3.7 3.6 5.2 5.2 3.7-3.6-5.2-5.2z" fill="#EAE3DF"/>
 <path d="m425 61-3.7 3.6 5.2 5.2 3.7-3.6-5.2-5.2z" fill="#EAE3DF"/>
 <path d="m437 68-3.7 3.6 5.2 5.2 3.7-3.6-5.2-5.2z" fill="#F4EDE9"/>
 <path d="m439 77-3.7 3.6 5.2 5.2 3.7-3.6-5.2-5.2z" fill="#E5D9D3"/>
 <path d="m442 73-3.7 3.6 5.2 5.2 3.7-3.6-5.2-5.2z" fill="#EAE2DA"/>
 <path d="m441 64-3.7 3.6 5.2 5.2 3.7-3.6-5.2-5.2z" fill="#EADFDA"/>
 <path d="m446 70-3.7 3.6 5.2 5.2 3.7-3.6-5.2-5.2z" fill="#E8E1DD"/>
 <path d="m448 57-3.7 3.6 5.2 5.2 3.7-3.6-5.2-5.2z" fill="#EAE2DA"/>
 <path d="m444 61-3.7 3.6 5.2 5.2 3.7-3.6-5.2-5.2z" fill="#E8E1DD"/>
 <path d="m450 66-3.7 3.6 5.2 5.2 3.7-3.6-5.2-5.2z" fill="#EADFDA"/>
 <path d="m453 63-3.7 3.6 5.2 5.2 3.7-3.6-5.2-5.2z" fill="#EADCD6"/>
 <path d="m457 59-3.7 3.6 5.2 5.2 3.7-3.6-5.2-5.2z" fill="#EAE2DA"/>
 <path d="m432 63-3.7 3.6 5.2 5.2 3.7-3.6-5.2-5.2z" fill="#EAE2DA"/>
 <path d="m396 72-3.3 3.2 4.6 4.7 3.3-3.2-4.6-4.7z" fill="#F4EDE9"/>
 <path d="m384 66-3.3 3.2 4.6 4.7 3.3-3.2-4.6-4.7z" fill="#DDD4CC"/>
 <path d="m387 63-3.3 3.2 4.6 4.7 3.3-3.2-4.6-4.7z" fill="#E5DEDA"/>
 <path d="m390 60-3.3 3.2 4.6 4.7 3.3-3.2-4.6-4.7z" fill="#D6CCC8"/>
 <path d="m395 64-3.3 3.2 4.6 4.7 3.3-3.2-4.6-4.7z" fill="#CCC2BE"/>
 <path d="m403 66-3.3 3.2 4.6 4.7 3.3-3.2-4.6-4.7z" fill="#D3CCC9"/>
 <path d="m397 53-3.3 3.2 4.6 4.7 3.3-3.2-4.6-4.7z" fill="#DDD4CC"/>
 <path d="m394 57-3.3 3.2 4.6 4.7 3.3-3.2-4.6-4.7z" fill="#EAE6E4"/>
 <path d="m398 61-3.3 3.2 4.6 4.7 3.3-3.2-4.6-4.7z" fill="#DDD9D7"/>
 <path d="m400 50-3.3 3.2 4.6 4.7 3.3-3.2-4.6-4.7z" fill="#EAE6E4"/>
 <path d="m401 58-3.3 3.2 4.6 4.7 3.3-3.2-4.6-4.7z" fill="#F4EDE9"/>
 <path d="m437 57-3.3 3.2 4.6 4.7 3.3-3.2-4.6-4.7z" fill="#EAE6E4"/>
 <path d="m383 58-3.3 3.2 4.6 4.7 3.3-3.2-4.6-4.7z" fill="#DDD4CC"/>
 <path d="m381 50-3.3 3.2 4.6 4.7 3.3-3.2-4.6-4.7z" fill="#DDD9D7"/>
 <path d="m386 55-3.3 3.2 4.6 4.7 3.3-3.2-4.6-4.7z" fill="#EAE6E4"/>
 <path d="m388 44-3.3 3.2 4.6 4.7 3.3-3.2-4.6-4.7z" fill="#DDD4CC"/>
 <path d="m389 52-3.3 3.2 4.6 4.7 3.3-3.2-4.6-4.7z" fill="#DDD9D7"/>
 <path d="m391 68-3.3 3.2 4.6 4.7 3.3-3.2-4.6-4.7z" fill="#EAE6E4"/>
 <path d="m53 181-4.6 32c-3.4 1.5-9.2 3.4-17 3.6-8.3 0.14-15-2-18-3.6-1.5-11-3.1-22-4.6-32h44z" fill="#fff" stroke="#525375" stroke-linecap="round" stroke-linejoin="round"/>
 <path d="m31 185c12 0 22-1.9 22-4.2s-9.8-4.2-22-4.2c-12 0-22 1.9-22 4.2s9.8 4.2 22 4.2z" fill="#E8E9EF" stroke="#525375" stroke-linecap="round" stroke-linejoin="round"/>
 <path d="m18 178c0.21-1.1-0.21-2.2-1.1-2.7-0.84-0.49-2-0.49-2.7 0.21-0.77 0.77-0.91 2.2-0.14 3.2" fill="#E8E9EF"/>
 <path d="m18 178c0.21-1.1-0.21-2.2-1.1-2.7-0.84-0.49-2-0.49-2.7 0.21-0.77 0.77-0.91 2.2-0.14 3.2" stroke="#525375" stroke-linecap="round" stroke-linejoin="round"/>
 <path d="m15 178c0.31 0 0.56-0.25 0.56-0.56 0-0.31-0.25-0.56-0.56-0.56s-0.56 0.25-0.56 0.56c0 0.31 0.25 0.56 0.56 0.56z" fill="#525375"/>
 <path d="m15 184c4 0.84 9.8 1.3 16 1.3s12-0.49 16-1.3c-3.6-0.98-9.5-1.6-16-1.6s-13 0.63-16 1.6z" fill="#F4BC4F"/>
 <path d="m51 184c0.21-1.1-0.35-2.1-1.3-2.5-0.84-0.42-2-0.35-2.7 0.35-0.77 0.77-0.77 2.2 0 3.1" fill="#fff"/>
 <path d="m51 184c0.21-1.1-0.35-2.1-1.3-2.5-0.84-0.42-2-0.35-2.7 0.35-0.77 0.77-0.77 2.2 0 3.1" stroke="#525375" stroke-linecap="round" stroke-linejoin="round"/>
 <path d="m48 184c0.31 0 0.56-0.25 0.56-0.56 0-0.31-0.25-0.56-0.56-0.56-0.31 0-0.56 0.25-0.56 0.56 0 0.31 0.25 0.56 0.56 0.56z" fill="#525375"/>
 <path d="m48 184s-5.5 12-22 11c-17-1.1-17-9.7-17-9.7" stroke="#525375" stroke-linecap="round" stroke-linejoin="round"/>
 <path d="m221 248c0.12-2.2-3-4.2-7.1-4.4-4-0.22-7.4 1.4-7.5 3.6s3 4.2 7.1 4.4c4 0.22 7.4-1.4 7.5-3.6z" fill="#5758AA"/>
 <path d="m83 196-4.6 32c-3.4 1.5-9.2 3.4-17 3.6-8.3 0.14-15-2-18-3.6-1.5-11-3.1-22-4.6-32h44z" fill="#fff" stroke="#525375" stroke-linecap="round" stroke-linejoin="round"/>
 <path d="m61 200c12 0 22-1.9 22-4.2 0-2.3-9.8-4.2-22-4.2-12 0-22 1.9-22 4.2 0 2.3 9.8 4.2 22 4.2z" fill="#E8E9EF" stroke="#525375" stroke-linecap="round" stroke-linejoin="round"/>
 <path d="m48 193c0.21-1.1-0.21-2.1-1.1-2.6-0.84-0.49-2-0.49-2.7 0.21-0.77 0.77-0.84 2.2-0.07 3.2" fill="#E8E9EF"/>
 <path d="m48 193c0.21-1.1-0.21-2.1-1.1-2.6-0.84-0.49-2-0.49-2.7 0.21-0.77 0.77-0.84 2.2-0.07 3.2" stroke="#525375" stroke-linecap="round" stroke-linejoin="round"/>
 <path d="m46 192c0.31 0 0.56-0.25 0.56-0.56 0-0.31-0.25-0.56-0.56-0.56s-0.56 0.25-0.56 0.56c0 0.31 0.25 0.56 0.56 0.56z" fill="#525375"/>
 <path d="m45 198c4 0.84 9.8 1.3 16 1.3s12-0.49 16-1.3c-3.6-0.98-9.5-1.6-16-1.6s-13 0.7-16 1.6z" fill="#5758AA"/>
 <path d="m81 198c0.21-1.1-0.35-2.1-1.3-2.5-0.84-0.42-2-0.35-2.7 0.35-0.77 0.77-0.77 2.2 0 3.1" fill="#fff"/>
 <path d="m81 198c0.21-1.1-0.35-2.1-1.3-2.5-0.84-0.42-2-0.35-2.7 0.35-0.77 0.77-0.77 2.2 0 3.1" stroke="#525375" stroke-linecap="round" stroke-linejoin="round"/>
 <path d="m78 198c0.31 0 0.56-0.25 0.56-0.56 0-0.31-0.25-0.56-0.56-0.56-0.31 0-0.56 0.25-0.56 0.56 0 0.31 0.25 0.56 0.56 0.56z" fill="#525375"/>
 <path d="m78 198s-5.5 12-22 11c-17-1.1-17-9.7-17-9.7" stroke="#525375" stroke-linecap="round" stroke-linejoin="round"/>
 <path d="m266 233s4.3 11 11 9c6.4-1.8 6.8-7.8-1.5-15" fill="#DADBE8"/>
 <path d="m266 233s4.3 11 11 9c6.4-1.8 6.8-7.8-1.5-15" stroke="#525375" stroke-linecap="round" stroke-linejoin="round"/>
 <path d="m289 166s11-2.5 13-6.2c2.4-3.7-0.21-10-7-8.9s-9.5 7.7-9.5 7.7" fill="#DADBE8"/>
 <path d="m289 166s11-2.5 13-6.2c2.4-3.7-0.21-10-7-8.9s-9.5 7.7-9.5 7.7" stroke="#525375" stroke-linecap="round" stroke-linejoin="round"/>
 <path d="m260 81c-0.21-0.49-3.4-7.2 0.49-14 1.9-3.2 6.4-8.2 12-7.1 5.1 1.1 7.6 7.2 7.6 12 0.14 5.7-3.6 11-9.5 14" fill="#DADBE8"/>
 <path d="m260 81c-0.21-0.49-3.4-7.2 0.49-14 1.9-3.2 6.4-8.2 12-7.1 5.1 1.1 7.6 7.2 7.6 12 0.14 5.7-3.6 11-9.5 14" stroke="#525375" stroke-linecap="round" stroke-linejoin="round"/>
 <path d="m290 159c-1.4-2-4.2-5.7-8.9-9.9 2-0.49 4.8-1.4 7.4-3.6 7.5-6.4 7.8-19 3.3-28-3.6-7.1-9.9-10-13-12 0.21-4.9 0-15-6.7-24-9-12-24-14-35-15-0.28 0-1.8-0.21-3.2-0.28-18-1.1-55 9.1-66 40-6.2 18-0.91 34 1.9 41-3.2 4.7-7.8 13-9.7 24-0.49 2.9-4.4 28 11 47 19 23 50 22 63 21 15-0.84 39-2.2 53-21 17-23 5.2-55 2.4-59z" fill="#DADBE8" stroke="#525375" stroke-linecap="round" stroke-linejoin="round"/>
 <path d="m276 242-2.5-3.8" stroke="#525375" stroke-linecap="round" stroke-linejoin="round"/>
 <path d="m281 239-3.2-3.3" stroke="#525375" stroke-linecap="round" stroke-linejoin="round"/>
 <path d="m285 152c-0.98-0.84-2.1-1.6-2-2.7 0.07-1.1 1.5-1.5 3.7-3.3 0 0 1-0.84 3.4-3.4 3.8-4.1 6.3-21-0.98-27-2.9-2.5-7.3-2.9-10-2-3.6 0.98-4 3.2-6.9 3.6-4.5 0.63-6.3-4.3-11-6.2-8.3-3.5-12 8.7-23 7.8-7.2-0.56-6.7-6-20-10-5.7-1.8-9.9-2.2-14-1.9-2.8 0.28-6.3 0.56-10 2.9-1.3 0.84-11 6.1-11 18-0.35 8 4.3 16 5.5 18-0.42-0.21-1.2 0.49-2 1.3-0.49 0.56-1.2 1.4-2 2.4-14 19-11 41-11 41 1 10 6.1 30 18 35 8.5 3.6 19-0.35 20-0.7 2.9-1.1 6.4-2.9 13-5 2.9-0.91 6-1.7 9.8-1 3.2 0.49 5.4 1.8 6.2 2.2 2.1 1.1 21 11 34 4 0 0 10-5.3 18-25 0.14-0.35 0.28-0.77 0.28-0.77 0.63-1.5 1.5-4.2 2.2-7.6 2.4-13-1.5-25-4.8-30-2.6-4.3-3.9-6.5-5.3-7.7z" fill="#F4F5F9"/>
 <path d="m302 157-5.3 2.3" stroke="#525375" stroke-linecap="round" stroke-linejoin="round"/>
 <path d="m299 152-4.3 3.3" stroke="#525375" stroke-linecap="round" stroke-linejoin="round"/>
 <path d="m268 107c3-0.32 5.2-3.5 4.8-7.2-0.38-3.7-3.2-6.4-6.2-6-3 0.32-5.2 3.5-4.8 7.2 0.38 3.7 3.2 6.4 6.2 6z" fill="#525375"/>
 <path d="m266 101c0.92-0.097 1.6-1.2 1.4-2.5-0.13-1.3-0.99-2.2-1.9-2.1s-1.6 1.2-1.4 2.5c0.13 1.3 0.99 2.2 1.9 2.1z" fill="#fff"/>
 <path d="m238 103c0.036-3.7-2.4-6.7-5.5-6.7-3.1-0.03-5.6 2.9-5.6 6.6-0.036 3.7 2.4 6.7 5.5 6.7 3.1 0.03 5.6-2.9 5.6-6.6z" fill="#525375"/>
 <path d="m235 101c0.012-1.3-0.73-2.3-1.7-2.3-0.93-0.0092-1.7 1-1.7 2.3-0.013 1.3 0.73 2.3 1.7 2.3s1.7-1 1.7-2.3z" fill="#fff"/>
 <path d="m263 115c0.56-1.2 0.28-2.6-0.77-3.4-1.3-0.98-3.4-2-6.5-1.7-3.4 0.35-6.2 1.4-8.1 2.2-1.5 0.63-1.9 2.5-0.98 3.7 0.63 0.84 1.5 1.8 3 3 4.7 3.9 3.3 6.1 6.9 4.6 2.5-1.1 5.1-5.8 6.4-8.4z" fill="#525375"/>
 <path d="m255 123c2.6 3.9 1.2 8.4-1.2 9.6-2.4 1.2-6.7-0.35-8.3-4.6" stroke="#525375" stroke-linecap="round" stroke-linejoin="round"/>
 <path d="m264 127c0.56 2.5-1.1 4.8-3.2 5-1.8 0.21-3.7-1.1-4.2-3.2" stroke="#525375" stroke-linecap="round" stroke-linejoin="round"/>
 <path d="m208 80c1.2-6.5-0.84-13-5.4-16-0.77-0.63-6.2-4.8-12-2.5-4.3 1.8-6.8 6.3-6.9 10-0.14 6.2 6 13 15 14" fill="#DADBE8"/>
 <path d="m208 80c1.2-6.5-0.84-13-5.4-16-0.77-0.63-6.2-4.8-12-2.5-4.3 1.8-6.8 6.3-6.9 10-0.14 6.2 6 13 15 14" stroke="#525375" stroke-linecap="round" stroke-linejoin="round"/>
 <path d="m193 67s12-0.84 11 14l-11-14z" fill="#DADBE8"/>
 <path d="m193 67s12-0.84 11 14" stroke="#525375" stroke-linecap="round" stroke-linejoin="round"/>
 <path d="m198 78 5.7 1.3" stroke="#525375" stroke-linecap="round" stroke-linejoin="round"/>
 <path d="m210 123-16-6" stroke="#525375" stroke-linecap="round" stroke-linejoin="round"/>
 <path d="m209 128-12 1.3" stroke="#525375" stroke-linecap="round" stroke-linejoin="round"/>
 <path d="m295 123 6.2-2.5" stroke="#525375" stroke-linecap="round" stroke-linejoin="round"/>
 <path d="m295 129 9.8 0.14" stroke="#525375" stroke-linecap="round" stroke-linejoin="round"/>
 <path d="m211 193s-30-10-29-18c1.7-7.6 31 13 31 13s2.8-7.3 5.9-6c3.1 1.3 4.8 1.7 4.8 1.7l-9.8 19s-5.1-0.77-4.8-4.1c0.35-3.3 1-6 1-6z" fill="#EDEEF4" stroke="#525375" stroke-linecap="round" stroke-linejoin="round"/>
 <path d="m216 202 14 11s1.5-1.6 3.4-3.9c0.42-0.49-0.84-2.5-0.42-2.9 0.56-0.63 2.8 0.07 3.4-0.56 2.8-3.4 5.6-7.2 6-8.9 0.84-3.6-18-12-18-12l-8.9 17z" fill="#525375" stroke="#525375" stroke-linecap="round" stroke-linejoin="round"/>
 <path d="m225 209 5.3 4.1s1.5-1.6 3.4-3.9c0.42-0.49-0.84-2.5-0.42-2.9 0.56-0.63 2.8 0.07 3.4-0.56 2.8-3.4 6.2-7.1 6-8.9-0.28-3.9-7.3-6.4-7.3-6.4 0.07 1.2-0.14 2.7-1.1 3.9-0.98 1.4-2 1.3-2.8 2.7-1 1.9-0.07 3.6-0.84 4.1-0.91 0.49-2.4-2-4.1-1.5-0.77 0.21-1.6 0.98-1.6 1.8-0.07 1.5 2.9 2.7 2.6 3.2-0.14 0.35-1.3 0-1.7 0.56-0.35 0.49 0.21 1.1 0.14 2-0.07 0.77-0.56 1.4-0.98 1.8z" fill="#F4BC4F" stroke="#525375" stroke-linecap="round" stroke-linejoin="round"/>
 <path d="m227 193-4.8-2.7" stroke="#EDEEF4" stroke-linecap="round" stroke-linejoin="round"/>
 <path d="m223 188 7.6 4" stroke="#EDEEF4" stroke-linecap="round" stroke-linejoin="round"/>
 <path d="m202 168s-1.9 11-8.4 13-9.2-11-1.5-16" fill="#DADBE8"/>
 <path d="m202 168s-1.9 11-8.4 13-9.2-11-1.5-16" stroke="#525375" stroke-linecap="round" stroke-linejoin="round"/>
 <path d="m209 231s-6.6 17 1.5 18c8.1 0.42 9.7-6.1 9.9-13" fill="#DADBE8"/>
 <path d="m209 231s-6.6 17 1.5 18c8.1 0.42 9.7-6.1 9.9-13" stroke="#525375" stroke-linecap="round" stroke-linejoin="round"/>
 <path d="m193 180 1.5-5.2" stroke="#525375" stroke-linecap="round" stroke-linejoin="round"/>
 <path d="m190 178 1.4-4.8" stroke="#525375" stroke-linecap="round" stroke-linejoin="round"/>
 <path d="m210 248 0.42-5.1" stroke="#525375" stroke-linecap="round" stroke-linejoin="round"/>
 <path d="m274 92s-2.4-4.8-7.4-2.5" stroke="#525375" stroke-linecap="round" stroke-linejoin="round"/>
 <path d="m231 91s-3.6-0.84-6.6 3.2" stroke="#525375" stroke-linecap="round" stroke-linejoin="round"/>
 <path d="m262 53c6.1-0.63 16-1.5 19 3.4 2.9 4.8-1.3 14-7.3 18-5.3 4-13 3.6-27 2.8-12-0.7-18-1.1-25-4.2-5.7-2.5-18-7.9-18-17-0.14-5.7 4.8-12 10-14 7.1-2.4 15 2.3 26 9.2 3.4 2 6 3.9 7.6 5.2 3.4-1.6 8.6-3.5 15-4.1z" fill="#D16978" stroke="#525375" stroke-linecap="round" stroke-linejoin="round"/>
 <path d="m246 57s3.8-2.2 2.1-10l-4.5 0.91c-0.07 0 3.5 4.6 2.4 9.4z" fill="#D16978" stroke="#525375" stroke-linecap="round" stroke-linejoin="round"/>
 <path d="m255 62s-3.2-2.5-7.7-5.5l7.7 5.5z" fill="#D16978"/>
 <path d="m255 62s-3.2-2.5-7.7-5.5" stroke="#525375" stroke-linecap="round" stroke-linejoin="round"/>
 <path d="m214 248 0.35-3.4" stroke="#525375" stroke-linecap="round" stroke-linejoin="round"/>
 <path d="m131 233c1.6 0 2.9-0.85 2.9-1.9 0-1-1.3-1.9-2.9-1.9-1.6 0-2.9 0.85-2.9 1.9 0 1 1.3 1.9 2.9 1.9z" fill="#5758AA"/>
 <path d="m131 237c1.6 0 2.9-0.85 2.9-1.9 0-1-1.3-1.9-2.9-1.9-1.6 0-2.9 0.85-2.9 1.9 0 1 1.3 1.9 2.9 1.9z" fill="#5758AA"/>
 <path d="m127 241c1.6 0 2.9-0.85 2.9-1.9s-1.3-1.9-2.9-1.9c-1.6 0-2.9 0.85-2.9 1.9s1.3 1.9 2.9 1.9z" fill="#5758AA"/>
 <path d="m126 235c0.91-2 0.48-4.2-0.96-4.8-1.4-0.66-3.4 0.44-4.3 2.4-0.91 2-0.48 4.2 0.96 4.8 1.4 0.66 3.4-0.44 4.3-2.4z" fill="#5758AA"/>
 <path d="m183 243c1.6 0 2.9-0.85 2.9-1.9 0-1-1.3-1.9-2.9-1.9s-2.9 0.85-2.9 1.9c0 1 1.3 1.9 2.9 1.9z" fill="#5758AA"/>
 <path d="m183 248c1.6 0 2.9-0.85 2.9-1.9 0-1-1.3-1.9-2.9-1.9s-2.9 0.85-2.9 1.9c0 1 1.3 1.9 2.9 1.9z" fill="#5758AA"/>
 <path d="m180 252c1.6 0 2.9-0.85 2.9-1.9 0-1-1.3-1.9-2.9-1.9-1.6 0-2.9 0.85-2.9 1.9 0 1 1.3 1.9 2.9 1.9z" fill="#5758AA"/>
 <path d="m179 245c0.91-2 0.48-4.2-0.96-4.8-1.4-0.66-3.4 0.44-4.3 2.4-0.91 2-0.48 4.2 0.96 4.8 1.4 0.66 3.4-0.44 4.3-2.4z" fill="#5758AA"/>
</svg>
