<?xml version="1.0" encoding="UTF-8"?>
<svg width="1300" height="50" fill="none" version="1.1" viewBox="0 0 1300 50" xmlns="http://www.w3.org/2000/svg">
 <path d="m-1-1v42.947c0.90499-0.44292 1.8958-0.92208 3.6191-1.3125l4.2695 1.7051c1.0646 0.5604 1.6034 0.5723 2.6797 0.5957l0.53711 0.01172c0.54395-0.25685 0.95339-0.51758 1.0938-0.7832 0.14036-0.26562 0.01277-0.53616-0.51953-0.81641-0.26325-0.27435-0.65226-0.9544-0.9082-1.5645-0.25594-0.61005-0.38039-1.1504-0.11133-1.1445l0.53906 0.01172c0.26905 0.0059 0.66718 0.28398 1.0664 0.49414 0.39922 0.21016 0.79937 0.35254 1.0742 0.08984l2.7148-1.0156c0.7897 0.8231 1.5817 1.5116 2.2441 1.9961 0.66246 0.48454 1.1938 0.76563 1.4629 0.77148 0.26905 0.0059 1.0767 0.02274 1.6836-0.03125 0.30343-0.02699 0.55702-0.07138 0.66797-0.14453 0.11095-0.07315 0.07865-0.17435-0.1875-0.31445-0.26325-0.2744-0.25303-0.67703-0.04102-1.1426 0.21201-0.46555 0.62598-0.99413 1.1758-1.5195 0.2749-0.2627 0.75113-0.45511 1.3262-0.59375 0.57504-0.13864 1.2497-0.22482 1.9238-0.27734 1.3482-0.10505 2.6943-0.07615 3.2324-0.06445 1.0762 0.0233 4.3046 0.09389 5.3809 0.11719 0.5381 0.0117 1.7488 0.03793 3.0254 0.13281 1.2766 0.09489 2.6186 0.25887 3.4199 0.54492 0.4007 0.14305 0.90752 0.0526 1.459-0.16211 0.55146-0.21471 1.1468-0.55333 1.7266-0.91016 1.1596-0.71365 2.2548-1.4961 2.793-1.4844 0.5381 0.0117 1.2006 0.42854 1.7285 0.91016 0.52794 0.48161 0.91991 1.0283 0.91406 1.2969-0.0059 0.26855 0.26024 0.40821 0.5293 0.41406 0.26906 0.0059 0.54108-0.12208 0.54688-0.39062l0.01172-0.53711 0.07031-3.2227c2.679 0.5955 6.4237 1.7521 8.5645 2.3359l4.3516-2.0547c2.7023-0.4786 5.9424-0.94722 7.5684-1.4492 0.27198-0.12842 0.64133-0.08541 1.0508 0.04102 0.40945 0.12643 0.85816 0.33598 1.291 0.54688 0.86571 0.42179 1.6646 0.84278 1.9395 0.58008l0.01172-0.53711 0.55078-0.52539c0.5381 0.0116 2.1512 0.04704 3.7539 0.61914l3.2305 0.07031c2.1642-0.4903 4.3281-0.98033 5.4043-0.95703 1.0763 0.0234 4.8544-0.43158 6.4688-0.39648 0.80715 0.0175 2.6933-0.07728 4.5781-0.10352 1.8848-0.02624 3.7688 0.01473 4.5703 0.30078 1.615 0.0351 7.5676-1.4472 9.1816-1.4121 0.8075 0.0175 2.4192 0.18637 3.9648 0.28711 1.5456 0.10074 3.0263 0.1338 3.5703-0.12305 0.275-0.2627 1.2128-0.10733 2.2188 0.04883 1.006 0.15616 2.081 0.31349 2.625 0.05664 0.275-0.2627 1.0786-0.11078 1.8828 0.04102 0.80425 0.1518 1.6078 0.30372 1.8828 0.04102 0.275-0.2627 0.82021-0.52 1.3613-0.64258 0.54113-0.12258 1.0783-0.11034 1.3418 0.16406 0.12575 0.40573 0.35431 0.74598 0.64258 1.0293 0.28826 0.28332 0.63564 0.50968 1.002 0.68555 0.73263 0.35174 1.5382 0.50197 2.0762 0.51367 1.076 0.0233 4.8548-0.43148 6.4688-0.39648 0.807 0.01755 2.289-0.08463 3.7031-0.12109 1.4141-0.03646 2.7605-0.0068 3.293 0.27344 1.076 0.0234 4.8546-0.43162 5.3926-0.41992 0.544-0.25685 1.6233-0.36908 2.7695-0.47852 1.1462-0.10944 2.3589-0.2158 3.1719-0.4668 0.4065-0.1255 1.0126-0.07893 1.6992 0.07031 0.68659 0.14924 1.4553 0.40094 2.1894 0.68555 1.4682 0.56921 2.7976 1.2686 3.0606 1.543 0.26625 0.14012 0.53798 0.07934 0.80273-0.09961 0.26475-0.17895 0.52288-0.47608 0.76563-0.80664 0.4855-0.66111 0.90714-1.458 1.1816-1.7207l0.53906 0.01172 2.1289 1.1211c2.164-0.4903 4.339-1.5176 4.877-1.5059 1.065 0.5604 2.6681 1.133 3.7441 1.1562l1.0879-0.51367c0.5385 0.0117 1.2115 0.02663 1.8184-0.02734 0.60688-0.05397 1.1469-0.17675 1.4219-0.43945 0.275-0.2627 1.2166-0.24211 2.2226-0.08594 1.006 0.15618 2.0774 0.44832 2.6094 0.72852l2.1523 0.04688c1.076 0.0234 3.2394-0.46871 4.3164-0.44531 0.807 0.0175 2.4218 0.05333 4.0332 0.22266 0.80569 0.08466 1.6115 0.20275 2.3144 0.36914 0.70299 0.16639 1.3034 0.3809 1.7012 0.6582l2.1875-1.5645c0.27475-0.2627 0.64685-0.35523 1.0762-0.37109 0.42931-0.01586 0.91617 0.04532 1.4199 0.08984 0.50375 0.04453 1.0254 0.07177 1.5234-0.0098 0.49806-0.08154 0.97251-0.27196 1.3848-0.66602 0 0 1.0646 0.56068 2.1406 0.58398l3.2168 0.60742c3.779-0.4553 7.0194-0.92185 8.1074-1.4355 0.544-0.25685 1.482-0.10246 2.3535 0.05078 0.8715 0.15324 1.6762 0.30372 1.9512 0.04102 0.275-0.26265 1.077 0.02375 1.877 0.37695 0.8 0.3532 1.5982 0.77345 1.8672 0.7793 0.538 0.0117 2.1529 0.04694 3.7559 0.61914 0.8015 0.28605 2.5565 0.05649 4.4473-0.23828 1.8908-0.29478 3.9162-0.65425 5.2617-0.625l2.1172 1.6582 0.53906 0.01172c0.2695 0.0059 0.80665 0.01712 1.3476-0.10547 0.541-0.12259 1.0847-0.37896 1.3652-0.91016 0.275-0.2627 0.81897-0.52023 1.4961-0.70703 0.67713-0.1868 1.4874-0.30266 2.2949-0.28516 0.538 0.0117 2.1522 0.04575 3.9668 0.15234 1.8146 0.10659 3.8304 0.28428 5.1699 0.58203l1.625-0.50195c0.275-0.2627 0.949-0.24728 1.6875-0.16406 0.7385 0.08321 1.5421 0.23444 2.0801 0.24609l2.1758-1.0273c1.0645 0.56045 2.1314 0.98591 3 1.2734 0.86863 0.28752 1.5396 0.43751 1.8086 0.44336 0.269 0.0058 1.2141-0.10907 2.2246-0.1543 1.0105-0.04523 2.0852-0.02048 2.6172 0.25977l1.0664 0.56055c0.26625 0.14012 0.50211 0.07776 0.73242-0.06836 0.23031-0.14612 0.45361-0.37598 0.69336-0.57226 0.23975-0.19629 0.49645-0.35875 0.79102-0.36914 0.29456-0.01039 0.62868 0.13139 1.0234 0.54297 0 0 1.6261-0.50192 2.7031-0.47852l1.6133 0.03516c0.8015 0.28605 1.6056 0.43706 2.2754 0.58594s1.2052 0.29401 1.4688 0.56836c0.538 0.0117 3.766 0.08211 5.918 0.12891 1.0765 0.02335 2.8348-0.34171 4.3906-0.71094 1.5559-0.36922 2.9107-0.74218 3.1797-0.73633 0.538 0.0117 3.1938 1.6818 4.2578 2.2422l1.6504-1.5762 2.2109-2.6387c3.205 1.1443 6.9488 2.299 8.5508 2.8711 1.077 0.0234 7.0311-1.459 8.1191-1.9727 0.544-0.25685 1.7561-0.36419 3.0371-0.4707s2.6304-0.21189 3.4434-0.46289l2.1289 1.1211c0.5265 0.54875 1.0595 0.82816 1.5977 0.83984 0.53812 0.01169 1.0809-0.24413 1.6308-0.76953l1.0879-0.51367c0.269 0.0059 0.67209 0.01394 1.0742 0.08984 0.40213 0.0759 0.80291 0.21979 1.0664 0.49414 0.263 0.2744 0.93097 0.55669 1.668 0.70703 0.737 0.15034 1.5439 0.16896 2.0879-0.08789 0.275-0.2627 1.7587-0.36514 3.373-0.33008 1.6144 0.03506 3.3586 0.20614 4.1602 0.49219 0.532 0.2802 1.4743 0.30182 2.416 0.32227s1.884 0.04011 2.416 0.32031c1.076 0.0234 3.2404-0.46666 4.3164-0.44336 1.076 0.0234 4.3163-0.44333 5.4043-0.95703 0.544-0.25685 2.0192 0.04456 3.625 0.48242 1.6058 0.43786 3.3421 1.0128 4.4121 1.3047l1.6504-1.5762s1.0753 0.02346 1.6133 0.03516l3.2168 0.60547c1.6085 0.3036 3.3581 0.34286 4.9082 0.24219 1.5501-0.10068 2.9018-0.3408 3.7148-0.5918s2.5564 0.05653 4.3652 0.43164c1.8089 0.37511 3.6833 0.81845 4.7598 0.8418l1.625-0.50195 1.627-0.50195c1.614 0.035 4.3157-0.4432 5.9297-0.4082 0.4065-0.1255 0.97889-0.07921 1.6152 0.06055 0.63634 0.13976 1.3382 0.37151 2.0059 0.62109 1.3352 0.49916 2.5337 1.0625 2.8027 1.0684l0.53711 0.01172 4.3418-1.5176c4.843 0.1052 10.211 0.7598 11.287 0.7832 0.538 0.0117 2.0153 0.17834 3.5566 0.48047 1.5414 0.30212 3.1479 0.74032 3.9434 1.2949l1.6719-2.6504 0.5625-1.0625c1.0705 0.2919 2.1383 0.71687 3.0039 1.1387 0.86562 0.4218 1.528 0.83888 1.791 1.1133 0.2635 0.2744 1.211 0.02813 2.1602-0.28711 0.94912-0.31524 1.9009-0.69921 2.1699-0.69336 1.076 0.0234 3.7432 1.1563 4.2812 1.168l0.54883-0.52539 2.1894-1.5645c2.129 1.1209 4.8061 1.7169 5.8711 2.2773 0.807 0.01755 2.1552-0.08807 3.4375-0.26172 1.2822-0.17365 2.499-0.41502 3.043-0.67188s1.6183-0.10027 2.623 0.12305c1.0048 0.22331 1.94 0.51373 2.209 0.51953 0.538 0.0117 2.1766-1.0273 2.7266-1.5527 0.2745-0.26265 0.94398-0.11494 1.6152-0.0332 0.33563 0.04087 0.67183 0.06425 0.95899 0.01172 0.28715-0.05253 0.52576-0.18166 0.66601-0.44726l1.6035 0.57226 1.6016 0.57227c2.703-0.4786 6.4814-0.93355 8.1074-1.4355 0.813-0.251 2.4229-0.08119 3.8984 0.15234 1.4755 0.23354 2.815 0.53126 3.084 0.53711 0.2695 0.0058 1.2124 0.02669 2.2871 0.11719 1.0747 0.0905 2.2825 0.25106 3.084 0.53711l1.0762 0.02344 0.53711 0.01172c0.275-0.2627 0.6812-0.38816 1.0176-0.38086 0.33637 0.0073 0.60314 0.14752 0.59766 0.41602-6e-3 0.26855 0.38365 0.94732 0.91015 1.4961 0.26325 0.27439 0.55956 0.51736 0.85938 0.6582 0.29981 0.14085 0.603 0.17921 0.875 0.05078 1.088-0.5138 4.3514-2.0547 5.4394-2.5684 0.544-0.25685 2.2959-0.35244 4.0449-0.31445 1.749 0.03799 3.4934 0.21004 4.0254 0.49024 1.077 0.0234 4.3291-0.98042 5.9551-1.4824 0.538 0.0117 2.0177 0.0433 3.4961 0.14258 1.4784 0.09927 2.9558 0.26668 3.4883 0.54688 0.53202 0.28025 2.2814 0.31825 4.3008 0.29492 2.0194-0.02332 4.3093-0.10927 5.9238-0.07422l1.6387-1.0391 1.6367-1.0391c1.064 0.5605 2.1175 1.6582 2.6445 2.207 0.263 0.27435 1.4771 0.16609 2.9629-0.07031 1.4858-0.2364 3.2428-0.60049 4.5938-0.83984 1.082-0.24515 3.5068-0.3275 5.7266-0.2793s4.235 0.2276 4.498 0.50195c0.5325 0.28025 1.7403 0.4405 2.9512 0.4668 1.2109 0.0263 2.4248-0.08104 2.9688-0.33789 1.614 0.035 5.9309-0.4101 7.5449-0.375 1.615 0.0351 5.4054-0.95701 5.9434-0.94531 0.275-0.2627 0.94022 0.02082 1.6055 0.37109 0.66525 0.35028 1.3306 0.76764 1.5996 0.77344 1.088-0.5137 2.714-1.0156 3.791-0.99219 1.076 0.0234 2.1399 0.58404 3.7539 0.61914l1.6152 0.03516c1.615 0.0351 4.3166-0.44332 5.3926-0.41992 0.5385 0.0117 1.4736 0.29914 2.3438 0.51953 0.87013 0.22039 1.6742 0.37202 1.9492 0.10938l0.54883-0.52539 0.53906 0.01172c0.538 0.0116 2.69 0.05876 4.293 0.63086 0.8015 0.28605 3.3604 0.2079 5.8535 0.06055 2.4931-0.14735 4.921-0.36321 5.459-0.35156l1.0644 0.56055 1.6035 0.57226c0.544-0.25685 1.358-0.50826 2.168-0.625 0.81-0.11674 1.6164-0.09856 2.1484 0.18164l1.0879-0.51367 1.627-0.50195c0.819-0.51955 1.7676-0.90352 2.6465-1.0859 0.87888-0.18241 1.6862-0.16497 2.2188 0.11523 0.532 0.28025 1.6089 0.30403 2.7539 0.26172 1.145-0.04231 2.359-0.15031 3.166-0.13281 0.54401-0.25685 1.486-0.23529 2.4277-0.21484s1.8837 0.04005 2.4277-0.2168c1.076 0.0234 3.755 0.61918 4.832 0.64258 1.076 0.0234 3.2276 0.07033 3.7656 0.08203 0.2635 0.27435 0.93084 0.55668 1.668 0.70703 0.73712 0.15035 1.5439 0.16896 2.0879-0.08789 0.813-0.25105 3.3691-0.19661 6.127-0.13672 2.7579 0.05989 5.7174 0.12412 7.3379-0.10938 1.614 0.03505 3.7757-0.31974 5.668-0.68164s3.5147-0.7304 4.0527-0.71875l1.6035 0.57227 2.6797 0.5957c3.228 0.0701 7.5334 0.1641 8.6094 0.1875l1.0879-0.51367 1.625-0.50195c1.076 0.02335 2.2885 0.04816 3.3633 0.13867 1.0748 0.09051 2.0129 0.24519 2.5449 0.52539 1.077 0.0234 4.8439 0.10561 5.9199 0.12891l2.1523 0.04688c1.077 0.0234 3.7658 0.08222 6.4688-0.39648l2.7031-0.47852 2.1641-0.49024c2.164-0.4904 4.3155-0.44334 4.8535-0.43164 0 0 1.6037 0.5723 2.6797 0.5957 1.076 0.0233 5.3693 0.65238 6.4453 0.67578 1.065 0.5604 3.7442 1.1563 4.2832 1.168 0.2745-0.2627 0.81798-0.51877 1.4277-0.70703 0.60975-0.18826 1.2857-0.30852 1.8242-0.29688 0.538 0.0117 3.79-0.99214 5.416-1.4941 0.807 0.0175 2.8245 0.0614 4.9785 0.04102 2.154-0.02039 4.4439-0.1044 5.7949-0.34375 2.691 0.0584 10.213 0.75785 11.289 0.78125 1.077 0.0233 4.8682-0.96873 5.4062-0.95703 0.269 0.0058 0.80517 0.01689 1.3418 0.0957 0.53662 0.07881 1.0724 0.2256 1.3359 0.5 0.538 0.0117 4.3166-0.44316 7.5566-0.91016l2.6797 0.5957 2.1524 0.04687c0.81299-0.25105 1.8955-0.49652 2.9746-0.60742 1.0791-0.1109 2.1555-0.08878 2.957 0.19727l3.2285 0.07032c0.813-0.251 1.8908-0.36055 2.8984-0.27148 1.0076 0.08906 1.9442 0.37703 2.4707 0.92578 0.26625 0.1401 0.77255 0.08405 1.4238-0.07813 0.65128-0.16218 1.4476-0.43099 2.2949-0.71484 0.84738-0.28385 1.7451-0.58172 2.5996-0.80664s1.6671-0.37593 2.3398-0.36133l2.1152 1.6582s0.2704 0.0046 0.54101-0.05664c0.27063-0.06129 0.54333-0.18848 0.54883-0.45703l0.54883-0.52539c6e-3 -0.26855 0.28191-0.53124 0.69141-0.79102s0.95209-0.51659 1.4961-0.77344c1.076 0.0234 3.7443 1.1564 4.8203 1.1797 0.5325 0.28025 1.8773 0.30868 3.2227 0.33789 1.3454 0.02921 2.6907 0.05769 3.2227 0.33789 0.5325 0.28025 1.3398 0.29765 2.1484 0.24805 0.80863-0.0496 1.6182-0.16595 2.1562-0.1543 1.077 0.0234 4.2942 0.63102 5.9082 0.66602 0.8075 0.01755 2.5632-0.21353 4.3164-0.37695s3.5051-0.25871 4.3066 0.02734l0.54883-0.52539c0.54675-0.3911 0.98728-0.51719 1.3652-0.49219 0.37795 0.02501 0.69387 0.20023 0.99218 0.4082 0.29832 0.20798 0.57889 0.44962 0.88672 0.60742s0.64233 0.23292 1.0488 0.10742l1.627-0.50195c0.55-0.5254 1.3688-1.0459 2.252-1.4297 0.88312-0.38382 1.8292-0.63078 2.6367-0.61328 0.538 0.0117 2.0177 0.0433 3.4961 0.14258 1.4784 0.09927 2.9558 0.26472 3.4883 0.54492 1.076 0.0234 5.381 0.11722 6.457 0.14062 0.544-0.25685 1.8875-0.09389 3.2285 0.13672 1.341 0.23061 2.6808 0.52932 3.2188 0.54102 0.5325 0.2802 1.8765 0.30917 3.3594 0.20703 1.4829-0.10214 3.1036-0.33493 4.1856-0.58008l2.1406 0.58398c0.801 0.28605 1.7398 0.43949 2.6172 0.32422 0.43869-0.05764 0.86299-0.18261 1.2461-0.39258 0.3831-0.20997 0.72615-0.50537 1.0039-0.90234l4.8535-0.43164c1.202 0.4291 2.4079 0.72442 3.6152 0.91016 1.2073 0.18574 2.4174 0.26313 3.6289 0.25586 2.4231-0.01455 4.8536-0.36511 7.2871-0.84961 0.4065-0.1255 0.84204-0.04901 1.293 0.10352 0.45092 0.15252 0.91757 0.38053 1.3848 0.55859s0.93533 0.30669 1.3906 0.25781c0.45529-0.04888 0.89725-0.27444 1.3125-0.80274 0.275-0.2627 1.2188-0.37688 2.2949-0.35352 1.0761 0.02336 2.2844 0.18465 3.0859 0.4707l1.0762 0.02148c0.5325 0.2802 1.2026 0.42948 1.8066 0.50977 0.604 0.08029 1.1407 0.09181 1.4102 0.09766 0.26901 0.0058 0.81075-0.11569 1.4219-0.37109s1.2923-0.64457 1.8418-1.1699c0.272-0.12842 0.6409-0.08618 1.0586 0.04883 0.41769 0.135 0.88386 0.36419 1.3496 0.60938 0.9315 0.49038 1.8624 1.0469 2.4004 1.0586 1.077 0.0234 3.253-1.0039 3.791-0.99219s2.6674 1.133 3.7324 1.6934l1.0742 0.02344c0.538 0.0117 1.0805-0.11107 1.623-0.30078 0.5425-0.18971 1.0869-0.44628 1.6309-0.70312l1.625-0.50195c1.603 0.5722 3.7432 1.1563 4.2812 1.168 0.538 0.0116 2.1651-0.49217 2.7031-0.48047 0.275-0.2627 0.94419-0.11201 1.6797 0.10547s1.5362 0.50197 2.0742 0.51367l0.53907 0.01172c0.55-0.5254 1.1007-1.0508 1.6387-1.0391 0.538 0.01165 1.2028 0.29569 1.8711 0.51172s1.3388 0.36427 1.8828 0.10742c0.8075 0.0175 1.6214-0.23385 2.3672-0.48633 0.74575-0.25248 1.4244-0.50584 1.9629-0.49414l1.6133 0.03516c0.8075 0.01755 1.7491 0.03838 2.625-0.0098 0.87588-0.04815 1.6865-0.16502 2.2305-0.42188l1.0527 1.0977 0.52539 0.54883c1.077 0.0234 3.7521 0.61932 5.9121 0.66602 0.805 0.01755 2.6918-0.21108 4.5118-0.37305 1.82-0.16196 3.5724-0.25872 4.1074 0.02148 0.53 0.28025 2.5475 0.32437 4.9687 0.37695 2.4213 0.05259 5.2457 0.11439 7.3907 0.42969l4.3398-1.5176c0.545-0.25685 1.3566-0.37301 2.1641-0.35547 0.8075 0.01754 1.6114 0.16902 2.1464 0.44922l2.1309 1.1211c1.62-0.502 4.3397-1.5195 5.4297-2.0332l1.0703 0.02344c0.54 0.0117 1.0737 0.15801 1.6074 0.37109 0.5338 0.21309 1.0666 0.49319 1.6016 0.77344l0.5195 0.54883c0.265 0.2744 1.2024 0.5643 2.5449 0.79492s3.0916 0.40246 4.9766 0.44336c1.88 0.0409 4.985-0.42954 7.6875-0.9082 2.7025-0.47866 5.0015-0.96483 5.2715-0.95898 0.53 0.0117 0.5205 0.54885 1.0605 0.56055 0.27 0.0059 1.0778 0.02325 2.0215-0.02344 0.9438-0.04669 2.0229-0.15916 2.8379-0.41016 1.61 0.035 7.0011-0.38471 8.6211-0.34961 0.805 0.0175 2.4098 0.45546 3.9473 0.95898s3.0079 1.0733 3.5429 1.3535c0.53 0.28025 1.8763 0.17487 3.1563 0.06836 1.28-0.10651 2.4919-0.21385 2.7519 0.06055 0.2675 0.1401 0.7405 0.11582 1.3243-0.0059 0.5837-0.12168 1.2796-0.34055 1.9921-0.59375 1.425-0.5064 2.9194-1.1455 3.7344-1.3965l2.1094 1.6562 1.0703 0.56055c2.7-0.4786 7.5598-0.90997 10.26-1.3887l4.8398 0.10546c1.34 0.29775 2.9564 0.33334 4.4414 0.16406s2.8402-0.54295 3.6602-1.0625l2.1094 1.6582c0.4 0.2773 0.8379 0.28558 1.3125 0.16992 0.4745-0.11565 0.9861-0.35679 1.5293-0.58008 0.5431-0.22329 1.1188-0.42901 1.7246-0.47461 0.6057-0.0456 1.2418 0.06893 1.9043 0.48633 0.53 0.4145 1.0291 0.694 1.5058 0.85547 0.4767 0.16146 0.9298 0.20608 1.3692 0.14844 0.8787-0.11528 1.6984-0.63573 2.5234-1.4238l0.5312 0.01172 1.6094 0.57226c1.61 0.0351 3.7501 0.61918 4.8301 0.64258 0.54 0.0116 3.7904-0.99213 5.4004-0.95703l1.0801 0.02344 2.6894 0.05859c1.615 0.03505 3.6317 0.07801 5.6504 0.05469 2.0188-0.02332 4.0402-0.11421 5.6602-0.34766l2.6894 0.05859 1.6192 0.03516c2.14 0.5838 4.2813 1.168 5.3613 1.1914 1.07 0.0233 3.2405-0.46676 4.3105-0.44336 0.54 0.0116 3.21 1.1446 3.75 1.1562l1.6582-2.1133c-0.2787 0.39696-0.438 0.76205-0.5039 1.0996-0.066 0.33756-0.038 0.64823 0.061 0.93164 0.1972 0.56681 0.6745 1.0305 1.2383 1.4121 1.1275 0.7633 2.6002 1.1983 2.8652 1.4727 0.265 0.2744 0.8034 0.28591 1.4121 0.09766 0.6088-0.18825 1.2879-0.57812 1.8379-1.1035 0.26 0.40865 0.5268 0.58382 0.7871 0.62305 0.2603 0.03923 0.5152-0.05639 0.7539-0.18555 0.2388-0.12916 0.4609-0.29216 0.6563-0.38867 0.1953-0.09651 0.3641-0.12741 0.4941 0.0098 0.795 0.5546 1.461 0.8389 2.1348 0.85352 0.6737 0.01461 1.3538-0.24022 2.1738-0.75977 0.1375-0.13135 0.373-0.09125 0.6641 0.04102s0.6375 0.3566 1.0019 0.59961c0.7288 0.48601 1.5245 1.0411 2.0645 1.0527l1.08 0.02344c0.81-0.251 1.6201-0.3669 2.3614-0.41797 0.7412-0.05108 1.4142-0.03709 1.9492-0.02539 1.08 0.0234 5.36 1.1916 7.5 1.7754l1.6387-1.0391s0.5403 0.01174 1.0703 0.02344c0.805 0.28605 1.7408 0.70833 2.6758 1.0645s1.8707 0.64456 2.6757 0.66211l1.6192 0.03516c0.4075-0.25978 0.7461-0.3871 1.0234-0.40625 0.2774-0.01915 0.4938 0.07069 0.6582 0.24219 0.3288 0.34299 0.4478 1.0167 0.4278 1.8223l2.7402-2.0898 2.1894-1.5645c1.065 0.56045 2.4054 0.85824 3.6817 0.95312 1.2762 0.09489 2.4888-0.01267 3.2988-0.26367 0.4075-0.1255 1.012-0.0445 1.7149 0.13867 0.7028 0.18317 1.5034 0.46784 2.3046 0.75391 0.8013 0.28606 1.6039 0.57269 2.3067 0.75586s1.3073 0.26417 1.7148 0.13867c0.805 0.01755 2.679 0.45987 4.5528 0.9707 1.8737 0.51084 3.7468 1.0889 4.5468 1.375l0.049-2.1484 1.08-0.51367 2.1211 1.6582c1.35-0.2393 2.6947-0.20988 3.836-0.05078 1.1412 0.1591 2.0783 0.44832 2.6133 0.72852 0.53 0.28025 1.6128 0.03422 2.6953-0.21094 1.0825-0.24516 2.1653-0.48918 2.6953-0.20898 0.535 0.28025 1.6052 0.57089 2.6777 0.72852s2.1464 0.18263 2.6914-0.07422c0.545-0.25685 2.4335-0.35145 4.586-0.30469 2.1525 0.04676 4.5707 0.23351 6.1757 0.53711l3.209 1.1445c0.265 0.14012 0.5674 0.14653 0.8965 0.07813 0.3291-0.0684 0.6849-0.21129 1.0586-0.37109 0.7475-0.31961 1.565-0.705 2.375-0.6875l1.0703 0.02344c0.535 0.28025 1.2056 0.42827 1.8106 0.44141 0.2638 0.0057 0.3966-0.11585 0.6191-0.16211v-38.891z" fill="#fcfcff" stroke-width="4.5285"/>
</svg>
