<svg width="495" height="26" viewBox="0 0 495 26" fill="none" xmlns="http://www.w3.org/2000/svg">
<path d="M6.45431 19.0598C6.23175 18.8365 6.23175 18.8365 6.23175 18.6133V7.00296C6.23175 6.77969 6.23175 6.55642 6.45431 6.55642C6.67687 6.33314 6.67687 6.33314 6.89944 6.33314H18.2501C18.4727 6.33314 18.6952 6.33314 18.6952 6.10986C18.9178 5.88659 18.9178 5.88659 18.9178 5.66331V0.974537C18.9178 0.751263 18.9178 0.527985 18.6952 0.527985C18.4727 0.30471 18.4727 0.30471 18.2501 0.30471H10.9056H4.89637H4.22869C3.561 0.30471 3.11587 0.30471 2.67075 0.527985C2.22562 0.751261 1.7805 0.974537 1.33537 1.42109C0.89025 1.86764 0.667687 2.31419 0.445125 2.76074C0 3.43056 0 3.87711 0 4.54694V4.99349V7.67279V16.1572V18.39V21.0693C0 21.7391 0 22.1857 0.222562 22.6322C0.445125 23.0788 0.667687 23.5253 1.11281 23.9719C1.55794 24.4184 2.00306 24.6417 2.44819 24.865C3.11587 25.0882 3.561 25.3115 4.22869 25.3115H4.89637H18.4727C18.6952 25.3115 18.9178 25.3115 18.9178 25.0882C19.1404 24.865 19.1404 24.865 19.1404 24.6417V19.9529C19.1404 19.7296 19.1404 19.5064 18.9178 19.5064C18.6952 19.2831 18.6952 19.2831 18.4727 19.2831H6.89944C6.67687 19.2831 6.67687 19.0598 6.45431 19.0598Z" fill="#6364B8"/>
<path d="M53.4539 6.33314C53.6765 6.33314 53.8991 6.33314 53.8991 6.10986C54.1216 5.88659 54.1216 5.88659 54.1216 5.66331V0.974537C54.1216 0.751263 54.1216 0.527985 53.8991 0.527985C53.6765 0.30471 53.6765 0.30471 53.4539 0.30471H38.0971C37.652 0.30471 37.4294 0.527987 37.4294 0.974537V24.6417C37.4294 25.0882 37.652 25.3115 38.0971 25.3115H42.9935C43.4386 25.3115 43.6612 25.0882 43.6612 24.6417V7.00296C43.6612 6.77969 43.6612 6.55642 43.8838 6.55642C44.1063 6.33314 44.1063 6.33314 44.3289 6.33314H53.4539Z" fill="#6364B8"/>
<path d="M89.3255 25.0882C89.5481 24.865 89.5481 24.865 89.5481 24.6417V22.6322V21.5158V20.1762C89.5481 19.9529 89.5481 19.7296 89.3255 19.7296C89.103 19.5064 89.103 19.5064 88.8804 19.5064H86.4322H78.8651H76.862C76.6395 19.5064 76.6395 19.5064 76.6395 19.2831V15.4874C76.6395 15.4874 76.6395 15.2641 76.862 15.2641H87.0999C87.3225 15.2641 87.545 15.2641 87.545 15.0409C87.545 15.0409 87.7676 14.8176 87.7676 14.5943V11.0219C87.7676 10.7986 87.7676 10.5754 87.545 10.5754C87.3225 10.3521 87.3225 10.3521 87.0999 10.3521H76.862C76.6395 10.3521 76.6395 10.3521 76.6395 10.1288V8.34262V6.33314C76.6395 6.10987 76.6395 6.10987 76.862 6.10987H78.42H86.4322H88.8804C89.103 6.10987 89.3255 6.10987 89.3255 5.88659C89.5481 5.66332 89.5481 5.66332 89.5481 5.44004V4.10039V2.31419V1.19781C89.5481 0.974539 89.5481 0.751263 89.3255 0.751263C89.103 0.527988 89.103 0.527988 88.8804 0.527988H86.8773H73.301H71.0754C70.6303 0.527988 70.4077 0.751263 70.4077 1.19781V2.31419V22.8555V24.6417C70.4077 24.865 70.4077 25.0882 70.6303 25.0882C70.6303 25.3115 70.8528 25.3115 71.0754 25.3115H73.7462H87.7676H88.8804C89.103 25.3115 89.103 25.3115 89.3255 25.0882Z" fill="#6364B8"/>
<path d="M129.648 25.0882C129.648 24.865 129.648 24.865 129.648 24.6417L122.303 0.974537C122.303 0.751263 122.081 0.527985 122.081 0.527985C121.858 0.30471 121.636 0.30471 121.636 0.30471H114.959C114.736 0.30471 114.514 0.30471 114.514 0.527985C114.291 0.751261 114.291 0.751263 114.291 0.974537L106.501 24.6417C106.501 24.865 106.501 25.0882 106.501 25.0882C106.724 25.3115 106.947 25.3115 107.169 25.3115H112.511C112.733 25.3115 112.956 25.3115 112.956 25.0882C113.178 24.865 113.178 24.865 113.178 24.6417L118.075 7.00296L122.971 24.6417C122.971 24.865 123.194 25.0882 123.194 25.0882C123.416 25.3115 123.639 25.3115 123.861 25.3115H129.203C129.425 25.3115 129.648 25.3115 129.648 25.0882Z" fill="#6364B8"/>
<path d="M165.742 25.0882C165.965 24.865 165.965 24.865 165.965 24.6417V22.6322V21.5158V20.1762C165.965 19.9529 165.965 19.7296 165.742 19.7296C165.519 19.5064 165.519 19.5064 165.297 19.5064H162.849H155.504H153.279C153.056 19.5064 153.056 19.5064 153.056 19.2831V15.4874C153.056 15.4874 153.056 15.2641 153.279 15.2641H163.516C163.739 15.2641 163.962 15.2641 163.962 15.0409C164.184 14.8176 164.184 14.8176 164.184 14.5943V11.0219C164.184 10.7986 164.184 10.5754 163.962 10.5754C163.739 10.3521 163.739 10.3521 163.516 10.3521H153.279C153.056 10.3521 153.056 10.3521 153.056 10.1288V8.34262V6.33314C153.056 6.10987 153.056 6.10987 153.279 6.10987H154.836H162.849H165.297C165.519 6.10987 165.742 6.10987 165.742 5.88659C165.965 5.66332 165.965 5.66332 165.965 5.44004V4.10039V2.31419V1.19781C165.965 0.974539 165.965 0.751263 165.742 0.751263C165.519 0.527988 165.519 0.527988 165.297 0.527988H163.294H149.718H147.492C147.047 0.527988 146.824 0.751263 146.824 1.19781V2.31419V22.8555V24.6417C146.824 24.865 146.824 25.0882 147.047 25.0882C147.269 25.3115 147.269 25.3115 147.492 25.3115H150.163H164.184H165.297C165.519 25.3115 165.519 25.3115 165.742 25.0882Z" fill="#6364B8"/>
<path d="M206.065 0.751261C206.065 0.527987 206.065 0.527987 206.065 0.30471C206.065 0.30471 205.842 0.0814362 205.62 0.0814362H200.056C199.833 0.0814362 199.61 0.0814362 199.388 0.30471C199.165 0.30471 199.165 0.527987 198.943 0.751261L195.159 7.44951L194.937 7.67279H190.708C190.485 7.67279 190.485 7.67279 190.485 7.44951V0.751261C190.485 0.30471 190.263 0.0814362 189.818 0.0814362H184.921C184.476 0.0814362 184.254 0.30471 184.254 0.751261V24.6417C184.254 25.0882 184.476 25.3115 184.921 25.3115H200.946C201.614 25.3115 202.059 25.0882 202.504 24.865C202.949 24.6417 203.394 24.4184 203.839 23.9719C204.284 23.5253 204.507 23.0788 204.729 22.6322C204.952 22.1857 205.175 21.5158 205.175 21.0693V11.6917C205.175 10.7986 204.952 9.90554 204.284 9.23572C203.839 8.56589 203.171 8.11934 202.281 7.67279C202.059 7.67279 202.059 7.44951 202.281 7.44951L206.065 0.751261ZM198.943 19.5064H190.485V13.4779H199.165V19.5064H198.943Z" fill="#6364B8"/>
<path d="M242.826 19.0598C242.604 18.8365 242.604 18.8365 242.604 18.6133V7.00296C242.604 6.77969 242.604 6.55642 242.826 6.55642C243.049 6.33314 243.049 6.33314 243.271 6.33314H254.622C254.845 6.33314 255.067 6.33314 255.067 6.10986C255.29 5.88659 255.29 5.88659 255.29 5.66331V0.974537C255.29 0.751263 255.29 0.527985 255.067 0.527985C254.845 0.30471 254.845 0.30471 254.622 0.30471H247.277H241.046H240.378C239.71 0.30471 239.265 0.30471 238.82 0.527985C238.375 0.751261 237.93 0.974537 237.485 1.42109C237.04 1.86764 236.817 2.31419 236.594 2.76074C236.372 3.20729 236.372 3.87711 236.372 4.32366V4.99349V7.67279V16.1572V18.39V21.0693C236.372 21.7391 236.372 22.1857 236.594 22.6322C236.817 23.0788 237.04 23.5253 237.485 23.9719C237.93 24.4184 238.375 24.6417 238.82 24.865C239.265 25.0882 239.933 25.3115 240.378 25.3115H241.046H254.622C254.845 25.3115 255.067 25.3115 255.067 25.0882C255.29 24.865 255.29 24.865 255.29 24.6417V19.9529C255.29 19.7296 255.29 19.5064 255.067 19.5064C254.845 19.2831 254.845 19.2831 254.622 19.2831H243.271C243.049 19.2831 242.826 19.0598 242.826 19.0598Z" fill="#6364B8"/>
<path d="M290.493 25.3115C291.161 25.3115 291.606 25.0882 292.051 24.865C292.496 24.6417 292.942 24.4184 293.387 23.9719C293.832 23.5253 294.054 23.0788 294.277 22.6322C294.5 22.1857 294.722 21.5158 294.722 21.0693V4.32366C294.722 3.65384 294.5 3.20729 294.277 2.76074C294.054 2.31419 293.832 1.86764 293.387 1.42109C292.942 0.974537 292.496 0.751261 292.051 0.527985C291.606 0.30471 290.939 0.30471 290.493 0.30471H277.807C277.14 0.30471 276.695 0.30471 276.249 0.527985C275.804 0.751261 275.359 0.974537 274.914 1.42109C274.469 1.86764 274.246 2.31419 274.024 2.76074C273.801 3.20729 273.801 3.87711 273.801 4.32366V21.0693C273.801 21.7391 273.801 22.1857 274.024 22.6322C274.246 23.0788 274.469 23.5253 274.914 23.9719C275.359 24.4184 275.804 24.6417 276.249 24.865C276.695 25.0882 277.362 25.3115 277.807 25.3115H290.493ZM288.268 19.2831H279.81V6.33314H288.268V19.2831Z" fill="#6364B8"/>
<path d="M329.703 25.3115C330.371 25.3115 330.816 25.0882 331.261 24.865C331.706 24.6417 332.152 24.4184 332.597 23.9719C333.042 23.5253 333.264 23.0788 333.487 22.6322C333.71 22.1857 333.932 21.5158 333.932 21.0693V4.32366C333.932 3.65384 333.71 3.20729 333.487 2.76074C333.264 2.31419 333.042 1.86764 332.597 1.42109C332.152 0.974537 331.706 0.751261 331.261 0.527985C330.816 0.30471 330.149 0.30471 329.703 0.30471H313.679C313.234 0.30471 313.011 0.527987 313.011 0.974537V24.6417C313.011 25.0882 313.234 25.3115 313.679 25.3115H329.703ZM319.243 6.33314H327.7V19.2831H319.243V6.33314Z" fill="#6364B8"/>
<path d="M371.139 25.0882C371.361 24.865 371.361 24.865 371.361 24.6417V22.6322V21.5158V20.1762C371.361 19.9529 371.361 19.7296 371.139 19.7296C370.916 19.5064 370.916 19.5064 370.694 19.5064H368.246H360.901H358.898C358.675 19.5064 358.675 19.5064 358.675 19.2831V15.4874C358.675 15.4874 358.675 15.2641 358.898 15.2641H369.136C369.358 15.2641 369.581 15.2641 369.581 15.0409C369.803 14.8176 369.803 14.8176 369.803 14.5943V11.0219C369.803 10.7986 369.803 10.5754 369.581 10.5754C369.358 10.3521 369.358 10.3521 369.136 10.3521H358.898C358.675 10.3521 358.675 10.3521 358.675 10.1288V8.34262V6.33314C358.675 6.10987 358.675 6.10987 358.898 6.10987H360.456H368.468H370.916C371.139 6.10987 371.361 6.10987 371.361 5.88659C371.584 5.66332 371.584 5.66332 371.584 5.44004V4.10039V2.31419V1.19781C371.584 0.974539 371.584 0.751263 371.361 0.751263C371.139 0.527988 371.139 0.527988 370.916 0.527988H368.913H355.337H353.111C352.666 0.527988 352.444 0.751263 352.444 1.19781V2.31419V22.8555V24.6417C352.444 24.865 352.444 25.0882 352.666 25.0882C352.666 25.3115 352.666 25.3115 352.889 25.3115H355.559H369.581H370.694C370.916 25.3115 370.916 25.3115 371.139 25.0882Z" fill="#6364B8"/>
<path d="M417.916 19.2831C418.138 19.2831 418.361 19.2831 418.361 19.5063C418.584 19.7296 418.584 19.7296 418.584 19.9529V24.6417C418.584 24.8649 418.584 25.0882 418.361 25.0882C418.138 25.3115 418.138 25.3115 417.916 25.3115H402.559C402.114 25.3115 401.891 25.0882 401.891 24.6417V0.974513C401.891 0.527963 402.114 0.304688 402.559 0.304688H407.455C407.901 0.304688 408.123 0.527963 408.123 0.974513V18.6132C408.123 18.8365 408.123 19.0598 408.346 19.0598C408.568 19.2831 408.568 19.2831 408.791 19.2831H417.916Z" fill="#6364B8"/>
<path d="M451.562 25.3115C452.23 25.3115 452.675 25.0882 453.12 24.865C453.565 24.6417 454.01 24.4184 454.455 23.9719C454.9 23.5253 455.123 23.0788 455.345 22.6322C455.568 22.1857 455.79 21.5158 455.79 21.0693V0.974537C455.79 0.751263 455.791 0.527985 455.568 0.527985C455.345 0.30471 455.345 0.30471 455.123 0.30471H450.226C450.004 0.30471 449.781 0.30471 449.781 0.527985C449.559 0.751261 449.559 0.751263 449.559 0.974537V7.44951C449.559 7.67279 449.559 7.89606 449.336 7.89606C449.114 8.11934 449.114 8.11934 448.891 8.11934H441.769C441.547 8.11934 441.324 8.11934 441.324 7.89606C441.101 7.67279 441.101 7.67279 441.101 7.44951V0.974537C441.101 0.527987 440.879 0.30471 440.434 0.30471H435.537C435.092 0.30471 434.87 0.527987 434.87 0.974537V21.0693C434.87 21.7391 434.87 22.1857 435.092 22.6322C435.315 23.0788 435.537 23.5253 435.982 23.9719C436.428 24.4184 436.873 24.6417 437.318 24.865C437.763 25.0882 438.431 25.3115 438.876 25.3115H451.562V25.3115ZM449.336 13.4779V19.7296H440.879V13.4779H449.336Z" fill="#6364B8"/>
<path d="M492.997 13.2547C492.774 13.0314 492.774 13.0314 492.774 12.8081C492.774 12.5848 492.774 12.3616 492.997 12.3616L494.555 10.5754C494.777 10.3521 494.777 10.3521 494.777 10.1288C494.777 9.90554 495 9.68227 495 9.45899V4.54694C495 3.87712 494.777 3.43056 494.555 2.98401C494.332 2.53746 494.11 2.09091 493.665 1.64436C493.219 1.19781 492.774 0.974539 492.329 0.751263C491.884 0.527988 491.216 0.527988 490.771 0.527988H474.747C474.302 0.527988 474.079 0.751263 474.079 1.19781V24.6417C474.079 25.0882 474.302 25.3115 474.747 25.3115H490.771C491.439 25.3115 491.884 25.0882 492.329 24.865C492.774 24.6417 493.219 24.4184 493.665 23.9719C494.11 23.5253 494.332 23.0788 494.555 22.6322C494.777 22.1857 495 21.5158 495 21.0693V16.3805C495 16.1572 495 15.934 494.777 15.7107C494.777 15.4874 494.555 15.2641 494.555 15.2641L492.997 13.2547ZM489.213 19.9529H479.643V15.4874H489.213V19.9529ZM489.213 10.5754H479.643V5.66331H489.213V10.5754Z" fill="#6364B8"/>
</svg>
