<svg width="128" height="164" fill="none" version="1.1" viewBox="0 0 128 164" xmlns="http://www.w3.org/2000/svg">
 <defs>
  <clipPath id="a">
   <rect x="-1.1e-16" y="382" width="129" height="164" fill="none" stroke="#f4bc4f" stroke-linecap="square" stroke-width=".43" style="paint-order:markers stroke fill"/>
  </clipPath>
 </defs>
 <g transform="translate(0,-382)" clip-path="url(#a)">
  <path d="m73 80s-2.5-26-4.4-28c-0.9-0.9-3.9-1.8-6.6-2.6-3-0.8-5.8-1.3-5.8-1.3l2.9 19 6.9 6.3z" fill="#fcd8cd"/>
  <path d="m66 73-4-24c-3-0.8-5.8-1.3-5.8-1.3l2.9 19z" fill="#f2c1b8"/>
  <path d="m39 64-2.2-16-14-2.9v24l5.6-1.6z" fill="#fcd8cd"/>
  <path d="m28 46-5.7-1.2v24l5.6-1.6c0-5.8 0.1-15 0.1-21z" fill="#f2c1b8"/>
  <path d="m117 247c-2.2-2.7-5-5.2-8.6-7.1-21-12-2 60-1.3 60 0.2 0 2.5 0.2 5.2 0.4 4.9 0.4 12 1 12 1s-2.5-15-1.1-18c1.1-2.6 5.2-23-5.8-37z" fill="#fcd8cd"/>
  <path d="m117 247c-2.2-2.7-5-5.2-8.6-7.1-21-12-2 60-1.3 60 0.2 0 2.5 0.2 5.2 0.4 0.6-10 1.7-26 2.8-34 0.9-5.5 1.8-13 1.9-20z" fill="#f2c1b8"/>
  <path d="m64 313 8.6-33s7-51 6.7-55-5.2-33-6.4-36-14-121-14-121l31 13s15 113 16 116 4.2 58 4.8 67-24 81-24 81l-19-17z" fill="#5c5db1"/>
  <path d="m29 285s-8-86-8.3-93c0 0-12-122-12-124 0-2.2 29-4.4 30-2.5 1.1 1.9 1.7 62 2.4 65 0.6 2.5 32 153 32 158 0.2 4.7-43-2.3-43-2.3z" fill="#5c5db1"/>
  <path d="m68 305s17 4.4 20 7.1c3.6 2.8 0 34-3.4 35-3.4 0.6-22 8.8-22 8.8l1.6-48z" fill="#cdd9db"/>
  <path d="m57 463 6.3-24 13 1.9-1 22z" fill="#fcd8cd"/>
  <path d="m83 497s2.7 10 7.3 6.8c4.6-3.8 0.2-23-4.7-20s-3.7 5.9-3.7 5.9z" fill="#f2c1b8"/>
  <path d="m88 499c-1.6-2.6-35-13-47 2.6 0 0-0.9 23-0.2 25 0.1 0.3 0.7 0.5 1.8 0.7 9.3 38 42 1.6 42 1.6-2.5 6.7-11 16-11 16 5.2-3.5 13-17 13-17 1.4-0.1 2.3-0.3 2.5-0.6 1.3-1.7 0.9-26-0.6-29z" fill="#594433"/>
  <path d="m74 546 0.2 0.1z" fill="#000"/>
  <path d="m78 472c-6.9-4.2-19 1-25 5.2-2.3 1.5-3.8 2.8-4 3.5-0.8 2.6-3.2 44-3.2 44 0.8 0.3 1.9 0.6 3.2 0.9 11 2.5 36 2.3 36 0.4 0.8-2.1 1.3-40 1.3-40s1.1-8.6-8.4-14z" fill="#fcd8cd"/>
  <path d="m53 477c-2.3 1.5-3.8 2.8-4 3.5-0.8 2.6-3.2 44-3.2 44 0.8 0.3 1.9 0.6 3.2 0.9 0.3-9 1.4-42 4-48z" fill="#f2c1b8"/>
  <path d="m87 486c-1.6-2-3.3-3.7-4.9-5-1.9 3.6-6.2 5.3-12 5.3-5.6 0-8.8-3.9-9.7-6-7.1 4.5-12 12-12 12 0.8-50 32-42 36-31 3.5 10 2.4 25 2.4 25zm-24-7.4c2.8 2.8 10 8.8 17-0.2 0.6-0.8 0.4-1.8-0.4-2.4-2.9-2-10-5.9-17 0.2-0.6 0.6-0.7 1.7 0 2.4z" fill="#594433"/>
  <path d="m48 493c0.1-3.9 0.3-7.4 0.7-11 0.1 0 0.2-0.1 0.2-0.1-0.2 2-0.6 5.9-0.9 11z" fill="#333"/>
  <path d="m69 506s5.1-11 6.6-14 6.2-2.4 1.8-5.5-9.4-1.9-11-1 1 14 2.5 20z" fill="#f2c1b8"/>
  <path d="m49 482c-0.1 0-0.2 0-0.2 0.1-6.2 2.1-9.9 10-9.3 18s8.1-1.2 8.2-1.3c0.1-2.1 0.3-4 0.4-5.9 0.3-4.9 0.7-8.8 0.9-11z" fill="#f2c1b8"/>
  <path d="m71 478c-2.7 0-4.8 0.8-5.8 1.2h-0.1 0.1v0.7c0.1 0 0.1 0 0.3-0.1 1.7-0.8 6.3-2.3 12 0.2l0.3-0.6c-2.3-1.1-4.5-1.4-6.3-1.4z" fill="#000"/>
  <path d="m76 502s1.4-4 5.7-4.4c0 0-3.9-0.6-6.3 4.2z" fill="#f2c1b8"/>
  <path d="m66 500s-0.7-5.5-6.1-7.2c0 0 5.1 0.2 7 7z" fill="#f2c1b8"/>
  <path d="m128 309s-5 1-6.8 0.6-5.2-10-5.2-10 11 5.3 12 9.7z" fill="#bfcae0"/>
  <path d="m109 303c0.5 0 16 3 19 5.7 1.5-1.1-1-8.9-1-8.9s-12-5.4-14-4.1-4.1 7.3-4.1 7.3z" fill="#d1d9ed"/>
  <path d="m123 305c-0.5-0.4-1.6-1-3-1.5-2.9-1.1-6.7-2.1-7.5-1.4-1.1 1.1-9.2 138-4.4 143 0 0 2.9 0 5.8-4.5 1-1.6 2-3.7 2.9-6.5 3.4-11 1.3-43 2.2-45 1-2.2 3.2-5.7 3.2-7.1s2.2-6.2 2.1-10c0-1.9 0.2-66-1.3-67z" fill="#d1d9ed"/>
  <path d="m120 304c-2.9-1.1-6.7-2.1-7.5-1.4-1.1 1.1-9.2 138-4.4 143 0 0 2.9 0 5.8-4.5-0.2-14-0.7-53 0.1-56 1-2.8 5.1-9.5 5.1-19 0-5.5 0.5-37 0.9-63z" fill="#bfcae0"/>
  <path d="m115 282c-1.3-1.9-28-25-28-25-1.8 32-6 58-9.6 75-0.3 1.4-0.6 2.8-0.9 4.1-0.2 0.8-0.4 1.6-0.5 2.3-0.5 2.1-0.9 4-1.4 5.7-2.4 9.3-4.1 14-4.1 14 2.6 33-0.5 82 2.8 88 0.5 0.9 0.8 2.2 1 3.4 0.1 0.4 0.1 0.9 0.2 1.3 0.2 1.3 0.2 2.4 0.2 2.4s32-2 34-7.4c0.1-0.2 0.2-0.5 0.2-1.1 2.4-15 8-160 6.8-163z" fill="#5c5db1"/>
  <path d="m108 445c-9.8 2.3-27 5.1-34 6.1 0.2 1.3 0.2 2.4 0.2 2.4s32-2 34-7.4c0.2-0.2 0.3-0.5 0.3-1.1z" fill="#3f409e"/>
  <path d="m115 282c-1.3-1.9-28-25-28-25-1.8 32-6 58-9.6 75-0.3 1.4-0.6 2.8-0.9 4.1-0.2 0.8-0.4 1.6-0.5 2.3 5-15 13-42 17-68-0.1 0 12 6.3 22 12z" fill="#15153f"/>
  <path d="m37 12c-0.6-6.5-0.1-7-10-11-6.1-2.2-11-1.9-14-0.7-4.9 1.6-7.4 4.8-7.8 5.4-0.7 1 0.5 7.1 0.5 7.1s5 0.8 11 1.4c9.4 1 22 1.5 21-2.5z" fill="#5c5db1"/>
  <path d="m12 0.93c-4.9 1.6-7.4 4.8-7.8 5.4-0.7 1 0.5 7.1 0.5 7.1s5 0.8 11 1.4c-3.8-2.7-7.6-7.3-3.7-14z" fill="#15153f"/>
  <path d="m37 12c-9.8-8-30-4.2-32 0s17 37 17 37 0.7 0.3 1.8 0.6c0 2.2-0.2 6.2-0.7 7.7 0 0 0.9 0.2 2.3 0.4 3.3 0.5 9.2 1.3 11 0.3 0 0-0.2-3.7-0.4-6.6 1.2-0.3 2-0.9 2.1-1.9 1.7-9.7-1.2-38-1.2-38z" fill="#d1d9ed"/>
  <path d="m37 12c-9.8-8-30-4.2-32 0s17 37 17 37 0.7 0.3 1.8 0.6c0 2.2-0.2 6.2-0.7 7.7 0 0 0.9 0.2 2.3 0.4 0.5-2.1 1.7-7.9 1.2-8.7-0.6-1-4.1-1.2-5-3.9s-7.7-20-7.1-26c0.7-5.1 7.4-10 22-7.8z" fill="#bfcae0"/>
  <path d="m114 21v-3.5c-4-2.8-12-2.1-20-1.4-1.4 0.1-2.8 0.5-4.3 1.2-8.1 3.3-17 13-17 13-3.2 3-18 5.8-18 5.8v3.6s5.5 1.1 6.3 1.1 12-5.5 12-5.5z" fill="#5c5db1"/>
  <path d="m89 17c-8.1 3.3-17 13-17 13-3.2 3-18 5.8-18 5.8v3c3.4-0.6 9.2-1.9 13-3.9 4.8-2.5 11-11 22-18z" fill="#15153f"/>
  <path d="m114 21s-20-12-41 12c0 0-15 5.3-19 6 0 0 0.8 9.2 1.9 12 0 0 0.5-0.9 2.1-1.2s4.4 0 8.8 2.8c0 0-3 2.9 0 4.4 1 0.5 14 7.5 16 6.5 0 0 0.9-6.6 0.7-8.9 0 0 9.4-14 14-16 0 0.1 16-2.9 16-19z" fill="#d1d9ed"/>
  <path d="m114 21s-20-12-41 12c0 0-15 5.3-19 6 0 0 0.8 9.2 1.9 12 0 0 0.5-0.9 2.1-1.2-0.7-3.1-1.1-7.1 1.1-8.1 3.8-1.8 17-2 22-8.2 5.1-6 8.8-14 32-13z" fill="#bfcae0"/>
  <path d="m73 447s1.2 0.5 3-1.7-0.6-106-0.6-106l-1.3 5.3s-8.9 57-9.1 58 8 44 8 44z" fill="#3f409e"/>
  <path d="m74 328c-0.7-37-1.7-69-3-69-0.4 0-1.8 0.4-4 1.1-15 4.8-56 16-56 16-3.8 10-1.3 154 2.8 158 4 3.8 45 19 45 19 0.6-0.9 1.2-1.6 1.8-2.2 3.9-3.7 9.1-3.1 12-4.8 1.1-0.6 1.8-1.5 1.8-3.1 0-0.4 0-1.7 0.1-3.6 0.1-14-0.2-67-1.1-112z" fill="#5c5db1"/>
  <path d="m67 261c-15 4.7-56 16-56 16-3.8 10-1.3 154 2.8 158 4 3.8 45 19 45 19 0.6-0.9 1.2-1.6 1.8-2.2-9.8-3.7-44-17-44-24-0.8-8.3 2-110 3.4-121 1.1-9.3 30-34 47-46z" fill="#3f409e"/>
  <path d="m46 312s-3-18-4.3-18-22 6.5-23 8.1-1.6 11-1.6 11 19-7.6 22-7.5c3.4 0.2 6.4 5.6 6.4 5.6z" fill="#15153f"/>
  <path d="m71 438c0.61 0 1.1 0.49 1.1 1.1s-0.49 1.1-1.1 1.1-1.1-0.49-1.1-1.1 0.49-1.1 1.1-1.1z" fill="#d1d9ed"/>
  <path d="m71 411c0.61 0 1.1 0.49 1.1 1.1s-0.49 1.1-1.1 1.1-1.1-0.49-1.1-1.1 0.49-1.1 1.1-1.1z" fill="#d1d9ed"/>
  <path d="m71 384c0.61 0 1.1 0.49 1.1 1.1s-0.49 1.1-1.1 1.1-1.1-0.49-1.1-1.1 0.49-1.1 1.1-1.1z" fill="#d1d9ed"/>
  <path d="m71 357c0.61 0 1.1 0.49 1.1 1.1s-0.49 1.1-1.1 1.1-1.1-0.49-1.1-1.1 0.49-1.1 1.1-1.1z" fill="#d1d9ed"/>
  <path d="m70 330c0.61 0 1.1 0.49 1.1 1.1s-0.49 1.1-1.1 1.1-1.1-0.49-1.1-1.1 0.49-1.1 1.1-1.1z" fill="#d1d9ed"/>
  <path d="m70 303c0.61 0 1.1 0.49 1.1 1.1s-0.49 1.1-1.1 1.1-1.1-0.49-1.1-1.1 0.49-1.1 1.1-1.1z" fill="#d1d9ed"/>
  <path d="m63 395c-6-12-29-37-35-42-0.2-0.1-0.3-0.2-0.5-0.3-0.5-0.3-1.5-1-2.9-1.8 0 0-9.8-2.7-17 1.5-3.8 2.2-6.9 6.3-7.5 14l0.1 0.3c0 0.2 0.1 0.5 0.1 0.7 1 6.6 2.7 17 4.4 28 0 0.2 0.1 0.4 0.1 0.6l0.2 1.1c0.1 0.4 0.1 0.8 0.2 1.1 2.4 16 4.7 30 4.7 30s2.2 6.4 6 5.1c0.4-0.1 0.8-0.3 1.4-0.5 0.5-0.2 1.1-0.4 1.8-0.6 5.9-2.1 16-6.6 18-12 0.5-3.1-0.8-13-2.4-24 4.7 5.4 12 13 15 18 0.6 0.6 1.1 1.2 1.5 1.7 1.4-0.1 2.8-0.5 3.6-1.4 0.5-0.6 1.3-2 2.2-4 0.9-1.9 1.8-4.3 2.7-6.6l-0.1-0.1c0.1 0 0.1-0.1 0.2-0.1 1.1-3.1 2.2-6.2 3-8.3z" fill="#d1d9ed"/>
  <path d="m63 395c-6-12-29-37-35-42-0.2-0.1-0.3-0.2-0.5-0.3-0.5-0.3-1.5-1-2.9-1.8 0 0-9.8-2.7-17 1.5-3.8 2.2-6.9 6.3-7.5 14l0.1 0.3c0 0.2 0.1 0.5 0.1 0.7 1 6.6 2.7 17 4.4 28 0 0.2 0.1 0.4 0.1 0.6l0.2 1.1c0.1 0.4 0.1 0.8 0.2 1.1 2.4 16 4.7 30 4.7 30s2.2 6.4 6 5.1c0.4-0.1 0.8-0.3 1.4-0.5-4.5-18-14-60-8-66 7.8-8 40 20 50 37 1.1-3.1 2.2-6.2 3-8.3z" fill="#bfcae0"/>
  <path d="m85 438c-1.2-6.2-12-15-14-18-0.8-1.1-3.8-5-7.1-9.3-1.6 2.2-3.3 4.5-4.9 6.5 1.6 3.2 2.7 6.4 2.8 8.7 0.3 5.5-1.8 10 1.8 16 2.7 4.1 4.1 10 5.1 13l3.3-11c-0.2-0.4-0.3-0.7-0.3-0.7 0.1 0.1 0.3 0.1 0.5 0.2 1.4 0.7 3.6 1.8 5.5 4.1 0.2 0.2 0.5 0.5 0.5 0.8 0 2.3-3.3 6.1-1.9 6.7 1.1 0.5 5.6 2.8 8.6-0.5-1.4-7.8 1-13 0.3-17z" fill="#fcd8cd"/>
  <path d="m71 444-3.3 11c0 0.1 0 0.1 0.1 0.2 0.2 0.6 0.4 1.1 0.6 1.4 0.1 0.2 0.2 0.3 0.3 0.3 0.2 0.1 0.5 0.1 0.9 0 0.3 0 0.6-0.1 0.9-0.2 0.5-0.1 0.9-0.3 1.3-0.4 0.6-0.2 1.1-0.4 1.4-0.5h0.1c1-3.2-1.4-9.5-2.3-12z" fill="#fcd8cd"/>
  <path d="m93 439c-0.6-1.8-12-12-14-13-1.2-0.8-8.9-10-14-17-1.8-2.2-3.3-4.2-4.3-5.4-0.7-0.9-1.2-1.5-1.2-1.5s-1.2 0.1-2.9 0.3h-0.2l0.1 0.1c-1.5 2.1-3 4.1-4.3 5.8 0.5 0.5 1 1.1 1.5 1.8 1.7 2.2 3.3 4.9 4.7 7.6 1.5-2 3.3-4.3 4.9-6.5 3.3 4.3 6.3 8.2 7.1 9.3 2 2.9 13 12 14 18 0.8 3.9-1.7 8.7-0.3 16 1.3-1.5 2.5-2.8 3-3.4 1.8-1.8 6.3-10 5.6-12z" fill="#fcd8cd"/>
  <path d="m93 439c-0.6-1.8-12-12-14-13-1.2-0.8-8.9-10-14-17-1.8-2.2-3.3-4.2-4.3-5.4-0.7-0.9-1.2-1.5-1.2-1.5s-1.2 0.1-2.9 0.3h-0.2l0.1 0.1c0.8 1 1.6 2.1 2.5 3.2 1.4 1.8 2.8 3.7 4.3 5.5 3.3 4.3 6.3 8.2 7.1 9.3 2 2.9 13 12 14 18 0.8 3.9-1.7 8.7-0.3 16 1.3-1.5 2.5-2.8 3-3.4 1.8-1.8 6.3-10 5.6-12z" fill="#f2c1b8"/>
  <path d="m62 398c0-1-0.1-2.2-0.4-3.7-1.2 1.8-3.1 4.6-5 7.3h-0.2l0.1 0.1c-1.5 2.1-3 4.1-4.3 5.8s-2.4 2.9-3.1 3.3c-1 0.7-2.5 0.7-3.9 0.5l0.8 1.6s3.8-1.2 7.6-3.6c0.1 0 0.1-0.1 0.2-0.1 1.8-1.1 3.6-2.5 5.1-4.2 0.1-0.1 0.2-0.2 0.3-0.4 0.1-0.1 0.1-0.2 0.2-0.3 0.4-0.5 0.8-1.1 1.1-1.6 0.9-1.3 1.5-2.9 1.5-4.7z" fill="#d1d9ed"/>
  <path d="m62 398c0-1-0.1-2.2-0.4-3.7-1.2 1.8-3.1 4.6-5 7.3h-0.2l0.1 0.1c-1.5 2.1-3 4.1-4.3 5.8s-2.4 2.9-3.1 3.3c-1 0.7-2.5 0.7-3.9 0.5l0.8 1.6s3.8-1.2 7.6-3.6c0.1 0 0.1-0.1 0.2-0.1 1.8-1.1 3.6-2.5 5.1-4.2 0.1-0.1 0.2-0.2 0.3-0.4 0.1-0.1 0.1-0.2 0.2-0.3 0.4-0.5 0.8-1.1 1.1-1.6 0.9-1.3 1.5-2.9 1.5-4.7z" fill="#333"/>
  <path d="m67 401c-0.3-1.8-5.2-10-5.2-10s-0.6 0.9-1.5 2.3c-1.2 1.8-3.1 4.6-5 7.3 0 0.1-0.1 0.1-0.1 0.2-1.5 2.1-3 4.1-4.3 5.8s-2.4 2.9-3.1 3.3c-1 0.7-2.5 0.7-3.9 0.5-2.3-0.3-4.5-1.4-4.5-1.4 0.2 0.2 13 13 14 12 0.3-0.3 2-2.3 4-5 1.5-2 3.3-4.3 4.9-6.5 0.6-0.8 1.1-1.6 1.7-2.3 2-3 3.5-5.3 3.4-5.9z" fill="#d1d9ed"/>
  <path d="m65 514s-1.3-4.1-5.2-5.4-7.9-0.8-9.3-2.5c-1.4-1.6 6.9 5.6 6.9 5.6z" fill="#f2c1b8"/>
  <path d="m65 516s0.7-3.8-1.6-4.6-11-0.8-15-6.7c0 0.1 3.3 9.2 17 11z" fill="#333"/>
  <path d="m71 500s5.4-8.4 4.4-8.9c-1-0.4-3.2 6.2-4.4 8.9z" fill="#fbddda"/>
  <path d="m55 499c2.7-1.9 8.5-2.5 9.8 1.7 0.2 0.8 0.3 1.7 0.2 2.8 0 0-3 3.7-9.7-0.4-2.3-1.3-1.8-2.9-0.3-4.1z" fill="#fff"/>
  <path d="m61 499c1 0 1.9 0.85 1.9 1.9 0 1-0.85 1.9-1.9 1.9-1 0-1.9-0.85-1.9-1.9 0-1 0.85-1.9 1.9-1.9z" fill="#333"/>
  <path d="m76 501c2.3-2.9 8.6 0 7.1 2.4-0.2 0.3-0.5 0.6-0.9 0.8-4.9 2.9-6.9 0-6.9 0-0.1-1.5 0.2-2.5 0.7-3.2z" fill="#fff"/>
  <path d="m79 501c0.83 0 1.5 0.67 1.5 1.5s-0.67 1.5-1.5 1.5-1.5-0.67-1.5-1.5 0.67-1.5 1.5-1.5z" fill="#333"/>
  <path d="m75 510s7.1-3.7 9.3-2.6c2.3 1.2-8.7 2.6-9.3 2.6z" fill="#f2c1b8"/>
  <path d="m73 513s-0.2-3 1.6-3.3 8.4 0.5 12-3.6c0-0.1-3.4 6.5-14 6.9z" fill="#333"/>
  <path d="m0 367c1.1 7.1 3.1 20 5 32z" fill="#333"/>
  <path d="m74 457-4.7-1.5-5.8 19 4.7 1.4z" fill="#777"/>
  <path d="m64 475 7.2-7-2.6 8.5c0.1 0-2.5-1.1-4.6-1.5z" fill="#000" opacity=".18"/>
  <path d="m75 482c7 8 6.2 20-1.7 27-7.9 6.9-20 6-27-2s-6.2-20 1.7-27c7.9-6.9 20-6 27 2z" fill="#f2f2f2" opacity=".51"/>
  <path d="m56 479c-3.2 1.5-6 3.7-8.4 6.3-2.3 2.6-4.3 5.7-5.1 9.1-0.3 1.4-0.5 2.8-0.4 4.3-0.9-4.8 0-9.8 3-14 4.5-6.5 12-9.4 20-7.8-3 0.1-6 1-8.7 2.2z" fill="#000" opacity=".18"/>
  <path d="m78 448c-0.1-0.3-0.3-0.5-0.5-0.8-1.9-2.3-4.2-3.4-5.5-4.1l-0.1 0.5-4.7 16c-0.1 0.2 0.1 0.5 0.3 0.5l1 0.3 4.7 1.5 0.3 0.1c0.2 0.1 0.5-0.1 0.5-0.3l0.8-2.6 0.7-2.8z" fill="#333"/>
  <path d="m67 475c-11-3.4-22 2.6-26 13-3.2 11 2.9 22 14 26s22-2.7 26-14-2.8-22-14-26zm-11 37c-9.9-3-15-14-12-23 3-9.8 13-15 23-12s15 14 12 23c-2.9 9.8-13 15-23 12z" fill="#333"/>
  <path d="m73 506c-1.6 2.3-4.1 4-6.7 4.8-2.3 0.7-5.1 0.7-7.2-0.7-0.3-0.2-0.3-0.8 0.2-0.8 2.1 0.2 4.2 0.2 6.3-0.5 2.3-0.8 4.1-2.4 5.8-4.1 0.8-0.8 2.3 0.3 1.6 1.3z" fill="#fff" opacity=".61"/>
  <path d="m48 480c-7.8 6.8-8.6 19-1.7 27s19 8.7 27 1.9 8.6-19 1.7-27c-6.8-7.8-19-8.7-27-1.9zm25 28c-7.7 6.7-19 5.9-26-1.9-6.8-7.7-6-20 1.6-26s19-5.9 26 1.9c6.8 7.8 6.1 20-1.6 26z" fill="#777"/>
 </g>
</svg>
