<svg xmlns="http://www.w3.org/2000/svg" viewBox="0 0 193.28 195.77"><defs><style>.cls-1{fill:#fff;}</style></defs><g id="Layer_2" data-name="Layer 2"><g id="Layer_1-2" data-name="Layer 1"><path class="cls-1" d="M91.94,70.68a1.51,1.51,0,0,0-2.56,1.06q.3,28.14,0,56.29c-.26.25-.54.5-.8.76a1.49,1.49,0,0,0,.89,2.52,1.53,1.53,0,0,0,2.89-.63c0-.45,0-.9,0-1.35q14.36-13.58,29.27-26.54a1.52,1.52,0,0,0,0-2.12Zm.47,4.74,25.93,26.23q-13.2,11.52-26,23.53Q92.63,100.3,92.41,75.42Z"/><path class="cls-1" d="M179.29,40.43a83.69,83.69,0,0,0-13-14.76,94.1,94.1,0,0,0-15.88-11.56A103.86,103.86,0,0,0,113.51,1.16,101.86,101.86,0,0,0,93.92.09,96.72,96.72,0,0,0,74.49,3,94,94,0,0,0,39.57,20.51,105.36,105.36,0,0,0,14.26,50.22,106.81,106.81,0,0,0,1.21,87,95,95,0,0,0,3,126a84.05,84.05,0,0,0,7.22,18.27A73.27,73.27,0,0,0,22,160.09a101.6,101.6,0,0,0,32.35,21.74,132.39,132.39,0,0,0,37.6,10,135.52,135.52,0,0,0,16.74.84l-.69.25,1,2.85q4.89-1.67,9.68-3.61a121.8,121.8,0,0,0,12.18-1.72l-.58-2.94c-.75.14-1.51.26-2.27.39a128.63,128.63,0,0,0,15.81-9.51,132.94,132.94,0,0,0,15-12.54A126.05,126.05,0,0,0,171.51,151,112.36,112.36,0,0,0,181.7,134.3,115.34,115.34,0,0,0,189,116.09a98.6,98.6,0,0,0,3.79-38.91A78.93,78.93,0,0,0,179.29,40.43Zm9.47,56A99.18,99.18,0,0,1,185.11,115a111.25,111.25,0,0,1-6.94,17.59,109.48,109.48,0,0,1-9.81,16.2,125,125,0,0,1-12.26,14.45,130.37,130.37,0,0,1-14.45,12.3,134,134,0,0,1-16.18,10c-2.61,1.35-5.28,2.58-8,3.74a129.59,129.59,0,0,1-61.84-10.41,98.23,98.23,0,0,1-31.18-21.12,70.89,70.89,0,0,1-11.11-15.09,80.7,80.7,0,0,1-6.89-17.52A91.17,91.17,0,0,1,4.8,87.55,102.92,102.92,0,0,1,17.45,52.06,101.72,101.72,0,0,1,41.9,23.43,90.27,90.27,0,0,1,75.43,6.67,92.51,92.51,0,0,1,94.08,3.91,98.26,98.26,0,0,1,112.93,5a100,100,0,0,1,35.46,12.51,90.33,90.33,0,0,1,15.22,11.11A80,80,0,0,1,176,42.68a75.07,75.07,0,0,1,12.72,34.93A90.37,90.37,0,0,1,188.76,96.43Z"/></g></g></svg>