<svg xmlns="http://www.w3.org/2000/svg" viewBox="0 0 184.24 188.33"><defs><style>.cls-1{fill:#fff;}</style></defs><g id="Layer_2" data-name="Layer 2"><g id="Layer_1-2" data-name="Layer 1"><path class="cls-1" d="M114.31,97a20.46,20.46,0,0,0-2.23-3.27l-3.4-3.81-6.87-7.67c-1.17-1.23-2.33-2.49-3.48-3.74S96,76,94.85,74.78c-2.33-2.46-4.66-4.91-7.11-7.33l-.16-.12a1.64,1.64,0,0,0-2.75.5,2.36,2.36,0,0,0-.36,1.56l.17,55a1.59,1.59,0,0,0,.85,1.52,1.91,1.91,0,0,0,.09,1.83.87.87,0,0,0,1.44.46c5.12-4.19,10-8.82,14.91-13.44l7.22-7c1.21-1.17,2.41-2.35,3.58-3.68a19.38,19.38,0,0,0,3-4.66,1.91,1.91,0,0,0-.49-2.22A1.2,1.2,0,0,0,114.31,97Zm-4.25,2.52c-.86.74-1.64,1.54-2.43,2.33-.39.4-.79.8-1.19,1.19-1.16,1.2-2.34,2.42-3.51,3.65l-3.52,3.65c-4.14,4.45-8.32,9-12.36,13.7l1.35-49q1.88,2.11,3.76,4.22c1.14,1.28,2.3,2.53,3.45,3.79s2.31,2.5,3.46,3.78c.78.82,1.55,1.65,2.32,2.48,1.55,1.66,3.09,3.33,4.68,4.9l3.55,3.67c.38.37.76.73,1.14,1.06Z"/><path class="cls-1" d="M123.54,4.52c-17.4-5.72-36.1-6-52.66-.85C39.37,13.56,24.15,39.74,16.81,52.35,9,65.83-4.19,88.38,1.31,116c5.17,25.94,25.84,47.65,58.21,61.14a103.72,103.72,0,0,0,49.3,7.62c3.92-.41,7-.73,9.35-1-1.85,1.26-3,1.93-3,2l1.44,2.63c.14-.08,3.32-2,8.21-5.63a23,23,0,0,0,6-2.33c1.49-.75,3.35-1.69,6.37-3L136,174.64c-.76.32-1.45.62-2.08.91,19.88-16.49,49.79-47.76,50.29-86.77.15-11.44-1.94-33.69-17.65-54.19A90,90,0,0,0,123.54,4.52Zm57.69,84.22c-.56,44.06-39.91,78.07-57.62,91.14-2.67.54-6.85,1-15.09,1.88a100.64,100.64,0,0,1-47.84-7.41c-31.42-13.09-51.46-34-56.43-58.95C-1,88.91,11.76,67,19.42,53.83c7.13-12.26,22-37.76,52.36-47.3A79.54,79.54,0,0,1,95.48,3,87.87,87.87,0,0,1,164.2,36.42C179.93,56.93,181.35,79.84,181.23,88.74Z"/></g></g></svg>