<svg xmlns="http://www.w3.org/2000/svg" viewBox="0 0 190.88 188.25"><defs><style>.cls-1{fill:#fff;}</style></defs><g id="Layer_2" data-name="Layer 2"><g id="Layer_1-2" data-name="Layer 1"><path class="cls-1" d="M90.46,71.41c-.86-1.07-2.53-.14-2.56,1.06q-.72,29.28-1.43,58.57a1.39,1.39,0,0,0,.26.89.18.18,0,0,1-.07,0c-1.51,1.21.63,3.32,2.13,2.12C99,126,106,114,117.63,107.59a1.52,1.52,0,0,0,.31-2.35Zm-1,58.14q.66-26.51,1.3-53l23.82,29.33C104.67,111.91,98,121.82,89.5,129.55Z"/><path class="cls-1" d="M190.86,91l0-2.4c0-.79-.1-1.59-.14-2.39a92.14,92.14,0,0,0-1.12-9.5,89.88,89.88,0,0,0-2.15-9.32A95.28,95.28,0,0,0,140.26,9.77a88.68,88.68,0,0,0-17.81-6.95A85.26,85.26,0,0,0,103.53.05,92.78,92.78,0,0,0,66.15,6.82,108.36,108.36,0,0,0,34,27,106.66,106.66,0,0,0,10.64,57a94,94,0,0,0-7,17.75,100.64,100.64,0,0,0,1,56.55A80.51,80.51,0,0,0,24.35,163.7c1.11,1.15,2.32,2.2,3.48,3.29l3.72,3c.63.49,1.22,1,1.88,1.49l2,1.35,2,1.36a20.32,20.32,0,0,0,2,1.29l4.16,2.38c.34.2.69.41,1,.59l1.08.51,2.17,1a92,92,0,0,0,8.87,3.61c1.52.48,3.06.91,4.59,1.36.77.21,1.53.47,2.3.65l2.35.5c1.56.3,3.11.71,4.69.93l4.74.64a90.33,90.33,0,0,0,19.1.08l2.38-.21c.79-.08,1.58-.24,2.36-.36l4.72-.78,4.65-1.11,2.33-.57,2.27-.73,4-1.3a97.7,97.7,0,0,0,33.06-14.39,22.09,22.09,0,0,0,1.94-1.39l1.9-1.46L156,164a20.64,20.64,0,0,0,1.85-1.51l3.55-3.2c.58-.55,1.21-1,1.75-1.63l1.64-1.74,3.28-3.48,3-3.74,1.5-1.86c.5-.62.91-1.31,1.37-2l2.67-4a20.16,20.16,0,0,0,1.24-2l1.17-2.09,1.18-2.08.58-1c.19-.35.34-.72.51-1.08a87.3,87.3,0,0,0,3.76-8.79l1.62-4.5,1.25-4.62.62-2.31c.21-.77.3-1.57.46-2.35l.85-4.71a18.72,18.72,0,0,0,.3-2.37l.22-2.38c.13-1.59.34-3.18.4-4.77S190.92,92.61,190.86,91Zm-3,4.66c-.06,1.54-.27,3.07-.39,4.61l-.21,2.3a16.27,16.27,0,0,1-.3,2.3l-.82,4.55c-.15.76-.24,1.53-.44,2.27l-.6,2.23-1.21,4.47-1.57,4.36a86,86,0,0,1-3.64,8.51c-.16.34-.31.7-.49,1l-.57,1-1.13,2-1.14,2a20.06,20.06,0,0,1-1.2,2l-2.59,3.83c-.44.63-.83,1.3-1.32,1.9l-1.45,1.81-2.89,3.61-3.18,3.37-1.59,1.69c-.53.56-1.13,1.05-1.7,1.57L156,160.24a21.23,21.23,0,0,1-1.8,1.46l-1.84,1.41-1.84,1.4a19,19,0,0,1-1.88,1.35,94.38,94.38,0,0,1-18.39,9.68l-.81-1.5-4.16,2.05-2.07,1L121,178l-4.27,1.73c-.68.15-1.36.33-2,.47l0,.18-2.42.78-2.2.71-2.25.54-4.51,1.09-4.57.75c-.76.11-1.52.27-2.29.35l-2.3.21a88.49,88.49,0,0,1-18.48-.08l-4.59-.61c-1.53-.22-3-.61-4.53-.91l-2.27-.48c-.75-.17-1.48-.42-2.22-.63l-4.44-1.3a89.74,89.74,0,0,1-8.56-3.49l-2.09-1L46,175.84c-.34-.18-.67-.38-1-.57L41,173A22.07,22.07,0,0,1,39,171.73l-1.9-1.31-1.91-1.31c-.64-.43-1.21-1-1.81-1.43l-3.59-2.91c-1.11-1.06-2.29-2.06-3.35-3.17A77.58,77.58,0,0,1,7.39,130.34a94.59,94.59,0,0,1-4.13-36.6A96.22,96.22,0,0,1,6.44,75.5a92.13,92.13,0,0,1,6.82-17.19A103.89,103.89,0,0,1,35.94,29.18a105.22,105.22,0,0,1,31.3-19.6A89.66,89.66,0,0,1,103.43,3a82.16,82.16,0,0,1,18.25,2.67,85.79,85.79,0,0,1,17.21,6.71,92.33,92.33,0,0,1,45.65,55.83,89.16,89.16,0,0,1,2.09,9,91.69,91.69,0,0,1,1.07,9.19c0,.77.11,1.54.13,2.31l0,2.31C187.94,92.59,187.84,94.13,187.82,95.68Z"/></g></g></svg>