<svg width="270" height="223" viewBox="0 0 270 223" fill="none" xmlns="http://www.w3.org/2000/svg">
<g opacity="0.1">
<path d="M202.88 49.1239C203.976 47.1608 206.457 46.4584 208.42 47.555C210.383 48.6517 211.086 51.1322 209.989 53.0953C208.892 55.0585 206.412 55.7609 204.449 54.6642C202.486 53.5675 201.783 51.0871 202.88 49.1239Z" fill="#525375"/>
<path d="M259.635 67.8984C258.689 67.7097 257.77 68.3231 257.581 69.2686C257.393 70.2141 258.006 71.1336 258.952 71.3223C259.897 71.511 260.816 70.8975 261.005 69.952C261.194 69.0066 260.58 68.0871 259.635 67.8984Z" fill="#525375"/>
<path d="M259.395 84.6135C259.584 83.668 260.503 83.0546 261.449 83.2433C262.394 83.432 263.008 84.3515 262.819 85.2969C262.793 85.428 262.753 85.5528 262.7 85.6699C262.823 85.6534 262.95 85.6566 263.078 85.6821C263.699 85.8061 264.103 86.4104 263.979 87.0318C263.854 87.6532 263.25 88.0563 262.629 87.9323C262.009 87.8086 261.606 87.207 261.727 86.5873C261.431 86.7003 261.1 86.7339 260.765 86.6672C260.407 86.5956 260.096 86.4189 259.859 86.1755C259.756 86.2157 259.639 86.2278 259.522 86.2043C259.202 86.1405 258.993 85.8379 259.055 85.5284C259.091 85.3474 259.212 85.2041 259.37 85.1291C259.353 84.9611 259.36 84.7877 259.395 84.6135Z" fill="#525375"/>
<path d="M238.244 85.5583C238.433 84.6128 239.352 83.9993 240.298 84.188C241.243 84.3767 241.857 85.2962 241.668 86.2417C241.479 87.1872 240.56 87.8006 239.614 87.6119C238.669 87.4232 238.055 86.5037 238.244 85.5583Z" fill="#525375"/>
<path d="M233.204 94.3023C233.152 94.5647 233.014 94.7882 232.825 94.9495C233.729 95.17 234.306 96.0661 234.122 96.9869C233.933 97.9324 233.014 98.5459 232.069 98.3572C231.123 98.1684 230.51 97.249 230.698 96.3035C230.804 95.7745 231.138 95.3494 231.578 95.1106C231.119 94.8883 230.849 94.3767 230.953 93.853C231.077 93.2313 231.682 92.828 232.303 92.9521C232.925 93.0762 233.328 93.6807 233.204 94.3023Z" fill="#525375"/>
<path d="M249.935 114.254C250.123 113.308 251.043 112.695 251.988 112.883C252.934 113.072 253.547 113.992 253.359 114.937C253.17 115.883 252.25 116.496 251.305 116.307C250.359 116.119 249.746 115.199 249.935 114.254Z" fill="#525375"/>
<path d="M258.148 99.191C257.203 99.0023 256.283 99.6157 256.095 100.561C255.906 101.507 256.519 102.426 257.465 102.615C258.41 102.804 259.33 102.19 259.518 101.245C259.707 100.299 259.094 99.3797 258.148 99.191Z" fill="#525375"/>
<path d="M193.384 126.037C192.439 125.848 191.519 126.461 191.33 127.407C191.142 128.352 191.755 129.272 192.701 129.46C193.646 129.649 194.566 129.036 194.754 128.09C194.943 127.145 194.33 126.225 193.384 126.037Z" fill="#525375"/>
<path d="M185.951 138.933C186.14 137.988 187.059 137.374 188.005 137.563C188.95 137.751 189.564 138.671 189.375 139.616C189.186 140.562 188.267 141.175 187.321 140.987C186.376 140.798 185.762 139.878 185.951 138.933Z" fill="#525375"/>
<path d="M166.337 129.752C165.392 129.563 164.472 130.177 164.284 131.122C164.095 132.068 164.708 132.987 165.654 133.176C166.599 133.365 167.519 132.751 167.708 131.806C167.896 130.86 167.283 129.941 166.337 129.752Z" fill="#525375"/>
<path d="M212.142 110.425C212.331 109.48 213.25 108.866 214.196 109.055C215.141 109.244 215.754 110.163 215.566 111.109C215.559 111.14 215.552 111.171 215.545 111.202C215.675 111.03 215.901 110.938 216.133 110.984C216.452 111.048 216.661 111.351 216.6 111.66C216.538 111.97 216.229 112.169 215.909 112.105C215.619 112.047 215.42 111.793 215.432 111.515C215.273 111.85 215.013 112.121 214.698 112.295C214.816 112.596 214.852 112.934 214.784 113.275C214.596 114.22 213.676 114.834 212.731 114.645C211.785 114.456 211.172 113.537 211.361 112.592C211.465 112.067 211.795 111.645 212.229 111.405C212.11 111.104 212.074 110.766 212.142 110.425Z" fill="#525375"/>
<path d="M222.081 114.347C221.136 114.158 220.217 114.771 220.028 115.717C219.839 116.662 220.453 117.582 221.398 117.77C222.344 117.959 223.263 117.346 223.452 116.4C223.64 115.455 223.027 114.535 222.081 114.347Z" fill="#525375"/>
<path d="M223.492 123.086C223.681 122.14 224.6 121.527 225.546 121.715C226.491 121.904 227.105 122.823 226.916 123.769C226.727 124.714 225.808 125.328 224.863 125.139C224.713 125.109 224.573 125.061 224.442 124.998C224.465 125.134 224.465 125.275 224.436 125.418C224.312 126.04 223.707 126.443 223.086 126.319C222.464 126.195 222.061 125.591 222.185 124.969C222.309 124.347 222.914 123.944 223.535 124.068C223.552 124.071 223.568 124.075 223.585 124.079C223.462 123.774 223.423 123.432 223.492 123.086Z" fill="#525375"/>
<path d="M205.465 115.364C205.654 114.418 206.573 113.805 207.519 113.994C208.464 114.182 209.078 115.102 208.889 116.047C208.7 116.993 207.781 117.606 206.835 117.417C205.89 117.229 205.276 116.309 205.465 115.364Z" fill="#525375"/>
<path d="M225.23 111.47C225.419 110.525 226.338 109.911 227.284 110.1C228.229 110.289 228.843 111.208 228.654 112.154C228.465 113.099 227.546 113.713 226.6 113.524C225.655 113.335 225.042 112.416 225.23 111.47Z" fill="#525375"/>
<path d="M263.024 48.3101C262.078 48.1214 261.159 48.7349 260.97 49.6803C260.781 50.6258 261.395 51.5453 262.34 51.734C263.286 51.9227 264.205 51.3092 264.394 50.3638C264.583 49.4183 263.969 48.4988 263.024 48.3101Z" fill="#525375"/>
<path d="M251.523 64.5767C251.67 63.8397 252.387 63.3615 253.124 63.5086C253.861 63.6557 254.339 64.3725 254.192 65.1095C254.045 65.8465 253.328 66.3248 252.591 66.1777C251.854 66.0305 251.376 65.3138 251.523 64.5767Z" fill="#525375"/>
<path d="M247.425 78.6166C247.334 79.0744 246.982 79.4137 246.554 79.5111C246.4 80.2383 245.688 80.7079 244.957 80.5619C244.22 80.4148 243.742 79.698 243.889 78.961C244.022 78.2944 244.621 77.8395 245.279 77.8675C245.508 77.4229 246.01 77.1642 246.525 77.2669C247.146 77.3909 247.549 77.9952 247.425 78.6166Z" fill="#525375"/>
<path d="M249.292 87.4131C249.361 87.4268 249.429 87.4284 249.494 87.4194C249.511 88.0396 249.954 88.5881 250.588 88.7147C251.325 88.8618 252.042 88.3836 252.189 87.6465C252.336 86.9095 251.858 86.1927 251.121 86.0456C250.631 85.9479 250.151 86.126 249.84 86.4726C249.757 86.3834 249.646 86.3181 249.516 86.2922C249.196 86.2284 248.887 86.4276 248.825 86.7371C248.764 87.0467 248.973 87.3493 249.292 87.4131Z" fill="#525375"/>
<path d="M200.832 116.883C200.095 116.736 199.378 117.214 199.231 117.951C199.084 118.689 199.562 119.405 200.299 119.552C201.036 119.7 201.753 119.221 201.9 118.484C202.047 117.747 201.569 117.03 200.832 116.883Z" fill="#525375"/>
<path d="M250.039 80.1478C250.318 78.7517 251.675 77.8459 253.072 78.1245C254.468 78.4032 255.373 79.7609 255.095 81.157C254.816 82.553 253.458 83.4589 252.062 83.1802C250.666 82.9016 249.76 81.5439 250.039 80.1478Z" fill="#525375"/>
<path d="M190.191 137.144C190.624 134.977 192.732 133.571 194.899 134.003C197.067 134.436 198.473 136.544 198.041 138.711C197.973 139.051 197.864 139.372 197.72 139.67C198.015 139.448 198.4 139.348 198.79 139.426C199.517 139.571 199.989 140.278 199.844 141.005C199.699 141.732 198.992 142.204 198.265 142.059C197.538 141.914 197.066 141.206 197.211 140.479L197.215 140.462C196.308 141.569 194.834 142.152 193.333 141.852C191.165 141.42 189.759 139.312 190.191 137.144Z" fill="#525375"/>
<path d="M241.703 120.044C240.076 119.719 238.493 120.752 238.128 122.36C237.829 122.515 237.6 122.8 237.529 123.156C237.405 123.777 237.808 124.381 238.428 124.506C238.836 125.247 239.547 125.816 240.432 126.015C240.562 126.385 240.878 126.678 241.29 126.76C241.911 126.884 242.516 126.48 242.64 125.859C242.653 125.794 242.66 125.728 242.662 125.664C243.381 125.238 243.923 124.52 244.099 123.635C244.212 123.071 244.161 122.513 243.98 122.008C243.99 121.995 244 121.982 244.009 121.969C245.432 122.231 246.806 121.303 247.09 119.88C247.377 118.443 246.445 117.046 245.008 116.76C243.572 116.473 242.175 117.405 241.888 118.841C241.802 119.275 241.826 119.705 241.942 120.102C241.894 120.088 241.846 120.076 241.797 120.064L241.758 120.056C241.74 120.052 241.721 120.048 241.703 120.044Z" fill="#525375"/>
<path d="M250.837 93.4751C251.103 93.5282 251.366 93.4847 251.589 93.3689C251.591 93.4353 251.596 93.5012 251.604 93.5664C251.403 93.5665 251.205 93.5895 251.014 93.6335C250.872 93.5153 250.699 93.4298 250.505 93.3911C249.884 93.2671 249.28 93.6703 249.156 94.2917C249.105 94.5446 249.142 94.7947 249.245 95.0107C249.137 95.2234 249.055 95.4543 249.006 95.7C248.719 97.1364 249.651 98.5332 251.088 98.82C252.524 99.1067 253.921 98.1747 254.208 96.7382C254.3 96.278 254.266 95.8217 254.132 95.4048C254.955 95.2438 255.641 94.6018 255.816 93.7276C256.046 92.5719 255.296 91.448 254.141 91.2174C253.366 91.0627 252.605 91.3488 252.119 91.9025C251.975 91.5651 251.673 91.3021 251.287 91.2249C250.665 91.1009 250.061 91.5041 249.937 92.1254C249.813 92.7468 250.216 93.3511 250.837 93.4751Z" fill="#525375"/>
<path d="M242.189 114.56C241.856 115.934 240.493 116.813 239.093 116.533C237.979 116.311 237.169 115.421 236.995 114.362C236.768 114.81 236.263 115.071 235.746 114.968C235.125 114.844 234.721 114.239 234.846 113.618C234.97 112.996 235.574 112.593 236.196 112.717C236.575 112.793 236.873 113.047 237.019 113.375C237.133 112.845 237.398 112.386 237.76 112.034C237.28 111.821 236.994 111.297 237.101 110.76C237.225 110.138 237.829 109.735 238.451 109.859C239.073 109.983 239.476 110.587 239.352 111.209C239.346 111.238 239.339 111.266 239.332 111.294C239.592 111.267 239.861 111.277 240.132 111.331C240.21 111.347 240.287 111.366 240.363 111.388C240.801 110.599 241.713 110.147 242.645 110.333C243.801 110.564 244.551 111.688 244.32 112.843C244.115 113.872 243.202 114.579 242.189 114.56Z" fill="#525375"/>
<path d="M172.952 118.395C173.183 117.24 174.307 116.49 175.463 116.721C176.618 116.951 177.368 118.075 177.138 119.231C176.907 120.387 175.783 121.136 174.627 120.906C173.472 120.675 172.722 119.551 172.952 118.395Z" fill="#525375"/>
<path d="M255.837 56.1053C255.216 55.9813 254.813 55.377 254.937 54.7557C255.061 54.1343 255.665 53.7311 256.286 53.8551C256.908 53.9792 257.311 54.5834 257.187 55.2048C257.063 55.8262 256.458 56.2294 255.837 56.1053Z" fill="#525375"/>
<path d="M263.917 68.6802C263.682 68.4201 263.569 68.0562 263.643 67.6862C263.767 67.0648 264.371 66.6617 264.993 66.7857C265.614 66.9097 266.017 67.514 265.893 68.1354C265.8 68.6021 265.436 68.9458 264.997 69.0353C264.996 69.0628 264.992 69.0905 264.987 69.1183C264.925 69.4278 264.616 69.627 264.296 69.5632C263.976 69.4994 263.767 69.1968 263.829 68.8872C263.844 68.8107 263.875 68.7409 263.917 68.6802Z" fill="#525375"/>
<path d="M254.239 43.2861C253.618 43.1621 253.215 42.5578 253.339 41.9364C253.463 41.3151 254.067 40.9119 254.688 41.0359C255.31 41.1599 255.713 41.7642 255.589 42.3856C255.465 43.007 254.86 43.4101 254.239 43.2861Z" fill="#525375"/>
<path d="M260.43 79.9933C260.306 80.6147 260.71 81.2189 261.331 81.343C261.952 81.467 262.557 81.0638 262.681 80.4425C262.805 79.8211 262.402 79.2168 261.78 79.0928C261.159 78.9687 260.555 79.3719 260.43 79.9933Z" fill="#525375"/>
<path d="M266.534 77.0996C265.912 76.9756 265.509 76.3713 265.633 75.7499C265.757 75.1285 266.362 74.7254 266.983 74.8494C267.604 74.9734 268.008 75.5777 267.884 76.1991C267.759 76.8204 267.155 77.2236 266.534 77.0996Z" fill="#525375"/>
<path d="M240.79 97.3997C240.665 98.0213 241.069 98.6258 241.69 98.7499C242.312 98.874 242.917 98.4706 243.041 97.849C243.165 97.2274 242.761 96.6229 242.14 96.4988C241.518 96.3748 240.914 96.7781 240.79 97.3997Z" fill="#525375"/>
<path d="M252.048 103.706C251.426 103.582 251.023 102.977 251.147 102.356C251.271 101.734 251.875 101.331 252.497 101.455C253.119 101.579 253.522 102.183 253.398 102.805C253.274 103.427 252.669 103.83 252.048 103.706Z" fill="#525375"/>
<path d="M254.183 97.3297C254.058 97.9513 254.462 98.5558 255.083 98.6799C255.705 98.804 256.31 98.4007 256.434 97.779C256.558 97.1574 256.154 96.5529 255.533 96.4289C254.911 96.3048 254.307 96.7081 254.183 97.3297Z" fill="#525375"/>
<path d="M258.901 91.4862C258.279 91.3621 257.876 90.7576 258 90.136C258.124 89.5144 258.728 89.1111 259.35 89.2351C259.971 89.3592 260.375 89.9637 260.251 90.5853C260.127 91.2069 259.522 91.6103 258.901 91.4862Z" fill="#525375"/>
<path d="M256.009 82.0739C255.885 82.6955 256.288 83.3 256.91 83.4241C257.532 83.5482 258.136 83.1448 258.26 82.5232C258.384 81.9016 257.981 81.2971 257.359 81.173C256.738 81.049 256.133 81.4523 256.009 82.0739Z" fill="#525375"/>
<path d="M246.902 104.464C246.196 104.323 245.737 103.636 245.878 102.929C246.019 102.222 246.706 101.763 247.413 101.904C248.12 102.045 248.579 102.733 248.438 103.44C248.297 104.146 247.609 104.605 246.902 104.464Z" fill="#525375"/>
<path d="M240.344 105.608C239.723 105.484 239.32 104.879 239.444 104.258C239.568 103.636 240.172 103.233 240.794 103.357C241.415 103.481 241.819 104.086 241.695 104.707C241.571 105.329 240.966 105.732 240.344 105.608Z" fill="#525375"/>
<path d="M247.241 113.19C247.117 113.812 247.521 114.416 248.142 114.54C248.764 114.664 249.368 114.261 249.492 113.639C249.564 113.28 249.46 112.926 249.238 112.668C249.29 112.564 249.328 112.452 249.352 112.334C249.497 111.606 249.025 110.899 248.298 110.754C247.571 110.609 246.864 111.081 246.719 111.808C246.613 112.339 246.837 112.86 247.248 113.158L247.241 113.19Z" fill="#525375"/>
<path d="M247.153 116.831C247.029 117.452 247.433 118.057 248.054 118.181C248.676 118.305 249.28 117.901 249.405 117.28C249.529 116.658 249.125 116.054 248.504 115.93C247.882 115.806 247.278 116.209 247.153 116.831Z" fill="#525375"/>
<path d="M217.688 100.088C217.563 100.709 217.967 101.314 218.588 101.438C219.21 101.562 219.815 101.159 219.939 100.537C220.063 99.9153 219.659 99.3108 219.038 99.1867C218.416 99.0627 217.812 99.466 217.688 100.088Z" fill="#525375"/>
<path d="M208.448 99.0076C207.826 98.8835 207.423 98.279 207.547 97.6574C207.671 97.0358 208.275 96.6324 208.897 96.7565C209.518 96.8806 209.922 97.4851 209.798 98.1067C209.674 98.7283 209.069 99.1316 208.448 99.0076Z" fill="#525375"/>
<path d="M220.951 111.663C220.889 111.973 221.098 112.275 221.418 112.339C221.738 112.403 222.047 112.204 222.109 111.894C222.17 111.585 221.961 111.282 221.642 111.218C221.322 111.154 221.013 111.354 220.951 111.663Z" fill="#525375"/>
<path d="M224.488 118.87C224.168 118.806 223.959 118.503 224.021 118.194C224.083 117.884 224.392 117.685 224.712 117.749C225.031 117.812 225.24 118.115 225.179 118.425C225.117 118.734 224.808 118.933 224.488 118.87Z" fill="#525375"/>
<path d="M229.224 113.95C229.162 114.26 229.371 114.562 229.691 114.626C230.011 114.69 230.32 114.491 230.382 114.181C230.443 113.872 230.234 113.569 229.915 113.505C229.595 113.441 229.286 113.641 229.224 113.95Z" fill="#525375"/>
<path d="M232.727 109.599C232.407 109.535 232.198 109.232 232.26 108.923C232.322 108.613 232.631 108.414 232.95 108.478C233.27 108.542 233.479 108.844 233.417 109.154C233.356 109.463 233.046 109.662 232.727 109.599Z" fill="#525375"/>
<path d="M218.818 122.44C218.756 122.75 218.965 123.052 219.285 123.116C219.604 123.18 219.914 122.981 219.975 122.671C220.037 122.362 219.828 122.059 219.509 121.995C219.189 121.931 218.88 122.131 218.818 122.44Z" fill="#525375"/>
<path d="M223.442 131.959C223.122 131.895 222.913 131.593 222.975 131.283C223.037 130.974 223.346 130.774 223.666 130.838C223.985 130.902 224.194 131.205 224.133 131.514C224.071 131.824 223.762 132.023 223.442 131.959Z" fill="#525375"/>
<path d="M223.756 129.117C223.694 129.426 223.903 129.729 224.223 129.793C224.542 129.857 224.852 129.657 224.913 129.348C224.975 129.038 224.766 128.736 224.447 128.672C224.127 128.608 223.818 128.807 223.756 129.117Z" fill="#525375"/>
<path d="M233.381 122.793C233.319 123.103 233.528 123.405 233.848 123.469C234.167 123.533 234.476 123.334 234.538 123.024C234.6 122.715 234.391 122.412 234.071 122.348C233.752 122.284 233.442 122.484 233.381 122.793Z" fill="#525375"/>
<path d="M246.596 108.477C246.277 108.414 246.068 108.111 246.13 107.801C246.191 107.492 246.501 107.293 246.82 107.356C247.14 107.42 247.349 107.723 247.287 108.032C247.225 108.342 246.916 108.541 246.596 108.477Z" fill="#525375"/>
<path d="M207.229 139.581C206.909 139.517 206.7 139.214 206.762 138.905C206.824 138.595 207.133 138.396 207.453 138.46C207.772 138.524 207.981 138.826 207.92 139.136C207.858 139.445 207.549 139.644 207.229 139.581Z" fill="#525375"/>
<path d="M216.066 124.372C216.141 124.435 216.233 124.481 216.337 124.501C216.4 124.514 216.463 124.516 216.523 124.51C216.548 125.114 216.982 125.645 217.602 125.769C218.329 125.914 219.036 125.442 219.181 124.715C219.326 123.988 218.854 123.281 218.127 123.136C217.649 123.041 217.179 123.212 216.873 123.548C216.791 123.465 216.684 123.405 216.561 123.38C216.516 123.371 216.471 123.368 216.427 123.369C216.628 121.983 215.71 120.666 214.321 120.389C212.884 120.102 211.487 121.034 211.201 122.471C211.096 122.994 211.153 123.512 211.338 123.973C211.06 123.968 210.811 124.156 210.756 124.43C210.752 124.448 210.749 124.467 210.748 124.486C210.281 124.554 209.887 124.908 209.789 125.397C209.665 126.018 210.068 126.623 210.69 126.747C211.312 126.871 211.916 126.468 212.04 125.846C212.11 125.497 212.013 125.153 211.805 124.896C211.828 124.867 211.848 124.836 211.865 124.802C212.23 125.193 212.717 125.478 213.282 125.591C214.405 125.815 215.503 125.295 216.066 124.372Z" fill="#525375"/>
<path d="M206.422 122.868C206.36 123.177 206.569 123.48 206.889 123.544C207.209 123.608 207.518 123.409 207.58 123.099C207.641 122.789 207.432 122.487 207.113 122.423C206.793 122.359 206.484 122.558 206.422 122.868Z" fill="#525375"/>
<path d="M187.728 132.551C187.409 132.487 187.2 132.184 187.261 131.875C187.323 131.565 187.632 131.366 187.952 131.43C188.272 131.494 188.481 131.796 188.419 132.106C188.357 132.415 188.048 132.615 187.728 132.551Z" fill="#525375"/>
<path d="M153.838 118.64C153.752 119.072 154.044 119.494 154.49 119.583C154.935 119.672 155.366 119.394 155.453 118.962C155.539 118.531 155.247 118.108 154.802 118.02C154.356 117.931 153.925 118.208 153.838 118.64Z" fill="#525375"/>
<path d="M156.631 127.69C156.349 127.518 156.189 127.189 156.256 126.855C156.338 126.44 156.74 126.167 157.166 126.226C157.389 126.111 157.65 126.069 157.915 126.121C158.536 126.246 158.94 126.85 158.815 127.472C158.691 128.093 158.087 128.497 157.465 128.372C157.077 128.295 156.774 128.03 156.631 127.69Z" fill="#525375"/>
<path d="M235.851 100.932C235.531 100.868 235.322 100.566 235.384 100.256C235.446 99.9466 235.755 99.7474 236.075 99.8112C236.394 99.875 236.603 100.178 236.541 100.487C236.48 100.797 236.17 100.996 235.851 100.932Z" fill="#525375"/>
<path d="M232.701 90.7197C232.639 91.0292 232.848 91.3318 233.168 91.3957C233.487 91.4594 233.796 91.2602 233.858 90.9507C233.92 90.6412 233.711 90.3385 233.391 90.2747C233.072 90.2109 232.763 90.4101 232.701 90.7197Z" fill="#525375"/>
<path d="M242.616 92.3531C242.296 92.2893 242.087 91.9867 242.149 91.6771C242.211 91.3676 242.52 91.1684 242.84 91.2322C243.159 91.296 243.368 91.5986 243.306 91.9082C243.245 92.2177 242.936 92.4169 242.616 92.3531Z" fill="#525375"/>
<path d="M244.178 88.0191C243.858 87.9553 243.649 87.6526 243.711 87.3431C243.773 87.0335 244.082 86.8343 244.402 86.8981C244.721 86.9619 244.931 87.2646 244.869 87.5741C244.807 87.8837 244.498 88.0829 244.178 88.0191Z" fill="#525375"/>
<path d="M247.704 72.8682C247.642 73.1777 247.851 73.4804 248.171 73.5442C248.491 73.608 248.8 73.4088 248.862 73.0992C248.923 72.7897 248.714 72.487 248.395 72.4232C248.075 72.3594 247.766 72.5586 247.704 72.8682Z" fill="#525375"/>
<path d="M264.901 74.6782C264.581 74.6144 264.372 74.3117 264.434 74.0022C264.496 73.6926 264.805 73.4934 265.125 73.5572C265.444 73.621 265.653 73.9237 265.591 74.2332C265.53 74.5428 265.22 74.742 264.901 74.6782Z" fill="#525375"/>
<path d="M257.845 75.2984C257.784 75.608 257.993 75.9106 258.312 75.9744C258.632 76.0382 258.941 75.839 259.003 75.5295C259.065 75.2199 258.856 74.9173 258.536 74.8535C258.216 74.7897 257.907 74.9889 257.845 75.2984Z" fill="#525375"/>
<path d="M229.704 84.0254C229.384 83.9616 229.175 83.6589 229.237 83.3494C229.299 83.0399 229.608 82.8407 229.927 82.9044C230.247 82.9683 230.456 83.2709 230.394 83.5804C230.332 83.89 230.023 84.0892 229.704 84.0254Z" fill="#525375"/>
<path d="M148.812 115.604C148.726 116.035 149.018 116.458 149.463 116.546C149.909 116.635 150.34 116.358 150.426 115.926C150.513 115.494 150.221 115.072 149.775 114.983C149.33 114.894 148.898 115.172 148.812 115.604Z" fill="#525375"/>
<path d="M164.586 125.433C164.267 125.37 164.058 125.067 164.12 124.757C164.181 124.448 164.491 124.249 164.81 124.312C165.13 124.376 165.339 124.679 165.277 124.988C165.215 125.298 164.906 125.497 164.586 125.433Z" fill="#525375"/>
<path d="M159.698 126.836C159.636 127.146 159.845 127.448 160.165 127.512C160.485 127.576 160.794 127.377 160.855 127.067C160.917 126.758 160.708 126.455 160.389 126.391C160.069 126.327 159.76 126.527 159.698 126.836Z" fill="#525375"/>
<path d="M174.551 135.146C174.231 135.083 174.022 134.78 174.084 134.47C174.146 134.161 174.455 133.962 174.775 134.025C175.095 134.089 175.304 134.392 175.242 134.701C175.18 135.011 174.871 135.21 174.551 135.146Z" fill="#525375"/>
<path d="M176.944 136.726C176.882 137.035 177.091 137.338 177.411 137.402C177.73 137.466 178.04 137.266 178.101 136.957C178.163 136.647 177.954 136.345 177.635 136.281C177.315 136.217 177.006 136.416 176.944 136.726Z" fill="#525375"/>
<path d="M145.955 112.597C145.635 112.533 145.426 112.23 145.488 111.921C145.55 111.611 145.859 111.412 146.179 111.476C146.498 111.54 146.707 111.842 146.645 112.152C146.584 112.461 146.274 112.66 145.955 112.597Z" fill="#525375"/>
<path d="M191.859 122.515C191.798 122.824 192.007 123.127 192.326 123.191C192.646 123.255 192.955 123.055 193.017 122.746C193.079 122.436 192.87 122.134 192.55 122.07C192.23 122.006 191.921 122.205 191.859 122.515Z" fill="#525375"/>
<path d="M177.675 126.478C177.356 126.415 177.147 126.112 177.208 125.802C177.27 125.493 177.579 125.294 177.899 125.357C178.219 125.421 178.428 125.724 178.366 126.033C178.304 126.343 177.995 126.542 177.675 126.478Z" fill="#525375"/>
<path d="M214.22 131.8C214.158 132.11 214.368 132.412 214.687 132.476C215.007 132.54 215.316 132.341 215.378 132.031C215.44 131.722 215.231 131.419 214.911 131.355C214.591 131.291 214.282 131.49 214.22 131.8Z" fill="#525375"/>
<path d="M239.828 96.854C239.207 96.73 238.803 96.1255 238.928 95.5039C239.052 94.8823 239.656 94.4789 240.278 94.603C240.899 94.7271 241.303 95.3316 241.179 95.9532C241.054 96.5748 240.45 96.9781 239.828 96.854Z" fill="#525375"/>
<path d="M224.616 114.828C224.492 115.45 224.895 116.054 225.517 116.178C226.139 116.302 226.743 115.899 226.867 115.277C226.991 114.656 226.588 114.051 225.966 113.927C225.345 113.803 224.74 114.207 224.616 114.828Z" fill="#525375"/>
<path d="M234.001 118.835C234.232 117.677 233.672 116.546 232.694 116C232.734 115.432 232.347 114.91 231.774 114.796C231.152 114.672 230.548 115.075 230.424 115.697C230.413 115.75 230.406 115.804 230.403 115.858C229.605 116.182 228.98 116.889 228.799 117.796C228.512 119.233 229.444 120.63 230.881 120.916C232.317 121.203 233.714 120.271 234.001 118.835Z" fill="#525375"/>
<path d="M236.351 120.083C235.729 119.959 235.326 119.354 235.45 118.733C235.574 118.111 236.179 117.708 236.8 117.832C237.422 117.956 237.825 118.56 237.701 119.182C237.577 119.804 236.972 120.207 236.351 120.083Z" fill="#525375"/>
<path d="M236.263 123.724C235.641 123.599 235.238 122.995 235.362 122.373C235.486 121.752 236.091 121.348 236.712 121.472C237.334 121.597 237.737 122.201 237.613 122.823C237.489 123.444 236.885 123.848 236.263 123.724Z" fill="#525375"/>
<path d="M201.122 122.273C200.998 122.895 201.401 123.499 202.023 123.623C202.644 123.747 203.249 123.344 203.373 122.722C203.497 122.101 203.094 121.496 202.472 121.372C201.851 121.248 201.246 121.652 201.122 122.273Z" fill="#525375"/>
<path d="M182.774 136.271C182.152 136.147 181.749 135.542 181.873 134.921C181.997 134.299 182.601 133.896 183.223 134.02C183.845 134.144 184.248 134.748 184.124 135.37C184 135.992 183.395 136.395 182.774 136.271Z" fill="#525375"/>
<path d="M203.837 138.967C203.215 138.843 202.812 138.238 202.936 137.616C203.06 136.995 203.664 136.592 204.286 136.716C204.908 136.84 205.311 137.444 205.187 138.066C205.184 138.078 205.182 138.091 205.179 138.103C205.245 138.106 205.312 138.115 205.379 138.128C206.106 138.273 206.577 138.98 206.432 139.707C206.287 140.434 205.58 140.906 204.853 140.761C204.126 140.616 203.654 139.909 203.8 139.182C203.814 139.109 203.834 139.038 203.86 138.971L203.837 138.967Z" fill="#525375"/>
<path d="M201.582 141.826C200.96 141.702 200.557 141.098 200.681 140.476C200.805 139.855 201.41 139.451 202.031 139.575C202.653 139.699 203.056 140.304 202.932 140.925C202.808 141.547 202.203 141.95 201.582 141.826Z" fill="#525375"/>
<path d="M178.459 131.266C178.318 131.974 178.777 132.661 179.484 132.802C180.191 132.944 180.879 132.485 181.02 131.778C181.161 131.07 180.702 130.383 179.995 130.242C179.288 130.101 178.6 130.559 178.459 131.266Z" fill="#525375"/>
<path d="M184.762 130C183.325 129.713 182.393 128.316 182.68 126.88C182.967 125.443 184.363 124.511 185.8 124.798C187.236 125.085 188.168 126.481 187.882 127.918C187.595 129.354 186.198 130.286 184.762 130Z" fill="#525375"/>
<path d="M207.211 135.643C205.774 135.356 204.842 133.959 205.129 132.523C205.189 132.224 205.296 131.946 205.443 131.697C205.416 131.539 205.416 131.374 205.45 131.207C205.595 130.48 206.302 130.008 207.029 130.153C207.231 130.194 207.414 130.278 207.569 130.394C207.792 130.38 208.02 130.395 208.249 130.441C209.685 130.728 210.617 132.124 210.331 133.561C210.044 134.997 208.647 135.929 207.211 135.643Z" fill="#525375"/>
<path d="M223.433 98.725C223.147 100.161 224.079 101.558 225.515 101.845C226.951 102.132 228.348 101.2 228.635 99.7633C228.922 98.3269 227.99 96.93 226.553 96.6433C225.117 96.3566 223.72 97.2886 223.433 98.725Z" fill="#525375"/>
<path d="M207.49 108.455C206.868 108.331 206.465 107.726 206.589 107.105C206.713 106.483 207.318 106.08 207.939 106.204C208.561 106.328 208.964 106.933 208.84 107.554C208.716 108.176 208.112 108.579 207.49 108.455Z" fill="#525375"/>
<path d="M193.324 113.341C193.2 113.963 193.604 114.567 194.225 114.691C194.847 114.815 195.451 114.412 195.575 113.79C195.699 113.169 195.296 112.564 194.674 112.44C194.053 112.316 193.448 112.719 193.324 113.341Z" fill="#525375"/>
<path d="M171.335 127.251C170.713 127.127 170.31 126.523 170.434 125.901C170.558 125.279 171.163 124.876 171.784 125C172.406 125.124 172.809 125.729 172.685 126.35C172.561 126.972 171.957 127.375 171.335 127.251Z" fill="#525375"/>
<path d="M200.001 108.403C199.877 109.024 200.28 109.629 200.902 109.753C201.524 109.877 202.128 109.474 202.252 108.852C202.376 108.23 201.973 107.626 201.351 107.502C200.73 107.378 200.125 107.781 200.001 108.403Z" fill="#525375"/>
<path d="M162.063 119.013C161.442 118.888 161.038 118.284 161.162 117.662C161.287 117.041 161.891 116.637 162.513 116.761C163.134 116.886 163.538 117.49 163.414 118.112C163.289 118.733 162.685 119.137 162.063 119.013Z" fill="#525375"/>
<path d="M175.417 109.136C174.795 109.012 174.392 108.407 174.516 107.786C174.64 107.164 175.245 106.761 175.866 106.885C176.488 107.009 176.891 107.613 176.767 108.235C176.643 108.856 176.039 109.26 175.417 109.136Z" fill="#525375"/>
<path d="M230.54 106.797C231.057 107.065 231.357 107.651 231.237 108.251C231.092 108.978 230.385 109.45 229.658 109.304C228.931 109.159 228.459 108.452 228.605 107.725L228.608 107.707C228.092 107.438 227.792 106.852 227.912 106.252C228.057 105.525 228.764 105.054 229.491 105.199C230.218 105.344 230.689 106.051 230.544 106.778L230.54 106.797Z" fill="#525375"/>
<path d="M202.951 129.058C202.224 128.913 201.752 128.206 201.897 127.479C202.042 126.752 202.749 126.28 203.476 126.425C204.204 126.57 204.675 127.277 204.53 128.004C204.385 128.731 203.678 129.203 202.951 129.058Z" fill="#525375"/>
<path d="M201.028 133.287C200.883 134.014 201.355 134.721 202.082 134.867C202.809 135.012 203.516 134.54 203.661 133.813C203.806 133.086 203.334 132.379 202.607 132.234C201.88 132.089 201.173 132.56 201.028 133.287Z" fill="#525375"/>
<path d="M213.512 129.217C213.367 129.944 213.839 130.651 214.566 130.796C215.293 130.942 216 130.47 216.145 129.743C216.29 129.016 215.818 128.309 215.091 128.164C214.364 128.019 213.657 128.49 213.512 129.217Z" fill="#525375"/>
<path d="M176.452 28.6523C174.489 27.5556 172.009 28.258 170.912 30.2212C169.815 32.1843 170.518 34.6648 172.481 35.7614C174.444 36.8581 176.925 36.1557 178.021 34.1925C179.118 32.2294 178.415 29.7489 176.452 28.6523Z" fill="#525375"/>
<path d="M201.971 71.4911C195.104 79.4654 182.153 81.3468 171.108 75.1766C160.062 69.0063 154.874 56.9915 158.064 46.9633C158.2 46.5347 157.963 46.0768 157.535 45.9404C157.106 45.8041 156.648 46.041 156.512 46.4696C153.047 57.3626 158.716 70.12 170.313 76.5984C181.91 83.0768 195.746 81.2158 203.205 72.5539C203.499 72.2131 203.46 71.6989 203.119 71.4054C202.779 71.112 202.264 71.1503 201.971 71.4911Z" fill="#525375"/>
<path fill-rule="evenodd" clip-rule="evenodd" d="M212.091 1.40641C173.103 -6.37572 135.189 18.9214 127.406 57.9092C119.624 96.897 144.921 134.811 183.909 142.594C222.897 150.376 260.811 125.079 268.594 86.0908C276.376 47.103 251.079 9.18855 212.091 1.40641ZM129.004 58.228C136.61 20.1223 173.666 -4.60252 211.772 3.00355C241.053 8.8481 262.433 32.0817 267.314 59.8184C267.076 59.5712 266.762 59.3917 266.4 59.3194C265.455 59.1306 264.535 59.7441 264.346 60.6896C264.158 61.6351 264.771 62.5545 265.717 62.7433C266.515 62.9026 267.295 62.4899 267.632 61.7883C268.77 69.5509 268.62 77.6375 266.996 85.772C266.365 88.9335 265.532 92.0029 264.511 94.9694C264.435 94.8596 264.351 94.7557 264.259 94.6586C264.63 94.3055 264.899 93.8387 265.007 93.2986C265.285 91.9025 264.379 90.5449 262.983 90.2662C261.587 89.9876 260.23 90.8934 259.951 92.2895C259.781 93.1435 260.053 93.9831 260.61 94.5701C260.24 94.9233 259.971 95.39 259.863 95.9301C259.584 97.3262 260.49 98.6838 261.886 98.9625C262.271 99.0394 262.654 99.0261 263.011 98.9371C261.594 102.367 259.922 105.643 258.021 108.746C257.925 108.108 257.675 107.508 257.303 106.995L257.336 107.002C258.043 107.143 258.73 106.685 258.871 105.978C259.012 105.271 258.554 104.584 257.847 104.443C257.14 104.302 256.453 104.76 256.312 105.467C256.272 105.664 256.279 105.86 256.326 106.043C255.893 105.746 255.394 105.53 254.847 105.421C253.23 105.098 251.646 105.799 250.766 107.075C250.581 106.748 250.259 106.5 249.861 106.42C249.134 106.275 248.427 106.747 248.282 107.474C248.136 108.201 248.608 108.908 249.335 109.053C249.593 109.105 249.848 109.078 250.077 108.991C249.896 111.001 251.256 112.866 253.28 113.27C253.88 113.39 254.476 113.369 255.033 113.229C250.343 119.709 244.603 125.3 238.113 129.802C238.115 129.721 238.112 129.64 238.105 129.56C238.213 129.308 238.297 129.04 238.353 128.76C238.786 126.592 237.379 124.484 235.212 124.052C233.898 123.789 232.606 124.203 231.695 125.053C231.653 124.906 231.583 124.77 231.489 124.653C232.21 124.787 232.907 124.317 233.051 123.596C233.196 122.869 232.724 122.162 231.997 122.016C231.27 121.871 230.563 122.343 230.418 123.07C230.332 123.502 230.463 123.926 230.736 124.23C230.143 124.154 229.585 124.549 229.466 125.144C229.457 125.19 229.451 125.236 229.447 125.282C228.462 125.296 227.587 125.994 227.386 126.998C227.258 127.643 227.434 128.278 227.816 128.753C227.302 129.286 226.93 129.967 226.775 130.746C226.406 132.594 227.374 134.399 229.011 135.159C227.54 135.882 226.043 136.555 224.522 137.175C224.674 136.904 224.786 136.605 224.85 136.284C224.863 136.221 224.873 136.157 224.882 136.094C225.721 136.123 226.482 135.541 226.651 134.691C226.74 134.245 226.651 133.805 226.433 133.445C226.535 132.836 226.135 132.252 225.525 132.13C225.01 132.027 224.506 132.287 224.279 132.733C224.029 132.835 223.805 132.995 223.626 133.198C223.286 132.956 222.89 132.78 222.454 132.693C222.02 132.606 221.589 132.616 221.183 132.708C221.247 132.273 221.092 131.852 220.798 131.561C221.788 131.337 222.603 130.552 222.814 129.492C223.101 128.056 222.169 126.659 220.733 126.372C219.296 126.086 217.899 127.018 217.613 128.454C217.366 129.689 218.021 130.895 219.122 131.391C218.83 131.582 218.612 131.885 218.538 132.254C218.403 132.934 218.808 133.598 219.457 133.798C219.168 134.164 218.96 134.601 218.862 135.089C218.562 136.595 219.425 138.063 220.83 138.563C219.899 138.883 218.961 139.184 218.015 139.465C218.105 139.274 218.173 139.069 218.217 138.852C218.403 137.919 218.075 137.003 217.428 136.397L217.434 136.371C217.437 136.358 217.44 136.345 217.443 136.332C217.588 135.605 217.116 134.898 216.389 134.753C215.662 134.608 214.956 135.079 214.81 135.806C214.629 135.864 214.454 135.941 214.29 136.036C213.909 135.713 213.442 135.479 212.917 135.375C212.833 135.358 212.749 135.345 212.666 135.335C212.89 135.291 213.076 135.121 213.122 134.889C213.184 134.58 212.975 134.277 212.655 134.213C212.336 134.149 212.026 134.349 211.965 134.658C211.908 134.944 212.081 135.224 212.36 135.315C210.916 135.295 209.619 136.304 209.326 137.771C209.042 139.193 209.796 140.582 211.066 141.153C202.441 142.785 193.365 142.82 184.228 140.996C182.575 140.666 180.946 140.281 179.345 139.842C179.85 139.809 180.291 139.442 180.395 138.921C180.519 138.3 180.116 137.695 179.494 137.571C178.873 137.447 178.268 137.851 178.144 138.472C178.052 138.933 178.25 139.384 178.611 139.637C143.729 129.679 121.778 94.427 129.004 58.228ZM234.668 132.048L234.809 131.961L234.774 131.964L234.743 131.967C234.721 131.969 234.699 131.97 234.677 131.971C234.674 131.997 234.671 132.022 234.668 132.048Z" fill="#525375"/>
</g>
<path d="M72.085 182.385C70.4983 182.385 69.0517 181.988 67.745 181.195C66.4383 180.402 65.4 179.188 64.63 177.555C63.86 175.898 63.4633 173.787 63.44 171.22C63.44 169.073 63.6967 167.277 64.21 165.83C64.7467 164.383 65.435 163.228 66.275 162.365C67.1383 161.502 68.0717 160.883 69.075 160.51C70.1017 160.113 71.1167 159.915 72.12 159.915C73.7533 159.915 75.1417 160.3 76.285 161.07C77.4517 161.817 78.3267 162.855 78.91 164.185L76.565 165.76L76.285 165.935L76.11 165.69C76.1567 165.503 76.145 165.328 76.075 165.165C76.0283 165.002 75.9 164.757 75.69 164.43C75.1767 163.753 74.6283 163.298 74.045 163.065C73.4617 162.832 72.8667 162.715 72.26 162.715C70.7433 162.715 69.46 163.427 68.41 164.85C67.36 166.273 66.835 168.338 66.835 171.045C66.835 172.772 67.0683 174.277 67.535 175.56C68.0017 176.82 68.6317 177.788 69.425 178.465C70.2183 179.142 71.1167 179.48 72.12 179.48C73.8933 179.48 75.2583 178.663 76.215 177.03L78.665 178.745C77.895 180.028 76.9733 180.962 75.9 181.545C74.8267 182.105 73.555 182.385 72.085 182.385ZM82.13 182V179.235H86.75V161.35H82.34V158.585H90.285V179.235H94.87V182H82.13ZM100.4 182V179.235H104.425V168.56H100.575V165.795H107.925V179.235H111.6V182H100.4ZM105.965 162.89C105.335 162.89 104.798 162.68 104.355 162.26C103.935 161.817 103.725 161.303 103.725 160.72C103.725 160.09 103.935 159.565 104.355 159.145C104.775 158.725 105.312 158.515 105.965 158.515C106.572 158.515 107.097 158.737 107.54 159.18C108.007 159.6 108.24 160.113 108.24 160.72C108.24 161.303 108.007 161.817 107.54 162.26C107.097 162.68 106.572 162.89 105.965 162.89ZM124.585 182.385C122.998 182.385 121.575 182.023 120.315 181.3C119.078 180.577 118.098 179.585 117.375 178.325C116.675 177.065 116.325 175.63 116.325 174.02C116.325 172.41 116.675 170.963 117.375 169.68C118.098 168.373 119.078 167.347 120.315 166.6C121.575 165.853 122.987 165.48 124.55 165.48C125.997 165.48 127.257 165.748 128.33 166.285C129.427 166.822 130.313 167.58 130.99 168.56L128.995 170.66L128.75 170.905L128.54 170.695C128.517 170.508 128.47 170.333 128.4 170.17C128.353 169.983 128.202 169.738 127.945 169.435C127.478 169.015 126.965 168.723 126.405 168.56C125.845 168.373 125.203 168.28 124.48 168.28C123.687 168.28 122.928 168.513 122.205 168.98C121.505 169.423 120.933 170.065 120.49 170.905C120.07 171.745 119.86 172.748 119.86 173.915C119.86 175.035 120.082 176.015 120.525 176.855C120.968 177.695 121.552 178.348 122.275 178.815C123.022 179.258 123.838 179.48 124.725 179.48C125.472 179.48 126.195 179.328 126.895 179.025C127.595 178.722 128.248 178.22 128.855 177.52L130.78 179.76C129.963 180.67 129.007 181.335 127.91 181.755C126.837 182.175 125.728 182.385 124.585 182.385ZM139.355 174.405L137.745 175.91V182H134.245V158.585H138.06V158.9C137.92 159.04 137.827 159.192 137.78 159.355C137.757 159.518 137.745 159.798 137.745 160.195V172.2L144.605 165.69C144.908 165.76 145.27 165.818 145.69 165.865C146.11 165.888 146.472 165.9 146.775 165.9H148.35L141.805 172.27L149.295 182L145.235 182.14L139.355 174.405ZM72.47 195.195H76.285V195.51C76.145 195.65 76.0633 195.802 76.04 195.965C76.0167 196.128 76.005 196.408 76.005 196.805V204.19H83.32V195.195H87.135V195.51C86.995 195.65 86.9017 195.802 86.855 195.965C86.8317 196.128 86.82 196.408 86.82 196.805V217H83.285V206.99H76.005V217H72.47V195.195ZM97.985 217.385C96.4217 217.385 95.0333 217.058 93.82 216.405C92.63 215.752 91.685 214.807 90.985 213.57C90.3083 212.31 89.97 210.782 89.97 208.985C89.97 207.188 90.3083 205.648 90.985 204.365C91.6617 203.082 92.5717 202.102 93.715 201.425C94.8583 200.748 96.1417 200.41 97.565 200.41C98.8017 200.41 99.9333 200.702 100.96 201.285C101.987 201.868 102.803 202.743 103.41 203.91C104.04 205.053 104.355 206.488 104.355 208.215C104.355 208.775 104.343 209.288 104.32 209.755H93.33C93.3767 210.875 93.6333 211.797 94.1 212.52C94.5667 213.243 95.15 213.78 95.85 214.13C96.5733 214.457 97.3317 214.62 98.125 214.62C98.895 214.62 99.6067 214.503 100.26 214.27C100.937 214.013 101.543 213.593 102.08 213.01L103.9 214.795C103.153 215.682 102.278 216.335 101.275 216.755C100.295 217.175 99.1983 217.385 97.985 217.385ZM93.4 207.13H100.96C100.96 205.847 100.633 204.855 99.98 204.155C99.35 203.455 98.4867 203.105 97.39 203.105C96.41 203.105 95.5467 203.432 94.8 204.085C94.0533 204.738 93.5867 205.753 93.4 207.13ZM109.465 200.795H113.07L113.035 203.56C113.478 202.58 114.143 201.81 115.03 201.25C115.917 200.69 116.862 200.41 117.865 200.41C119.615 200.41 121.073 201.017 122.24 202.23L120.77 205.1L120.63 205.415L120.35 205.275C120.28 205.088 120.21 204.902 120.14 204.715C120.07 204.528 119.895 204.307 119.615 204.05C118.915 203.583 118.18 203.35 117.41 203.35C116.663 203.35 115.952 203.525 115.275 203.875C114.598 204.225 114.05 204.785 113.63 205.555C113.21 206.302 113 207.282 113 208.495V217.035H109.465V200.795ZM132.985 217.385C131.422 217.385 130.033 217.058 128.82 216.405C127.63 215.752 126.685 214.807 125.985 213.57C125.308 212.31 124.97 210.782 124.97 208.985C124.97 207.188 125.308 205.648 125.985 204.365C126.662 203.082 127.572 202.102 128.715 201.425C129.858 200.748 131.142 200.41 132.565 200.41C133.802 200.41 134.933 200.702 135.96 201.285C136.987 201.868 137.803 202.743 138.41 203.91C139.04 205.053 139.355 206.488 139.355 208.215C139.355 208.775 139.343 209.288 139.32 209.755H128.33C128.377 210.875 128.633 211.797 129.1 212.52C129.567 213.243 130.15 213.78 130.85 214.13C131.573 214.457 132.332 214.62 133.125 214.62C133.895 214.62 134.607 214.503 135.26 214.27C135.937 214.013 136.543 213.593 137.08 213.01L138.9 214.795C138.153 215.682 137.278 216.335 136.275 216.755C135.295 217.175 134.198 217.385 132.985 217.385ZM128.4 207.13H135.96C135.96 205.847 135.633 204.855 134.98 204.155C134.35 203.455 133.487 203.105 132.39 203.105C131.41 203.105 130.547 203.432 129.8 204.085C129.053 204.738 128.587 205.753 128.4 207.13Z" fill="#525375"/>
<path fill-rule="evenodd" clip-rule="evenodd" d="M17.175 123.127C17.6812 122.425 18.16 121.709 18.6376 120.995C19.4206 119.824 20.2001 118.659 21.0907 117.569C23.0564 115.081 25.2288 112.758 27.8064 111.03C29.1035 110.184 30.4833 109.516 31.9431 109.115C32.673 108.915 33.4002 108.802 34.1605 108.76C34.2743 108.759 34.3867 108.755 34.498 108.752C34.7666 108.742 35.0289 108.733 35.2899 108.768L35.8711 108.807L36.4331 108.899C37.8904 109.147 39.3203 109.71 40.6374 110.497C41.9545 111.285 43.1587 112.296 44.3244 113.411C45.9745 114.975 47.4664 116.72 48.9778 118.488C49.5867 119.2 50.1989 119.916 50.8258 120.626C51.9171 121.861 53.0085 123.095 54.3147 124.233C54.6234 124.526 54.9678 124.802 55.2957 125.043C55.6402 125.319 55.9681 125.56 56.3483 125.82C56.4434 125.885 56.5343 125.941 56.6252 125.997C56.7162 126.053 56.8071 126.109 56.9022 126.174C57.0923 126.304 57.2659 126.399 57.4918 126.513C57.8913 126.721 58.2908 126.929 58.7289 127.033C59.0507 127.154 59.405 127.233 59.7506 127.311C59.8547 127.335 59.9581 127.358 60.0595 127.382L60.7455 127.461L61.0981 127.474L61.4341 127.452C62.3872 127.453 63.2769 127.223 64.1527 126.87C65.8686 126.18 67.1958 124.932 68.2613 123.585C69.3267 122.239 70.1828 120.814 70.9177 119.315C71.669 117.851 72.2992 116.313 72.8935 114.79C73.7899 112.495 74.5969 110.166 75.3961 107.859C75.6568 107.107 75.9167 106.357 76.1786 105.611L76.1967 105.56C76.7322 104.036 77.2502 102.563 77.8543 101.093C78.4652 99.6067 79.1449 98.1754 79.979 96.8905C80.7773 95.6217 81.9063 94.5059 83.1266 94.4292C83.7271 94.4169 84.3745 94.5993 84.9807 94.9734C85.5869 95.3474 86.1711 95.861 86.6837 96.407C87.7254 97.5348 88.6378 98.8508 89.4427 100.215C90.2477 101.58 90.9976 103.013 91.6758 104.478C93.0682 107.392 94.2816 110.387 95.4233 113.414C96.565 116.441 97.5994 119.517 98.5979 122.609C100.595 128.794 102.396 135.023 104.09 141.302C104.17 141.568 104.413 141.717 104.697 141.676C104.964 141.598 105.112 141.358 105.068 141.075C103.462 134.8 101.752 128.487 99.8263 122.27C98.8636 119.161 97.8127 116.05 96.726 112.954C95.6201 109.911 94.426 106.864 93.0364 103.862C92.3416 102.361 91.6109 100.877 90.7371 99.4568C89.8991 98.0208 88.9536 96.6334 87.7933 95.3431C87.1953 94.7061 86.5615 94.0853 85.7817 93.6169C85.0019 93.1486 84.0073 92.7774 82.9992 92.8446C82.4868 92.8603 81.9883 92.9994 81.5228 93.21C81.0574 93.4205 80.6608 93.6864 80.3166 93.9718C79.5924 94.5587 79.0583 95.2758 78.5958 95.9604C77.6516 97.3817 76.9691 98.9006 76.2866 100.419C75.6399 101.922 75.0979 103.464 74.5559 105.006C74.2254 105.921 73.9012 106.841 73.5771 107.761C72.8219 109.904 72.0675 112.045 71.2377 114.113C70.6268 115.6 69.9994 117.051 69.2672 118.462C68.5351 119.874 67.7341 121.23 66.7622 122.405C65.7903 123.579 64.6641 124.607 63.3421 125.119C62.6811 125.375 61.987 125.559 61.2818 125.533L61.0862 125.578L60.8218 125.568C60.6455 125.561 60.4692 125.555 60.2763 125.512C60.2197 125.501 60.162 125.49 60.1037 125.48C59.8188 125.427 59.5175 125.372 59.2432 125.245C57.8629 124.789 56.6037 123.846 55.471 122.803C54.3026 121.775 53.2278 120.576 52.1722 119.325C51.6365 118.709 51.1077 118.084 50.5773 117.457C48.9984 115.591 47.4048 113.708 45.5689 111.983C44.3343 110.813 43.0446 109.711 41.554 108.829C40.0991 107.932 38.4075 107.271 36.6692 106.977C36.5549 106.964 36.4495 106.947 36.3441 106.93C36.2388 106.912 36.1333 106.895 36.019 106.882L35.3496 106.839C34.8923 106.787 34.4681 106.806 34.0081 106.841C33.1239 106.895 32.237 107.037 31.3997 107.287C29.7085 107.749 28.1139 108.514 26.7259 109.444C23.8784 111.338 21.5601 113.813 19.5393 116.369L19.4452 116.494C18.0989 118.273 16.7439 120.065 15.7146 122.038L8.96447 117.004C8.75318 116.853 8.50162 116.864 8.33541 117.003C8.25298 116.779 8.02739 116.639 7.81031 116.662C7.52932 116.616 7.32832 116.837 7.32017 117.1C7.16435 119.85 7.18482 122.606 7.20529 125.363L7.28971 129.474C7.30378 130.159 7.31785 130.844 7.38427 131.549C7.48649 132.237 7.58871 132.926 7.90303 133.605C8.03538 133.891 8.34946 134.008 8.63589 133.878C8.77359 133.816 8.8476 133.703 8.91916 133.587C9.41248 133.6 9.89079 133.531 10.3792 133.436L12.2825 132.963L16.1248 132.003C16.7569 131.825 17.3932 131.656 18.0294 131.487C18.6657 131.318 19.3019 131.149 19.934 130.971C21.1983 130.615 22.4625 130.259 23.746 129.852L23.8176 129.819C24.2638 129.661 24.5611 129.18 24.3818 128.7C24.3349 128.505 24.2164 128.342 24.0428 128.248L17.175 123.127ZM16.2815 124.306L21.502 128.534C20.7973 128.704 20.0953 128.879 19.3933 129.055C18.7529 129.215 18.1167 129.384 17.4804 129.553C16.8442 129.722 16.2079 129.891 15.5675 130.051C15.1461 130.17 14.7229 130.284 14.2996 130.399C13.4531 130.628 12.6066 130.858 11.7748 131.119L9.86883 131.678C9.67321 131.741 9.47913 131.806 9.28893 131.88C9.29898 131.753 9.30581 131.626 9.30975 131.499C9.32424 131.031 9.3069 130.578 9.28957 130.125C9.2809 129.899 9.27223 129.672 9.26754 129.444C9.23557 128.767 9.19946 128.081 9.16335 127.395C9.12725 126.709 9.09114 126.023 9.05917 125.346C8.89783 122.904 8.72324 120.434 8.45833 117.969L15.0957 123.346C14.8886 123.835 14.7038 124.336 14.546 124.852C14.4497 125.112 14.6178 125.381 14.8796 125.479C15.0724 125.521 15.268 125.476 15.4139 125.324C15.7162 124.992 16.0043 124.652 16.2815 124.306Z" fill="#525375"/>
</svg>
