<svg width="340" height="245" fill="none" version="1.1" viewBox="0 0 340 245" xmlns="http://www.w3.org/2000/svg">
 <g clip-path="url(#a)">
  <rect width="340" height="245" rx="5" fill="#E5E5F1"/>
  <path d="m339 30h-168c-3.3 0-6-2.7-6-6v-24h-7.5v26c0 6.8 5.5 12 12 12h169l-0.036-7.8z" fill="#F4F4FA" stroke="#C7C7DC" stroke-miterlimit="10"/>
  <path d="m64 242v-27c0-3.5-2.7-6.3-6-6.3h-58v-12h64c6.8 0 12 5.8 12 13v32l-12-0.037z" fill="#F4F4FA" stroke="#C7C7DC" stroke-miterlimit="10"/>
  <path d="m340 27h-5.5v13h5.5v-13z" fill="#F4F4FA" stroke="#C7C7DC" stroke-miterlimit="10"/>
  <path d="m169-0.073h-15v5.6h15v-5.6z" fill="#F4F4FA" stroke="#C7C7DC" stroke-miterlimit="10"/>
  <path d="m-0.11 193v20h5.6v-20h-5.6z" fill="#F4F4FA" stroke="#C7C7DC" stroke-miterlimit="10"/>
  <path d="m80 239h-20v5.6h20v-5.6z" fill="#F4F4FA" stroke="#C7C7DC" stroke-miterlimit="10"/>
  <path d="m320 63h-65v39h65v-39z" fill="#F4F4FA" stroke="#C7C7DC" stroke-miterlimit="10"/>
  <path d="m323 97h-71v8.9h71v-8.9z" fill="#DFDFF0" stroke="#C7C7DC" stroke-miterlimit="10"/>
  <path d="m320 63h-65v4.4h65v-4.4z" fill="#DFDFF0" stroke="#C7C7DC" stroke-miterlimit="10"/>
  <path d="m320 97v-29h-4.4v29h4.4z" fill="#DFDFF0" stroke="#C7C7DC" stroke-miterlimit="10"/>
  <path d="m260 97v-29h-4.4v29h4.4z" fill="#DFDFF0" stroke="#C7C7DC" stroke-miterlimit="10"/>
  <path d="m185 199h-55v45h55v-45z" fill="#D9D9E8" stroke="#C7C7DC" stroke-miterlimit="10"/>
  <path d="m162 199h-7.8v9.7h7.8v-9.7z" fill="#ECECF7" stroke="#C7C7DC" stroke-miterlimit="10"/>
  <path d="m187 164h-43v35h43v-35z" fill="#D9D9E8" stroke="#C7C7DC" stroke-miterlimit="10"/>
  <path d="m170 164h-8.2v7.5h8.2v-7.5z" fill="#ECECF7" stroke="#C7C7DC" stroke-miterlimit="10"/>
  <path d="m229 186h-35v59h35v-59z" fill="#D9D9E8" stroke="#C7C7DC" stroke-miterlimit="10"/>
  <path d="m215 186h-7.6v9.2h7.6v-9.2z" fill="#ECECF7" stroke="#C7C7DC" stroke-miterlimit="10"/>
  <path d="m66 137h-20c-1.4 0-2.6-1.1-2.6-2.6v-4.6c0-1.4 1.1-2.6 2.6-2.6h20c1.4 0 2.6 1.1 2.6 2.6v4.6c0 1.4-1.1 2.6-2.6 2.6z" fill="#DDDDE9" stroke="#EFEFF9" stroke-miterlimit="10"/>
  <path d="m93 137h-20c-1.4 0-2.6-1.1-2.6-2.6v-4.6c0-1.4 1.1-2.6 2.6-2.6h20c1.4 0 2.6 1.1 2.6 2.6v4.6c0 1.4-1.1 2.6-2.6 2.6z" fill="#DDDDE9" stroke="#EFEFF9" stroke-miterlimit="10"/>
  <path d="m119 137h-20c-1.4 0-2.6-1.1-2.6-2.6v-4.6c0-1.4 1.1-2.6 2.6-2.6h20c1.4 0 2.6 1.1 2.6 2.6v4.6c0 1.4-1.2 2.6-2.6 2.6z" fill="#DDDDE9" stroke="#EFEFF9" stroke-miterlimit="10"/>
  <path d="m93 159h-20c-1.4 0-2.6-1.1-2.6-2.6v-4.6c0-1.4 1.1-2.6 2.6-2.6h20c1.4 0 2.6 1.1 2.6 2.6v4.6c0 1.4-1.1 2.6-2.6 2.6z" fill="#DDDDE9" stroke="#EFEFF9" stroke-miterlimit="10"/>
  <path d="m119 159h-20c-1.4 0-2.6-1.1-2.6-2.6v-4.6c0-1.4 1.1-2.6 2.6-2.6h20c1.4 0 2.6 1.1 2.6 2.6v4.6c0 1.4-1.2 2.6-2.6 2.6z" fill="#DDDDE9" stroke="#EFEFF9" stroke-miterlimit="10"/>
  <path d="m52 148h-20c-1.4 0-2.6-1.1-2.6-2.6v-4.6c0-1.4 1.1-2.6 2.6-2.6h20c1.4 0 2.6 1.1 2.6 2.6v4.6c0 1.4-1.1 2.6-2.6 2.6z" fill="#DDDDE9" stroke="#EFEFF9" stroke-miterlimit="10"/>
  <path d="m79 148h-20c-1.4 0-2.6-1.1-2.6-2.6v-4.6c0-1.4 1.1-2.6 2.6-2.6h20c1.4 0 2.6 1.1 2.6 2.6v4.6c0 1.4-1.1 2.6-2.6 2.6z" fill="#DDDDE9" stroke="#EFEFF9" stroke-miterlimit="10"/>
  <path d="m105 148h-20c-1.4 0-2.6-1.1-2.6-2.6v-4.6c0-1.4 1.1-2.6 2.6-2.6h20c1.4 0 2.6 1.1 2.6 2.6v4.6c0 1.4-1.2 2.6-2.6 2.6z" fill="#DDDDE9" stroke="#EFEFF9" stroke-miterlimit="10"/>
  <path d="m10 244h-20c-1.4 0-2.6-1.1-2.6-2.6v-4.6c0-1.4 1.1-2.6 2.6-2.6h20c1.4 0 2.6 1.1 2.6 2.6v4.6c0 1.4-1.1 2.6-2.6 2.6z" fill="#DDDDE9" stroke="#EFEFF9" stroke-miterlimit="10"/>
  <path d="m37 244h-20c-1.4 0-2.6-1.1-2.6-2.6v-4.6c0-1.4 1.1-2.6 2.6-2.6h20c1.4 0 2.6 1.1 2.6 2.6v4.6c0 1.4-1.2 2.6-2.6 2.6z" fill="#DDDDE9" stroke="#EFEFF9" stroke-miterlimit="10"/>
  <path d="m23 233h-20c-1.4 0-2.6-1.1-2.6-2.6v-4.6c0-1.4 1.1-2.6 2.6-2.6h20c1.4 0 2.6 1.1 2.6 2.6v4.6c0 1.4-1.2 2.6-2.6 2.6z" fill="#DDDDE9" stroke="#EFEFF9" stroke-miterlimit="10"/>
  <path d="m297 221h-20c-1.4 0-2.6-1.1-2.6-2.6v-4.6c0-1.4 1.1-2.6 2.6-2.6h20c1.4 0 2.6 1.1 2.6 2.6v4.6c0 1.4-1.1 2.6-2.6 2.6z" fill="#DDDDE9" stroke="#EFEFF9" stroke-miterlimit="10"/>
  <path d="m297 243h-20c-1.4 0-2.6-1.1-2.6-2.6v-4.6c0-1.4 1.1-2.6 2.6-2.6h20c1.4 0 2.6 1.1 2.6 2.6v4.6c0 1.4-1.1 2.6-2.6 2.6z" fill="#DDDDE9" stroke="#EFEFF9" stroke-miterlimit="10"/>
  <path d="m270 243h-20c-1.4 0-2.6-1.1-2.6-2.6v-4.6c0-1.4 1.1-2.6 2.6-2.6h20c1.4 0 2.6 1.1 2.6 2.6v4.6c0 1.4-1.2 2.6-2.6 2.6z" fill="#DDDDE9" stroke="#EFEFF9" stroke-miterlimit="10"/>
  <path d="m323 221h-20c-1.4 0-2.6-1.1-2.6-2.6v-4.6c0-1.4 1.1-2.6 2.6-2.6h20c1.4 0 2.6 1.1 2.6 2.6v4.6c0 1.4-1.2 2.6-2.6 2.6z" fill="#DDDDE9" stroke="#EFEFF9" stroke-miterlimit="10"/>
  <path d="m349 221h-20c-1.4 0-2.6-1.1-2.6-2.6v-4.6c0-1.4 1.1-2.6 2.6-2.6h20c1.4 0 2.6 1.1 2.6 2.6v4.6c0 1.4-1.1 2.6-2.6 2.6z" fill="#DDDDE9" stroke="#EFEFF9" stroke-miterlimit="10"/>
  <path d="m323 243h-20c-1.4 0-2.6-1.1-2.6-2.6v-4.6c0-1.4 1.1-2.6 2.6-2.6h20c1.4 0 2.6 1.1 2.6 2.6v4.6c0 1.4-1.2 2.6-2.6 2.6z" fill="#DDDDE9" stroke="#EFEFF9" stroke-miterlimit="10"/>
  <path d="m349 243h-20c-1.4 0-2.6-1.1-2.6-2.6v-4.6c0-1.4 1.1-2.6 2.6-2.6h20c1.4 0 2.6 1.1 2.6 2.6v4.6c0 1.4-1.1 2.6-2.6 2.6z" fill="#DDDDE9" stroke="#EFEFF9" stroke-miterlimit="10"/>
  <path d="m283 232h-20c-1.4 0-2.6-1.1-2.6-2.6v-4.6c0-1.4 1.1-2.6 2.6-2.6h20c1.4 0 2.6 1.1 2.6 2.6v4.6c0 1.4-1.1 2.6-2.6 2.6z" fill="#DDDDE9" stroke="#EFEFF9" stroke-miterlimit="10"/>
  <path d="m309 232h-20c-1.4 0-2.6-1.1-2.6-2.6v-4.6c0-1.4 1.1-2.6 2.6-2.6h20c1.4 0 2.6 1.1 2.6 2.6v4.6c0 1.4-1.2 2.6-2.6 2.6z" fill="#DDDDE9" stroke="#EFEFF9" stroke-miterlimit="10"/>
  <path d="m336 232h-20c-1.4 0-2.6-1.1-2.6-2.6v-4.6c0-1.4 1.1-2.6 2.6-2.6h20c1.4 0 2.6 1.1 2.6 2.6v4.6c0 1.4-1.1 2.6-2.6 2.6z" fill="#DDDDE9" stroke="#EFEFF9" stroke-miterlimit="10"/>
  <path d="m209-0.66v64" stroke="#C7C7DC" stroke-miterlimit="10"/>
  <path d="m209 64-5.8 5.8h11l-5.2-5.8z" fill="#DFDFF0" stroke="#C7C7DC" stroke-miterlimit="10"/>
  <path d="m204 69h9l15 6.3h-38l15-6.3z" fill="#DFDFF0" stroke="#C7C7DC" stroke-miterlimit="10"/>
  <path d="m205 79c0 2.3 1.8 4.1 4.1 4.1 2.3 0 4.1-1.8 4.1-4.1 0-1.4-0.66-2.5-1.6-3.3l-4.8-0.037c-1.1 0.73-1.8 1.9-1.8 3.3z" fill="#fff" stroke="#C7C7DC" stroke-miterlimit="10"/>
  <path d="m99-0.66v64" stroke="#C7C7DC" stroke-miterlimit="10"/>
  <path d="m99 64-5.8 5.8h11l-5.2-5.8z" fill="#DFDFF0" stroke="#C7C7DC" stroke-miterlimit="10"/>
  <path d="m94 69h9l15 6.3h-38l15-6.3z" fill="#DFDFF0" stroke="#C7C7DC" stroke-miterlimit="10"/>
  <path d="m95 79c0 2.3 1.8 4.1 4.1 4.1 2.3 0 4.1-1.8 4.1-4.1 0-1.4-0.66-2.5-1.6-3.3l-4.8-0.037c-1.1 0.73-1.8 1.9-1.8 3.3z" fill="#fff" stroke="#C7C7DC" stroke-miterlimit="10"/>
  <path d="m82 75h33l84 170h-201l84-170z" fill="#fff" opacity=".2"/>
  <path d="m192 75h33l84 170h-201l84-170z" fill="#fff" opacity=".2"/>
 </g>
 <path d="m142 29c1.4-1.4 2.6-2.6 3.7-3.7 1.1-1.1 2-2 2.7-2.8 0.72-0.84 1.3-1.6 1.6-2.4 0.36-0.78 0.54-1.6 0.54-2.5 0-1-0.25-1.7-0.75-2.2-0.5-0.46-1.2-0.69-2.1-0.69-0.66 0-1.3 0.13-1.8 0.39-0.56 0.24-1.1 0.63-1.5 1.2-0.18 0.28-0.3 0.49-0.36 0.63-0.04 0.14-0.05 0.29-0.03 0.45l-0.15 0.21-0.24-0.15-2-1.6c0.64-1.2 1.5-2 2.6-2.7 1.1-0.62 2.3-0.93 3.6-0.93 1.1 0 2 0.22 2.9 0.66s1.5 1.1 2 1.9 0.75 1.8 0.75 2.8c0 1.3-0.34 2.6-1 3.7-0.66 1.1-1.6 2.3-2.7 3.4s-2.4 2.5-3.8 3.9h6.2c0.34 0 0.58-0.02 0.72-0.06s0.27-0.11 0.39-0.21h0.27v2.7h-11v-2.2zm21 2.6c-1.9 0-3.5-0.82-4.6-2.5-1.1-1.7-1.6-4-1.6-7.1 0-3 0.54-5.4 1.6-7.1 1.1-1.7 2.6-2.6 4.6-2.6s3.4 0.86 4.5 2.6c1.1 1.7 1.6 4.1 1.6 7.1 0 3.1-0.55 5.4-1.6 7.1-1.1 1.6-2.6 2.5-4.5 2.5zm-3.4-9.6c0 0.98 0.05 1.9 0.15 2.7l6-7.3c-0.26-0.84-0.63-1.5-1.1-2-0.46-0.46-1-0.69-1.6-0.69-1.1 0-1.9 0.65-2.5 2-0.56 1.3-0.84 3.1-0.84 5.3zm3.4 7.3c1.1 0 1.9-0.63 2.5-1.9 0.58-1.3 0.87-3 0.87-5.4 0-0.9-0.04-1.7-0.12-2.5l-6 7.2c0.58 1.7 1.5 2.5 2.8 2.5zm14 2v-15l-3.5 1.2-0.66-1.9 5-2.6h2.2v19h-3zm13 0c0.86-2.8 1.8-5.5 2.7-8.1 0.96-2.6 2-5.3 3-8h-7.6v-2.6h11v1.6c-1.2 2.8-2.2 5.6-3.3 8.4-1 2.8-1.9 5.7-2.8 8.7h-3.1z" fill="#525375"/>
 <path d="m265 151c-0.67 0.7-2.1 1.5-3.8 2-2.3 0.77-4.7 1.1-5.5-0.064-1.3-1.9 4.4-12 4.4-12s2.2-1.3 4.1-1.1c0.68 0.064 1.3 0.35 1.8 1 1.6 2.4 0.58 9-1 11z" fill="#F2C1B8"/>
 <path d="m264 139c-0.45 2.4-1.9 11-3 14-2.3 0.77-4.7 1.1-5.5-0.064-1.3-1.9 4.4-12 4.4-12s2.2-1.3 4.1-1.1z" fill="#D1A19D"/>
 <path d="m233 152c-1 0.36-2.1 0.26-3.2-0.16-3.6-1.5-7.1-6.5-7.4-12-0.15-3.2 1.2-4.2 2.7-4.4 1.6-0.23 3.4 0.47 3.4 0.47s8.8 14 4.6 16z" fill="#F2C1B8"/>
 <path d="m233 152c-1 0.36-2.1 0.26-3.2-0.16-0.81-2.7-4.7-11-4.7-16 1.6-0.22 3.4 0.47 3.4 0.47s8.8 14 4.6 16z" fill="#D1A19D"/>
 <path d="m229 143s-3.8-4.5-4.4-1.7c-0.48 2.7 2.4 2.8 4.4 1.7z" fill="#D1A19D"/>
 <path d="m236 163c0.24-1.7 0.36-2.9 0.36-2.9s18-12 20-2.4c0.19 1.2 0.3 2.4 0.33 3.7-1.8 3.5-3.3 5.2-3.3 5.2-11 2.5-12 0.33-12 0.33-1.7-0.92-3.1-2.3-4.4-3.9z" fill="#FCD8CD"/>
 <path d="m263 139c-0.34 2.8-0.82 5.4-1.3 7.8-1.2 5.1-2.8 9.2-4.2 12-0.37 0.72-0.67 1.5-1 2.1-1.8 3.5-3.3 5.2-3.3 5.2-5 1.2-8 1.3-9.9 1.1-2-0.19-2.6-0.78-2.6-0.78-1.7-0.99-3.1-2.3-4.4-4-8.3-10-8.2-31-8.2-31-0.16-0.7-0.32-1.5-0.33-2.2-0.33-3.7 0.94-6.7 3.1-9.2 8.8-10 33-9.6 33 9.1-0.15 3.2-0.36 6.2-0.71 9z" fill="#FCD8CD"/>
 <path d="m243 168c-2-0.19-2.6-0.78-2.6-0.78-1.7-0.99-3.1-2.3-4.4-4-8.3-10-8.2-31-8.2-31-0.16-0.7-0.32-1.5-0.33-2.2-0.33-3.7 0.94-6.7 3.1-9.2 0.03 9.3 1.3 34 12 47z" fill="#F2C1B8"/>
 <path d="m244 137s-4.3 12-3.7 14c0 0 1.6 2.7 8.1-0.44-0.068-0.083-0.26-5.3-4.4-14z" fill="#F2C1B8"/>
 <path d="m263 124c-0.34-1.2-0.11-3.7-0.54-6.3-0.43-2.6-4.5-7.2-6.1-8.5-0.63-0.52-2.3-1-4.3-1.5 0.44-0.64 1.2-1.2 1.2-1.2-0.53-0.05-1.1 0.35-1.4 0.77 0.072-0.75 0.36-1.4 0.36-1.4-1 0.28-1.4 1.1-1.5 1.5-2.6-0.55-5.7-1-8.5-1.3-5.6-0.53-11 4.6-15 8.2-3.7 3.5-1.9 22-1.9 22s3.1 1.8 2.5-0.9c-0.47-2.2 0.22-8.7 0.41-11 2.5 0.31 11 1.4 21 1.1-0.18 1-0.74 2.2-2.2 2.1 0 0 2.2 1.5 5.1-2.2l0.15 0.014c-0.028 0.3-0.2 0.51-0.29 0.66-0.17 0.21 0.6 0.13 1.3-0.79 2.1-0.18 4.4-0.42 6.5-0.82 0.19 0.4 0.3 0.79 0.48 1.3 1.1 4.1 1.5 10 1.5 11 4e-3 0.76 1-0.58 1.4-1.5 0.54-0.94 0.45-10 0.11-12z" fill="#333"/>
 <path d="m263 136c-2.6-0.25-3.9-0.6-6.6-0.7-2.8-0.11-7.2-0.15-7.9 0.54-0.75 0.69-1.7 0.9-3.2 0.91-1.5-0.067-2.1-0.28-2.8-1-0.69-0.75-5.1-0.94-7.9-0.98-2.8-0.11-4 0.15-6.6 0.28-2.6 0.13-1.7 0.98-1.7 1.5-0.05 0.53 0.33 0.56 0.95 1.2 0.62 0.67 0.6 2.5 0.6 2.5 0.49 5.2 2.9 6.6 6.9 6.6 4 0.15 4.9-0.75 6.1-1.6 1.1-0.88 2.1-4 2.5-5.1 0.41-1.1 2.1-1.2 2.1-1.2s1.7 0.16 2.1 1.3c0.34 1.2 1.1 4.4 2.2 5.3 1.1 0.94 1.9 1.9 6 1.9 4 0.15 6.5-1.1 7.3-6.3 0 0 0.097-1.8 0.76-2.4 0.67-0.62 0.97-0.59 1-1.1-0.026-0.53 0.96-1.3-1.7-1.6zm-21 5.7c-0.6 2.3-2.3 4.7-7 4.5-4.8-0.3-5.1-2-5.5-3-0.36-0.94-0.9-4.1-0.83-5.6s1.1-1.7 1.1-1.7c2.6-0.82 8.5-0.33 11 0.42 2.3 0.83 2.1 3.1 1.5 5.4zm19 2.5c-0.47 0.94-0.93 2.6-5.7 2.6-4.8 0-6.3-2.6-6.7-4.9s-0.62-4.6 1.8-5.2c2.4-0.68 8.3-0.73 11 0.2 0 0 1 0.33 0.97 1.8 7e-3 1.5-0.67 4.6-1.1 5.6z" fill="#000"/>
 <path d="m236 141c0.58 0.056 1.1-0.37 1.2-0.95 0.055-0.58-0.37-1.1-0.95-1.2-0.58-0.056-1.1 0.37-1.2 0.95-0.055 0.58 0.37 1.1 0.95 1.2z" fill="#000"/>
 <path d="m253 142c0.58 0.055 1.1-0.37 1.2-0.95 0.055-0.58-0.37-1.1-0.95-1.2-0.58-0.055-1.1 0.37-1.2 0.95-0.055 0.58 0.37 1.1 0.95 1.2z" fill="#000"/>
 <path d="m261 144c-0.47 0.94-0.93 2.6-5.7 2.6-4.8 1e-3 -6.3-2.6-6.7-4.9-0.46-2.3-0.62-4.6 1.8-5.2 2.4-0.68 8.3-0.73 11 0.2 0 0 1 0.32 0.97 1.8 8e-3 1.5-0.67 4.6-1.1 5.6z" fill="#fff" opacity=".5"/>
 <path d="m241 141c-0.6 2.3-2.3 4.7-7 4.5-4.8-0.3-5.1-2-5.5-3-0.36-0.95-0.9-4.1-0.83-5.6 0.068-1.5 1.1-1.7 1.1-1.7 2.6-0.82 8.5-0.34 11 0.42 2.3 0.83 2.1 3.1 1.5 5.4z" fill="#fff" opacity=".5"/>
 <path d="m255 151-0.36 0.57-5 4.6-7.4-0.86c0.4-0.19 4.1-1.8 12-4.2 0.075 7e-3 0.23-0.054 0.39-0.12z" fill="#fff"/>
 <path d="m243 156c0.84-0.071 1.8-0.21 2.3-0.24-0.39 0.11-0.56 0.25-1.4 0.55l-0.88-0.31c-0.082 0.068-0.082 0.068 0 0z" fill="#000"/>
 <path d="m247 155-0.16 0.061c0.082-0.068 0.16-0.061 0.16-0.061z" fill="#fff"/>
 <path d="m255 151-0.36 0.57-1.3 0.64 1.2-1.1c0.15 0.014 0.31-0.047 0.47-0.11z" fill="#000"/>
 <path d="m240 133s0.56-1.9 0.21-2.2c-0.36-0.26-9.1 1.2-9.9 1.9-0.76 0.76 9.7 0.24 9.7 0.24z" fill="#000"/>
 <path d="m250 131s-0.66-1.9-0.26-2.1c0.4-0.19 9 0.93 9.7 1.8 0.77 0.68-9.4 0.32-9.4 0.32z" fill="#000"/>
 <path d="m244 141s-2.3 7.9-2.1 8.9c0.28 1 1.1-1.6 2.1-8.9z" fill="#FBDDDA"/>
 <path d="m152 136c-0.15-0.075-0.3-0.075-0.46-0.15l0.076-0.15c0.15 0.076 0.3 0.076 0.46 0.15l-0.076 0.15z" fill="#F2C1B8"/>
 <path d="m196 135-0.15-0.075s0-0.076 0.075-0.15l0.15 0.076-0.076 0.15z" fill="#F2C1B8"/>
 <path d="m194 128-0.076-0.076 0.076 0.076z" fill="#F2C1B8"/>
 <path d="m160 138-0.076 0.84v0.23c-0.076 0.68-0.15 1.5-0.075 2.4-1.1 0.99-0.99 5.2-0.99 6.1-0.46 0.23-0.91 0.46-1.5 0.61-0.53 0.15-1.1 0.23-1.7 0.23-4.2 0.23-6.3-5.6-6.1-11v-0.15c0.15-3.5 1.4-6.4 3.7-6.5 3.7-0.15 5.8 3.9 6.8 6.8z" fill="#F2C1B8"/>
 <path d="m201 152c-0.3 2.2-1.1 4.4-2.7 6.2-0.46 0.53-0.91 0.99-1.5 1.4-0.91 0.76-2 1.4-3.3 2-2.1 0.84-4.7 1.4-8 1.6-24 1.2-27-16-27-16v-0.15c0-1.1-0.075-5.2 0.99-6.1 0.075 1.6 0.46 3 1.8 2.4 0.15-0.076 0.38-0.15 0.61-0.3 0.61-0.38 0.99-0.84 1.3-1.2 0.46-0.68 0.46-1.3 0.3-1.8-0.3-1.1-1.4-1.8-1.7-1.9 0 0 3.3-1.4-0.53-4.9 0 0 4.9-0.99 1.8-4.6 0 0 2.6-2.2 0.68-4.4 0 0 1.7 0.68 4.4-0.076 1.3-0.38 2.9-1.1 4.6-2.3 0 0 7.9-5.2 11-0.53 0 0 4.3 6.6 7 2.1 0 0 3.6-0.53 4.9 2.3 0 0 0.38 3 2 0.61 0.68 2.2 1.3 5 1.4 8 0.076 1.4 0 2.8-0.23 4.2 0 0 1.5 3.1 2.2 7.1 0.076 0.38 0.15 0.76 0.15 1.1 0.15 1.5 0.23 3.3 0 5.2z" fill="#FCD8CD"/>
 <path d="m163 129s2.6-2.2 0.68-4.4c0 0 1.7 0.68 4.4-0.076-1.4 3.7-3.6 10-4.6 16-0.3-1.1-1.4-1.8-1.7-1.9 0 0 3.3-1.4-0.53-4.9-0.076 0 4.8-0.99 1.7-4.6z" fill="#F2C1B8"/>
 <path d="m197 160c-0.91 0.76-2 1.4-3.3 2-2.1 0.84-4.7 1.4-8 1.6-24 1.2-27-16-27-16v-0.15c0-1.1-0.075-5.2 0.99-6.1 0.075 1.6 0.46 3 1.8 2.4 0.15-0.076 0.38-0.15 0.61-0.3 0.61-0.38 0.99-0.83 1.3-1.2-0.53 3.9-0.3 7.4 1.4 9.1 5.2 4.9 17 8.6 32 8.7z" fill="#F2C1B8"/>
 <path d="m205 139c0.3 5.8-2.4 7.1-4.3 7.1-0.68-4-2.2-7.1-2.2-7.1 0.23-1.4 0.23-2.9 0.23-4.2 0.3-0.15 0.68-0.38 1.1-0.61 1.9-0.99 4.9-1.4 5.2 4.9z" fill="#F2C1B8"/>
 <path d="m200 134c-0.38 0.23-0.76 0.46-1.1 0.61-0.075-3-0.68-5.8-1.4-8-1.7 2.4-2-0.61-2-0.61-1.3-2.8-4.9-2.3-4.9-2.3-2.7 4.5-7-2.1-7-2.1-3.1-4.6-11 0.53-11 0.53-5.2 3.8-9 2.4-9 2.4 2 2.2-0.68 4.4-0.68 4.4 3 3.6-1.8 4.6-1.8 4.6 3.9 3.6 0.53 4.9 0.53 4.9 0.61 0.23 3.7 2.6 0.23 4.9-0.23 0.15-0.38 0.23-0.61 0.3-1.4 0.61-1.7-0.83-1.8-2.4 0-0.83 0-1.7 0.076-2.4v-0.23l0.076-0.76c-0.99-2.9-3-7-6.8-6.8-2.4 0.15-3.6 3.1-3.7 6.5-7.1-2-2.5-8.6-2.5-8.6-5.7-4.9 0.46-9.3 0.46-9.3-4-6.4 4.5-7.3 4.5-7.3-1.1-5.8 6.6-3.1 6.6-3.1-0.38-3.5 2.9-3.3 2.9-3.3 5.6-9.7 9.5-0.38 9.5-0.38 4.6-9.4 10-0.3 10-0.3 12-6.5 10 4.4 8.8 4.2 9.5-2.3 7.1 9 6.2 9 9-0.15 3.7 9.1 3.7 9.1 2 1.5 0.76 5.6 0.53 6.4z" fill="#594433"/>
 <path d="m178 131c0.61-0.46-5.2-0.91-7.1 0.38 0 0-1.7 0.91-1.7 1.4 0 0 0.91 0.23 4.2-0.46 3.3-0.68 3-0.23 4.6-1.4z" fill="#000"/>
 <path d="m187 130c-0.53-0.38 4.4-1.4 6.1-0.3 0 0 1.4 0.76 1.6 1.3 0 0-0.76 0.3-3.6-0.076-3-0.38-2.7 0.076-4.1-0.91z" fill="#000"/>
 <path d="m178 136c-0.15 0.91-0.76 2.4-3.6 3-2.7 0.46-3.9-0.76-4-2.6v-0.3c-0.15-2.9 6.6-3.1 7.7-0.76-0.076-0.076-0.076 0.23-0.076 0.68z" fill="#fff"/>
 <path d="m194 135v0.3c-0.23 2.7-1.1 2.7-3.9 2.8-2.5 0.15-3-2.1-3.1-2.7v-0.15c-0.68-2.2 7.2-3.4 7-0.3z" fill="#fff"/>
 <path d="m174 137c0.54 0 0.99-0.44 0.99-0.99 0-0.54-0.44-0.99-0.99-0.99-0.54 0-0.99 0.44-0.99 0.99 0 0.54 0.44 0.99 0.99 0.99z" fill="#000"/>
 <path d="m191 136c0.54 0 0.99-0.44 0.99-0.99 0-0.54-0.44-0.99-0.99-0.99-0.54 0-0.99 0.44-0.99 0.99 0 0.54 0.44 0.99 0.99 0.99z" fill="#000"/>
 <path d="m183 135s3 6.9 3 9c0 2.1-6.1 1.7-5.8 0.15 0.3-1.4 2-9.6 2.8-9.2z" fill="#F2C1B8"/>
 <path d="m181 146c0-0.3-0.3-0.61-0.61-0.68-0.91-0.15-3-0.076-5.7 3.3 0 0-3.2 4 0.68 2 3.5-1.7 5.8-3.2 5.6-4.7z" fill="#594433"/>
 <path d="m186 146c-0.15-0.53 0.23-1.1 0.76-1.1 0.83-0.15 2.5 0.15 4.7 2.7 0 0 3 3.3-0.38 1.9-2.8-1.1-4.7-2.2-5.1-3.4z" fill="#594433"/>
 <path d="m182 151c-1.1 0-2-0.15-2.8-0.46-0.15-0.076-0.23-0.23-0.15-0.3 0.076-0.15 0.23-0.23 0.3-0.15 2.4 0.91 6.8-0.075 8.3-0.46-0.38-0.23-0.91-0.68-1.3-1.2-0.076-0.15-0.076-0.3 0.076-0.38 0.15-0.076 0.3-0.076 0.38 0.076 0.68 0.91 1.7 1.4 1.7 1.4 0.076 0.075 0.15 0.15 0.15 0.23s-0.075 0.23-0.15 0.23c0 0-1.6 0.46-3.5 0.76-1.1 0.23-2.1 0.3-3 0.3z" fill="#020202"/>
 <path d="m201 147c0-0.3-0.076-0.68-0.15-1.1-0.38-2.5-1.6-7.1-2.2-7.1-0.76 0 1.1 9.6-0.3 11-1.4 1.3-0.53 4.9-2 7.2-1.1 1.7-2.1 2.4-4.4 2.2 0.15-0.61 0.076-1.3-0.23-2-1.5-3.5-3-1.2-5.6-0.99-2.7 0.23-3-0.91-4.6 0.3-1.6 1.3-0.99 3.9-0.99 3.9-3.6 1.4-11-2-15-4.4-2.9-1.8-3.7-8.7-3.9-12-0.076-1.1-0.076-1.9-0.076-1.9-0.76-0.84-1.4-0.91-1.7-0.53-1.1 0.99-0.99 5.2-0.99 6.1v0.15c-0.15 2.4 4.4 15 7 14 2.6-0.38 11 2.1 13 3.3s7.1 2.1 9.6 0.76c1.4-0.76 3.9-1.6 6-2.4 1.5-0.61 3-1.2 3.6-1.8 1.1-0.99 0.99-2.2 1.2-3.3 0.076-0.61 0.3-1.1 0.76-1.5 0.99-0.76 1.4-2.7 1.5-4.8 0.076-2.3-0.076-4.5-0.15-5.4z" fill="#594433"/>
 <path d="m121 159c-1.1 2.1-9.6 9.2-11 10-0.56 0.32-2 0.56-3.6 0.72-2.1 0.08-4.3 0-5.5-0.48-1.9-0.88-7-8.8-8.6-11-0.72-1-1.8-4.2-2.7-7.9-1.4-5.1-2.7-11-2.8-12 0 0 1-13 2.3-14 0.48-0.4 1.8-1 3.1-1.7 1.9-0.88 4.1-1.8 4.8-2.2 1.3-0.56 17 1.7 18 1.8s14 12 13 16c-0.8 3.6-4.9 17-7.3 21z" fill="#FCD8CD"/>
 <path d="m107 170c-2.1 0.08-4.3 0-5.5-0.48-1.9-0.88-7-8.8-8.6-11-0.72-1-1.8-4.2-2.7-7.9-1.4-5.1-2.7-11-2.8-12 0 0 1-13 2.3-14 0.48-0.4 1.8-1 3.1-1.7-0.96 6.3-2.3 16-1.8 18 0.8 4.2 2.7 17 6.1 20 3.4 3.3 3.7 7.1 8.6 7.5 0.72 0.02 1.1 0.42 1.2 0.98z" fill="#F2C1B8"/>
 <path d="m102 143s-4.1 8.8-3.3 11 8.8 0.56 8.8-1.4c0-4.3-5.5-9.3-5.5-9.3z" fill="#F2C1B8"/>
 <path d="m89 132c0.16 0.16 6 1.7 14-0.16 0 0-4.7 0.32-6.7-0.48 0 0 21 0.16 24-3.6 3.5-3.8-10-4.2-10-4.2l-21 1.7-0.49 6.7z" fill="#8C7567"/>
 <path d="m96 144c0.53 0 0.96-0.43 0.96-0.96s-0.43-0.96-0.96-0.96-0.96 0.43-0.96 0.96 0.43 0.96 0.96 0.96z" fill="#333"/>
 <path d="m112 142c0.53 0 0.96-0.43 0.96-0.96s-0.43-0.96-0.96-0.96-0.96 0.43-0.96 0.96c-0.01 0.53 0.42 0.96 0.96 0.96z" fill="#333"/>
 <path d="m89 141c0.88-0.96 6.9-1.8 9.1-1.3 1.1 0.32 1 5.5 0.24 6.4-1.1 1.4-6.4 3-8.2 1-1.8-1.9-1.9-5.4-1.1-6.2z" fill="#fff" opacity=".5"/>
 <path d="m117 137c-1.3-1.1-9.7 0.72-11 2.2-0.88 0.72 0.32 5.3 1.3 6.1 1.4 1 9.2 0.24 11-2.1 1.3-2.2 0.57-5.4-0.31-6.2z" fill="#fff" opacity=".5"/>
 <path d="m122 139c-0.16-0.72-0.32-1.8-0.48-2.6l-2.2-0.16c-4.1-1.5-13 0.8-15 2.2-1.5 1-3.6 0.8-5.5 0.64-2.3-0.16-8 0.16-12 1.7-0.32 0.16-0.56 0.24-0.88 0.4 0 0 0.08 2.3 0.48 3 0 0.08 0.08 0.08 0.16 0.16 0.56 0.4 0.8 0.16 1.4 1.8s1.6 3.6 4.9 3.6c2.9 0 5-0.88 6.1-2.3 1.1-1.4 1-4.2 1.4-4.9 0.64-1.3 1.5-1.4 2.5-0.24 0.48 0.56 1 3.3 2.4 4.5 1.4 1.1 6 0.16 8.8-0.48 3.2-0.72 3.8-2.8 3.9-4.6 0.16-1.7 0.48-1.5 0.96-2.1 0.08-0.16 0.16-0.4 0.16-0.64l2.4-0.08zm-23 7.8c-1.1 1.4-6.4 3-8.2 1-1.8-2-1.9-5.3-1-6.1 0.88-0.96 6.9-1.8 9.1-1.3 1.1 0.24 0.96 5.4 0.16 6.3zm18-3c-1.3 2.3-9.2 3.1-11 2.1-0.96-0.8-2.2-5.4-1.3-6.1 1.8-1.4 10-3.3 11-2.2 0.87 0.72 1.6 3.8 0.31 6.2z" fill="#333"/>
 <path d="m101 167c-0.32 0-1.7-0.48-1.8-0.16-0.16 0.8 0.96 2.4 1.6 2.9 0.96 0.64 12 0 12-1.8 0-1.8 0.16-2.2-0.72-2.5s-4.6 1.2-5.9 1.4c-1.3 0.25-3.6 0.01-5.2 0.09z" fill="#8C7567"/>
 <path d="m100 160 12-3.7-7.5 5-4.3-1.3z" fill="#fff"/>
 <path d="m104 135s-0.64-1.9-0.16-2.2 9.9-1 12 2.2c-4.3-0.48-9.5 0.08-12 0z" fill="#8C7567"/>
 <path d="m96 136s0-2.1-0.48-2.2c-0.56-0.08-7.5 0.88-8.5 4.5 4-1.6 6.9-1.6 9-2.3z" fill="#8C7567"/>
 <path d="m119 128s3.3 8.9 2.7 14c0 0 1.8-5.4 1.8-7.5 0 0 0.09 6.2 0 7.5 0 0 2.2-9.5 1.6-13-0.67-3.1-4.4-3.3-4.4-3.3l-1.6 1.7z" fill="#8C7567"/>
 <path d="m127 138-3.4-4.3 3-3.9 2.5 5.4-2 2.8z" fill="#8C7567"/>
 <path d="m128 135c-11-13-14-9.6-14-9.6l-26 4.9s-3-14 2.3-18c2.2-1.8 6.5-3.6 11-4.6 6.8-1.4 15-1.5 19 1.4 9.6 6 9 28 7.7 26z" fill="#F4BC4F"/>
 <path d="m101 108c-6.5 6.7-7.8 18-8.3 22l-5.4 0.99s-3-14 2.3-18c2.2-1.8 6.5-3.6 11-4.6z" fill="#CCA256"/>
 <path d="m106 119s18 10 21 17-4.5-19-6.5-20c-2-0.85-7.2-3.3-9-2.6-1.8 0.67-5.4 5.2-5.4 5.2z" fill="#F4BC4F"/>
 <path d="m118 127c-5.1 0.32-15-0.83-23 3-1.8 0.8-5.4 1.5-7.2 2.7 0 0 0.3 0.13-1.9-0.44-7.5-1.8-23-6.5-7.5-12 4.5-1.7 8.3-3.1 11-4.2 0.24-0.08 0.4-0.16 0.64-0.24 9.9-3 15-2.2 22 5.6 0.42 0.43 0.95 0.74 1.3 1.2 1.5 1.8 2.4 3.4 4 4.5z" fill="#D16978"/>
 <path d="m95 130c-1.8 0.8-5.4 1.5-7.1 2.7 0 0 0.22 0.13-2-0.44-7.5-1.8-23-6.5-7.5-12 4.5-1.7 8.3-3.1 11-4.2-2.2 3-3.6 7.2 1.1 11 1.4 1.1 2.7 2.3 3.9 3.6z" fill="#B25267"/>
 <path d="m125 135s6.5-5.6 6.8 1.3-4.8 10-6.9 11c-2.1 0.33 0.08-12 0.08-12z" fill="#FCD8CD"/>
 <defs>
  <clipPath id="a">
   <rect width="340" height="245" rx="5" fill="#fff"/>
  </clipPath>
 </defs>
</svg>
