<svg width="377" height="238" fill="none" version="1.1" viewBox="0 0 377 238" xmlns="http://www.w3.org/2000/svg">
 <g clip-path="url(#a)">
  <rect width="377" height="238" rx="5" fill="#E9E9F4"/>
  <path d="m343 26h-90v115h90v-115z" fill="#F4F4FA" stroke="#C7C7DC" stroke-miterlimit="10"/>
  <path d="m346 134h-97v10h97v-10z" fill="#D5D5E9" stroke="#C7C7DC" stroke-miterlimit="10"/>
  <path d="m374 19h-137v2.1h137v-2.1z" fill="#fff" stroke="#C7C7DC" stroke-miterlimit="10"/>
  <path d="m343 26h-90v5.2h90v-5.2z" fill="#E0E0F0" stroke="#C7C7DC" stroke-miterlimit="10"/>
  <path d="m343 134v-103h-5.2v103h5.2z" fill="#fff" stroke="#C7C7DC" stroke-miterlimit="10"/>
  <path d="m258 134v-103h-5.2v103h5.2z" fill="#E0E0F0" stroke="#C7C7DC" stroke-miterlimit="10"/>
  <path d="m302 134v-103h-5.2v103h5.2z" fill="#E0E0F0" stroke="#C7C7DC" stroke-miterlimit="10"/>
  <path d="M378 189H-1V243H378V189Z" fill="#E5E5F1" stroke="#C7C7DC" stroke-miterlimit="10"/>
  <path d="m317 18s-30 68 41 125l-8.6 54h27v-180h-5.9l-4.3 9-4-9h-9l-4.6 9-4.2-9h-9.1l-4.6 9-4.5-9-10-0.036z" fill="#E0E0F0" stroke="#C7C7DC" stroke-miterlimit="10"/>
  <path d="m330 36c-2.1 0.18 1.2 46 12 66 0.036 0.036 0.14 0.25 0.25 0.47 6.7 12 15 23 17 22 1.3-0.76-9.1-16-18-39-11-30-10-51-12-50z" fill="#D9D9E8" stroke="#C7C7DC" stroke-miterlimit="10"/>
  <path d="m352 42c-1.6 0.18-2.5 17 2.5 32 1.7 5.4 5.3 15 6.5 14 2.5-0.72-6.2-47-9-47z" fill="#D9D9E8" stroke="#C7C7DC" stroke-miterlimit="10"/>
  <path d="m369 40c1.4-0.25 4.8 5.7 2.9 7.9-0.65 0.79-2 1.2-2.9 0.72-2.3-1.2-1.4-8.4 0-8.6z" fill="#D9D9E8" stroke="#C7C7DC" stroke-miterlimit="10"/>
  <path d="m369 152c1.8 0.041-2 42-4.5 42-0.34 0-2-0.68-2-0.68 0.038 0 4.7-41 6.5-41z" fill="#D9D9E8" stroke="#C7C7DC" stroke-miterlimit="10"/>
  <path d="m90 168c-3.4-5.6-11-22-5.8-40 1.4-4.3 3.1-9.7 7.9-14 20-18 66 4.4 71 11 0.36 0.5 2.1 3.1 3.9 2.8 1.5-0.22 2.3-2.2 2.5-2.6 2.4-5.3 34-30 55-18 13 7.6 18 27 14 41-0.94 3.8-3.9 13-16 23-36 30-112 30-133-4.4z" fill="#E0E0F0" stroke="#C7C7DC" stroke-miterlimit="10"/>
  <path d="m248 186c-0.22-12-21-19-23-20-11-3.9-20-3-32-1.8-17 1.7-17 5-31 5.4-6.1 0.18-6.5-0.47-31-4.1-21-3.1-26-3.3-31-3.1-12 0.4-22 0.68-27 7.2-4.6 7-2.3 18 2.9 25 4 5.4 10 9 22 12 25 5.7 34-3.1 65-2.4 16 0.4 17 2.8 39 3.2 19 0.36 30-1.2 39-8.5 2.7-2.3 8.4-7.1 8.3-13z" fill="#E0E0F0" stroke="#C7C7DC" stroke-miterlimit="10"/>
  <path d="m214 166c-11 0.22-16 0.32-35 5.1-6.5 1.7-17 1-38-0.25-31-1.9-51-6.9-52-4.5-0.36 1.2 3.9 3.2 6.9 4.6 32 15 66 5.2 68 3.4 0.14-0.11 0.94-0.76 2.1-0.79 1.4-0.036 2.4 0.94 2.6 1.1 2.6 2.2 25 8 43-1 0.51-0.25 8.3-4.3 7.6-6.3-0.51-1.3-4.2-1.3-5.9-1.3z" fill="#D9D9E8" stroke="#C7C7DC" stroke-miterlimit="10"/>
  <path d="m221 225h3.2l0.073-19-9.1 1.2 5.8 18z" fill="#F2F2F9" stroke="#C7C7DC" stroke-miterlimit="10"/>
  <path d="m96 225h-3.3l-0.072-19 9.1 1.2-5.8 18z" fill="#F2F2F9" stroke="#C7C7DC" stroke-miterlimit="10"/>
  <path d="m244 156c-2.2-4.4-7.2-7.8-13-7.9-8.9-0.18-17 9.1-17 19 0.18 9.1 7.7 17 15 18 10-0.036 20-18 15-28z" fill="#E0E0F0" stroke="#C7C7DC" stroke-miterlimit="10"/>
  <path d="m97 151c-0.94-1.2-3.6-4.6-8.2-5.8-7-1.8-15 2.5-18 7.9-6.1 10 2.5 28 13 29 6.4 0.61 13-5.6 15-11 3-6.2 2.6-14-1.7-20z" fill="#E0E0F0" stroke="#C7C7DC" stroke-miterlimit="10"/>
  <path d="m87 157c1.7-0.54 3.9-0.18 5.3 1.2 2.4 2.5 1.9 7.6-1.4 9.3-2.5 1.3-6 0.36-7.4-2.2-1.8-3.1 0.43-7.4 3.6-8.4z" fill="#F2F2F9" stroke="#C7C7DC" stroke-miterlimit="10"/>
  <path d="m231 158c-2.7-0.18-6.3 3-5.8 5.8 0.43 2.5 3.8 4.9 6.3 4.6 2.8-0.29 4.4-3.9 3.5-6.6-0.4-1.3-1.8-3.7-4-3.9z" fill="#F2F2F9" stroke="#C7C7DC" stroke-miterlimit="10"/>
  <path d="m170 160c-1.3-0.97 5.1-30 9.8-32 0.22-0.073 0.98-0.32 1.3 0.5 1.9 4.4-9.7 33-11 32z" fill="#D9D9E8" stroke="#C7C7DC" stroke-miterlimit="10"/>
  <path d="m197 158c2 1.8 17-20 15-37-0.14-1.7-0.36-4.3-1.3-4.5-3.8-0.97-16 40-14 42z" fill="#D9D9E8" stroke="#C7C7DC" stroke-miterlimit="10"/>
  <path d="m140 155c2.5-0.65 1.2-23-12-39-1.7-2.1-3.6-4.2-4.3-3.8-3 1.6 13 43 16 42z" fill="#D9D9E8" stroke="#C7C7DC" stroke-miterlimit="10"/>
  <path d="m108 136c-2 0.9 3.6 21 7 21 0.72-0.072 1.2-1 1.4-1.7 3.3-7.4-6.6-20-8.4-19z" fill="#D9D9E8" stroke="#C7C7DC" stroke-miterlimit="10"/>
  <path d="m163 159c1-0.29-0.073-10-5.5-19-0.58-0.9-3.2-5.1-3.8-4.8-1.4 0.68 7.8 24 9.4 24z" fill="#D9D9E8" stroke="#C7C7DC" stroke-miterlimit="10"/>
  <path d="m377 141h-24l3 6.9h21v-6.9z" fill="#F4F4FA" stroke="#C7C7DC" stroke-miterlimit="10"/>
  <path d="m57 72h-2.7v127h2.7v-127z" fill="#F4F4FA" stroke="#C7C7DC" stroke-miterlimit="10"/>
  <path d="m71 202h-31l3.1-3.9h25l3.1 3.9z" fill="#F4F4FA" stroke="#C7C7DC" stroke-miterlimit="10"/>
  <path d="m76 89h-41l6.6-35h28l6.6 35z" fill="#DFDFF0" stroke="#C7C7DC" stroke-miterlimit="10"/>
  <path d="m191 41h-58v39h58v-39z" fill="#fff" stroke="#C7C7DC" stroke-miterlimit="10"/>
  <path d="m188 44h-51v33h51v-33z" fill="#F4F4FA" stroke="#C7C7DC" stroke-miterlimit="10"/>
  <path d="m187 68-8.4-11-12 13-15-19-16 23v3.2h51l-0.036-9.8z" fill="#DFDFF0" stroke="#C7C7DC" stroke-miterlimit="10"/>
  <path d="m168 56c2.2 0 3.9-1.8 3.9-3.9 0-2.2-1.8-3.9-3.9-3.9s-3.9 1.8-3.9 3.9c0 2.2 1.8 3.9 3.9 3.9z" fill="#fff" stroke="#C7C7DC" stroke-miterlimit="10"/>
  <path d="m41 90h32l15 23 4.8 31-8.8 30-4.7 25c11 18 1.8 41-19 46l-133 31 112-187z" fill="#fff" opacity=".3"/>
 </g>
 <path d="m161 29c1.4-1.4 2.6-2.6 3.7-3.7 1.1-1.1 2-2 2.7-2.8 0.72-0.84 1.3-1.6 1.6-2.4 0.36-0.78 0.54-1.6 0.54-2.5 0-1-0.25-1.7-0.75-2.2-0.5-0.46-1.2-0.69-2.1-0.69-0.66 0-1.3 0.13-1.8 0.39-0.56 0.24-1.1 0.63-1.5 1.2-0.18 0.28-0.3 0.49-0.36 0.63-0.04 0.14-0.05 0.29-0.03 0.45l-0.15 0.21-0.24-0.15-2-1.6c0.64-1.2 1.5-2 2.6-2.7 1.1-0.62 2.3-0.93 3.6-0.93 1.1 0 2 0.22 2.9 0.66s1.5 1.1 2 1.9 0.75 1.8 0.75 2.8c0 1.3-0.34 2.6-1 3.7-0.66 1.1-1.6 2.3-2.7 3.4s-2.4 2.5-3.8 3.9h6.2c0.34 0 0.58-0.02 0.72-0.06s0.27-0.11 0.39-0.21h0.27v2.7h-11v-2.2zm21 2.6c-1.9 0-3.5-0.82-4.6-2.5-1.1-1.7-1.6-4-1.6-7.1 0-3 0.54-5.4 1.6-7.1 1.1-1.7 2.6-2.6 4.6-2.6s3.4 0.86 4.5 2.6c1.1 1.7 1.6 4.1 1.6 7.1 0 3.1-0.55 5.4-1.6 7.1-1.1 1.6-2.6 2.5-4.5 2.5zm-3.4-9.6c0 0.98 0.05 1.9 0.15 2.7l6-7.3c-0.26-0.84-0.63-1.5-1.1-2-0.46-0.46-1-0.69-1.6-0.69-1.1 0-1.9 0.65-2.5 2-0.56 1.3-0.84 3.1-0.84 5.3zm3.4 7.3c1.1 0 1.9-0.63 2.5-1.9 0.58-1.3 0.87-3 0.87-5.4 0-0.9-0.04-1.7-0.12-2.5l-6 7.2c0.58 1.7 1.5 2.5 2.8 2.5zm14 2v-15l-3.5 1.2-0.66-1.9 5-2.6h2.2v19h-3zm15 0.33c-0.92 0-1.8-0.13-2.6-0.39-0.82-0.26-1.6-0.69-2.2-1.3l1.6-2.2 0.21-0.24 0.21 0.18c0.02 0.16 0.07 0.31 0.15 0.45 0.08 0.12 0.25 0.28 0.51 0.48 0.6 0.38 1.3 0.57 2.1 0.57 0.76 0 1.4-0.25 2-0.75 0.56-0.5 1-1.2 1.3-2s0.54-1.8 0.66-2.9c-0.44 0.32-0.94 0.57-1.5 0.75-0.54 0.18-1.1 0.27-1.8 0.27-1.1 0-2-0.24-2.9-0.72-0.84-0.5-1.5-1.2-2-2.1-0.48-0.88-0.72-1.9-0.72-3.1s0.26-2.2 0.78-3.2 1.2-1.7 2.1-2.2c0.9-0.56 1.9-0.84 3-0.84 1.9 0 3.4 0.74 4.4 2.2 1 1.5 1.5 3.5 1.5 6.2 0 3.6-0.58 6.2-1.7 8.1-1.1 1.8-2.8 2.7-4.9 2.8zm-2.3-13c0 1.1 0.29 1.9 0.87 2.5 0.6 0.58 1.3 0.87 2.2 0.87 0.66 0 1.2-0.09 1.8-0.27 0.52-0.2 0.98-0.54 1.4-1-0.06-2.1-0.35-3.6-0.87-4.6s-1.3-1.4-2.3-1.4c-0.92 0-1.7 0.35-2.2 1-0.54 0.7-0.81 1.7-0.81 2.9z" fill="#525375"/>
 <path d="m268 112s-2.5 9.5-3 10c-0.45 0.52-11 5.6-11 5.9s-8.9 0-7.3-5.1c0.67-2.2 0.63-4.6 0.37-6.6-0.35-2.7-1.1-4.8-1.1-4.8s14-7.2 15-7.7c0.32-0.22 1.2-0.25 2.2-0.22 1.3 0.046 2.7 0.22 2.7 0.22l2.6 8.3z" fill="#FBD7CC"/>
 <path d="m266 104c-0.12 2.1-3.2 4.6-4 5.7-1.1 1.4-6.9 5.3-9.7 5.8-1.3 0.26-3.5 0.48-5.6 0.5-0.34-2.7-1.1-4.8-1.1-4.8s14-7.2 14-7.8c0.3-0.22 5.2 0.58 6.1 0.62z" fill="#F2C1B8"/>
 <path d="m238 72s0.2 4-2.5 4.7c-2.7 0.66-7-1.5-8.3-0.53-1.3 0.93-3.6 3.6-3.4 4.9 0.2 1.3 1.3 4.1-0.34 4.7-1.6 0.59-3.2 1-4.5-1.1 0 0 0.47 2.5 2 2.6s3.6-0.13 4.2-0.99 1.4-2.4 1.1-3.6-1.2-1.9-0.2-1.9 3.6 0.2 3.4 2c-0.2 1.8-2.2 3.8-3.4 4.1s-5.9 0.66-7.2 2c-1.3 1.3-1.2 1.5-0.81 2.1s2.7 3 1.9 4.1c-0.74 1.1-2.5 1.1-3.2-0.51 0 0 0.2 2 1.7 2.3s2.6-0.068 2.8-1.2c0.2-1.1-0.27-4-1-4.7-0.74-0.74-0.034-0.8 0.32-1 0.35-0.24 3.2-0.23 4.6 0.31 1.4 0.54 0.96 1.8 0.96 1.8s-3.2 3-3.1 4.1 2.8 5 2.2 6.4c-0.6 1.5-5.1 3.4-5.5 4.9-0.4 1.6-1.3 2.2 0.3 4.6 1.6 2.3 1.6 3 0.81 3.6s0.56 2.4 1.2 2.6c0 0-2.9 0.94-2.9 3s2.2 4.7 2.1 5.6 2 3.2 1 5c-0.96 1.8-1.4 4-1.1 4.5 0 0-4.8 1.1-4.6 4.6 0 0-1.1 5.3 5.6 1.7 0 0-7.6 2.2-2.6-3 0 0 2 0.64 2.7 1.4 0.76 0.79 2.8 0.25 3.6-0.69 0.76-0.94 2.5-1.7 2.3-3.3-0.25-1.6-1-4-0.6-4.2 0.4-0.15 5.4 0.45 7.2-0.049s8.8-10 10-11c1.6-0.49 4.1-1.1 4.1-1.1l11-54s-3.8-0.35-4.9 0.64c-1.2 0.99-1.8 1.9-4 2-2.2 0.1-9.6-0.99-10 0.25-0.56 1.2 1.6 1.5 0.7 2-0.9 0.49-2.1 0.59-2.5 0.3-0.45-0.3-1.3-0.53-1.3 0.13z" fill="#5A4E40"/>
 <path d="m243 81s-3.9 4.7-3.9 5.6-0.067 4.4-0.68 5.4-3.2 3-2.8 5.1c0.41 2 1.4 11 2.8 13 0 0 0.59 1.3 3.8 1.9 3.2 0.65 8-0.021 11-0.72 2.8-0.74 4.8-0.75 6.9-5.2 2-4.4 6.9-11 7.4-14 0.54-2.9 0.82-15 0.54-15-0.27-0.26-8.2-3.3-9-3.2-0.75 0.065-12-0.59-12-0.0014-0.81 0.59-3.9 2.4-4.5 3.1-0.61 0.72 1.2 3.7 1.2 3.7z" fill="#FBD7CC"/>
 <path d="m264 97c0.22-0.064 5.1-1.4 5.3 0 0.15 1.4-2.2 6.8-3.4 7.5-1.2 0.71-4 1.9-4.3-0.2s2.4-7.3 2.4-7.3z" fill="#FBD7CC"/>
 <path d="m251 92s-0.21-1.1 0.5-1.4c2-0.63 7.3 0.31 8.6 1.7 0.78 0.87 0.52 1.9 0.71 3.7 0 0-0.99-2.5-3-3.1s-4.6-0.89-5.1-0.92c-0.53-0.026-0.96 0.15-1.6 0.0015z" fill="#5A4E40"/>
 <path d="m246 90s-1.2-4.1-4.1-4.6c0 0-1.9 0.8-2.2 2.9 0 0 1.3-1.4 2-1.4s1.6 1.3 2.4 2.2c0.77 0.76 1.4 1.7 1.9 0.9z" fill="#5A4E40"/>
 <path d="m244 95c-0.17 0.63-0.57 0.68-1.9 0.29-1.3-0.39-3-2.5-3-2.5 0.38-0.16 2 0.38 3.2 0.99 0.78 0.38 1.4 0.79 1.6 1.1 0.042 0.066 0.058 0.13 0.045 0.18z" fill="#fff"/>
 <path d="m256 99c-1.4 0.039-2.8-0.42-4-0.77-1.3-0.36-2.2-0.71-2.4-0.87-0.23-0.16 0.16-0.46 0.16-0.46s1.9 0.023 2.1 0c0.11-0.016 1.3 0.28 2.1 0.49 0.46 0.12 0.81 0.21 0.83 0.21 0.02 0 0.38 0.17 0.82 0.39 0.71 0.35 1.6 0.8 1.6 0.8s0.14 0.18-1.2 0.22z" fill="#fff"/>
 <path d="m251 96c0.13-0.33 0.35-0.61 0.62-0.86 0.14-0.12 0.29-0.23 0.46-0.32 0.17-0.094 0.37-0.15 0.58-0.18 0.21-0.028 0.39-0.031 0.57-0.022 0.18 6e-3 0.35 0.03 0.53 0.052 0.34 0.054 0.68 0.13 1 0.23 0.66 0.2 1.3 0.48 1.9 0.88 0.29 0.2 0.56 0.42 0.8 0.67 0.24 0.25 0.45 0.55 0.58 0.87l-0.047 0.037c-0.22-0.24-0.45-0.46-0.72-0.65-0.26-0.2-0.54-0.36-0.83-0.51-0.58-0.3-1.2-0.54-1.8-0.72-0.31-0.099-0.63-0.18-0.94-0.25-0.32-0.064-0.64-0.12-0.96-0.11-0.32 0.016-0.62 0.14-0.9 0.3-0.28 0.17-0.53 0.38-0.74 0.62l-0.048-0.039z" fill="#CCA39E"/>
 <path d="m240 92c-5e-3 -0.25 0.059-0.49 0.18-0.73 0.13-0.23 0.34-0.47 0.66-0.59 0.16-0.057 0.34-0.084 0.5-0.069 0.16 9e-3 0.29 0.037 0.42 0.07 0.25 0.064 0.47 0.16 0.69 0.26 0.43 0.21 0.82 0.47 1.2 0.8 0.18 0.16 0.33 0.35 0.47 0.55 0.066 0.11 0.13 0.21 0.18 0.33 0.05 0.12 0.097 0.25 0.088 0.38l-0.056 0.021c-0.089-0.19-0.26-0.34-0.43-0.48-0.17-0.14-0.35-0.27-0.53-0.4-0.37-0.25-0.76-0.47-1.2-0.66-0.2-0.099-0.4-0.19-0.61-0.26-0.21-0.07-0.42-0.13-0.63-0.075-0.21 0.048-0.39 0.18-0.53 0.34-0.15 0.16-0.27 0.35-0.36 0.55l-0.053-0.028z" fill="#CCA39E"/>
 <path d="m257 98c-0.026 0.74-0.55 1.3-1.2 1.3-0.66 0-1.2-0.62-1.2-1.4 0-0.4-0.23-0.75 0-1 0.56 0.21 1.4 0.37 1.4 0.37s0.47 0.31 1 0.69z" fill="#000"/>
 <path d="m245 95c-0.2 0.5-0.64 0.85-1.1 0.85-0.7 0-1.3-0.66-1.3-1.5 0-0.34 0.1-0.66 0.27-0.91 1 0.55 1.9 1.1 2.1 1.5z" fill="#000"/>
 <path d="m270 97s-5.2 1.8-5.9 1.7c-0.55-0.11-0.43-0.022-0.5-1-0.059-0.81-0.023-1.6 0.11-2.4 0.53-3.2 1.2-12-5.9-16-2.2-1.3-3.8-2.4-5.1-3.4-0.17 0.5-0.38 0.97-0.64 1.4-0.62 1-1.9 2.8-4.1 2.8 0 0-2.2 2.9-5.3 2.9s-2.1-7.5-2.1-7.5l13-5.5 16 3.2 0.97 24z" fill="#5A4E40"/>
 <path d="m250 97s2.1-0.42 4 0.19c1.9 0.61 3.5 1.3 4 1.5 0 0 0.15 0.82 1.2 0.93 0 0-1 0.11-1.9-0.34-0.89-0.45-1.6-1.9-5.7-2.1 0 0-1.2-0.13-1.6-0.19z" fill="#000"/>
 <path d="m244 94c0.09 0.0064-2.4-1.8-3.4-2-1-0.29-1.3-0.4-2.2-0.77 0 0 0.35 0.66 0.68 0.74s2.3 0.61 3 1.1 1.6 0.93 2 0.96z" fill="#000"/>
 <path d="m245 92c0.23 0.36 0.4 0.76 0.5 1.2 0.052 0.21 0.071 0.43 0.071 0.66-0.013 0.22-0.049 0.45-0.14 0.67-0.018 0.055-0.051 0.1-0.079 0.16-0.03 0.049-0.059 0.1-0.09 0.15-0.064 0.091-0.13 0.18-0.2 0.26-0.14 0.17-0.28 0.33-0.43 0.49-0.29 0.32-0.59 0.62-0.9 0.92l-0.91 0.9c-0.3 0.3-0.63 0.58-0.93 0.84l-0.07 0.063-6e-3 0.0045s-1e-3 0.0015 0-0.0015l0.011-0.015c0.012-0.018 0.021-0.054 0.022-0.063l-6e-3 0.019-0.01 0.036-0.018 0.069c-0.024 0.093-0.041 0.19-0.056 0.28-0.029 0.19-0.032 0.38-0.017 0.57 0.019 0.19 0.061 0.38 0.14 0.56 0.076 0.18 0.19 0.36 0.32 0.53l-0.039 0.046c-0.19-0.11-0.37-0.25-0.51-0.43-0.14-0.18-0.25-0.4-0.31-0.62-0.07-0.22-0.094-0.46-0.097-0.69 0-0.12 0.01-0.23 0.027-0.35l0.013-0.087 8e-3 -0.042 3e-3 -0.019c4e-3 -0.022 0.022-0.069 0.04-0.099l0.015-0.024 6e-3 -0.0089 0.011-0.014 0.02-0.028 0.035-0.04 0.061-0.069c0.31-0.32 0.63-0.59 0.96-0.86 0.33-0.26 0.66-0.53 0.98-0.81 0.32-0.27 0.64-0.55 0.94-0.84 0.15-0.14 0.3-0.29 0.44-0.44 0.071-0.076 0.14-0.15 0.2-0.23 0.031-0.039 0.054-0.079 0.082-0.12 0.026-0.04 0.057-0.078 0.075-0.12 0.094-0.17 0.14-0.36 0.17-0.56 0.018-0.2 0.019-0.4-0.012-0.61-0.06-0.41-0.19-0.82-0.38-1.2l0.051-0.033z" fill="#F2C1B8"/>
 <path d="m244 100c0.12-0.085 0.24-0.16 0.38-0.23 0.13-0.065 0.27-0.12 0.43-0.16 0.15-0.036 0.32-0.063 0.49-0.04 0.18 0.022 0.36 0.094 0.52 0.22l-0.43 0.41c-0.043-0.076-0.11-0.15-0.21-0.2-0.097-0.054-0.22-0.081-0.35-0.096-0.13-0.015-0.27-0.01-0.41 6e-3 -0.14 0.017-0.28 0.044-0.42 0.084z" fill="#F2C1B8"/>
 <path d="m260 67s1.9 1.3 1.2 2c0 0 6.5-0.23 5.1 0-0.53 0.093-7.3-1.7-6.3-4.9 0.95-3.1 5.3-2.4 5.9 0.65 0 0-2.7-2.7-4.3-1.7-1.6 1 2.5 3.8 5.4 3.9 2.8 0.058 6.1 0.56 7.2 4.4s3.3 3.1 3.7 4.2 0.15 1.9 0.45 2.5c0.3 0.55-0.45 2-0.9 1.9-0.45-0.049 2.5 1.2 5.2-0.8 2.6-2 2.4 4.9 3 6.7 0.6 1.8 1.4 1.7 1.4 2.1 0.05 0.32 0.4 2.2-0.85 2.6 0 0 5.8 3.1 4.2 4.9-1.6 1.8-1.6 3.8-4.8 3.6 0 0 5.1 3.3 4.3 4.9s-5 3.6-3.8 4c1.2 0.4 4.2-0.6 3.9 1.9s-2.5 3.6-1.3 6.8c1.2 3.2 6 5.2 6.5 7.3 0.5 2.1 1.5 4.2 1.1 4.8s-2.9 1.2-3.2 3.1c-0.35 1.9-1 3.3 1.2 2.5 2.2-0.85 2.4-2.1 2.4-2.1s-1 3.8-3.7 3c-2.6-0.74-3.6-5.1-3-5.8 0.65-0.75 2-0.4 3.2-1.6 1.2-1.2 0.45-2.5-0.65-2.2-1.1 0.35-0.85 1.8-1.6 2.3-0.75 0.5-2.6 0.9-3 1.6s1.1 0.6 1.9 3.1 0.5 2.6-0.15 3.3c-0.65 0.75-2.6 2.8-1 3.3 1.6 0.5 2.3 0.45 2.9-0.4 0 0-2.4 3.7-4.4 1-2-2.7-0.55-4.2-2.3-4.3-1.8-0.1-3.8-9.1-3.8-9.1l-9.3-8.9s0 1.6-1.1 1.8c-1.1 0.2-5.2-1.9-5.5-1.2-0.25 0.7 1.6 4.2 0.45 5.4-1.2 1.2-2 4.7-4.6 5.4-2.6 0.65-3.1 1.2-1.8 2.7 1.3 1.4 2.2 2.5 1.2 3.4-1 0.9-3 2.3-3.6 1.5 0 0 2.6-0.15 2.7-1.9s-2.7-2.4-2.7-2.4-2.7 2.6-4.5 3.1c-0.41 0.1-2.2 1.7-0.76 2.1 1.4 0.45 2.2-0.4 2.4-0.8 0.18-0.4-0.18 0.4-0.18 0.4s-1.3 2.2-2.8 1.9l-0.74-0.85s0.075 2.5-2.1 3c0 0-6.9 2.6-6.2-1.3 0 0 2 3.4 4 0.4 2-3-3.4-5.6-2.9-6.5 0.45-0.9 6.2-3.8 6.2-3.8s-3.9 0.8-3.1-0.9c0.85-1.7 3-2.6 3.1-4.3 0.049-1.7 1.3-1.4 2.2-2.3 0.9-0.9 0.95-2 0.3-3.7s2-2.3 2.7-3.3c0.75-0.94 2.8-3.2 3.8-3.3 1-0.098 1.7-5.9 3-7.5s0.34-1.1 0.29-2.9c-0.057-1.8 1.4-0.53 1.6-2.3 0.17-1.8 3.3-2.5 3.3-2.5s-4-20-4.3-21-2.2-9.2-2.2-9.2z" fill="#5A4E40"/>
 <path d="m260 66s-2.7 5-2.6 5.1 3.7 1.3 3.7 1.3c0.035-0.0098 1.2-0.75 1.2-0.78s-2.3-5.5-2.3-5.5z" fill="#5A4E40"/>
 <path d="m250 72 0.7 0.7c-0.7-0.49-0.7-0.7-0.7-0.7z" fill="#5A4E40"/>
 <path d="m253 76c-0.15 0.59-0.34 1.1-0.58 1.7l-2.2-4.9c0.31 0.48 0.78 1.1 1.5 1.9 0.37 0.41 0.81 0.87 1.3 1.4z" fill="#5A4E40"/>
 <path d="m257 75c-0.17 0.49 1.9 2.3-2.7 2.4-1.1 0.046-2.7 1-4 1.2l4.1-9.1s3.5 2.9 2.6 5.5z" fill="#5A4E40"/>
 <path d="m246 105c-0.14 0.27-1.4 0.18-2 0.24-0.6 0.064-3.1-0.41-3.9-1-0.84-0.58 3e-3 -1.1 3e-3 -1.1s1e-3 0 4e-3 2e-3c0.59 0.37 2.7 0.92 3.2 1.3 0.56 0.42 2.3 0.6 2.7 0.56z" fill="#F2C1B8"/>
 <path d="m240 103s-0.89-0.88-0.25-0.79c0.64 0.091 3 0.93 3.6 1.3 0.56 0.36 3 1.3 3.8 1.2 0.75-0.064-2.8 0.29-2.8 0.29l-4.3-2z" fill="#F2C1B8"/>
 <path d="m248 105c-0.29 0.19-0.61 0.33-0.94 0.44-0.17 0.056-0.34 0.099-0.51 0.13-0.084 0.015-0.18 0.03-0.27 0.031-0.09 5e-3 -0.18 3e-3 -0.27 0-0.35-9e-3 -0.7-0.04-1-0.095-0.35-0.054-0.69-0.12-1-0.24-0.085-0.033-0.17-0.063-0.25-0.11-0.082-0.034-0.17-0.1-0.24-0.14-0.12-0.085-0.28-0.16-0.43-0.22-0.31-0.13-0.63-0.25-0.96-0.37-0.32-0.12-0.65-0.24-0.97-0.37-0.32-0.13-0.64-0.26-0.95-0.45l6e-3 3e-3c7e-3 4e-3 0.016 6e-3 0.025 4e-3l-0.034-0.01c-0.036-0.025-0.074-0.052-0.11-0.088-0.016-0.017-0.036-0.041-0.046-0.061l-0.032-0.057c-0.042-0.075-0.079-0.15-0.11-0.23-0.067-0.16-0.12-0.32-0.15-0.49 0.06 0.16 0.14 0.31 0.22 0.45 0.042 0.071 0.088 0.14 0.14 0.21l0.036 0.051c0.01 0.015 0.019 0.024 0.034 0.036 0.027 0.023 0.061 0.043 0.097 0.063l-0.034-0.011c0.01 0 0.024 3e-3 0.034 8e-3l6e-3 3e-3c0.3 0.15 0.63 0.25 0.95 0.36l0.98 0.32c0.33 0.11 0.66 0.22 0.98 0.36 0.16 0.073 0.32 0.14 0.49 0.25 0.077 0.05 0.12 0.087 0.2 0.12 0.069 0.037 0.15 0.066 0.22 0.097 0.63 0.22 1.3 0.33 2 0.4 0.084 8e-3 0.17 0.014 0.25 0.015 0.085 6e-3 0.16 0 0.25-9e-3 0.17-0.016 0.34-0.046 0.5-0.082 0.33-0.072 0.66-0.18 0.97-0.31z" fill="#CCA39E"/>
 <path d="m100 84c-1.7 8.4-20 60 5 56 2.1-0.36 25-12 25-12l-4.8-45-25 0.78z" fill="#AD9989"/>
 <path d="m127 121c-2.6 12 3.5 8.2 9.9-0.42l0.76 12s3.9 8 6.9-23c0.16 8 1.7 16 3.3 12 0 0 0.96-5.8 0-11-1.4-7.7-3.8-21-4.7-28-1.3-9.5-8.2-6.4-8.2-6.4l-12 23 3.8 23z" fill="#AD9989"/>
 <path d="m140 105c-2.2 4.1-8.4 13-13 15-2.2 1-5.5-0.96-8.5-3.5-3.8-3.2-7-7.2-7-7.2l-0.72-20 7.7-14 15 0.72 2.9 4.5c0.3 0.3 4.8 5 4.5 11-0.06 0 1.6 9.3-0.6 13z" fill="#FCD8CD"/>
 <path d="m117 77s-7.2 18-5.4 26c1.9 9 7.3 26 6.1 28 0 0-7.3-9.5-7.9-20 0 0-0.48 17 2.6 20 0 0-8.6-5-9.7-12-1.1-7.3 1.3-17 2.6-20 0 0-1.3-11 1.4-15 2.6-3.9 6.9-14 11-14s10-0.12 14 3c0 0-7.9-1.7-15 4.7z" fill="#AD9989"/>
 <path d="m131 72s5.3 0.06 11 8c5.3 7.9-2.8-8.2-2.8-8.8 0-0.48-4-4.7-9.5-5.9s-15-1.1-20 2.2c-4.7 3.3-9.9 14-9.8 18 0.06 4.4 0 6.5 1.7 13 1.7 6.1 3.3 8.5 3.3 8.5s-0.12-1.3 1-4 4.6-17 4.7-18 4.4-12 4.4-12l7-2 9.3 1.4z" fill="#AD9989"/>
 <path d="m104 99s-12 7-7.5 17c0 0-0.42-6.8 9.9-14 10-6.7-2.3-3.8-2.3-3.8z" fill="#AD9989"/>
 <path d="m100 106s-3.8 8.3 0 14c0 0-1.1-7.9 5.1-13s-2.7-4.6-5.1-0.72z" fill="#AD9989"/>
 <path d="m101 88s-2.2 16-3 18 5.9 3.1 6.7 1c0.84-2.1 3.5-15 3.5-15l-7.2-4z" fill="#AD9989"/>
 <path d="m142 80s2.6 26-0.9 32c-3.5 5.7 4.7-4.9 4.7-4.9s0.12-20-3.8-27z" fill="#AD9989"/>
 <path d="m144 95s-3.8 17-5.1 19 7.1-6.6 7.1-6.6l-2-12z" fill="#AD9989"/>
 <path d="m137 77c-1.4 1.2-13 12-27 12-14 0.58 2.5-14 2.5-14l9.3-4.2 15 0.96 0.56 4.9z" fill="#AD9989"/>
 <path d="m124 97s0.36-5.1-6.6-3.6l-0.18 0.78 6.8 2.9z" fill="#514944"/>
 <path d="m124 97s-0.3-5-6.8-2.8c0 0-1.2 3.4 2.8 4.8 4 1.4 4-2 4-2z" fill="#fff"/>
 <path d="m133 97s4.6-4.1 6.6-1.6l-0.24 1.1c-0.06 0.06-3.5 2.1-6.3 0.42z" fill="#514944"/>
 <path d="m133 97c0.36-1 5.8-4.1 6.4 0 0 0 0.66 4-4.9 2.7 0 0.06-2.4-0.24-1.5-2.7z" fill="#fff"/>
 <path d="m129 97s0.54 5.3 0.78 6.5c0 0-1.8 2.7-3 2.3-1.3-0.36-0.9-5.5 2.3-8.8z" fill="#F2C1B8"/>
 <path d="m120 97c0.55 0 1-0.45 1-1s-0.45-1-1-1-1 0.45-1 1 0.45 1 1 1z" fill="#241B0E"/>
 <path d="m135 99c0.55 0 1-0.45 1-1s-0.45-1-1-1-1 0.45-1 1 0.45 1 1 1z" fill="#241B0E"/>
 <path d="m125 90s0.24-1.3 0-1.4c-0.24-0.06-7 0.18-9.1 2 0.059 0 7.3-1.3 9.1-0.66z" fill="#AD9989"/>
 <path d="m133 91c-0.3 0.24-0.3-1.1 0-1.3 0.3-0.24 4.8 0.18 6 1.3 0 0-5.1-0.72-6 0z" fill="#AD9989"/>
 <path d="m129 111-9.6-1.9s4.3 3.6 4.7 3.5c0.3-0.12 5-1.6 5-1.6z" fill="#fff"/>
 <path d="m175 157c-0.67 0.7-2.1 1.5-3.8 2-2.3 0.77-4.7 1.1-5.5-0.064-1.3-1.9 4.4-12 4.4-12s2.2-1.3 4.1-1.1c0.68 0.064 1.3 0.35 1.8 1 1.6 2.4 0.58 9-1 11z" fill="#F2C1B8"/>
 <path d="m174 145c-0.45 2.4-1.9 11-3 14-2.3 0.77-4.7 1.1-5.5-0.064-1.3-1.9 4.4-12 4.4-12s2.2-1.3 4.1-1.1z" fill="#D1A19D"/>
 <path d="m143 158c-1 0.36-2.1 0.26-3.2-0.16-3.6-1.5-7.1-6.5-7.4-12-0.15-3.2 1.2-4.2 2.7-4.4 1.6-0.23 3.4 0.47 3.4 0.47s8.8 14 4.6 16z" fill="#F2C1B8"/>
 <path d="m143 158c-1 0.36-2.1 0.26-3.2-0.16-0.81-2.7-4.7-11-4.7-16 1.6-0.22 3.4 0.47 3.4 0.47s8.8 14 4.6 16z" fill="#D1A19D"/>
 <path d="m139 149s-3.8-4.5-4.4-1.7c-0.48 2.7 2.4 2.8 4.4 1.7z" fill="#D1A19D"/>
 <path d="m146 169c0.24-1.7 0.36-2.9 0.36-2.9s18-12 20-2.4c0.19 1.2 0.3 2.4 0.33 3.7-1.8 3.5-3.3 5.2-3.3 5.2-11 2.5-12 0.33-12 0.33-1.7-0.92-3.1-2.3-4.4-3.9z" fill="#FCD8CD"/>
 <path d="m173 145c-0.34 2.8-0.82 5.4-1.3 7.8-1.2 5.1-2.8 9.2-4.2 12-0.37 0.72-0.67 1.5-1 2.1-1.8 3.5-3.3 5.2-3.3 5.2-5 1.2-8 1.3-9.9 1.1-2-0.19-2.6-0.78-2.6-0.78-1.7-0.99-3.1-2.3-4.4-4-8.3-10-8.2-31-8.2-31-0.16-0.7-0.32-1.5-0.33-2.2-0.33-3.7 0.94-6.7 3.1-9.2 8.8-10 33-9.6 33 9.1-0.15 3.2-0.36 6.2-0.71 9z" fill="#FCD8CD"/>
 <path d="m153 174c-2-0.19-2.6-0.78-2.6-0.78-1.7-0.99-3.1-2.3-4.4-4-8.3-10-8.2-31-8.2-31-0.16-0.7-0.32-1.5-0.33-2.2-0.33-3.7 0.94-6.7 3.1-9.2 0.03 9.3 1.3 34 12 47z" fill="#F2C1B8"/>
 <path d="m154 143s-4.3 12-3.7 14c0 0 1.6 2.7 8.1-0.44-0.068-0.083-0.26-5.3-4.4-14z" fill="#F2C1B8"/>
 <path d="m173 130c-0.34-1.2-0.11-3.7-0.54-6.3-0.43-2.6-4.5-7.2-6.1-8.5-0.63-0.52-2.3-1-4.3-1.5 0.44-0.64 1.2-1.2 1.2-1.2-0.53-0.05-1.1 0.35-1.4 0.77 0.072-0.75 0.36-1.4 0.36-1.4-1 0.28-1.4 1.1-1.5 1.5-2.6-0.55-5.7-1-8.5-1.3-5.6-0.53-11 4.6-15 8.2-3.7 3.5-1.9 22-1.9 22s3.1 1.8 2.5-0.9c-0.47-2.2 0.22-8.7 0.41-11 2.5 0.31 11 1.4 21 1.1-0.18 1-0.74 2.2-2.2 2.1 0 0 2.2 1.5 5.1-2.2l0.15 0.014c-0.028 0.3-0.2 0.51-0.29 0.66-0.17 0.21 0.6 0.13 1.3-0.79 2.1-0.18 4.4-0.42 6.5-0.82 0.19 0.4 0.3 0.79 0.48 1.3 1.1 4.1 1.5 10 1.5 11 4e-3 0.76 1-0.58 1.4-1.5 0.54-0.94 0.45-10 0.11-12z" fill="#333"/>
 <path d="m173 142c-2.6-0.25-3.9-0.6-6.6-0.7-2.8-0.11-7.2-0.15-7.9 0.54-0.75 0.69-1.7 0.9-3.2 0.91-1.5-0.067-2.1-0.28-2.8-1-0.69-0.75-5.1-0.94-7.9-0.98-2.8-0.11-4 0.15-6.6 0.28-2.6 0.13-1.7 0.98-1.7 1.5-0.05 0.53 0.33 0.56 0.95 1.2 0.62 0.67 0.6 2.5 0.6 2.5 0.49 5.2 2.9 6.6 6.9 6.6 4 0.15 4.9-0.75 6.1-1.6 1.1-0.88 2.1-4 2.5-5.1 0.41-1.1 2.1-1.2 2.1-1.2s1.7 0.16 2.1 1.3c0.34 1.2 1.1 4.4 2.2 5.3 1.1 0.94 1.9 1.9 6 1.9 4 0.15 6.5-1.1 7.3-6.3 0 0 0.097-1.8 0.76-2.4 0.67-0.62 0.97-0.59 1-1.1-0.026-0.53 0.96-1.3-1.7-1.6zm-21 5.7c-0.6 2.3-2.3 4.7-7 4.5-4.8-0.3-5.1-2-5.5-3-0.36-0.94-0.9-4.1-0.83-5.6s1.1-1.7 1.1-1.7c2.6-0.82 8.5-0.33 11 0.42 2.3 0.83 2.1 3.1 1.5 5.4zm19 2.5c-0.47 0.94-0.93 2.6-5.7 2.6-4.8 0-6.3-2.6-6.7-4.9s-0.62-4.6 1.8-5.2c2.4-0.68 8.3-0.73 11 0.2 0 0 1 0.33 0.97 1.8 7e-3 1.5-0.67 4.6-1.1 5.6z" fill="#000"/>
 <path d="m146 147c0.58 0.056 1.1-0.37 1.2-0.95 0.055-0.58-0.37-1.1-0.95-1.2-0.58-0.056-1.1 0.37-1.2 0.95-0.055 0.58 0.37 1.1 0.95 1.2z" fill="#000"/>
 <path d="m163 148c0.58 0.055 1.1-0.37 1.2-0.95 0.055-0.58-0.37-1.1-0.95-1.2-0.58-0.055-1.1 0.37-1.2 0.95-0.055 0.58 0.37 1.1 0.95 1.2z" fill="#000"/>
 <path d="m171 150c-0.47 0.94-0.93 2.6-5.7 2.6-4.8 1e-3 -6.3-2.6-6.7-4.9-0.46-2.3-0.62-4.6 1.8-5.2 2.4-0.68 8.3-0.73 11 0.2 0 0 1 0.32 0.97 1.8 8e-3 1.5-0.67 4.6-1.1 5.6z" fill="#fff" opacity=".5"/>
 <path d="m151 147c-0.6 2.3-2.3 4.7-7 4.5-4.8-0.3-5.1-2-5.5-3-0.36-0.95-0.9-4.1-0.83-5.6 0.068-1.5 1.1-1.7 1.1-1.7 2.6-0.82 8.5-0.34 11 0.42 2.3 0.83 2.1 3.1 1.5 5.4z" fill="#fff" opacity=".5"/>
 <path d="m165 157-0.36 0.57-5 4.6-7.4-0.86c0.4-0.19 4.1-1.8 12-4.2 0.075 7e-3 0.23-0.054 0.39-0.12z" fill="#fff"/>
 <path d="m153 162c0.84-0.071 1.8-0.21 2.3-0.24-0.39 0.11-0.56 0.25-1.4 0.55l-0.88-0.31c-0.082 0.068-0.082 0.068 0 0z" fill="#000"/>
 <path d="m157 161-0.16 0.061c0.082-0.068 0.16-0.061 0.16-0.061z" fill="#fff"/>
 <path d="m165 157-0.36 0.57-1.3 0.64 1.2-1.1c0.15 0.014 0.31-0.047 0.47-0.11z" fill="#000"/>
 <path d="m150 139s0.56-1.9 0.21-2.2c-0.36-0.26-9.1 1.2-9.9 1.9-0.76 0.76 9.7 0.24 9.7 0.24z" fill="#000"/>
 <path d="m160 137s-0.66-1.9-0.26-2.1c0.4-0.19 9 0.93 9.7 1.8 0.77 0.68-9.4 0.32-9.4 0.32z" fill="#000"/>
 <path d="m154 147s-2.3 7.9-2.1 8.9c0.28 1 1.1-1.6 2.1-8.9z" fill="#FBDDDA"/>
 <path d="m163 82s-0.9 4.8 1.1 14l4-2.9s-2.3-11-2.5-11c-0.2-0.057-2.5-0.25-2.5-0.25z" fill="#948375"/>
 <path d="m194 114c-3.3 3-20 11-23 9.3-1.5-0.86-4-6.2-5.7-10-0.59-1.3-1.1-2.6-1.5-3.5-1-2.4-0.49-8.6 0.057-17 0.3-4.6-0.51-9 0.94-13 0.44-1.1 1-2.1 1.9-3.1 1.6-1.9 6.3-5.8 7.9-5.8 1.6-0.062 15 1.6 15 1.6s7 1.7 9.6 6.1c1.9 3.3-0.31 9.6 0.044 9.9 0.47 0.42 0.44 6.7-0.086 13-0.33 4.9-1.3 8.4-5.6 12z" fill="#FCD8CD"/>
 <path d="m175 93c0.13 0.33-3.3 8.1-3.8 11-0.56 2.6 6.3 2 7.3 0.34 1.1-1.7-3.5-11-3.5-11z" fill="#F2C1B8"/>
 <path d="m197 80s3.3-2.2 4.8-1.5c1.5 0.57 3.9 2.6 3.2 8-0.67 5.3-2.5 16-3.8 16-1.3 0.22-2.4-0.077-2.4-0.077s-1.5-8.4-2.6-16c-0.27-2.2 1.6-5.2 0.77-6.8z" fill="#AD9989"/>
 <path d="m196 112c0.84-2.5 1.9-5.4 2.1-9.9 0.098-1.2 0.93-2 2.1-2.2 1.8-0.23 3.8 0.0078 4.3 1.6 1.1 3-2.4 9.5-8.5 10z" fill="#F2C1B8"/>
 <path d="m166 113c-0.59-1.3-1.1-2.6-1.5-3.5-1-2.4-0.49-8.6 0.056-17 0.3-4.6-0.51-9 0.94-13l0.89 0.76c-0.088 0.049-1.1 23-0.43 32z" fill="#F2C1B8"/>
 <path d="m200 79s0.21-10-14-12c-24-3.3-24 14-24 15-0.03 1.2 2.3 3.9 2.3 7.1 0 0 3.8-7.6 6.6-9.1 3.7-2 6.7-1.4 11-1.4 4.1 0.034 8.6-2 15 2.5 6.7 4.3 3.1-1.5 3.1-1.5z" fill="#AD9989"/>
 <path d="m181 96s1.6 3.5 6.8 1.3c1.2-0.56 1.3-4.3-1.8-5.1-2.8-0.69-6.4 1-5 3.8z" fill="#fff"/>
 <path d="m184 96c0.6 0.17 1.2-0.19 1.4-0.79 0.17-0.6-0.19-1.2-0.79-1.4s-1.2 0.19-1.4 0.79 0.19 1.2 0.79 1.4z" fill="#000"/>
 <path d="m190 89c-2.3 0.75-8.2 2.1-10-1.2 0 0 3.2-2 10 0.48 0.32 0.16 0.28 0.59-0.052 0.72z" fill="#948375"/>
 <path d="m163 91c2 0.26 7.3 0.63 8.8-2.4 0 0-3-1.2-8.9 1.9-0.18 0.099-0.13 0.48 0.091 0.47z" fill="#948375"/>
 <path d="m172 96s-1.6 3.8-6 1.9c-1.1-0.46-1.4-3.9 1-4.8 2.5-0.94 5.8 0.21 5 2.8z" fill="#fff"/>
 <path d="m168 97c0.57 0.16 1.2-0.18 1.3-0.74 0.16-0.57-0.18-1.2-0.74-1.3-0.57-0.16-1.2 0.18-1.3 0.74s0.18 1.2 0.74 1.3z" fill="#000"/>
 <path d="m172 111c-0.14-0.038-0.19-0.12-0.15-0.26s0.14-0.25 0.28-0.22c2.4 0.37 7.6-0.17 11-3 0.11-0.12 0.24-0.08 0.36 0.026 0.12 0.11 0.08 0.24-0.026 0.36-3.8 2.9-9.1 3.5-12 3.1 0 0 0.068 0.019 0 0z" fill="#000"/>
 <path d="m169 120s1.3 0.067 3.2-1.6c0 0 1.9-1 3.3 0.26s3.9 2.4 5.4 2.6c0 0-5.1 3.8-8.8 3-3.7-0.8-3.1-4.2-3.1-4.2z" fill="#948375"/>
 <path d="m190 143c-0.15-0.075-0.3-0.075-0.46-0.15l0.076-0.15c0.15 0.076 0.3 0.076 0.46 0.15l-0.076 0.15z" fill="#F2C1B8"/>
 <path d="m234 142-0.15-0.075s0-0.076 0.075-0.15l0.15 0.076-0.076 0.15z" fill="#F2C1B8"/>
 <path d="m232 135-0.076-0.076 0.076 0.076z" fill="#F2C1B8"/>
 <path d="m198 145-0.076 0.84v0.23c-0.076 0.68-0.15 1.5-0.075 2.4-1.1 0.99-0.99 5.2-0.99 6.1-0.46 0.23-0.91 0.46-1.5 0.61-0.53 0.15-1.1 0.23-1.7 0.23-4.2 0.23-6.3-5.6-6.1-11v-0.15c0.15-3.5 1.4-6.4 3.7-6.5 3.7-0.15 5.8 3.9 6.8 6.8z" fill="#F2C1B8"/>
 <path d="m239 159c-0.3 2.2-1.1 4.4-2.7 6.2-0.46 0.53-0.91 0.99-1.5 1.4-0.91 0.76-2 1.4-3.3 2-2.1 0.84-4.7 1.4-8 1.6-24 1.2-27-16-27-16v-0.15c0-1.1-0.075-5.2 0.99-6.1 0.075 1.6 0.46 3 1.8 2.4 0.15-0.076 0.38-0.15 0.61-0.3 0.61-0.38 0.99-0.84 1.3-1.2 0.46-0.68 0.46-1.3 0.3-1.8-0.3-1.1-1.4-1.8-1.7-1.9 0 0 3.3-1.4-0.53-4.9 0 0 4.9-0.99 1.8-4.6 0 0 2.6-2.2 0.68-4.4 0 0 1.7 0.68 4.4-0.076 1.3-0.38 2.9-1.1 4.6-2.3 0 0 7.9-5.2 11-0.53 0 0 4.3 6.6 7 2.1 0 0 3.6-0.53 4.9 2.3 0 0 0.38 3 2 0.61 0.68 2.2 1.3 5 1.4 8 0.076 1.4 0 2.8-0.23 4.2 0 0 1.5 3.1 2.2 7.1 0.076 0.38 0.15 0.76 0.15 1.1 0.15 1.5 0.23 3.3 0 5.2z" fill="#FCD8CD"/>
 <path d="m201 136s2.6-2.2 0.68-4.4c0 0 1.7 0.68 4.4-0.076-1.4 3.7-3.6 10-4.6 16-0.3-1.1-1.4-1.8-1.7-1.9 0 0 3.3-1.4-0.53-4.9-0.076 0 4.8-0.99 1.7-4.6z" fill="#F2C1B8"/>
 <path d="m235 167c-0.91 0.76-2 1.4-3.3 2-2.1 0.84-4.7 1.4-8 1.6-24 1.2-27-16-27-16v-0.15c0-1.1-0.075-5.2 0.99-6.1 0.075 1.6 0.46 3 1.8 2.4 0.15-0.076 0.38-0.15 0.61-0.3 0.61-0.38 0.99-0.83 1.3-1.2-0.53 3.9-0.3 7.4 1.4 9.1 5.2 4.9 17 8.6 32 8.7z" fill="#F2C1B8"/>
 <path d="m243 146c0.3 5.8-2.4 7.1-4.3 7.1-0.68-4-2.2-7.1-2.2-7.1 0.23-1.4 0.23-2.9 0.23-4.2 0.3-0.15 0.68-0.38 1.1-0.61 1.9-0.99 4.9-1.4 5.2 4.9z" fill="#F2C1B8"/>
 <path d="m238 141c-0.38 0.23-0.76 0.46-1.1 0.61-0.075-3-0.68-5.8-1.4-8-1.7 2.4-2-0.61-2-0.61-1.3-2.8-4.9-2.3-4.9-2.3-2.7 4.5-7-2.1-7-2.1-3.1-4.6-11 0.53-11 0.53-5.2 3.8-9 2.4-9 2.4 2 2.2-0.68 4.4-0.68 4.4 3 3.6-1.8 4.6-1.8 4.6 3.9 3.6 0.53 4.9 0.53 4.9 0.61 0.23 3.7 2.6 0.23 4.9-0.23 0.15-0.38 0.23-0.61 0.3-1.4 0.61-1.7-0.83-1.8-2.4 0-0.83 0-1.7 0.076-2.4v-0.23l0.076-0.76c-0.99-2.9-3-7-6.8-6.8-2.4 0.15-3.6 3.1-3.7 6.5-7.1-2-2.5-8.6-2.5-8.6-5.7-4.9 0.46-9.3 0.46-9.3-4-6.4 4.5-7.3 4.5-7.3-1.1-5.8 6.6-3.1 6.6-3.1-0.38-3.5 2.9-3.3 2.9-3.3 5.6-9.7 9.5-0.38 9.5-0.38 4.6-9.4 10-0.3 10-0.3 12-6.5 10 4.4 8.8 4.2 9.5-2.3 7.1 9 6.2 9 9-0.15 3.7 9.1 3.7 9.1 2 1.5 0.76 5.6 0.53 6.4z" fill="#594433"/>
 <path d="m216 138c0.61-0.46-5.2-0.91-7.1 0.38 0 0-1.7 0.91-1.7 1.4 0 0 0.91 0.23 4.2-0.46 3.3-0.68 3-0.23 4.6-1.4z" fill="#000"/>
 <path d="m225 137c-0.53-0.38 4.4-1.4 6.1-0.3 0 0 1.4 0.76 1.6 1.3 0 0-0.76 0.3-3.6-0.076-3-0.38-2.7 0.076-4.1-0.91z" fill="#000"/>
 <path d="m216 143c-0.15 0.91-0.76 2.4-3.6 3-2.7 0.46-3.9-0.76-4-2.6v-0.3c-0.15-2.9 6.6-3.1 7.7-0.76-0.076-0.076-0.076 0.23-0.076 0.68z" fill="#fff"/>
 <path d="m232 142v0.3c-0.23 2.7-1.1 2.7-3.9 2.8-2.5 0.15-3-2.1-3.1-2.7v-0.15c-0.68-2.2 7.2-3.4 7-0.3z" fill="#fff"/>
 <path d="m212 144c0.54 0 0.99-0.44 0.99-0.99 0-0.54-0.44-0.99-0.99-0.99-0.54 0-0.99 0.44-0.99 0.99 0 0.54 0.44 0.99 0.99 0.99z" fill="#000"/>
 <path d="m229 143c0.54 0 0.99-0.44 0.99-0.99 0-0.54-0.44-0.99-0.99-0.99-0.54 0-0.99 0.44-0.99 0.99 0 0.54 0.44 0.99 0.99 0.99z" fill="#000"/>
 <path d="m221 142s3 6.9 3 9c0 2.1-6.1 1.7-5.8 0.15 0.3-1.4 2-9.6 2.8-9.2z" fill="#F2C1B8"/>
 <path d="m219 153c0-0.3-0.3-0.61-0.61-0.68-0.91-0.15-3-0.076-5.7 3.3 0 0-3.2 4 0.68 2 3.5-1.7 5.8-3.2 5.6-4.7z" fill="#594433"/>
 <path d="m224 153c-0.15-0.53 0.23-1.1 0.76-1.1 0.83-0.15 2.5 0.15 4.7 2.7 0 0 3 3.3-0.38 1.9-2.8-1.1-4.7-2.2-5.1-3.4z" fill="#594433"/>
 <path d="m220 158c-1.1 0-2-0.15-2.8-0.46-0.15-0.076-0.23-0.23-0.15-0.3 0.076-0.15 0.23-0.23 0.3-0.15 2.4 0.91 6.8-0.075 8.3-0.46-0.38-0.23-0.91-0.68-1.3-1.2-0.076-0.15-0.076-0.3 0.076-0.38 0.15-0.076 0.3-0.076 0.38 0.076 0.68 0.91 1.7 1.4 1.7 1.4 0.076 0.075 0.15 0.15 0.15 0.23s-0.075 0.23-0.15 0.23c0 0-1.6 0.46-3.5 0.76-1.1 0.23-2.1 0.3-3 0.3z" fill="#020202"/>
 <path d="m239 154c0-0.3-0.076-0.68-0.15-1.1-0.38-2.5-1.6-7.1-2.2-7.1-0.76 0 1.1 9.6-0.3 11-1.4 1.3-0.53 4.9-2 7.2-1.1 1.7-2.1 2.4-4.4 2.2 0.15-0.61 0.076-1.3-0.23-2-1.5-3.5-3-1.2-5.6-0.99-2.7 0.23-3-0.91-4.6 0.3-1.6 1.3-0.99 3.9-0.99 3.9-3.6 1.4-11-2-15-4.4-2.9-1.8-3.7-8.7-3.9-12-0.076-1.1-0.076-1.9-0.076-1.9-0.76-0.84-1.4-0.91-1.7-0.53-1.1 0.99-0.99 5.2-0.99 6.1v0.15c-0.15 2.4 4.4 15 7 14 2.6-0.38 11 2.1 13 3.3s7.1 2.1 9.6 0.76c1.4-0.76 3.9-1.6 6-2.4 1.5-0.61 3-1.2 3.6-1.8 1.1-0.99 0.99-2.2 1.2-3.3 0.076-0.61 0.3-1.1 0.76-1.5 0.99-0.76 1.4-2.7 1.5-4.8 0.076-2.3-0.076-4.5-0.15-5.4z" fill="#594433"/>
 <path d="m299 98c0.4 0.064 0.78-0.24 0.85-0.67 0.071-0.44-0.2-0.84-0.6-0.91-0.4-0.064-0.78 0.24-0.85 0.67-0.07 0.44 0.2 0.84 0.6 0.91z" fill="#594433"/>
 <path d="m298 104s-0.57-17-0.36-18c0.21-1.7 4.3-7.9 6.6-8.7 2.3-0.85 14-3.3 18-2 3.9 1.3 6.5 4.3 6.6 6.7 0 0 6.4 2 4.7 10-1.7 8.2-3.8 15-3.8 15s-1.2 5-1.5 5-30-7.4-30-7.4z" fill="#594433"/>
 <path d="m328 107s2-3.7 4.7-2.6c2.7 1.2 1.9 6 0.29 7.4-1.6 1.4-3.1 4-4.1 3.9-1.1-0.1-3.6 0.031-3.4-1.8 0.16-1.9 2.6-7 2.6-7z" fill="#F2C1B8"/>
 <path d="m299 100s-1-2.5-2.6-1.8c-1.6 0.75-2.6 4.7-2.5 5.8s1.5 4.5 2 5.4c0.39 0.94 1.3 1.6 3.7 1.2 2.9-0.34-0.57-11-0.57-11z" fill="#F2C1B8"/>
 <path d="m330 108c-0.2 1.3-0.42 2.2-0.54 2.5-0.57 1.5-3.2 12-4.3 12s-8.7 7.4-9.9 7.7-8-0.68-9-1.4c-0.24-0.17-0.75-0.8-1.5-1.7-2.2-2.8-6-8-6.5-9-0.73-1.3 0.72-6.6 0.58-7.4-0.14-0.83-0.026-11 0.37-12 0.22-0.98 0.43-3.9 0.59-6.2 0.057-1.6 0.12-2.8 0.12-2.8l1.6-5.6s1.2-0.2 3-0.47c3.9-0.59 10-1.5 10-1.5 0.26 0.042 12 3.7 12 3.7s4.7 4.5 4.4 8.9c-0.038 1.1-0.19 2.5-0.37 4-0.17 3.1-0.62 6.8-1 9.3z" fill="#FCD8CD"/>
 <path d="m305 127c-2.2-2.8-6-8-6.5-9-0.73-1.3 0.72-6.6 0.58-7.4-0.14-0.83-0.027-11 0.37-12 0.22-0.98 0.43-3.9 0.59-6.2 0.057-1.6 0.12-2.8 0.12-2.8l1.6-5.6s1.2-0.2 3-0.47c-1.2 5.1-3.7 15-3.6 17 0.12 2.2-1.2 13 1.1 16 2.3 3.7 2.7 7 5.7 8.6 1.2 0.74-0.51 1.5-3 2z" fill="#F2C1B8"/>
 <path d="m299 93s3.8-5.8 6.3-5.7c2.5 0.063 10 2.3 15 1.1 4.9-1.2 9.5 2.7 12 6.9 1.8 0.012-3.3-12-6.9-14-2.1-0.94-23-1.4-24 0.55l-2.4 4.9 0.12 6.4z" fill="#594433"/>
 <path d="m310 99s-0.019-1.6-0.34-1.7c-0.32-0.12-5-0.67-5.6-0.3-0.6 0.38-2.1 1.5-2.2 1.9s2.2-0.93 3.1-0.92c0.94 0.017 5 1 5 1z" fill="#594433"/>
 <path d="m319 99s0.63-1.4 0.97-1.4c0.34-0.013 5 0.54 5.6 1s1.8 2.1 1.8 2.4-1.6-1.3-2.5-1.6c-0.98-0.22-5.8-0.46-5.8-0.46z" fill="#594433"/>
 <path d="m307 100c0.8 0.062 1.6 0.33 2 0.8 0.29 0.32 0.3 0.66 0.38 1 0.069 0.42 0.071 0.82-0.069 1.3-0.11 0.25-0.23 0.57-0.59 0.72-0.3 0.16-0.58 0.24-0.92 0.26-1.2 0.14-2.5-0.14-3.5-0.76-0.79-0.53-1.1-1.3-1.1-2 0.03-0.6 0.83-0.95 1.6-1.2 0.7-0.16 1.4-0.17 2.1-0.13z" fill="#fff"/>
 <path d="m319 103c0.3-0.22 0.73-0.36 1.2-0.41 0.55-0.047 1.1 0.1 1.6 0.26 0.52 0.15 1 0.37 1.4 0.64 0.31 0.18 0.67 0.45 0.76 0.73 0.09 0.28 0.047 0.55 0.016 0.74-0.26 0.77-0.77 1.4-1.7 1.6-0.48 0.057-1 0.038-1.5-0.046-0.4-0.064-0.86-0.14-1.2-0.33-0.57-0.23-1-0.64-1.3-1.1-0.53-0.9-9e-3 -1.6 0.74-2.1z" fill="#fff"/>
 <path d="m314 102s-2.4 6.3-3.1 7.3c-0.77 1-1.8 3.4-1.8 3.6 0.045 0.14 1.4 2.9 3.7 2.8 2.2-0.11 3.7-1.8 3.8-2.6 0.061-0.8-2.5-11-2.5-11z" fill="#F2C1B8"/>
 <path d="m307 103c0.4 0.064 0.78-0.21 0.84-0.61 0.064-0.4-0.21-0.78-0.61-0.84-0.4-0.065-0.78 0.21-0.84 0.61-0.064 0.4 0.21 0.78 0.61 0.84z" fill="#000"/>
 <path d="m321 105c0.4 0.065 0.78-0.21 0.84-0.61 0.065-0.4-0.21-0.78-0.61-0.84-0.4-0.064-0.78 0.21-0.84 0.61-0.064 0.4 0.21 0.78 0.61 0.84z" fill="#000"/>
 <path d="m330 106-0.19 1.2c-0.2 1.3-0.42 2.2-0.54 2.5-0.57 1.5-3.2 12-4.3 12s-8.7 7.4-9.9 7.7-8-0.68-9-1.4-7.3-9.3-8-11c-0.73-1.3 0.72-6.6 0.58-7.4-0.14-0.83-0.19-11 0.2-12 0.22-0.98 0.59-4.1 0.75-6.4-0.041 0.67-0.57 14-0.23 15 0.27 1.3 0.16 8.3 0.34 9.6 0.25 1.4 4.7 9 5.5 9 0.82-0.07 1.5-1.7 4.2-1.5 5.4 0.4 4.6 3.1 6 3.6 1.5 0.51 7-5.6 8.1-6.9s3.5-5.6 4-8.7c0.57-3.1 2.6-11 3.2-14 0.8-3.3-0.82 8-0.82 8z" fill="#594433"/>
 <path d="m310 119c-0.066-0.011-0.19-0.098-0.18-0.16-0.055-0.076-0.034-0.21-0.023-0.27l1.1-1.8c0.087-0.12 0.23-0.17 0.42-0.068 0.12 0.087 0.17 0.23 0.068 0.42l-0.84 1.4c1.5-0.03 5.8-0.22 8.1-1.9 0.15-0.11 0.28-0.09 0.4 0.063 0.11 0.15 0.089 0.28-0.064 0.4-1.3 0.87-3.2 1.4-5.7 1.8-1.8 0.18-3.3 0.15-3.3 0.14z" fill="#000"/>
 <path d="m304 145s7.7 3.5 12 4.6c0 0 0.68 4.1-12 0.56-13-3.6-2.2-8-2.2-8l1.7 2.8z" fill="#F7A91E"/>
 <path d="m262 134s0.43 9.9 1.5 11c1.1 1.3 3.3 1.8 4.4-0.062 1.1-1.9 1.4-10 1.1-10-0.31-0.43-2.8-2.5-3.5-2.4-0.68 0.12-3.6 1.7-3.6 1.7z" fill="#594639"/>
 <path d="m265 144s-2.8-1.2-4 2-0.68 16 5.6 14c6.2-1.5-1.6-16-1.6-16z" fill="#15153F"/>
 <path d="m299 148s6.3-3.1 7.4 0.99c0 0-0.31 8.4-4.3 9.3-3.9 0.86-3.7 3.5-6.1 2-2.3-1.4 3-12 3-12z" fill="#F2C1B8"/>
 <path d="m299 153c-0.37 2.8-1.2 3.6-2.8 7.2-2.5 5.5-9.3 11-14 12-4.2 0.8-7 0.43-8.2-0.43-0.93-0.74-2.6-2.6-4.1-4.5-0.62-0.8-1.2-1.6-1.8-2.3-0.93-1.2-1.6-2.3-1.8-2.8-0.56-1.5-0.62-8.3-1.9-14-0.37-1.6-0.56-3.4-0.68-5.1-0.062-0.86-0.12-1.7-0.12-2.5-0.12-3.6 0.12-6.5 0.12-6.5 1.4 0 0.74-6.1 2.7-7.7 0.12-0.12 0.25-0.18 0.43-0.31 0.56-0.37 1.3-0.56 2.2-0.68 2-0.25 5 0.12 9.1 0.18 6.4 0.062 20 8.7 20 8.7s0.62 17 0.25 19z" fill="#FCD8CD"/>
 <path d="m270 167c-0.62-0.8-1.2-1.6-1.8-2.3-0.93-1.2-1.6-2.3-1.8-2.8-0.56-1.5-0.62-8.3-1.9-14-0.37-1.6-0.56-3.4-0.68-5.1-0.061-0.86-0.12-1.7-0.12-2.5-0.12-3.6 0.12-6.6 0.12-6.6 1.4 0 0.74-6.1 2.7-7.7 0.12-0.12 0.25-0.19 0.43-0.31l1.1 0.43-1.7 6.1s-0.43 3.7 0 10c0.43 6.3 0.31 15 0.99 18 0.43 1.9 1.8 5.7 2.7 7.5z" fill="#F2C1B8"/>
 <path d="m268 149s2.2-3.5 5.4-0.49c0 0 1.4 1.8-0.68 2.4-2.1 0.62-4.3 1.2-4.8-1.9z" fill="#fff"/>
 <path d="m284 148c0.12-0.56 2.5-1.4 4.6-0.49 0.43 0.18 0.74 0.49 0.99 0.74 0.37 0.43 0.37 1 0 1.4-0.43 0.49-1.2 1-2.5 1.1-3 0.062-3.5-1.5-3.2-2.8z" fill="#fff"/>
 <path d="m282 158c-0.49-1.8-1.4-3.3-1.4-3.3-0.99-2.5-3.5-5.5-3.5-5.5 0.12 2.5-0.37 5.6-0.62 7.2 0 0-1.9 0.99-1.5 2.3 0.31 1.3 3 1.7 5.6 1 1.4-0.37 1.8-0.99 1.5-1.7z" fill="#F2C1B8"/>
 <path d="m283 145s-0.56-2.4 0-2.6c0.56-0.18 6.8 0.12 8 1.4 1.2 1.2 2.5 2.2 2.2 2.5-0.86 0.68-1.7-2-10-1.3z" fill="#594639"/>
 <path d="m275 145s0.49-2.5 0-2.6c-0.56-0.12-6.8 0.25-8 1.5-1.2 1.3-2.4 2.3-2.2 2.5 0.8 0.8 1.7-1.9 10-1.4z" fill="#594639"/>
 <path d="m303 146c-1.7 1.2-3.8 0.25-5.1-1.1-1.4-1.3-1-5.7-2.8-7.3-1.7-1.5-7.8-4-9.9-3.6-2.2 0.31-7.4 0.56-9.6-0.62s-6.9-0.31-8.6 0.062c-1.7 0.43-3.8 2.9-4.3 3.6 0 0-0.8 2.5-1-3-0.062-1.7 0.43-3.7 1.2-5.6 0.74-1.8 1.8-3.6 2.9-5 1.4-1.9 2.9-3.3 4-3.7 3-1.2 6.4 0.62 10 0.31 3.8-0.37 4.7-0.62 8.1-0.68 4.8-0.12 15 9.4 15 12 0.19 2.8 1.9 13 0.25 14z" fill="#594639"/>
 <path d="m272 150c0.44 0 0.8-0.36 0.8-0.8 0-0.44-0.36-0.8-0.8-0.8-0.44 0-0.8 0.36-0.8 0.8 0 0.44 0.36 0.8 0.8 0.8z" fill="#000"/>
 <path d="m287 150c0.44 0 0.8-0.36 0.8-0.8 0-0.44-0.36-0.8-0.8-0.8-0.44 0-0.8 0.36-0.8 0.8 0 0.44 0.36 0.8 0.8 0.8z" fill="#000"/>
 <path d="m275 163c0.062-0.12 13-2.3 13-2.3l-6 4.9-7.2-2.6z" fill="#fff"/>
 <path d="m300 122c-0.25-0.37-0.49-0.68-0.74-0.99-2-2.7-3.9-3.5-3.9-3.5-2.3-1.1-4.6-1.8-7-2.2-11-1.9-22 3.3-22 3.3-1.5 1.9-3.5 7.7-4.6 12 0.86-0.12 1.9-0.31 3.1-0.43 0.31-0.062 0.56-0.062 0.86-0.12 0-0.12-0.86-2.7 0.56-4.9 1.4-2.3 18-2.3 19-2 1.2 0.31 0.93 6.7 1 6.9 3.2 1.4 7.5 4.3 11 7.1 0.18 0.12 0.43 0.31 0.62 0.43 2.8-5.9 2.2-12 1.5-15z" fill="#F4BC4F"/>
 <path d="m305 142c-1.6-1.2-4-3.1-6.6-4.9 2.7-5.9 2.1-12 1.5-15 0.99 1.5 1.9 3.3 2.8 5.8 0 0 4.4 1.6 5 3.3 0.31 1-1.4 7.2-2.7 11z" fill="#F7A91E"/>
 <path d="m305 142c-0.56 1.5-1.1 2.7-1.4 2.9 0 0-8.6-14-26-13-14 0.5-16 1.4-16 1.6-0.12-0.37 0.062-1.9 0.56-3.6 1.1-0.18 2.5-0.37 4-0.56 6.1-0.8 15-1.6 19-0.74 0.62 0.12 1.4 0.43 2.2 0.74 5.5 2.5 15 9.4 19 13z" fill="#F4BC4F"/>
 <path d="m304 143c-1.2-0.49-2.1-0.56-2.1-0.56-9.7 3.6-7.5 16-7.2 18 0.12 0.56 1 1.2 2.3 1.4 0.12-13 4.7-17 7-18z" fill="#15153F"/>
 <path d="m305 144c-0.31-0.18-0.62-0.37-0.93-0.49-2.3 1.4-6.9 5.7-7 19 0.25 0.062 0.43 0.062 0.68 0.12 2.9 0.25 7.1-1.2 9.2-8 1.8-6.2-0.062-8.9-2-10z" fill="#222157"/>
 <path d="m300 143s5.9-9.8 3.1-16c0 0 0.49-0.062 1.5 0.31 2.6 0.93 0.56 15-2.1 15-0.86 0.12-2.5 0.18-2.5 0.18z" fill="#15153F"/>
 <path d="m289 115c-4.5 0.68-13 2.1-15 3.2-2.5 1.4-5.4 3.3-7 5.4-0.93 1.2-1.4 3.8-1.5 5.9-1.2 0.18-2.2 0.31-3.1 0.43 1.1-3.9 3-9.8 4.6-12-0.061 0 11-5.1 22-3.3z" fill="#F7A91E"/>
 <path d="m70 105s2-7.9 5.5-5.1c3.5 2.9 0.15 18-3.6 15-3.7-2.3-2.8-4.5-2.8-4.5l0.83-5.6z" fill="#F2C1B8"/>
 <path d="m74 103c-1.2 2-26 9.8-36-2 0 0-0.68-17-0.15-19 0.076-0.23 0.53-0.38 1.4-0.53 7-29 32-1.2 32-1.2-1.9-5.1-8.3-12-8.5-12 3.9 2.6 9.6 13 9.6 13 1.1 0.076 1.7 0.23 1.9 0.45 0.98 1.3 0.68 20-0.45 22z" fill="#594433"/>
 <path d="m63 68 0.15-0.075-0.15 0.075z" fill="#000"/>
 <path d="m66 124c-5.2 3.2-14-0.76-19-3.9-1.7-1.1-2.9-2.1-3-2.6-0.61-2-2.4-33-2.4-33 0.61-0.23 1.4-0.45 2.4-0.68 8.3-1.9 27-1.7 27-0.3 0.61 1.6 0.98 30 0.98 30s0.76 6.5-6.4 11z" fill="#FCD8CD"/>
 <path d="m47 120c-1.7-1.1-2.9-2.1-3-2.6-0.61-2-2.4-33-2.4-33 0.61-0.23 1.4-0.45 2.4-0.68 0.23 6.9 1.1 31 3 37z" fill="#F2C1B8"/>
 <path d="m73 113c-1.2 1.5-2.5 2.8-3.7 3.8-1.4-2.7-4.7-4-9.2-4-4.2 0-6.7 3-7.3 4.5-5.4-3.4-8.9-8.9-8.9-8.9 0.61 38 24 32 27 23 2.6-7.6 1.8-19 1.8-19zm-18 5.6c2.1-2.1 7.8-6.7 13 0.15 0.45 0.61 0.3 1.4-0.3 1.8-2.2 1.5-7.6 4.5-13-0.15-0.45-0.45-0.53-1.3 0-1.8z" fill="#594433"/>
 <path d="m44 108c0.076 3 0.23 5.6 0.53 8 0.076 0 0.15 0.076 0.15 0.076-0.15-1.5-0.45-4.5-0.68-8.1z" fill="#333"/>
 <path d="m60 98s3.9 8.5 5 10c1.1 1.6 4.7 1.8 1.4 4.2-3.3 2.3-7.1 1.4-8.2 0.76-1.1-0.76 0.76-11 1.9-15z" fill="#F2C1B8"/>
 <path d="m44 116c-0.076 0-0.15 0-0.15-0.076-4.7-1.6-7.5-7.6-7-13 0.45-5.9 6.1 0.91 6.2 0.98 0.076 1.6 0.23 3 0.3 4.5 0.23 3.7 0.53 6.7 0.68 8.1z" fill="#F2C1B8"/>
 <path d="m61 119c-2 0-3.6-0.6-4.4-0.91h-0.076 0.076v-0.53c0.076 0 0.076 0 0.23 0.076 1.3 0.6 4.8 1.7 8.7-0.15l0.23 0.45c-1.7 0.83-3.4 1.1-4.8 1.1z" fill="#000"/>
 <path d="m64 101s1.1 3 4.3 3.3c0 0-3 0.45-4.8-3.2l0.45-0.15z" fill="#F2C1B8"/>
 <path d="m57 103s-0.53 4.2-4.6 5.4c0 0 3.9-0.15 5.3-5.3l-0.68-0.15z" fill="#F2C1B8"/>
 <path d="m56 92s-0.98 3.1-3.9 4.1c-3 0.91-6 0.61-7 1.9-1.1 1.2 5.2-4.2 5.2-4.2l5.7-1.7z" fill="#F2C1B8"/>
 <path d="m57 91s0.53 2.9-1.2 3.5c-1.7 0.53-8.2 0.61-11 5.1 0-0.076 2.5-7 13-8.5z" fill="#333"/>
 <path d="m61 103s4.1 6.4 3.3 6.7c-0.76 0.38-2.4-4.7-3.3-6.7z" fill="#FBDDDA"/>
 <path d="m49 104c2 1.4 6.4 1.9 7.4-1.3 0.15-0.61 0.23-1.3 0.15-2.1 0 0-2.3-2.8-7.3 0.3-1.7 1.1-1.4 2.3-0.23 3.1z" fill="#fff"/>
 <path d="m53 103c0.79 0 1.4-0.64 1.4-1.4s-0.64-1.4-1.4-1.4c-0.79 0-1.4 0.64-1.4 1.4s0.64 1.4 1.4 1.4z" fill="#333"/>
 <path d="m65 102c1.7 2.2 6.5 0 5.4-1.8-0.15-0.23-0.38-0.45-0.68-0.61-3.7-2.2-5.2 0-5.2 0-0.15 1.1 0.076 1.9 0.53 2.4z" fill="#fff"/>
 <path d="m67 102c0.63 0 1.1-0.51 1.1-1.1 0-0.63-0.51-1.1-1.1-1.1s-1.1 0.51-1.1 1.1c0 0.63 0.51 1.1 1.1 1.1z" fill="#333"/>
 <path d="m64 95s5.4 2.8 7 2c1.7-0.83-6.7-2-7-2z" fill="#F2C1B8"/>
 <path d="m63 93s-0.15 2.3 1.2 2.5c1.4 0.23 6.4-0.38 9.2 2.7 0 0-2.6-5-10-5.2z" fill="#333"/>
 <path d="m109 166c-1.1 2.1-9.6 9.2-11 10-0.56 0.32-2 0.56-3.6 0.72-2.1 0.08-4.3 0-5.5-0.48-1.9-0.88-7-8.8-8.6-11-0.72-1-1.8-4.2-2.7-7.9-1.4-5.1-2.7-11-2.8-12 0 0 1-13 2.3-14 0.48-0.4 1.8-1 3.1-1.7 1.9-0.88 4.1-1.8 4.8-2.2 1.3-0.56 17 1.7 18 1.8s14 12 13 16c-0.8 3.6-4.9 17-7.3 21z" fill="#FCD8CD"/>
 <path d="m95 177c-2.1 0.08-4.3 0-5.5-0.48-1.9-0.88-7-8.8-8.6-11-0.72-1-1.8-4.2-2.7-7.9-1.4-5.1-2.7-11-2.8-12 0 0 1-13 2.3-14 0.48-0.4 1.8-1 3.1-1.7-0.96 6.3-2.3 16-1.8 18 0.8 4.2 2.7 17 6.1 20s3.7 7.1 8.6 7.5c0.72 0.02 1.1 0.42 1.2 0.98z" fill="#F2C1B8"/>
 <path d="m90 150s-4.1 8.8-3.3 11 8.8 0.56 8.8-1.4c0-4.3-5.5-9.3-5.5-9.3z" fill="#F2C1B8"/>
 <path d="m77 139c0.16 0.16 6 1.7 14-0.16 0 0-4.7 0.32-6.7-0.48 0 0 21 0.16 24-3.6 3.5-3.8-10-4.2-10-4.2l-21 1.7-0.49 6.7z" fill="#8C7567"/>
 <path d="m84 151c0.53 0 0.96-0.43 0.96-0.96s-0.43-0.96-0.96-0.96-0.96 0.43-0.96 0.96 0.43 0.96 0.96 0.96z" fill="#333"/>
 <path d="m100 149c0.53 0 0.96-0.43 0.96-0.96s-0.43-0.96-0.96-0.96c-0.53 0-0.96 0.43-0.96 0.96-0.01 0.53 0.42 0.96 0.96 0.96z" fill="#333"/>
 <path d="m77 148c0.88-0.96 6.9-1.8 9.1-1.3 1.1 0.32 1 5.5 0.24 6.4-1.1 1.4-6.4 3-8.2 1-1.8-1.9-1.9-5.4-1.1-6.2z" fill="#fff" opacity=".5"/>
 <path d="m105 144c-1.3-1.1-9.7 0.72-11 2.2-0.88 0.72 0.32 5.3 1.3 6.1 1.4 1 9.2 0.24 11-2.1 1.3-2.2 0.57-5.4-0.31-6.2z" fill="#fff" opacity=".5"/>
 <path d="m110 146c-0.16-0.72-0.32-1.8-0.48-2.6l-2.2-0.16c-4.1-1.5-13 0.8-15 2.2-1.5 1-3.6 0.8-5.5 0.64-2.3-0.16-8 0.16-12 1.7-0.32 0.16-0.56 0.24-0.88 0.4 0 0 0.08 2.3 0.48 3 0 0.08 0.08 0.08 0.16 0.16 0.56 0.4 0.8 0.16 1.4 1.8s1.6 3.6 4.9 3.6c2.9 0 5-0.88 6.1-2.3 1.1-1.4 1-4.2 1.4-4.9 0.64-1.3 1.5-1.4 2.5-0.24 0.48 0.56 1 3.3 2.4 4.5 1.4 1.1 6 0.16 8.8-0.48 3.2-0.72 3.8-2.8 3.9-4.6 0.16-1.7 0.48-1.5 0.96-2.1 0.08-0.16 0.16-0.4 0.16-0.64l2.4-0.08zm-23 7.8c-1.1 1.4-6.4 3-8.2 1-1.8-2-1.9-5.3-1-6.1 0.88-0.96 6.9-1.8 9.1-1.3 1.1 0.24 0.96 5.4 0.16 6.3zm18-3c-1.3 2.3-9.2 3.1-11 2.1-0.96-0.8-2.2-5.4-1.3-6.1 1.8-1.4 10-3.3 11-2.2 0.87 0.72 1.6 3.8 0.31 6.2z" fill="#333"/>
 <path d="m89 174c-0.32 0-1.7-0.48-1.8-0.16-0.16 0.8 0.96 2.4 1.6 2.9 0.96 0.64 12 0 12-1.8 0-1.8 0.16-2.2-0.72-2.5s-4.6 1.2-5.9 1.4c-1.3 0.25-3.6 0.01-5.2 0.09z" fill="#8C7567"/>
 <path d="m88 167 12-3.7-7.5 5-4.3-1.3z" fill="#fff"/>
 <path d="m92 142s-0.64-1.9-0.16-2.2 9.9-1 12 2.2c-4.3-0.48-9.5 0.08-12 0z" fill="#8C7567"/>
 <path d="m84 143s0-2.1-0.48-2.2c-0.56-0.08-7.5 0.88-8.5 4.5 4-1.6 6.9-1.6 9-2.3z" fill="#8C7567"/>
 <path d="m107 135s3.3 8.9 2.7 14c0 0 1.8-5.4 1.8-7.5 0 0 0.09 6.2 0 7.5 0 0 2.2-9.5 1.6-13-0.67-3.1-4.4-3.3-4.4-3.3l-1.6 1.7z" fill="#8C7567"/>
 <path d="m115 145-3.4-4.3 3-3.9 2.5 5.4-2 2.8z" fill="#8C7567"/>
 <path d="m116 142c-11-13-14-9.6-14-9.6l-26 4.9s-3-14 2.3-18c2.2-1.8 6.5-3.6 11-4.6 6.8-1.4 15-1.5 19 1.4 9.6 6 9 28 7.7 26z" fill="#F4BC4F"/>
 <path d="m89 115c-6.5 6.7-7.8 18-8.3 22l-5.4 0.99s-3-14 2.3-18c2.2-1.8 6.5-3.6 11-4.6z" fill="#CCA256"/>
 <path d="m94 126s18 10 21 17-4.5-19-6.5-20c-2-0.85-7.2-3.3-9-2.6-1.8 0.67-5.4 5.2-5.4 5.2z" fill="#F4BC4F"/>
 <path d="m106 134c-5.1 0.32-15-0.83-23 3-1.8 0.8-5.4 1.5-7.2 2.7 0 0 0.3 0.13-1.9-0.44-7.5-1.8-23-6.5-7.5-12 4.5-1.7 8.3-3.1 11-4.2 0.24-0.08 0.4-0.16 0.64-0.24 9.9-3 15-2.2 22 5.6 0.42 0.43 0.95 0.74 1.3 1.2 1.5 1.8 2.4 3.4 4 4.5z" fill="#D16978"/>
 <path d="m83 137c-1.8 0.8-5.4 1.5-7.1 2.7 0 0 0.22 0.13-2-0.44-7.5-1.8-23-6.5-7.5-12 4.5-1.7 8.3-3.1 11-4.2-2.2 3-3.6 7.2 1.1 11 1.4 1.1 2.7 2.3 3.9 3.6z" fill="#B25267"/>
 <path d="m113 142s6.5-5.6 6.8 1.3-4.8 10-6.9 11c-2.1 0.33 0.08-12 0.08-12z" fill="#FCD8CD"/>
 <defs>
  <clipPath id="a">
   <rect width="377" height="238" rx="5" fill="#fff"/>
  </clipPath>
 </defs>
</svg>
