<svg width="482" height="269" fill="none" version="1.1" viewBox="0 0 482 269" xmlns="http://www.w3.org/2000/svg">
 <g clip-path="url(#a)">
  <rect transform="matrix(-1 0 0 1 482 0)" width="482" height="269" fill="#E9E9F4"/>
  <path d="m-38 210h555v59h-555v-59z" fill="#E5E5F1" stroke="#C7C7DC" stroke-miterlimit="10"/>
  <path d="m55 19h87v147h-87v-147z" fill="#F4F4FA" stroke="#C7C7DC" stroke-miterlimit="10"/>
  <path d="m51 159h94v12h-94v-12z" fill="#DFDFF0" stroke="#C7C7DC" stroke-miterlimit="10"/>
  <path d="m55 19h87v5.7h-87v-5.7z" fill="#DFDFF0" stroke="#C7C7DC" stroke-miterlimit="10"/>
  <path d="m55 56h87v5.7h-87v-5.7z" fill="#DFDFF0" stroke="#C7C7DC" stroke-miterlimit="10"/>
  <path d="m55 159v-134h5.7v134h-5.7z" fill="#DFDFF0" stroke="#C7C7DC" stroke-miterlimit="10"/>
  <path d="m136 159v-134h5.7v134h-5.7z" fill="#DFDFF0" stroke="#C7C7DC" stroke-miterlimit="10"/>
  <path d="m335 141v-116h-147v116h147z" fill="#DFDFF0" stroke="#C7C7DC" stroke-miterlimit="10"/>
  <path d="m335 141v-4.3h-147v4.3h147z" fill="#fff" stroke="#C7C7DC" stroke-miterlimit="10"/>
  <path d="m325 137v-11h-25v11h25z" fill="#C7C7DC" stroke="#C7C7DC" stroke-miterlimit="10"/>
  <path d="m270 64v-16h-17v16h17z" fill="#F4F4FA" stroke="#C7C7DC" stroke-miterlimit="10"/>
  <path d="m298 64v-16h-17v16h17z" fill="#F4F4FA" stroke="#C7C7DC" stroke-miterlimit="10"/>
  <path d="m318 67v-16h-17v16h17z" fill="#F4F4FA" stroke="#C7C7DC" stroke-miterlimit="10"/>
  <path d="m248 70v-16h-17v16h17z" fill="#F4F4FA" stroke="#C7C7DC" stroke-miterlimit="10"/>
  <path d="m217 50-3.8-16-16 4 3.8 16 16-4z" fill="#F4F4FA" stroke="#C7C7DC" stroke-miterlimit="10"/>
  <path d="m283 103v-16h-17v16h17z" fill="#F4F4FA" stroke="#C7C7DC" stroke-miterlimit="10"/>
  <path d="m262 105v-16h-17v16h17z" fill="#F4F4FA" stroke="#C7C7DC" stroke-miterlimit="10"/>
  <path d="m237 97v-16h-17v16h17z" fill="#F4F4FA" stroke="#C7C7DC" stroke-miterlimit="10"/>
  <path d="m381 19h87v147h-87v-147z" fill="#F4F4FA" stroke="#C7C7DC" stroke-miterlimit="10"/>
  <path d="m377 159h94v12h-94v-12z" fill="#DFDFF0" stroke="#C7C7DC" stroke-miterlimit="10"/>
  <path d="m381 19h87v5.7h-87v-5.7z" fill="#DFDFF0" stroke="#C7C7DC" stroke-miterlimit="10"/>
  <path d="m381 56h87v5.7h-87v-5.7z" fill="#DFDFF0" stroke="#C7C7DC" stroke-miterlimit="10"/>
  <path d="m381 159v-134h5.7v134h-5.7z" fill="#DFDFF0" stroke="#C7C7DC" stroke-miterlimit="10"/>
  <path d="m462 159v-134h5.7v134h-5.7z" fill="#DFDFF0" stroke="#C7C7DC" stroke-miterlimit="10"/>
  <path d="m124 211h2.7v22h-2.7v-22z" fill="#F4F4FA" stroke="#C7C7DC" stroke-miterlimit="10"/>
  <path d="m97 190 2.5-0.98 4.1 11-2.5 0.98-4.1-11z" fill="#F4F4FA" stroke="#C7C7DC" stroke-miterlimit="10"/>
  <path d="m150 204-2.5-0.98 4.1-11 2.5 0.98-4.1 11z" fill="#F4F4FA" stroke="#C7C7DC" stroke-miterlimit="10"/>
  <path d="m122 191h6.2v14h-6.2v-14z" fill="#F4F4FA" stroke="#C7C7DC" stroke-miterlimit="10"/>
  <path d="m109 253c-2.6 0-4.8-2.1-4.8-4.8s2.1-4.8 4.8-4.8c2.6 0 4.8 2.1 4.8 4.8s-2.1 4.8-4.8 4.8z" fill="#F4F4FA" stroke="#C7C7DC" stroke-miterlimit="10"/>
  <path d="m109 250c-1.1 0-1.9-0.86-1.9-1.9 0-1.1 0.86-1.9 1.9-1.9 1.1 0 1.9 0.86 1.9 1.9 0 1.1-0.86 1.9-1.9 1.9z" fill="#F4F4FA" stroke="#C7C7DC" stroke-miterlimit="10"/>
  <path d="m146 248c0 2.6-2.1 4.8-4.8 4.8-2.6 0-4.8-2.2-4.8-4.8s2.1-4.8 4.8-4.8c2.6 0.039 4.8 2.2 4.8 4.8z" fill="#F4F4FA" stroke="#C7C7DC" stroke-miterlimit="10"/>
  <path d="m143 248c0 1.1-0.88 2-1.9 2s-2-0.88-2-2 0.88-2 2-2c1.1 0.04 1.9 0.88 1.9 2z" fill="#F4F4FA" stroke="#C7C7DC" stroke-miterlimit="10"/>
  <path d="m111 241c1.5-4.3 6.6-6.6 6.6-6.6 0.44-0.2 8.4-3.6 15 0.64 1.4 0.88 2.7 2.8 5.6 6.7 0.04 0.08 0.2 0.28 0.16 0.36-0.32 0.4-5.5-6.4-12-7-7.1-0.64-14 5.9-14 6.3 0 0-0.12 0.2-0.28 0.32-0.16 0.12-0.44 0.2-0.56 0.12-0.24-0.16-0.04-0.72 0-0.88z" fill="#F4F4FA" stroke="#C7C7DC" stroke-miterlimit="10"/>
  <path d="m106 211c27 2.9 29-1.1 39 1.5 1.5 0.4 4.5 1.3 6.5-0.28 2.1-1.6 2.8-5.9 1.2-8.5-3.3-5.3-13 1.4-30-2.4-9.8-2.3-14-6.5-19-4-4.3 2.1-7.4 7.8-5.8 11 0.99 2 3.8 2.4 7.8 2.8z" fill="#F4F4FA" stroke="#C7C7DC" stroke-miterlimit="10"/>
  <path d="m101 153c-1.4 4.1-5.6 17 2.1 29 0.72 1.1 9.6 14 25 13 10-0.72 18-7.2 22-15 6-12 0.92-27-8.3-35-9.6-8.2-25-11-34-3.3-4.1 3.3-5.5 7.7-6.9 12z" fill="#F4F4FA" stroke="#C7C7DC" stroke-miterlimit="10"/>
  <path d="m92 185c2.1-3.6 11-3.5 12 0 0.84 1.7 0.12 4-1.1 5.3-2.9 3.3-9.9 2.1-11-1.4-0.52-1.2-0.48-2.7 0.2-3.9z" fill="#F4F4FA" stroke="#C7C7DC" stroke-miterlimit="10"/>
  <path d="m148 187c0.32-0.24 1.3-0.92 5.6-0.52 4.1 0.36 6.1 0.52 6.7 1.8 0.76 1.6-1.1 4.4-3.2 5.7-3.8 2.3-10 0.76-11-2.3-0.44-1.6 0.44-3.5 1.8-4.6z" fill="#F4F4FA" stroke="#C7C7DC" stroke-miterlimit="10"/>
  <path d="m324 93c-1.4-5.7-7-9.9-13-11-8-1.5-17 3.1-20 12-2.7 9.6 4.2 19 12 21 11 2.5 23-11 21-22z" stroke="#C7C7DC" stroke-miterlimit="10"/>
  <path d="m314 102c-0.44 0.56-3.3 4.1-8.1 4.2-4.3 0.12-8.3-2.5-10-6.7" stroke="#C7C7DC" stroke-miterlimit="10"/>
  <path d="m311 89c-0.039 0-0.72 0.04-0.99 0.52-0.36 0.64 0.079 1.6 0.56 1.7 0.72 0.2 1.8-1.1 1.5-1.7-0.2-0.4-0.92-0.48-1.1-0.48z" stroke="#C7C7DC" stroke-miterlimit="10"/>
  <path d="m304 90c-0.24-0.44-1.8-0.44-2.3 0.4-0.28 0.4-0.36 1.1-0.039 1.3 0.4 0.36 1.3-0.08 1.8-0.56 0.28-0.24 0.76-0.84 0.56-1.2z" stroke="#C7C7DC" stroke-miterlimit="10"/>
  <path d="m313 88c-0.92-0.92-2.1-1.3-2.9-0.92-0.2 0.08-0.44 0.24-0.72 0.56" stroke="#C7C7DC" stroke-miterlimit="10"/>
  <path d="m303 88c-0.88 0.32-1.8 0.64-2.6 0.92" stroke="#C7C7DC" stroke-miterlimit="10"/>
  <path d="m306 93c-0.8 1.4-3.1 5.5-2 6.6 0.2 0.2 0.6 0.32 1.4 0.16" stroke="#C7C7DC" stroke-miterlimit="10"/>
  <path d="m453 191c0.2-1.6-23-40-23-51 0-0.12-0.039-0.36-0.039-0.6-0.2-2.8-0.68-12 1.6-13 0.56-0.16 1.4 0.16 1.9 0.72 1.1 1.1 0.64 3 0.52 3.7-0.68 3.6 0.4 7.3 0.16 11-0.32 4.5 2.7 11 8.8 24 2.4 5.1 10 21 15 25 0.36 0.24 1.6 1 1.4 1.6-0.2 0.8-2.7 1-4.4 0.36-0.36-0.16-1.5-0.6-1.6-1.4 0-0.16 0.04-0.28 0.04-0.28z" fill="#DFDFF0" stroke="#C7C7DC" stroke-miterlimit="10"/>
  <path d="m470 190c8.6-6.5 4.9-28 2.1-44-3.8-21-7.5-25-4.8-34 1.1-3.7 4.2-12 1.6-13-0.76-0.56-1.9-0.52-2.7-0.28-4.1 1.4-4.2 11-4.2 15-0.04 13 3.6 17 6.6 33 2.9 15 4.7 24 0.8 34-1.7 4.4-5.2 11-3.7 12 1.1 0.8 4-1.4 4.3-1.6z" fill="#DFDFF0" stroke="#C7C7DC" stroke-miterlimit="10"/>
  <path d="m437 188h43v44h-43v-44z" fill="#DFDFF0" stroke="#C7C7DC" stroke-miterlimit="10"/>
  <path d="m403 93c0.44-1 19 1.1 26 14 4.8 8.5 4.6 21 3.5 22h-0.08c-1.6-0.24-5.6-15-11-23-7.2-10-19-12-18-13z" fill="#C7C7DC" stroke="#C7C7DC" stroke-miterlimit="10"/>
  <path d="m432 132c0.8-1.1-5.8-9.2-16-13-4.2-1.7-11-4.4-18-1.1-5.5 2.8-7.4 8.2-7.7 8.9-1.7 4.9-0.48 9.6 0 9.7 0.56 0-0.48-5.8 2.8-9.4 3.7-4.1 11-3.2 16-2.5 14 1.9 22 8.6 23 7.5z" fill="#C7C7DC" stroke="#C7C7DC" stroke-miterlimit="10"/>
  <path d="m456 115c-2.1-2.7-9.1-1.1-13 1.3-7.6 4.2-9.5 12-10 14-0.36 1.5-0.6 3.1-0.28 3.2 0.68 0.24 2.2-6.3 7.6-11 3.7-3.2 9.3-5.5 11-3.7 2.4 2.2-2.3 9.7-1.2 10 1.1 0.6 6.6-5 6.8-12 0-1.2 0-2.2-0.68-3z" fill="#C7C7DC" stroke="#C7C7DC" stroke-miterlimit="10"/>
  <path d="m432 93c-1.5 1.2 3.7 6.1 4 14 0.12 3.2-1.1 8.8-3.5 20-0.32 1.4-0.52 2.4-0.32 2.5 0.56 0.2 5.1-7.6 6.8-17 1.1-5.9 2.4-13-1.7-17-1.7-1.8-4.3-3.1-5.3-2.4z" fill="#C7C7DC" stroke="#C7C7DC" stroke-miterlimit="10"/>
  <path d="m415 109c6.4 3.3 13 6.7 16 14 1.4 3.1 2.1 6.8 1.4 7-0.84 0.36-3-5.1-7.8-10-8.7-9.7-21-14-25-11-0.48 0.44-1.1 1.4-1.3 1.2-0.4-0.2 0.2-3.3 1.8-4.6 3-2.5 9.5 0.92 15 3.6z" fill="#C7C7DC" stroke="#C7C7DC" stroke-miterlimit="10"/>
  <path d="m453 140c-0.92-5.5-10-7.8-14-8.8-3.4-0.84-7-1.2-7.2-0.6-0.2 0.76 6.5 1.5 12 6.8 4.3 4.2 5.1 8.5 7 8.2 1.5-0.2 2.9-3.1 2.5-5.7z" fill="#C7C7DC" stroke="#C7C7DC" stroke-miterlimit="10"/>
  <path d="m433 128c1.8-1.6 7.1-2.6 11-1.5 0.12 0.04 3.1 0.96 2.7 1.8-0.76 1.6-13 2.1-14 0.76-0.28-0.36 0.16-0.72 0.56-1.1z" fill="#C7C7DC" stroke="#C7C7DC" stroke-miterlimit="10"/>
  <path d="m417 117c-0.56 0.84 3.9 3.1 11 12 1.2 1.3 2.5 2.9 3 2.7 0.76-0.36 0.16-3.8-1.1-6.2-3.3-6.6-12-9.3-13-8.1z" fill="#C7C7DC" stroke="#C7C7DC" stroke-miterlimit="10"/>
  <path d="m423 134c-0.64-1.2 6.3-5.4 8.5-4.3 0.88 0.44 0.96 1.7 0.6 2.5-1.2 2.7-8.6 2.9-9.1 1.8z" fill="#C7C7DC" stroke="#C7C7DC" stroke-miterlimit="10"/>
  <path d="m467 100c-1.1-0.56 0.64-12 9.4-19 8.2-5.8 20-4.8 26 0.8 1.6 1.7 3.1 4.2 2.5 4.8-0.8 0.88-4.7-4.1-10-4.9-9.5-1.4-19 9.1-22 13-3.1 3.4-4.3 5.6-4.7 5.3z" fill="#C7C7DC" stroke="#C7C7DC" stroke-miterlimit="10"/>
  <path d="m467 103c-0.32-1.4 11-8.9 22-5 12 4.3 17 21 15 22-0.12 0.08-0.44 0.2-2.4-1.3-6.6-5-8.1-10-11-13-7.2-7.6-24-0.88-24-2.5z" fill="#C7C7DC" stroke="#C7C7DC" stroke-miterlimit="10"/>
  <path d="m466 101c-0.04 0.04-6.9-19-15-19-5.4 0.24-9.9 8.6-9.1 9.4 0.4 0.44 2.2-1.5 5.8-2.3 4.9-1 9.1 0.92 9.9 1.3 6.4 3.2 8.6 10 8.6 11z" fill="#C7C7DC" stroke="#C7C7DC" stroke-miterlimit="10"/>
  <path d="m465 103c0.44-0.92-8.6-10-16-6.9-6.4 2.8-8.5 13-6.4 15 0.68 0.52 1.9 0.2 2.5-0.12 3.1-1.6 1.3-7 3.8-9.5 4.1-4.1 16 2.7 16 1.7z" fill="#C7C7DC" stroke="#C7C7DC" stroke-miterlimit="10"/>
  <path d="m468 105c0.08-0.84 13-3.7 19 3.6 2.9 3.7 3.8 10 1.1 14-0.68 0.92-2.1 2.3-2.9 2-1.7-0.72 1.9-7.4-0.52-12-3.4-6.9-16-6.2-16-7z" fill="#C7C7DC" stroke="#C7C7DC" stroke-miterlimit="10"/>
  <path d="m463 70v0.8c0.28 13 1.8 31 3.2 31 1.1 0 2.6-10 1.8-20-0.76-9.2-3.5-18-4.5-18-0.36 0.12-0.68 1.3-0.52 6.9z" fill="#C7C7DC" stroke="#C7C7DC" stroke-miterlimit="10"/>
  <path d="m470 97c0.12-0.08 0.16-0.16 0.2-0.16 7.4-6.2 17-6.7 17-6.7 5-0.24 10 1 10 1.9 0 1-7.5-0.28-16 3.7-6.7 2.9-11 7.3-13 5.9-0.8-0.64-1.1-2.3-0.52-3.1 0.4-0.52 1.2-0.52 2.6-1.6z" fill="#C7C7DC" stroke="#C7C7DC" stroke-miterlimit="10"/>
  <path d="m454 91c0.56-0.8 4.5 0.68 7 3 3.1 2.8 4.7 7.2 3.8 7.8-1.4 1.1-12-9.3-11-11z" fill="#C7C7DC" stroke="#C7C7DC" stroke-miterlimit="10"/>
  <path d="m467 102c0.56-0.44 6.4 3.4 6.4 8.6 0 2.6-1.5 5.7-3 5.8-0.84 0-1.7-0.92-2-1.8-0.56-1.6 0.68-2.7 1.1-4.5 1-4.1-3-7.7-2.5-8.1z" fill="#C7C7DC" stroke="#C7C7DC" stroke-miterlimit="10"/>
  <path d="m464 101c-0.2-0.64-6.2-0.68-8.7 3-2.1 3.1-0.92 7.5-0.2 7.6 0.6 0.08 0.52-3.1 3-6.3 2.7-3.3 6-3.9 5.8-4.3z" fill="#C7C7DC" stroke="#C7C7DC" stroke-miterlimit="10"/>
  <path d="m27 242h-2.5l3.7-62h6.3l-7.5 62z" fill="#F4F4FA" stroke="#C7C7DC" stroke-miterlimit="10"/>
  <path d="m69 242h2.5l-3.7-62h-6.2l7.4 62z" fill="#F4F4FA" stroke="#C7C7DC" stroke-miterlimit="10"/>
  <path d="m3 174h88v11h-88v-11z" fill="#F4F4FA" stroke="#C7C7DC" stroke-miterlimit="10"/>
  <path d="m81 167h-69c-3.2 0-5.8-2.2-5.8-5v-47c0-2.7 2.6-5 5.8-5h69c3.2 0 5.8 2.2 5.8 5v47c0 2.7-2.6 5-5.8 5z" fill="#fff" stroke="#C7C7DC" stroke-linecap="round" stroke-linejoin="round"/>
  <path d="m38 173h18l-1.6-6.5h-15l-1.6 6.5z" fill="#fff" stroke="#C7C7DC" stroke-linecap="round" stroke-linejoin="round"/>
  <path d="m30 174h33c0.59 0 0.75-0.8 0.22-1-0.068-0.03-0.14-0.046-0.22-0.046h-33c-0.074 0-0.15 0.016-0.22 0.046-0.54 0.23-0.37 1 0.22 1z" fill="#fff" stroke="#C7C7DC" stroke-linecap="round" stroke-linejoin="round"/>
  <path d="m87 157h-81v-45c0-1.7 1.3-3 3-3h75c1.7 0 3 1.3 3 3v45z" fill="#C7C7DC" stroke="#C7C7DC" stroke-linecap="round"/>
  <path d="m47 112c-0.3 0-0.54-0.24-0.54-0.54s0.24-0.54 0.54-0.54c0.3 0 0.54 0.24 0.54 0.54s-0.24 0.54-0.54 0.54z" fill="#fff"/>
  <ellipse transform="matrix(-1 0 0 1 47 162)" rx="1.6" ry="1.6" fill="#C7C7DC"/>
  <rect transform="matrix(-1 0 0 1 83 114)" width="73" height="39" fill="#FFF5DD" stroke="#C7C7DC" stroke-linecap="round" stroke-linejoin="round"/>
  <path d="m232 12h3l6.9 13-0.12-13h3v0.27c-0.12 0.12-0.2 0.25-0.24 0.39-0.02 0.14-0.03 0.38-0.03 0.72v17h-2.6l-7.1-14v14h-2.7v-19zm21 19c-1.3 0-2.4-0.3-3.4-0.9-0.98-0.62-1.8-1.5-2.3-2.6-0.56-1.1-0.84-2.4-0.84-3.8 0-1.4 0.28-2.6 0.84-3.7 0.58-1.1 1.4-2 2.3-2.6 1-0.64 2.1-0.96 3.4-0.96 1.2 0 2.4 0.32 3.3 0.96 1 0.62 1.8 1.5 2.4 2.6 0.58 1.1 0.87 2.3 0.87 3.7 0 1.4-0.29 2.7-0.87 3.8s-1.4 1.9-2.4 2.6c-0.98 0.62-2.1 0.93-3.3 0.93zm0-2.4c1 0 1.9-0.45 2.5-1.4s0.99-2.1 0.99-3.5c0-1.5-0.33-2.6-0.99-3.5s-1.5-1.3-2.5-1.3-1.9 0.44-2.5 1.3-0.99 2-0.99 3.5c0 1.4 0.32 2.6 0.96 3.5 0.66 0.9 1.5 1.4 2.6 1.4zm10 2.2-2.6-14h2.6l1.8 10 2.1-8.6h1.6l2.5 8.5c0.2-1.5 0.36-2.7 0.48-3.7 0.14-1 0.24-1.8 0.3-2.5 0.08-0.66 0.13-1.2 0.15-1.7 0.02-0.5 0.03-0.97 0.03-1.4v-0.69h2.6c-0.22 2.3-0.53 4.6-0.93 7-0.38 2.4-0.79 4.7-1.2 6.9h-2.6l-2.1-8-2 8h-2.6zm18 0.3c-1.5 0-2.7-0.35-3.6-1-0.84-0.72-1.3-1.6-1.3-2.8 0-1.5 0.67-2.7 2-3.6 1.3-0.94 3.2-1.4 5.5-1.4 0.26 0 0.55 0.01 0.87 0.03 0.32 0 0.66 0.01 1 0.03-0.14-1.3-0.5-2.2-1.1-2.6s-1.4-0.69-2.4-0.69c-0.64 0-1.3 0.11-1.9 0.33-0.58 0.22-1.2 0.6-1.7 1.1l-1.6-1.8c0.76-0.72 1.6-1.2 2.5-1.6 0.92-0.32 1.9-0.48 2.8-0.48 1.2 0 2.2 0.19 3.2 0.57s1.7 1 2.2 2c0.54 0.92 0.81 2.2 0.81 3.9v7.8h-3.1v-1.7c-0.52 0.8-1.2 1.3-1.9 1.6-0.74 0.28-1.5 0.42-2.4 0.42zm-1.9-4.2c0 0.7 0.22 1.2 0.66 1.5 0.46 0.28 1 0.42 1.7 0.42 1.2 0 2.2-0.36 2.8-1.1 0.7-0.74 1.1-1.8 1.2-3.3-0.32-0.02-0.65-0.03-0.99-0.03-0.34-0.02-0.64-0.03-0.9-0.03-1.5 0-2.7 0.23-3.4 0.69-0.74 0.44-1.1 1.1-1.1 1.9zm18 4.2c-0.98 0-1.9-0.27-2.8-0.81s-1.6-1.4-2.1-2.4c-0.54-1.1-0.81-2.5-0.81-4.1s0.27-3 0.81-4 1.2-1.8 2.1-2.4 1.8-0.78 2.8-0.78c0.8 0 1.5 0.16 2.1 0.48 0.62 0.3 1.1 0.77 1.4 1.4v-7.7h3.2v0.27c-0.1 0.12-0.17 0.25-0.21 0.39-0.02 0.14-0.03 0.38-0.03 0.72v17c0 0.32 0.01 0.64 0.03 0.96 0.04 0.32 0.13 0.65 0.27 0.99h-2.9c-0.14-0.34-0.22-0.63-0.24-0.87s-0.03-0.52-0.03-0.84c-0.84 1.4-2.1 2-3.7 2zm0.51-2.5c1.1 0 1.8-0.43 2.3-1.3s0.72-2 0.72-3.6c0-1.5-0.25-2.7-0.75-3.6s-1.3-1.3-2.4-1.3c-1 0-1.8 0.43-2.4 1.3-0.54 0.84-0.81 2-0.81 3.4 0 1.6 0.31 2.8 0.93 3.7s1.4 1.4 2.4 1.4zm14 2.5c-1.5 0-2.7-0.35-3.6-1-0.84-0.72-1.3-1.6-1.3-2.8 0-1.5 0.67-2.7 2-3.6 1.3-0.94 3.2-1.4 5.5-1.4 0.26 0 0.55 0.01 0.87 0.03 0.32 0 0.66 0.01 1 0.03-0.14-1.3-0.5-2.2-1.1-2.6s-1.4-0.69-2.4-0.69c-0.64 0-1.3 0.11-1.9 0.33-0.58 0.22-1.2 0.6-1.7 1.1l-1.6-1.8c0.76-0.72 1.6-1.2 2.5-1.6 0.92-0.32 1.9-0.48 2.8-0.48 1.2 0 2.2 0.19 3.2 0.57s1.7 1 2.2 2c0.54 0.92 0.81 2.2 0.81 3.9v7.8h-3.1v-1.7c-0.52 0.8-1.2 1.3-1.9 1.6-0.74 0.28-1.5 0.42-2.4 0.42zm-1.9-4.2c0 0.7 0.22 1.2 0.66 1.5 0.46 0.28 1 0.42 1.7 0.42 1.2 0 2.2-0.36 2.8-1.1 0.7-0.74 1.1-1.8 1.2-3.3-0.32-0.02-0.65-0.03-0.99-0.03-0.34-0.02-0.64-0.03-0.9-0.03-1.5 0-2.7 0.23-3.4 0.69-0.74 0.44-1.1 1.1-1.1 1.9zm15 9.1c-0.66 0-1.2-0.11-1.8-0.33-0.52-0.2-1-0.51-1.5-0.93l1.1-2 0.15-0.24 0.21 0.12c0.06 0.16 0.13 0.3 0.21 0.42 0.1 0.12 0.29 0.28 0.57 0.48 0.32 0.12 0.67 0.18 1 0.18 0.68 0 1.2-0.26 1.6-0.78 0.4-0.5 0.79-1.3 1.2-2.4l-5.5-14h3l3.8 9.8 1.6-4.7c0.3-0.86 0.56-1.7 0.78-2.6 0.24-0.84 0.39-1.7 0.45-2.6h2.8c-0.08 0.92-0.29 1.9-0.63 2.8-0.32 0.98-0.65 1.9-0.99 2.8l-3.4 9.5c-0.52 1.5-1.2 2.5-2 3.1s-1.7 0.87-2.7 0.87zm19-4.9c-1.2 0-2.4-0.17-3.4-0.51-1-0.36-2-0.92-2.8-1.7l1.4-2.5 0.18-0.27 0.21 0.12c0.04 0.16 0.09 0.33 0.15 0.51 0.06 0.16 0.2 0.36 0.42 0.6 0.48 0.42 1 0.76 1.6 1 0.62 0.24 1.4 0.36 2.3 0.36 0.92 0 1.6-0.16 2.2-0.48s0.78-0.75 0.78-1.3c0-0.5-0.26-0.9-0.78-1.2-0.5-0.32-1.4-0.66-2.6-1-1.5-0.44-2.8-1-3.7-1.7s-1.4-1.6-1.4-2.7 0.47-2 1.4-2.7c0.96-0.74 2.3-1.1 3.9-1.1 1.2 0 2.3 0.18 3.2 0.54 0.9 0.36 1.7 0.9 2.4 1.6l-1.7 2.3-0.21-0.18c-0.02-0.16-0.07-0.31-0.15-0.45-0.06-0.14-0.2-0.32-0.42-0.54-0.44-0.32-0.93-0.56-1.5-0.72-0.52-0.16-1-0.24-1.6-0.24-0.72 0-1.3 0.12-1.9 0.36s-0.78 0.6-0.78 1.1c0 0.44 0.26 0.83 0.78 1.2 0.52 0.32 1.5 0.66 2.8 1 1.7 0.46 2.9 1 3.7 1.7 0.76 0.66 1.1 1.5 1.1 2.6 0 0.78-0.22 1.5-0.66 2.2-0.44 0.66-1.1 1.2-2 1.6-0.84 0.4-1.9 0.6-3.1 0.6z" fill="#525375"/>
  <path d="m244 111c-0.24 1.1-5.2 7.7-6.3 9.1-0.076 0.097-0.14 0.17-0.17 0.21-0.58 0.64-3.3 1-4.3 1.1-0.68 0.042-3.4-1.8-5.8-3.9-0.84-0.71-1.7-1.4-2.3-2.1-0.34-0.33-0.65-0.65-0.92-0.96-2.5-2.7-6.3-14-6.3-14s-0.9-4.8-0.96-6.5c-0.061-1.7-0.061-3.2-0.12-4.2-0.062-1-0.32-2.6-0.45-5.4-0.13-2.9 0.83-4 0.96-4.6 0.13-0.64 2.2-3.4 3.4-4.2 0.21-0.12 0.53-0.32 0.93-0.57 2-1.2 6-3.5 6.2-3.5 0.32 0.062 8.3 0 9.4 0 1.1 0 6.3 4.3 6.3 4.3s2.8 7.3 2.8 8.1c-0.068 0.76 0.7 10 0.83 12 0.13 2.2-2.8 13-3.1 15z" fill="#FBD7CC"/>
  <path d="m237 120c-0.076 0.096-0.14 0.17-0.17 0.21-0.58 0.64-3.3 1-4.3 1.1-0.68 0.041-3.4-1.8-5.8-3.9-0.84-0.71-1.7-1.4-2.3-2.1-0.34-0.33-0.65-0.65-0.92-0.96-2.5-2.7-6.3-14-6.3-14s-0.9-4.8-0.96-6.5c-0.061-1.7-0.061-3.2-0.12-4.2-0.062-1-0.32-2.6-0.45-5.4-0.13-2.9 0.83-4 0.96-4.6 0.13-0.64 2.2-3.4 3.4-4.2 0.21-0.12 0.53-0.32 0.93-0.57-1.1 1.8-2.3 4.3-2.4 6.7-0.12 4.3 2 21 3.6 24 1.6 2.9 5.2 10 8.4 12 2.7 1.2 4 2 6.5 2.2z" fill="#F2C1B8"/>
  <path d="m218 102s4.3 11 4.8 15c0.58 4 2.5 13 1.6 16-0.89 2.4-1.1 6.3-4.2 7.5 0 0-2 6.7-7.5 8.1 0 0-3.2 9.7 2.2 8.9 0 0-5.8 4.5-4.4-10 0 0 3.7-5.4 3.3-7.4 0 0-3.1-0.041-3.5-3.7-0.37-3.6 0-11 0-11s-1.3-2.6-0.56-4.3c0.77-1.7 1.2-4.9 1.2-4.9s-6.8-13-5.8-16c0.96-2.5 13 3.3 13 3.3z" fill="#5A4E40"/>
  <path d="m229 112s9-1.4 9.4-1.6c0 0-2.5 3.1-4.4 3.4-1.9 0.31-4.3-1.2-5-1.9z" fill="#fff"/>
  <path d="m219 100s4.6-1.8 6-0.58c0 0-3.2-0.24-6 0.58z" fill="#000"/>
  <path d="m235 98s4.9-3.1 7-1.6c0 0-3-0.23-7 1.6z" fill="#000"/>
  <circle cx="238" cy="98" r="1" fill="#000"/>
  <circle cx="223" cy="100" r="1" fill="#000"/>
  <path d="m227 96c0.12 0.034-1.1-1.1-1.1-1.1s-6.4-0.14-7.7 0.55c-1.3 0.69 0.53 0.74 0.53 0.74s6.2-0.77 8.3-0.19z" fill="#5A4E40"/>
  <path d="m234 95s3.7-3.2 6.7-2.6c3 0.58 3.3 0.96 3.3 0.96s-4.5-0.26-5.9 0.3c-1.4 0.56-4.1 1.9-4.1 1.9v-0.58z" fill="#5A4E40"/>
  <path d="m234 78s-15 8.7-16 24l-1.5 8s-12-7.9-11-11c0.48-3.4 3.5-17 8.2-22s7.9-12 16-12c7.8-0.096 8.6-0.096 10 2.3 0 0 5.1-0.19 7.4 3.5 2.3 3.6 10 21 11 24 0.19 3.1-0.67 9 0.38 12 1.1 3.1 2.6 9.1 1.5 13-1.1 4.2-3.8 9.6-1.9 13s4.8 9.3 3 13-6.4 6.1-7.4 7.9c-0.96 1.7-1.9 11-0.67 13 0 0-3.5-4.2-1.7-8.9 1.7-4.7 4.8-11 4.1-13-0.67-2-4.6-17-4.5-19 0.083-2.2-5.8-14-5.2-15 0.65-1.9 0.5-15-3.2-18s-7.5-14-7.5-14z" fill="#5A4E40"/>
  <path d="m229 98s-0.64 5.4-0.64 8.4c0 0 1.3 1.1 3.3-0.22 2-1.4-2.7-8.2-2.7-8.2z" fill="#F2C1B8"/>
  <path d="m222 124s0.69 9.8-0.081 12l-0.044 0.029c-0.86 0.25-2 1.1-2.2 1.3l-0.022 0.014c-0.12-5-0.48-10-0.81-14-0.34 1.3-0.99 1.5-0.99 1.5 0.037-1.5-0.93-4.1-0.93-4.1l-0.77 1.5c0.037-1.7-4.9-7.3-4.9-7.3-0.11 1.3-2.6 4.4-3.2 5.2 0.69-1.1 0.62-5.6 0.62-5.6-0.35 2.3-6.3 6.6-6.6 6.8 0.75-0.63 0.91-3.2 0.91-3.2-0.037 0.066-0.096 0.14-0.17 0.22-0.052 0.066-0.13 0.14-0.2 0.21-0.17 0.17-0.37 0.36-0.62 0.58-0.12 0.1-0.25 0.21-0.38 0.32-0.14 0.12-0.28 0.24-0.44 0.35-0.16 0.12-0.3 0.24-0.46 0.37-0.16 0.12-0.32 0.26-0.49 0.38-0.46 0.36-0.95 0.74-1.4 1.1-0.16 0.13-0.32 0.26-0.49 0.36-1.2 0.9-2.4 1.7-3.1 2.2-0.095 0.067-0.18 0.13-0.26 0.18-0.24 0.17-0.38 0.27-0.41 0.29 0.7-0.77 1.7-5.4 1.8-5.7l-0.029 0.029-4.9 5.8c0.015-0.022 0.022-0.051 0.037-0.088 0.24-0.58 0.83-2.7 0.63-4.1-0.28 0.14-1.6 2.3-2.8 4.5-0.19 0.32-0.37 0.66-0.54 0.99-8e-3 0.014-0.015 0.022-0.015 0.036-0.12 0.23-0.24 0.45-0.35 0.67 0 0-8e-3 7e-3 -8e-3 0.014-0.12 0.22-0.23 0.44-0.32 0.64-0.37 0.74-0.65 1.4-0.77 1.7l-0.3 3.7s0.68 4.6 1.8 9.8c8e-3 0.03 0.015 0.067 0.022 0.096 0 0-1-1.1-2.1-1.7-0.1-0.059-2.7-7.8-2.6-9.9 0 0-1.9 2.5-3.9 2 0 0 5-6.4 5.1-7.8 0 0-3.8 0.81-4.8 1.7 0 0 4.6-8.4 5.4-9 0 0-4.2-0.81-5.7-2 0 0 8.8-3.1 11-5.1 2.2-2 5.9-4 8-3.9 0 0-2.8-1.9-4.2-1.8 0 0 9.6-1.8 12-0.48 2.6 1.3 3.6 3.2 3.6 3.2s5.4-1.3 7.8 1.7c-0.16-0.037-1.9-0.54-3.3-0.037 0 0 6.7 2.5 7.3 6.3 0 0-2.4-1-3.3-1 0 0 3.1 7.7 6.8 9.3-0.015 0.03-3-0.18-4.1-0.9z" fill="#594433"/>
  <path d="m219 147c-0.21 2.2-0.55 3.9-1.1 4.7-0.53 0.86-1.2 1.7-2 2.5-1.7 1.8-3.9 3.5-5.8 4.7-1.6 1-3 1.7-3.8 1.8-1.5 0.32-7.4 0.15-11-2.2-1.2-0.68-2.2-1.6-2.9-2.7-0.51-0.79-0.99-1.9-1.5-3.3-0.93-2.6-1.8-6.1-2.4-9.4-7e-3 -0.029-0.014-0.066-0.022-0.088-1.1-5.2-1.8-9.8-1.8-9.8l0.3-3.7c0.12-0.35 0.39-0.96 0.77-1.7 0.096-0.2 0.21-0.42 0.32-0.63 0-8e-3 8e-3 -0.015 8e-3 -0.015 0.12-0.22 0.24-0.44 0.35-0.67 0-0.015 8e-3 -0.022 0.015-0.037 0.18-0.32 0.36-0.66 0.54-0.99 1.2-2.2 2.6-4.3 2.8-4.5 0.21 1.3-0.39 3.5-0.63 4.1-0.015 0.03-0.022 0.059-0.037 0.081l4.9-5.8 0.029-0.029c-0.059 0.29-1.1 5-1.8 5.7 0.037-0.022 0.18-0.12 0.42-0.3 0.074-0.051 0.16-0.11 0.25-0.18 0.71-0.49 1.9-1.3 3.1-2.2 0.16-0.11 0.33-0.24 0.49-0.37 0.49-0.36 0.98-0.73 1.4-1.1 0.17-0.13 0.33-0.26 0.49-0.38 0.16-0.13 0.32-0.26 0.46-0.37 0.15-0.12 0.3-0.24 0.43-0.36 0.13-0.12 0.26-0.22 0.38-0.32 0.24-0.21 0.45-0.4 0.62-0.58 0.066-0.074 0.14-0.15 0.19-0.21 0.074-0.081 0.13-0.15 0.17-0.21 0 0-0.16 2.5-0.91 3.2 0.37-0.27 6.3-4.6 6.6-6.8 0 0 0.074 4.4-0.61 5.6 0.65-0.81 3.1-4 3.2-5.2 0 0 4.9 5.5 4.9 7.2l0.76-1.5s0.96 2.5 0.94 4.1c0 0 0.64-0.3 0.99-1.5 0.32 3.4 0.68 8.5 0.8 14 0.081 3.6 0.044 7.1-0.22 9.9z" fill="#FCD8CD"/>
  <path d="m211 159c-1.6 1-3 1.7-3.8 1.8-1.5 0.32-7.4 0.15-11-2.2-1.2-0.68-2.2-1.6-2.9-2.7-0.51-0.79-0.99-1.9-1.5-3.3-0.93-2.6-1.8-6.1-2.4-9.4-7e-3 -0.03-0.014-0.067-0.022-0.089-1.1-5.2-1.8-9.8-1.8-9.8l0.3-3.7c0.12-0.35 0.39-0.96 0.77-1.7 0.096-0.2 0.21-0.42 0.32-0.63 0-7e-3 8e-3 -0.014 8e-3 -0.014 0.12-0.22 0.24-0.44 0.35-0.67 0-0.014 8e-3 -0.022 0.015-0.036 0.18-0.32 0.36-0.66 0.54-0.99 1.2-2.2 2.6-4.3 2.8-4.5 0.21 1.3-0.39 3.5-0.63 4.1-0.015 0.029-0.022 0.059-0.037 0.081l1.6-1.8c-0.86 3.4-1.8 7.7-1.8 9.7 0 3.6 2 12 3.1 16 1.1 4.2 2.2 6.6 7.4 8.1 2.3 0.65 5.7 1 9.1 1.2z" fill="#F2C1B8"/>
  <path d="m198 133s-0.26-1.6-0.63-1.7c-0.37-0.074-5.5 0.11-6.1 0.63-0.61 0.52-2.1 2.1-2 2.4 0.022 0.35 2.2-1.4 3.2-1.5 1-0.15 5.6 0.2 5.6 0.2z" fill="#594433"/>
  <path d="m207 131s0.27-1.6 0.61-1.8c0.35-0.14 5.5-0.86 6.1-0.46s2.5 1.7 2.5 2c0.037 0.35-2-0.96-3.1-0.93-1 0.029-6.2 1.1-6.2 1.1z" fill="#594433"/>
  <path d="m191 153c-2.6 1.4-4.1-1.5-5-3.2-0.88-1.8-2.3-6.4-1.5-8 0.32-0.71 1.2-0.44 2 0.1 1 0.67 2.1 1.7 2.1 1.7 0.68 3.2 1.5 6.7 2.4 9.3z" fill="#FCD8CD"/>
  <path d="m224 144c-0.32 1.4-1.5 4.7-2.7 4.6-1.2-0.081-1.5-1.2-1.5-1.2 0.26-2.8 0.3-6.3 0.23-9.9l0.022-0.015c0.16-0.13 1.3-1 2.2-1.3 0.35-0.11 0.67-0.11 0.85 0.1 0.63 0.75 1.2 6.2 0.88 7.7z" fill="#FCD8CD"/>
  <path d="m207 134s2.5-2.3 4.7-2.1c2.2 0.26 4 0.91 4 0.91s-3.6 2.1-5.3 2.1c-1.7-0.045-3.4-0.92-3.4-0.92z" fill="#fff"/>
  <path d="m199 136s-1.1-1.2-3.9-0.74c-2.8 0.44-4.3 2.1-4.3 2.1s2.9 0.85 4.3 0.88c1.4 0.022 3.9-2.2 3.9-2.2z" fill="#fff"/>
  <path d="m195 137c0.3 0 0.54-0.24 0.54-0.54s-0.24-0.54-0.54-0.54-0.54 0.24-0.54 0.54 0.24 0.54 0.54 0.54z" fill="#000"/>
  <path d="m211 134c0.3 0 0.54-0.24 0.54-0.54s-0.24-0.54-0.54-0.54-0.54 0.24-0.54 0.54 0.24 0.54 0.54 0.54z" fill="#000"/>
  <path d="m203 134s-1.1 5.3-1.6 6.2c-0.46 0.91-1 2.9-0.96 3.1 0.073 0.12 1.5 2.1 3.3 1.8s2.7-1.9 2.7-2.5c-0.037-0.68-3.4-8.5-3.4-8.5z" fill="#F2C1B8"/>
  <path d="m201 151c-0.067-0.015-0.13-0.052-0.16-0.12-0.037-0.066-0.037-0.15 7e-3 -0.22l0.88-1.4c0.067-0.1 0.2-0.13 0.3-0.073 0.1 0.066 0.13 0.2 0.074 0.3l-0.67 1.1c1.1 0 4.5-0.12 6.4-1.4 0.1-0.066 0.24-0.044 0.31 0.059 0.067 0.1 0.044 0.24-0.059 0.31-1 0.68-2.5 1.1-4.4 1.3-1.4 0.16-2.6 0.12-2.6 0.12h-0.029z" fill="#000"/>
  <path d="m189 143s2.9 9.1 5.5 11 5.8 2.7 7.4 2.2c1.5-0.49 2.9-2.1 5.3-1.5 2.3 0.64 5.3 0.81 6.7-0.36s3.8-4.4 4.3-6.6c0.54-2.3 1.9-11 1.9-11s0.85 13-1.2 15c-2 2.9-4.1 5.9-7.5 7.5-3.4 1.6-8.2 2.5-10 1.9-2.3-0.64-6.7-3.8-8-5.9-0.63-1-4.2-9.8-3.9-13z" fill="#594433"/>
  <path d="m213 155c-0.18 0.77-1.9 1.3-1.7 0 0.15-1-0.91-5.8-1.3-7.4-2.9 0.089-5 0.015-5.8-0.63-0.79 0.91-3.1 1.8-6.1 2.7-0.052 0.015-0.1 0.03-0.16 0.045 0.18 1.7 0.41 4.9 0.44 6.1 0.037 1.5-1.3 3.4-2.1 0.066-0.55-2.3-0.24-4.6 0.015-5.9 0.11-0.49 0.2-0.82 0.22-0.89 7e-3 -7e-3 7e-3 -0.014 7e-3 -0.014l0.03-0.03c0.45-0.5 1.1-1 1.1-1 3.2-2.5 5.4-2.5 6.3-2.3 0.16 0.03 0.29 0.089 0.4 0.18 0.029-0.015 0.058-0.029 0.088-0.044 0.79-0.38 2.4-0.75 5.6 0.25 0 0 0.92 0.29 1.5 0.62 8e-3 7e-3 0.022 0.015 0.029 0.022 0.059 0.074 0.15 0.3 0.25 0.63 0.53 1.8 1.5 7 1.3 7.6z" fill="#594433"/>
  <path d="m382 187s-2.5 9.5-3 10c-0.45 0.52-11 5.6-11 5.9s-8.9 0-7.3-5.1c0.67-2.2 0.63-4.6 0.37-6.6-0.35-2.7-1.1-4.8-1.1-4.8s14-7.2 15-7.7c0.32-0.22 1.2-0.25 2.2-0.22 1.3 0.046 2.7 0.22 2.7 0.22l2.6 8.3z" fill="#FBD7CC"/>
  <path d="m380 179c-0.12 2.1-3.2 4.6-4 5.7-1.1 1.4-6.9 5.3-9.7 5.8-1.3 0.26-3.5 0.48-5.6 0.5-0.34-2.7-1.1-4.8-1.1-4.8s14-7.2 14-7.8c0.3-0.22 5.2 0.58 6.1 0.62z" fill="#F2C1B8"/>
  <path d="m352 147s0.2 4-2.5 4.7c-2.7 0.66-7-1.5-8.3-0.53-1.3 0.93-3.6 3.6-3.4 4.9 0.2 1.3 1.3 4.1-0.34 4.7-1.6 0.6-3.2 1-4.5-1.1 0 0 0.47 2.5 2 2.6s3.6-0.13 4.2-0.99 1.4-2.4 1.1-3.6c-0.27-1.3-1.2-1.9-0.2-1.9s3.6 0.2 3.4 2c-0.2 1.8-2.2 3.8-3.4 4.1-1.1 0.26-5.9 0.66-7.2 2-1.3 1.3-1.2 1.5-0.81 2.1 0.4 0.58 2.7 3 1.9 4.1-0.74 1.1-2.5 1.1-3.2-0.51 0 0 0.2 2 1.7 2.3s2.6-0.068 2.8-1.2c0.2-1.1-0.27-4-1-4.7-0.74-0.74-0.034-0.8 0.32-1 0.35-0.24 3.2-0.23 4.6 0.31s0.96 1.8 0.96 1.8-3.2 3-3.1 4.1c0.05 1.2 2.8 5 2.2 6.4-0.6 1.5-5.1 3.4-5.5 4.9-0.4 1.6-1.3 2.2 0.3 4.6 1.6 2.3 1.6 3 0.81 3.6s0.56 2.4 1.2 2.6c0 0-2.9 0.94-2.9 3s2.2 4.7 2.1 5.6 2 3.2 1 5c-0.96 1.8-1.4 4-1.1 4.5 0 0-4.8 1.1-4.6 4.6 0 0-1.1 5.3 5.6 1.7 0 0-7.6 2.2-2.6-3 0 0 2 0.64 2.7 1.4 0.76 0.79 2.8 0.25 3.6-0.69 0.76-0.94 2.5-1.7 2.3-3.3-0.25-1.6-1-4-0.6-4.2 0.4-0.15 5.4 0.45 7.2-0.049s8.8-10 10-11c1.6-0.49 4.1-1.1 4.1-1.1l11-54s-3.8-0.35-4.9 0.64c-1.2 0.99-1.8 1.9-4 2-2.2 0.1-9.6-0.99-10 0.25-0.56 1.2 1.6 1.5 0.7 2-0.9 0.5-2.1 0.6-2.5 0.3-0.45-0.3-1.3-0.53-1.3 0.13z" fill="#5A4E40"/>
  <path d="m357 156s-3.9 4.7-3.9 5.6-0.067 4.4-0.68 5.4c-0.61 0.98-3.2 3-2.8 5.1 0.41 2 1.4 11 2.8 13 0 0 0.59 1.3 3.8 1.9 3.2 0.65 8-0.021 11-0.72 2.8-0.74 4.8-0.75 6.9-5.2 2-4.4 6.9-11 7.4-14 0.54-2.9 0.82-15 0.54-15-0.27-0.26-8.2-3.3-9-3.2s-12-0.59-12-1e-3c-0.81 0.59-3.9 2.4-4.5 3.1-0.61 0.72 1.2 3.7 1.2 3.7z" fill="#FBD7CC"/>
  <path d="m378 172c0.22-0.065 5.1-1.4 5.3 0 0.15 1.4-2.2 6.8-3.4 7.5-1.2 0.71-4 1.9-4.3-0.2s2.4-7.3 2.4-7.3z" fill="#FBD7CC"/>
  <path d="m365 167s-0.21-1.1 0.5-1.4c2-0.63 7.3 0.31 8.6 1.7 0.78 0.87 0.52 1.9 0.71 3.7 0 0-0.99-2.5-3-3.1-2-0.68-4.6-0.89-5.1-0.92-0.53-0.026-0.96 0.15-1.6 1e-3z" fill="#5A4E40"/>
  <path d="m360 165s-1.2-4.1-4.1-4.6c0 0-1.9 0.8-2.2 2.9 0 0 1.3-1.4 2-1.4s1.6 1.3 2.4 2.2c0.77 0.76 1.4 1.7 1.9 0.9z" fill="#5A4E40"/>
  <path d="m358 170c-0.17 0.63-0.57 0.68-1.9 0.29-1.3-0.39-3-2.5-3-2.5 0.38-0.16 2 0.38 3.2 0.99 0.78 0.38 1.4 0.79 1.6 1.1 0.042 0.067 0.058 0.13 0.045 0.18z" fill="#fff"/>
  <path d="m370 174c-1.4 0.039-2.8-0.42-4-0.77-1.3-0.36-2.2-0.71-2.4-0.87s0.16-0.46 0.16-0.46 1.9 0.023 2.1 0c0.11-0.015 1.3 0.28 2.1 0.49 0.46 0.12 0.81 0.21 0.83 0.21 0.02 0 0.38 0.17 0.82 0.39 0.71 0.35 1.6 0.8 1.6 0.8s0.14 0.18-1.2 0.22z" fill="#fff"/>
  <path d="m365 171c0.13-0.33 0.35-0.61 0.62-0.86 0.14-0.12 0.29-0.23 0.46-0.32 0.17-0.094 0.37-0.15 0.58-0.18 0.21-0.028 0.39-0.031 0.57-0.022 0.18 6e-3 0.35 0.029 0.53 0.052 0.34 0.054 0.68 0.13 1 0.23 0.66 0.2 1.3 0.48 1.9 0.88 0.29 0.2 0.56 0.42 0.8 0.67 0.24 0.25 0.45 0.55 0.58 0.87l-0.047 0.038c-0.22-0.24-0.45-0.46-0.72-0.65-0.26-0.2-0.54-0.36-0.83-0.51-0.58-0.3-1.2-0.54-1.8-0.72-0.31-0.098-0.63-0.18-0.94-0.25-0.32-0.064-0.64-0.12-0.96-0.11-0.32 0.017-0.62 0.14-0.9 0.3-0.28 0.17-0.53 0.38-0.74 0.62l-0.048-0.039z" fill="#CCA39E"/>
  <path d="m354 167c-5e-3 -0.25 0.059-0.49 0.18-0.73 0.13-0.23 0.34-0.47 0.66-0.59 0.16-0.057 0.34-0.084 0.5-0.069 0.16 9e-3 0.29 0.038 0.42 0.07 0.25 0.065 0.47 0.16 0.69 0.26 0.43 0.21 0.82 0.47 1.2 0.8 0.18 0.16 0.33 0.35 0.47 0.55 0.066 0.11 0.13 0.21 0.18 0.33 0.05 0.12 0.097 0.25 0.088 0.38l-0.056 0.02c-0.089-0.19-0.26-0.34-0.43-0.48-0.17-0.14-0.35-0.27-0.53-0.4-0.37-0.25-0.76-0.47-1.2-0.66-0.2-0.099-0.4-0.19-0.61-0.26-0.21-0.07-0.42-0.13-0.63-0.074-0.21 0.047-0.39 0.18-0.53 0.34-0.15 0.16-0.27 0.35-0.36 0.55l-0.053-0.029z" fill="#CCA39E"/>
  <path d="m371 173c-0.026 0.74-0.55 1.3-1.2 1.3-0.66 0-1.2-0.62-1.2-1.4 0-0.4-0.23-0.76 0-1 0.56 0.21 1.4 0.37 1.4 0.37s0.47 0.31 1 0.69z" fill="#000"/>
  <path d="m359 170c-0.2 0.5-0.64 0.85-1.1 0.85-0.7 0-1.3-0.66-1.3-1.5 0-0.34 0.1-0.66 0.27-0.91 1 0.55 1.9 1.1 2.1 1.5z" fill="#000"/>
  <path d="m384 172s-5.2 1.8-5.9 1.7c-0.55-0.11-0.43-0.021-0.5-1-0.059-0.81-0.023-1.6 0.11-2.4 0.53-3.2 1.2-12-5.9-16-2.2-1.3-3.8-2.4-5.1-3.4-0.17 0.5-0.38 0.97-0.64 1.4-0.62 1-1.9 2.8-4.1 2.8 0 0-2.2 2.9-5.3 2.9s-2.1-7.5-2.1-7.5l13-5.5 16 3.2 0.97 24z" fill="#5A4E40"/>
  <path d="m364 172s2.1-0.42 4 0.18c1.9 0.61 3.5 1.3 4 1.5 0 0 0.15 0.82 1.2 0.93 0 0-1 0.11-1.9-0.34-0.89-0.45-1.6-1.9-5.7-2.1 0 0-1.2-0.13-1.6-0.18z" fill="#000"/>
  <path d="m358 169c0.09 6e-3 -2.4-1.8-3.4-2-1-0.29-1.3-0.4-2.2-0.76 0 0 0.35 0.66 0.68 0.74 0.32 0.079 2.3 0.61 3 1.1s1.6 0.93 2 0.96z" fill="#000"/>
  <path d="m359 167c0.23 0.36 0.4 0.76 0.5 1.2 0.052 0.21 0.071 0.44 0.071 0.66-0.013 0.22-0.049 0.45-0.14 0.67-0.018 0.056-0.051 0.1-0.079 0.16-0.03 0.049-0.059 0.1-0.09 0.15-0.064 0.091-0.13 0.18-0.2 0.26-0.14 0.17-0.28 0.33-0.43 0.49-0.29 0.32-0.59 0.62-0.9 0.92l-0.91 0.9c-0.3 0.3-0.63 0.58-0.93 0.84l-0.07 0.062-4e-3 3e-3 -2e-3 2e-3s-1e-3 1e-3 0-2e-3l0.011-0.015c0.012-0.017 0.021-0.053 0.022-0.062l-6e-3 0.019-0.01 0.036-0.018 0.069c-0.024 0.092-0.041 0.19-0.056 0.28-0.029 0.19-0.032 0.38-0.017 0.57 0.019 0.19 0.061 0.38 0.14 0.56 0.076 0.18 0.19 0.36 0.32 0.53l-0.039 0.046c-0.19-0.11-0.37-0.25-0.51-0.43-0.14-0.18-0.25-0.4-0.31-0.62-0.07-0.22-0.094-0.46-0.097-0.7 0-0.12 0.01-0.24 0.027-0.35l0.013-0.087 8e-3 -0.042 3e-3 -0.019c4e-3 -0.023 0.022-0.069 0.04-0.099l0.015-0.024 6e-3 -9e-3 0.011-0.013 0.02-0.029 0.035-0.04 0.061-0.069c0.31-0.32 0.63-0.59 0.96-0.86 0.33-0.26 0.66-0.53 0.98-0.81 0.32-0.28 0.64-0.55 0.94-0.84 0.15-0.14 0.3-0.29 0.44-0.44 0.071-0.076 0.14-0.15 0.2-0.23 0.031-0.038 0.054-0.079 0.082-0.12 0.026-0.04 0.057-0.077 0.075-0.12 0.094-0.17 0.14-0.36 0.17-0.56 0.018-0.2 0.019-0.4-0.012-0.61-0.06-0.41-0.19-0.82-0.38-1.2l0.051-0.033z" fill="#F2C1B8"/>
  <path d="m358 175c0.12-0.085 0.24-0.16 0.38-0.23 0.13-0.065 0.27-0.12 0.43-0.16 0.15-0.036 0.32-0.063 0.49-0.04 0.18 0.022 0.36 0.094 0.52 0.22l-0.43 0.41c-0.043-0.076-0.11-0.15-0.21-0.2-0.097-0.054-0.22-0.081-0.35-0.096-0.13-0.015-0.27-0.01-0.41 6e-3 -0.14 0.017-0.28 0.044-0.42 0.084z" fill="#F2C1B8"/>
  <path d="m374 142s1.9 1.3 1.2 2c0 0 6.5-0.23 5.1 0-0.53 0.092-7.3-1.7-6.3-4.9 0.95-3.1 5.3-2.4 5.9 0.65 0 0-2.7-2.7-4.3-1.7-1.6 1 2.5 3.8 5.4 3.9 2.8 0.058 6.1 0.56 7.2 4.4 1 3.9 3.3 3.1 3.7 4.2s0.15 1.9 0.45 2.5c0.3 0.55-0.45 2-0.9 1.9-0.45-0.049 2.5 1.2 5.2-0.8 2.6-2 2.4 4.9 3 6.7 0.6 1.8 1.4 1.7 1.4 2.1 0.05 0.32 0.4 2.2-0.85 2.6 0 0 5.8 3.1 4.2 4.9-1.6 1.8-1.6 3.8-4.8 3.6 0 0 5.1 3.3 4.3 4.9s-5 3.6-3.8 4c1.2 0.4 4.2-0.6 3.9 1.9s-2.5 3.6-1.3 6.8c1.2 3.2 6 5.2 6.5 7.3 0.5 2.1 1.5 4.2 1.1 4.8s-2.9 1.2-3.2 3.1c-0.35 1.9-1 3.3 1.2 2.5 2.2-0.85 2.4-2.1 2.4-2.1s-1 3.8-3.7 3c-2.6-0.74-3.6-5.1-3-5.8 0.65-0.75 2-0.4 3.2-1.6 1.2-1.2 0.45-2.5-0.65-2.2-1.1 0.35-0.85 1.8-1.6 2.3-0.75 0.5-2.6 0.9-3 1.6s1.1 0.6 1.9 3.1 0.5 2.6-0.15 3.3c-0.65 0.75-2.6 2.8-1 3.3 1.6 0.5 2.3 0.45 2.9-0.4 0 0-2.4 3.7-4.4 1-2-2.7-0.55-4.2-2.3-4.3-1.8-0.1-3.8-9.1-3.8-9.1l-9.3-8.9s0 1.6-1.1 1.8c-1.1 0.2-5.2-1.9-5.5-1.2-0.25 0.7 1.6 4.2 0.45 5.4-1.2 1.2-2 4.7-4.6 5.4-2.6 0.65-3.1 1.2-1.8 2.7 1.3 1.4 2.2 2.5 1.2 3.4-1 0.9-3 2.3-3.6 1.5 0 0 2.6-0.15 2.7-1.9s-2.7-2.4-2.7-2.4-2.7 2.6-4.5 3.1c-0.41 0.1-2.2 1.7-0.76 2.1 1.4 0.45 2.2-0.4 2.4-0.8 0.18-0.4-0.18 0.4-0.18 0.4s-1.3 2.2-2.8 1.9l-0.74-0.85s0.075 2.5-2.1 3c0 0-6.9 2.6-6.2-1.3 0 0 2 3.4 4 0.4 2-3-3.4-5.6-2.9-6.5 0.45-0.9 6.2-3.8 6.2-3.8s-3.9 0.8-3.1-0.9c0.85-1.7 3-2.6 3.1-4.3 0.049-1.7 1.3-1.4 2.2-2.3 0.9-0.9 0.95-2 0.3-3.7s2-2.3 2.7-3.3c0.75-0.94 2.8-3.2 3.8-3.3 1-0.098 1.7-5.9 3-7.5s0.34-1.1 0.29-2.9c-0.057-1.8 1.4-0.53 1.6-2.3 0.17-1.8 3.3-2.5 3.3-2.5s-4-20-4.3-21c-0.35-0.3-2.2-9.2-2.2-9.2z" fill="#5A4E40"/>
  <path d="m374 141s-2.7 5-2.6 5.1c0.061 0.035 3.7 1.3 3.7 1.3 0.035-0.01 1.2-0.75 1.2-0.78s-2.3-5.5-2.3-5.5z" fill="#5A4E40"/>
  <path d="m364 147 0.7 0.7c-0.7-0.49-0.7-0.7-0.7-0.7z" fill="#5A4E40"/>
  <path d="m367 151c-0.15 0.59-0.34 1.1-0.58 1.7l-2.2-4.9c0.31 0.48 0.78 1.1 1.5 1.9 0.37 0.41 0.81 0.87 1.3 1.4z" fill="#5A4E40"/>
  <path d="m371 150c-0.17 0.49 1.9 2.3-2.7 2.4-1.1 0.046-2.7 1-4 1.2l4.1-9.1s3.5 2.9 2.6 5.5z" fill="#5A4E40"/>
  <path d="m360 180c-0.14 0.27-1.4 0.18-2 0.24-0.6 0.064-3.1-0.41-3.9-1-0.84-0.58 3e-3 -1.1 3e-3 -1.1s1e-3 0 4e-3 2e-3c0.59 0.37 2.7 0.92 3.2 1.3 0.56 0.42 2.3 0.6 2.7 0.56z" fill="#F2C1B8"/>
  <path d="m354 178s-0.89-0.88-0.25-0.79c0.64 0.091 3 0.93 3.6 1.3 0.56 0.36 3 1.3 3.8 1.2 0.75-0.064-2.8 0.29-2.8 0.29l-4.3-2z" fill="#F2C1B8"/>
  <path d="m362 180c-0.29 0.19-0.61 0.33-0.94 0.44-0.17 0.056-0.34 0.099-0.51 0.13-0.084 0.015-0.18 0.03-0.27 0.031-0.09 5e-3 -0.18 3e-3 -0.27 0-0.35-9e-3 -0.7-0.04-1-0.095-0.35-0.054-0.69-0.12-1-0.24-0.085-0.033-0.17-0.063-0.25-0.11-0.082-0.034-0.17-0.1-0.24-0.14-0.12-0.085-0.28-0.16-0.43-0.22-0.31-0.13-0.63-0.25-0.96-0.37-0.32-0.12-0.65-0.24-0.97-0.37-0.32-0.13-0.64-0.26-0.95-0.45l6e-3 3e-3c7e-3 4e-3 0.016 6e-3 0.025 4e-3l-0.034-0.01c-0.036-0.025-0.074-0.052-0.11-0.088-0.016-0.017-0.036-0.041-0.046-0.061l-0.032-0.057c-0.042-0.075-0.079-0.15-0.11-0.23-0.067-0.16-0.12-0.32-0.15-0.49 0.06 0.16 0.14 0.31 0.22 0.45 0.042 0.071 0.088 0.14 0.14 0.21l0.036 0.051c0.01 0.015 0.019 0.024 0.034 0.036 0.027 0.023 0.061 0.043 0.097 0.063l-0.034-0.011c0.01 0 0.024 3e-3 0.034 8e-3l6e-3 3e-3c0.3 0.15 0.63 0.25 0.95 0.36l0.98 0.32c0.33 0.11 0.66 0.22 0.98 0.36 0.16 0.073 0.32 0.14 0.49 0.25 0.077 0.05 0.12 0.087 0.2 0.12 0.069 0.037 0.15 0.066 0.22 0.097 0.63 0.22 1.3 0.33 2 0.4 0.084 8e-3 0.17 0.014 0.25 0.015 0.085 6e-3 0.16 0 0.25-9e-3 0.17-0.016 0.34-0.046 0.5-0.082 0.33-0.072 0.66-0.18 0.97-0.31z" fill="#CCA39E"/>
  <path d="m214 159c-1.7 8.4-20 60 5 56 2.1-0.36 25-12 25-12l-4.8-45-25 0.78z" fill="#AD9989"/>
  <path d="m241 196c-2.6 12 3.5 8.2 9.9-0.42l0.76 12s3.9 8 6.9-23c0.16 8 1.7 16 3.3 12 0 0 0.96-5.8 0-11-1.4-7.7-3.8-21-4.7-28-1.3-9.5-8.2-6.4-8.2-6.4l-12 23 3.8 23z" fill="#AD9989"/>
  <path d="m254 180c-2.2 4.1-8.4 13-13 15-2.2 1-5.5-0.96-8.5-3.5-3.8-3.2-7-7.2-7-7.2l-0.72-20 7.7-14 15 0.72 2.9 4.5c0.3 0.3 4.8 5 4.5 11-0.06 0 1.6 9.3-0.6 13z" fill="#FCD8CD"/>
  <path d="m231 152s-7.2 18-5.4 26c1.9 9 7.3 26 6.1 28 0 0-7.3-9.5-7.9-20 0 0-0.48 17 2.6 20 0 0-8.6-5-9.7-12-1.1-7.3 1.3-17 2.6-20 0 0-1.3-11 1.4-15 2.6-3.9 6.9-14 11-14 4.1 0.18 10-0.12 14 3 0 0-7.9-1.7-15 4.7z" fill="#AD9989"/>
  <path d="m245 147s5.3 0.059 11 8c5.3 7.9-2.8-8.2-2.8-8.8 0-0.48-4-4.7-9.5-5.9s-15-1.1-20 2.2c-4.7 3.3-9.9 14-9.8 18 0.06 4.4 0 6.5 1.7 13 1.7 6.1 3.3 8.5 3.3 8.5s-0.12-1.3 1-4 4.6-17 4.7-18 4.4-12 4.4-12l7-2 9.3 1.4z" fill="#AD9989"/>
  <path d="m218 174s-12 7-7.5 17c0 0-0.42-6.8 9.9-14 10-6.7-2.3-3.8-2.3-3.8z" fill="#AD9989"/>
  <path d="m214 181s-3.8 8.3 0 14c0 0-1.1-7.9 5.1-13s-2.7-4.6-5.1-0.72z" fill="#AD9989"/>
  <path d="m215 163s-2.2 16-3 18c-0.84 1.6 5.9 3.1 6.8 1 0.84-2.1 3.5-15 3.5-15l-7.2-4z" fill="#AD9989"/>
  <path d="m256 155s2.6 26-0.9 32c-3.5 5.7 4.7-4.9 4.7-4.9s0.12-20-3.8-27z" fill="#AD9989"/>
  <path d="m258 170s-3.8 17-5.1 19 7.1-6.6 7.1-6.6l-2-12z" fill="#AD9989"/>
  <path d="m251 152c-1.4 1.2-13 12-27 12s2.5-14 2.5-14l9.3-4.2 15 0.96 0.56 4.9z" fill="#AD9989"/>
  <path d="m238 172s0.36-5.1-6.6-3.6l-0.18 0.78 6.8 2.9z" fill="#514944"/>
  <path d="m238 172s-0.3-5-6.8-2.8c0 0-1.2 3.4 2.8 4.8 4 1.4 4-2 4-2z" fill="#fff"/>
  <path d="m247 172s4.6-4.1 6.6-1.6l-0.24 1.1c-0.06 0.06-3.5 2.1-6.3 0.42z" fill="#514944"/>
  <path d="m247 172c0.36-1 5.8-4.1 6.4 0 0 0 0.66 4-4.9 2.7 0 0.06-2.4-0.24-1.5-2.7z" fill="#fff"/>
  <path d="m243 172s0.54 5.3 0.78 6.5c0 0-1.8 2.7-3 2.3-1.3-0.36-0.9-5.5 2.3-8.8z" fill="#F2C1B8"/>
  <path d="m234 172c0.55 0 1-0.45 1-1s-0.45-1-1-1-1 0.45-1 1 0.45 1 1 1z" fill="#241B0E"/>
  <path d="m249 174c0.55 0 1-0.45 1-1s-0.45-1-1-1-1 0.45-1 1 0.45 1 1 1z" fill="#241B0E"/>
  <path d="m239 165s0.24-1.3 0-1.4c-0.24-0.06-7 0.18-9.1 2 0.059 0 7.3-1.3 9.1-0.66z" fill="#AD9989"/>
  <path d="m247 166c-0.3 0.24-0.3-1.1 0-1.3 0.3-0.24 4.8 0.18 6 1.3 0 0-5.1-0.72-6 0z" fill="#AD9989"/>
  <path d="m243 186-9.6-1.9s4.3 3.6 4.7 3.5c0.3-0.12 5-1.6 5-1.6z" fill="#fff"/>
  <path d="m172 147c-7e-3 0.02-7e-3 0.033-0.013 0.046 0 7e-3 -7e-3 7e-3 -7e-3 7e-3 -0.84 2-3.5 2.3-4.2 2.4-1.2 0.18-2.5 3.4-2.5 3.4-1.8 3.9-7.9 7.5-15 8.4-0.76 0.092-1.5 0.16-2.3 0.18-6.8 0.23-9.1-2.6-9.7-3.5-0.02-0.046-0.046-0.092-0.072-0.13-7e-3 -0.02-0.013-0.033-0.033-0.052-7e-3 -0.02-0.02-0.04-0.02-0.04-1.2-1.8-4.4-8.9-4.3-15 0.065-2.7 0.12-6.5 0.66-8.4 0 0 0.04-0.12 0.099-0.36 0.54-1.8 1.1-3.1 1.4-4.1 0.2-0.54 0.52-1.4 0.92-2.3 0.25-0.6 0.52-1.2 0.8-1.9v-7e-3c0.1-0.1 2.2-2.3 3.9-4.2 1.1-1.2 2-2.3 2.3-2.7 0 0 1.5 0.35 1.3 1.3 0.49-1.2 1.9-4.6 5.8-5.5 0 0-0.31 2.2-0.9 3.1 0.77-0.88 3.6-4.2 4.3-6 0 0 0.28 6.6 3.3 9.3 3.1 2.7 8.4 7.3 8.7 9.4 0.11 0.88 0.28 3.2 0.43 5.6l0.12 2.1c0.15 2.5 0.26 4.7 0.26 4.7l1.7-3.5s1.2-1.2 2.6 0.77l6e-3 7e-3 0.52 1.8c0.49 1.7 0.39 3.5-0.3 5.1z" fill="#FBD7CC"/>
  <path d="m150 161c-0.76 0.092-1.5 0.16-2.3 0.18-6.8 0.23-9.1-2.6-9.7-3.5-0.02-0.046-0.046-0.092-0.072-0.13-7e-3 -0.02-0.013-0.033-0.033-0.052-7e-3 -0.02-0.02-0.04-0.02-0.04-1.2-1.8-4.4-8.9-4.3-15 0.065-2.7 0.12-6.5 0.66-8.4 0 0 0.04-0.12 0.099-0.36 0.54-1.8 1.1-3.1 1.4-4.1 0.2-0.54 0.52-1.4 0.92-2.3 0.25-0.6 0.52-1.2 0.8-1.9v-7e-3c0.1-0.1 2.2-2.3 3.9-4.2-1.9 4.4-4.3 10-4.4 12-0.23 2.4-1.8 7.9 0.5 15 2.3 7.2 0.32 8.5 5.3 11 1.8 0.88 4.5 1.6 7.2 2.2z" fill="#F2C1B8"/>
  <path d="m176 134s-1.1-3.3-2-4.3c0 0 1.1 8.1 0.63 9.6-0.45 1.5-0.11 5.5-2.8 7.4 0.6-1.4 0.22-2.5 0.22-2.5l-0.44-4.5-7e-3 -7e-3c-1.4-1.9-2.6-0.77-2.6-0.77l-1.7 3.5s-0.11-2.1-0.26-4.7l-0.12-2.1c-0.14-2.4-0.31-4.7-0.43-5.6-0.28-2.1-5.6-6.7-8.7-9.4-3.1-2.7-3.3-9.3-3.3-9.3-0.61 1.8-3.5 5.2-4.3 6 0.59-0.85 0.89-3.1 0.89-3.1-3.9 0.94-7 4.2-7 4.2-0.8 1.2-6.1 6.8-6.3 6.9l-7e-3 6e-3c-0.28 0.64-0.55 1.3-0.8 1.9-0.39 0.93-0.72 1.7-0.92 2.3-0.35 0.96-0.87 2.3-1.4 4.1 0.2-0.75 0.61-2.6 0.33-4.2-0.36-2 1.4-5.2 1.5-5.4 6e-3 -0.76 0.059-1.4 0.15-1.7 0 0-1.1 0.72-2.7 0.81 0 0 7.2-8.7 10-10 2.8-1.4 4.3-3.5 6.2-3.6 1.8-0.091 9.7-1.4 11 0 1.4 1.4 8.1 6.3 9.5 9.8s5.8 9.7 5.2 15z" fill="#4D3B3B"/>
  <path d="m147 142c-0.43 0.58-3.2-0.16-3.8-0.86-0.58-0.7-0.44-1.7-0.11-2.8 0.33-1.1 4.2-5.4 4.2-5.4 0.64 3.8 0.17 8.5-0.26 9.1z" fill="#F2C1B8"/>
  <path d="m139 122s15 2.4 24-0.81-6.8-11-7.2-11h-2.6s-4.1 1.8-4.3 1.9c-0.2 0.066-7.5 4.8-7.5 4.8l-2.7 4.9z" fill="#4D3B3B"/>
  <path d="m141 147c-0.085-0.033-0.16-0.1-0.18-0.2-0.033-0.1-6e-3 -0.22 0.066-0.3l1.5-1.7c0.11-0.12 0.3-0.13 0.43-0.02 0.12 0.11 0.13 0.3 0.02 0.43l-1.2 1.3c1.5 0.29 6.1 1 9-0.24 0.15-0.066 0.34 6e-3 0.4 0.16 0.066 0.15-6e-3 0.34-0.16 0.4-1.5 0.66-3.7 0.88-6.3 0.68-2-0.16-3.5-0.5-3.5-0.51-0.013 7e-3 -0.026 7e-3 -0.039 0z" fill="#000"/>
  <path d="m140 132c0.76-0.046 1.6 0.092 2 0.45 0.29 0.24 0.4 0.55 0.48 0.86 0.1 0.37 0.18 0.75 0.12 1.1-0.032 0.26-0.14 0.52-0.41 0.73-0.22 0.17-0.52 0.28-0.83 0.36-1.1 0.3-2.4 0.23-3.2-0.17-0.82-0.37-1.2-0.98-1.3-1.6-0.079-0.55 0.6-0.99 1.3-1.3 0.56-0.24 1.2-0.4 1.8-0.44z" fill="#fff"/>
  <path d="m153 133c0.27-0.24 0.62-0.45 1-0.54 0.47-0.1 1-0.046 1.5 0.033 0.49 0.072 0.98 0.17 1.4 0.35 0.34 0.13 0.66 0.32 0.82 0.58 0.14 0.22 0.14 0.47 0.1 0.7-0.099 0.71-0.52 1.4-1.4 1.7-0.43 0.14-0.92 0.16-1.4 0.16-0.39 0-0.79-0.02-1.2-0.11-0.54-0.13-1-0.43-1.3-0.8-0.62-0.79-0.25-1.5 0.39-2.1z" fill="#fff"/>
  <path d="m149 134v0c0.019 0.18 0.045 0.37 0.085 0.56 0.098 0.49 0.39 1.6 2.2 2.4 1.9 0.88 4.8 0.86 6.1 0.74 1.4-0.12 2.3-0.47 2.8-1.3 0.14-0.2 0.38-0.82 0.5-1.1-0.013 0.013-0.026 0.013-0.026 0.013-0.066-0.039 0.41-1.1 0.34-2.9-0.026-0.76-0.51-1.2-1.7-1.4-1.2-0.22-5.7-1-8.5-0.19-0.89 0.26-2.1 0.53-1.8 3.2z" fill="#fff" opacity=".5"/>
  <path d="m133 133c0.072 0.31 0.2 0.82 0.3 1 0.43 0.96 1.3 1.5 2.7 1.9s4.1 0.76 6.2 0.16c1.9-0.56 2.3-1.6 2.5-2.1 0.066-0.19 0.12-0.37 0.16-0.54 0-6e-3 0-6e-3 7e-3 -0.013 0.7-2.6-0.45-3-1.3-3.4-2.7-1.2-7.2-1.1-8.5-1.1-1.2 0.039-1.8 0.39-1.9 1.1-0.28 1.6 6e-3 3-0.079 2.9-7e-3 -7e-3 -0.02-0.02-0.033-0.046z" fill="#fff" opacity=".5"/>
  <path d="m132 129-0.14 2c-7e-3 0.072 0.032 0.14 0.098 0.18 0.97 0.61 0.95 1.9 1 2.1-0.098-0.61-0.098-1.3-0.046-1.9-0.046 0.59-0.039 1.2 0.053 1.8 6e-3 0.039 0.019 0.079 0.026 0.12 0.085 0.026-0.2-1.3 0.079-2.9 0.13-0.75 0.68-1.1 1.9-1.1s5.8-0.17 8.5 1.1c0.85 0.39 2 0.84 1.3 3.4 0.14-0.44 0.22-0.82 0.24-1.1-0.033 0.46-0.16 1-0.41 1.7 0.35-0.55 0.59-1.1 0.77-1.4 0.46-0.79 0.92-1.4 1.7-1.3 0.74 0.052 1.1 0.68 1.4 1.5 0.14 0.34 0.3 0.88 0.56 1.5-0.15-0.72-0.19-1.3-0.16-1.8-0.019 0.33 0 0.73 0.073 1.2-0.32-2.7 0.88-2.9 1.8-3.2 2.9-0.83 7.3-0.026 8.5 0.19 1.2 0.22 1.7 0.61 1.7 1.4 0.066 1.8-0.41 2.9-0.34 2.9 0.013-0.033 0.02-0.059 0.033-0.085 0.18-0.56 0.28-1.2 0.32-1.8-0.039 0.61-0.14 1.3-0.32 1.9 0.22-0.18 0.39-0.89 0.65-1.3 0.21-0.29 0.44-0.52 0.69-0.62 0.065-0.032 0.12-0.085 0.12-0.16l0.15-2.1c7e-3 -0.072-0.046-0.14-0.12-0.15-0.64-0.091-3.5-0.52-6-0.77-5-0.5-5.9 0.72-9.1 0.49-3.1-0.23-3.9-1.6-8.9-1.8-2.4-0.11-5.2-0.12-6-0.12-0.12 6e-3 -0.22 0.1-0.23 0.22z" fill="#333"/>
  <path d="m162 131 4.6 4v0.83l-4.6-3.8 0.079-1z" fill="#333"/>
  <path d="m155 135c0.39 0 0.7-0.32 0.7-0.7 0-0.39-0.31-0.7-0.7-0.7-0.39 0-0.7 0.31-0.7 0.7 0 0.39 0.32 0.7 0.7 0.7z" fill="#333"/>
  <path d="m140 134c0.39 0 0.7-0.31 0.7-0.7 0-0.39-0.32-0.7-0.7-0.7-0.39 0-0.7 0.31-0.7 0.7 0 0.39 0.31 0.7 0.7 0.7z" fill="#333"/>
  <path d="m144 127s0.64-0.98 0.16-1.3c-0.48-0.33-6.5 0.33-7.6 1.2-1.1 0.88 7.4 0.085 7.4 0.085z" fill="#333"/>
  <path d="m152 127s-0.052-1 0.39-1.1c0.44-0.13 8.2 1.6 8.4 2.2s-7.7-0.6-8.8-1z" fill="#333"/>
  <path d="m121 239-0.16-0.16s-0.89 0.32 0.16 0.16z" fill="#FCD8CD"/>
  <path d="m134 233c0.32 0.081 0.81 0.081 1.2 0.081 4.3-0.24 9.4-6.1 12-9.6-0.56-0.56-2.3-2.1-4.3-3.2-1.9 0-4 0.32-5.7 1.1-0.081 1.9-0.64 7.4-3.5 12z" fill="#F2C1B8"/>
  <path d="m149 218s-11 13-22 12c-1-0.16-1.9-0.64-2.7-1.3-7.1-6.4-5.7-33-5.5-35 0.24-2 10-7.6 14-9.3 0.64-0.4 1.1-0.56 1.1-0.56l22 14c0-0.081-11 14-6.8 21z" fill="#FCD8CD"/>
  <path d="m134 187c-2 2-7.4 5.8-7.4 5.8s-4.9 11-4.8 20c0.081 6.8 1.2 12 3.5 15-7.1-6.4-5.7-33-5.5-35 0.24-2 10-7.6 14-9.3 0.81 1.3 1 2.4 0.48 3.1z" fill="#F2C1B8"/>
  <path d="m118 241c6-1 6-1.5 9.5-3.6 5-1.3 7.5-5.9 8.7-9.9-2.7 1.2-5.5 1.9-8.2 1.4-6.2-0.89-7.4-14-7.3-24 0-1.5 0.08-3 0.08-4.4-0.32-6 4.3-9.2 4.3-9.2 2.8 3.8 9.1 9.9 21 12 0 0-0.24 8.2-0.89 18v0.32c-1.7 25 3 36 3.7 7.6 5.7 17 16 16 16 16 0.32-0.16 0.64-0.24 0.89-0.16 11-5.6 8-16 8-16-16-22-5-25-5.6-31-0.56-6.8-3.1-18-11-23-7.8-5.6-16-0.72-21-0.56-0.64 0-1.4 0.16-2.1 0.48-1.9-1.1-9.9 2.9-11 4.3 0 0-5.9 4.1-6 11-0.16 6.7-0.16 9.6 1.4 13 0 0-7.6 40-0.51 39z" fill="#333"/>
  <path d="m152 207s3.9-3.1 4.2 1.5c0.32 4.7-4.4 7.7-4.8 8.1s0-7.6 0.64-9.6z" fill="#F2C1B8"/>
  <path d="m142 210s-5.2 1.2-7.1-1.9c0 0-0.4 1.3 0 1.4 0.32 0.08 4.3 2.6 7.1 0.56z" fill="#000"/>
  <path d="m122 204s0.4 2 4.6 2.3c0 0-2.4 0.56-4.9-1.1 0 0-0.32-0.4 0.32-1.1z" fill="#000"/>
  <path d="m127 209s-2.2 5.9-3.9 7.7c0 0 2 1.2 4.2 0.48 2.2-0.81-0.32-8.2-0.32-8.2z" fill="#F2C1B8"/>
  <path d="m129 223c-3.4 0-4.8-2.7-4.8-2.7l0.48-0.24c0.081 0.16 2.3 4.2 8 1.4l0.24 0.48c-1.5 0.64-2.8 0.97-3.9 0.97z" fill="#000"/>
  <path d="m128 202c0.24 0.16-0.081-0.97-0.24-0.97s-3-1.3-6.3-0.16c0.081 0 5.8 0.64 6.5 1.1z" fill="#333"/>
  <path d="m135 202c0.16 0 4.1 0.16 6.4 1.3 0 0-6.4-0.48-6.5-0.4-0.16 0.08 0.081-0.89 0.081-0.89z" fill="#333"/>
  <path d="m291 229c-0.67 0.7-2.1 1.5-3.8 2-2.3 0.77-4.7 1.1-5.5-0.064-1.3-1.9 4.4-12 4.4-12s2.2-1.3 4.1-1.1c0.68 0.064 1.3 0.35 1.8 1 1.6 2.4 0.58 9-1 11z" fill="#F2C1B8"/>
  <path d="m290 217c-0.45 2.4-1.9 11-3 14-2.3 0.77-4.7 1.1-5.5-0.064-1.3-1.9 4.4-12 4.4-12s2.2-1.3 4.1-1.1z" fill="#D1A19D"/>
  <path d="m259 230c-1 0.36-2.1 0.26-3.2-0.16-3.6-1.5-7.1-6.5-7.4-12-0.15-3.2 1.2-4.2 2.7-4.4 1.6-0.23 3.4 0.47 3.4 0.47s8.8 14 4.6 16z" fill="#F2C1B8"/>
  <path d="m259 230c-1 0.36-2.1 0.26-3.2-0.16-0.81-2.7-4.7-11-4.7-16 1.6-0.22 3.4 0.47 3.4 0.47s8.8 14 4.6 16z" fill="#D1A19D"/>
  <path d="m255 221s-3.8-4.5-4.4-1.7c-0.48 2.7 2.4 2.8 4.4 1.7z" fill="#D1A19D"/>
  <path d="m262 241c0.24-1.7 0.36-2.9 0.36-2.9s18-12 20-2.4c0.19 1.2 0.3 2.4 0.33 3.7-1.8 3.5-3.3 5.2-3.3 5.2-11 2.5-12 0.33-12 0.33-1.7-0.92-3.1-2.3-4.4-3.9z" fill="#FCD8CD"/>
  <path d="m289 217c-0.34 2.8-0.82 5.4-1.3 7.8-1.2 5.1-2.8 9.2-4.2 12-0.37 0.72-0.67 1.5-1 2.1-1.8 3.5-3.3 5.2-3.3 5.2-5 1.2-8 1.3-9.9 1.1-2-0.19-2.6-0.78-2.6-0.78-1.7-0.99-3.1-2.3-4.4-4-8.3-10-8.2-31-8.2-31-0.16-0.7-0.32-1.5-0.33-2.2-0.33-3.7 0.94-6.7 3.1-9.2 8.8-10 33-9.6 33 9.1-0.15 3.2-0.36 6.2-0.71 9z" fill="#FCD8CD"/>
  <path d="m269 246c-2-0.19-2.6-0.78-2.6-0.78-1.7-0.99-3.1-2.3-4.4-4-8.3-10-8.2-31-8.2-31-0.16-0.7-0.32-1.5-0.33-2.2-0.33-3.7 0.94-6.7 3.1-9.2 0.03 9.3 1.3 34 12 47z" fill="#F2C1B8"/>
  <path d="m270 215s-4.3 12-3.7 14c0 0 1.6 2.7 8.1-0.44-0.068-0.083-0.26-5.3-4.4-14z" fill="#F2C1B8"/>
  <path d="m289 202c-0.34-1.2-0.11-3.7-0.54-6.3-0.43-2.6-4.5-7.2-6.1-8.5-0.63-0.52-2.3-1-4.3-1.5 0.44-0.64 1.2-1.2 1.2-1.2-0.53-0.05-1.1 0.35-1.4 0.77 0.072-0.75 0.36-1.4 0.36-1.4-1 0.28-1.4 1.1-1.5 1.5-2.6-0.55-5.7-1-8.5-1.3-5.6-0.53-11 4.6-15 8.2-3.7 3.5-1.9 22-1.9 22s3.1 1.8 2.5-0.9c-0.47-2.2 0.22-8.7 0.41-11 2.5 0.31 11 1.4 21 1.1-0.18 1-0.74 2.2-2.2 2.1 0 0 2.2 1.5 5.1-2.2l0.15 0.014c-0.028 0.3-0.2 0.51-0.29 0.66-0.17 0.21 0.6 0.13 1.3-0.79 2.1-0.18 4.4-0.42 6.5-0.82 0.19 0.4 0.3 0.79 0.48 1.3 1.1 4.1 1.5 10 1.5 11 4e-3 0.76 1-0.58 1.4-1.5 0.54-0.94 0.45-10 0.11-12z" fill="#333"/>
  <path d="m289 214c-2.6-0.25-3.9-0.6-6.6-0.7-2.8-0.11-7.2-0.15-7.9 0.54-0.75 0.69-1.7 0.9-3.2 0.91-1.5-0.067-2.1-0.28-2.8-1-0.69-0.75-5.1-0.94-7.9-0.98-2.8-0.11-4 0.15-6.6 0.28-2.6 0.13-1.7 0.98-1.7 1.5-0.05 0.53 0.33 0.56 0.95 1.2 0.62 0.67 0.6 2.5 0.6 2.5 0.49 5.2 2.9 6.6 6.9 6.6 4 0.15 4.9-0.75 6.1-1.6 1.1-0.88 2.1-4 2.5-5.1 0.41-1.1 2.1-1.2 2.1-1.2s1.7 0.16 2.1 1.3c0.34 1.2 1.1 4.4 2.2 5.3 1.1 0.94 1.9 1.9 6 1.9 4 0.15 6.5-1.1 7.3-6.3 0 0 0.097-1.8 0.76-2.4 0.67-0.62 0.97-0.59 1-1.1-0.026-0.53 0.96-1.3-1.7-1.6zm-21 5.7c-0.6 2.3-2.3 4.7-7 4.5-4.8-0.3-5.1-2-5.5-3-0.36-0.94-0.9-4.1-0.83-5.6s1.1-1.7 1.1-1.7c2.6-0.82 8.5-0.33 11 0.42 2.3 0.83 2.1 3.1 1.5 5.4zm19 2.5c-0.47 0.94-0.93 2.6-5.7 2.6-4.8 0-6.3-2.6-6.7-4.9s-0.62-4.6 1.8-5.2c2.4-0.68 8.3-0.73 11 0.2 0 0 1 0.33 0.97 1.8 7e-3 1.5-0.67 4.6-1.1 5.6z" fill="#000"/>
  <path d="m262 219c0.58 0.056 1.1-0.37 1.2-0.95 0.055-0.58-0.37-1.1-0.95-1.2-0.58-0.056-1.1 0.37-1.2 0.95-0.055 0.58 0.37 1.1 0.95 1.2z" fill="#000"/>
  <path d="m279 220c0.58 0.055 1.1-0.37 1.2-0.95 0.055-0.58-0.37-1.1-0.95-1.2-0.58-0.055-1.1 0.37-1.2 0.95-0.055 0.58 0.37 1.1 0.95 1.2z" fill="#000"/>
  <path d="m287 222c-0.47 0.94-0.93 2.6-5.7 2.6-4.8 1e-3 -6.3-2.6-6.7-4.9-0.46-2.3-0.62-4.6 1.8-5.2 2.4-0.68 8.3-0.73 11 0.2 0 0 1 0.32 0.97 1.8 8e-3 1.5-0.67 4.6-1.1 5.6z" fill="#fff" opacity=".5"/>
  <path d="m267 219c-0.6 2.3-2.3 4.7-7 4.5-4.8-0.3-5.1-2-5.5-3-0.36-0.95-0.9-4.1-0.83-5.6 0.068-1.5 1.1-1.7 1.1-1.7 2.6-0.82 8.5-0.34 11 0.42 2.3 0.83 2.1 3.1 1.5 5.4z" fill="#fff" opacity=".5"/>
  <path d="m281 229-0.36 0.57-5 4.6-7.4-0.86c0.4-0.19 4.1-1.8 12-4.2 0.075 7e-3 0.23-0.054 0.39-0.12z" fill="#fff"/>
  <path d="m269 234c0.84-0.071 1.8-0.21 2.3-0.24-0.39 0.11-0.56 0.25-1.4 0.55l-0.88-0.31c-0.082 0.068-0.082 0.068 0 0z" fill="#000"/>
  <path d="m273 233-0.16 0.061c0.082-0.068 0.16-0.061 0.16-0.061z" fill="#fff"/>
  <path d="m281 229-0.36 0.57-1.3 0.64 1.2-1.1c0.15 0.014 0.31-0.047 0.47-0.11z" fill="#000"/>
  <path d="m266 211s0.56-1.9 0.21-2.2c-0.36-0.26-9.1 1.2-9.9 1.9-0.76 0.76 9.7 0.24 9.7 0.24z" fill="#000"/>
  <path d="m276 209s-0.66-1.9-0.26-2.1c0.4-0.19 9 0.93 9.7 1.8 0.77 0.68-9.4 0.32-9.4 0.32z" fill="#000"/>
  <path d="m270 219s-2.3 7.9-2.1 8.9c0.28 1 1.1-1.6 2.1-8.9z" fill="#FBDDDA"/>
  <path d="m153 170s0.42 4.9 4.8 13l3-3.9s-5.1-9.6-5.3-9.7c-0.21 0-2.5 0.43-2.5 0.43z" fill="#948375"/>
  <path d="m191 193c-2.4 3.8-17 16-19 15-1.7-0.43-5.5-4.9-8.3-8.4-0.92-1.1-1.7-2.2-2.3-3-1.6-2.1-2.8-8.2-4.4-16-0.92-4.5-2.9-8.6-2.6-13 0.14-1.1 0.43-2.3 0.99-3.5 1.1-2.3 4.5-7.2 6.1-7.7 1.6-0.5 15-2.6 15-2.6s7.2-0.21 11 3.3c2.8 2.7 2.3 9.4 2.7 9.6 0.57 0.28 2.2 6.3 3.4 13 0.99 4.8 0.99 8.4-2.1 13z" fill="#FCD8CD"/>
  <path d="m167 178c0.21 0.28-0.99 8.7-0.85 11 0.14 2.6 6.6 0.21 7.2-1.6 0.57-1.9-6.3-9.7-6.3-9.7z" fill="#F2C1B8"/>
  <path d="m185 160s2.6-3 4.3-2.8c1.6 0.14 4.5 1.5 5.2 6.8s1.8 16 0.64 17c-1.2 0.57-2.3 0.57-2.3 0.57s-3.7-7.7-6.7-15c-0.85-2.1 0.14-5.4-1.1-6.7z" fill="#AD9989"/>
  <path d="m193 190c0.14-2.6 0.36-5.7-0.57-10-0.21-1.1 0.36-2.2 1.4-2.6 1.7-0.71 3.6-0.99 4.5 0.42 1.9 2.6 0.21 9.8-5.4 12z" fill="#F2C1B8"/>
  <path d="m164 200c-0.92-1.1-1.7-2.2-2.3-3-1.6-2.1-2.8-8.2-4.4-16-0.92-4.5-2.9-8.6-2.6-13l1.1 0.5c-0.07 0.071 5 22 8.2 31z" fill="#F2C1B8"/>
  <path d="m187 157s-2.6-10-16-8.2c-24 3.1-20 20-19 21 0.28 1.1 3.3 3.1 4.1 6.2 0 0 1.6-8.3 4-11 3-2.9 6.1-3.2 9.8-4.2 4-1.1 7.8-4.2 15-1.7 7.6 2.4 2.6-2.3 2.6-2.3z" fill="#AD9989"/>
  <path d="m174 179s2.5 3 6.9-0.57c0.99-0.85 0.14-4.5-3-4.4-2.8 0.071-5.9 2.7-3.8 5z" fill="#fff"/>
  <path d="m177 178c0.63 0 1.1-0.51 1.1-1.1 0-0.63-0.51-1.1-1.1-1.1-0.63 0-1.1 0.51-1.1 1.1 0 0.63 0.51 1.1 1.1 1.1z" fill="#000"/>
  <path d="m181 170c-2.1 1.3-7.3 4.2-10 1.6 0 0 2.6-2.8 10-2.3 0.36 0.071 0.43 0.5 0.14 0.71z" fill="#948375"/>
  <path d="m156 179c2-0.28 7.2-1.3 7.9-4.7 0 0-3.2-0.36-8.1 4.3-0.14 0.14 0 0.5 0.21 0.42z" fill="#948375"/>
  <path d="m165 182s-0.5 4-5.2 3.5c-1.2-0.14-2.4-3.3-0.28-4.9 2.1-1.6 5.7-1.3 5.5 1.4z" fill="#fff"/>
  <path d="m162 183c0.59 0 1.1-0.48 1.1-1.1 0-0.59-0.48-1.1-1.1-1.1-0.59 0-1.1 0.48-1.1 1.1 0 0.59 0.48 1.1 1.1 1.1z" fill="#000"/>
  <path d="m169 196c-0.14 0-0.21-0.071-0.21-0.21 0-0.14 0.071-0.28 0.21-0.28 2.4-0.28 7.3-2.2 10-5.9 0.071-0.14 0.21-0.14 0.36-0.07 0.14 0.07 0.14 0.21 0.071 0.35-2.8 3.8-7.9 5.8-10 6.1 0.071 0 0 0 0 0z" fill="#000"/>
  <path d="m168 205s1.3-0.28 2.6-2.4c0 0 1.6-1.5 3.3-0.64 1.7 0.85 4.4 1.3 5.9 1.1 0 0-3.9 5-7.7 5.2-3.8 0.21-4.1-3.3-4.1-3.3z" fill="#948375"/>
  <path d="m307 218c-0.15-0.075-0.3-0.075-0.46-0.15l0.076-0.15c0.15 0.076 0.3 0.076 0.46 0.15l-0.076 0.15z" fill="#F2C1B8"/>
  <path d="m351 217-0.15-0.075s0-0.076 0.075-0.15l0.15 0.076-0.076 0.15z" fill="#F2C1B8"/>
  <path d="m349 210-0.076-0.076 0.076 0.076z" fill="#F2C1B8"/>
  <path d="m315 220-0.076 0.84v0.23c-0.076 0.68-0.15 1.5-0.075 2.4-1.1 0.99-0.99 5.2-0.99 6.1-0.46 0.23-0.91 0.46-1.5 0.61-0.53 0.15-1.1 0.23-1.7 0.23-4.2 0.23-6.3-5.6-6.1-11v-0.15c0.15-3.5 1.4-6.4 3.7-6.5 3.7-0.15 5.8 3.9 6.8 6.8z" fill="#F2C1B8"/>
  <path d="m356 234c-0.3 2.2-1.1 4.4-2.7 6.2-0.46 0.53-0.91 0.99-1.5 1.4-0.91 0.76-2 1.4-3.3 2-2.1 0.84-4.7 1.4-8 1.6-24 1.2-27-16-27-16v-0.15c0-1.1-0.075-5.2 0.99-6.1 0.075 1.6 0.46 3 1.8 2.4 0.15-0.076 0.38-0.15 0.61-0.3 0.61-0.38 0.99-0.84 1.3-1.2 0.46-0.68 0.46-1.3 0.3-1.8-0.3-1.1-1.4-1.8-1.7-1.9 0 0 3.3-1.4-0.53-4.9 0 0 4.9-0.99 1.8-4.6 0 0 2.6-2.2 0.68-4.4 0 0 1.7 0.68 4.4-0.076 1.3-0.38 2.9-1.1 4.6-2.3 0 0 7.9-5.2 11-0.53 0 0 4.3 6.6 7 2.1 0 0 3.6-0.53 4.9 2.3 0 0 0.38 3 2 0.61 0.68 2.2 1.3 5 1.4 8 0.076 1.4 0 2.8-0.23 4.2 0 0 1.5 3.1 2.2 7.1 0.076 0.38 0.15 0.76 0.15 1.1 0.15 1.5 0.23 3.3 0 5.2z" fill="#FCD8CD"/>
  <path d="m318 211s2.6-2.2 0.68-4.4c0 0 1.7 0.68 4.4-0.076-1.4 3.7-3.6 10-4.6 16-0.3-1.1-1.4-1.8-1.7-1.9 0 0 3.3-1.4-0.53-4.9-0.076 0 4.8-0.99 1.7-4.6z" fill="#F2C1B8"/>
  <path d="m352 242c-0.91 0.76-2 1.4-3.3 2-2.1 0.84-4.7 1.4-8 1.6-24 1.2-27-16-27-16v-0.15c0-1.1-0.075-5.2 0.99-6.1 0.075 1.6 0.46 3 1.8 2.4 0.15-0.076 0.38-0.15 0.61-0.3 0.61-0.38 0.99-0.83 1.3-1.2-0.53 3.9-0.3 7.4 1.4 9.1 5.2 4.9 17 8.6 32 8.7z" fill="#F2C1B8"/>
  <path d="m360 221c0.3 5.8-2.4 7.1-4.3 7.1-0.68-4-2.2-7.1-2.2-7.1 0.23-1.4 0.23-2.9 0.23-4.2 0.3-0.15 0.68-0.38 1.1-0.61 1.9-0.99 4.9-1.4 5.2 4.9z" fill="#F2C1B8"/>
  <path d="m355 216c-0.38 0.23-0.76 0.46-1.1 0.61-0.075-3-0.68-5.8-1.4-8-1.7 2.4-2-0.61-2-0.61-1.3-2.8-4.9-2.3-4.9-2.3-2.7 4.5-7-2.1-7-2.1-3.1-4.6-11 0.53-11 0.53-5.2 3.8-9 2.4-9 2.4 2 2.2-0.68 4.4-0.68 4.4 3 3.6-1.8 4.6-1.8 4.6 3.9 3.6 0.53 4.9 0.53 4.9 0.61 0.23 3.7 2.6 0.23 4.9-0.23 0.15-0.38 0.23-0.61 0.3-1.4 0.61-1.7-0.83-1.8-2.4 0-0.83 0-1.7 0.076-2.4v-0.23l0.076-0.76c-0.99-2.9-3-7-6.8-6.8-2.4 0.15-3.6 3.1-3.7 6.5-7.1-2-2.5-8.6-2.5-8.6-5.7-4.9 0.46-9.3 0.46-9.3-4-6.4 4.5-7.3 4.5-7.3-1.1-5.8 6.6-3.1 6.6-3.1-0.38-3.5 2.9-3.3 2.9-3.3 5.6-9.7 9.5-0.38 9.5-0.38 4.6-9.4 10-0.3 10-0.3 12-6.5 10 4.4 8.8 4.2 9.5-2.3 7.1 9 6.2 9 9-0.15 3.7 9.1 3.7 9.1 2 1.5 0.76 5.6 0.53 6.4z" fill="#594433"/>
  <path d="m333 213c0.61-0.46-5.2-0.91-7.1 0.38 0 0-1.7 0.91-1.7 1.4 0 0 0.91 0.23 4.2-0.46 3.3-0.68 3-0.23 4.6-1.4z" fill="#000"/>
  <path d="m342 212c-0.53-0.38 4.4-1.4 6.1-0.3 0 0 1.4 0.76 1.6 1.3 0 0-0.76 0.3-3.6-0.076-3-0.38-2.7 0.076-4.1-0.91z" fill="#000"/>
  <path d="m333 218c-0.15 0.91-0.76 2.4-3.6 3-2.7 0.46-3.9-0.76-4-2.6v-0.3c-0.15-2.9 6.6-3.1 7.7-0.76-0.076-0.076-0.076 0.23-0.076 0.68z" fill="#fff"/>
  <path d="m349 217v0.3c-0.23 2.7-1.1 2.7-3.9 2.8-2.5 0.15-3-2.1-3.1-2.7v-0.15c-0.68-2.2 7.2-3.4 7-0.3z" fill="#fff"/>
  <path d="m329 219c0.54 0 0.99-0.44 0.99-0.99 0-0.54-0.44-0.99-0.99-0.99-0.54 0-0.99 0.44-0.99 0.99 0 0.54 0.44 0.99 0.99 0.99z" fill="#000"/>
  <path d="m346 218c0.54 0 0.99-0.44 0.99-0.99 0-0.54-0.44-0.99-0.99-0.99-0.54 0-0.99 0.44-0.99 0.99 0 0.54 0.44 0.99 0.99 0.99z" fill="#000"/>
  <path d="m338 217s3 6.9 3 9c0 2.1-6.1 1.7-5.8 0.15 0.3-1.4 2-9.6 2.8-9.2z" fill="#F2C1B8"/>
  <path d="m336 228c0-0.3-0.3-0.61-0.61-0.68-0.91-0.15-3-0.076-5.7 3.3 0 0-3.2 4 0.68 2 3.5-1.7 5.8-3.2 5.6-4.7z" fill="#594433"/>
  <path d="m341 228c-0.15-0.53 0.23-1.1 0.76-1.1 0.83-0.15 2.5 0.15 4.7 2.7 0 0 3 3.3-0.38 1.9-2.8-1.1-4.7-2.2-5.1-3.4z" fill="#594433"/>
  <path d="m337 233c-1.1 0-2-0.15-2.8-0.46-0.15-0.076-0.23-0.23-0.15-0.3 0.076-0.15 0.23-0.23 0.3-0.15 2.4 0.91 6.8-0.075 8.3-0.46-0.38-0.23-0.91-0.68-1.3-1.2-0.076-0.15-0.076-0.3 0.076-0.38 0.15-0.076 0.3-0.076 0.38 0.076 0.68 0.91 1.7 1.4 1.7 1.4 0.076 0.075 0.15 0.15 0.15 0.23s-0.075 0.23-0.15 0.23c0 0-1.6 0.46-3.5 0.76-1.1 0.23-2.1 0.3-3 0.3z" fill="#020202"/>
  <path d="m356 229c0-0.3-0.076-0.68-0.15-1.1-0.38-2.5-1.6-7.1-2.2-7.1-0.76 0 1.1 9.6-0.3 11-1.4 1.3-0.53 4.9-2 7.2-1.1 1.7-2.1 2.4-4.4 2.2 0.15-0.61 0.076-1.3-0.23-2-1.5-3.5-3-1.2-5.6-0.99-2.7 0.23-3-0.91-4.6 0.3-1.6 1.3-0.99 3.9-0.99 3.9-3.6 1.4-11-2-15-4.4-2.9-1.8-3.7-8.7-3.9-12-0.076-1.1-0.076-1.9-0.076-1.9-0.76-0.84-1.4-0.91-1.7-0.53-1.1 0.99-0.99 5.2-0.99 6.1v0.15c-0.15 2.4 4.4 15 7 14 2.6-0.38 11 2.1 13 3.3s7.1 2.1 9.6 0.76c1.4-0.76 3.9-1.6 6-2.4 1.5-0.61 3-1.2 3.6-1.8 1.1-0.99 0.99-2.2 1.2-3.3 0.076-0.61 0.3-1.1 0.76-1.5 0.99-0.76 1.4-2.7 1.5-4.8 0.076-2.3-0.076-4.5-0.15-5.4z" fill="#594433"/>
  <path d="m413 173c0.4 0.064 0.78-0.24 0.85-0.67 0.071-0.44-0.2-0.84-0.6-0.91-0.4-0.064-0.78 0.24-0.85 0.67-0.07 0.44 0.2 0.84 0.6 0.91z" fill="#594433"/>
  <path d="m412 179s-0.57-17-0.36-18c0.21-1.7 4.3-7.9 6.6-8.7 2.3-0.85 14-3.3 18-2 3.9 1.3 6.5 4.3 6.6 6.7 0 0 6.4 2 4.7 10-1.7 8.2-3.8 15-3.8 15s-1.2 5-1.5 5-30-7.4-30-7.4z" fill="#594433"/>
  <path d="m442 182s2-3.7 4.7-2.6c2.7 1.2 1.9 6 0.29 7.4-1.6 1.4-3.1 4-4.1 3.9-1.1-0.1-3.6 0.031-3.4-1.8 0.16-1.9 2.6-7 2.6-7z" fill="#F2C1B8"/>
  <path d="m413 175s-1-2.5-2.6-1.8c-1.6 0.75-2.6 4.7-2.5 5.8s1.5 4.5 2 5.4c0.39 0.94 1.3 1.6 3.7 1.2 2.9-0.34-0.57-11-0.57-11z" fill="#F2C1B8"/>
  <path d="m444 183c-0.2 1.3-0.42 2.2-0.54 2.5-0.57 1.5-3.2 12-4.3 12s-8.7 7.4-9.9 7.7-8-0.68-9-1.4c-0.24-0.17-0.75-0.8-1.5-1.7-2.2-2.8-6-8-6.5-9-0.73-1.3 0.72-6.6 0.58-7.4-0.14-0.83-0.026-11 0.37-12 0.22-0.98 0.43-3.9 0.59-6.2 0.057-1.6 0.12-2.8 0.12-2.8l1.6-5.6s1.2-0.2 3-0.47c3.9-0.59 10-1.5 10-1.5 0.26 0.042 12 3.7 12 3.7s4.7 4.5 4.4 8.9c-0.038 1.1-0.19 2.5-0.37 4-0.17 3.1-0.62 6.8-1 9.3z" fill="#FCD8CD"/>
  <path d="m419 202c-2.2-2.8-6-8-6.5-9-0.73-1.3 0.72-6.6 0.58-7.4-0.14-0.83-0.027-11 0.37-12 0.22-0.98 0.43-3.9 0.59-6.2 0.057-1.6 0.12-2.8 0.12-2.8l1.6-5.6s1.2-0.2 3-0.46c-1.2 5.1-3.7 15-3.6 17 0.12 2.2-1.2 13 1.1 16 2.3 3.7 2.7 7 5.7 8.6 1.2 0.74-0.51 1.5-3 2z" fill="#F2C1B8"/>
  <path d="m413 168s3.8-5.8 6.3-5.7c2.5 0.063 10 2.3 15 1.1 4.9-1.2 9.5 2.7 12 6.9 1.8 0.012-3.3-12-6.9-14-2.1-0.94-23-1.4-24 0.55l-2.4 4.9 0.12 6.4z" fill="#594433"/>
  <path d="m424 174s-0.019-1.6-0.34-1.7c-0.32-0.12-5-0.67-5.6-0.3-0.6 0.38-2.1 1.5-2.2 1.9s2.2-0.93 3.1-0.92c0.94 0.017 5 1 5 1z" fill="#594433"/>
  <path d="m433 174s0.63-1.4 0.97-1.4c0.34-0.013 5 0.54 5.6 1 0.53 0.49 1.8 2 1.8 2.4s-1.6-1.3-2.5-1.6c-0.98-0.22-5.8-0.46-5.8-0.46z" fill="#594433"/>
  <path d="m421 175c0.8 0.062 1.6 0.33 2 0.8 0.29 0.32 0.3 0.66 0.38 1 0.069 0.42 0.071 0.82-0.069 1.3-0.11 0.25-0.23 0.57-0.59 0.72-0.3 0.16-0.58 0.24-0.92 0.26-1.2 0.14-2.5-0.14-3.5-0.76-0.79-0.53-1.1-1.3-1.1-2 0.03-0.6 0.83-0.95 1.6-1.2 0.7-0.16 1.4-0.17 2.1-0.13z" fill="#fff"/>
  <path d="m433 178c0.3-0.22 0.73-0.36 1.2-0.41 0.55-0.047 1.1 0.1 1.6 0.26 0.52 0.15 1 0.37 1.4 0.64 0.31 0.18 0.67 0.45 0.76 0.73 0.09 0.28 0.047 0.55 0.016 0.74-0.26 0.77-0.77 1.4-1.7 1.6-0.48 0.057-1 0.038-1.5-0.046-0.4-0.064-0.86-0.14-1.2-0.33-0.57-0.23-1-0.64-1.3-1.1-0.53-0.9-9e-3 -1.6 0.74-2.1z" fill="#fff"/>
  <path d="m428 177s-2.4 6.3-3.1 7.3c-0.77 1-1.8 3.4-1.8 3.6 0.045 0.14 1.4 2.9 3.7 2.8 2.2-0.11 3.7-1.8 3.8-2.6 0.061-0.8-2.5-11-2.5-11z" fill="#F2C1B8"/>
  <path d="m421 178c0.4 0.064 0.78-0.21 0.84-0.61 0.064-0.4-0.21-0.78-0.61-0.84-0.4-0.065-0.78 0.21-0.84 0.61-0.064 0.4 0.21 0.78 0.61 0.84z" fill="#000"/>
  <path d="m435 180c0.4 0.065 0.78-0.21 0.84-0.61 0.065-0.4-0.21-0.78-0.61-0.84-0.4-0.064-0.78 0.21-0.84 0.61-0.064 0.4 0.21 0.78 0.61 0.84z" fill="#000"/>
  <path d="m444 181-0.19 1.2c-0.2 1.3-0.42 2.2-0.54 2.5-0.57 1.5-3.2 12-4.3 12s-8.7 7.4-9.9 7.7-8-0.68-9-1.4-7.3-9.3-8-11c-0.73-1.3 0.72-6.6 0.58-7.4-0.14-0.83-0.19-11 0.2-12 0.22-0.98 0.59-4.1 0.75-6.4-0.041 0.67-0.57 14-0.23 15 0.27 1.3 0.16 8.3 0.34 9.6 0.25 1.4 4.7 9 5.5 9 0.82-0.07 1.5-1.7 4.2-1.5 5.4 0.4 4.6 3.1 6 3.6 1.5 0.51 7-5.6 8.1-6.9s3.5-5.6 4-8.7c0.57-3.1 2.6-11 3.2-14 0.8-3.3-0.82 8-0.82 8z" fill="#594433"/>
  <path d="m424 194c-0.066-0.011-0.19-0.098-0.18-0.16-0.055-0.076-0.034-0.21-0.023-0.27l1.1-1.8c0.087-0.12 0.23-0.17 0.42-0.068 0.12 0.087 0.17 0.23 0.068 0.42l-0.84 1.4c1.5-0.03 5.8-0.22 8.1-1.9 0.15-0.11 0.28-0.09 0.4 0.063 0.11 0.15 0.089 0.28-0.064 0.4-1.3 0.87-3.2 1.4-5.7 1.8-1.8 0.18-3.3 0.15-3.3 0.14z" fill="#000"/>
  <path d="m418 220s7.7 3.5 12 4.6c0 0 0.68 4.1-12 0.56-13-3.6-2.2-8-2.2-8l1.7 2.8z" fill="#F7A91E"/>
  <path d="m376 209s0.43 9.9 1.5 11c1.1 1.3 3.3 1.8 4.4-0.062 1.1-1.9 1.4-10 1.1-10-0.31-0.43-2.8-2.5-3.5-2.4-0.68 0.12-3.6 1.7-3.6 1.7z" fill="#594639"/>
  <path d="m379 219s-2.8-1.2-4 2-0.68 16 5.6 14c6.2-1.5-1.6-16-1.6-16z" fill="#15153F"/>
  <path d="m413 223s6.3-3.1 7.4 0.99c0 0-0.31 8.4-4.3 9.3-3.9 0.86-3.7 3.5-6.1 2-2.3-1.4 3-12 3-12z" fill="#F2C1B8"/>
  <path d="m413 228c-0.37 2.8-1.2 3.6-2.8 7.2-2.5 5.5-9.3 11-14 12-4.2 0.8-7 0.43-8.2-0.43-0.93-0.74-2.6-2.6-4.1-4.5-0.62-0.8-1.2-1.6-1.8-2.3-0.93-1.2-1.6-2.3-1.8-2.8-0.56-1.5-0.62-8.3-1.9-14-0.37-1.6-0.56-3.4-0.68-5.1-0.062-0.86-0.12-1.7-0.12-2.5-0.12-3.6 0.12-6.5 0.12-6.5 1.4 0 0.74-6.1 2.7-7.7 0.12-0.12 0.25-0.18 0.43-0.31 0.56-0.37 1.3-0.56 2.2-0.68 2-0.25 5 0.12 9.1 0.18 6.4 0.062 20 8.7 20 8.7s0.62 17 0.25 19z" fill="#FCD8CD"/>
  <path d="m384 242c-0.62-0.8-1.2-1.6-1.8-2.3-0.93-1.2-1.6-2.3-1.8-2.8-0.56-1.5-0.62-8.3-1.9-14-0.37-1.6-0.56-3.4-0.68-5.1-0.061-0.86-0.12-1.7-0.12-2.5-0.12-3.6 0.12-6.6 0.12-6.6 1.4 0 0.74-6.1 2.7-7.7 0.12-0.12 0.25-0.19 0.43-0.31l1.1 0.43-1.7 6.1s-0.43 3.7 0 10c0.43 6.3 0.31 15 0.99 18 0.43 1.9 1.8 5.7 2.7 7.5z" fill="#F2C1B8"/>
  <path d="m382 224s2.2-3.5 5.4-0.49c0 0 1.4 1.8-0.68 2.4-2.1 0.62-4.3 1.2-4.8-1.9z" fill="#fff"/>
  <path d="m398 223c0.12-0.56 2.5-1.4 4.6-0.49 0.43 0.18 0.74 0.49 0.99 0.74 0.37 0.43 0.37 1 0 1.4-0.43 0.49-1.2 1-2.5 1.1-3 0.062-3.5-1.5-3.2-2.8z" fill="#fff"/>
  <path d="m396 233c-0.49-1.8-1.4-3.3-1.4-3.3-0.99-2.5-3.5-5.5-3.5-5.5 0.12 2.5-0.37 5.6-0.62 7.2 0 0-1.9 0.99-1.5 2.3 0.31 1.3 3 1.7 5.6 1 1.4-0.37 1.8-0.99 1.5-1.7z" fill="#F2C1B8"/>
  <path d="m397 220s-0.56-2.4 0-2.6c0.56-0.18 6.8 0.12 8 1.4 1.2 1.2 2.5 2.2 2.2 2.5-0.86 0.68-1.7-2-10-1.3z" fill="#594639"/>
  <path d="m389 220s0.49-2.5 0-2.6c-0.56-0.12-6.8 0.25-8 1.5-1.2 1.3-2.4 2.3-2.2 2.5 0.8 0.8 1.7-1.9 10-1.4z" fill="#594639"/>
  <path d="m417 221c-1.7 1.2-3.8 0.25-5.1-1.1-1.4-1.3-1-5.7-2.8-7.3-1.7-1.5-7.8-4-9.9-3.6-2.2 0.31-7.4 0.56-9.6-0.62s-6.9-0.31-8.6 0.062c-1.7 0.43-3.8 2.9-4.3 3.6 0 0-0.8 2.5-1-3-0.062-1.7 0.43-3.7 1.2-5.6 0.74-1.8 1.8-3.6 2.9-5 1.4-1.9 2.9-3.3 4-3.7 3-1.2 6.4 0.62 10 0.31 3.8-0.37 4.7-0.62 8.1-0.68 4.8-0.12 15 9.4 15 12 0.19 2.8 1.9 13 0.25 14z" fill="#594639"/>
  <path d="m386 225c0.44 0 0.8-0.36 0.8-0.8 0-0.44-0.36-0.8-0.8-0.8-0.44 0-0.8 0.36-0.8 0.8 0 0.44 0.36 0.8 0.8 0.8z" fill="#000"/>
  <path d="m401 225c0.44 0 0.8-0.36 0.8-0.8 0-0.44-0.36-0.8-0.8-0.8-0.44 0-0.8 0.36-0.8 0.8 0 0.44 0.36 0.8 0.8 0.8z" fill="#000"/>
  <path d="m389 238c0.062-0.12 13-2.3 13-2.3l-6 4.9-7.2-2.6z" fill="#fff"/>
  <path d="m414 197c-0.25-0.37-0.49-0.68-0.74-0.99-2-2.7-3.9-3.5-3.9-3.5-2.3-1.1-4.6-1.8-7-2.2-11-1.9-22 3.3-22 3.3-1.5 1.9-3.5 7.7-4.6 12 0.86-0.12 1.9-0.31 3.1-0.43 0.31-0.062 0.56-0.062 0.86-0.12 0-0.12-0.86-2.7 0.56-4.9 1.4-2.3 18-2.3 19-2 1.2 0.31 0.93 6.7 1 6.9 3.2 1.4 7.5 4.3 11 7.1 0.18 0.12 0.43 0.31 0.62 0.43 2.8-5.9 2.2-12 1.5-15z" fill="#F4BC4F"/>
  <path d="m419 217c-1.6-1.2-4-3.1-6.6-4.9 2.7-5.9 2.1-12 1.5-15 0.99 1.5 1.9 3.3 2.8 5.8 0 0 4.4 1.6 5 3.3 0.31 1-1.4 7.2-2.7 11z" fill="#F7A91E"/>
  <path d="m419 217c-0.56 1.5-1.1 2.7-1.4 2.9 0 0-8.6-14-26-13-14 0.5-16 1.4-16 1.6-0.12-0.37 0.062-1.9 0.56-3.6 1.1-0.18 2.5-0.37 4-0.56 6.1-0.8 15-1.6 19-0.74 0.62 0.12 1.4 0.43 2.2 0.74 5.5 2.5 15 9.4 19 13z" fill="#F4BC4F"/>
  <path d="m418 218c-1.2-0.49-2.1-0.56-2.1-0.56-9.7 3.6-7.5 16-7.2 18 0.12 0.56 1 1.2 2.3 1.4 0.12-13 4.7-17 7-18z" fill="#15153F"/>
  <path d="m419 219c-0.31-0.18-0.62-0.37-0.93-0.49-2.3 1.4-6.9 5.7-7 19 0.25 0.062 0.43 0.062 0.68 0.12 2.9 0.25 7.1-1.2 9.2-8 1.8-6.2-0.062-8.9-2-10z" fill="#222157"/>
  <path d="m414 218s5.9-9.8 3.1-16c0 0 0.49-0.062 1.5 0.31 2.6 0.93 0.56 15-2.1 15-0.86 0.12-2.5 0.18-2.5 0.18z" fill="#15153F"/>
  <path d="m403 190c-4.5 0.68-13 2.1-15 3.2-2.5 1.4-5.4 3.3-7 5.4-0.93 1.2-1.4 3.8-1.5 5.9-1.2 0.18-2.2 0.31-3.1 0.43 1.1-3.9 3-9.8 4.6-12-0.061 0 11-5.1 22-3.3z" fill="#F7A91E"/>
  <path d="m224 236c-1.1 2.1-9.6 9.2-11 10-0.56 0.32-2 0.56-3.6 0.72-2.1 0.08-4.3 0-5.5-0.48-1.9-0.88-7-8.8-8.6-11-0.72-1-1.8-4.2-2.7-7.9-1.4-5.1-2.7-11-2.8-12 0 0 1-13 2.3-14 0.48-0.4 1.8-1 3.1-1.7 1.9-0.88 4.1-1.8 4.8-2.2 1.3-0.56 17 1.7 18 1.8s14 12 13 16c-0.8 3.6-4.9 17-7.3 21z" fill="#FCD8CD"/>
  <path d="m210 247c-2.1 0.08-4.3 0-5.5-0.48-1.9-0.88-7-8.8-8.6-11-0.72-1-1.8-4.2-2.7-7.9-1.4-5.1-2.7-11-2.8-12 0 0 1-13 2.3-14 0.48-0.4 1.8-1 3.1-1.7-0.96 6.3-2.3 16-1.8 18 0.8 4.2 2.7 17 6.1 20s3.7 7.1 8.6 7.5c0.72 0.02 1.1 0.42 1.2 0.98z" fill="#F2C1B8"/>
  <path d="m205 220s-4.1 8.8-3.3 11 8.8 0.56 8.8-1.4c0-4.3-5.5-9.3-5.5-9.3z" fill="#F2C1B8"/>
  <path d="m192 209c0.16 0.16 6 1.7 14-0.16 0 0-4.7 0.32-6.7-0.48 0 0 21 0.16 24-3.6 3.5-3.8-10-4.2-10-4.2l-21 1.7-0.49 6.7z" fill="#8C7567"/>
  <path d="m199 221c0.53 0 0.96-0.43 0.96-0.96s-0.43-0.96-0.96-0.96-0.96 0.43-0.96 0.96 0.43 0.96 0.96 0.96z" fill="#333"/>
  <path d="m215 219c0.53 0 0.96-0.43 0.96-0.96s-0.43-0.96-0.96-0.96-0.96 0.43-0.96 0.96c-0.01 0.53 0.42 0.96 0.96 0.96z" fill="#333"/>
  <path d="m192 218c0.88-0.96 6.9-1.8 9.1-1.3 1.1 0.32 1 5.5 0.24 6.4-1.1 1.4-6.4 3-8.2 1-1.8-1.9-1.9-5.4-1.1-6.2z" fill="#fff" opacity=".5"/>
  <path d="m220 214c-1.3-1.1-9.7 0.72-11 2.2-0.88 0.72 0.32 5.3 1.3 6.1 1.4 1 9.2 0.24 11-2.1 1.3-2.2 0.57-5.4-0.31-6.2z" fill="#fff" opacity=".5"/>
  <path d="m225 216c-0.16-0.72-0.32-1.8-0.48-2.6l-2.2-0.16c-4.1-1.5-13 0.8-15 2.2-1.5 1-3.6 0.8-5.5 0.64-2.3-0.16-8 0.16-12 1.7-0.32 0.16-0.56 0.24-0.88 0.4 0 0 0.08 2.3 0.48 3 0 0.08 0.08 0.08 0.16 0.16 0.56 0.4 0.8 0.16 1.4 1.8s1.6 3.6 4.9 3.6c2.9 0 5-0.88 6.1-2.3 1.1-1.4 1-4.2 1.4-4.9 0.64-1.3 1.5-1.4 2.5-0.24 0.48 0.56 1 3.3 2.4 4.5 1.4 1.1 6 0.16 8.8-0.48 3.2-0.72 3.8-2.8 3.9-4.6 0.16-1.7 0.48-1.5 0.96-2.1 0.08-0.16 0.16-0.4 0.16-0.64l2.4-0.08zm-23 7.8c-1.1 1.4-6.4 3-8.2 1-1.8-2-1.9-5.3-1-6.1 0.88-0.96 6.9-1.8 9.1-1.3 1.1 0.24 0.96 5.4 0.16 6.3zm18-3c-1.3 2.3-9.2 3.1-11 2.1-0.96-0.8-2.2-5.4-1.3-6.1 1.8-1.4 10-3.3 11-2.2 0.87 0.72 1.6 3.8 0.31 6.2z" fill="#333"/>
  <path d="m204 244c-0.32 0-1.7-0.48-1.8-0.16-0.16 0.8 0.96 2.4 1.6 2.9 0.96 0.64 12 0 12-1.8 0-1.8 0.16-2.2-0.72-2.5s-4.6 1.2-5.9 1.4c-1.3 0.25-3.6 0.01-5.2 0.09z" fill="#8C7567"/>
  <path d="m203 237 12-3.7-7.5 5-4.3-1.3z" fill="#fff"/>
  <path d="m207 212s-0.64-1.9-0.16-2.2 9.9-1 12 2.2c-4.3-0.48-9.5 0.08-12 0z" fill="#8C7567"/>
  <path d="m199 213s0-2.1-0.48-2.2c-0.56-0.08-7.5 0.88-8.5 4.5 4-1.6 6.9-1.6 9-2.3z" fill="#8C7567"/>
  <path d="m222 205s3.3 8.9 2.7 14c0 0 1.8-5.4 1.8-7.5 0 0 0.09 6.2 0 7.5 0 0 2.2-9.5 1.6-13-0.67-3.1-4.4-3.3-4.4-3.3l-1.6 1.7z" fill="#8C7567"/>
  <path d="m230 215-3.4-4.3 3-3.9 2.5 5.4-2 2.8z" fill="#8C7567"/>
  <path d="m231 212c-11-13-14-9.6-14-9.6l-26 4.9s-3-14 2.3-18c2.2-1.8 6.5-3.6 11-4.6 6.8-1.4 15-1.5 19 1.4 9.6 6 9 28 7.7 26z" fill="#F4BC4F"/>
  <path d="m204 185c-6.5 6.7-7.8 18-8.3 22l-5.4 0.99s-3-14 2.3-18c2.2-1.8 6.5-3.6 11-4.6z" fill="#CCA256"/>
  <path d="m209 196s18 10 21 17-4.5-19-6.5-20c-2-0.85-7.2-3.3-9-2.6-1.8 0.67-5.4 5.2-5.4 5.2z" fill="#F4BC4F"/>
  <path d="m221 204c-5.1 0.32-15-0.83-23 3-1.8 0.8-5.4 1.5-7.2 2.7 0 0 0.3 0.13-1.9-0.44-7.5-1.8-23-6.5-7.5-12 4.5-1.7 8.3-3.1 11-4.2 0.24-0.08 0.4-0.16 0.64-0.24 9.9-3 15-2.2 22 5.6 0.42 0.43 0.95 0.74 1.3 1.2 1.5 1.8 2.4 3.4 4 4.5z" fill="#D16978"/>
  <path d="m198 207c-1.8 0.8-5.4 1.5-7.1 2.7 0 0 0.22 0.13-2-0.44-7.5-1.8-23-6.5-7.5-12 4.5-1.7 8.3-3.1 11-4.2-2.2 3-3.6 7.2 1.1 11 1.4 1.1 2.7 2.3 3.9 3.6z" fill="#B25267"/>
  <path d="m228 212s6.5-5.6 6.8 1.3-4.8 10-6.9 11c-2.1 0.33 0.08-12 0.08-12z" fill="#FCD8CD"/>
  <path d="m388 124s-2.4 5.4-4.8 5.5c0 0 3 2.9 5 1.6 0 0-4.2 6.3-5 11 0 0 3.2-4.7 6-5.4 2.8-0.65 7.6-9.2 6.6-9.4-1.1-0.14-6.2-7-6.2-7l-1.6 4.1z" fill="#8C7567"/>
  <path d="m426 139s-0.22 10-12 14c-12 3.5-21 2.8-24-14-0.72-3.7-2.2-17 0.36-18 9.1-3.5 36 18 36 18z" fill="#726056"/>
  <path d="m388 131s0.22 12-1.2 13c0 0 2.2-2.9 2.8-6 0 0 0.65 6.4-0.22 8.4 0 0 2.9-5.7 3-9.4 0.22-3.6-4.4-6.2-4.4-6.2z" fill="#8C7567"/>
  <path d="m392 144c-0.14 0-0.36 0.071-0.57 0.071-7.2 0.29-5.3-16-4-16 0.22 0 0.5 0.14 0.79 0.22 1.4 0.57 3.3 1.9 3.2 2.2 0-0.072 6.7 12 0.57 13z" fill="#F2C1B8"/>
  <path d="m392 144c-0.14 0-0.36 0.071-0.57 0.071-7.2 0.29-5.3-16-4-16 0.22 0 0.5 0.14 0.79 0.22-2 4.6-1.6 14 3.8 15z" fill="#D1A19D"/>
  <path d="m392 135s0.071 0 0 0c0.071 0 0 0 0 0-0.22-0.57-0.57-1.1-1.1-1.6-0.93-1.1-2.2-2.2-3.2-1.6-1 0.5 0.29 1.4 1.7 2.2-0.86 0.5-1.6 1.5-0.72 3.4 1.3 2.8 4 0.22 3.3-2.2z" fill="#CF9F9B"/>
  <path d="m392 119-1.6 6.2s-0.072 0.22-0.14 0.57c-2.3 0.14-5.1-0.79-5.1-0.79v-0.65c0.14-1.1 0.86-3.2 3.7-4.5 0.93-0.36 1.9-0.64 3.1-0.86z" fill="#067D5C"/>
  <path d="m388 125s1.2-6 3.8-6.5c2.6-0.43-1.4 11-2.2 11-0.79-0.072-1.6-4.3-1.6-4.3z" fill="#8C7567"/>
  <path d="m412 145-1.4 11c-3.2 1.8-5.4 2.2-5.4 2.2-2.5-1.1-4.6-2.4-6.4-3.9l-0.29-3.3 13-6.2z" fill="#F2C1B8"/>
  <path d="m420 149c-3.3 3.3-6.4 5.4-8.8 6.7-3.2 1.8-5.4 2.2-5.4 2.2-2.5-1.1-4.6-2.4-6.4-3.9-7.7-6.2-9.3-15-9.1-21 0.072-4.6 1-7.9 1-7.9l2.5-10 2.6-2.1 8.8-7 11-0.86 10 15s0.29 5-0.22 11c-0.5 6.5-2.2 14-6.2 18z" fill="#FCD8CD"/>
  <path d="m405 158c-2.5-1.1-4.6-2.4-6.4-3.9-7.7-6.2-9.3-15-9.1-21 0.072-4.6 1-7.9 1-7.9l2.5-10 2.6-2.1c-1.6 5.2-2.8 10-3.4 15-0.5 3.2-0.65 6.2-0.5 9.1 0 0.5 0.072 1 0.14 1.5 0 0.22 0.072 0.5 0.072 0.72 1.1 7.7 4.9 14 13 20z" fill="#F2C1B8"/>
  <path d="m428 125s1.6 5 5.7 6.1c0 0-1.3 0.5-3.1 0.14 0 0-1 1.8 0.64 3.5 0 0-2.3-0.43-2.8-2.2 0 0 3.8 6.5 3.2 9.5 0 0-1.6-2.3-4.2-4.2 0 0-1.8 7-3.7 8.9 0 0 0.43-6 0.072-9s-1.1-12-0.36-14c0.72-1.9 4.4 1.3 4.4 1.3z" fill="#8C7567"/>
  <path d="m427 125s-2.5 0.79-7.2-1.1c-0.43-0.14-0.86-0.36-1.2-0.5-4.3-1.9-8.7-5.1-20-5.7-3.9-0.22-6.7 0.29-8.6 1-4.2 1.6-4.4 4.7-4.8 5.7 0 0-1.9-2.1-0.43-7.5 1.5-5.4 5.9-9.6 11-12 2.5-1.2 4.8-2.2 7-2.7 0.43-0.14 0.79-0.22 1.2-0.29 0.57-0.14 1.1-0.22 1.6-0.29 1.2-0.14 2.4-0.14 3.6 0 4.2 0.5 10 2.4 15 5.2 0 0 5.1 4.3 5.5 11-0.072 0.14 2.2 7.7-2.2 6.8z" fill="#099B74"/>
  <path d="m404 102c-8.8 6.7-12 13-14 17-4.2 1.6-4.4 4.7-4.8 5.7 0 0-1.9-2.1-0.43-7.5 1.5-5.4 5.9-9.6 11-12 2.5-1.2 4.8-2.2 7-2.7 0.43-0.14 0.86-0.22 1.2-0.29z" fill="#038C65"/>
  <path d="m402 103s-0.14-1.8 1.4-1.9c1.6-0.14 2.9 1.1 2.2 1.6-0.64 0.36-2.2 0.79-3.6 0.29z" fill="#067D5C"/>
  <path d="m391 122s20 2.4 22-0.22c0 0-17-4.4-19-3.7-2.2 0.72-2.7 3.9-2.7 3.9z" fill="#8C7567"/>
  <path d="m427 143c0.57-1.7 0.79-5.6 0.86-9 0.57-0.36 1-1.1 1.1-2.2 0.072-0.79-0.43-0.72-1.1-0.22v-3.6c0.5-0.29 1-0.43 1.4-0.5 1.1-0.14 2.9 13-2.2 15z" fill="#F2C1B8"/>
  <path d="m427 134c-0.072 3.4-0.29 7.3-0.86 9-0.22 0.071-0.43 0.14-0.72 0.22 0.64-2.6 0.79-6 0.79-9 0-0.72 0-1.4-0.072-2-0.072-1.4-0.14-2.7-0.22-3.7 0.36-0.22 0.72-0.43 1.1-0.57v3.6c0.64-0.43 1.1-0.57 1.1 0.22-0.072 0.93-0.5 1.7-1.1 2.2z" fill="#D1A19D"/>
  <path d="m405 131s-0.93 9.4-2.2 12c-0.14 0.29-0.071 0.57 0.22 0.72 0.72 0.36 2.1 0.65 3.3-0.29 0 0.072-0.43-7.5-1.3-12z" fill="#F2C1B8"/>
  <path d="m405 135s-0.43 5.5-0.93 6.1 0.5 0.86 0.64-0.072c0.14-0.93 0.29-6 0.29-6z" fill="#FBDDDA"/>
  <path d="m397 132c0.67 0 1.2-0.55 1.2-1.2 0-0.67-0.55-1.2-1.2-1.2-0.67 0-1.2 0.55-1.2 1.2 0 0.67 0.55 1.2 1.2 1.2z" fill="#3A322E"/>
  <path d="m413 132c0.67 0 1.2-0.54 1.2-1.2 0-0.67-0.54-1.2-1.2-1.2-0.67 0-1.2 0.55-1.2 1.2 0 0.67 0.55 1.2 1.2 1.2z" fill="#3A322E"/>
  <path d="m415 139c-0.57 0-1.1-0.072-1.6-0.14-3.9-0.79-6.2-3.9-5.5-7.5 0.29-1.4 1.2-2.7 2.6-3.5 1.9-1.1 4.4-1.5 6.6-0.86 1.6 0.43 2.9 1.4 3.7 2.5 0.79 1.3 1 2.8 0.65 4.7-0.36 1.8-1.4 3.2-2.9 4.1-1 0.5-2.2 0.79-3.4 0.79zm-0.14-12c-1.4 0-2.9 0.36-4 1.1-0.86 0.5-1.9 1.4-2.2 3-0.65 3.2 1.4 6 4.9 6.7s6.5-1.1 7.1-4.2c0.64-3.2-0.65-5.5-3.7-6.3-0.65-0.22-1.3-0.29-2-0.29z" fill="#3A322E"/>
  <path d="m407 131c-0.86 0-1.5-0.43-1.9-0.93-1 0.72-2.5 0.57-2.6 0.57l0.072-0.72s1.6 0.14 2.3-0.64c0.072-0.072 0.22-0.14 0.29-0.14 0.14 0 0.22 0.072 0.29 0.22 0 0.072 0.72 1.2 2.2 0.79l0.22 0.72c-0.29 0.071-0.57 0.14-0.86 0.14z" fill="#3A322E"/>
  <path d="m420 130-0.29-0.64c0.072 0 1.9-0.72 6.2-0.79v0.72c-4.2 0.072-5.9 0.72-5.9 0.72z" fill="#3A322E"/>
  <path d="m426 127s0.57 5.7 1.5 7.2c0 0-2.5-0.72-2.9-3.7-0.43-3 1.4-3.4 1.4-3.4z" fill="#8C7567"/>
  <path d="m391 129c-0.36-0.071-0.93-0.22-1.1-0.36l0.43-0.57c0.072 0.072 0.5 0.14 0.86 0.22l-0.14 0.72z" fill="#3A322E"/>
  <path d="m390 121c-0.79 2.7-2.3 7.6-3.3 8.5 0 0 2.2-1.4 2.9-2.5 0 0 0.072 1.1-1.1 3.7 0 0 5.9-10 6.5-12h-0.072c-1.9-0.93-4.3 0.14-4.9 2.3z" fill="#8C7567"/>
  <path d="m419 123c-0.071 0-1.1 0.29-3.2 0.072-1.9-0.14-4.7-0.65-8.4-2.1-3.7-1.4-7.2-2.2-10-2.5-3-0.29-5.6 0.072-7.4 0.93-2.9 1.4-3.6 3.4-3.7 4.5-0.072 0.29-0.072 0.5 0 0.65 0 0.29-0.86 0.5-0.57-0.57 0.43-1.4 0.86-7.3 13-6.7 11 0.65 16 3.8 20 5.7z" fill="#038C65"/>
  <g opacity=".5">
   <path d="m421 134c-0.72 3.5-4 5.2-7.5 4.4-3.5-0.72-5.9-3.6-5.2-7.1 0.72-3.5 5.2-5.1 8.7-4.1 3.2 0.86 4.7 3.2 4 6.7z" fill="#fff" opacity=".5"/>
   <path d="m415 139c-0.57 0-1.1-0.072-1.6-0.14-3.9-0.79-6.2-3.9-5.5-7.5 0.29-1.4 1.2-2.7 2.6-3.5 1.9-1.1 4.4-1.5 6.6-0.86 1.6 0.43 2.9 1.4 3.7 2.5 0.79 1.3 1 2.8 0.65 4.7-0.36 1.8-1.4 3.2-2.9 4.1-1 0.5-2.2 0.79-3.4 0.79zm-0.14-12c-1.4 0-2.9 0.36-4 1.1-0.86 0.5-1.9 1.4-2.2 3-0.65 3.2 1.4 6 4.9 6.7s6.5-1.1 7.1-4.2c0.64-3.2-0.65-5.5-3.7-6.3-0.65-0.22-1.3-0.29-2-0.29z" fill="#3A322E" opacity=".5"/>
  </g>
  <path d="m403 148 10-2.6-4.4 3.2-6-0.57z" fill="#fff"/>
  <path d="m401 126c-0.072 0-0.22 0-0.29-0.072-4.1-1.6-6.8-0.14-6.8-0.14-0.36 0.22-0.79 0.071-1-0.29-0.22-0.36-0.072-0.79 0.29-1 0.14-0.071 3.4-1.9 8.1 0.072 0.36 0.14 0.57 0.57 0.43 0.93-0.22 0.36-0.43 0.5-0.72 0.5z" fill="#3A322E"/>
  <path d="m418 126c-0.071 0-0.22 0-0.29-0.072-4.1-1.6-6.7-0.22-6.8-0.14-0.36 0.22-0.79 0.071-1-0.29-0.22-0.36-0.072-0.79 0.29-1 0.14-0.071 3.4-1.9 8.1 0.072 0.36 0.14 0.57 0.57 0.43 0.93-0.14 0.36-0.43 0.5-0.72 0.5z" fill="#3A322E"/>
  <path d="m396 138c-1.4 0-2.7-0.36-3.7-1-1.5-0.93-2.4-2.4-2.7-4.2s0-3.4 0.79-4.6c0.79-1.1 2.1-2 3.8-2.4 2.2-0.5 4.7-0.072 6.5 1.1 1.4 0.93 2.2 2.2 2.4 3.6 0.57 3.6-1.8 6.7-5.7 7.3-0.57 0-1 0.071-1.4 0.071zm0-12c-0.57 0-1.1 0.072-1.6 0.22-3.2 0.72-4.5 2.9-4 6.2 0.29 1.6 1.1 2.9 2.4 3.7 1.3 0.79 2.9 1.1 4.5 0.79 3.5-0.57 5.7-3.3 5.2-6.5-0.29-1.6-1.3-2.6-2.2-3.1-1.2-0.86-2.8-1.3-4.3-1.3z" fill="#3A322E"/>
  <g opacity=".5">
   <path d="m403 133v0c-0.5 2.4-2.7 4.2-5.4 4.7-1.5 0.29-3 0.072-4.2-0.5-0.5-0.22-1-0.57-1.4-0.93-0.93-0.79-1.5-1.9-1.8-3.3-0.43-2.7 0.43-4.7 2.2-5.7 0.57-0.36 1.3-0.64 2-0.79 3.5-0.79 8 0.93 8.5 4.4 0.22 0.72 0.14 1.4 0 2.1z" fill="#fff" opacity=".5"/>
   <path d="m396 138c-1.1 0-2.2-0.22-3.1-0.64-0.57-0.29-1-0.57-1.5-1-1-0.93-1.6-2.2-1.9-3.5-0.43-2.7 0.43-4.9 2.4-6.1 0.64-0.36 1.4-0.65 2.2-0.86 2.2-0.5 4.7-0.072 6.5 1.1 1.4 0.93 2.2 2.2 2.4 3.6 0.14 0.79 0.14 1.6 0 2.3-0.57 2.6-2.7 4.4-5.7 4.9-0.5 0.072-0.93 0.14-1.4 0.14zm0-12c-0.57 0-1.1 0.072-1.6 0.22-0.72 0.14-1.4 0.43-1.9 0.79-1.8 1.1-2.5 2.9-2.1 5.4 0.22 1.2 0.79 2.3 1.6 3.1 0.36 0.36 0.79 0.64 1.3 0.86 1.1 0.57 2.6 0.72 4 0.5 2.7-0.43 4.6-2.2 5.1-4.4 0.14-0.64 0.14-1.4 0-2.1-0.29-1.6-1.3-2.6-2.2-3.1-1.1-0.86-2.7-1.3-4.2-1.3z" fill="#3A322E" opacity=".5"/>
  </g>
  <path d="m280 162s-0.096-11 0.76-15c0.86-4.3 28-9 36-0.48 0 0 2.8 16 2.3 18-0.49 1.9-6.1-3.1-6.1-3.1l-16-7.1s-9.4 6.8-9.6 7.1c-0.23 0.36-7.2 1-7.2 1z" fill="#333"/>
  <path d="m318 165s5.9-4.8 7.4-1.2-2.3 11-6.9 8.4c0 0-3.8-2.6-0.48-7.3z" fill="#F2C1B8"/>
  <path d="m280 162s-7.8-5.4-8.6 1.8c-0.87 7.2 3.6 9 7.4 8 3.7-0.96 1.2-9.8 1.2-9.8z" fill="#F2C1B8"/>
  <path d="m314 188c-1.9 1.7-8.6 4.2-15 4-11-0.15-22-6.6-18-32 0 0 1.1-4.5 6.6-8.1 2.9-2 7.1-3.6 13-4.2 0 0 15-0.64 17 11 2.6 12 1.3 25-3.7 29z" fill="#FCD8CD"/>
  <path d="m298 192c-11-0.15-22-6.6-18-32 0 0 1.1-4.5 6.6-8.1-1.3 5.2-3.2 15-2.3 21 1.1 7.1 4.8 14 13 20z" fill="#F2C1B8"/>
  <path d="m289 173s19 0.88 22-0.4l-3.2 7.3-15-0.18-4.2-6.7z" fill="#fff"/>
  <path d="m291 176 7 0.074-6.6 0.44-0.32-0.51z" fill="#5757B0"/>
  <path d="m309 176s-5.9 0.67-5.7 0.68c0.29 0.042 5.4-0.1 5.4-0.1l0.24-0.58z" fill="#5757B0"/>
  <path d="m296 168s3.3-6.2 7.8-1.3c4.5 5-8.4 3.1-7.8 1.3z" fill="#F2C1B8"/>
  <path d="m298 166s2.2-3.5 2.4-5.8c0 0 1.5-3.3 2.5 0.044 1 3.4 3e-3 4.9 0.68 6.4 0.67 1.5-5.6-0.64-5.6-0.64z" fill="#F2C1B8"/>
  <path d="m299 162c-0.081 0.19-0.097 0.42-0.18 0.61-0.22 0.52-0.63 1.7-2.7 2.4-2.3 0.73-5.4 0.26-6.9-0.073-1.5-0.3-2.4-0.86-3-1.9-0.11-0.28-0.29-0.95-0.37-1.3 0.092-0.038-0.31-1.3 0.053-3.2 0.13-0.86 0.73-1.2 2.1-1.2 1.4-0.034 6.5-0.27 9.5 0.99 0.97 0.4 2.3 0.94 1.5 3.8z" fill="#fff" opacity=".5"/>
  <path d="m317 164c-0.13 0.32-0.38 0.91-0.46 1.1-0.65 1-1.7 1.5-3.2 1.7-1.5 0.14-4.7 0.24-6.9-0.74-2-0.9-2.4-2.1-2.5-2.6-0.049-0.25-0.06-0.4-0.11-0.65-0.37-3 0.93-3.3 1.9-3.6 3.2-0.95 8.2-0.17 9.6 0.042 1.4 0.19 1.9 0.71 1.9 1.6 4e-3 1.8-0.52 3.3-0.34 3.2-0.027 0.065-0.027 0.065 0 0z" fill="#fff" opacity=".5"/>
  <path d="m319 159-0.093 2.2c-0.027 0.065-0.054 0.13-0.14 0.17-1.1 0.52-1.3 1.9-1.5 2.1 0.2-0.68 0.28-1.4 0.32-2.1-0.048 0.66-0.12 1.4-0.3 2-0.026 0.065-0.026 0.065-0.053 0.13-0.092 0.038 0.37-1.4 0.37-3.3-0.029-0.85-0.6-1.3-1.9-1.6-1.4-0.19-6.4-1.1-9.6-0.042-0.95 0.29-2.3 0.64-1.9 3.6-0.098-0.5-0.13-0.96-0.13-1.3-0.059 0.51 0.05 1.2 0.24 2-0.33-0.67-0.53-1.3-0.68-1.6-0.44-0.94-0.84-1.6-1.7-1.7-0.82-0.036-1.3 0.6-1.8 1.5-0.23 0.36-0.47 0.94-0.87 1.5 0.26-0.8 0.43-1.4 0.43-1.9-5e-3 0.38-0.1 0.79-0.25 1.3 0.74-2.9-0.56-3.4-1.5-3.8-3.1-1.4-8.1-1.1-9.5-0.99-1.4 0.035-2 0.46-2.1 1.2-0.3 2 0.011 3.3-0.054 3.2l-0.038-0.091c-0.11-0.65-0.13-1.3-0.079-2-0.047 0.66-0.056 1.4 0.12 2.1-0.2-0.24-0.32-1-0.52-1.5-0.15-0.37-0.42-0.63-0.65-0.8-0.065-0.027-0.1-0.12-0.14-0.21l0.15-2.4c0.027-0.065 0.053-0.13 0.14-0.17 0.69-0.017 4-0.093 6.8 0.021 5.7 0.16 6.5 1.6 10 1.9 3.6 0.19 4.5-1.2 10-0.72 2.7 0.22 5.7 0.63 6.7 0.72 0.038 0.092 0.14 0.21 0.15 0.37z" fill="#333"/>
  <path d="m285 157-5.7 3.8 0.67 0.58 5-3.2 0.041-1.2z" fill="#333"/>
  <path d="m292 163c0.39 0.16 0.84-0.023 1-0.42 0.16-0.39-0.024-0.84-0.42-1s-0.84 0.023-1 0.42c-0.16 0.39 0.023 0.84 0.42 1z" fill="#333"/>
  <path d="m309 164c0.39 0.16 0.84-0.023 1-0.42 0.16-0.39-0.024-0.84-0.42-1s-0.84 0.024-1 0.42 0.023 0.84 0.42 1z" fill="#333"/>
  <path d="m306 156s-0.58-1.2 0.019-1.5c0.58-0.29 7.2 1.3 8.2 2.4 1.1 1.2-8.3-0.92-8.3-0.92z" fill="#333"/>
  <path d="m297 154s0.24-1.1-0.28-1.3c-0.45-0.19-9.4 0.57-9.7 1.2-0.24 0.58 8.7 0.42 10 0.11z" fill="#333"/>
  <path d="m283 140c0 2.2-0.39 4.1-1.3 5.9-1.5 3-4.6 5.4-9.7 7.2-0.4 0.14-0.81 0.27-1.2 0.41-9.3 2.9-20-11-20-11-0.67 0.34-1.3 0.38-1.9 0.22-1.8-0.5-3.1-3-3.1-4.1 7e-3 -1.5-2.9-4.8-3.4-6.7-0.27-1.2 0.75-1.7 1.6-1.9h7e-3c0.46 0.86 0.85 1.6 1 1.8 0.46 0.69 1.6 1.6 2.7 1.5 1.1-0.077-0.2-4.6-0.46-6.9-0.27-2.4 7e-3 -11 7e-3 -11s1.4-1.5 3.7-3.1c3.1-2.1 8-4.5 14-4h0.021c2.9 0.71 6.4 1.9 7.8 2 2 0.07 6.2 6.1 7 7.8 0.31 0.69 0.92 3.5 1.5 6.9 0.76 4.1 1.5 9.2 1.7 13 0.049 0.75 0.07 1.4 0.07 2z" fill="#FCD8CD"/>
  <path d="m272 153c-0.4 0.14-0.81 0.27-1.2 0.41-9.3 2.9-20-11-20-11-0.67 0.34-1.3 0.39-1.9 0.22-1.8-0.5-3.1-3-3.1-4.1 7e-3 -1.4-2.9-4.8-3.4-6.7-0.27-1.2 0.75-1.7 1.6-1.9h7e-3c0.46 0.86 0.85 1.6 1 1.8 0.46 0.69 1.6 1.6 2.7 1.5 1.1-0.077-0.2-4.6-0.46-6.9-0.27-2.4 7e-3 -11 7e-3 -11s1.4-1.5 3.7-3.1c-1.1 2.3-2.4 5.5-2.1 7.3 0.56 3 0.056 9.1 1.8 14 1.7 4.8 3 8.9 8.4 13 4.9 3.5 6 6.2 13 7z" fill="#F2C1B8"/>
  <path d="m284 136c0.17 0.67-0.2 1.5-0.68 2.3-0.23-3.6-0.99-8.8-1.7-13 0.46-0.46 1.1-0.82 1.7-0.29 1.2 1 0.36 9.4 0.74 11z" fill="#FCD8CD"/>
  <path d="m283 125c-0.61-0.53-1.2-0.18-1.7 0.29-0.62-3.4-1.2-6.2-1.5-6.9-0.74-1.7-5-7.8-7-7.8-1.4-0.049-4.9-1.3-7.8-2h-0.021c-10-0.9-17 7-17 7s-0.28 8.2-0.014 11c0.27 2.4 1.6 6.9 0.46 6.9-1.1 0.077-2.2-0.78-2.7-1.5-0.15-0.23-0.55-0.96-1-1.8h-7e-3c-0.88-1.7-2-3.9-2-3.9s-2.5-10-0.5-14c2-3.7 10-11 13-11 3-0.41 12 0.25 17 3.2 5.7 2.9 9.7 8.5 10 11 0.79 2.3 0.26 10 0.26 10z" fill="#333"/>
  <path d="m265 133c-0.29-1.8-0.028-3.6-0.028-3.6-0.071-2.7 1-6.5 1-6.5 0.91 2.4 2.6 5.1 3.5 6.4 0 0 2.1 0.18 2.3 1.5 0.2 1.3-2.1 2.8-4.7 3.2-1.5 0.28-2.1-0.15-2.1-1z" fill="#F2C1B8"/>
  <path d="m255 127s2.8-3 5.5-0.85c0 0 1.5 1.7-0.51 2.5s-4.3 1.4-5-1.6z" fill="#fff"/>
  <path d="m272 125c0.098-0.59 2.4-1.6 4.7-0.79 0.42 0.15 0.77 0.43 1 0.69 0.39 0.38 0.44 1 0.11 1.4-0.4 0.54-1.1 1.2-2.4 1.3-3 0.22-3.6-1.3-3.4-2.6z" fill="#fff"/>
  <path d="m258 129c0.46 0 0.83-0.37 0.83-0.83 0-0.46-0.37-0.83-0.83-0.83-0.46 0-0.83 0.37-0.83 0.83 0 0.46 0.37 0.83 0.83 0.83z" fill="#000"/>
  <path d="m274 127c0.46 0 0.83-0.37 0.83-0.83 0-0.46-0.37-0.83-0.83-0.83-0.46 0-0.83 0.37-0.83 0.83 0 0.46 0.37 0.83 0.83 0.83z" fill="#000"/>
  <path d="m261 124s0.014-1.6-0.4-1.7c-0.41-0.063-7.6 1.5-8.3 4.3 3.1-1.3 7.1-2.1 8.7-2.7z" fill="#333"/>
  <path d="m271 123s-0.42-1.5-0.042-1.7c0.38-0.18 5.8-0.8 7.3 1.7-3.3-0.45-5.5 0.084-7.2-0.035z" fill="#333"/>
  <path d="m271 141c0.098-0.042 0.15-0.15 0.13-0.25-0.028-0.11-0.15-0.18-0.26-0.15-2.1 0.56-6.7 0.67-10-1.4-0.098-0.063-0.23-0.028-0.29 0.07s-0.028 0.23 0.07 0.29c3.5 2.2 8.3 2 10 1.5 0.014 0 0.021 0 0.028-7e-3z" fill="#000"/>
  <path d="m382 114c-0.37 1.1-2.4 2.1-2.4 2.1-0.09-0.27-0.3-2.2-0.86-2.8s-4.2-2.1-5-2.4c-0.84-0.26-3.1 0.33-3.9 0.49-0.84 0.16-4.4 2.6-5.3 3.5-0.97 0.92-0.25 3.4-0.34 3.8-0.09 0.39-0.81-0.36-1.7-0.79-0.91-0.44-4.3-5.8-4.7-6.1-0.43-0.35-2.9-4.2-2.9-4.2 0.44 1.1 1.2 3.2 2.1 5.4 0.94 2.3 2 4.6 2.9 5.7 1.9 2.4 9.2 8.4 12 8.1 2.4-0.24 5.3-1 5.9-1.5 0.6-0.46 5.6-6.8 6.2-11 0.19-1.3 0.39-3.5 0.55-6.1 0.097-1.6 0.19-3.4 0.24-5-0.1 1.7-2 9.2-2.3 10zm-3.1 3.8c-0.12 0.81-0.57 3.8-1.6 4-1.1 0.19-2.1-0.75-3.1-0.28-1.1 0.48-1.7 1.2-2.6 1.4-0.92 0.22-2.5 0.19-3.5-0.65-1-0.84-2.5-3.4-2.4-4.2 0.09-0.76 0.28-1.8 0.28-1.8s3.3-1.9 4.1-2.3c0.81-0.35 2.8-0.71 3.8-0.52s3.9 0.83 3.9 1.2c0.055 0.37 1.3 2.3 1.1 3.1z" fill="#5A4E40"/>
  <path d="m367 99c-0.28 0.035-4.8 0.23-6.4 0.87-1.6 0.64-2.6 0.78-2.6 0.64-0.021-0.14-0.15-1.1-0.15-1.1 0.18-0.12 3.1-1.5 5-1.7 1.9-0.25 3.8-0.097 4 0.16 0.17 0.25 0.44 1.1 0.16 1.1zm6.9 10c-1.1 1.3-4.9 0.37-4.7-1.4 0.23-1.8 0.041-8.4 0.041-8.4s2.6 1.3 3 2.6c0.41 1.2 2.7 6 1.6 7.3zm11-12c-0.021-0.75-0.076-1.3-0.15-1.7-0.5-2.3-0.38-7.7-1.8-9.2-1.4-1.5-12-3.3-15-3-2.9 0.3-8.9 1.3-9.5 1.3-0.13 0-0.33 0.062-0.57 0.15-0.4 2.4-0.96 6.1-0.91 8.6 0.076 3.9 2.5 13 2.5 13s2.7 6.2 4.7 7.6c0.24 0.17 0.45 0.46 0.64 0.84 0.062-0.11 0.14-0.21 0.23-0.3 0.97-0.92 4.5-3.3 5.3-3.5 0.83-0.17 3.1-0.75 3.9-0.49 0.84 0.26 4.5 1.7 5 2.4s0.77 2.5 0.86 2.8c0 0 2-0.98 2.4-2.1 0.37-1.1 2.2-8.7 2.3-10v-0.076c0.076-2.3 0.1-4.4 0.048-5.9z" fill="#FBD7CC"/>
  <path d="m365 119c-0.09 0.38-0.81-0.36-1.7-0.8-0.91-0.44-4.3-5.8-4.7-6.1-0.44-0.35-2.9-4.2-2.9-4.2-0.083-0.22-0.16-0.4-0.21-0.53-0.22-0.5-0.37-1.8-0.49-3.2-0.24-3.2-0.28-7.3-0.28-7.3l-0.8-7.3 2-2.7s1.4-0.9 2.3-1.3c-0.4 2.4-0.96 6.1-0.91 8.6 0.076 3.9 2.5 13 2.5 13s2.7 6.2 4.7 7.6c0.24 0.17 0.45 0.46 0.64 0.84-0.62 1.1-0.028 3.1-0.12 3.5z" fill="#F2C1B8"/>
  <path d="m388 85c-0.38 0.32-0.8 0.57-1.2 0.76-2 0.9-4.1 0.62-4.1 0.62-1.4-1.5-12-3.3-15-3-2.9 0.3-8.9 1.3-9.5 1.3-0.67-0.0069-2.9 1.4-2.9 1.4l-2 2.7 0.8 7.3s0.035 4.2 0.28 7.3c-0.055-0.083-1.4-2-2.5-3.6-0.49-0.76-0.94-1.5-1.2-1.9-0.84-1.5-2.3-7.4-2.7-8.7-0.44-1.3-0.73-3.5 0.32-4.2 1.1-0.64-5.1-5.9-3-8.9 2.1-3 22-6 24-9.8 0 0-0.21 2.9-1.3 3.7-0.29 0.13-0.46 0.19-0.46 0.19 0.17-0.021 0.32-0.09 0.46-0.19 1.1-0.48 3.7-1.8 5.4-4.2 0 0 1.1 2.6 0.44 3.2 0 0 4.4-0.79 6.6 1.4 2.2 2.2 4.2 5.2 7.3 3.2-0.069 0.097-1.3 1.8-4.2 1.9 0 0 4.2 0.64 5.6-0.021 0 0-2.4 2.2-4 2.2 0 0 3.2 0.78 4.3-0.12 7e-3 0 0.98 5.8-1.2 7.6z" fill="#5A4E40"/>
  <path d="m357 113s-1.2 0.26-1.8 0.24c-0.62-7e-3 -1.9-0.82-2.6-1.7-0.69-0.84-1.9-4.1-2.6-5.4-0.71-1.4-0.35-5.4-0.22-6.1 0.13-0.75 1.9 0.19 2 0.23 1.1 1.6 2.4 3.5 2.5 3.6 0.12 1.5 0.27 2.7 0.49 3.2 0.055 0.14 0.13 0.31 0.22 0.53 0.44 1.1 1.2 3.2 2.1 5.4z" fill="#FBD7CC"/>
  <path d="m387 99c0.028 2.3-0.3 7.9-0.98 8.6-0.64 0.62-1.3 1-1.4 1.1 0.1-1.6 0.19-3.4 0.25-5 0-0.027 7e-3 -0.055 7e-3 -0.076 0.076-2.3 0.11-4.4 0.055-5.9 0.049-0.097 0.72-1.4 1.1-2.5-6e-3 0 0.94 1.7 0.96 3.9z" fill="#FBD7CC"/>
  <path d="m384 109c-5e-3 0-5e-3 0 0 0" stroke="#1D4453" stroke-miterlimit="10" stroke-width=".41"/>
  <path d="m378 115c-0.048-0.37-3-1-3.9-1.2-0.98-0.19-3 0.17-3.8 0.52-0.82 0.35-4.1 2.3-4.1 2.3s-0.19 1-0.28 1.8c-0.09 0.76 1.4 3.4 2.4 4.2 1 0.84 2.5 0.87 3.5 0.65 0.93-0.22 1.5-0.91 2.6-1.4s2.1 0.46 3.1 0.28c1.1-0.19 1.5-3.2 1.6-4 0.12-0.82-1.1-2.8-1.1-3.1zm-3.4 4.8c-0.27 0.46-0.29 1.4-0.29 1.4s-2.5 0.71-2.4 0.041c0.063-0.66-0.9-0.77-0.98-1.4l-0.083-0.6s1.8-0.71 2.8-0.67c1.1 0.049 1.2 0.78 0.93 1.2z" fill="#FBD7CC"/>
  <path d="m375 119c-0.27 0.46-0.29 1.4-0.29 1.4s-2.5 0.71-2.4 0.042c0.063-0.66-0.9-0.77-0.98-1.4l-0.083-0.6s1.8-0.71 2.8-0.67c1.1 0.048 1.2 0.78 0.93 1.2z" fill="#5A4E40"/>
  <path d="m374 110c-1.1 1.3-4.9 0.37-4.7-1.4 0.23-1.8 0.042-8.4 0.042-8.4s2.6 1.3 3 2.6c0.41 1.2 2.7 6 1.6 7.3z" fill="#F2C1B8"/>
  <path d="m367 99c-0.28 0.042-4.8 0.23-6.4 0.87-1.6 0.64-2.6 0.77-2.6 0.63-0.02-0.14-0.15-1.1-0.15-1.1 0.17-0.12 3.1-1.5 5-1.7 1.9-0.25 3.8-0.097 4 0.16 0.17 0.26 0.45 1.1 0.17 1.1z" fill="#5A4E40"/>
  <path d="m381 97c-0.64 0.23-4.7 0.38-5.9 0.6-1.2 0.22-2.5-0.083-2-0.84 0 0 4.6-1.6 6.1-1.3 1.4 0.28 2.2 0.63 2.2 0.63s0.26 0.71-0.37 0.94z" fill="#5A4E40"/>
  <path d="m376 115c0.048-0.028 0.083-0.077 0.09-0.13 7e-3 -0.062-0.014-0.13-0.069-0.17l-0.48 0.083c-0.89 0.31-3.6 1.2-5.4 0.68-0.097-0.027-0.2 0.035-0.22 0.13-0.027 0.097 0.035 0.2 0.13 0.22 0.97 0.25 2.3 0.19 3.8-0.18 1.2-0.28 2-0.62 2.1-0.63 7e-3 -7e-3 0.014-7e-3 0.021-0.013z" fill="#000"/>
  <path d="m374 100s2.2-1.9 4.1-1.7c1.9 0.24 3.5 0.79 3.5 0.79s-3.2 1.7-4.7 1.7c-1.5-0.049-3-0.79-3-0.79z" fill="#fff"/>
  <path d="m367 102s-0.98-1-3.5-0.65c-2.5 0.35-3.8 1.7-3.8 1.7s2.5 0.73 3.8 0.76c1.2 0.034 3.5-1.8 3.5-1.8z" fill="#fff"/>
  <path d="m363 103c0.26 0 0.48-0.2 0.48-0.45 0-0.25-0.21-0.45-0.48-0.45s-0.48 0.2-0.48 0.45c0 0.25 0.21 0.45 0.48 0.45z" fill="#000"/>
  <path d="m377 100c0.26 0 0.48-0.2 0.48-0.45 0-0.25-0.21-0.45-0.48-0.45s-0.48 0.2-0.48 0.45c0 0.25 0.21 0.45 0.48 0.45z" fill="#000"/>
  <path d="m387 86s-0.62 8.1-0.97 9.4c-0.049 0.19-0.12 0.39-0.19 0.6-0.44 1.2-1.2 2.7-1.2 2.8-0.028-0.84-0.09-1.5-0.17-1.9-0.56-2.5-0.43-8.6-2-10 0.014 0 2.4 0.31 4.6-0.69z" fill="#5A4E40"/>
  <path d="m322 106c-0.56 1.2-1.6 3.6-1.8 5.1-0.21 1.1-0.76 1.7-1.4 1.7-0.24 8e-3 -0.48-0.066-0.73-0.24-0.52 2-1 3.8-1.3 4.5-0.72 1.6-3.9 4.8-6.2 6.9-1 0.9-1.9 1.6-2.4 1.9-0.51 0.32-1.6 0.7-2.9 1 1.6-0.41 4.8-5.6 6-8 0.2-0.39 0.47-1.1 0.8-2.1 0.022-0.074 0.044-0.15 0.073-0.23 0.045-0.16 0.1-0.32 0.15-0.5 0.31-1 0.66-2.2 1-3.6 0.06-0.22 0.12-0.44 0.18-0.67 0.059-0.22 0.12-0.44 0.18-0.68 0.052-0.21 0.11-0.41 0.16-0.62 0.13-0.49 0.26-0.98 0.39-1.5 0.059-0.24 0.12-0.46 0.18-0.71 1.2-4.7 2.3-9.6 2.5-11 0.03-0.24 0.037-0.56 0.022-0.95-7e-3 -0.11-0.014-0.21-0.022-0.34-0.014-0.27-0.044-0.55-0.081-0.86-0.074-0.69-0.18-1.5-0.31-2.3-0.052-0.37-0.12-0.75-0.18-1.1-0.19-1.2-0.42-2.4-0.66-3.6-0.044-0.24-0.088-0.48-0.14-0.73-7e-3 -0.052-0.022-0.1-0.03-0.16-0.066-0.31-0.12-0.62-0.18-0.92-0.27-1.4-0.55-2.7-0.8-4-0.067-0.32-0.13-0.64-0.2-0.94-0.14-0.67-0.27-1.3-0.4-1.8-0.066-0.3-0.12-0.57-0.17-0.82-0.081-0.34-0.15-0.64-0.2-0.9l2.4 0.43 5.5 6.7s-0.79 16-1 17c-0.03 0.18-0.089 0.5-0.16 0.92h7e-3s1.7-1.4 2.3-1.1c0.55 0.26 0.16 2.9-0.41 4.1z" fill="#F2C1B8"/>
  <path d="m317 97c-0.2 1.6-1.3 6.4-2.5 11-0.067 0.24-0.13 0.46-0.18 0.71-0.13 0.5-0.26 1-0.39 1.5-0.052 0.21-0.11 0.42-0.16 0.62-0.066 0.23-0.12 0.45-0.18 0.68-0.067 0.22-0.13 0.44-0.18 0.67-0.36 1.3-0.71 2.5-1 3.6-0.051 0.17-0.11 0.34-0.15 0.5-0.03 0.081-0.052 0.16-0.074 0.23-0.32 1-0.6 1.8-0.8 2.1-1.2 2.4-4.4 7.6-6 8-0.022 0.015-0.037 0.015-0.052 0.015-2.9 0.68-7.2 1.1-11 0.44-2.9-0.55-5.9-3.5-8.2-6.5-2-2.7-3.4-5.5-3.8-6.9-0.34-1.3-0.49-3.2-0.54-5.2l-0.029 0.44s-2-0.17-1.8-4.8c0.16-4.6-0.62-9.5 0.68-9 0.65 0.28 1.1 1 1.4 1.8 7e-3 0.015 0.015 0.037 0.022 0.052 0.28 0.68 0.41 1.3 0.41 1.3 0.037-0.21 0.067-0.42 0.1-0.64 0.34-2.1 0.68-4.2 0.68-4.8 0-1.2 4-11 4-11l3.8-4.9 6.7-2.1 16 2.8c0.059 0.26 0.12 0.56 0.2 0.9 0.052 0.25 0.12 0.52 0.17 0.82 0.12 0.55 0.26 1.2 0.4 1.8 0.074 0.3 0.14 0.61 0.2 0.94 0.26 1.2 0.54 2.6 0.8 4 0.067 0.31 0.13 0.62 0.18 0.92 7e-3 0.059 0.022 0.11 0.029 0.16 0.045 0.24 0.096 0.48 0.14 0.73 0.24 1.3 0.46 2.5 0.66 3.6 0.067 0.39 0.13 0.77 0.18 1.1 0.13 0.86 0.24 1.6 0.31 2.3 0.037 0.31 0.059 0.6 0.081 0.86 7e-3 0.12 0.015 0.23 0.022 0.34 7e-3 0.38 0 0.7-0.03 0.94z" fill="#FCD8CD"/>
  <path d="m281 95s3.6-15 6.8-18c3.2-3.1 12-7.7 17-6.9 4.9 0.79 10 3.3 14 7.3 3.8 4.1 5.9 8.7 5.2 13s-0.79 12-1.7 13c-0.9 0.68-3 0-2.8-0.9s0.79-11 0.68-12c-0.11-0.79-1-7.1-3.4-7.7-2.4-0.56-4.5-3.1-9.8-1.8-5.3 1.2-7.2-3.2-8.7-3.1-1.5 0.11-5.6 1.1-7.4 3.3-1.8 2.1-5.6 13-6.3 15-0.68 1.9-0.79 3.5-0.79 3.5l-2.8-3.6z" fill="#594433"/>
  <path d="m298 89s-3.2-1.6-5.1-0.65-4.4 2.6-3.8 3.5c0.6 0.86 2.8-0.52 4.1-0.93 1.3-0.41 5.8 0.49 5.4-0.69l-0.46-1.2z" fill="#594433"/>
  <path d="m307 91c0.47-0.3 3.7-1.3 4.8-0.95 1.1 0.35 3.2 1.3 3.6 3 0.47 1.7-1.2 1.6-2.3 0.55-1.1-1.1-4.6-1.5-4.6-1.5s-2.6-0.49-1.6-1.1z" fill="#594433"/>
  <path d="m300 96c0.13-0.59 0.48-1.3 0.51-1.8 0.029-0.54 1.7-1.4 2.1-0.7 0.42 0.68 0.34 1.9 0.45 3s1.3 3.6 1.8 6.2c0.51 2.6-0.82 2.9-2.9 2.5-2.1-0.45-4.1 0.37-3.8-2.9 0.31-3.2 1.3-4.2 1.6-4.9 0.26-0.71 0.037-0.66 0.17-1.2z" fill="#F2C1B8"/>
  <path d="m307 97s3.8-1.1 5.7-0.28c1.9 0.79 2.3 1.5 1.2 1.6l-1 0.17s-5.6-0.79-5.9-1.5z" fill="#fff"/>
  <path d="m290 95s5.7-1.7 7.1-0.79 1.5 1.6 0.96 1.7c-0.51 0.12-7.8-0.1-8.1-0.89z" fill="#fff"/>
  <path d="m292 109s17 0.83 19-0.24l-2.8 6.3-13-0.22-3.6-5.8z" fill="#fff"/>
  <path d="m294 112 6 0.11-5.8 0.35-0.28-0.46z" fill="#000"/>
  <path d="m310 111s-5.1 0.55-4.9 0.58 4.7-0.074 4.7-0.074l0.22-0.5z" fill="#000"/>
  <path d="m294 96c0.45 0 0.81-0.36 0.81-0.81s-0.36-0.81-0.81-0.81-0.81 0.36-0.81 0.81 0.36 0.81 0.81 0.81z" fill="#000"/>
  <path d="m311 98c0.45 0 0.81-0.36 0.81-0.81 0-0.45-0.36-0.81-0.81-0.81-0.45 0-0.81 0.36-0.81 0.81 0 0.45 0.36 0.81 0.81 0.81z" fill="#000"/>
  <path d="m348 130s4.4-6.9 6.8-3.2c2.4 3.8-5.3 17-8.1 13-2.8-3.3-1.3-5.1-1.3-5.1l2.5-5.1z" fill="#F2C1B8"/>
  <path d="m352 130c-1.8 1.5-28 1.1-33-13 0 0 4.7-17 5.7-18 0.14-0.19 0.62-0.2 1.5-0.083 16-25 31 8.7 31 8.7-0.23-5.4-4.1-14-4.2-14 2.9 3.7 5.3 15 5.3 15 0.98 0.4 1.6 0.75 1.7 1 0.54 1.5-5.5 19-7.2 21z" fill="#594433"/>
  <path d="m352 93 0.17-0.025-0.17 0.025z" fill="#000"/>
  <path d="m338 147c-5.9 1.4-13-5.1-17-9.6-1.3-1.6-2.1-2.9-2.1-3.5 0.032-2.1 8-32 8-32 0.64-0.029 1.5 0.013 2.5 0.1 8.5 0.77 26 6.6 26 8.2 0.085 1.7-8.4 29-8.4 29s-1.3 6.4-9.4 8.3z" fill="#FCD8CD"/>
  <path d="m322 137c-1.3-1.6-2.1-2.9-2.1-3.5 0.032-2.1 8-32 8-32 0.65-0.029 1.5 0.012 2.5 0.1-1.9 6.6-8.6 30-8.5 36z" fill="#F2C1B8"/>
  <path d="m348 139c-1.6 1.1-3.2 1.9-4.7 2.5-0.53-3-3.2-5.3-7.5-6.7-4-1.3-7.2 0.75-8.4 2.1-4.1-4.9-5.7-11-5.7-11-11 37 13 38 19 31 4.9-6.4 7.5-17 7.5-17zm-19-0.35c2.7-1.4 9.5-3.9 12 4.2 0.24 0.72-0.13 1.4-0.85 1.6-2.6 0.76-8.6 1.9-12-4.1-0.29-0.57-0.11-1.4 0.56-1.7z" fill="#594433"/>
  <path d="m321 125c-0.84 2.8-1.5 5.4-2 7.8 0.072 0.024 0.12 0.12 0.12 0.12 0.32-1.5 0.95-4.4 1.9-7.9z" fill="#333"/>
  <path d="m340 121s1 9.3 1.6 11c0.52 1.8 3.9 3.2 0.01 4.4-3.9 1.2-7.2-0.83-8.1-1.8-0.77-1 4-9.8 6.5-14z" fill="#F2C1B8"/>
  <path d="m320 133c-0.072-0.023-0.14-0.047-0.12-0.12-4-3-4.8-9.5-2.5-15 2.3-5.5 5.5 2.8 5.6 2.9-0.42 1.5-0.72 2.9-1.1 4.3-0.93 3.6-1.6 6.5-1.9 7.9z" fill="#F2C1B8"/>
  <path d="m335 141c-1.9-0.63-3.3-1.7-3.9-2.2l-0.072-0.023 0.072 0.023 0.16-0.5c0.071 0.024 0.072 0.024 0.19 0.14 1 0.97 4 3.1 8.3 2.5l0.076 0.5c-1.9 0.25-3.6-0.044-4.9-0.46z" fill="#000"/>
  <path d="m343 125s0.073 3.2 3.1 4.5c0 0-2.9-0.48-3.6-4.5l0.48-4e-3z" fill="#F2C1B8"/>
  <path d="m336 124s-1.8 3.8-6.1 3.8c0 0 3.7 1 6.7-3.4l-0.6-0.35z" fill="#F2C1B8"/>
  <path d="m338 114s-1.9 2.6-5 2.7c-3.1-0.048-5.9-1.3-7.3-0.38-1.4 0.82 6.3-2.4 6.3-2.4l6 0.12z" fill="#F2C1B8"/>
  <path d="m339 112s-0.38 2.9-2.2 2.9c-1.8-0.034-8-2-12 1.3 0.023-0.072 4.5-5.8 15-4.3z" fill="#333"/>
  <path d="m339 125s1.9 7.3 1.1 7.4c-0.84 0.13-0.85-5.2-1.1-7.4z" fill="#FBDDDA"/>
  <path d="m328 123c1.5 2 5.5 3.8 7.4 1.1 0.33-0.53 0.61-1.2 0.8-2 0 0-1.3-3.4-7.1-2-2 0.47-2 1.7-1.2 2.9z" fill="#fff"/>
  <path d="m332 123c0.76 0.24 1.6-0.17 1.8-0.92 0.24-0.76-0.17-1.6-0.92-1.8-0.76-0.24-1.6 0.17-1.8 0.92-0.24 0.76 0.17 1.6 0.92 1.8z" fill="#333"/>
  <path d="m344 126c0.98 2.6 6.2 2 5.7-0.067-0.074-0.26-0.22-0.55-0.46-0.79-2.8-3.2-5-1.6-5-1.6-0.5 1-0.51 1.8-0.24 2.5z" fill="#fff"/>
  <path d="m345 126c0.6 0.19 1.2-0.13 1.4-0.73 0.19-0.6-0.13-1.2-0.73-1.4-0.6-0.19-1.2 0.13-1.4 0.73s0.13 1.2 0.73 1.4z" fill="#333"/>
  <path d="m345 119s4.2 4.3 6.1 4-5.7-3.9-6.1-4z" fill="#F2C1B8"/>
  <path d="m344 116s-0.84 2.1 0.38 2.7c1.2 0.64 6.2 1.6 7.9 5.4 0 0-0.9-5.5-8.2-8.2z" fill="#333"/>
  <path d="m161 109c-0.87 0.55-1.5 0.062-2-0.04-0.82-0.16-2.3-2.7-2-5.9 0.14-1.4 0.66-2.6 1.2-3.6 0.73-1.3 1.5-2 1.5-2l-0.032-0.36c0.11 0.8 1.3 9.3 1.3 12z" fill="#F2C1B8"/>
  <path d="m159 94 0.29 3.1-0.032-0.34-0.062-0.65-0.03-0.31-0.054-0.58-0.026-0.27-0.047-0.51-0.04-0.45z" stroke="#fff" stroke-miterlimit="10" stroke-width="2.7"/>
  <path d="m166 94c-0.74 0.23-3.8-0.83-5.4 0.59 0.037-0.098 0.65-1.6 1.6-2.1 0.97-0.45 3.7-0.4 3.9-0.062 0 0 0.67 1.3-0.062 1.6z" stroke="#fff" stroke-miterlimit="10" stroke-width="2.7"/>
  <path d="m188 93s-5.9-2-7.2-1.8c-1.3 0.22-6.5 2-7.6 1.9 0 0-0.32-1.8 0.58-2 0.9-0.28 3.8-1.8 5.7-1.5 1.9 0.27 7.7 2.5 8.6 3.5z" stroke="#fff" stroke-miterlimit="10" stroke-width="2.7"/>
  <path d="m199 100c-1 3.6-2.6 6.3-4 6.3-1.4 0-2.5-0.6-2.5-0.71-0.31 1.2-0.94 2.7-1.6 4v3e-3c-1 2-2.1 3.6-2.3 4-0.38 0.57-11 5.8-15 8-1.3 0.59-2.2 0.96-2.3 0.96-0.85 0-8.9-5.3-9.6-6.7-0.2-0.36-0.49-2.3-0.8-4.8-0.015-2.6-1.2-11-1.3-12-3e-3 -0.036-7e-3 -0.058-7e-3 -0.058l-0.073-0.76-0.1-1.1-0.033-0.34-0.062-0.65-0.029-0.31-0.055-0.58-0.025-0.27-0.048-0.51-0.04-0.45-0.04-0.44-0.018-0.2-0.029-0.31-0.011-0.14-0.011-0.084-8e-3 -0.098 4e-3 -0.0037c0.11-0.18 3.6-5.9 4.7-6 2 4 8.5 3.3 8.5 3.3-7.6-4.7-2.5-11-2.5-11 0.12 4.7 9.3 6.4 9.3 6.4-5.5-1.2-5.1-7.5-5.1-7.5 3.9-1.7 12 2.5 12 2.5s3.2 0.61 3.9 0.54l-1.7 1.2h1.3s1.8 8.1 3 7.8l-1.3 8.1 2.5-0.15c0.11-0.71 0.24-1.5 0.36-2.2l3e-3 -0.0037s3.2-3.2 4.6-3c0.23 0.026 0.41 0.14 0.52 0.36 0.8 1.6 1.2 3.5 0.16 7.1z" fill="#FBD7CC"/>
  <path d="m180 97c0.43 0 0.78-0.35 0.78-0.78 0-0.43-0.35-0.78-0.78-0.78s-0.78 0.35-0.78 0.78c0 0.43 0.35 0.78 0.78 0.78z" fill="#000"/>
  <path d="m165 100c0.43 0 0.78-0.35 0.78-0.78 0-0.43-0.35-0.78-0.78-0.78s-0.78 0.35-0.78 0.78c0 0.43 0.35 0.78 0.78 0.78z" fill="#000"/>
  <path d="m167 109c-0.14 0.49-0.3 0.97-0.47 1.4-0.087 0.24-0.18 0.47-0.28 0.71-0.11 0.24-0.19 0.46-0.36 0.71l-0.1-0.24c1.4 0.011 2.8-0.68 4.3-0.88 0.72-4e-3 1.4-4e-3 2.2-0.033 0.72-0.047 1.4-0.04 2.1-0.28-0.16 0.08-0.32 0.17-0.5 0.21-0.18 0.058-0.35 0.095-0.53 0.13-0.36 0.08-0.72 0.12-1.1 0.16-0.73 0.084-1.5 0.13-2.2 0.15-1.5 0.04-2.9 0.91-4.3 0.82l-0.28-0.019 0.18-0.22c0.13-0.16 0.25-0.4 0.36-0.62 0.11-0.22 0.22-0.45 0.32-0.68l0.64-1.4z" fill="#CCA39E"/>
  <path d="m168 107c-3e-3 -0.13-0.098-0.21-0.2-0.26-0.1-0.054-0.21-0.095-0.32-0.13-0.23-0.066-0.46-0.11-0.69-0.15-0.47-0.083-0.94-0.15-1.4-0.3-0.12-0.04-0.25-0.084-0.38-0.16-0.13-0.059-0.32-0.28-0.32-0.5 0-0.2 0.055-0.35 0.12-0.48 0.062-0.14 0.13-0.25 0.21-0.35 0.31-0.43 0.65-0.77 1-1.1l-0.033 0.033c0.066-0.081 0.17-0.25 0.24-0.4 0.076-0.15 0.14-0.32 0.2-0.48 0.11-0.34 0.22-0.68 0.28-1 0.081-0.35 0.13-0.71 0.17-1.1l0.062-0.54 0.033-0.55c0.022-0.37 0.022-0.74 0.032-1.1l-0.018-1.1-0.11-2.3c0.11 0.36 0.2 0.73 0.3 1.1 0.08 0.37 0.15 0.74 0.22 1.1 0.058 0.38 0.1 0.75 0.15 1.1 0.018 0.38 0.069 0.76 0.058 1.1 0.022 0.77-0.044 1.5-0.19 2.3-0.065 0.38-0.18 0.76-0.31 1.1-0.077 0.19-0.15 0.37-0.25 0.55-0.1 0.19-0.18 0.35-0.36 0.55l-0.011 0.014-0.022 0.019c-0.35 0.28-0.71 0.6-0.98 0.94-0.13 0.16-0.26 0.36-0.26 0.45 7e-3 8e-3 -8e-3 0.022 0 0.022-0.015 4e-3 0.018 0.033 0.047 0.055 0.066 0.051 0.17 0.098 0.27 0.14 0.41 0.18 0.89 0.31 1.3 0.47 0.23 0.081 0.46 0.17 0.68 0.28 0.11 0.058 0.22 0.12 0.31 0.21 0.091 0.076 0.18 0.2 0.14 0.33z" fill="#F2C1B8"/>
  <path d="m188 93s-5.9-2-7.2-1.8c-1.3 0.22-6.5 2-7.6 1.9 0 0-0.32-1.8 0.58-2 0.9-0.28 3.8-1.8 5.7-1.5 1.9 0.27 7.7 2.5 8.6 3.5z" fill="#5A4E40"/>
  <path d="m174 78s-0.48 6.3 5.1 7.5c0 0-8.4 0.53-8.5-4.2 0 0-5.9 4.4 1.7 9.1 0 0-6.5 0.7-8.5-3.3-0.77-1.6-0.86-3.8 0.36-7.1-2.7 0.32-6.1 2.9-8.2 5.4-1.1 1.3-1.8 2.4-2 3-0.48 1.7 1.9 4.5 2.5 5.7 0.6 1.2 0.34 4.5 0.34 4.5-0.68-1.5-1.6-3.2-2.4-3.7-1.6-1-3.8-4.6-2.7-6.2 1.1-1.6 6.3-12 6.9-13 0.57-0.97 3.4-4.2 6.2-4.8 1.3-0.8 7.2-4.5 9.7-4.7 2.7-0.18 6.6 1.2 8.6 3.5 0.42 0.16 1.2 1 2 2.3-3.7-0.43-6.2 0.069-7.8 0.92h-4e-3c-3.1 1.6-3.2 4.6-3.2 4.6z" fill="#5A4E40"/>
  <path d="m163 87c-1 0.084-4.6 5.8-4.7 6-3e-3 0.0037-3e-3 0.0037-3e-3 0.0037l7e-3 0.098 0.011 0.084 0.011 0.14 0.029 0.31 0.018 0.2 0.081 0.89 0.047 0.51 0.025 0.27 0.055 0.58 0.029 0.31 0.062 0.65 0.033 0.34 0.1 1.1 0.073 0.76s4e-3 0.022 8e-3 0.058l0.032 0.36s-0.79 0.78-1.5 2c-0.11-0.077-0.23-0.19-0.36-0.32 0 0-0.46-1.3-1.1-2.8 0 0 0.27-3.3-0.34-4.5-0.61-1.2-3-4-2.5-5.7 0.16-0.57 0.92-1.7 2-3 2.2-2.5 5.5-5.1 8.2-5.4-1.2 3.3-1.1 5.6-0.36 7.1z" fill="#473E33"/>
  <path d="m186 80s-8.3-4.2-12-2.5c0 0 0.015-2.9 3.2-4.6h3e-3c1.6-0.85 4.1-1.4 7.8-0.92 0.55 0.94 1.1 2.1 1.4 3.3 0.38 1.5 0.44 3.1-0.16 4.7z" fill="#473E33"/>
  <path d="m192 72c-0.35 0.53-0.76 1.3-1.2 2-0.58 1-1.2 2.2-1.9 3.2-0.94 1.5-1.9 2.7-2.8 2.9 0.6-1.5 0.54-3.2 0.16-4.7-0.31-1.2-0.83-2.4-1.4-3.3-0.76-1.3-1.6-2.2-2-2.3-2-2.3-5.9-3.7-8.6-3.5 0 0 6.7-1.9 7.8-1.6 1.1 0.24 2.7 2.4 7.2 2.8 4.4 0.49 4.2 2.2 2.8 4.5z" fill="#5A4E40"/>
  <path d="m202 86c-0.65 2.8-3.2 6.6-3.3 6.7-1.4-0.15-4.6 3-4.6 3l-4e-3 0.0036c-0.12 0.75-0.24 1.5-0.36 2.2l-2.5 0.15 1.3-8.1c-1.2 0.32-3-7.8-3-7.8h-1.3l1.7-1.2c-0.79 0.062-3.9-0.54-3.9-0.54 0.86-0.22 1.8-1.4 2.8-2.9 0.66-1 1.3-2.2 1.9-3.2 0 0 3.8-2.6 7.2-0.5 0 0-3.6 0.3-4.6 1.6 0 0 6.9 0.67 8.9 3.1 0 0-2.8-0.85-4.5-0.55 0 0 5.2 5.2 4.5 8z" fill="#5A4E40"/>
  <path d="m173 99s0 0.0037 4e-3 0.0037c0.062 0.18 0.13 0.36 0.21 0.55 0.21 0.48 0.74 1.5 2.6 1.9 2 0.42 4.6-0.35 5.8-0.82 1.2-0.48 1.9-1.1 2.3-2.1 0.08-0.24 0.15-0.94 0.18-1.3-0.01 0.015-0.018 0.022-0.021 0.018-0.07-0.022 0.11-1.2-0.39-3.1-0.21-0.77-0.75-1.1-1.9-0.96-1.2 0.088-5.4 0.43-7.8 2-0.76 0.5-1.8 1.1-0.85 3.7z" fill="#fff" opacity=".5"/>
  <path d="m158 103c0.14 0.3 0.38 0.79 0.52 1 0.63 0.88 1.6 1.2 2.9 1.2 1.3-0.01 2.8 0.066 4.5-1.1 1.6-1.1 1.7-2.2 1.8-2.8 0.011-0.21 0.018-0.41 0.018-0.6v-0.015-4e-3c0.011-2.8-1.1-3-2-3.2-2.8-0.57-5.7 0.38-6.8 0.74-1.1 0.36-1.5 0.85-1.5 1.7 0.13 1.7 0.72 3 0.64 3-7e-3 4e-3 -0.018-0.011-0.04-0.033z" fill="#fff" opacity=".5"/>
  <path d="m156 98 0.35 2.1c0.014 0.077 0.065 0.13 0.13 0.16 1 0.38 1.3 1.7 1.5 1.8-0.24-0.6-0.4-1.3-0.5-1.9 0.1 0.61 0.26 1.3 0.49 1.8 0.015 0.037 0.033 0.073 0.055 0.11 0.084 8e-3 -0.5-1.3-0.63-3-0.062-0.81 0.35-1.3 1.5-1.7 1.1-0.36 4.1-1.3 6.8-0.74 0.86 0.18 2 0.35 2 3.2 0.019-0.49-3e-3 -0.9-0.058-1.2 0.08 0.48 0.1 1.1 0.036 1.9 0.18-0.65 0.28-1.3 0.37-1.6 0.24-0.93 0.2-1.8 0.89-1.9 0.69-0.13 2-0.59 2.5 0.19 0.21 0.31 1.2 1.6 1.6 2.1-0.31-0.7-0.49-1.3-0.57-1.8 0.065 0.35 0.18 0.74 0.36 1.2-0.93-2.6 0.091-3.2 0.84-3.7 2.4-1.6 6.7-1.9 7.8-2 1.2-0.088 1.7 0.19 1.9 0.96 0.5 1.9 0.32 3 0.39 3.1 4e-3 -0.036 8e-3 -0.066 0.011-0.095 0.026-0.63-0.04-1.3-0.14-1.9 0.11 0.63 0.18 1.3 0.16 2v0.0037c0.15-0.24 0.14-1 0.29-1.5 0.12-0.35 0.27-0.64 0.48-0.82 0.054-0.047 0.084-0.12 0.073-0.2l-0.36-2.2c-0.015-0.077-0.077-0.13-0.14-0.12-0.6 0.066-3.3 0.38-5.6 0.76-4.7 0.78-5.2 2.3-8.2 2.8-4.1 0.81-5.1-0.35-8.6 0.45-2.2 0.5-4.7 1.2-5.5 1.4-0.12 0.029-0.19 0.15-0.16 0.28z" fill="#333"/>
  <path d="m184 93 13 0.8-0.62 1-13-0.82 0.42-1z" fill="#333"/>
  <path d="m237 130c-0.77 0.19-4-0.69-5.6 0.49 0.038-0.082 0.68-1.4 1.7-1.7 1-0.37 3.9-0.33 4-0.051 0 0 0.7 1.1-0.064 1.3z" fill="#5A4E40"/>
 </g>
 <defs>
  <clipPath id="a">
   <rect transform="matrix(-1 0 0 1 482 0)" width="482" height="269" fill="#fff"/>
  </clipPath>
 </defs>
</svg>
