<?xml version="1.0" encoding="UTF-8"?>
<svg fill="none" version="1.1" viewBox="0 0 1300 200" xmlns="http://www.w3.org/2000/svg">
 <path d="m-0.095703 0.11719v139.37 25.582c1.2059-0.15352 2.3548-0.41707 2.6973-0.73047 0.56095-0.5135 2.1515 0.09235 2.666 0.65235 0.53775 0.0232 3.8344-1.4464 4.8867-0.86328 1.6133 0.0698 5.914 0.25451 7.5273 0.32421 1.5901 0.60641 8.0449 0.88538 9.6582 0.95508 2.151 0.093 5.3763 0.23256 5.9141 0.25586 0.5377 0.0232 3.7423 0.69973 5.3555 0.76953 1.6133 0.0697 6.4531 0.27991 8.0664 0.34961 1.0755 0.0465 4.3019 0.18476 6.4297 0.81446l2.1973-0.98047 5.4922-2.4512c6.9677 0.8388 14.426 2.7738 15.502 2.8203 1.0987-0.4902 3.7643 0.1631 6.4531 0.27929l2.1758-0.44335 1.6348-0.4668c1.59 0.6065 4.3032 0.18534 5.9629-0.81836l3.0879 3.3594 1.5898 0.60743c2.712-0.4205 5.3771 0.23289 6.4531 0.27929l0.56054-0.51367 3.8574-1.9844c4.816 0.7458 15.571 1.21 18.26 1.3262s7.552-0.21056 8.627-0.16406c1.099-0.4903 5.3558 0.76819 6.9688 0.83789 1.636-0.467 6.4743-0.25761 8.1113-0.72461 1.636-0.467 5.3556 0.7699 6.4316 0.8164 1.075 0.0465 4.9089-1.4016 5.9609-0.81836 1.053 0.5832 4.8156 0.74647 5.8906 0.79297 1.076 0.0464 11.34-0.58666 14.566-0.44726 3.227 0.1395 8.6041 0.37174 9.1191 0.93164 0.514 0.56 7.0595-1.3073 9.1875-0.67774 2.128 0.6297 6.4301 0.81544 9.1191 0.93164l2.6895 0.11719 8.6035 0.37109 7.5293 0.32618 8.6035 0.37109 8.0664 0.34961c2.689 0.1162 5.9145 0.25489 8.6035 0.37109l2.6894 0.11524c3.25-0.3973 7.5284 0.32561 10.193 0.97851l2.7598-1.4922c0.561-0.5135 2.1734-0.44491 2.1504 0.09179l1.4961 2.7539c2.735-0.9572 8.7434-2.849 10.357-2.7793 1.59 0.6064 5.8931 0.79224 9.1191 0.93164l3.2266 0.14063 10.217 0.4414 5.377 0.23243c5.915 0.2556 15.036 1.1861 20.928 1.9785l5.4688-1.9141s1.0518 0.58422 1.5898 0.60742l1.0762 0.04492c1.613 0.0697 4.3483-0.88607 4.8633-0.32617-0.02401 0.5367 1.5657 1.1432 3.1797 1.2129l1.6133 0.06836 5.332 1.3066 1.6113 0.07031c1.614 0.0697 4.8644-0.32788 5.4024-0.30468 1.076 0.0465 3.1792 1.2127 3.7402 0.69922s4.8626-0.32752 6.4766-0.25782c1.613 0.0697 3.2043 0.67616 4.2793 0.72266l0.56055-0.51367 2.2207-1.5176c2.666 0.6529 21.464 2.0038 42.436 2.9102l18.822 0.8125 2.6875 0.11718c2.712-0.4205 7.484 1.3985 8.582 0.90821 1.099-0.4902 3.2503-0.39783 4.8633-0.32813l0.56054-0.51367c2.244-2.0538 3.1807 1.2144 4.3027 0.1875l1.1211-1.0273c2.151 0.093 9.1427 0.39492 15.596 0.67382l5.9141 0.25586 6.4531 0.27735c5.916 0.2557 19.896 0.86009 23.146 0.46289 3.25-0.3973 14.544 0.09107 17.77 0.23047 3.227 0.1394 11.292 0.48903 13.443 0.58203s6.5246-1.3317 7.5996-1.2852c1.052 0.5831 4.7701 1.8183 5.8691 1.3281s12.928 0.02113 17.23 0.20703c4.302 0.1859 18.821 0.81369 23.146 0.46289s12.929 0.02233 15.08 0.11523c2.151 0.093 8.6048 0.37171 10.219 0.44141 1.613 0.0697 6.5456-1.8684 7.5976-1.2852s4.2782 0.72324 6.9902 0.30274l2.1523 0.09179 1.6113 0.07032c2.151 0.0929 10.801-0.60839 13.49-0.49219 3.227 0.1394 8.067 0.34888 11.293 0.48828l3.2285 0.13867c1.613 0.0697 3.2014 0.6764 4.8144 0.7461l1.6133 0.07031c1.614 0.0697 7.553-0.21228 9.166-0.14258 1.614 0.0698 6.9895 0.30335 8.6035 0.37305 1.613 0.0697 6.5697-2.4048 8.1367-1.2617 1.566 1.1431 3.6936 1.7721 5.3066 1.8418l1.6152 0.07031c1.613 0.0697 3.8092-0.91145 4.3242-0.35157l1.5449 1.6797c1.122-1.027 16.784-1.9626 22.699-1.707 5.939-0.281 11.295 0.48735 12.885 1.0938l1.0742 0.04688 1.0762 0.04687c1.637-0.467 4.8852-0.86425 7.5742-0.74805l2.6895 0.11524c2.151 0.093 4.8622-0.32697 6.9902 0.30273l2.666 0.65235c2.198-0.9805 5.9616-0.81621 7.5976-1.2832 1.614 0.0697 4.8637-0.32909 7.5527-0.21289l4.3008 0.1875c2.151 0.093 7.553-0.21228 9.166-0.14257 1.614 0.06969 7.5511-0.21043 9.1641-0.14063 1.637-0.467 4.2796 0.7219 5.3086 1.8418l1.7051-2.0762 1.1465-1.5645c1.567 1.1431 6.3367 2.9631 7.9727 2.4961s5.939-0.28208 9.166-0.14258l3.2266 0.13867c2.151 0.093 4.817 0.74616 5.916 0.25586l2.2188-1.5156c1.567 1.1431 4.2569 1.2593 5.3789 0.23243l1.5664 1.1426 0.51368 0.56055c2.712-0.4205 21.067-1.2418 27.52-0.96289 5.938-0.281 13.466 0.04567 15.617 0.13867l2.1523 0.0918 12.906 0.55859 6.4512 0.27735 13.982 0.60547 2.1524 0.09179c2.151 0.093 6.4982-0.79455 7.5742-0.74805 1.052 0.5831 3.2254 0.13946 4.2774 0.72266 1.053 0.5832 13.468 0.04608 15.596 0.67578 2.151 0.0929 4.8175 0.74428 5.3555 0.76758 0.537 0.0232 2.1737-0.44302 4.3477-0.88672l1.6133 0.07031c2.689 0.1162 5.9155 0.2549 8.6035 0.3711l8.6055 0.37109 8.6035 0.37305 8.5996 0.37109 2.6894 0.11719c3.23 0.1394 8.051 0.88421 10.711 1.5371l2.709-0.41992 3.2812-0.9336c3.76 0.1627 9.6799 0.41779 13.42 1.1172l3.2207 0.13867c1.62 0.0697 3.7885-0.37243 5.3985-0.30273l1.6211 0.06836c2.15 0.093 7.4996 0.86334 8.5996 0.37305 1.1-0.4902 4.2301 1.795 5.3301 1.3047 1.64-0.4669 4.9302-1.9367 5.9902-1.3535 1.05 0.5832 4.8087 0.74451 5.8887 0.79101 1.05 0.5832 3.2304 0.14107 5.4004-0.30273l1.6113 0.06836c2.15 0.093 3.7191 1.2371 5.8691 1.3301 1.08 0.0465 2.69 0.11506 3.25-0.39844 2.76-1.4939 5.3308 1.3062 7.5508-0.21094 0.56-0.5135 2.1484 0.09375 2.1484 0.09375l2.0411 2.7754c3.27-0.9339 9.8396-3.3389 11.43-2.7324 1.59 0.6064 4.8201 0.74664 5.3301 1.3066 1.06 0.5831 4.261 1.2594 7.461 1.9356l1.1699-2.0996 2.2187-1.5176c2.13 0.6296 6.9007 2.4476 7.9707 2.4941 1.08 0.0465 4.9403-1.9367 5.9903-1.3535 1.59 0.6064 5.4204-0.84101 6.4804-0.25781 1.59 0.6064 3.7391 0.7 4.7891 1.2832 1.05 0.58311 3.2306 0.13847 4.8906-0.86523l2.0801 1.7031c0.51 0.5599 2.7084-0.41931 4.3184-0.34961 0.56-0.5135 2.1804-0.44491 2.1504 0.09179 1.01 1.6565 2.7097-0.42003 4.2597 1.2598 0.51 0.5599 3.2309 0.13942 5.3809 0.23242 3.22 0.1394 6.4497 0.27857 9.6797 0.41797l3.2207 0.13867c3.23 0.1394 10.269-0.63179 11.859-0.02539 1.59 0.6065 5.9103 0.25622 6.9903 0.30274 1.07 0.0464 5.87 1.3303 7.5 0.86328 1.62 0.0697 5.3801 0.232 8.5801 0.9082l2.6894 0.11523 0.541 0.02344c0.54 0.0232 6.5199-1.3313 8.6699-1.2383 2.13 0.6296 14.5 1.1635 18.26 1.3262 4.31 0.1859 9.7102-0.11705 10.24-0.09375 0.54 0.0232 3.2296 0.13881 3.7696 0.16211 0.54 0.0232 2.1302 0.62952 3.7402 0.69922l1.6094 0.07031 1.6211 0.07031c1.63-0.46699 6.9896 0.3014 8.5996 0.3711 1.64-0.4669 4.3502-0.88847 5.9902-1.3555l0.5098 0.56055 2.5996 2.2637c0.1351-0.02098 0.2693-0.05583 0.4043-0.08203v-199.22h-1300z" fill="#5c5db1"/>
</svg>
