<svg width="1300" height="125" viewBox="0 0 1300 125" fill="none" xmlns="http://www.w3.org/2000/svg">
<path d="M1188.24 57.8947C1188.75 58.4546 1190.39 57.9876 1191.51 56.9607C1192.52 58.6173 1193.68 56.517 1194.2 57.0769C1195.77 58.22 1196.84 58.2665 1198.5 57.2628C1199.06 56.7494 1201.12 58.9891 1202.2 59.0356L1203.27 59.0821C1204.91 58.6151 1206.52 58.6848 1207.6 58.7313C1208.67 58.7778 1212.93 60.0371 1215.06 60.6668L1216.72 59.6631C1216.72 59.6631 1217.25 59.6863 1217.79 59.7096C1219.38 60.316 1221.49 61.4824 1223.1 61.5521L1224.71 61.6218C1226.37 60.6181 1226.86 61.7148 1226.79 63.3249L1229.57 61.2943L1231.8 59.7771C1233.9 60.9435 1237.13 61.0829 1238.76 60.616C1240.4 60.149 1245.12 63.0416 1246.76 62.5747C1248.37 62.6444 1254.22 64.5101 1255.81 65.1165L1255.9 62.9697L1257 62.4795L1259.08 64.1826C1261.79 63.7621 1264.46 64.415 1265.51 64.9982C1266.56 65.5813 1269.86 64.1107 1270.91 64.6939C1271.96 65.277 1275.17 65.9532 1276.27 65.463C1277.37 64.9727 1283.82 65.2516 1287.02 65.9278L1290.2 67.1406C1291.25 67.7238 1292.94 66.1834 1294.55 66.2531L1295.63 66.2996C1296.68 66.8828 1298.29 66.9525 1298.85 66.4391L1301.45 68.7021C1304.72 67.7681 1307.95 67.9075 1308.42 69.5409C1308.88 71.1742 1311.43 74.5106 1311.97 74.5339C1312.51 74.5571 1314.66 74.6501 1314.64 75.1868C1314.61 75.7235 1314.01 77.3103 1312.91 77.8005C1311.81 78.2908 1311.6 83.1211 1309.36 85.1749L1309.76 88.4183L1309.73 88.955C1309.69 90.0284 1309.12 90.5419 1308.59 90.5187C1308.07 89.9587 1307 89.9122 1306.41 90.9624C1309.59 92.1752 1305.74 94.1594 1307.28 95.8392C1307.28 95.8392 1307.26 96.3759 1307.23 96.9126L1305.04 97.893C1304.97 99.5031 1302.21 100.997 1299.5 101.418L1296.9 99.1545L1296.39 98.5946C1294.75 99.0616 1292.04 99.4821 1290.4 99.949C1288.79 99.8793 1283.43 99.1102 1281.8 99.5772L1280.18 99.5075L1278.57 99.4377C1276.96 99.368 1275.37 98.7616 1274.83 98.7384C1274.29 98.7151 1271.6 98.5989 1271.06 98.5757C1270.53 98.5524 1265.13 98.8567 1260.82 98.6708C1257.06 98.5081 1244.69 97.9736 1242.56 97.344C1240.41 97.251 1234.43 98.6054 1233.89 98.5822L1233.35 98.559L1230.66 98.4428C1227.46 97.7666 1223.7 97.6039 1222.08 97.5342C1220.45 98.0012 1215.65 96.7186 1214.58 96.6722C1213.5 96.6257 1209.18 96.9765 1207.59 96.37C1206 95.7636 1198.96 96.5349 1195.73 96.3955L1192.51 96.256C1189.28 96.1166 1186.05 95.9771 1182.83 95.8377C1180.68 95.7447 1177.96 96.1652 1177.45 95.6053C1175.9 93.9255 1174.2 96.0025 1173.19 94.346C1173.22 93.8093 1171.6 93.7395 1171.04 94.253C1169.43 94.1833 1167.23 95.1637 1166.72 94.6038L1164.64 92.9007C1162.98 93.9044 1160.8 94.3481 1159.75 93.765C1158.7 93.1818 1156.55 93.0888 1154.96 92.4824C1153.9 91.8992 1150.07 93.3466 1148.48 92.7402C1147.43 92.157 1143.57 94.1412 1142.49 94.0947C1141.42 94.0482 1136.65 92.2289 1134.52 91.5993L1132.3 93.1164L1131.13 95.2167C1127.93 94.5406 1124.73 93.8644 1123.67 93.2813C1123.16 92.7213 1119.93 92.5819 1118.34 91.9755C1116.75 91.369 1110.18 93.7737 1106.91 94.7076L1104.87 91.9312C1104.87 91.9312 1103.28 91.3247 1102.72 91.8382C1100.5 93.3553 1097.93 90.5556 1095.17 92.0495C1094.61 92.563 1093 92.4933 1091.92 92.4468C1089.77 92.3538 1088.2 91.2107 1086.05 91.1177L1084.44 91.048C1082.27 91.4918 1080.09 91.9355 1079.04 91.3523C1077.96 91.3058 1074.2 91.1432 1073.15 90.56C1072.09 89.9768 1068.8 91.4475 1067.16 91.9144C1066.06 92.4047 1062.93 90.1184 1061.83 90.6086C1060.73 91.0989 1055.38 90.3298 1053.23 90.2368L1051.61 90.1671C1050 90.0974 1047.83 90.5411 1046.21 90.4714L1042.99 90.3319C1039.25 89.6325 1033.33 89.3769 1029.57 89.2142L1026.29 90.1482L1023.58 90.5687C1020.92 89.9158 1016.1 89.1699 1012.87 89.0305L1010.18 88.9143L1001.58 88.5424L992.976 88.1706L984.371 87.7987C981.683 87.6825 978.456 87.5431 975.767 87.4269L974.154 87.3572C971.98 87.8009 970.343 88.2679 969.806 88.2447C969.268 88.2214 966.602 87.5685 964.451 87.4756C962.323 86.8459 949.909 87.3848 948.856 86.8016C947.804 86.2184 945.63 86.6621 944.578 86.079C943.502 86.0325 939.154 86.92 937.003 86.827L934.852 86.734L928.399 86.4552L920.87 86.1298L914.417 85.8509L907.964 85.572L901.511 85.2932L899.36 85.2002C897.209 85.1072 889.68 84.7819 883.742 85.0629C877.289 84.784 858.935 85.604 856.223 86.0245L855.709 85.4645L854.142 84.3214C853.02 85.3483 850.331 85.2321 848.764 84.089L846.544 85.6061C845.445 86.0964 842.78 85.4435 840.629 85.3505L837.402 85.2111C834.175 85.0716 829.873 84.8857 828.237 85.3527C826.601 85.8197 821.83 84.0004 820.263 82.8573L819.118 84.4209L817.412 86.498C816.383 85.3781 813.741 84.1885 812.104 84.6555C810.491 84.5857 804.553 84.8668 802.939 84.7971C801.326 84.7274 795.925 85.0317 793.774 84.9387L791.623 84.8457L789.472 84.7528C786.783 84.6366 783.534 85.0338 781.92 84.9641C780.284 85.4311 776.52 85.2684 774.322 86.2489L771.657 85.596C769.529 84.9663 766.817 85.3868 764.666 85.2938L761.977 85.1776C759.288 85.0614 756.039 85.4587 754.402 85.9257L753.327 85.8792L752.251 85.8327C750.661 85.2263 745.307 84.4572 739.368 84.7382C733.453 84.4826 717.789 85.4187 716.667 86.4457L715.123 84.7658C714.608 84.2059 712.411 85.1863 710.798 85.1166L709.184 85.0469C707.571 84.9772 705.443 84.3475 703.877 83.2044C702.31 82.0613 697.354 84.5356 695.741 84.4659C694.127 84.3962 688.75 84.1638 687.136 84.094C685.523 84.0243 679.585 84.3054 677.971 84.2357L676.358 84.1659C674.745 84.0962 673.155 83.4898 671.542 83.4201L668.315 83.2806C665.089 83.1412 660.249 82.932 657.022 82.7926C654.333 82.6764 645.683 83.3779 643.532 83.285L641.919 83.2153L639.768 83.1223C637.056 83.5428 633.829 83.4034 632.777 82.8202C631.725 82.237 626.792 84.1746 625.179 84.1049C623.565 84.0352 617.112 83.7563 614.961 83.6633C612.81 83.5704 604.206 83.1985 599.881 83.5493C595.556 83.9001 581.036 83.2726 576.734 83.0867C572.432 82.9008 560.602 82.3895 559.503 82.8797C558.404 83.3699 554.686 82.1338 553.634 81.5507C552.559 81.5042 548.187 82.9284 546.036 82.8354C543.885 82.7424 535.819 82.3938 532.592 82.2544C529.366 82.115 518.073 81.6269 514.823 82.0242C511.573 82.4214 497.592 81.8172 491.676 81.5615L485.223 81.2827L479.308 81.027C472.855 80.7481 465.864 80.446 463.713 80.353L462.591 81.38C461.469 82.4069 460.533 79.1402 458.289 81.194L457.728 81.7075C456.115 81.6378 453.964 81.5448 452.865 82.035C451.767 82.5253 446.996 80.706 444.284 81.1265L441.596 81.0103L422.774 80.1969C401.802 79.2905 383.004 77.9404 380.338 77.2875L378.117 78.8047L377.556 79.3181C376.481 79.2716 374.891 78.6652 373.278 78.5955C371.664 78.5258 367.362 78.3398 366.801 78.8533C366.24 79.3668 364.136 78.2004 363.06 78.1539C362.522 78.1307 359.273 78.5279 357.659 78.4582L356.046 78.3885L350.715 77.0827L349.102 77.013C347.488 76.9433 345.898 76.3368 345.922 75.8001C345.407 75.2402 342.672 76.1974 341.059 76.1277L339.983 76.0812C339.445 76.058 338.393 75.4748 338.393 75.4748L332.923 77.3892C327.031 76.5968 317.912 75.665 311.997 75.4094L306.619 75.177L296.402 74.7354L293.175 74.596C289.949 74.4566 285.647 74.2706 284.057 73.6642C282.443 73.5945 276.435 75.4856 273.7 76.4428L272.203 73.6896C272.226 73.1529 270.613 73.0832 270.052 73.5967L267.293 75.0906C264.628 74.4377 260.349 73.715 257.099 74.1123L254.411 73.9961C251.722 73.8799 248.495 73.7405 245.806 73.6243L237.74 73.2757L229.136 72.9038L221.608 72.5784L213.003 72.2066L210.315 72.0904C207.626 71.9742 203.324 71.7883 201.196 71.1586C199.068 70.529 192.522 72.3969 192.008 71.8369C191.493 71.277 186.116 71.0446 182.889 70.9051C179.663 70.7657 169.399 71.3975 168.323 71.3511C167.248 71.3046 163.484 71.1419 162.431 70.5587C161.379 69.9755 157.545 71.423 156.47 71.3765C155.394 71.33 151.676 70.0939 150.04 70.5609C148.403 71.0279 143.563 70.8187 141.927 71.2857C140.314 71.216 136.058 69.9566 134.959 70.4469C133.884 70.4004 129.021 70.7279 126.332 70.6117C123.643 70.4955 112.888 70.0307 108.072 69.2849L104.215 71.269L103.654 71.7824C102.578 71.736 99.9126 71.0831 97.2006 71.5036L95.6105 70.8971L92.5232 67.5375C90.8635 68.5412 88.1515 68.9617 86.5615 68.3552L84.925 68.8222L82.7508 69.266C80.062 69.1498 77.3965 68.4969 76.2978 68.9871C75.2222 68.9406 67.7633 67.0051 60.7956 66.1663L55.3021 68.6174L53.1047 69.5979C50.9769 68.9682 47.7504 68.8288 46.6749 68.7823C45.0616 68.7126 40.2218 68.5034 38.6085 68.4337C36.9953 68.3639 33.7919 67.6878 33.2542 67.6646C32.7164 67.6413 29.4899 67.5019 27.3389 67.4089C25.7256 67.3392 19.2726 67.0603 17.6825 66.4539C16.0692 66.3842 11.7672 66.1983 10.1539 66.1285C9.1016 65.5454 5.80549 67.016 5.26774 66.9928C4.75318 66.4328 3.16311 65.8264 2.60216 66.3399C2.04121 66.8533 -0.670759 67.2738 -2.28402 67.2041L-3.89728 67.1344C-6.58606 67.0182 -9.27483 66.902 -11.9636 66.7858L-13.5769 66.7161C-14.0682 65.6194 -15.1206 65.0362 -15.1206 65.0362C-15.1206 65.0362 -16.2193 65.5265 -16.2424 66.0632C-16.2656 66.5999 -20.0299 66.4372 -22.6955 65.7843L-24.8465 65.6913L-26.4598 65.6216C-28.6108 65.5286 -30.2241 65.4589 -29.6631 64.9455C-29.1254 64.9687 -28.5412 63.9185 -29.0558 63.3586C-29.5703 62.7987 -29.9921 60.0919 -29.408 59.0418C-28.847 58.5283 -28.7543 56.3815 -29.8298 56.335C-30.9053 56.2885 -32.5417 56.7555 -32.5417 56.7555C-32.5649 57.2922 -32.5881 57.8289 -32.6113 58.3656C-33.1491 58.3424 -34.2014 57.7592 -35.2537 57.176C-35.7683 56.6161 -40.0007 54.8201 -40.5153 54.2601C-41.0066 53.1635 -42.5039 50.4103 -40.8675 49.9433C-39.231 49.4763 -37.7801 53.3029 -36.751 54.4228L-35.6755 54.4693C-35.1377 54.4925 -34.5768 53.9791 -34.5536 53.4424C-34.5304 52.9057 -35.0449 52.3457 -35.0449 52.3457C-35.5827 52.3225 -36.6582 52.276 -36.635 51.7393C-36.6118 51.2026 -35.4667 49.639 -33.8303 49.172C-32.1938 48.705 -27.8222 47.2808 -27.799 46.7441C-27.7758 46.2074 -27.1453 44.0839 -26.6307 44.6438C-26.1393 45.7405 -23.5202 47.4668 -22.3983 46.4398L-21.8141 45.3897C-21.23 44.3395 -21.23 44.3395 -20.1777 44.9227L-19.6631 45.4827C-18.5876 45.5291 -15.8988 45.6453 -13.21 45.7615C-10.5213 45.8777 -5.05093 43.9633 -5.58869 43.9401C-6.12645 43.9169 -4.4436 42.3765 -0.0951717 41.489L4.13728 43.285C5.18959 43.8682 5.72735 43.8914 6.80286 43.9379L7.34062 43.9612C8.43932 43.4709 9.00027 42.9575 7.94796 42.3743C7.4334 41.8144 6.45066 39.6211 6.98841 39.6443L7.52617 39.6676C8.06393 39.6908 9.09304 40.8107 9.65399 40.2972L12.3892 39.34C13.9328 41.0198 15.4997 42.163 16.0375 42.1862C16.5752 42.2094 19.264 42.3256 18.2117 41.7425C17.6971 41.1825 18.2813 40.1324 19.4032 39.1054C20.5251 38.0785 24.8271 38.2644 25.9026 38.3109C26.9781 38.3574 30.2046 38.4969 31.2802 38.5433C32.3557 38.5898 36.12 38.7525 37.71 39.3589C39.3001 39.9653 42.6658 36.8846 43.7413 36.9311C44.8168 36.9775 46.3605 38.6574 46.3373 39.1941C46.3141 39.7308 47.3896 39.7772 47.4128 39.2405L47.436 38.7038L47.5752 35.4836C50.2407 36.1365 53.9586 37.3726 56.0865 38.0023L58.2839 37.0218L60.4813 36.0414C63.1932 35.6209 66.443 35.2236 68.0794 34.7567C69.1781 34.2664 71.7741 36.5295 72.3351 36.016L72.3583 35.4793L72.9192 34.9658C73.457 34.9891 75.0702 35.0588 76.6603 35.6652L77.7358 35.7117L79.8868 35.8047C82.0611 35.3609 84.2353 34.9172 85.3108 34.9637C86.3863 35.0101 90.1738 34.6361 91.787 34.7058C93.4003 34.7756 99.3388 34.4945 100.929 35.1009C102.542 35.1706 108.527 33.8162 110.14 33.8859C111.754 33.9556 116.57 34.7015 117.669 34.2113C118.23 33.6978 121.41 34.9106 122.509 34.4204C123.07 33.907 125.712 35.0966 126.273 34.5831C126.834 34.0697 128.47 33.6027 128.985 34.1626C129.453 35.796 131.581 36.4256 132.656 36.4721C133.732 36.5186 137.519 36.1446 139.133 36.2143C140.746 36.284 145.071 35.9332 146.123 36.5164C147.199 36.5629 150.986 36.1889 151.524 36.2121C152.623 35.7219 155.849 35.8613 157.486 35.3943C159.122 34.9274 163.869 37.2833 164.384 37.8433C165.436 38.4264 166.628 35.7894 167.189 35.276L167.726 35.2992L169.831 36.4656C172.005 36.0218 174.203 35.0414 174.74 35.0646C175.793 35.6478 177.383 36.2542 178.458 36.3007L179.557 35.8105C180.633 35.857 182.246 35.9267 182.807 35.4132C183.368 34.8998 186.571 35.5759 187.623 36.1591L188.699 36.2056L189.774 36.2521C190.85 36.2985 193.024 35.8548 194.1 35.9013C195.713 35.971 200.553 36.1802 202.12 37.3233L204.34 35.8061C205.462 34.7792 208.081 36.5055 209.764 34.9651C209.764 34.9651 210.816 35.5483 211.892 35.5948L215.095 36.271C218.883 35.8969 222.132 35.4997 223.231 35.0095C224.33 34.5192 226.972 35.7088 227.533 35.1954C228.094 34.6819 230.713 36.4082 231.251 36.4315C231.789 36.4547 233.402 36.5244 234.992 37.1308C236.582 37.7373 242.029 36.3596 244.718 36.4758L246.8 38.1788L247.337 38.2021C247.875 38.2253 249.488 38.295 250.072 37.2449C250.633 36.7314 252.27 36.2644 253.883 36.3341C254.959 36.3806 260.336 36.613 263.002 37.2659L264.638 36.799C265.199 36.2855 267.327 36.9152 268.403 36.9616L270.6 35.9812C272.705 37.1476 274.832 37.7772 275.37 37.8005C275.908 37.8237 279.158 37.4264 280.21 38.0096L281.262 38.5928C282.315 39.176 282.968 36.5157 284.512 38.1955C284.512 38.1955 286.148 37.7286 287.224 37.775L288.837 37.8448C290.427 38.4512 292.041 38.5209 292.555 39.0808C293.093 39.1041 296.319 39.2435 298.47 39.3365C300.621 39.4294 305.531 38.0285 306.069 38.0518C306.606 38.075 309.225 39.8013 310.278 40.3845L311.961 38.8441L314.228 36.2536C317.408 37.4664 321.126 38.7025 322.716 39.3089C323.791 39.3554 329.776 38.0009 330.875 37.5107C331.974 37.0205 335.738 37.1832 337.374 36.7162L338.427 37.2994L339.479 37.8825C340.508 39.0024 341.584 39.0489 342.705 38.022L343.804 37.5318C344.342 37.555 345.417 37.6015 345.932 38.1614C346.447 38.7214 348.574 39.351 349.673 38.8608C350.234 38.3473 355.612 38.5797 357.202 39.1862C358.254 39.7694 360.966 39.3489 362.018 39.932C363.094 39.9785 365.268 39.5348 366.343 39.5813C367.419 39.6277 370.669 39.2305 371.767 38.7403C372.866 38.25 377.636 40.0693 379.764 40.699L381.447 39.1586C381.447 39.1586 382.522 39.2051 383.06 39.2283L386.264 39.9044C389.467 40.5806 393.254 40.2066 394.891 39.7396C396.527 39.2726 401.835 41.1151 403.986 41.2081L405.623 40.7411L407.259 40.2741C408.872 40.3438 411.584 39.9233 413.198 39.9931C414.834 39.5261 419.043 41.8588 419.581 41.882L420.119 41.9053L424.491 40.4811C429.33 40.6903 434.685 41.4594 435.76 41.5058C436.836 41.5523 441.652 42.2982 443.219 43.4413L444.948 40.8275L445.533 39.7774C447.66 40.407 449.765 41.5734 450.28 42.1333C450.794 42.6933 454.09 41.2226 454.628 41.2459C455.704 41.2923 458.346 42.4819 458.884 42.5052L459.445 41.9917L461.665 40.4746C463.77 41.6409 466.435 42.2938 467.488 42.877C469.101 42.9467 472.888 42.5727 473.987 42.0825C475.086 41.5923 478.266 42.8051 478.804 42.8284C479.342 42.8516 481.001 41.8479 481.562 41.3345C482.123 40.821 484.228 41.9874 484.812 40.9372L486.402 41.5436L487.992 42.15C490.704 41.7295 494.491 41.3555 496.128 40.8885C497.764 40.4216 502.558 41.7041 503.096 41.7274C503.633 41.7506 506.86 41.8901 508.45 42.4965L509.525 42.543L510.063 42.5662C510.624 42.0527 511.7 42.0992 511.676 42.6359C511.653 43.1726 513.174 45.3891 514.272 44.8989C515.371 44.4087 518.667 42.938 519.766 42.4478C520.865 41.9576 526.78 42.2132 527.832 42.7964C528.908 42.8429 532.181 41.9089 533.817 41.442C534.893 41.4884 539.732 41.6976 540.785 42.2808C541.837 42.864 547.776 42.5829 551.002 42.7224L552.662 41.7187L554.321 40.715C555.374 41.2982 556.403 42.4181 556.917 42.978C557.432 43.5379 561.78 42.6505 564.492 42.23C566.667 41.7862 574.195 42.1116 574.71 42.6715C575.762 43.2547 579.526 43.4174 580.625 42.9272C582.238 42.9969 586.564 42.6461 588.177 42.7158C589.79 42.7855 593.601 41.8748 594.138 41.8981C594.699 41.3846 596.781 43.0877 597.319 43.1109C598.417 42.6207 600.054 42.1537 601.129 42.2002C602.205 42.2467 603.257 42.8299 604.87 42.8996L606.484 42.9693C608.097 43.039 610.809 42.6185 611.884 42.665C612.96 42.7115 615.602 43.9011 616.163 43.3876L616.724 42.8742L617.262 42.8974C617.8 42.9206 619.951 43.0136 621.541 43.62C623.131 44.2264 631.781 43.5249 632.857 43.5714L633.909 44.1545L635.499 44.761C636.598 44.2707 638.772 43.827 639.824 44.4102L640.923 43.92L642.56 43.453C644.219 42.4493 646.393 42.0056 647.446 42.5888C648.498 43.1719 651.748 42.7747 653.361 42.8444C654.46 42.3542 657.125 43.0071 658.224 42.5169C659.3 42.5633 661.965 43.2162 663.041 43.2627C664.116 43.3092 666.267 43.4022 666.805 43.4254C667.319 43.9853 669.447 44.615 670.546 44.1248C672.183 43.6578 680.763 44.5663 684.013 44.1691C687.24 44.3085 692.687 42.9308 693.762 42.9773L695.352 43.5837L698.018 44.2366C701.244 44.3761 705.546 44.562 706.622 44.6085L707.721 44.1183L709.357 43.6513C711.508 43.7442 714.197 43.8604 715.249 44.4436C716.325 44.4901 720.089 44.6528 721.165 44.6993L722.24 44.7457L723.316 44.7922C724.391 44.8387 727.08 44.9549 729.792 44.5344L732.504 44.1139L734.678 43.6702C736.852 43.2264 739.003 43.3194 739.541 43.3426C739.541 43.3426 741.131 43.949 742.207 43.9955C743.282 44.042 747.561 44.7646 748.636 44.8111C749.689 45.3943 752.354 46.0472 752.892 46.0704C753.453 45.557 755.089 45.09 756.165 45.1365C756.703 45.1597 759.976 44.2258 761.612 43.7588C763.225 43.8285 769.678 44.1074 772.39 43.6869C775.079 43.8031 782.585 44.6651 783.66 44.7116C784.736 44.7581 788.546 43.8474 789.084 43.8706C789.622 43.8939 791.235 43.9636 791.75 44.5235C792.287 44.5468 796.075 44.1728 799.325 43.7755L801.99 44.4284L804.141 44.5214C805.778 44.0544 808.49 43.6339 810.08 44.2403L811.693 44.31L813.306 44.3797C814.943 43.9128 817.631 44.029 818.661 45.1488C819.713 45.732 824.669 43.2577 827.357 43.3739L829.439 45.0769C829.439 45.0769 830.514 45.1234 830.538 44.5867L831.098 44.0733C831.122 43.5366 832.22 43.0464 833.319 42.5561C834.395 42.6026 837.037 43.7922 838.112 43.8387C839.165 44.4219 843.49 44.0711 844.542 44.6543C845.595 45.2375 847.769 44.7937 848.844 44.8402C849.92 44.8867 853.123 45.5628 854.736 45.6325C856.35 45.7023 861.774 44.8613 863.364 45.4677L863.925 44.9542C866.145 43.4371 866.567 46.1438 868.204 45.6768L869.84 45.2099C870.962 44.1829 873.159 43.2025 874.773 43.2722C875.848 43.3187 880.688 43.5279 881.74 44.111C882.816 44.1575 887.118 44.3435 888.193 44.3899C889.292 43.8997 893.548 45.159 894.623 45.2055C895.675 45.7887 900.001 45.4379 902.175 44.9942L904.303 45.6238C905.893 46.2303 908.044 46.3232 909.189 44.7596L914.052 44.4321C918.822 46.2513 923.685 45.9238 928.571 45.0595C930.208 44.5926 932.243 47.369 933.949 45.292C934.51 44.7785 937.736 44.9179 939.326 45.5244L940.402 45.5708C941.454 46.154 943.067 46.2237 943.605 46.247C944.143 46.2702 945.779 45.8032 946.901 44.7763C948 44.2861 950.596 46.5491 951.672 46.5956C952.747 46.6421 954.944 45.6616 955.482 45.6849C956.02 45.7081 958.125 46.8745 959.177 47.4576L960.252 47.5041C961.328 47.5506 962.427 47.0604 963.525 46.5702L965.162 46.1032C966.752 46.7096 968.88 47.3393 969.417 47.3625C969.955 47.3857 971.592 46.9188 972.129 46.942C972.69 46.4285 974.795 47.5949 975.87 47.6414L976.408 47.6646C976.969 47.1512 977.53 46.6377 978.068 46.6609C979.143 46.7074 980.71 47.8505 981.809 47.3603C983.422 47.43 985.082 46.4264 986.157 46.4729L987.771 46.5426C989.384 46.6123 991.535 46.7053 992.634 46.215L993.663 47.3349L994.177 47.8949C995.253 47.9413 997.918 48.5942 1000.07 48.6872C1001.68 48.7569 1007.64 47.9392 1008.7 48.5223C1009.75 49.1055 1016.76 48.8709 1021.04 49.5936L1025.41 48.1694C1026.51 47.6792 1028.66 47.7721 1029.72 48.3553L1031.82 49.5217C1033.46 49.0547 1036.19 48.0975 1037.29 47.6073L1038.37 47.6538C1039.44 47.7002 1040.49 48.2834 1041.55 48.8666L1042.06 49.4265C1042.58 49.9865 1045.78 50.6626 1049.54 50.8253C1053.31 50.988 1062 49.213 1062.54 49.2363C1063.08 49.2595 1063.06 49.7962 1063.59 49.8194C1064.13 49.8427 1066.82 49.9589 1068.46 49.4919C1070.07 49.5616 1075.47 49.2573 1077.08 49.3271C1078.7 49.3968 1083.47 51.216 1084.52 51.7992C1085.57 52.3824 1089.92 51.4949 1090.44 52.0549C1091.49 52.638 1095.88 50.6772 1097.52 50.2102L1099.6 51.9132L1100.65 52.4964C1103.36 52.0759 1108.23 51.7484 1110.94 51.3279L1113.09 51.4208L1115.78 51.537C1118.45 52.19 1122.23 51.8159 1123.89 50.8123L1125.97 52.5153C1127.54 53.6584 1129.83 50.5312 1132.45 52.2575C1134.53 53.9606 1136.17 53.4936 1137.85 51.9532L1138.39 51.9764L1139.98 52.5829C1141.59 52.6526 1143.72 53.2822 1144.8 53.3287C1145.33 53.352 1148.61 52.418 1150.22 52.4877L1151.29 52.5342L1153.98 52.6504C1157.21 52.7898 1162.05 52.999 1165.3 52.6017L1167.99 52.7179L1169.6 52.7877C1171.73 53.4173 1173.86 54.047 1174.93 54.0935C1176.01 54.14 1178.18 53.6962 1179.26 53.7427C1179.8 53.7659 1182.44 54.9555 1182.98 54.9788L1184.68 52.9017C1182.39 56.0289 1187.72 57.3347 1188.24 57.8947Z" fill="#5C5DB1"/>
</svg>
