<svg width="159" height="55" viewBox="0 0 159 55" fill="none" xmlns="http://www.w3.org/2000/svg">
<path fill-rule="evenodd" clip-rule="evenodd" d="M48.9348 44.9952C49.0128 44.5124 49.1073 44.0348 49.2017 43.5586C49.3563 42.7777 49.5102 42.0003 49.5893 41.2089C49.7971 39.4287 49.8557 37.632 49.514 35.911C49.3327 35.0543 49.0466 34.236 48.622 33.4921C48.4097 33.1202 48.1633 32.7843 47.8751 32.4638C47.8298 32.418 47.7863 32.3715 47.7433 32.3254C47.6393 32.2144 47.5378 32.1058 47.4193 32.0154L47.1705 31.7988L46.9086 31.6107C46.225 31.1273 45.4264 30.7807 44.5835 30.5687C43.7405 30.3567 42.8531 30.2793 41.9396 30.2588C40.6523 30.2242 39.3557 30.3251 38.0423 30.4274C37.5131 30.4686 36.9811 30.5101 36.446 30.5429C35.5143 30.6001 34.5825 30.6573 33.6036 30.5898C33.3628 30.5833 33.1141 30.556 32.8863 30.5211C32.6377 30.4938 32.4099 30.4589 32.1534 30.4108C32.0892 30.3988 32.0303 30.3849 31.9714 30.3709C31.9125 30.357 31.8536 30.3431 31.7895 30.3311C31.6612 30.307 31.5539 30.2753 31.4177 30.2305C31.1743 30.154 30.9308 30.0775 30.7134 29.9441C30.5364 29.8634 30.3624 29.7537 30.1927 29.6467C30.1415 29.6144 30.0907 29.5824 30.0404 29.5515L29.734 29.3087L29.5873 29.1731L29.4615 29.0298C29.0791 28.6491 28.8143 28.2017 28.6045 27.7105C28.1927 26.7489 28.1604 25.7193 28.2721 24.7553C28.3839 23.7913 28.6108 22.8798 28.9162 21.9868C29.2008 21.1016 29.5638 20.2349 29.9348 19.389C30.4941 18.1133 31.1027 16.86 31.7053 15.6188C31.9019 15.2139 32.0979 14.8103 32.2913 14.4076L32.3046 14.3799C32.6996 13.557 33.0816 12.7612 33.4277 11.9322C33.7777 11.094 34.078 10.2503 34.2579 9.40335C34.4456 8.5772 34.4396 7.67999 33.9811 7.1615C33.7453 6.91649 33.4127 6.73059 33.0201 6.63771C32.6274 6.54484 32.1876 6.51653 31.7636 6.5298C30.8947 6.564 30.0023 6.72513 29.1335 6.94862C28.2647 7.17211 27.3908 7.44484 26.5325 7.75914C24.8082 8.36696 23.1232 9.07871 21.454 9.83203C19.7848 10.5854 18.1392 11.401 16.5014 12.2375C13.2259 13.9104 10.0107 15.6797 6.81906 17.5112C6.6804 17.5857 6.52333 17.5485 6.42637 17.4183C6.35035 17.2805 6.38685 17.1251 6.51764 17.0299C9.67258 15.1644 12.8851 13.3252 16.1449 11.6107C17.7748 10.7534 19.4413 9.93006 21.1158 9.1275C22.7771 8.35339 24.4752 7.61319 26.2335 6.96925C27.1126 6.64729 27.9997 6.3461 28.9182 6.12807C29.8288 5.88925 30.7631 5.71278 31.7445 5.66104C32.2392 5.64556 32.7418 5.65087 33.2418 5.77544C33.7418 5.90001 34.2891 6.14931 34.6663 6.57919C34.8654 6.7903 35.0096 7.04519 35.1119 7.31541C35.2142 7.58564 35.2668 7.85041 35.2906 8.10206C35.346 8.62614 35.2732 9.1262 35.1846 9.58468C34.9943 10.5301 34.6601 11.4099 34.3258 12.2897C33.9837 13.1487 33.5839 13.9815 33.1842 14.8143C32.9504 15.3121 32.7122 15.8095 32.474 16.3065C31.9191 17.4648 31.3648 18.6219 30.8695 19.7804C30.5195 20.6186 30.1904 21.4492 29.919 22.306C29.6475 23.1628 29.4258 24.0251 29.3454 24.8829C29.265 25.7408 29.305 26.6019 29.6302 27.3349C29.7928 27.7014 29.9972 28.0525 30.2906 28.3238L30.3509 28.42L30.4609 28.5218C30.5343 28.5896 30.6076 28.6574 30.7019 28.7175C30.729 28.7357 30.7564 28.7546 30.7841 28.7736C30.9193 28.8665 31.0623 28.9648 31.223 29.0237C31.9588 29.3933 32.841 29.52 33.7126 29.5558C34.5921 29.6124 35.5029 29.5629 36.4268 29.4849C36.8881 29.4528 37.3501 29.4145 37.8136 29.3761C39.1932 29.2618 40.5857 29.1463 42.012 29.1909C42.9752 29.2169 43.9332 29.2921 44.8836 29.5357C45.826 29.7586 46.7686 30.1708 47.5831 30.7483C47.6342 30.7888 47.6833 30.824 47.7324 30.8593C47.7815 30.8946 47.8306 30.9299 47.8817 30.9703L48.1672 31.2208C48.3715 31.3827 48.5339 31.5599 48.7042 31.7578C49.037 32.133 49.3357 32.5443 49.5716 32.9786C50.0645 33.8396 50.3977 34.7827 50.5817 35.7093C50.9655 37.6043 50.9043 39.5202 50.6913 41.3497L50.6792 41.437C50.5067 42.6864 50.3331 43.9439 49.956 45.1439L54.6763 45.831C54.8215 45.8551 54.918 45.96 54.9289 46.0822C55.0518 46.0253 55.198 46.0599 55.276 46.1556C55.407 46.2497 55.3993 46.4182 55.2973 46.5266C54.2592 47.6878 53.1478 48.7812 52.0364 49.8746L50.3573 51.4836C50.0775 51.7518 49.7977 52.0199 49.4891 52.275C49.1726 52.5092 48.8561 52.7435 48.4583 52.8891C48.2909 52.9505 48.1181 52.8717 48.0551 52.7054C48.0248 52.6255 48.0405 52.5506 48.058 52.4759C47.8552 52.2838 47.6909 52.0651 47.5335 51.8316L46.9594 50.882L45.8035 48.9621C45.6213 48.6383 45.4339 48.3164 45.2465 47.9945C45.0591 47.6726 44.8716 47.3507 44.6894 47.0269C44.3251 46.3793 43.9607 45.7317 43.6094 45.0556L43.5936 45.014C43.4783 44.7722 43.5513 44.4615 43.8155 44.341C43.9123 44.2819 44.0248 44.2644 44.1322 44.2961L48.9348 44.9952ZM48.821 45.8237L45.0361 45.4263C45.2507 45.7758 45.4619 46.1266 45.6731 46.4773C45.8658 46.7973 46.0532 47.1192 46.2406 47.4411C46.428 47.763 46.6154 48.0849 46.8081 48.4049C46.9296 48.6207 47.0533 48.8358 47.1771 49.0508C47.4247 49.4808 47.6723 49.9109 47.9012 50.3478L48.4413 51.3334C48.4948 51.4365 48.5464 51.5402 48.5931 51.6458C48.6398 51.5911 48.6879 51.5376 48.7372 51.4852C48.9185 51.2926 49.1068 51.1185 49.2951 50.9443C49.3892 50.8572 49.4834 50.7701 49.5767 50.6808C49.8604 50.423 50.1494 50.1633 50.4384 49.9036C50.7274 49.6439 51.0164 49.3842 51.3002 49.1265C52.342 48.2152 53.4006 47.2979 54.493 46.4191L49.6807 45.9139C49.5681 46.1921 49.4415 46.4663 49.2983 46.7356C49.233 46.8779 49.0577 46.9184 48.9136 46.8528C48.8194 46.7927 48.7591 46.6964 48.7616 46.5771C48.7732 46.3237 48.7937 46.0727 48.821 45.8237Z" fill="#FFE5A7"/>
<path d="M75.202 42.26C73.9193 42.26 72.8013 41.922 71.848 41.246C70.912 40.57 70.1927 39.6167 69.69 38.386C69.1873 37.1553 68.936 35.7253 68.936 34.096C68.9187 32.3453 69.1093 30.9153 69.508 29.806C69.924 28.6967 70.4527 27.8387 71.094 27.232C71.7527 26.6253 72.4373 26.2093 73.148 25.984C73.876 25.7413 74.5347 25.62 75.124 25.62C76.0947 25.6373 77.022 25.8973 77.906 26.4C78.79 26.8853 79.4573 27.5353 79.908 28.35L78.634 29.364L78.426 29.546L78.322 29.39C78.3393 29.2513 78.3133 29.13 78.244 29.026C78.192 28.9047 78.0707 28.7313 77.88 28.506C77.4813 28.0553 77.0653 27.7347 76.632 27.544C76.216 27.336 75.7047 27.232 75.098 27.232C74.318 27.232 73.59 27.4313 72.914 27.83C72.2553 28.2113 71.7267 28.87 71.328 29.806C70.9293 30.742 70.73 32.042 70.73 33.706C70.73 35.9593 71.1287 37.684 71.926 38.88C72.7407 40.0587 73.8327 40.648 75.202 40.648C75.67 40.648 76.19 40.57 76.762 40.414C77.3513 40.258 77.854 40.0067 78.27 39.66V35.812H75.332V34.226H79.96V40.57C78.4173 41.6967 76.8313 42.26 75.202 42.26ZM87.5 42.208C86.4253 42.208 85.472 41.948 84.64 41.428C83.8253 40.8907 83.184 40.1627 82.716 39.244C82.248 38.308 82.014 37.242 82.014 36.046C82.014 34.8327 82.248 33.7667 82.716 32.848C83.184 31.912 83.8253 31.184 84.64 30.664C85.472 30.1267 86.4253 29.858 87.5 29.858C88.5747 29.858 89.5193 30.1267 90.334 30.664C91.166 31.184 91.816 31.912 92.284 32.848C92.752 33.7667 92.986 34.8327 92.986 36.046C92.986 37.242 92.752 38.308 92.284 39.244C91.816 40.1627 91.166 40.8907 90.334 41.428C89.5193 41.948 88.5747 42.208 87.5 42.208ZM87.5 40.648C88.1933 40.648 88.8 40.4487 89.32 40.05C89.84 39.6513 90.2473 39.1053 90.542 38.412C90.854 37.7187 91.01 36.9213 91.01 36.02C91.01 34.668 90.6807 33.5673 90.022 32.718C89.3633 31.8513 88.5227 31.418 87.5 31.418C86.4773 31.418 85.6367 31.8513 84.978 32.718C84.3193 33.5673 83.99 34.668 83.99 36.02C83.99 36.9213 84.1373 37.7187 84.432 38.412C84.744 39.1053 85.16 39.6513 85.68 40.05C86.2173 40.4487 86.824 40.648 87.5 40.648ZM113.084 42.26C112.287 42.26 111.507 42.0347 110.744 41.584C109.999 41.116 109.383 40.414 108.898 39.478C108.413 38.542 108.17 37.3633 108.17 35.942C108.17 34.486 108.421 33.3073 108.924 32.406C109.427 31.5047 110.059 30.846 110.822 30.43C111.602 30.014 112.391 29.806 113.188 29.806C114.003 29.806 114.705 29.9967 115.294 30.378C115.901 30.742 116.351 31.236 116.646 31.86V24.71H118.622V24.892C118.518 24.996 118.449 25.1087 118.414 25.23C118.397 25.3513 118.388 25.5593 118.388 25.854L118.414 40.154C118.414 40.466 118.423 40.778 118.44 41.09C118.475 41.3847 118.553 41.688 118.674 42H116.828C116.707 41.688 116.629 41.3847 116.594 41.09C116.577 40.778 116.568 40.466 116.568 40.154C116.187 40.7953 115.701 41.3067 115.112 41.688C114.523 42.0693 113.847 42.26 113.084 42.26ZM113.37 40.622C114.133 40.622 114.739 40.414 115.19 39.998C115.658 39.582 115.987 39.0273 116.178 38.334C116.386 37.6233 116.49 36.8433 116.49 35.994C116.49 34.6593 116.23 33.55 115.71 32.666C115.19 31.782 114.358 31.34 113.214 31.34C112.157 31.34 111.351 31.73 110.796 32.51C110.259 33.29 109.99 34.3387 109.99 35.656C109.99 37.1467 110.276 38.3513 110.848 39.27C111.42 40.1713 112.261 40.622 113.37 40.622ZM126.5 42.208C125.425 42.208 124.472 41.948 123.64 41.428C122.825 40.8907 122.184 40.1627 121.716 39.244C121.248 38.308 121.014 37.242 121.014 36.046C121.014 34.8327 121.248 33.7667 121.716 32.848C122.184 31.912 122.825 31.184 123.64 30.664C124.472 30.1267 125.425 29.858 126.5 29.858C127.575 29.858 128.519 30.1267 129.334 30.664C130.166 31.184 130.816 31.912 131.284 32.848C131.752 33.7667 131.986 34.8327 131.986 36.046C131.986 37.242 131.752 38.308 131.284 39.244C130.816 40.1627 130.166 40.8907 129.334 41.428C128.519 41.948 127.575 42.208 126.5 42.208ZM126.5 40.648C127.193 40.648 127.8 40.4487 128.32 40.05C128.84 39.6513 129.247 39.1053 129.542 38.412C129.854 37.7187 130.01 36.9213 130.01 36.02C130.01 34.668 129.681 33.5673 129.022 32.718C128.363 31.8513 127.523 31.418 126.5 31.418C125.477 31.418 124.637 31.8513 123.978 32.718C123.319 33.5673 122.99 34.668 122.99 36.02C122.99 36.9213 123.137 37.7187 123.432 38.412C123.744 39.1053 124.16 39.6513 124.68 40.05C125.217 40.4487 125.824 40.648 126.5 40.648ZM135.808 42.026L133.416 30.118H135.054L136.978 39.66L139.006 31.236H140.15L142.672 39.634C142.897 38.0913 143.079 36.826 143.218 35.838C143.374 34.85 143.487 34.044 143.556 33.42C143.643 32.7787 143.695 32.2413 143.712 31.808C143.747 31.3747 143.764 30.9413 143.764 30.508V30.118H145.506C144.986 34.1393 144.327 38.1087 143.53 42.026H141.762L139.578 34.33L137.498 42.026H135.808ZM147.872 42V30.118H149.692V32.224C150.143 31.496 150.723 30.9153 151.434 30.482C152.162 30.0487 152.925 29.832 153.722 29.832C154.693 29.832 155.516 30.2133 156.192 30.976C156.868 31.7213 157.206 32.9953 157.206 34.798V42H155.386V34.85C155.386 33.602 155.169 32.7267 154.736 32.224C154.32 31.7213 153.809 31.47 153.202 31.47C152.682 31.47 152.145 31.626 151.59 31.938C151.053 32.2327 150.602 32.6573 150.238 33.212C149.874 33.7493 149.692 34.3993 149.692 35.162V42H147.872Z" fill="#FFE5A7"/>
</svg>
