<svg width="233" height="305" fill="none" overflow="visible" version="1.1" viewBox="0 0 233 305" xmlns="http://www.w3.org/2000/svg">
 <defs>
  <clipPath id="a">
   <rect transform="skewY(-.0049)" x="-29" y=".021" width="238" height="305" fill="none" stroke="#f4bc4f" stroke-linecap="square" stroke-width=".4" style="paint-order:markers stroke fill"/>
  </clipPath>
 </defs>
 <g transform="translate(25 -.0096)" clip-path="url(#a)">
  <path d="m62 43s-3.4 7.5-6.7 7.7c0 0 4.2 4 7 2.3 0 0-5.9 8.8-7 15 0 0 4.5-6.6 8.4-7.5s11-13 9.2-13c-1.5-0.2-8.7-9.8-8.7-9.8z" fill="#8c7567"/>
  <path d="m35 135s4.2 8.2 15 13l1-9.5-14-4.7z" fill="#5a776d"/>
  <path d="m54 140c-3 3.9-9.4 12-17 22-9.3 12-20 25-26 31-1.1 2.6-2.4 4.3-3.9 3.7-0.1 0-0.1-0.1-0.2-0.1-0.5 0.3-0.9 0.5-1.2 0.4-1.2-0.5-1.5-2.6-1.5-5.2-2.9-7.1-6.8-21-10-34-4.4-16-8-32-8.2-34 0 0-5-3.9-6.7-9.1-1.1-2.7-3-7.2-3.8-9.9-1.2-4.1 9.7-15 9.7-15-0.9-5.1-5.7-33-5.7-33 3.7 3.1 3.7 4.4 3.7 4.4l9 29c1-6.4-4-33-4-33 2.5 2 3.9 5.1 3.9 5.1 1.2 9.9 8 38 9.2 42 3.1-1.4 5.8-10 5.8-10 4.7-8.1 10-3.6 10-3.6-0.6 2.9-5.5 5.7-5.5 5.7-2.6 1.9-4.3 12-4.3 12-1.1 11-7.8 15-11 16 0.2 8.6 5.2 22 5.2 22 5.7 8.9 9.1 19 11 25 9.7-14 25-36 25-36s24-5.1 16 5.9z" fill="#fcd8cd"/>
  <path d="m38 162c-9.3 12-20 25-26 31-1.1 2.6-2.4 4.3-3.9 3.7-0.1 0-0.1-0.1-0.2-0.1-0.5 0.3-0.9 0.5-1.2 0.4-1.2-0.5-1.5-2.6-1.5-5.2-2.9-7.1-6.8-21-10-34 7 18 14 32 14 32 3.8-1.5 28-28 29-29z" fill="#f2c1b8"/>
  <path d="m145 127s2.7-22 5.8-26c-0.1 0 3.8 12-5.8 26z" fill="#5a776d"/>
  <path d="m201 136s-52-9.1-58-12 4.4-17 4.4-17 1.4 0.2 3.8 0.7c7.2 1.5 23 5.4 34 13 0 0-5.9-30-7.5-80 0 0 8.6-5.1 9.1 1.7 0 0 3.7 27 7.2 52 2.9 20 5.6 40 6.1 42z" fill="#fcd8cd"/>
  <path d="m201 136s-52-9.1-58-12 4.4-17 4.4-17 1.4 0.2 3.8 0.7c-1 2.4-3.1 7.7-3.9 13 14 3.8 41 11 47 9.7 0 0 0.3-19 0.2-37 2.9 20 5.6 40 6.1 42z" fill="#f2c1b8"/>
  <path d="m90 526c-1.4 2-9.5-1.4-15-4.1-3.4-1.6-6.1-3-6.1-3 8-7.3 8.1-26 7.5-37v-0.5h3.9c2.3 0 4.9 0.1 6.8 0.3 1.8 0.2 2.9 0.5 2.3 1.1-0.8 0.7-1.5 1.8-2 2.8 0.5 5.8 1.2 12 1.3 14 0.4 9.4-0.6 14-0.6 14-0.4 5.3 2.3 13 2.3 13z" fill="#5c5db1"/>
  <path d="m80 514c-0.9 3.5-2.9 5.8-5.1 7.3-3.4-1.6-6.1-3-6.1-3 8-7.3 8.1-26 7.5-37v-0.5h3.9c0.4 6 1.8 26-0.2 34z" fill="#46479f"/>
  <path d="m93 535c-5 7.3-52 2.8-52 2.8l-0.3-10c3-1.1 5.7-1.7 8.2-2.4 9.3-2.3 16-4.1 25-23 0 0 13-2.3 16-0.9 0 0-1.3 11 1.7 15 0 0 1.7 4.6 2.1 9.5 0.2 3.2-0.1 6.5-1.6 8.7z" fill="#f4bc4f"/>
  <path d="m93 535c-5 7.3-52 2.8-52 2.8l-0.3-10c3-1.1 5.7-1.7 8.2-2.4-0.3 3-0.3 6.1 0.7 7.2 2 2.1 33 2.5 44-5.9 0.3 3.2 0 6.5-1.5 8.7z" fill="#e7aa35"/>
  <path d="m87 481c-1.3-0.2-3.1-0.2-4.8-0.3h-5.9c-0.3-4.7-0.8-7.9-0.8-7.9s3.5-2.3 6.7-3.7c3-1.4 5.8-2 5 0.7-0.6 2.2-0.5 6.5-0.2 11z" fill="#fcd8cd"/>
  <path d="m82 480h-5.9c-0.3-4.7-0.8-7.9-0.8-7.9s3.5-2.3 6.7-3.7c-0.1 2.8-0.4 8.4 0 12z" fill="#f2c1b8"/>
  <path d="m115 65s-0.3 14-17 19c-17 4.9-30 3.9-34-19-1-5.1-3.1-24 0.5-25 13-4.9 51 25 51 25z" fill="#726056"/>
  <path d="m62 53s0.3 16-1.7 18c0 0 3-4 3.9-8.3 0 0 0.9 8.9-0.3 12 0 0 4-8 4.2-13 0.2-4.9-6.1-8.7-6.1-8.7z" fill="#8c7567"/>
  <path d="m67 71c-0.2 0-0.5 0.1-0.8 0.1-10 0.4-7.4-22-5.6-22 0.3 0 0.7 0.2 1.1 0.3 1.9 0.8 4.6 2.7 4.5 3 0.1-0.1 9.5 17 0.8 19z" fill="#f2c1b8"/>
  <path d="m67 71c-0.2 0-0.5 0.1-0.8 0.1-10 0.4-7.4-22-5.6-22 0.3 0 0.7 0.2 1.1 0.3-2.7 6.3-2.2 20 5.3 22z" fill="#d1a19d"/>
  <path d="m67 59c-0.3-0.8-0.8-1.6-1.6-2.3-1.3-1.5-3-3.1-4.4-2.3-1.4 0.7 0.4 2 2.4 3-1.2 0.7-2.3 2.1-1 4.7 1.8 3.9 5.6 0.3 4.6-3.1z" fill="#cf9f9b"/>
  <path d="m68 36-2.2 8.7s-0.1 0.3-0.2 0.8c-3.2 0.2-7.1-1.1-7.1-1.1v-0.9c0.2-1.5 1.2-4.4 5.2-6.3 1.2-0.6 2.7-1 4.3-1.2z" fill="#f4bc4f"/>
  <path d="m63 46s1.7-8.4 5.3-9-1.9 15-3.1 15c-1.1 0-2.2-6-2.2-6z" fill="#8c7567"/>
  <path d="m93 107c-0.2 0-0.5 0-0.9 0.1-2.7 0.8-8.6 4.2-11 2.4-2.8-2.1-8.2-10-8.2-10 1.2-0.1 3.6-0.7 5.7-1.6l-0.4-8.6-0.2-5.7c0.5 0.4 0.9 0.8 1.4 1.2 2.1 1.7 4.5 3.2 7.2 4.6 0 0 3-0.4 7.6-2.7l0.8 4.2 2.2 5.7c2.2 0.1 5.2 0.1 6.8-0.2 2.8-0.5-8.9 11-11 11z" fill="#fcd8cd"/>
  <path d="m92 107c-2.7 0.8-8.6 4.2-11 2.4-2.8-2.1-8.2-10-8.2-10 1.2-0.1 3.6-0.7 5.7-1.6l-0.4-8.6-0.2-5.7c0.5 0.4 0.9 0.8 1.4 1.2 0.1 3.6 0.3 12 0.8 16 0.5 3.4 6.5 7.2 12 7.2z" fill="#f2c1b8"/>
  <path d="m96 106c-0.6 0.3-1.3 0.5-2 0.6 2.4-0.9 3.5-1.3 2-0.6z" fill="#fcd8cd"/>
  <path d="m94 86 0.8 4.2c-4.5 2.1-8.9 3.5-8.9 3.5-3-1.5-5.6-3.2-7.9-5.1l-0.2-5.7c2.4 2.1 5.3 4.1 8.7 5.8-0.1 0 2.8-0.4 7.5-2.7z" fill="#f2c1b8"/>
  <path d="m150 101c-0.4 0.4-0.7 1.1-1 1.9-0.6 1.4-1.1 3.3-1.6 5.5-0.6 2.4-1.1 5.1-1.5 7.7-0.3 1.9-0.6 3.8-0.9 5.4-0.5 3.1-0.7 5.3-0.7 5.3-1.1-1.7-6.5-3.3-11-4.3-2.7-0.6-4.8-1-4.8-1-0.2 0.5-0.3 1-0.5 1.5-0.8 2.6-1.4 5.2-2 7.8-0.4 1.8-0.7 3.6-1 5.4-0.4 2.6-0.7 5.2-1 7.7-0.2 1.9-0.3 3.7-0.4 5.4-0.2 2.8-0.2 5.4-0.3 7.6v5.3c0.1 2.1 0.2 3.3 0.2 3.3-0.3 1-1.2 2.7-2.2 4.4-1.5 2.5-3.3 5.1-3.7 5.7l-0.1 0.1c-0.8 0.3-4.4 0.5-9.4 0.7-16 0.5-48 0.4-48 0.4 0-0.4-0.2-0.9-0.5-1.5-0.8-2-2.5-4.9-3.9-7.2-1.2-1.9-2.1-3.3-2.1-3.3 0.1-0.4 0.2-1.1 0.2-1.8 0.1-1.9 0.2-4.6 0.2-7.6 0-1.8 0-3.6-0.1-5.3 0-2-0.1-3.8-0.1-5.4v-0.1c-2.2 2.2-4 3.5-4 3.5-0.4-1.9-1.2-3.5-2.2-4.9-1.5-2.1-3.6-3.7-5.6-4.9-3.7-2.2-7.2-3-7.2-3l-0.4-3.9-0.4-3.7 2.6-1.2c0.2 0 0.5-0.3 0.9-0.8 1.2-1.4 3.2-4.5 5.4-8.1 1.1-1.8 2.2-3.7 3.3-5.6 1.7-2.9 3.3-5.8 4.5-8 1.4-2.6 2.4-4.3 2.4-4.3l6.2-0.8c0.2-0.4 0.1-0.9 0.4-1h0.1c0.5 0.1 0.9 0.6 1 0.8l4-0.5c0.1-0.2 0.2-0.5 0.4-0.8s0.3-0.5 0.5-0.5 0.6 0.1 1 0.4c0.3 0.2 0.6 0.4 0.7 0.5l1.6-0.2s2.1-0.2 5.2-0.6c0.2 0.3 0.4 0.6 0.7 0.9h-1.9s0.7 1.9 2.3 3.9c1.9 2.4 5 4.9 9.4 4.7 5.5-0.3 9.3-4 11-6.5 0.9-1.1 1.4-2 1.4-2.1 0.9-1.1 1.7-2.3 2.6-3.6 0.1-0.1 0.1-0.2 0.2-0.3 1.5-0.2 2.9-0.4 4.1-0.5 0.4-0.5 0.9-1.2 1.2-1s0.6 0.5 0.8 0.7c0.8-0.1 1.3-0.2 1.5-0.3s0.5-0.1 0.8-0.2h0.1c0.4-0.1 1-0.2 1.6-0.2 0 0 0.6-1.2 1-1.2 0.2 0 1.8 0.4 2.8 0.8 4.6-0.4 10-0.7 11-0.6 0.4 0 0.9 0.3 1.4 0.6 1.3 0.9 2.6 2.5 2.6 2.5 4.1-1.7 4.5 1 4.5 1 1.9-0.9 2.9 0.1 3.3 1 0.3 0.5 0.3 0.9 0.3 0.9 3.1 0.3 6.5 4.2 6.5 4.2 2.8-3 6.2-0.7 6.2-0.7z" fill="#f4bc4f"/>
  <path d="m73 98s0.7 1.9 2.3 3.9l-25 2.1c1.4-2.6 2.4-4.3 2.4-4.3l6.2-0.8c0.2-0.4 0.1-0.9 0.4-1h0.1l5.4-0.5 1.5-0.1c0.3 0.2 0.6 0.4 0.7 0.5l1.6-0.2s2.1-0.2 5.2-0.6c0.2 0.3 0.4 0.6 0.7 0.9z" fill="#d16978"/>
  <path d="m137 97-41 3.5c0.9-1.1 1.4-2 1.4-2.1 0.9-1.1 1.7-2.3 2.6-3.6l26-2.3c1.3 0.9 2.6 2.5 2.6 2.5 4.1-1.7 4.5 1 4.5 1 1.9-0.9 2.9 0.1 3.3 1z" fill="#d16978"/>
  <path d="m149 103c-0.6 1.4-1.1 3.3-1.6 5.5l-104 9.1c1.1-1.8 2.2-3.7 3.3-5.6z" fill="#d16978"/>
  <path d="m146 116c-0.3 1.9-0.6 3.8-0.9 5.4l-11 1c-2.7-0.6-4.8-1-4.8-1-0.2 0.5-0.3 1-0.5 1.5l-94 8.1-0.4-3.7 2.6-1.2c0.2 0 0.5-0.3 0.9-0.8z" fill="#d16978"/>
  <path d="m127 131c-0.4 1.8-0.7 3.6-1 5.4l-78 6.7c-1.5-2.1-3.6-3.7-5.6-4.9z" fill="#d16978"/>
  <path d="m124 149-70 6.1c0-1.8 0-3.6-0.1-5.3l70-6.1c-0.1 1.8-0.2 3.6-0.3 5.3z" fill="#d16978"/>
  <path d="m124 162-68 5.9c-1.2-1.9-2.1-3.3-2.1-3.3 0.1-0.4 0.2-1.1 0.2-1.8l70-6.1c-0.1 2.1-0.1 3.9 0 5.3z" fill="#d16978"/>
  <path d="m122 170c-1.5 2.5-3.3 5.1-3.7 5.7l-9.5 0.8c-16 0.5-48 0.4-48 0.4 0-0.4-0.2-0.9-0.5-1.5z" fill="#d16978"/>
  <g fill="#3e574f" opacity=".6">
   <path d="m83 178c0-1.3-3.2-8.3-1.2-10 1.9-2.2 1.2 9.2 1.2 9.2z" opacity=".6"/>
   <path d="m84 178s2.1-17 8.1-18 0 8.5-8.1 18z" opacity=".6"/>
   <path d="m54 165c0.6-2.9 0.4-14 0.2-20 0 1.4 0.6 16 1.9 20 0 0 0.8-6.8 1.4-4.4 0.6 2.5-1.2 5.4-0.7 6.6s3.5 4.4 3.7 10c-0.2-2.5-6.5-12-6.5-12z" opacity=".6"/>
   <path d="m69 100c-0.5 0.2-2 0-2-1s-5.4 0.1-6 0.5c-0.7 0.3 0 1.1-0.7 1-0.8-0.1-0.5-0.5-1.3-0.7-0.8-0.1-4.7 0.2-4.9 0.6s-12 23-11 28 13 14 12 16c-2.2 2.2-4 3.5-4 3.5-1.8-9.6-15-13-15-13l-0.9-7.6 2.6-1.2c2.2-0.5 16-27 16-27l6.2-0.8c0.2-0.4 0.1-1.1 0.5-1 0.5 0.1 0.9 0.6 1 0.8l4-0.5c0.1-0.3 0.5-1.2 0.9-1.3 0.3-0.1 1.3 0.5 1.7 0.9l1.6-0.2s2.1-0.2 5.2-0.6c0.2 0.3 0.5 0.7 0.8 1.1-2.6 0.1-7.2 0.4-7.3 0.7-0.3 0.5 1.2 1.1 0.7 1.2z" opacity=".6"/>
   <path d="m54 145s4.7-9.7 4.5-14c0 0-1.6 1.5-2.2 3.4-0.6 1.8-2.3 11-2.3 11z" opacity=".6"/>
   <path d="m56 139s-1-2-1-5.3 1.9 2.8 1 5.3z" opacity=".6"/>
   <path d="m68 174c-1.4 0.1-2.6 0.2-3.8 0.3-0.3-0.4-0.5-0.8-0.8-1.5-0.7-1.5 0.2-3 0.4-3.5s-0.2-4.8-0.2-6.5-1.8-39-1.9-42c-0.1-3.2-1.2-22-1.2-22l1.8 0.2 5.2 41z" opacity=".6"/>
   <path d="m98 98c-0.1 0.2-4.6 8.2-13 8.6s-12-8.6-12-8.6h1.9c0 0.1 0.1 0.1 0.1 0.2 3.5 4.7 12 13 22-0.2z" opacity=".6"/>
   <path d="m129 122s1.6-5.4 2.9-8.4c1.2-3.1 1.4 3.2-2.9 8.4z" opacity=".6"/>
   <path d="m111 173c-1.4-0.1-2.8-0.1-4.2-0.2-0.4-1.7 0.6-4.5 1-5.1 0.5-0.7-1.5-75-1.5-75 0.3 0.2 0.6 0.5 0.8 0.7 0.8-0.1 1.3-0.2 1.5-0.3s0.5-0.1 0.8-0.2l2.5 56z" opacity=".6"/>
  </g>
  <path d="m175 362s-29 3.2-36 3.6h-1.2c-2.6-0.1-3.9-10-3.3-19s-1.6-74-4.6-82-25-25-32-26c-0.4-0.1-0.8-0.3-1.3-0.7s-1.1-0.9-1.7-1.5c-8.2 17-6.1 79-7 87s13 135 8.6 137c-2.7 1.9-15 1.4-23 0.8-3.5-0.3-6.1-0.5-6.5-0.5-1.3-0.1-18-166-18-166 0.3-13 6.3-71 9.3-100 1-9.4 1.7-16 1.7-16-0.7-2.1-1.5-4.2-2-5-1.1-1.7 54-4.8 64-0.8 0 0-2.8 4.2-2.6 7v0.3c0.1 0.8 1.1 2.6 2.3 4.9 3.2 5.9 8.5 15 8.7 16 0.1 0.5-0.3 1.5-0.9 2.4-0.8 1.4-1.8 2.8-1.8 2.8s23 25 28 36c0 0.1 19 80 19 118z" fill="#d16978"/>
  <path d="m139 365h-1.2c-2.6-0.1-3.9-10-3.3-19s-1.6-74-4.6-82-25-25-32-26c-0.4-0.1-0.8-0.3-1.3-0.7s-1.1-0.9-1.7-1.5c0 0 30 9.8 35 23 4.7 12 14 82 9.2 107z" fill="#c55465"/>
  <path d="m64 378c5 42 8.1 68 9.9 83-3.5-0.3-6.1-0.5-6.5-0.5-1.3-0.1-18-166-18-166 0.3-13 6.3-71 9.3-100 1-9.4 1.7-16 1.7-16-0.7-2.1-1.5-4.2-2-5-1.1-1.7 54-4.8 64-0.8 0 0-2.8 4.2-2.6 7v0.3c0.1 0.8 1.1 2.6 2.3 4.9-13-0.8-33-1.7-51-1.4-3.9 26-16 116-6.9 193z" fill="#c55465"/>
  <path d="m96 73-1.9 16c-4.5 2.5-7.5 3-7.5 3-3.5-1.6-6.4-3.4-8.9-5.4l-0.4-4.6z" fill="#f2c1b8"/>
  <path d="m173 371s-1.3 4.5-17 9c-1.1 0.3-2.2 0.6-3.5 0.9-19 4.8-18-4.9-18-4.9 6.5-3.5 12-5.8 16-7.3 18-5.8 22 2.3 22 2.3z" fill="#c55465"/>
  <path d="m156 380c-1.1 0.3-2.2 0.6-3.5 0.9-19 4.8-18-4.9-18-4.9 6.5-3.5 12-5.8 16-7.3l2.4 5.7s2 3.6 2.4 5.6z" fill="#c55465"/>
  <path d="m106 79c-4.6 4.6-8.9 7.5-12 9.3-4.5 2.5-7.5 3-7.5 3-3.5-1.6-6.4-3.4-8.9-5.4-11-8.7-13-21-13-30 0.1-6.4 1.4-11 1.4-11l3.5-14 16-13 15-1.2 15 21s0.4 6.9-0.3 15c-0.9 9-3.1 20-8.7 25z" fill="#fcd8cd"/>
  <path d="m86 91c-3.5-1.6-6.4-3.4-8.9-5.4-11-8.7-13-21-13-30 0.1-6.4 1.4-11 1.4-11l3.5-14 3.6-2.9c-2.2 7.3-3.9 14-4.8 20-0.7 4.5-0.9 8.7-0.7 13 0 0.7 0.1 1.4 0.2 2.1 0 0.3 0.1 0.7 0.1 1 1.4 11 6.8 20 18 27z" fill="#f2c1b8"/>
  <path d="m118 45s2.3 7 8 8.5c0 0-1.8 0.7-4.3 0.2 0 0-1.4 2.5 0.9 4.9 0 0-3.2-0.6-3.9-3 0 0 5.3 9 4.4 13 0 0-2.3-3.2-5.8-5.8 0 0-2.5 9.7-5.1 12 0 0 0.6-8.4 0.1-12s-1.6-17-0.5-20c1-2.7 6.2 1.8 6.2 1.8z" fill="#8c7567"/>
  <path d="m116 45s-3.5 1.1-10-1.5c-0.6-0.2-1.2-0.5-1.7-0.7-6-2.7-12-7.1-28-7.9-5.5-0.3-9.3 0.4-12 1.4-5.8 2.3-6.2 6.6-6.7 7.9 0 0-2.7-2.9-0.6-10s8.2-13 15-17c3.5-1.7 6.7-3 9.7-3.8 0.6-0.2 1.1-0.3 1.7-0.4 0.8-0.2 1.5-0.3 2.3-0.4 1.7-0.2 3.3-0.2 5 0 5.9 0.7 14 3.4 21 7.2 0 0 7.1 6 7.7 16-0.1 0.1 3 11-3.1 9.5z" fill="#d16978"/>
  <path d="m84 12c-12 9.5-17 18-19 24-5.8 2.3-6.2 6.6-6.7 7.9 0 0-2.7-2.9-0.6-10s8.2-13 15-17c3.5-1.7 6.7-3 9.7-3.8 0.6-0.1 1.2-0.2 1.7-0.4z" fill="#c55465"/>
  <path d="m82 14s-0.2-2.5 2-2.6c2.2-0.2 4 1.6 3 2.2-0.9 0.6-3.2 1.2-5 0.4z" fill="#f4bc4f"/>
  <path d="m66 41s28 3.4 30-0.3c0 0-24-6.1-26-5.2-2.9 0.9-3.7 5.5-3.7 5.5z" fill="#8c7567"/>
  <path d="m116 70c0.8-2.4 1.1-7.8 1.2-13 0.8-0.5 1.4-1.6 1.5-3 0.1-1.1-0.6-1-1.5-0.3v-5c0.7-0.4 1.4-0.6 1.9-0.7 1.6-0.2 3.9 18-3.1 22z" fill="#f2c1b8"/>
  <path d="m117 58c-0.1 4.8-0.4 10-1.2 13-0.3 0.1-0.6 0.2-1 0.3 0.9-3.6 1.1-8.3 1.1-12 0-1 0-1.9-0.1-2.8-0.1-2-0.2-3.7-0.3-5.1 0.5-0.3 1-0.6 1.5-0.8v5c0.9-0.6 1.6-0.8 1.5 0.3-0.2 1.4-0.7 2.5-1.5 3z" fill="#d1a19d"/>
  <path d="m86 54s-1.3 13-3.1 16c-0.2 0.4-0.1 0.8 0.3 1 1 0.5 2.9 0.9 4.6-0.4 0 0.1-0.6-10-1.8-17z" fill="#f2c1b8"/>
  <path d="m86 59s-0.6 7.7-1.3 8.5 0.7 1.2 0.9-0.1c0.1-1.3 0.4-8.4 0.4-8.4z" fill="#fbddda"/>
  <path d="m75 55c0.94 0 1.7-0.76 1.7-1.7s-0.76-1.7-1.7-1.7-1.7 0.76-1.7 1.7 0.76 1.7 1.7 1.7z" fill="#3a322e"/>
  <path d="m97 55c0.94 0 1.7-0.76 1.7-1.7s-0.76-1.7-1.7-1.7-1.7 0.76-1.7 1.7 0.76 1.7 1.7 1.7z" fill="#3a322e"/>
  <path d="m99 64c-0.8 0-1.5-0.1-2.3-0.2-5.4-1.1-8.6-5.5-7.6-10 0.4-2 1.7-3.7 3.6-4.9 2.6-1.6 6.1-2.1 9.2-1.2 2.3 0.6 4.1 1.9 5.1 3.5 1.1 1.8 1.4 3.9 0.9 6.5-0.5 2.5-1.9 4.5-4.1 5.7-1.5 0.7-3.1 1.1-4.8 1.1zm-0.2-16c-2 0-4 0.5-5.6 1.5-1.2 0.7-2.7 2-3.1 4.2-0.9 4.4 2 8.3 6.8 9.3s9-1.5 9.9-5.8c0.9-4.5-0.9-7.6-5.2-8.8-0.9-0.3-1.9-0.4-2.8-0.4z" fill="#3a322e"/>
  <path d="m89 53c-1.2 0-2.1-0.6-2.6-1.3-1.4 1-3.5 0.8-3.6 0.8l0.1-1s2.2 0.2 3.2-0.9c0.1-0.1 0.3-0.2 0.4-0.2 0.2 0 0.3 0.1 0.4 0.3 0 0.1 1 1.7 3 1.1l0.3 1c-0.5 0.2-0.9 0.2-1.2 0.2z" fill="#3a322e"/>
  <path d="m107 52-0.4-0.9c0.1 0 2.6-1 8.6-1.1v1c-5.7 0.1-8.1 1-8.2 1z" fill="#3a322e"/>
  <path d="m115 48s0.8 7.9 2.1 10c0 0-3.5-1-4.1-5.2s2-4.8 2-4.8z" fill="#8c7567"/>
  <path d="m66 51c-0.5-0.1-1.3-0.3-1.6-0.5l0.6-0.8c0.1 0.1 0.7 0.2 1.2 0.3z" fill="#3a322e"/>
  <path d="m65 39c-1.1 3.8-3.2 11-4.6 12 0 0 3-2 4.1-3.5 0 0 0.1 1.5-1.6 5.2 0 0 8.2-14 9.1-17h-0.1c-2.7-1.3-6 0.2-6.9 3.2z" fill="#8c7567"/>
  <path d="m105 43c-0.1 0-1.6 0.4-4.5 0.1-2.7-0.2-6.6-0.9-12-2.9-5.2-2-10-3.1-14-3.5-4.2-0.4-7.8 0.1-10 1.3-4 1.9-5 4.8-5.2 6.3-0.1 0.4-0.1 0.7 0 0.9 0 0.4-1.2 0.7-0.8-0.8 0.6-2 1.2-10 19-9.4 16 0.9 22 5.3 28 8z" fill="#c55465"/>
  <g opacity=".21">
   <path d="m107 57c-1 4.9-5.6 7.2-11 6.2-4.9-1-8.2-5-7.2-9.9s7.3-7.1 12-5.7c4.4 1.2 6.6 4.5 5.6 9.4z" fill="#fff" opacity=".21"/>
   <path d="m99 64c-0.8 0-1.5-0.1-2.3-0.2-5.4-1.1-8.6-5.5-7.6-10 0.4-2 1.7-3.7 3.6-4.9 2.6-1.6 6.1-2.1 9.2-1.2 2.3 0.6 4.1 1.9 5.1 3.5 1.1 1.8 1.4 3.9 0.9 6.5-0.5 2.5-1.9 4.5-4.1 5.7-1.5 0.7-3.1 1.1-4.8 1.1zm-0.2-16c-2 0-4 0.5-5.6 1.5-1.2 0.7-2.7 2-3.1 4.2-0.9 4.4 2 8.3 6.8 9.3s9-1.5 9.9-5.8c0.9-4.5-0.9-7.6-5.2-8.8-0.9-0.3-1.9-0.4-2.8-0.4z" fill="#3a322e" opacity=".21"/>
  </g>
  <path d="m83 77 15-3.5-6.3 4.4z" fill="#fff"/>
  <path d="m79 46c-0.1 0-0.3 0-0.4-0.1-5.7-2.3-9.5-0.2-9.5-0.2-0.5 0.3-1.1 0.1-1.4-0.4s-0.1-1.1 0.4-1.4c0.2-0.1 4.7-2.6 11 0.1 0.5 0.2 0.8 0.8 0.6 1.3-0.2 0.4-0.6 0.7-1 0.7z" fill="#3a322e"/>
  <path d="m103 46c-0.1 0-0.3 0-0.4-0.1-5.7-2.3-9.4-0.3-9.5-0.2-0.5 0.3-1.1 0.1-1.4-0.4s-0.1-1.1 0.4-1.4c0.2-0.1 4.7-2.6 11 0.1 0.5 0.2 0.8 0.8 0.6 1.3s-0.6 0.7-1 0.7z" fill="#3a322e"/>
  <path d="m163 409c-3.9 1.7-9.3 2.2-13 0.5-3.1-1.3-5.3-3.8-5.4-8-0.1-9.5 0.6-30 0.6-31 2.4-1 4.6-1.8 6.7-2.4 3.1-0.9 5.8-1.4 8.1-1.6-3.3 26 3.3 42 3.3 42z" fill="#5c5db1"/>
  <path d="m150 409c-3.1-1.3-5.3-3.8-5.4-8-0.1-9.5 0.6-30 0.6-31 2.4-1 4.6-1.8 6.7-2.4-1.5 8.4-5.2 32-2 37 1 1.7 0.8 2.9 0.1 3.8z" fill="#46479f"/>
  <path d="m207 407c-4.4 12-12 25-30 28-2.9 0.4-3.4-1.7-15 2.4-10 3.6-19 0.5-20-6.2-0.2-1-0.2-2.1 0.1-3.3 0 0 2.5-7.6 15-9.2 0.6-0.1 1.1-0.1 1.8-0.2s1.4-0.1 2.1-0.1c16-0.3 15-10 25-17 0.5-0.3 0.9-0.6 1.4-0.9 7-4.2 15-4.6 19-3.3 2.3 2 2.9 5.3 1.1 10z" fill="#c55465"/>
  <path d="m184 399c-1.2 0.9-2.5 2-3.8 3.3-1.4 1.3-2.7 2.9-3.8 4.6-0.1 0.2-0.2 0.3-0.3 0.5-3.6 5.5-6.8 4.7-9.5 6.9-0.8 0.7-2.2 1.1-3.9 1.3-0.2 0-0.4 0.1-0.6 0.1-4 0.5-9.5 0.4-14 1.1-4.7 0.7-8.1 4.1-9.1 6.2-0.9-3-1.5-7.4-0.7-13 0 0 5.5-6.2 5.7-17 0 0 2.6-1.8 6.2-3.1 3.3-1.2 7.4-2 11-0.6-0.2 1.1-2.1 20 16 11 0.2-0.1 0.5-0.2 0.7-0.3 1.7-0.8 3.5-1.5 5.2-2.1-0.2 0.2-0.3 0.5-0.3 0.7-0.1-0.1 0 0.1 0.2 0.3z" fill="#f4bc4f"/>
  <path d="m184 399c-1.2 0.9-2.5 2-3.8 3.3-1.4 1.3-2.7 2.9-3.8 4.6-0.1 0.2-0.2 0.3-0.3 0.5-3.6 5.5-6.8 4.7-9.5 6.9-0.8 0.7-2.2 1.1-3.9 1.3-0.2 0-0.4 0.1-0.6 0.1-4 0.5-9.5 0.4-14 1.1-4.7 0.7-8.1 4.1-9.1 6.2-0.9-3-1.5-7.4-0.7-13 0 0 5.5-6.2 5.7-17 0 0 2.6-1.8 6.2-3.1-1.4 4.9-3.2 13-1.9 15 1.2 2.3 1.8 4.9 1.8 6.8 4.5 0.8 12 1.7 15 0.1 3.5-1.7 9.3-7.4 13-12 1.7-0.8 3.5-1.5 5.2-2.1-0.2 0.2-0.3 0.5-0.3 0.7 0-0.1 0.1 0.1 0.3 0.3z" fill="#e7aa35"/>
  <path d="m187 400c-0.1 0-0.1 0 0 0-0.6 0.3-1 0.7-1.5 1-9.8 6.9-8.9 17-25 17-0.7 0-1.5 0.1-2.1 0.1s-1.2 0.1-1.8 0.2c-13 1.6-15 9.2-15 9.2-0.2 1.2-0.2 2.3-0.1 3.3-0.1-0.5-1.8-5.8-2.2-7.2-0.1-0.3 0-0.8 0.3-1.4 1-2.1 4.4-5.4 9.1-6.2 4-0.6 9.5-0.5 14-1.1 0.2 0 0.4-0.1 0.6-0.1 1.7-0.3 3.1-0.7 3.9-1.3 2.7-2.2 6-1.4 9.5-6.9 0.1-0.2 0.2-0.3 0.3-0.5 1.1-1.7 2.5-3.2 3.8-4.6 1.3-1.3 2.6-2.4 3.8-3.3 0.1 0.1 0.1 0.2 0.2 0.3 0.9 0.9 2.4 1.5 2.4 1.5z" fill="#d16978"/>
  <path d="m206 397c-4.4-1.3-12-0.9-19 3.3 0 0-1.5-0.6-2.3-1.4-0.1-0.1-0.2-0.2-0.2-0.3-0.2-0.2-0.3-0.4-0.3-0.6s0.1-0.4 0.3-0.7c0.8-0.9 3.1-1.8 5.7-2.4 3.3-0.7 11-1.6 14-0.2 2.7 1.6 2.3 2.3 2.3 2.3z" fill="#d16978"/>
  <path d="m149 404c2.2 0 3.9-1.7 3.9-3.9s-1.7-3.9-3.9-3.9-3.9 1.7-3.9 3.9 1.7 3.9 3.9 3.9z" fill="#fff"/>
  <path d="m83 517c2.2 0 3.9-1.7 3.9-3.9s-1.7-3.9-3.9-3.9-3.9 1.7-3.9 3.9 1.7 3.9 3.9 3.9z" fill="#fff"/>
  <path d="m158 394c-0.1 0-0.2 0-0.3-0.1-0.2-0.2-0.2-0.5 0-0.7 0.5-0.5 2.1-1.6 4.2-0.3 0.2 0.1 0.3 0.5 0.2 0.7s-0.5 0.3-0.7 0.2c-1.8-1.1-2.9 0.1-2.9 0.1-0.2 0-0.3 0.1-0.5 0.1z" fill="#525375"/>
  <path d="m160 399c-0.2 0-0.4-0.1-0.5-0.3-0.1-0.3 0-0.6 0.3-0.7 0 0 0.1-0.1 0.2-0.1 0.7-0.5 2.7-1.7 4.9-0.5 0.2 0.1 0.3 0.4 0.2 0.7-0.1 0.2-0.4 0.3-0.7 0.2-1.7-0.9-3.2 0-3.9 0.4-0.2 0.1-0.3 0.2-0.4 0.2 0.1 0.1 0 0.1-0.1 0.1z" fill="#525375"/>
  <path d="m162 402c-0.1 0-0.3 0-0.4-0.1-0.2-0.2-0.2-0.5 0-0.7 0.1-0.1 1.4-1.4 4.5-1.1 0.3 0 0.5 0.3 0.4 0.6 0 0.3-0.3 0.5-0.6 0.4-2.5-0.3-3.6 0.8-3.7 0.8 0.1 0-0.1 0.1-0.2 0.1z" fill="#525375"/>
  <path d="m44 536c-0.2-0.8-0.4-1.4-0.4-1.4-0.5-0.8-13-2.4-18-1.4 0-2.9 1.4-9.8 16-7.7-0.1 0.1 6.2 5.3 2.4 10z" fill="#d16978"/>
  <path d="m93 541c-1.6-0.3-36 0.7-50 0-2 0.6-14 0.8-20-0.4 0 0-1.7-3 0.1-5.6 0.3-0.4 0.8-0.6 1.6-0.8 0.2 0 0.3-0.1 0.5-0.1 5.2-1 17 0.6 18 1.4 0 0 0.2 0.5 0.4 1.3 8.3 0 27 0 31-1 0 0 16-0.7 18-0.7 0 0 0.3 1.7 0.4 3.3 0.3 1.4 0.2 2.7-0.4 2.6z" fill="#d16978"/>
  <path d="m93 541c-1.6-0.3-36 0.7-50 0-2 0.6-14 0.8-20-0.4 0 0-1.7-3 0.1-5.6 0.3-0.4 0.8-0.6 1.6-0.8-0.5 1.6-1.1 3.7-0.6 4.1 0.8 0.8 28 1.6 32 1.4 3.5-0.1 27-0.8 37-1.3 0.1 1.4 0 2.7-0.6 2.6z" fill="#c55465"/>
  <path d="m76 507c-0.1 0-0.3-0.1-0.4-0.2-0.6-0.6-1.3-0.8-2.2-0.6-0.7 0.2-1.2 0.6-1.2 0.6-0.2 0.2-0.5 0.1-0.7-0.1s-0.1-0.5 0.1-0.7c0.9-0.7 3.1-1.6 4.8 0.1 0.2 0.2 0.2 0.5 0 0.7-0.1 0.2-0.3 0.2-0.4 0.2z" fill="#525375"/>
  <path d="m73 511c-0.1 0-0.2 0-0.2-0.1-2.4-1.1-2.9-0.3-2.9-0.3l-0.9-0.5c0-0.1 1-1.8 4.3-0.1 0.3 0.1 0.4 0.4 0.2 0.7-0.1 0.2-0.3 0.3-0.5 0.3z" fill="#525375"/>
  <path d="m71 516c-0.2 0-0.3-0.1-0.4-0.2-1.9-3-4.6-1.7-4.7-1.6-0.3 0.1-0.6 0-0.7-0.2-0.1-0.3 0-0.6 0.2-0.7 1.2-0.6 4.1-1 6 2 0.2 0.2 0.1 0.6-0.2 0.7 0-0.1-0.1 0-0.2 0z" fill="#525375"/>
  <path d="m197 25c0.9 4.7-0.4 10-4.8 15-0.6 0.6-1.1 1.1-1.6 1.5-0.8 0.6-1.5 1.1-2.3 1.4-2 0.9-3.7 0.8-4.9 0.3-1.8-0.7-2.8-2.1-2.8-2.1-1.4-0.4-18-2.7-13-15 0 0-6.6-13-16-16 0 0 8.7-8.9 11 1.5 0 0 4.5 2.4 7.3 5.1 0.6 0.6 1.1 1.2 1.5 1.7 1.5 2.4 9.8-1.7 16-2.3 2.4-0.2 4.5 0.1 5.9 1.4 1.7 1.9 3.1 4.5 3.6 7.5z" fill="#fcd8cd"/>
  <path d="m197 25c0.9 4.7-0.4 10-4.8 15-0.6 0.6-1.1 1.1-1.6 1.5-0.8 0.5-1.5 1-2.3 1.4-2 0.9-3.7 0.8-4.9 0.3-0.6-1.4 0.1-3.7 0.1-3.7-3.8 3-5.2-2.7-5.2-2.7-2.4-6.2 1.4-11 4.2-13-2.7 0.6-5.6 1-8 0.9-4.7-0.3-4.9-6.2-4.8-7.9 0.6 0.6 1.1 1.2 1.5 1.7 1.5 2.4 9.8-1.7 16-2.3 1.3 0.7 2 1.6 2.3 2.3 2.4 0.7 5.4 3.4 7.4 6.5z" fill="#f2c1b8"/>
  <path d="m189 40c-4.2 1.3-2.4-4.5-2.4-4.5-3.8 3-5.2-2.7-5.2-2.7-2.4-6.2 1.4-11 4.2-13 0.1 0 4.2-1 7.1-5.2 3.5 1 8.4 6.4 9.5 11 1.2 5-9 13-13 14z" fill="#fcd8cd"/>
  <path d="m198 30-0.6-0.5v-0.1l-0.9-0.7h-0.2l0.1-0.1-1.4-1-2.7-2v0.1c0.1-0.1 0-0.3-0.1-0.4l-0.6-0.5-0.6-0.3-1.7 3.5 0.6 0.3h0.1l0.8 0.2c0.2 0 0.3 0 0.4-0.1l1.1-2.2-1.1 2.3 3.2 0.9 1.7 0.5 0.5-1-0.4 0.8c0.1 0.1 0.1 0.1 0.1 0.2l1.1 0.3v-0.1l0.8 0.2c-0.3-0.2-0.3-0.2-0.2-0.3z" fill="#f2c1b8"/>
  <path d="m162 10c0-0.1 0-0.2-0.1-0.3l-0.6-0.3c-0.1-0.1-0.2 0-0.3 0.1l-0.8 1.6 0.8-1.6-0.5-0.2c-1-0.4-2.2-0.1-2.5 0.7-0.4 0.8 0 1.9 1 2.5l0.5 0.2c0 0.1 0 0.2 0.1 0.3l0.6 0.3c0.1 0.1 0.2 0 0.3-0.1z" fill="#f2c1b8"/>
  <path d="m189 27 1.6-3.3c0-0.1 0-0.1-0.1-0.2l-19-9.3h-0.2l-9.1-4.4-1.6 3.3 9.1 4.4c0 0.1 0 0.1 0.1 0.2l19 9.3c0.1 0.1 0.2 0.1 0.2 0z" fill="#f2c1b8"/>
  <path d="m199 34 2.2 1 1-1.5-5.2-5.1-2.5 3.8z" fill="#666"/>
  <path d="m203 36 0.6-0.9-1.1-1.1h-0.3l-0.7 1.1c0.1 0.1 0.1 0.2 0.1 0.3z" fill="#4d4d4d"/>
  <path d="m204 36-0.8-0.9-0.4 0.7 1.1 0.4c0-0.2 0-0.2 0.1-0.2z" fill="#ccc"/>
  <path d="m195 32 2.3-3.6c0.1-0.2 0.1-0.4-0.1-0.6l-0.8-0.8-3.1 4.7 1.1 0.4c0.2 0.1 0.5 0 0.6-0.1z" fill="#808080"/>
  <path d="m155 0.48-2.8 4.3 0.67 0.44 2.8-4.3z" fill="#f4bc4f"/>
  <path d="m155 0.9-2.8 4.3c-0.1 0.1 0 0.3 0.1 0.4l0.9 0.6c0.1 0.1 0.3 0.1 0.4 0l2.8-4.3c0.1-0.1 0-0.3-0.1-0.4l-0.9-0.6c-0.1-0.2-0.3-0.2-0.4 0z" fill="#333"/>
  <path d="m157 1.7-2.9 4.4 12 8 2.9-4.4z" fill="#333"/>
  <path d="m192 31 2.9-4.4c0.1-0.1 0-0.2-0.1-0.3l-26-17c-0.1-0.1-0.2-0.1-0.3 0l-2.9 4.4c-0.1 0.1 0 0.2 0.1 0.3l26 17c0.1 0.1 0.3 0.1 0.3 0z" fill="#4d4d4d"/>
  <path d="m193 32h0.1l3.1-4.7-0.1-0.1-0.8-0.5-3.1 4.7z" fill="#f4bc4f"/>
  <path d="m155 0.6-2.8 4.4c-1.5-1-2.1-2.7-1.3-3.9 0.7-1.3 2.6-1.4 4.1-0.5z" fill="#4d4d4d"/>
  <path d="m187 24-0.1 0.2c-0.2 0.3-0.6 0.4-0.9 0.2l-7.7-5c-0.3-0.2-0.4-0.6-0.2-0.9l0.1-0.2c0.2-0.3 0.6-0.4 0.9-0.2l7.7 5c0.3 0.2 0.4 0.6 0.2 0.9z" fill="#333"/>
  <path d="m179 18c-0.2-0.1-0.4-0.1-0.5 0.1l-0.3 0.4c-0.1 0.2 0 0.4 0.1 0.5l3.9 2.5 0.6-1z" fill="#4d4d4d"/>
  <path d="m182 22 3.9 2.5c0.2 0.1 0.4 0.1 0.5-0.1l0.3-0.4c0.1-0.2 0-0.4-0.1-0.5l-3.9-2.5z" fill="#333"/>
  <path d="m193 15c-2.9 4.2-6.9 5.2-7.1 5.2-2.7 0.6-5.6 1-8 0.9-5.5-0.3-4.8-8.3-4.8-8.3 6.8 0.2 9.9-3.2 16-0.8 2.3 0.9 3.4 2 3.8 3z" fill="#fcd8cd"/>
  <path d="m67 180s-2.3 17-8.9 22l-0.4 4.1s9.3-8.5 12-25c0 0 0.2-0.7-3.1-1.6z" fill="#c55465"/>
  <path d="m130 205c-0.2-0.2-12-18-12-21-0.1-1 0.8-1.6 2.3-1.8v0.3c0.5 2.8 11 19 11 20 0 0.5-0.4 1.5-0.9 2.4z" fill="#c55465"/>
  <path d="m91 236 0.8 1.5c1.9-1 3.6-0.9 3.6-0.9l0.2-1.6c-0.1-0.1-2.2-0.3-4.6 1z" fill="#c55465"/>
  <path d="m86 377-1.7 0.2c0.3 2.7 0.5 5.5 0.8 8.3l1.7-0.2c-0.3-2.8-0.5-5.6-0.8-8.3z" fill="#c55465"/>
  <path d="m85 360-1.7 0.2c0.2 2.7 0.5 5.5 0.8 8.3l1.7-0.2c-0.3-2.9-0.6-5.6-0.8-8.3z" fill="#c55465"/>
  <path d="m91 427-1.7 0.2c0.3 2.9 0.6 5.7 0.8 8.3l1.7-0.2c-0.2-2.6-0.5-5.4-0.8-8.3z" fill="#c55465"/>
  <path d="m90 410-1.7 0.2c0.3 2.8 0.5 5.6 0.8 8.3l1.7-0.2c-0.2-2.7-0.5-5.5-0.8-8.3z" fill="#c55465"/>
  <path d="m88 393-1.7 0.2c0.3 2.8 0.5 5.6 0.8 8.3l1.7-0.2c-0.3-2.7-0.5-5.5-0.8-8.3z" fill="#c55465"/>
  <path d="m83 343-1.7 0.1c0.2 2.4 0.4 5.2 0.7 8.4l1.7-0.1c-0.2-3.2-0.5-6-0.7-8.4z" fill="#c55465"/>
  <path d="m86 248c0.3-1.7 0.7-3.2 1.2-4.5l-1.6-0.6c-0.6 1.4-1 3.1-1.3 4.9-0.2 0.9-0.3 2.1-0.5 3.5l1.7 0.2c0.2-1.4 0.3-2.6 0.5-3.5z" fill="#c55465"/>
  <path d="m85 260-1.7-0.1c-0.2 2.5-0.3 5.3-0.5 8.4l1.7 0.1c0.1-3.1 0.3-6 0.5-8.4z" fill="#c55465"/>
  <path d="m84 277-1.7-0.1c-0.1 2.6-0.2 5.5-0.3 8.4l1.7 0.1c0.1-3 0.2-5.8 0.3-8.4z" fill="#c55465"/>
  <path d="m83 333v-5.8h-1.7v5.8c0 0.6 0.1 1.5 0.1 2.6l1.7-0.1c-0.1-1.1-0.1-2-0.1-2.5z" fill="#c55465"/>
  <path d="m83 293h-1.7c-0.1 2.7-0.1 5.6-0.2 8.4h1.7c0-2.8 0.1-5.7 0.2-8.4z" fill="#c55465"/>
  <path d="m83 310h-1.7c-0.1 2.9-0.1 5.7-0.1 8.4h1.7c0-2.7 0-5.5 0.1-8.4z" fill="#c55465"/>
  <path d="m93 443-1.7 0.2c0.3 3.1 0.6 5.9 0.8 8.3l1.7-0.2c-0.2-2.4-0.5-5.2-0.8-8.3z" fill="#c55465"/>
  <path d="m93 460c0.3 2.7 0.4 4.2 0.4 4.2l1.7-0.2s-0.2-1.5-0.4-4.2z" fill="#c55465"/>
  <path d="m142 364 1.6 0.5c0.2-0.5 0.3-1.3 0.5-2.2l-1.7-0.2c-0.1 0.8-0.2 1.5-0.4 1.9z" fill="#c55465"/>
  <path d="m144 320c-0.1-2.7-0.3-5.6-0.4-8.5l-1.7 0.1c0.1 2.9 0.3 5.8 0.4 8.5z" fill="#c55465"/>
  <path d="m143 337h1.7c-0.1-2.6-0.2-5.5-0.3-8.5l-1.7 0.1c0.1 2.9 0.2 5.8 0.3 8.4z" fill="#c55465"/>
  <path d="m145 346h-1.7v8.5h1.7v-4.7z" fill="#c55465"/>
  <path d="m143 295-1.7 0.1c0.2 2.9 0.3 5.7 0.5 8.5l1.7-0.1c-0.2-2.8-0.4-5.6-0.5-8.5z" fill="#c55465"/>
  <path d="m121 236c2.5 1.3 4.9 2.8 7.1 4.4l1-1.4c-2.2-1.7-4.7-3.2-7.3-4.6z" fill="#c55465"/>
  <path d="m140 252-0.1-0.2c-1.3-2.5-2.9-4.8-4.7-7l-1.3 1.1c1.7 2 3.2 4.2 4.4 6.5v0.1s0 0.1 0.1 0.1l0.2-0.1 1.4-0.1z" fill="#c55465"/>
  <path d="m142 278-1.7 0.1c0.2 2.8 0.4 5.7 0.5 8.5l1.7-0.1c-0.1-2.8-0.3-5.6-0.5-8.5z" fill="#c55465"/>
  <path d="m141 261-1.7 0.1c0.2 2.8 0.4 5.6 0.6 8.5l1.7-0.1c-0.2-2.9-0.4-5.8-0.6-8.5z" fill="#c55465"/>
  <path d="m114 221-0.7-0.7c-9.7 9.1-15 18-15 18l0.9 0.5c0-0.1 2.2-3.6 6.2-8.5l-0.1 0.7s3.4 0.5 8.1 2l0.5-1.6c-3.7-1.2-6.6-1.8-7.8-2 2.2-2.6 4.8-5.5 7.9-8.4z" fill="#c55465"/>
  <path d="m94 206c-1.2 0-2.1-0.9-2.2-1l0.7-0.7s1.1 1 2 0.5c1.4-0.7 1.9-3.8 2.1-5.6 0.5-4.4 0.2-11-0.8-20l1-0.1c1.9 16 1.3 25-1.8 27-0.4 0.2-0.7 0.3-1 0.3z" fill="#c55465"/>
  <path d="m100 474c-0.7 0.4-10 1.3-20 1.2-5 0-10-0.4-14-1.1 0 0-2.8-8.4-2.8-14l4.7-2.7s29 1.3 33 3.6c0 0 0.1 1 0.1 2.5 0.2 3.8 0.4 11-0.3 11z" fill="#d16978"/>
  <path d="m80 461c-0.1 3.4 0 8.2 0.6 14-5 0-10-0.4-14-1.1 0 0-2.8-8.4-2.8-14l4.7-2.7s29 1.3 33 3.6c0 0 0.1 1 0.1 2.5-4.9-0.7-13-1.7-21-1.9z" fill="#c55465"/>
  <path d="m173 371s-5-11-32 1.7c-2.1 1-4.4 2.1-6.7 3.4 0 0-0.6-6.8-1.4-12-0.3-1.7 0.7-3.3 2.3-3.9 8.3-3 32-11 41-5.7 0 0 0.3 1.9 0.2 4.7-0.2 3.3-0.9 7.8-3.5 12z" fill="#d16978"/>
  <path d="m141 364c-0.3 2.5-0.3 5.3 0.2 8.1-2.1 1-4.4 2.1-6.7 3.4 0 0-0.6-6.8-1.4-12-0.3-1.7 0.7-3.3 2.3-3.9 8.3-3 32-11 41-5.7 0 0 0.3 1.9 0.2 4.7-5.1-1.7-15-2-35 5.1z" fill="#c55465"/>
  <path d="m71 170c-0.9-0.4-5.1 0.4-6 0.8-1 0.4-1 0.7-0.7 1.7 0.2 0.7 1.8 0.2 2.5-0.1 0 1.2 0.4 3 0.4 3 0.5 0.8 2.4 0.6 2.5-0.2 0.1-0.7-0.3-2.8-0.3-3.2 3-0.3 2.4-1.7 1.6-2zm-1.6 1.8c-0.3-0.4-2.6 0.1-2.6 0.1v0.4c-0.7 0.3-1.9 0.6-2.1 0.1-0.3-0.8-0.3-1.1 0.6-1.4 0.8-0.4 4.5-1.1 5.3-0.7 0.7 0.2 1.3 1.3-1.2 1.5z" fill="#333"/>
  <path d="m61 98s3.9 72 3.9 74c0 0 3.6-0.1 5-0.8s-4.6-73-4.9-73-2.8 0-4 0.6z" fill="#5c5db1"/>
  <path d="m62 122s-0.1-0.2 0-0.8 5.1-1 5.6-0.9c0 0 0.2 0.6 0 0.7s-5.2 1.2-5.6 1z" fill="#333"/>
  <path d="m109 172c-0.1 0.4-0.5 2.5-0.3 3.2 0.1 0.8 2 1 2.5 0.2 0 0 0.4-1.7 0.4-3 0.7 0.3 2.3 0.8 2.5 0.1 0.3-0.9 0.3-1.2-0.7-1.6s-5.2-1.2-6-0.8-1.5 1.8 1.6 1.9zm-1.2-1.7c0.8-0.4 4.5 0.3 5.3 0.7s0.9 0.6 0.6 1.4c-0.2 0.6-1.4 0.2-2.1 0v-0.4s-2.3-0.5-2.5-0.1c-2.6-0.1-2-1.3-1.3-1.6z" fill="#333"/>
  <path d="m109 170c-0.2-5.1-2.4-74-1.7-78 0 0 2-0.9 3.9-0.5 0 0 2.8 78 2.4 79-0.3 0.6-3.4-0.2-4.4-0.4-0.1-0.1-0.2-0.2-0.2-0.4z" fill="#5c5db1"/>
  <path d="m107 120s5-0.3 5.2-0.2 0.2 0.7 0.1 0.8c0 0.1-5 0.4-5.2 0.4-0.2-0.1-0.2-0.6-0.1-1z" fill="#333"/>
  <path d="m74 64c-1.9 0-3.7-0.5-5.1-1.4-2.1-1.3-3.4-3.3-3.8-5.8s0-4.7 1.1-6.4c1.1-1.6 2.9-2.8 5.3-3.3 3.1-0.7 6.6-0.1 9.1 1.6 1.9 1.3 3.1 3 3.4 5 0.8 5-2.5 9.3-8 10-0.8 0.1-1.4 0.1-2 0.1zm-0.1-16c-0.8 0-1.6 0.1-2.3 0.3-4.4 1-6.3 4.1-5.6 8.6 0.4 2.2 1.5 4 3.4 5.1 1.8 1.1 4 1.5 6.3 1.1 4.9-0.8 7.9-4.6 7.2-9-0.4-2.2-1.8-3.6-3-4.3-1.7-1.2-3.8-1.8-6-1.8z" fill="#3a322e"/>
  <g opacity=".21">
   <path d="m83 56c-0.7 3.4-3.7 5.9-7.5 6.6-2.1 0.4-4.2 0.1-5.9-0.7-0.7-0.3-1.4-0.8-1.9-1.3-1.3-1.1-2.1-2.7-2.5-4.6-0.6-3.7 0.6-6.5 3.1-8 0.8-0.5 1.8-0.9 2.8-1.1 4.9-1.1 11 1.3 12 6.2 0.2 0.9 0.2 2 0 2.9z" fill="#fff" opacity=".21"/>
   <path d="m74 64c-1.5 0-3-0.3-4.3-0.9-0.8-0.4-1.4-0.8-2.1-1.4-1.4-1.3-2.3-3-2.6-4.9-0.6-3.8 0.6-6.8 3.4-8.5 0.9-0.5 1.9-0.9 3-1.2 3.1-0.7 6.6-0.1 9.1 1.6 1.9 1.3 3.1 3 3.4 5 0.2 1.1 0.2 2.2 0 3.2-0.8 3.6-3.8 6.2-8 6.9-0.7 0.2-1.3 0.2-1.9 0.2zm-0.1-16c-0.8 0-1.6 0.1-2.3 0.3-1 0.2-1.9 0.6-2.7 1.1-2.5 1.5-3.5 4.1-2.9 7.5 0.3 1.7 1.1 3.2 2.3 4.3 0.5 0.5 1.1 0.9 1.8 1.2 1.6 0.8 3.6 1 5.6 0.7 3.7-0.6 6.4-3 7.1-6.1 0.2-0.9 0.2-1.9 0-2.9-0.4-2.2-1.8-3.6-3-4.3-1.6-1.2-3.7-1.8-5.9-1.8z" fill="#3a322e" opacity=".21"/>
  </g>
 </g>
</svg>
