<svg width="174" height="259" fill="none" version="1.1" viewBox="0 0 174 259" xmlns="http://www.w3.org/2000/svg">
 <defs>
  <clipPath id="a">
   <rect x=".016" y=".016" width="186" height="260" fill="none" stroke="#f4bc4f" stroke-linecap="square" stroke-width=".41" style="paint-order:markers stroke fill"/>
  </clipPath>
 </defs>
 <g transform="translate(-.88 -1.4)" clip-path="url(#a)">
  <path d="m84 458c-0.19 0.66-3.2 0.85-3.5 1.2-0.28 0.28-0.47 0.47-0.66 0.57-1.5 0.85-1.5-2.4-3-2.5-1.7-0.19-5.3-22-5.3-22 1.1 0.57 2.4 0.85 3.6 1 2.8 0.28 5.9-0.28 8.2-0.95 0.095 3.4 2 19 0.66 23z" fill="#d16978"/>
  <path d="m80 460c-1.5 0.85-1.5-2.4-3-2.5-1.7-0.19-5.3-22-5.3-22 1.1 0.57 2.4 0.85 3.6 1 0.38 3 2.1 16 4.7 24z" fill="#b25267"/>
  <path d="m84 410c3.1 4.8 5.4 27-2.4 29-3.4 0.85-7.2-0.094-11-1.9-4.5-2.4-8.5-6.2-11-9.7-4.1-6.2 5-4.8-2.9-11-8-6.5-12-23-11-30 1.2-6.4-37-115-37-115 1.5 1.3 3.2 2.6 5 3.9 0.57 0.38 1 0.76 1.6 1.1 5.8 3.8 13 7 21 9 4.8 1.2 9.9 2 15 2.1h2.1c2.3 0 4.5-0.19 6.8-0.57-3.2 8.1 7 37 19 67-4.9 11 12 41 14 49 2.2 7.4-12 3.6-8.4 8.4z" fill="#5757b0"/>
  <path d="m78 353s-26-35-26-66c2.3 0 4.5-0.19 6.8-0.57-3.2 7.9 7 36 19 67z" fill="#40408e"/>
  <path d="m66 419c1-5.5-13-19-16-25-2.6-5.1-2.3-16-4.1-27-1.9-11-12-33-14-46-1-7.9-9.1-27-14-40 3.8 1.8 9.9 3.9 18 2.4-7.8-2-15-5.3-21-9l-0.85-0.57c-0.19-0.095-0.38-0.28-0.57-0.38-1.9-1.3-3.7-2.6-5.2-4.1 0.19 0.57 39 109 37 115-1.2 6.4 3.3 23 11 30 8 6.5-1 5.1 2.9 11 2.3 3.5 6.3 7.4 11 9.7 3.5 1.8 7.3 2.7 11 1.9-11-1-16-14-16-19z" fill="#40408e"/>
  <path d="m117 204s4.1 2.9 13 3.2c0 0 1.3 7.5 0.095 9.7-0.38 0.66-1.4 1.5-2.7 2.6-3 2.4-7.8 5.2-9.4 6.4-2.4 1.8 0 13 0 15s-7.2 5.6-9 7 2.8 12 3.3 14c0.28 1.5-1.9 1.7-3.6 1.9-1 0.19-2 0.38-2 1-4.3 2.3-9.4 4.8-15 7.5-13 6.2-28 13-40 15-2.5 0.57-4.8 0.95-7.3 1 0 0-4.1-34 2.7-59 6.7-25 18-101 18-101l26-14-3.8-12-1.6-5.1s19 11 21 8.1c2.2-2.5 16-20 15-24 0 0 7.4 4.4 16 10 12 7.6 11 10 14 14 0-0.094-27 30-35 99z" fill="#d16978"/>
  <path d="m92 272c-13 6.2-28 13-39 15-2.5 0.57-4.8 0.95-7.3 1 0 0-4.1-34 2.7-59 6.7-25 18-101 18-101l24-13c0.57 1.6 0.85 2.9 0.38 3.5-1.9 2.6-19 6.9-22 12-3.4 5.5-15 83-16 93-0.38 9.7-10 45-2.7 51 6.8 5.7 16 2.2 42-3z" fill="#b25267"/>
  <path d="m138 92c-4.6-1.5-9.8-2.8-15-3.5-2.8 5.6-9.9 19-14 20-4.4 1.7-15-3.4-20-5.8l-1.6-5.1s19 11 21 8.1c2.2-2.5 16-20 15-24-0.095-0.19 7.3 4.3 16 9.8z" fill="#b25267"/>
  <path d="m37 111c-1 31-10 96-10 96s-1.3-0.094-3.3-0.19c-2.5-0.19-6-0.47-9.6-0.85h-0.095c-6.2-0.76-4.6-1.4-6.3-3.1 0 0 11-46 10-72-0.19-4.4 1.1-8.9 3.8-12 4.6-6.2 12-16 15-19-0.28 1.4-0.95 4.5-1.6 7.6-0.85 3.9-1.6 7.5-1.1 7 0.38-0.19 1.6-1 3.1-2.2z" fill="#d16978"/>
  <path d="m37 99c-0.28 1.4-0.95 4.5-1.6 7.6-3.5 3.8-6.2 8.9-9.6 13-3.1 3.9-5.1 8.6-5.5 14-1.1 13 0.28 30-1.8 36-2.9 8.9-8.1 30-5.4 31 2.3 1.1-2.7 4.9 11 6.3-2.5-0.19-6-0.47-9.6-0.85h-0.095c-6.2-0.76-4.6-1.4-6.3-3.1 0 0 11-46 10-72-0.19-4.4 1.1-8.9 3.8-12 4.6-6.2 12-15 15-19z" fill="#b25267"/>
  <path d="m48 230c-6.8 25-2.7 59-2.7 59-2.2 0.19-4.4 0.19-6.5 0-12-0.66-23-5.2-30-10-4.5-3.4-7.4-7.1-7.6-10-0.38-6.6 4.8-11 7.8-16 1.1-1.7 1.8-3.3 1.7-4.9-0.28-6-0.28-6 6.7-17 7-11 9.8-23 9.8-23s8.9-65 9.9-96c3.7-2.7 9.6-6.9 9.6-6.9l-4.1 12 24 13s-12 76-18 101z" fill="#d16978"/>
  <path d="m66 129c-0.38-0.19-24-10-26-11-2.2-1.2 2.7-5.6 2.2-7.8-0.57-2.2-4 1.8-4.2 4.2-0.19 2.4 3.6 38 0 50s-2.7 40-7.4 46c-4.7 6.3-14 26-16 34-1.9 7.9-11 16-9.1 20 1.2 3.7 15 16 33 24-12-0.66-23-5.2-30-10-4.5-3.4-7.4-7.1-7.6-10-0.38-6.6 4.8-11 7.8-16 1.1-1.7 1.8-3.3 1.7-4.9-0.28-6-0.28-6 6.7-17 7-11 9.8-23 9.8-23s8.9-65 9.9-96c3.7-2.7 9.6-6.9 9.6-6.9l-4.1 12z" fill="#b25267"/>
  <path d="m175 196s-0.095 0.095-0.28 0.38c-1.3 0.95 2.2-0.85-5 1-16 4.4-40 9.8-40 9.8-8.9-0.28-13-3.2-13-3.2 7.6-69 35-99 35-99 4.5 6.2 23 88 23 91z" fill="#d16978"/>
  <path d="m117 204s4.1 2.9 13 3.2c0 0-11 3.5-15 1.7-3.2-1.8-1.3-28 0.85-34s1.9-67 36-70c0 0-27 30-35 99z" fill="#b25267"/>
  <path d="m171 232c-1.4 2-39 33-53 41-0.66 0.38-1.3 0.76-1.9 1-1.3 0.66-2.4 1-3 0.95 0 0-6.4-8.9-6.4-11 0-0.66 0.85-0.85 2-1 1.7-0.28 3.9-0.38 3.6-1.9-0.38-2.6-5.1-13-3.3-14 1.8-1.4 9-5.2 9-7s-2.4-13 0-15c1.6-1.2 6.3-4.2 9.4-6.4 1.3-1 2.3-1.9 2.6-2.6 1.2-2.2-0.094-9.6-0.094-9.6s10-2.4 22-5.2c6.1-1.5 13-3.1 18-4.6 0 0 0.38 4.3 0.66 9.8 0.76 9.6 1.4 23 0.38 25z" fill="#f4bc4f"/>
  <path d="m152 202c-4.4 2.5-9.5 5.3-13 6.8 0 0-1 15-12 17 0 0 2.4 15-8.1 18 0 0-6.5 3.4-6 7.4 0 0 2.6 5 1.5 8.1-0.95 2.7-6.1 8.8 1.1 14-1.3 0.66-2.4 1-3 0.95 0 0-6.4-8.9-6.4-11 0-0.66 0.85-0.85 2-1 1.7-0.28 3.9-0.38 3.6-1.9-0.38-2.6-5.1-13-3.3-14 1.8-1.4 9-5.2 9-7s-2.4-13 0-15c1.6-1.2 6.3-4.2 9.4-6.4 1.3-1 2.3-1.9 2.7-2.6 1.2-2.2-0.095-9.6-0.095-9.6s10-2.4 22-5.2z" fill="#f7a91e"/>
  <path d="m17 231c-6.4 9.8-7 11-6.8 15 0 0.47 0 0.95 0.095 1.4 0.095 1.6-0.66 3.3-1.7 4.9-0.85-2.1-2.7-6.1-5-11-3.5-6.7 3.2-12 7.6-18 3.3-3.9 3.2-13 2.8-18 3.2 0.38 6.3 0.66 8.7 0.76 2.5 0.19 4.2 0.28 4.2 0.28s-2.8 12-9.8 23z" fill="#f4bc4f"/>
  <path d="m23 207c-0.85 1.5-2.3 3.1-4.6 4.3-0.19 4.8-0.85 13-3.4 13-3.6 0-7.4 6.2-7.4 12 0 3.3 1.5 6.5 2.9 9.3 0 0.47 0 0.95 0.095 1.4 0.095 1.6-0.66 3.3-1.7 4.9-0.85-2.1-2.7-6.1-5-11-3.5-6.7 3.2-12 7.6-18 3.3-3.9 3.2-13 2.8-18 3.1 0.47 6.3 0.76 8.7 0.85z" fill="#f7a91e"/>
  <path d="m139 440c-0.95 0-2.3 0.28-3.8 0.76-4.5 1.2-11 3.5-13 1.4-2.5-2.2-4.4-8.7-7-12-0.57-0.66-1.2-1.1-2-1.4-1.7-0.47-4.6-1.7-7.2-4.3-3.2-3.1-5.9-8.2-4.6-16v-0.094c0.66-4.6-4.4-17-12-32-2.2-4.5-4.4-9.4-6.8-14-3.4-6.9-6.9-14-10-21-12-24-22-47-20-54 16-3.7 40-15 54-23 0.095 1.7 6.4 11 6.4 11 0.85 0.094 2.6-0.66 4.9-2 0 0 5.5 95 8.7 101 3.2 6.5 16 18 12 21s-7.5 2.7-5.3 5.4 6.9 7.6 5.3 12c-1.6 4.3 3.7 28-0.094 28z" fill="#5757b0"/>
  <path d="m122 405s-9.1 7.9-21 4.4v-0.095c0.66-4.6-4.4-17-12-32 5.5 11 13 25 17 27 6.8 4.1 11 2.5 16 0.85z" fill="#40408e"/>
  <path d="m127 428s-5.2 2.3-12 3c-0.57-0.66-1.2-1.1-2-1.4-1.7-0.47-4.6-1.7-7.2-4.3 0.095 0.095 13 5.1 21 2.6z" fill="#40408e"/>
  <path d="m135 459c-0.76 2.8-5.8 3.3-7.2 1.1s-6.2-18-6.2-18c0.85 0.76 2.4 0.95 4.1 0.76 2.7-0.28 6.2-1.4 9-2.2 0 0 1 15 0.28 18z" fill="#d16978"/>
  <path d="m103 79c-3 2.4-6.1 5.1-8.8 8.1-10 1.5-26 1.7-39-0.95-0.19-1.3-0.19-2.6-0.19-3.9 1.3-2 2.9-4.9 4.2-9.3 1.3-4.5 2.4-11 2.6-19 0.66-0.095 1.2-0.38 1.6-0.57v0.19s2 19 28 19c3.6 0 6.4-0.47 8.8-1.3 0.095 0.66 0.19 1.3 0.38 2 0.38 1.8 0.85 3.7 1.8 5.3z" fill="#fcd8cd"/>
  <path d="m94 87c-16 17-28 42-28 42s-0.19-0.57-0.66-1.6c-2.2-5.6-9.1-25-10-42 8.2 1.7 17 2.3 25 2.1 4.9 0 9.6-0.38 13-1z" fill="#f4bc4f"/>
  <path d="m65 127c-2.2-5.6-9.1-25-10-42 8.2 1.7 17 2.3 25 2.1-3.9 2.3-14 1.8-21 3.1-0.095 6.4 4.2 23 6.2 36z" fill="#f7a91e"/>
  <path d="m107 106c-2.2 2.5-21-8.1-21-8.1l5.4 17-26 14c0.095-0.19 12-25 28-42 2.8-3 5.8-5.8 8.8-8.1 0 0 5.2-1.4 8.1-8.4 4.9 3.2 10 8.8 11 12 1.3 3.9-12 22-15 24z" fill="#d16978"/>
  <path d="m111 70c-2.9 7-8.1 8.4-8.1 8.4-1.2-2.3-1.8-5-2.1-7.3 2.4-0.85 4.2-2 5.5-3.4 1.3 0.28 3 1.1 4.7 2.3z" fill="#174938"/>
  <path d="m55 82c0-0.095 0.47-3.4-0.47-7.5 2.4-1.4 4.7-1.7 4.7-1.7-1.4 4.3-2.9 7.3-4.3 9.2z" fill="#40408e"/>
  <path d="m42 116 4.1-12s-5.9 4.2-9.6 6.9c-1.5 1.1-2.7 2-2.9 2.3-0.38 0.38 0.095-2.5 0.85-5.8 0.76-3.3 1.6-7.2 1.9-8.9 0.38-2.3 6.4-11 11-17 1.9-2.6 3.5-4.5 4.4-5.4 0.76-0.76 1.5-1.3 2.3-1.8 0.95 4.2 0.47 7.4 0.47 7.5 0 1.2 0.095 2.6 0.19 3.9 1.4 20 11 43 11 43z" fill="#d16978"/>
  <path d="m48 82c-3 6-8.1 16-8.4 18-0.19 1.5-2.4 4.7-4.4 7.9 0.76-3.3 1.6-7.2 1.9-8.9 0.28-2.4 6.4-11 11-17z" fill="#b25267"/>
  <path d="m51 44c-0.19-0.095-0.38-0.095-0.57-0.19l0.095-0.19c0.19 0.095 0.38 0.095 0.57 0.19z" fill="#f2c1b8"/>
  <path d="m106 43-0.19-0.095s0-0.095 0.095-0.19l0.19 0.095c0 0.19-0.095 0.19-0.095 0.19z" fill="#f2c1b8"/>
  <path d="m104 34-0.095-0.095z" fill="#f2c1b8"/>
  <path d="m61 46-0.19 1v0.28c-0.095 0.85-0.19 1.9-0.095 2.9-1.3 1.2-1.2 6.4-1.2 7.7-0.57 0.28-1.1 0.57-1.9 0.76-0.66 0.19-1.3 0.28-2.1 0.28-5.2 0.28-7.9-7-7.7-13v-0.19c0.19-4.4 1.7-8 4.6-8.1 4.7-0.19 7.3 5 8.5 8.5z" fill="#f2c1b8"/>
  <path d="m112 64c-0.38 2.7-1.3 5.5-3.3 7.8-0.57 0.66-1.1 1.2-1.9 1.8-1.1 0.95-2.6 1.7-4.2 2.5-2.7 1-5.9 1.8-10 2-30 1.5-34-20-34-20v-0.19c0-1.3-0.095-6.4 1.2-7.7 0.095 2 0.57 3.7 2.3 3 0.19-0.095 0.47-0.19 0.76-0.38 0.76-0.47 1.2-1 1.6-1.5 0.57-0.85 0.57-1.6 0.38-2.3-0.38-1.3-1.8-2.3-2.2-2.4 0 0 4.2-1.8-0.66-6.1 0 0 6.1-1.2 2.3-5.7 0 0 3.2-2.7 0.85-5.5 0 0 2.2 0.85 5.5-0.095 1.6-0.47 3.6-1.3 5.7-2.8 0 0 9.8-6.4 14-0.66 0 0 5.4 8.2 8.7 2.6 0 0 4.4-0.66 6.1 2.8 0 0 0.47 3.8 2.6 0.76 0.85 2.7 1.6 6.2 1.7 10 0.095 1.7 0 3.5-0.28 5.3 0 0 1.9 3.9 2.7 8.9 0.095 0.47 0.19 0.95 0.19 1.3 0.19 2 0.28 4.3 0 6.4z" fill="#fcd8cd"/>
  <path d="m65 35s3.2-2.7 0.85-5.5c0 0 2.2 0.85 5.5-0.095-1.7 4.6-4.4 13-5.7 20-0.38-1.3-1.8-2.3-2.2-2.4 0 0 4.2-1.8-0.66-6.1-0.095 0 6-1.2 2.2-5.7z" fill="#f2c1b8"/>
  <path d="m107 74c-1.1 0.95-2.6 1.7-4.2 2.5-2.7 1-5.9 1.8-10 2-30 1.5-34-20-34-20v-0.19c0-1.3-0.095-6.4 1.2-7.7 0.095 2 0.57 3.7 2.3 3 0.19-0.095 0.47-0.19 0.76-0.38 0.76-0.47 1.2-1 1.6-1.5-0.66 4.9-0.38 9.3 1.8 11 6.5 6.1 21 11 40 11z" fill="#f2c1b8"/>
  <path d="m117 48c0.38 7.3-2.9 8.8-5.4 8.9-0.85-5-2.7-8.9-2.7-8.9 0.28-1.8 0.28-3.6 0.28-5.3 0.38-0.19 0.85-0.47 1.3-0.76 2.4-1.2 6.2-1.7 6.5 6.1z" fill="#f2c1b8"/>
  <path d="m111 42c-0.47 0.28-0.95 0.57-1.3 0.76-0.095-3.8-0.85-7.3-1.7-10-2.1 3-2.6-0.76-2.6-0.76-1.6-3.5-6.1-2.8-6.1-2.8-3.3 5.6-8.7-2.6-8.7-2.6-3.9-5.7-14 0.66-14 0.66-6.5 4.7-11 2.9-11 2.9 2.5 2.7-0.85 5.5-0.85 5.5 3.8 4.4-2.3 5.7-2.3 5.7 4.8 4.4 0.66 6.1 0.66 6.1 0.76 0.28 4.6 3.2 0.28 6.1-0.28 0.19-0.47 0.28-0.76 0.38-1.7 0.76-2.2-1-2.3-3-0.095-1 0-2.2 0.095-2.9v-0.28l0.095-0.95c-1.2-3.6-3.8-8.7-8.5-8.5-2.9 0.19-4.4 3.9-4.6 8.1-8.9-2.6-3.1-11-3.1-11-6.9-6.1 0.76-11 0.76-11-5-8 5.6-9.1 5.6-9.1-1.4-7.2 8.2-3.9 8.2-3.9-0.47-4.4 3.6-4.1 3.6-4.1 7-12 12-0.47 12-0.47 5.7-12 13-0.38 13-0.38 14-8.1 13 5.5 11 5.3 12-2.8 8.8 11 7.8 11 11-0.19 4.6 11 4.6 11 2.4 1.8 0.76 6.8 0.47 7.9z" fill="#594433"/>
  <path d="m83 38c0.76-0.57-6.4-1.1-8.9 0.47 0 0-2.1 1.1-2.2 1.8 0 0 1.1 0.28 5.3-0.57 4.2-0.95 3.9-0.38 5.8-1.7z" fill="#000"/>
  <path d="m95 37c-0.66-0.47 5.5-1.7 7.7-0.38 0 0 1.8 0.95 2 1.6 0 0-0.95 0.38-4.5-0.095-3.7-0.47-3.3 0-5.1-1.1z" fill="#000"/>
  <path d="m83 44c-0.19 1.1-0.95 3-4.4 3.7-3.4 0.57-4.8-0.95-5-3.2v-0.38c-0.19-3.6 8.2-3.9 9.6-0.95-0.095 0-1e-4 0.38-0.095 0.85z" fill="#fff"/>
  <path d="m104 43v0.38c-0.28 3.3-1.3 3.4-4.8 3.5-3.1 0.19-3.8-2.6-3.9-3.3v-0.19c-0.95-2.6 8.9-4.2 8.7-0.38z" fill="#fff"/>
  <path d="m78 46c0.68 0 1.2-0.55 1.2-1.2s-0.55-1.2-1.2-1.2-1.2 0.55-1.2 1.2 0.55 1.2 1.2 1.2z" fill="#000"/>
  <path d="m99 45c0.68 0 1.2-0.55 1.2-1.2 0-0.68-0.55-1.2-1.2-1.2s-1.2 0.55-1.2 1.2c0 0.68 0.55 1.2 1.2 1.2z" fill="#000"/>
  <path d="m90 43s3.7 8.6 3.7 11-7.7 2.1-7.2 0.19c0.47-1.7 2.6-12 3.5-11z" fill="#f2c1b8"/>
  <path d="m88 57c0-0.38-0.38-0.76-0.76-0.85-1.1-0.19-3.7-0.095-7.1 4.2 0 0-4 5 0.85 2.6 4.4-2.1 7.3-3.9 7-5.9z" fill="#594433"/>
  <path d="m94 57c-0.19-0.66 0.28-1.3 0.95-1.4 1-0.19 3.1 0.19 5.9 3.3 0 0 3.7 4.2-0.47 2.4-3.5-1.4-6-2.7-6.3-4.3z" fill="#594433"/>
  <path d="m89 63c-1.4 0-2.6-0.19-3.5-0.57-0.19-0.095-0.28-0.28-0.19-0.38 0.095-0.19 0.28-0.28 0.38-0.19 2.9 1.1 8.4-0.095 10-0.57-0.47-0.28-1.1-0.85-1.6-1.5-0.095-0.19-0.095-0.38 0.095-0.47 0.19-0.095 0.38-0.095 0.47 0.095 0.85 1.1 2.1 1.7 2.1 1.7 0.095 0.095 0.19 0.19 0.19 0.28s-0.095 0.28-0.19 0.28c0 0-2 0.57-4.4 0.95-1.4 0.28-2.7 0.38-3.8 0.38z" fill="#020202"/>
  <path d="m112 58c0-0.38-0.094-0.85-0.19-1.4-0.47-3.1-2-8.9-2.7-8.9-0.95 0 1.4 12-0.38 14-1.7 1.6-0.66 6.1-2.5 9-1.3 2.2-2.7 2.9-5.5 2.7 0.19-0.76 0.095-1.6-0.28-2.6-1.9-4.4-3.7-1.5-7-1.2-3.3 0.28-3.7-1.1-5.7 0.38-2 1.5-1.2 4.8-1.2 4.8-4.4 1.8-14-2.5-19-5.5-3.6-2.3-4.6-11-4.9-15-0.095-1.4-0.095-2.4-0.095-2.4-0.95-1-1.7-1.1-2.2-0.66-1.3 1.2-1.2 6.4-1.2 7.7v0.19c-0.19 3 5.5 18 8.7 18s13 2.6 16 4.2c2.7 1.5 8.8 2.6 12 0.95 1.8-0.95 4.8-2 7.5-2.9 1.9-0.76 3.7-1.5 4.5-2.3 1.3-1.2 1.2-2.7 1.5-4.1 0.094-0.76 0.38-1.4 0.95-1.9 1.2-0.95 1.7-3.4 1.9-6 0.094-2.7-0.095-5.5-0.19-6.6z" fill="#594433"/>
  <path d="m135 459c-0.76 2.8-5.8 3.3-7.2 1.1s-6.2-18-6.2-18c0.85 0.76 2.4 0.95 4.1 0.76 0.19 5 1.2 14 9.3 16z" fill="#b25267"/>
 </g>
</svg>
